<?xml version="1.0" encoding="UTF-8" standalone="no"?>
<!DOCTYPE svg PUBLIC "-//W3C//DTD SVG 1.1//EN"
 "http://www.w3.org/Graphics/SVG/1.1/DTD/svg11.dtd">
<!-- Generated by graphviz version 2.36.0 (20140111.2315)
 -->
<!-- Title: viewPackage.ToggleBox Pages: 1 -->
<svg width="136pt" height="118pt"
 viewBox="0.00 0.00 136.00 118.00" xmlns="http://www.w3.org/2000/svg" xmlns:xlink="http://www.w3.org/1999/xlink">
<g id="graph0" class="graph" transform="scale(1 1) rotate(0) translate(4 114)">
<title>viewPackage.ToggleBox</title>
<polygon fill="white" stroke="none" points="-4,4 -4,-114 132,-114 132,4 -4,4"/>
<!-- Node1 -->
<g id="node1" class="node"><title>Node1</title>
<polygon fill="#bfbfbf" stroke="black" points="0,-0.5 0,-19.5 128,-19.5 128,-0.5 0,-0.5"/>
<text text-anchor="middle" x="64" y="-7.5" font-family="Helvetica,sans-Serif" font-size="10.00">viewPackage.ToggleBox</text>
</g>
<!-- Node2 -->
<g id="node2" class="node"><title>Node2</title>
<polygon fill="white" stroke="#bfbfbf" points="26,-90.5 26,-109.5 102,-109.5 102,-90.5 26,-90.5"/>
<text text-anchor="middle" x="64" y="-97.5" font-family="Helvetica,sans-Serif" font-size="10.00">ToggleGroup</text>
</g>
<!-- Node2&#45;&gt;Node1 -->
<g id="edge1" class="edge"><title>Node2&#45;&gt;Node1</title>
<path fill="none" stroke="#9a32cd" stroke-dasharray="5,2" d="M64,-79.9784C64,-61.3096 64,-33.6696 64,-19.7241"/>
<polygon fill="#9a32cd" stroke="#9a32cd" points="60.5001,-80.2405 64,-90.2405 67.5001,-80.2405 60.5001,-80.2405"/>
<text text-anchor="middle" x="87.5" y="-63.5" font-family="Helvetica,sans-Serif" font-size="10.00"> outline</text>
<text text-anchor="middle" x="87.5" y="-52.5" font-family="Helvetica,sans-Serif" font-size="10.00">edgeType</text>
<text text-anchor="middle" x="87.5" y="-41.5" font-family="Helvetica,sans-Serif" font-size="10.00">cellShape</text>
</g>
</g>
</svg>
