<?xml version="1.0" encoding="UTF-8" standalone="no"?>
<!DOCTYPE svg PUBLIC "-//W3C//DTD SVG 1.1//EN"
 "http://www.w3.org/Graphics/SVG/1.1/DTD/svg11.dtd">
<!-- Generated by graphviz version 2.36.0 (20140111.2315)
 -->
<!-- Title: viewPackage.PopulationGraph Pages: 1 -->
<!--zoomable 477 -->
<svg id="main" version="1.1" xmlns="http://www.w3.org/2000/svg" xmlns:xlink="http://www.w3.org/1999/xlink" xml:space="preserve" onload="init(evt)">
<style type="text/css"><![CDATA[
.edge:hover path { stroke: red; }
.edge:hover polygon { stroke: red; fill: red; }
]]></style>
<script type="text/javascript"><![CDATA[
var edges = document.getElementsByTagName('g');
if (edges && edges.length) {
  for (var i=0;i<edges.length;i++) {
    if (edges[i].id.substr(0,4)=='edge') {
      edges[i].setAttribute('class','edge');
    }
  }
}
]]></script>
        <defs>
                <circle id="rim" cx="0" cy="0" r="7"/>
                <circle id="rim2" cx="0" cy="0" r="3.5"/>
                <g id="zoomPlus">
                        <use xlink:href="#rim" fill="#404040">
                                <set attributeName="fill" to="#808080" begin="zoomplus.mouseover" end="zoomplus.mouseout"/>
                        </use>
                        <path d="M-4,0h8M0,-4v8" fill="none" stroke="white" stroke-width="1.5" pointer-events="none"/>
                </g>
                <g id="zoomMin">
                        <use xlink:href="#rim" fill="#404040">
                                <set attributeName="fill" to="#808080" begin="zoomminus.mouseover" end="zoomminus.mouseout"/>
                        </use>
                        <path d="M-4,0h8" fill="none" stroke="white" stroke-width="1.5" pointer-events="none"/>
                </g>
                <g id="dirArrow">
                        <path fill="none" stroke="white" stroke-width="1.5" d="M0,-3.0v7 M-2.5,-0.5L0,-3.0L2.5,-0.5"/>
                </g>
               <g id="resetDef">
                       <use xlink:href="#rim2" fill="#404040">
                               <set attributeName="fill" to="#808080" begin="reset.mouseover" end="reset.mouseout"/>
                       </use>
               </g>
        </defs>

<script type="text/javascript">
var viewWidth = 1114;
var viewHeight = 477;
var sectionId = 'dynsection-0';
</script>
<script xlink:href="../../svgpan.js"/>
<svg id="graph" class="graph">
<g id="viewport">
<title>viewPackage.PopulationGraph</title>
<polygon fill="white" stroke="none" points="-4,4 -4,-473 1110,-473 1110,4 -4,4"/>
<!-- Node1 -->
<g id="node1" class="node"><title>Node1</title>
<polygon fill="#bfbfbf" stroke="black" points="452.5,-394.5 452.5,-413.5 611.5,-413.5 611.5,-394.5 452.5,-394.5"/>
<text text-anchor="middle" x="532" y="-401.5" font-family="Helvetica,sans-Serif" font-size="10.00">viewPackage.PopulationGraph</text>
</g>
<!-- Node4 -->
<g id="node4" class="node"><title>Node4</title>
<g id="a_node4"><a xlink:href="../../d1/dbf/classview_package_1_1_view.html" target="_top" xlink:title="viewPackage.View">
<polygon fill="white" stroke="black" points="738.5,-330.5 738.5,-349.5 839.5,-349.5 839.5,-330.5 738.5,-330.5"/>
<text text-anchor="middle" x="789" y="-337.5" font-family="Helvetica,sans-Serif" font-size="10.00">viewPackage.View</text>
</a>
</g>
</g>
<!-- Node1&#45;&gt;Node4 -->
<g id="edge11" class="edge"><title>Node1&#45;&gt;Node4</title>
<path fill="none" stroke="#9a32cd" stroke-dasharray="5,2" d="M621.642,-402.474C650.379,-400.014 682.041,-395.175 710,-386 735.095,-377.765 760.844,-360.528 775.582,-349.65"/>
<polygon fill="#9a32cd" stroke="#9a32cd" points="621.311,-398.989 611.61,-403.248 621.85,-405.968 621.311,-398.989"/>
<text text-anchor="middle" x="670" y="-405" font-family="Helvetica,sans-Serif" font-size="10.00"> myGraph</text>
</g>
<!-- Node2 -->
<g id="node2" class="node"><title>Node2</title>
<polygon fill="white" stroke="#bfbfbf" points="216,-438 216,-468 350,-468 350,-438 216,-438"/>
<text text-anchor="start" x="224" y="-456" font-family="Helvetica,sans-Serif" font-size="10.00">List&lt; XYChart.Series</text>
<text text-anchor="middle" x="283" y="-445" font-family="Helvetica,sans-Serif" font-size="10.00">&lt; Number, Number &gt; &gt;</text>
</g>
<!-- Node2&#45;&gt;Node1 -->
<g id="edge1" class="edge"><title>Node2&#45;&gt;Node1</title>
<path fill="none" stroke="#9a32cd" stroke-dasharray="5,2" d="M360.199,-437.884C400.274,-429.934 448.177,-420.431 483.04,-413.514"/>
<polygon fill="#9a32cd" stroke="#9a32cd" points="359.319,-434.49 350.191,-439.869 360.681,-441.356 359.319,-434.49"/>
<text text-anchor="middle" x="401" y="-439" font-family="Helvetica,sans-Serif" font-size="10.00"> listOfSpecies</text>
</g>
<!-- Node3 -->
<g id="node3" class="node"><title>Node3</title>
<polygon fill="white" stroke="#bfbfbf" points="225,-389 225,-419 341,-419 341,-389 225,-389"/>
<text text-anchor="start" x="233" y="-407" font-family="Helvetica,sans-Serif" font-size="10.00">LineChart&lt; Number,</text>
<text text-anchor="middle" x="283" y="-396" font-family="Helvetica,sans-Serif" font-size="10.00"> Number &gt;</text>
</g>
<!-- Node3&#45;&gt;Node1 -->
<g id="edge2" class="edge"><title>Node3&#45;&gt;Node1</title>
<path fill="none" stroke="#9a32cd" stroke-dasharray="5,2" d="M351.578,-404C382.645,-404 419.696,-404 452.041,-404"/>
<polygon fill="#9a32cd" stroke="#9a32cd" points="351.288,-400.5 341.288,-404 351.288,-407.5 351.288,-400.5"/>
<text text-anchor="middle" x="401" y="-407" font-family="Helvetica,sans-Serif" font-size="10.00"> lineChart</text>
</g>
<!-- Node4&#45;&gt;Node1 -->
<g id="edge3" class="edge"><title>Node4&#45;&gt;Node1</title>
<path fill="none" stroke="#9a32cd" stroke-dasharray="5,2" d="M730.856,-351.614C700.728,-358 663.226,-366.365 630,-375 607.374,-380.88 582.077,-388.478 562.99,-394.421"/>
<polygon fill="#9a32cd" stroke="#9a32cd" points="731.709,-355.011 740.774,-349.526 730.268,-348.161 731.709,-355.011"/>
<text text-anchor="middle" x="670" y="-378" font-family="Helvetica,sans-Serif" font-size="10.00"> view</text>
</g>
<!-- Node6 -->
<g id="node6" class="node"><title>Node6</title>
<g id="a_node6"><a xlink:href="../../df/dcf/classview_package_1_1_display_grid.html" target="_top" xlink:title="viewPackage.DisplayGrid">
<polygon fill="white" stroke="black" points="972,-398.5 972,-417.5 1106,-417.5 1106,-398.5 972,-398.5"/>
<text text-anchor="middle" x="1039" y="-405.5" font-family="Helvetica,sans-Serif" font-size="10.00">viewPackage.DisplayGrid</text>
</a>
</g>
</g>
<!-- Node4&#45;&gt;Node6 -->
<g id="edge7" class="edge"><title>Node4&#45;&gt;Node6</title>
<path fill="none" stroke="#9a32cd" stroke-dasharray="5,2" d="M810.993,-355.567C826.075,-365.928 847.314,-378.897 868,-386 901.072,-397.357 939.599,-402.923 971.605,-405.622"/>
<polygon fill="#9a32cd" stroke="#9a32cd" points="812.644,-352.448 802.459,-349.529 808.601,-358.162 812.644,-352.448"/>
<text text-anchor="middle" x="911" y="-407" font-family="Helvetica,sans-Serif" font-size="10.00"> view</text>
</g>
<!-- Node11 -->
<g id="node11" class="node"><title>Node11</title>
<g id="a_node11"><a xlink:href="../../d9/df7/classcontroller_1_1_controller.html" target="_top" xlink:title="controller.Controller">
<polygon fill="white" stroke="black" points="984,-115.5 984,-134.5 1094,-134.5 1094,-115.5 984,-115.5"/>
<text text-anchor="middle" x="1039" y="-122.5" font-family="Helvetica,sans-Serif" font-size="10.00">controller.Controller</text>
</a>
</g>
</g>
<!-- Node4&#45;&gt;Node11 -->
<g id="edge15" class="edge"><title>Node4&#45;&gt;Node11</title>
<path fill="none" stroke="#9a32cd" stroke-dasharray="5,2" d="M806.965,-322.94C822.108,-308.288 845.333,-287.188 868,-272 903.501,-248.213 920.705,-255.788 954,-229 989.443,-200.484 1019.85,-154.67 1032.16,-134.761"/>
<polygon fill="#9a32cd" stroke="#9a32cd" points="804.117,-320.832 799.439,-330.338 809.024,-325.824 804.117,-320.832"/>
<text text-anchor="middle" x="911" y="-275" font-family="Helvetica,sans-Serif" font-size="10.00"> myView</text>
</g>
<!-- Node20 -->
<g id="node20" class="node"><title>Node20</title>
<g id="a_node20"><a xlink:href="../../dc/d2c/classview_package_1_1_button_box.html" target="_top" xlink:title="viewPackage.ButtonBox">
<polygon fill="white" stroke="black" points="974,-262.5 974,-281.5 1104,-281.5 1104,-262.5 974,-262.5"/>
<text text-anchor="middle" x="1039" y="-269.5" font-family="Helvetica,sans-Serif" font-size="10.00">viewPackage.ButtonBox</text>
</a>
</g>
</g>
<!-- Node4&#45;&gt;Node20 -->
<g id="edge25" class="edge"><title>Node4&#45;&gt;Node20</title>
<path fill="none" stroke="#9a32cd" stroke-dasharray="5,2" d="M849.835,-337.261C881.436,-334.504 920.505,-328.995 954,-318 980.382,-309.34 1008.09,-292.403 1024.17,-281.673"/>
<polygon fill="#9a32cd" stroke="#9a32cd" points="849.541,-333.773 839.854,-338.062 850.102,-340.75 849.541,-333.773"/>
<text text-anchor="middle" x="911" y="-339" font-family="Helvetica,sans-Serif" font-size="10.00"> view</text>
</g>
<!-- Node5 -->
<g id="node5" class="node"><title>Node5</title>
<polygon fill="white" stroke="#bfbfbf" points="509.5,-330.5 509.5,-349.5 554.5,-349.5 554.5,-330.5 509.5,-330.5"/>
<text text-anchor="middle" x="532" y="-337.5" font-family="Helvetica,sans-Serif" font-size="10.00">Stage</text>
</g>
<!-- Node5&#45;&gt;Node4 -->
<g id="edge4" class="edge"><title>Node5&#45;&gt;Node4</title>
<path fill="none" stroke="#9a32cd" stroke-dasharray="5,2" d="M564.746,-340C608.221,-340 686.733,-340 738.11,-340"/>
<polygon fill="#9a32cd" stroke="#9a32cd" points="564.741,-336.5 554.741,-340 564.741,-343.5 564.741,-336.5"/>
<text text-anchor="middle" x="670" y="-343" font-family="Helvetica,sans-Serif" font-size="10.00"> additionalStage</text>
</g>
<!-- Node6&#45;&gt;Node4 -->
<g id="edge5" class="edge"><title>Node6&#45;&gt;Node4</title>
<path fill="none" stroke="#9a32cd" stroke-dasharray="5,2" d="M1007.34,-394.555C991.612,-388.017 972.016,-380.421 954,-375 916.225,-363.633 872.493,-354.493 839.692,-348.408"/>
<polygon fill="#9a32cd" stroke="#9a32cd" points="1006.01,-397.794 1016.59,-398.46 1008.74,-391.345 1006.01,-397.794"/>
<text text-anchor="middle" x="911" y="-378" font-family="Helvetica,sans-Serif" font-size="10.00"> myGridDisplayed</text>
</g>
<!-- Node7 -->
<g id="node7" class="node"><title>Node7</title>
<polygon fill="white" stroke="#bfbfbf" points="765.5,-432.5 765.5,-451.5 812.5,-451.5 812.5,-432.5 765.5,-432.5"/>
<text text-anchor="middle" x="789" y="-439.5" font-family="Helvetica,sans-Serif" font-size="10.00">Shape</text>
</g>
<!-- Node7&#45;&gt;Node6 -->
<g id="edge6" class="edge"><title>Node7&#45;&gt;Node6</title>
<path fill="none" stroke="#9a32cd" stroke-dasharray="5,2" d="M822.58,-437.713C855.681,-433.338 908.424,-426.312 954,-420 959.837,-419.192 965.9,-418.343 971.977,-417.486"/>
<polygon fill="#9a32cd" stroke="#9a32cd" points="822.013,-434.257 812.557,-439.036 822.929,-441.197 822.013,-434.257"/>
<text text-anchor="middle" x="911" y="-435" font-family="Helvetica,sans-Serif" font-size="10.00"> myGrid</text>
</g>
<!-- Node8 -->
<g id="node8" class="node"><title>Node8</title>
<g id="a_node8"><a xlink:href="../../df/d81/classview_package_1_1_toggle_box.html" target="_top" xlink:title="viewPackage.ToggleBox">
<polygon fill="white" stroke="black" points="468,-292.5 468,-311.5 596,-311.5 596,-292.5 468,-292.5"/>
<text text-anchor="middle" x="532" y="-299.5" font-family="Helvetica,sans-Serif" font-size="10.00">viewPackage.ToggleBox</text>
</a>
</g>
</g>
<!-- Node8&#45;&gt;Node4 -->
<g id="edge8" class="edge"><title>Node8&#45;&gt;Node4</title>
<path fill="none" stroke="#9a32cd" stroke-dasharray="5,2" d="M606.354,-310.518C638.262,-314.484 676.045,-319.534 710,-325 720.075,-326.622 730.842,-328.559 741.061,-330.495"/>
<polygon fill="#9a32cd" stroke="#9a32cd" points="606.565,-307.017 596.212,-309.269 605.709,-313.965 606.565,-307.017"/>
<text text-anchor="middle" x="670" y="-328" font-family="Helvetica,sans-Serif" font-size="10.00"> toggles</text>
</g>
<!-- Node9 -->
<g id="node9" class="node"><title>Node9</title>
<polygon fill="white" stroke="#bfbfbf" points="245,-292.5 245,-311.5 321,-311.5 321,-292.5 245,-292.5"/>
<text text-anchor="middle" x="283" y="-299.5" font-family="Helvetica,sans-Serif" font-size="10.00">ToggleGroup</text>
</g>
<!-- Node9&#45;&gt;Node8 -->
<g id="edge9" class="edge"><title>Node9&#45;&gt;Node8</title>
<path fill="none" stroke="#9a32cd" stroke-dasharray="5,2" d="M331.731,-302C370.521,-302 425.562,-302 467.972,-302"/>
<polygon fill="#9a32cd" stroke="#9a32cd" points="331.246,-298.5 321.246,-302 331.246,-305.5 331.246,-298.5"/>
<text text-anchor="middle" x="401" y="-327" font-family="Helvetica,sans-Serif" font-size="10.00"> outline</text>
<text text-anchor="middle" x="401" y="-316" font-family="Helvetica,sans-Serif" font-size="10.00">edgeType</text>
<text text-anchor="middle" x="401" y="-305" font-family="Helvetica,sans-Serif" font-size="10.00">cellShape</text>
</g>
<!-- Node10 -->
<g id="node10" class="node"><title>Node10</title>
<polygon fill="white" stroke="#bfbfbf" points="485.5,-229.5 485.5,-248.5 578.5,-248.5 578.5,-229.5 485.5,-229.5"/>
<text text-anchor="middle" x="532" y="-236.5" font-family="Helvetica,sans-Serif" font-size="10.00">ResourceBundle</text>
</g>
<!-- Node10&#45;&gt;Node4 -->
<g id="edge10" class="edge"><title>Node10&#45;&gt;Node4</title>
<path fill="none" stroke="#9a32cd" stroke-dasharray="5,2" d="M575.972,-251.49C612.26,-262.527 665.303,-279.818 710,-299 731.931,-308.412 756.098,-321.578 771.632,-330.428"/>
<polygon fill="#9a32cd" stroke="#9a32cd" points="576.787,-248.08 566.202,-248.547 574.767,-254.783 576.787,-248.08"/>
<text text-anchor="middle" x="670" y="-302" font-family="Helvetica,sans-Serif" font-size="10.00"> myResources</text>
</g>
<!-- Node10&#45;&gt;Node11 -->
<g id="edge14" class="edge"><title>Node10&#45;&gt;Node11</title>
<path fill="none" stroke="#9a32cd" stroke-dasharray="5,2" d="M561.956,-225.067C599.393,-207.678 667.033,-178.36 728,-163 775.124,-151.128 908.241,-137.251 983.823,-129.997"/>
<polygon fill="#9a32cd" stroke="#9a32cd" points="560.236,-222.009 552.67,-229.425 563.209,-228.346 560.236,-222.009"/>
<text text-anchor="middle" x="789" y="-166" font-family="Helvetica,sans-Serif" font-size="10.00"> myResources</text>
</g>
<!-- Node10&#45;&gt;Node20 -->
<g id="edge24" class="edge"><title>Node10&#45;&gt;Node20</title>
<path fill="none" stroke="#9a32cd" stroke-dasharray="5,2" d="M589.16,-237.507C670.127,-236.115 824.19,-236.313 954,-253 970.164,-255.078 987.792,-258.831 1002.71,-262.456"/>
<polygon fill="#9a32cd" stroke="#9a32cd" points="588.638,-234.016 578.705,-237.703 588.769,-241.015 588.638,-234.016"/>
<text text-anchor="middle" x="789" y="-246" font-family="Helvetica,sans-Serif" font-size="10.00"> myResources</text>
</g>
<!-- Node11&#45;&gt;Node4 -->
<g id="edge12" class="edge"><title>Node11&#45;&gt;Node4</title>
<path fill="none" stroke="#9a32cd" stroke-dasharray="5,2" d="M1005.07,-138.346C989.678,-144.379 971.023,-151.395 954,-157 916.308,-169.41 895.63,-152.517 868,-181 844.733,-204.985 863.792,-223.563 850,-254 836.249,-284.345 811.498,-315.252 798.5,-330.412"/>
<polygon fill="#9a32cd" stroke="#9a32cd" points="1006.66,-141.482 1014.67,-134.548 1004.09,-134.973 1006.66,-141.482"/>
<text text-anchor="middle" x="911" y="-184" font-family="Helvetica,sans-Serif" font-size="10.00"> control</text>
</g>
<!-- Node12 -->
<g id="node12" class="node"><title>Node12</title>
<polygon fill="white" stroke="#bfbfbf" points="761,-56.5 761,-75.5 817,-75.5 817,-56.5 761,-56.5"/>
<text text-anchor="middle" x="789" y="-63.5" font-family="Helvetica,sans-Serif" font-size="10.00">Timeline</text>
</g>
<!-- Node12&#45;&gt;Node11 -->
<g id="edge13" class="edge"><title>Node12&#45;&gt;Node11</title>
<path fill="none" stroke="#9a32cd" stroke-dasharray="5,2" d="M827.514,-71.2067C860.987,-76.2433 911.18,-84.7613 954,-96 974.295,-101.327 996.733,-109.178 1013.31,-115.369"/>
<polygon fill="#9a32cd" stroke="#9a32cd" points="827.669,-67.6916 817.265,-69.6947 826.647,-74.6167 827.669,-67.6916"/>
<text text-anchor="middle" x="911" y="-99" font-family="Helvetica,sans-Serif" font-size="10.00"> myTimeline</text>
</g>
<!-- Node13 -->
<g id="node13" class="node"><title>Node13</title>
<g id="a_node13"><a xlink:href="../../d2/d17/classmodel_1_1_simulation.html" target="_top" xlink:title="model.Simulation">
<polygon fill="white" stroke="black" points="738.5,-18.5 738.5,-37.5 839.5,-37.5 839.5,-18.5 738.5,-18.5"/>
<text text-anchor="middle" x="789" y="-25.5" font-family="Helvetica,sans-Serif" font-size="10.00">model.Simulation</text>
</a>
</g>
</g>
<!-- Node13&#45;&gt;Node11 -->
<g id="edge16" class="edge"><title>Node13&#45;&gt;Node11</title>
<path fill="none" stroke="#9a32cd" stroke-dasharray="5,2" d="M849.836,-35.0809C881.76,-40.3377 921.127,-49.2374 954,-64 983.43,-77.2162 1012.77,-101.774 1027.76,-115.351"/>
<polygon fill="#9a32cd" stroke="#9a32cd" points="850.171,-31.5909 839.75,-33.4993 849.087,-38.5064 850.171,-31.5909"/>
<text text-anchor="middle" x="911" y="-67" font-family="Helvetica,sans-Serif" font-size="10.00"> rules</text>
</g>
<!-- Node14 -->
<g id="node14" class="node"><title>Node14</title>
<g id="a_node14"><a xlink:href="../../dc/d8f/classmodel_1_1_grid.html" target="_top" xlink:title="model.Grid">
<polygon fill="white" stroke="black" points="497.5,-38.5 497.5,-57.5 566.5,-57.5 566.5,-38.5 497.5,-38.5"/>
<text text-anchor="middle" x="532" y="-45.5" font-family="Helvetica,sans-Serif" font-size="10.00">model.Grid</text>
</a>
</g>
</g>
<!-- Node14&#45;&gt;Node13 -->
<g id="edge17" class="edge"><title>Node14&#45;&gt;Node13</title>
<path fill="none" stroke="#9a32cd" stroke-dasharray="5,2" d="M576.596,-44.5807C621.411,-41.0658 691.099,-35.6001 738.093,-31.9143"/>
<polygon fill="#9a32cd" stroke="#9a32cd" points="576.295,-41.0935 566.599,-45.3648 576.842,-48.0721 576.295,-41.0935"/>
<text text-anchor="middle" x="670" y="-55" font-family="Helvetica,sans-Serif" font-size="10.00"> currentGrid</text>
<text text-anchor="middle" x="670" y="-44" font-family="Helvetica,sans-Serif" font-size="10.00">nextGrid</text>
</g>
<!-- Node15 -->
<g id="node15" class="node"><title>Node15</title>
<g id="a_node15"><a xlink:href="../../d3/d57/classmodel_1_1_cell.html" target="_top" xlink:title="model.Cell">
<polygon fill="white" stroke="black" points="249.5,-38.5 249.5,-57.5 316.5,-57.5 316.5,-38.5 249.5,-38.5"/>
<text text-anchor="middle" x="283" y="-45.5" font-family="Helvetica,sans-Serif" font-size="10.00">model.Cell</text>
</a>
</g>
</g>
<!-- Node15&#45;&gt;Node14 -->
<g id="edge18" class="edge"><title>Node15&#45;&gt;Node14</title>
<path fill="none" stroke="#9a32cd" stroke-dasharray="5,2" d="M326.688,-48C375.042,-48 452.858,-48 497.195,-48"/>
<polygon fill="#9a32cd" stroke="#9a32cd" points="326.545,-44.5001 316.545,-48 326.545,-51.5001 326.545,-44.5001"/>
<text text-anchor="middle" x="401" y="-51" font-family="Helvetica,sans-Serif" font-size="10.00"> myCells</text>
</g>
<!-- Node16 -->
<g id="node16" class="node"><title>Node16</title>
<polygon fill="white" stroke="#bfbfbf" points="0,-57.5 0,-76.5 128,-76.5 128,-57.5 0,-57.5"/>
<text text-anchor="middle" x="64" y="-64.5" font-family="Helvetica,sans-Serif" font-size="10.00">Map&lt; String, Integer &gt;</text>
</g>
<!-- Node16&#45;&gt;Node15 -->
<g id="edge19" class="edge"><title>Node16&#45;&gt;Node15</title>
<path fill="none" stroke="#9a32cd" stroke-dasharray="5,2" d="M138.486,-60.5658C176.113,-57.2712 220.034,-53.4256 249.281,-50.8648"/>
<polygon fill="#9a32cd" stroke="#9a32cd" points="137.713,-57.1199 128.057,-61.4789 138.324,-64.0932 137.713,-57.1199"/>
<text text-anchor="middle" x="172" y="-63" font-family="Helvetica,sans-Serif" font-size="10.00"> properties</text>
</g>
<!-- Node17 -->
<g id="node17" class="node"><title>Node17</title>
<g id="a_node17"><a xlink:href="../../d0/d76/enummodel_1_1_cell_state.html" target="_top" xlink:title="model.CellState">
<polygon fill="white" stroke="black" points="17.5,-19.5 17.5,-38.5 110.5,-38.5 110.5,-19.5 17.5,-19.5"/>
<text text-anchor="middle" x="64" y="-26.5" font-family="Helvetica,sans-Serif" font-size="10.00">model.CellState</text>
</a>
</g>
</g>
<!-- Node17&#45;&gt;Node15 -->
<g id="edge20" class="edge"><title>Node17&#45;&gt;Node15</title>
<path fill="none" stroke="#9a32cd" stroke-dasharray="5,2" d="M120.811,-33.8867C161.553,-37.454 215.385,-42.1674 249.358,-45.1419"/>
<polygon fill="#9a32cd" stroke="#9a32cd" points="121.022,-30.3919 110.755,-33.0062 120.412,-37.3652 121.022,-30.3919"/>
<text text-anchor="middle" x="172" y="-44" font-family="Helvetica,sans-Serif" font-size="10.00"> state</text>
</g>
<!-- Node18 -->
<g id="node18" class="node"><title>Node18</title>
<polygon fill="white" stroke="#bfbfbf" points="504,-0.5 504,-19.5 560,-19.5 560,-0.5 504,-0.5"/>
<text text-anchor="middle" x="532" y="-7.5" font-family="Helvetica,sans-Serif" font-size="10.00">Random</text>
</g>
<!-- Node18&#45;&gt;Node13 -->
<g id="edge21" class="edge"><title>Node18&#45;&gt;Node13</title>
<path fill="none" stroke="#9a32cd" stroke-dasharray="5,2" d="M570.093,-8.76958C605.983,-8.0172 661.867,-8.00189 710,-13 721.659,-14.2106 734.174,-16.271 745.693,-18.4833"/>
<polygon fill="#9a32cd" stroke="#9a32cd" points="569.989,-5.27097 560.075,-9.00981 570.157,-12.269 569.989,-5.27097"/>
<text text-anchor="middle" x="670" y="-16" font-family="Helvetica,sans-Serif" font-size="10.00"> myGenerator</text>
</g>
<!-- Node19 -->
<g id="node19" class="node"><title>Node19</title>
<polygon fill="white" stroke="#bfbfbf" points="728,-94.5 728,-113.5 850,-113.5 850,-94.5 728,-94.5"/>
<text text-anchor="middle" x="789" y="-101.5" font-family="Helvetica,sans-Serif" font-size="10.00">Map&lt; String, String &gt;</text>
</g>
<!-- Node19&#45;&gt;Node11 -->
<g id="edge22" class="edge"><title>Node19&#45;&gt;Node11</title>
<path fill="none" stroke="#9a32cd" stroke-dasharray="5,2" d="M860.294,-109.952C899.41,-113.265 947.364,-117.325 983.595,-120.393"/>
<polygon fill="#9a32cd" stroke="#9a32cd" points="860.294,-106.44 850.034,-109.084 859.703,-113.415 860.294,-106.44"/>
<text text-anchor="middle" x="911" y="-121" font-family="Helvetica,sans-Serif" font-size="10.00"> stateColorMap</text>
</g>
<!-- Node20&#45;&gt;Node4 -->
<g id="edge23" class="edge"><title>Node20&#45;&gt;Node4</title>
<path fill="none" stroke="#9a32cd" stroke-dasharray="5,2" d="M966.868,-283.409C936.112,-289.169 899.925,-297.067 868,-307 847.502,-313.378 825.014,-323.214 809.474,-330.49"/>
<polygon fill="#9a32cd" stroke="#9a32cd" points="967.872,-286.783 977.077,-281.537 966.609,-279.898 967.872,-286.783"/>
<text text-anchor="middle" x="911" y="-310" font-family="Helvetica,sans-Serif" font-size="10.00"> buttons</text>
</g>
<!-- Node21 -->
<g id="node21" class="node"><title>Node21</title>
<polygon fill="white" stroke="#bfbfbf" points="771.5,-183.5 771.5,-202.5 806.5,-202.5 806.5,-183.5 771.5,-183.5"/>
<text text-anchor="middle" x="789" y="-190.5" font-family="Helvetica,sans-Serif" font-size="10.00">Text</text>
</g>
<!-- Node21&#45;&gt;Node20 -->
<g id="edge26" class="edge"><title>Node21&#45;&gt;Node20</title>
<path fill="none" stroke="#9a32cd" stroke-dasharray="5,2" d="M817.248,-192.603C850.588,-192.982 908.243,-196.472 954,-214 983.623,-225.348 1012.89,-249.183 1027.81,-262.495"/>
<polygon fill="#9a32cd" stroke="#9a32cd" points="816.934,-189.102 806.926,-192.577 816.917,-196.102 816.934,-189.102"/>
<text text-anchor="middle" x="911" y="-217" font-family="Helvetica,sans-Serif" font-size="10.00"> speedText</text>
</g>
<!-- Node22 -->
<g id="node22" class="node"><title>Node22</title>
<polygon fill="white" stroke="#bfbfbf" points="509,-432.5 509,-451.5 555,-451.5 555,-432.5 509,-432.5"/>
<text text-anchor="middle" x="532" y="-439.5" font-family="Helvetica,sans-Serif" font-size="10.00">Group</text>
</g>
<!-- Node22&#45;&gt;Node4 -->
<g id="edge27" class="edge"><title>Node22&#45;&gt;Node4</title>
<path fill="none" stroke="#9a32cd" stroke-dasharray="5,2" d="M565.453,-443.373C602.371,-443.626 663.548,-439.993 710,-417 742.402,-400.961 769.673,-366.315 781.581,-349.517"/>
<polygon fill="#9a32cd" stroke="#9a32cd" points="565.326,-439.87 555.267,-443.199 565.206,-446.869 565.326,-439.87"/>
<text text-anchor="middle" x="670" y="-443" font-family="Helvetica,sans-Serif" font-size="10.00"> root</text>
</g>
<!-- Node23 -->
<g id="node23" class="node"><title>Node23</title>
<polygon fill="white" stroke="#bfbfbf" points="245.5,-349.5 245.5,-368.5 320.5,-368.5 320.5,-349.5 245.5,-349.5"/>
<text text-anchor="middle" x="283" y="-356.5" font-family="Helvetica,sans-Serif" font-size="10.00">NumberAxis</text>
</g>
<!-- Node23&#45;&gt;Node1 -->
<g id="edge28" class="edge"><title>Node23&#45;&gt;Node1</title>
<path fill="none" stroke="#9a32cd" stroke-dasharray="5,2" d="M330.692,-363.264C360.426,-366.385 399.669,-371.257 434,-378 456.24,-382.368 480.906,-389.005 499.8,-394.479"/>
<polygon fill="#9a32cd" stroke="#9a32cd" points="330.898,-359.767 320.594,-362.232 330.187,-366.731 330.898,-359.767"/>
<text text-anchor="middle" x="401" y="-392" font-family="Helvetica,sans-Serif" font-size="10.00"> xAxis</text>
<text text-anchor="middle" x="401" y="-381" font-family="Helvetica,sans-Serif" font-size="10.00">yAxis</text>
</g>
</g>
</svg>
        <g id="navigator" transform="translate(0 0)" fill="#404254">
                <rect fill="#f2f5e9" fill-opacity="0.5" stroke="#606060" stroke-width=".5" x="0" y="0" width="60" height="60"/>
                <use id="zoomplus" xlink:href="#zoomPlus" x="17" y="9" onmousedown="handleZoom(evt,'in')"/>
                <use id="zoomminus" xlink:href="#zoomMin" x="42" y="9" onmousedown="handleZoom(evt,'out')"/>
                <use id="reset" xlink:href="#resetDef" x="30" y="36" onmousedown="handleReset()"/>
                <g id="arrowUp" xlink:href="#dirArrow" transform="translate(30 24)" onmousedown="handlePan(0,-1)">
                  <use xlink:href="#rim" fill="#404040">
                        <set attributeName="fill" to="#808080" begin="arrowUp.mouseover" end="arrowUp.mouseout"/>
                  </use>
                  <path fill="none" stroke="white" stroke-width="1.5" d="M0,-3.0v7 M-2.5,-0.5L0,-3.0L2.5,-0.5"/>
                </g>
                <g id="arrowRight" xlink:href="#dirArrow" transform="rotate(90) translate(36 -43)" onmousedown="handlePan(1,0)">
                  <use xlink:href="#rim" fill="#404040">
                        <set attributeName="fill" to="#808080" begin="arrowRight.mouseover" end="arrowRight.mouseout"/>
                  </use>
                  <path fill="none" stroke="white" stroke-width="1.5" d="M0,-3.0v7 M-2.5,-0.5L0,-3.0L2.5,-0.5"/>
                </g>
                <g id="arrowDown" xlink:href="#dirArrow" transform="rotate(180) translate(-30 -48)" onmousedown="handlePan(0,1)">
                  <use xlink:href="#rim" fill="#404040">
                        <set attributeName="fill" to="#808080" begin="arrowDown.mouseover" end="arrowDown.mouseout"/>
                  </use>
                  <path fill="none" stroke="white" stroke-width="1.5" d="M0,-3.0v7 M-2.5,-0.5L0,-3.0L2.5,-0.5"/>
                </g>
                <g id="arrowLeft" xlink:href="#dirArrow" transform="rotate(270) translate(-36 17)" onmousedown="handlePan(-1,0)">
                  <use xlink:href="#rim" fill="#404040">
                        <set attributeName="fill" to="#808080" begin="arrowLeft.mouseover" end="arrowLeft.mouseout"/>
                  </use>
                  <path fill="none" stroke="white" stroke-width="1.5" d="M0,-3.0v7 M-2.5,-0.5L0,-3.0L2.5,-0.5"/>
                </g>
        </g>
        <svg viewBox="0 0 15 15" width="100%" height="30px" preserveAspectRatio="xMaxYMin meet">
         <g id="arrow_out" transform="scale(0.3 0.3)">
          <a xlink:href="classview_package_1_1_population_graph__coll__graph_org.svg" target="_base">
           <rect id="button" ry="5" rx="5" y="6" x="6" height="38" width="38"
                fill="#f2f5e9" fill-opacity="0.5" stroke="#606060" stroke-width="1.0"/>
           <path id="arrow"
             d="M 11.500037,31.436501 C 11.940474,20.09759 22.043105,11.32322 32.158766,21.979434 L 37.068811,17.246167 C 37.068811,17.246167 37.088388,32 37.088388,32 L 22.160133,31.978069 C 22.160133,31.978069 26.997745,27.140456 26.997745,27.140456 C 18.528582,18.264221 13.291696,25.230495 11.500037,31.436501 z"
             style="fill:#404040;"/>
          </a>
         </g>
        </svg>
</svg>
