<?xml version="1.0" encoding="UTF-8" standalone="no"?>
<!DOCTYPE svg PUBLIC "-//W3C//DTD SVG 1.1//EN"
 "http://www.w3.org/Graphics/SVG/1.1/DTD/svg11.dtd">
<!-- Generated by graphviz version 2.36.0 (20140111.2315)
 -->
<!-- Title: model.Simulation Pages: 1 -->
<svg width="273pt" height="242pt"
 viewBox="0.00 0.00 273.00 242.00" xmlns="http://www.w3.org/2000/svg" xmlns:xlink="http://www.w3.org/1999/xlink">
<g id="graph0" class="graph" transform="scale(1 1) rotate(0) translate(4 238)">
<title>model.Simulation</title>
<polygon fill="white" stroke="none" points="-4,4 -4,-238 269,-238 269,4 -4,4"/>
<!-- Node1 -->
<g id="node1" class="node"><title>Node1</title>
<polygon fill="#bfbfbf" stroke="black" points="117.5,-0.5 117.5,-19.5 218.5,-19.5 218.5,-0.5 117.5,-0.5"/>
<text text-anchor="middle" x="168" y="-7.5" font-family="Helvetica,sans-Serif" font-size="10.00">model.Simulation</text>
</g>
<!-- Node2 -->
<g id="node2" class="node"><title>Node2</title>
<g id="a_node2"><a xlink:href="../../dc/d8f/classmodel_1_1_grid.html" target="_top" xlink:title="model.Grid">
<polygon fill="white" stroke="black" points="93.5,-78.5 93.5,-97.5 162.5,-97.5 162.5,-78.5 93.5,-78.5"/>
<text text-anchor="middle" x="128" y="-85.5" font-family="Helvetica,sans-Serif" font-size="10.00">model.Grid</text>
</a>
</g>
</g>
<!-- Node2&#45;&gt;Node1 -->
<g id="edge1" class="edge"><title>Node2&#45;&gt;Node1</title>
<path fill="none" stroke="#9a32cd" stroke-dasharray="5,2" d="M124.502,-68.3399C123.63,-58.738 124.081,-47.1594 129,-38 133.286,-30.0194 141.089,-23.9121 148.596,-19.5416"/>
<polygon fill="#9a32cd" stroke="#9a32cd" points="121.066,-69.0361 125.946,-78.4403 127.996,-68.0457 121.066,-69.0361"/>
<text text-anchor="middle" x="158" y="-52" font-family="Helvetica,sans-Serif" font-size="10.00"> currentGrid</text>
<text text-anchor="middle" x="158" y="-41" font-family="Helvetica,sans-Serif" font-size="10.00">nextGrid</text>
</g>
<!-- Node3 -->
<g id="node3" class="node"><title>Node3</title>
<g id="a_node3"><a xlink:href="../../d3/d57/classmodel_1_1_cell.html" target="_top" xlink:title="model.Cell">
<polygon fill="white" stroke="black" points="94.5,-146.5 94.5,-165.5 161.5,-165.5 161.5,-146.5 94.5,-146.5"/>
<text text-anchor="middle" x="128" y="-153.5" font-family="Helvetica,sans-Serif" font-size="10.00">model.Cell</text>
</a>
</g>
</g>
<!-- Node3&#45;&gt;Node2 -->
<g id="edge2" class="edge"><title>Node3&#45;&gt;Node2</title>
<path fill="none" stroke="#9a32cd" stroke-dasharray="5,2" d="M128,-136.041C128,-123.472 128,-107.563 128,-97.8411"/>
<polygon fill="#9a32cd" stroke="#9a32cd" points="124.5,-136.372 128,-146.372 131.5,-136.372 124.5,-136.372"/>
<text text-anchor="middle" x="148.5" y="-119.5" font-family="Helvetica,sans-Serif" font-size="10.00"> myCells</text>
</g>
<!-- Node4 -->
<g id="node4" class="node"><title>Node4</title>
<polygon fill="white" stroke="#bfbfbf" points="0,-214.5 0,-233.5 128,-233.5 128,-214.5 0,-214.5"/>
<text text-anchor="middle" x="64" y="-221.5" font-family="Helvetica,sans-Serif" font-size="10.00">Map&lt; String, Integer &gt;</text>
</g>
<!-- Node4&#45;&gt;Node3 -->
<g id="edge3" class="edge"><title>Node4&#45;&gt;Node3</title>
<path fill="none" stroke="#9a32cd" stroke-dasharray="5,2" d="M79.4692,-207.047C92.0135,-194.111 109.23,-176.357 119.427,-165.841"/>
<polygon fill="#9a32cd" stroke="#9a32cd" points="76.8157,-204.756 72.3669,-214.372 81.841,-209.629 76.8157,-204.756"/>
<text text-anchor="middle" x="128" y="-187.5" font-family="Helvetica,sans-Serif" font-size="10.00"> properties</text>
</g>
<!-- Node5 -->
<g id="node5" class="node"><title>Node5</title>
<g id="a_node5"><a xlink:href="../../d0/d76/enummodel_1_1_cell_state.html" target="_top" xlink:title="model.CellState">
<polygon fill="white" stroke="black" points="146.5,-214.5 146.5,-233.5 239.5,-233.5 239.5,-214.5 146.5,-214.5"/>
<text text-anchor="middle" x="193" y="-221.5" font-family="Helvetica,sans-Serif" font-size="10.00">model.CellState</text>
</a>
</g>
</g>
<!-- Node5&#45;&gt;Node3 -->
<g id="edge4" class="edge"><title>Node5&#45;&gt;Node3</title>
<path fill="none" stroke="#9a32cd" stroke-dasharray="5,2" d="M179.091,-206.731C172.816,-199.595 165.208,-191.218 158,-184 151.662,-177.653 144.162,-170.903 138.247,-165.74"/>
<polygon fill="#9a32cd" stroke="#9a32cd" points="176.543,-209.135 185.741,-214.394 181.83,-204.547 176.543,-209.135"/>
<text text-anchor="middle" x="183" y="-187.5" font-family="Helvetica,sans-Serif" font-size="10.00"> state</text>
</g>
<!-- Node6 -->
<g id="node6" class="node"><title>Node6</title>
<polygon fill="white" stroke="#bfbfbf" points="181,-78.5 181,-97.5 237,-97.5 237,-78.5 181,-78.5"/>
<text text-anchor="middle" x="209" y="-85.5" font-family="Helvetica,sans-Serif" font-size="10.00">Random</text>
</g>
<!-- Node6&#45;&gt;Node1 -->
<g id="edge5" class="edge"><title>Node6&#45;&gt;Node1</title>
<path fill="none" stroke="#9a32cd" stroke-dasharray="5,2" d="M201.86,-68.9192C197.895,-59.4901 192.632,-47.8913 187,-38 183.37,-31.6244 178.62,-24.8744 174.777,-19.7183"/>
<polygon fill="#9a32cd" stroke="#9a32cd" points="198.723,-70.4954 205.736,-78.4366 205.206,-67.855 198.723,-70.4954"/>
<text text-anchor="middle" x="231.5" y="-46.5" font-family="Helvetica,sans-Serif" font-size="10.00"> myGenerator</text>
</g>
</g>
</svg>
