<?xml version="1.0" encoding="UTF-8" standalone="no"?>
<!DOCTYPE svg PUBLIC "-//W3C//DTD SVG 1.1//EN"
 "http://www.w3.org/Graphics/SVG/1.1/DTD/svg11.dtd">
<!-- Generated by graphviz version 2.36.0 (20140111.2315)
 -->
<!-- Title: viewPackage.TriangularGridView Pages: 1 -->
<svg width="1078pt" height="638pt"
 viewBox="0.00 0.00 1078.00 638.00" xmlns="http://www.w3.org/2000/svg" xmlns:xlink="http://www.w3.org/1999/xlink">
<g id="graph0" class="graph" transform="scale(1 1) rotate(0) translate(4 634)">
<title>viewPackage.TriangularGridView</title>
<polygon fill="white" stroke="none" points="-4,4 -4,-634 1074,-634 1074,4 -4,4"/>
<!-- Node1 -->
<g id="node1" class="node"><title>Node1</title>
<polygon fill="#bfbfbf" stroke="black" points="632.5,-473.5 632.5,-492.5 799.5,-492.5 799.5,-473.5 632.5,-473.5"/>
<text text-anchor="middle" x="716" y="-480.5" font-family="Helvetica,sans-Serif" font-size="10.00">viewPackage.TriangularGridView</text>
</g>
<!-- Node2 -->
<g id="node2" class="node"><title>Node2</title>
<g id="a_node2"><a xlink:href="../../df/dcf/classview_package_1_1_display_grid.html" target="_top" xlink:title="viewPackage.DisplayGrid">
<polygon fill="white" stroke="black" points="376,-451.5 376,-470.5 510,-470.5 510,-451.5 376,-451.5"/>
<text text-anchor="middle" x="443" y="-458.5" font-family="Helvetica,sans-Serif" font-size="10.00">viewPackage.DisplayGrid</text>
</a>
</g>
</g>
<!-- Node2&#45;&gt;Node1 -->
<g id="edge1" class="edge"><title>Node2&#45;&gt;Node1</title>
<path fill="none" stroke="midnightblue" d="M516.573,-471.776C520.434,-472.221 524.261,-472.634 528,-473 562.136,-476.344 599.896,-478.631 632.495,-480.163"/>
<polygon fill="midnightblue" stroke="midnightblue" points="516.66,-468.261 506.311,-470.527 515.815,-475.209 516.66,-468.261"/>
</g>
<!-- Node4 -->
<g id="node4" class="node"><title>Node4</title>
<g id="a_node4"><a xlink:href="../../d1/dbf/classview_package_1_1_view.html" target="_top" xlink:title="viewPackage.View">
<polygon fill="white" stroke="black" points="665.5,-366.5 665.5,-385.5 766.5,-385.5 766.5,-366.5 665.5,-366.5"/>
<text text-anchor="middle" x="716" y="-373.5" font-family="Helvetica,sans-Serif" font-size="10.00">viewPackage.View</text>
</a>
</g>
</g>
<!-- Node2&#45;&gt;Node4 -->
<g id="edge5" class="edge"><title>Node2&#45;&gt;Node4</title>
<path fill="none" stroke="#9a32cd" stroke-dasharray="5,2" d="M520.089,-458.127C550.032,-455.213 584.29,-449.617 614,-439 649.419,-426.343 685.525,-399.841 703.44,-385.576"/>
<polygon fill="#9a32cd" stroke="#9a32cd" points="519.762,-454.642 510.112,-459.015 520.383,-461.614 519.762,-454.642"/>
<text text-anchor="middle" x="571" y="-460" font-family="Helvetica,sans-Serif" font-size="10.00"> myGridDisplayed</text>
</g>
<!-- Node3 -->
<g id="node3" class="node"><title>Node3</title>
<polygon fill="white" stroke="#bfbfbf" points="230.5,-451.5 230.5,-470.5 277.5,-470.5 277.5,-451.5 230.5,-451.5"/>
<text text-anchor="middle" x="254" y="-458.5" font-family="Helvetica,sans-Serif" font-size="10.00">Shape</text>
</g>
<!-- Node3&#45;&gt;Node2 -->
<g id="edge2" class="edge"><title>Node3&#45;&gt;Node2</title>
<path fill="none" stroke="#9a32cd" stroke-dasharray="5,2" d="M287.676,-461C312.006,-461 346.045,-461 375.966,-461"/>
<polygon fill="#9a32cd" stroke="#9a32cd" points="287.557,-457.5 277.557,-461 287.557,-464.5 287.557,-457.5"/>
<text text-anchor="middle" x="334" y="-464" font-family="Helvetica,sans-Serif" font-size="10.00"> myGrid</text>
</g>
<!-- Node4&#45;&gt;Node2 -->
<g id="edge3" class="edge"><title>Node4&#45;&gt;Node2</title>
<path fill="none" stroke="#9a32cd" stroke-dasharray="5,2" d="M672.633,-388.351C654.584,-393.565 633.283,-399.654 614,-405 575.873,-415.571 565.584,-415.636 528,-428 506.716,-435.002 483,-444.478 466.21,-451.48"/>
<polygon fill="#9a32cd" stroke="#9a32cd" points="673.66,-391.698 682.293,-385.555 671.714,-384.974 673.66,-391.698"/>
<text text-anchor="middle" x="571" y="-431" font-family="Helvetica,sans-Serif" font-size="10.00"> view</text>
</g>
<!-- Node9 -->
<g id="node9" class="node"><title>Node9</title>
<g id="a_node9"><a xlink:href="../../d1/d10/classview_package_1_1_population_graph.html" target="_top" xlink:title="viewPackage.PopulationGraph">
<polygon fill="white" stroke="black" points="910.5,-510.5 910.5,-529.5 1069.5,-529.5 1069.5,-510.5 910.5,-510.5"/>
<text text-anchor="middle" x="990" y="-517.5" font-family="Helvetica,sans-Serif" font-size="10.00">viewPackage.PopulationGraph</text>
</a>
</g>
</g>
<!-- Node4&#45;&gt;Node9 -->
<g id="edge12" class="edge"><title>Node4&#45;&gt;Node9</title>
<path fill="none" stroke="#9a32cd" stroke-dasharray="5,2" d="M733.374,-392.841C752.275,-411.466 785.013,-441.305 818,-460 860.289,-483.967 913.818,-500.859 949.616,-510.486"/>
<polygon fill="#9a32cd" stroke="#9a32cd" points="735.702,-390.218 726.161,-385.611 730.746,-395.162 735.702,-390.218"/>
<text text-anchor="middle" x="855" y="-496" font-family="Helvetica,sans-Serif" font-size="10.00"> view</text>
</g>
<!-- Node13 -->
<g id="node13" class="node"><title>Node13</title>
<g id="a_node13"><a xlink:href="../../d9/df7/classcontroller_1_1_controller.html" target="_top" xlink:title="controller.Controller">
<polygon fill="white" stroke="black" points="935,-144.5 935,-163.5 1045,-163.5 1045,-144.5 935,-144.5"/>
<text text-anchor="middle" x="990" y="-151.5" font-family="Helvetica,sans-Serif" font-size="10.00">controller.Controller</text>
</a>
</g>
</g>
<!-- Node4&#45;&gt;Node13 -->
<g id="edge17" class="edge"><title>Node4&#45;&gt;Node13</title>
<path fill="none" stroke="#9a32cd" stroke-dasharray="5,2" d="M742.126,-361.28C762.174,-349.977 791.236,-334.565 818,-324 849.799,-311.447 864.479,-323.282 892,-303 943.683,-264.911 975.416,-190.353 985.499,-163.733"/>
<polygon fill="#9a32cd" stroke="#9a32cd" points="740.273,-358.308 733.324,-366.305 743.744,-364.387 740.273,-358.308"/>
<text text-anchor="middle" x="855" y="-327" font-family="Helvetica,sans-Serif" font-size="10.00"> myView</text>
</g>
<!-- Node22 -->
<g id="node22" class="node"><title>Node22</title>
<g id="a_node22"><a xlink:href="../../dc/d2c/classview_package_1_1_button_box.html" target="_top" xlink:title="viewPackage.ButtonBox">
<polygon fill="white" stroke="black" points="925,-298.5 925,-317.5 1055,-317.5 1055,-298.5 925,-298.5"/>
<text text-anchor="middle" x="990" y="-305.5" font-family="Helvetica,sans-Serif" font-size="10.00">viewPackage.ButtonBox</text>
</a>
</g>
</g>
<!-- Node4&#45;&gt;Node22 -->
<g id="edge27" class="edge"><title>Node4&#45;&gt;Node22</title>
<path fill="none" stroke="#9a32cd" stroke-dasharray="5,2" d="M773.871,-364.398C808.222,-357.124 852.796,-347.215 892,-337 914.622,-331.106 939.92,-323.508 959.007,-317.569"/>
<polygon fill="#9a32cd" stroke="#9a32cd" points="773.077,-360.988 764.012,-366.472 774.519,-367.838 773.077,-360.988"/>
<text text-anchor="middle" x="855" y="-358" font-family="Helvetica,sans-Serif" font-size="10.00"> view</text>
</g>
<!-- Node5 -->
<g id="node5" class="node"><title>Node5</title>
<polygon fill="white" stroke="#bfbfbf" points="420.5,-387.5 420.5,-406.5 465.5,-406.5 465.5,-387.5 420.5,-387.5"/>
<text text-anchor="middle" x="443" y="-394.5" font-family="Helvetica,sans-Serif" font-size="10.00">Stage</text>
</g>
<!-- Node5&#45;&gt;Node4 -->
<g id="edge4" class="edge"><title>Node5&#45;&gt;Node4</title>
<path fill="none" stroke="#9a32cd" stroke-dasharray="5,2" d="M475.857,-394.531C522.563,-390.912 610.053,-384.132 665.272,-379.853"/>
<polygon fill="#9a32cd" stroke="#9a32cd" points="475.419,-391.055 465.719,-395.317 475.96,-398.034 475.419,-391.055"/>
<text text-anchor="middle" x="571" y="-394" font-family="Helvetica,sans-Serif" font-size="10.00"> additionalStage</text>
</g>
<!-- Node6 -->
<g id="node6" class="node"><title>Node6</title>
<g id="a_node6"><a xlink:href="../../df/d81/classview_package_1_1_toggle_box.html" target="_top" xlink:title="viewPackage.ToggleBox">
<polygon fill="white" stroke="black" points="379,-349.5 379,-368.5 507,-368.5 507,-349.5 379,-349.5"/>
<text text-anchor="middle" x="443" y="-356.5" font-family="Helvetica,sans-Serif" font-size="10.00">viewPackage.ToggleBox</text>
</a>
</g>
</g>
<!-- Node6&#45;&gt;Node4 -->
<g id="edge6" class="edge"><title>Node6&#45;&gt;Node4</title>
<path fill="none" stroke="#9a32cd" stroke-dasharray="5,2" d="M517.454,-357.011C547.438,-356.829 582.423,-357.421 614,-360 630.81,-361.373 649.052,-363.93 665.349,-366.604"/>
<polygon fill="#9a32cd" stroke="#9a32cd" points="517.038,-353.515 507.071,-357.106 517.102,-360.514 517.038,-353.515"/>
<text text-anchor="middle" x="571" y="-363" font-family="Helvetica,sans-Serif" font-size="10.00"> toggles</text>
</g>
<!-- Node7 -->
<g id="node7" class="node"><title>Node7</title>
<polygon fill="white" stroke="#bfbfbf" points="216,-349.5 216,-368.5 292,-368.5 292,-349.5 216,-349.5"/>
<text text-anchor="middle" x="254" y="-356.5" font-family="Helvetica,sans-Serif" font-size="10.00">ToggleGroup</text>
</g>
<!-- Node7&#45;&gt;Node6 -->
<g id="edge7" class="edge"><title>Node7&#45;&gt;Node6</title>
<path fill="none" stroke="#9a32cd" stroke-dasharray="5,2" d="M302.655,-359C325.82,-359 353.973,-359 378.894,-359"/>
<polygon fill="#9a32cd" stroke="#9a32cd" points="302.393,-355.5 292.393,-359 302.393,-362.5 302.393,-355.5"/>
<text text-anchor="middle" x="334" y="-384" font-family="Helvetica,sans-Serif" font-size="10.00"> outline</text>
<text text-anchor="middle" x="334" y="-373" font-family="Helvetica,sans-Serif" font-size="10.00">edgeType</text>
<text text-anchor="middle" x="334" y="-362" font-family="Helvetica,sans-Serif" font-size="10.00">cellShape</text>
</g>
<!-- Node8 -->
<g id="node8" class="node"><title>Node8</title>
<polygon fill="white" stroke="#bfbfbf" points="396.5,-248.5 396.5,-267.5 489.5,-267.5 489.5,-248.5 396.5,-248.5"/>
<text text-anchor="middle" x="443" y="-255.5" font-family="Helvetica,sans-Serif" font-size="10.00">ResourceBundle</text>
</g>
<!-- Node8&#45;&gt;Node4 -->
<g id="edge8" class="edge"><title>Node8&#45;&gt;Node4</title>
<path fill="none" stroke="#9a32cd" stroke-dasharray="5,2" d="M490.976,-270.286C525.749,-280.137 573.849,-295.372 614,-314 647.036,-329.326 682.671,-353.098 701.519,-366.31"/>
<polygon fill="#9a32cd" stroke="#9a32cd" points="491.661,-266.843 481.088,-267.528 489.78,-273.586 491.661,-266.843"/>
<text text-anchor="middle" x="571" y="-317" font-family="Helvetica,sans-Serif" font-size="10.00"> myResources</text>
</g>
<!-- Node8&#45;&gt;Node13 -->
<g id="edge16" class="edge"><title>Node8&#45;&gt;Node13</title>
<path fill="none" stroke="#9a32cd" stroke-dasharray="5,2" d="M462.492,-241.92C494.434,-215.334 563.158,-163.242 632,-144 740.979,-113.54 876.01,-131.591 944.564,-144.468"/>
<polygon fill="#9a32cd" stroke="#9a32cd" points="460.212,-239.265 454.837,-248.395 464.732,-244.609 460.212,-239.265"/>
<text text-anchor="middle" x="716" y="-147" font-family="Helvetica,sans-Serif" font-size="10.00"> myResources</text>
</g>
<!-- Node8&#45;&gt;Node22 -->
<g id="edge26" class="edge"><title>Node8&#45;&gt;Node22</title>
<path fill="none" stroke="#9a32cd" stroke-dasharray="5,2" d="M499.682,-254.021C585.035,-249.2 752.939,-244.778 892,-272 919.676,-277.418 949.889,-289.73 969.117,-298.443"/>
<polygon fill="#9a32cd" stroke="#9a32cd" points="499.467,-250.527 489.69,-254.609 499.878,-257.515 499.467,-250.527"/>
<text text-anchor="middle" x="716" y="-262" font-family="Helvetica,sans-Serif" font-size="10.00"> myResources</text>
</g>
<!-- Node9&#45;&gt;Node4 -->
<g id="edge9" class="edge"><title>Node9&#45;&gt;Node4</title>
<path fill="none" stroke="#9a32cd" stroke-dasharray="5,2" d="M969.803,-503.823C950.873,-488.397 920.689,-465.181 892,-449 842.825,-421.266 780.998,-397.929 745.54,-385.545"/>
<polygon fill="#9a32cd" stroke="#9a32cd" points="967.723,-506.644 977.664,-510.309 972.178,-501.245 967.723,-506.644"/>
<text text-anchor="middle" x="855" y="-452" font-family="Helvetica,sans-Serif" font-size="10.00"> myGraph</text>
</g>
<!-- Node10 -->
<g id="node10" class="node"><title>Node10</title>
<polygon fill="white" stroke="#bfbfbf" points="649,-599 649,-629 783,-629 783,-599 649,-599"/>
<text text-anchor="start" x="657" y="-617" font-family="Helvetica,sans-Serif" font-size="10.00">List&lt; XYChart.Series</text>
<text text-anchor="middle" x="716" y="-606" font-family="Helvetica,sans-Serif" font-size="10.00">&lt; Number, Number &gt; &gt;</text>
</g>
<!-- Node10&#45;&gt;Node9 -->
<g id="edge10" class="edge"><title>Node10&#45;&gt;Node9</title>
<path fill="none" stroke="#9a32cd" stroke-dasharray="5,2" d="M793.191,-598.193C824.301,-590.768 860.338,-580.908 892,-569 921.491,-557.909 953.784,-540.436 972.673,-529.628"/>
<polygon fill="#9a32cd" stroke="#9a32cd" points="792.213,-594.827 783.276,-600.517 793.811,-601.642 792.213,-594.827"/>
<text text-anchor="middle" x="855" y="-595" font-family="Helvetica,sans-Serif" font-size="10.00"> listOfSpecies</text>
</g>
<!-- Node11 -->
<g id="node11" class="node"><title>Node11</title>
<polygon fill="white" stroke="#bfbfbf" points="658,-550 658,-580 774,-580 774,-550 658,-550"/>
<text text-anchor="start" x="666" y="-568" font-family="Helvetica,sans-Serif" font-size="10.00">LineChart&lt; Number,</text>
<text text-anchor="middle" x="716" y="-557" font-family="Helvetica,sans-Serif" font-size="10.00"> Number &gt;</text>
</g>
<!-- Node11&#45;&gt;Node9 -->
<g id="edge11" class="edge"><title>Node11&#45;&gt;Node9</title>
<path fill="none" stroke="#9a32cd" stroke-dasharray="5,2" d="M784.693,-558.211C817.261,-554.507 856.789,-549.369 892,-543 912.267,-539.334 934.651,-534.107 952.806,-529.561"/>
<polygon fill="#9a32cd" stroke="#9a32cd" points="783.928,-554.775 774.378,-559.363 784.705,-561.732 783.928,-554.775"/>
<text text-anchor="middle" x="855" y="-557" font-family="Helvetica,sans-Serif" font-size="10.00"> lineChart</text>
</g>
<!-- Node12 -->
<g id="node12" class="node"><title>Node12</title>
<polygon fill="white" stroke="#bfbfbf" points="678.5,-511.5 678.5,-530.5 753.5,-530.5 753.5,-511.5 678.5,-511.5"/>
<text text-anchor="middle" x="716" y="-518.5" font-family="Helvetica,sans-Serif" font-size="10.00">NumberAxis</text>
</g>
<!-- Node12&#45;&gt;Node9 -->
<g id="edge13" class="edge"><title>Node12&#45;&gt;Node9</title>
<path fill="none" stroke="#9a32cd" stroke-dasharray="5,2" d="M763.744,-520.828C803.971,-520.68 862.855,-520.464 910.331,-520.289"/>
<polygon fill="#9a32cd" stroke="#9a32cd" points="763.67,-517.328 753.683,-520.865 763.696,-524.328 763.67,-517.328"/>
<text text-anchor="middle" x="855" y="-535" font-family="Helvetica,sans-Serif" font-size="10.00"> xAxis</text>
<text text-anchor="middle" x="855" y="-524" font-family="Helvetica,sans-Serif" font-size="10.00">yAxis</text>
</g>
<!-- Node13&#45;&gt;Node4 -->
<g id="edge14" class="edge"><title>Node13&#45;&gt;Node4</title>
<path fill="none" stroke="#9a32cd" stroke-dasharray="5,2" d="M973.586,-171.2C955.286,-191.06 923.29,-224.062 892,-248 861.61,-271.25 849.25,-269.92 818,-292 783.168,-316.61 745.332,-350.087 727.466,-366.346"/>
<polygon fill="#9a32cd" stroke="#9a32cd" points="976.401,-173.307 980.549,-163.558 971.227,-168.593 976.401,-173.307"/>
<text text-anchor="middle" x="855" y="-295" font-family="Helvetica,sans-Serif" font-size="10.00"> control</text>
</g>
<!-- Node14 -->
<g id="node14" class="node"><title>Node14</title>
<polygon fill="white" stroke="#bfbfbf" points="688,-164.5 688,-183.5 744,-183.5 744,-164.5 688,-164.5"/>
<text text-anchor="middle" x="716" y="-171.5" font-family="Helvetica,sans-Serif" font-size="10.00">Timeline</text>
</g>
<!-- Node14&#45;&gt;Node13 -->
<g id="edge15" class="edge"><title>Node14&#45;&gt;Node13</title>
<path fill="none" stroke="#9a32cd" stroke-dasharray="5,2" d="M754.063,-171.275C800.769,-167.841 881.398,-161.912 934.967,-157.973"/>
<polygon fill="#9a32cd" stroke="#9a32cd" points="753.791,-167.785 744.075,-172.009 754.305,-174.766 753.791,-167.785"/>
<text text-anchor="middle" x="855" y="-170" font-family="Helvetica,sans-Serif" font-size="10.00"> myTimeline</text>
</g>
<!-- Node15 -->
<g id="node15" class="node"><title>Node15</title>
<g id="a_node15"><a xlink:href="../../d2/d17/classmodel_1_1_simulation.html" target="_top" xlink:title="model.Simulation">
<polygon fill="white" stroke="black" points="665.5,-41.5 665.5,-60.5 766.5,-60.5 766.5,-41.5 665.5,-41.5"/>
<text text-anchor="middle" x="716" y="-48.5" font-family="Helvetica,sans-Serif" font-size="10.00">model.Simulation</text>
</a>
</g>
</g>
<!-- Node15&#45;&gt;Node13 -->
<g id="edge18" class="edge"><title>Node15&#45;&gt;Node13</title>
<path fill="none" stroke="#9a32cd" stroke-dasharray="5,2" d="M776.659,-54.7059C811.442,-58.5235 855.508,-66.2724 892,-82 927.823,-97.4393 962.797,-128.452 979.244,-144.257"/>
<polygon fill="#9a32cd" stroke="#9a32cd" points="776.949,-51.2175 766.646,-53.6864 776.24,-58.1815 776.949,-51.2175"/>
<text text-anchor="middle" x="855" y="-85" font-family="Helvetica,sans-Serif" font-size="10.00"> rules</text>
</g>
<!-- Node16 -->
<g id="node16" class="node"><title>Node16</title>
<g id="a_node16"><a xlink:href="../../dc/d8f/classmodel_1_1_grid.html" target="_top" xlink:title="model.Grid">
<polygon fill="white" stroke="black" points="408.5,-19.5 408.5,-38.5 477.5,-38.5 477.5,-19.5 408.5,-19.5"/>
<text text-anchor="middle" x="443" y="-26.5" font-family="Helvetica,sans-Serif" font-size="10.00">model.Grid</text>
</a>
</g>
</g>
<!-- Node16&#45;&gt;Node15 -->
<g id="edge19" class="edge"><title>Node16&#45;&gt;Node15</title>
<path fill="none" stroke="#9a32cd" stroke-dasharray="5,2" d="M487.841,-26.8708C522.25,-25.7751 571.309,-25.4818 614,-30 635.372,-32.2619 658.9,-37.0175 677.867,-41.432"/>
<polygon fill="#9a32cd" stroke="#9a32cd" points="487.525,-23.3797 477.656,-27.2322 487.773,-30.3753 487.525,-23.3797"/>
<text text-anchor="middle" x="571" y="-44" font-family="Helvetica,sans-Serif" font-size="10.00"> currentGrid</text>
<text text-anchor="middle" x="571" y="-33" font-family="Helvetica,sans-Serif" font-size="10.00">nextGrid</text>
</g>
<!-- Node17 -->
<g id="node17" class="node"><title>Node17</title>
<g id="a_node17"><a xlink:href="../../d3/d57/classmodel_1_1_cell.html" target="_top" xlink:title="model.Cell">
<polygon fill="white" stroke="black" points="220.5,-19.5 220.5,-38.5 287.5,-38.5 287.5,-19.5 220.5,-19.5"/>
<text text-anchor="middle" x="254" y="-26.5" font-family="Helvetica,sans-Serif" font-size="10.00">model.Cell</text>
</a>
</g>
</g>
<!-- Node17&#45;&gt;Node16 -->
<g id="edge20" class="edge"><title>Node17&#45;&gt;Node16</title>
<path fill="none" stroke="#9a32cd" stroke-dasharray="5,2" d="M297.979,-29C331.473,-29 377.329,-29 408.224,-29"/>
<polygon fill="#9a32cd" stroke="#9a32cd" points="297.573,-25.5001 287.573,-29 297.573,-32.5001 297.573,-25.5001"/>
<text text-anchor="middle" x="334" y="-32" font-family="Helvetica,sans-Serif" font-size="10.00"> myCells</text>
</g>
<!-- Node18 -->
<g id="node18" class="node"><title>Node18</title>
<polygon fill="white" stroke="#bfbfbf" points="0,-38.5 0,-57.5 128,-57.5 128,-38.5 0,-38.5"/>
<text text-anchor="middle" x="64" y="-45.5" font-family="Helvetica,sans-Serif" font-size="10.00">Map&lt; String, Integer &gt;</text>
</g>
<!-- Node18&#45;&gt;Node17 -->
<g id="edge21" class="edge"><title>Node18&#45;&gt;Node17</title>
<path fill="none" stroke="#9a32cd" stroke-dasharray="5,2" d="M138.434,-40.5784C166.797,-37.712 197.787,-34.5801 220.375,-32.2972"/>
<polygon fill="#9a32cd" stroke="#9a32cd" points="137.722,-37.1326 128.124,-41.6204 138.426,-44.0971 137.722,-37.1326"/>
<text text-anchor="middle" x="172" y="-43" font-family="Helvetica,sans-Serif" font-size="10.00"> properties</text>
</g>
<!-- Node19 -->
<g id="node19" class="node"><title>Node19</title>
<g id="a_node19"><a xlink:href="../../d0/d76/enummodel_1_1_cell_state.html" target="_top" xlink:title="model.CellState">
<polygon fill="white" stroke="black" points="17.5,-0.5 17.5,-19.5 110.5,-19.5 110.5,-0.5 17.5,-0.5"/>
<text text-anchor="middle" x="64" y="-7.5" font-family="Helvetica,sans-Serif" font-size="10.00">model.CellState</text>
</a>
</g>
</g>
<!-- Node19&#45;&gt;Node17 -->
<g id="edge22" class="edge"><title>Node19&#45;&gt;Node17</title>
<path fill="none" stroke="#9a32cd" stroke-dasharray="5,2" d="M120.913,-13.1171C144.719,-14.7254 172.764,-16.9923 198,-20 205.302,-20.8702 213.116,-22.017 220.494,-23.1994"/>
<polygon fill="#9a32cd" stroke="#9a32cd" points="120.853,-9.60574 110.646,-12.446 120.396,-16.5908 120.853,-9.60574"/>
<text text-anchor="middle" x="172" y="-23" font-family="Helvetica,sans-Serif" font-size="10.00"> state</text>
</g>
<!-- Node20 -->
<g id="node20" class="node"><title>Node20</title>
<polygon fill="white" stroke="#bfbfbf" points="415,-64.5 415,-83.5 471,-83.5 471,-64.5 415,-64.5"/>
<text text-anchor="middle" x="443" y="-71.5" font-family="Helvetica,sans-Serif" font-size="10.00">Random</text>
</g>
<!-- Node20&#45;&gt;Node15 -->
<g id="edge23" class="edge"><title>Node20&#45;&gt;Node15</title>
<path fill="none" stroke="#9a32cd" stroke-dasharray="5,2" d="M481.454,-70.8212C529.318,-66.759 612.314,-59.7151 665.392,-55.2103"/>
<polygon fill="#9a32cd" stroke="#9a32cd" points="480.893,-67.3561 471.225,-71.6894 481.486,-74.3311 480.893,-67.3561"/>
<text text-anchor="middle" x="571" y="-70" font-family="Helvetica,sans-Serif" font-size="10.00"> myGenerator</text>
</g>
<!-- Node21 -->
<g id="node21" class="node"><title>Node21</title>
<polygon fill="white" stroke="#bfbfbf" points="655,-79.5 655,-98.5 777,-98.5 777,-79.5 655,-79.5"/>
<text text-anchor="middle" x="716" y="-86.5" font-family="Helvetica,sans-Serif" font-size="10.00">Map&lt; String, String &gt;</text>
</g>
<!-- Node21&#45;&gt;Node13 -->
<g id="edge24" class="edge"><title>Node21&#45;&gt;Node13</title>
<path fill="none" stroke="#9a32cd" stroke-dasharray="5,2" d="M787.282,-92.5005C819.625,-95.3606 858.228,-100.557 892,-110 921.385,-118.216 953.186,-134.12 972.082,-144.388"/>
<polygon fill="#9a32cd" stroke="#9a32cd" points="787.27,-88.9876 777.015,-91.6515 786.693,-95.9638 787.27,-88.9876"/>
<text text-anchor="middle" x="855" y="-113" font-family="Helvetica,sans-Serif" font-size="10.00"> stateColorMap</text>
</g>
<!-- Node22&#45;&gt;Node4 -->
<g id="edge25" class="edge"><title>Node22&#45;&gt;Node4</title>
<path fill="none" stroke="#9a32cd" stroke-dasharray="5,2" d="M970.598,-324.44C952.186,-339.736 922.312,-361.547 892,-371 851.232,-383.713 802.501,-383.978 766.828,-381.629"/>
<polygon fill="#9a32cd" stroke="#9a32cd" points="973.344,-326.697 978.668,-317.537 968.794,-321.378 973.344,-326.697"/>
<text text-anchor="middle" x="855" y="-386" font-family="Helvetica,sans-Serif" font-size="10.00"> buttons</text>
</g>
<!-- Node23 -->
<g id="node23" class="node"><title>Node23</title>
<polygon fill="white" stroke="#bfbfbf" points="698.5,-202.5 698.5,-221.5 733.5,-221.5 733.5,-202.5 698.5,-202.5"/>
<text text-anchor="middle" x="716" y="-209.5" font-family="Helvetica,sans-Serif" font-size="10.00">Text</text>
</g>
<!-- Node23&#45;&gt;Node22 -->
<g id="edge28" class="edge"><title>Node23&#45;&gt;Node22</title>
<path fill="none" stroke="#9a32cd" stroke-dasharray="5,2" d="M744.104,-210.872C779.48,-210.364 842.687,-212.798 892,-233 929.23,-248.251 964.358,-281.863 980.196,-298.411"/>
<polygon fill="#9a32cd" stroke="#9a32cd" points="743.563,-207.384 733.65,-211.122 743.73,-214.382 743.563,-207.384"/>
<text text-anchor="middle" x="855" y="-236" font-family="Helvetica,sans-Serif" font-size="10.00"> speedText</text>
</g>
<!-- Node24 -->
<g id="node24" class="node"><title>Node24</title>
<polygon fill="white" stroke="#bfbfbf" points="420,-311.5 420,-330.5 466,-330.5 466,-311.5 420,-311.5"/>
<text text-anchor="middle" x="443" y="-318.5" font-family="Helvetica,sans-Serif" font-size="10.00">Group</text>
</g>
<!-- Node24&#45;&gt;Node4 -->
<g id="edge29" class="edge"><title>Node24&#45;&gt;Node4</title>
<path fill="none" stroke="#9a32cd" stroke-dasharray="5,2" d="M476.66,-323.069C511.137,-325.709 566.903,-331.28 614,-342 640.88,-348.119 670.685,-358.633 690.904,-366.353"/>
<polygon fill="#9a32cd" stroke="#9a32cd" points="476.48,-319.547 466.252,-322.312 475.972,-326.529 476.48,-319.547"/>
<text text-anchor="middle" x="571" y="-345" font-family="Helvetica,sans-Serif" font-size="10.00"> root</text>
</g>
</g>
</svg>
