<?xml version="1.0" encoding="UTF-8" standalone="no"?>
<!DOCTYPE svg PUBLIC "-//W3C//DTD SVG 1.1//EN"
 "http://www.w3.org/Graphics/SVG/1.1/DTD/svg11.dtd">
<!-- Generated by graphviz version 2.36.0 (20140111.2315)
 -->
<!-- Title: model.WatorSimulation Pages: 1 -->
<svg width="349pt" height="320pt"
 viewBox="0.00 0.00 349.00 320.00" xmlns="http://www.w3.org/2000/svg" xmlns:xlink="http://www.w3.org/1999/xlink">
<g id="graph0" class="graph" transform="scale(1 1) rotate(0) translate(4 316)">
<title>model.WatorSimulation</title>
<polygon fill="white" stroke="none" points="-4,4 -4,-316 345,-316 345,4 -4,4"/>
<!-- Node1 -->
<g id="node1" class="node"><title>Node1</title>
<polygon fill="#bfbfbf" stroke="black" points="194,-0.5 194,-19.5 322,-19.5 322,-0.5 194,-0.5"/>
<text text-anchor="middle" x="258" y="-7.5" font-family="Helvetica,sans-Serif" font-size="10.00">model.WatorSimulation</text>
</g>
<!-- Node2 -->
<g id="node2" class="node"><title>Node2</title>
<g id="a_node2"><a xlink:href="../../d2/d17/classmodel_1_1_simulation.html" target="_top" xlink:title="model.Simulation">
<polygon fill="white" stroke="black" points="117.5,-78.5 117.5,-97.5 218.5,-97.5 218.5,-78.5 117.5,-78.5"/>
<text text-anchor="middle" x="168" y="-85.5" font-family="Helvetica,sans-Serif" font-size="10.00">model.Simulation</text>
</a>
</g>
</g>
<!-- Node2&#45;&gt;Node1 -->
<g id="edge1" class="edge"><title>Node2&#45;&gt;Node1</title>
<path fill="none" stroke="midnightblue" d="M186.084,-71.7293C204.627,-56.0702 232.812,-32.2701 247.796,-19.6165"/>
<polygon fill="midnightblue" stroke="midnightblue" points="183.706,-69.1559 178.324,-78.2818 188.223,-74.5041 183.706,-69.1559"/>
</g>
<!-- Node3 -->
<g id="node3" class="node"><title>Node3</title>
<g id="a_node3"><a xlink:href="../../dc/d8f/classmodel_1_1_grid.html" target="_top" xlink:title="model.Grid">
<polygon fill="white" stroke="black" points="93.5,-156.5 93.5,-175.5 162.5,-175.5 162.5,-156.5 93.5,-156.5"/>
<text text-anchor="middle" x="128" y="-163.5" font-family="Helvetica,sans-Serif" font-size="10.00">model.Grid</text>
</a>
</g>
</g>
<!-- Node3&#45;&gt;Node2 -->
<g id="edge2" class="edge"><title>Node3&#45;&gt;Node2</title>
<path fill="none" stroke="#9a32cd" stroke-dasharray="5,2" d="M124.502,-146.34C123.63,-136.738 124.081,-125.159 129,-116 133.286,-108.019 141.089,-101.912 148.596,-97.5416"/>
<polygon fill="#9a32cd" stroke="#9a32cd" points="121.066,-147.036 125.946,-156.44 127.996,-146.046 121.066,-147.036"/>
<text text-anchor="middle" x="158" y="-130" font-family="Helvetica,sans-Serif" font-size="10.00"> currentGrid</text>
<text text-anchor="middle" x="158" y="-119" font-family="Helvetica,sans-Serif" font-size="10.00">nextGrid</text>
</g>
<!-- Node4 -->
<g id="node4" class="node"><title>Node4</title>
<g id="a_node4"><a xlink:href="../../d3/d57/classmodel_1_1_cell.html" target="_top" xlink:title="model.Cell">
<polygon fill="white" stroke="black" points="94.5,-224.5 94.5,-243.5 161.5,-243.5 161.5,-224.5 94.5,-224.5"/>
<text text-anchor="middle" x="128" y="-231.5" font-family="Helvetica,sans-Serif" font-size="10.00">model.Cell</text>
</a>
</g>
</g>
<!-- Node4&#45;&gt;Node3 -->
<g id="edge3" class="edge"><title>Node4&#45;&gt;Node3</title>
<path fill="none" stroke="#9a32cd" stroke-dasharray="5,2" d="M128,-214.041C128,-201.472 128,-185.563 128,-175.841"/>
<polygon fill="#9a32cd" stroke="#9a32cd" points="124.5,-214.372 128,-224.372 131.5,-214.372 124.5,-214.372"/>
<text text-anchor="middle" x="148.5" y="-197.5" font-family="Helvetica,sans-Serif" font-size="10.00"> myCells</text>
</g>
<!-- Node5 -->
<g id="node5" class="node"><title>Node5</title>
<polygon fill="white" stroke="#bfbfbf" points="0,-292.5 0,-311.5 128,-311.5 128,-292.5 0,-292.5"/>
<text text-anchor="middle" x="64" y="-299.5" font-family="Helvetica,sans-Serif" font-size="10.00">Map&lt; String, Integer &gt;</text>
</g>
<!-- Node5&#45;&gt;Node4 -->
<g id="edge4" class="edge"><title>Node5&#45;&gt;Node4</title>
<path fill="none" stroke="#9a32cd" stroke-dasharray="5,2" d="M79.4692,-285.047C92.0135,-272.111 109.23,-254.357 119.427,-243.841"/>
<polygon fill="#9a32cd" stroke="#9a32cd" points="76.8157,-282.756 72.3669,-292.372 81.841,-287.629 76.8157,-282.756"/>
<text text-anchor="middle" x="128" y="-265.5" font-family="Helvetica,sans-Serif" font-size="10.00"> properties</text>
</g>
<!-- Node6 -->
<g id="node6" class="node"><title>Node6</title>
<g id="a_node6"><a xlink:href="../../d0/d76/enummodel_1_1_cell_state.html" target="_top" xlink:title="model.CellState">
<polygon fill="white" stroke="black" points="146.5,-292.5 146.5,-311.5 239.5,-311.5 239.5,-292.5 146.5,-292.5"/>
<text text-anchor="middle" x="193" y="-299.5" font-family="Helvetica,sans-Serif" font-size="10.00">model.CellState</text>
</a>
</g>
</g>
<!-- Node6&#45;&gt;Node4 -->
<g id="edge5" class="edge"><title>Node6&#45;&gt;Node4</title>
<path fill="none" stroke="#9a32cd" stroke-dasharray="5,2" d="M179.091,-284.731C172.816,-277.595 165.208,-269.218 158,-262 151.662,-255.653 144.162,-248.903 138.247,-243.74"/>
<polygon fill="#9a32cd" stroke="#9a32cd" points="176.543,-287.135 185.741,-292.394 181.83,-282.547 176.543,-287.135"/>
<text text-anchor="middle" x="183" y="-265.5" font-family="Helvetica,sans-Serif" font-size="10.00"> state</text>
</g>
<!-- Node7 -->
<g id="node7" class="node"><title>Node7</title>
<polygon fill="white" stroke="#bfbfbf" points="181,-156.5 181,-175.5 237,-175.5 237,-156.5 181,-156.5"/>
<text text-anchor="middle" x="209" y="-163.5" font-family="Helvetica,sans-Serif" font-size="10.00">Random</text>
</g>
<!-- Node7&#45;&gt;Node2 -->
<g id="edge6" class="edge"><title>Node7&#45;&gt;Node2</title>
<path fill="none" stroke="#9a32cd" stroke-dasharray="5,2" d="M201.86,-146.919C197.895,-137.49 192.632,-125.891 187,-116 183.37,-109.624 178.62,-102.874 174.777,-97.7183"/>
<polygon fill="#9a32cd" stroke="#9a32cd" points="198.723,-148.495 205.736,-156.437 205.206,-145.855 198.723,-148.495"/>
<text text-anchor="middle" x="231.5" y="-124.5" font-family="Helvetica,sans-Serif" font-size="10.00"> myGenerator</text>
</g>
<!-- Node8 -->
<g id="node8" class="node"><title>Node8</title>
<polygon fill="white" stroke="#bfbfbf" points="236.5,-78.5 236.5,-97.5 341.5,-97.5 341.5,-78.5 236.5,-78.5"/>
<text text-anchor="middle" x="289" y="-85.5" font-family="Helvetica,sans-Serif" font-size="10.00">ArrayList&lt; Point &gt;</text>
</g>
<!-- Node8&#45;&gt;Node1 -->
<g id="edge7" class="edge"><title>Node8&#45;&gt;Node1</title>
<path fill="none" stroke="#9a32cd" stroke-dasharray="5,2" d="M281.525,-68.6744C275.178,-53.1127 266.35,-31.4722 261.515,-19.6165"/>
<polygon fill="#9a32cd" stroke="#9a32cd" points="278.426,-70.3444 285.444,-78.2818 284.908,-67.7006 278.426,-70.3444"/>
<text text-anchor="middle" x="300" y="-52" font-family="Helvetica,sans-Serif" font-size="10.00"> allFish</text>
<text text-anchor="middle" x="300" y="-41" font-family="Helvetica,sans-Serif" font-size="10.00">allSharks</text>
</g>
</g>
</svg>
