<?xml version="1.0" encoding="UTF-8" standalone="no"?>
<!DOCTYPE svg PUBLIC "-//W3C//DTD SVG 1.1//EN"
 "http://www.w3.org/Graphics/SVG/1.1/DTD/svg11.dtd">
<!-- Generated by graphviz version 2.36.0 (20140111.2315)
 -->
<!-- Title: viewPackage.ToggleBox.createToggleGroup Pages: 1 -->
<svg width="550pt" height="136pt"
 viewBox="0.00 0.00 550.00 136.00" xmlns="http://www.w3.org/2000/svg" xmlns:xlink="http://www.w3.org/1999/xlink">
<g id="graph0" class="graph" transform="scale(1 1) rotate(0) translate(4 132)">
<title>viewPackage.ToggleBox.createToggleGroup</title>
<polygon fill="white" stroke="none" points="-4,4 -4,-132 546,-132 546,4 -4,4"/>
<!-- Node1 -->
<g id="node1" class="node"><title>Node1</title>
<polygon fill="#bfbfbf" stroke="black" points="0.5,-49 0.5,-79 161.5,-79 161.5,-49 0.5,-49"/>
<text text-anchor="start" x="8.5" y="-67" font-family="Helvetica,sans-Serif" font-size="10.00">viewPackage.ToggleBox.create</text>
<text text-anchor="middle" x="81" y="-56" font-family="Helvetica,sans-Serif" font-size="10.00">ToggleGroup</text>
</g>
<!-- Node2 -->
<g id="node2" class="node"><title>Node2</title>
<g id="a_node2"><a xlink:href="../../df/d81/classview_package_1_1_toggle_box.html#ab7cc0d51a6ba7ff0fb98938f608d130f" target="_top" xlink:title="viewPackage.ToggleBox.assign\lToVBox">
<polygon fill="white" stroke="black" points="198.5,-98 198.5,-128 359.5,-128 359.5,-98 198.5,-98"/>
<text text-anchor="start" x="206.5" y="-116" font-family="Helvetica,sans-Serif" font-size="10.00">viewPackage.ToggleBox.assign</text>
<text text-anchor="middle" x="279" y="-105" font-family="Helvetica,sans-Serif" font-size="10.00">ToVBox</text>
</a>
</g>
</g>
<!-- Node1&#45;&gt;Node2 -->
<g id="edge1" class="edge"><title>Node1&#45;&gt;Node2</title>
<path fill="none" stroke="midnightblue" d="M142.138,-79.0346C163.021,-84.2554 186.615,-90.1537 208.21,-95.5526"/>
<polygon fill="midnightblue" stroke="midnightblue" points="207.425,-98.9639 217.975,-97.9938 209.123,-92.1729 207.425,-98.9639"/>
</g>
<!-- Node3 -->
<g id="node3" class="node"><title>Node3</title>
<g id="a_node3"><a xlink:href="../../df/d81/classview_package_1_1_toggle_box.html#aea5e0d0c184125e36cda6a58d7eda94d" target="_top" xlink:title="viewPackage.ToggleBox.create\lToggleButton">
<polygon fill="white" stroke="black" points="198.5,-49 198.5,-79 359.5,-79 359.5,-49 198.5,-49"/>
<text text-anchor="start" x="206.5" y="-67" font-family="Helvetica,sans-Serif" font-size="10.00">viewPackage.ToggleBox.create</text>
<text text-anchor="middle" x="279" y="-56" font-family="Helvetica,sans-Serif" font-size="10.00">ToggleButton</text>
</a>
</g>
</g>
<!-- Node1&#45;&gt;Node3 -->
<g id="edge2" class="edge"><title>Node1&#45;&gt;Node3</title>
<path fill="none" stroke="midnightblue" d="M161.721,-64C170.405,-64 179.287,-64 188.082,-64"/>
<polygon fill="midnightblue" stroke="midnightblue" points="188.35,-67.5001 198.35,-64 188.35,-60.5001 188.35,-67.5001"/>
</g>
<!-- Node4 -->
<g id="node4" class="node"><title>Node4</title>
<g id="a_node4"><a xlink:href="../../df/d81/classview_package_1_1_toggle_box.html#ad93c586410df49bf8ed97247f167d5bf" target="_top" xlink:title="viewPackage.ToggleBox.set\lToggleProperty">
<polygon fill="white" stroke="black" points="206,-0 206,-30 352,-30 352,-0 206,-0"/>
<text text-anchor="start" x="214" y="-18" font-family="Helvetica,sans-Serif" font-size="10.00">viewPackage.ToggleBox.set</text>
<text text-anchor="middle" x="279" y="-7" font-family="Helvetica,sans-Serif" font-size="10.00">ToggleProperty</text>
</a>
</g>
</g>
<!-- Node1&#45;&gt;Node4 -->
<g id="edge3" class="edge"><title>Node1&#45;&gt;Node4</title>
<path fill="none" stroke="midnightblue" d="M142.138,-48.9654C163.021,-43.7446 186.615,-37.8463 208.21,-32.4474"/>
<polygon fill="midnightblue" stroke="midnightblue" points="209.123,-35.8271 217.975,-30.0062 207.425,-29.0361 209.123,-35.8271"/>
</g>
<!-- Node5 -->
<g id="node5" class="node"><title>Node5</title>
<g id="a_node5"><a xlink:href="../../df/d81/classview_package_1_1_toggle_box.html#a6b989e93bdb4c574c79aafcfcdc2fbad" target="_top" xlink:title="viewPackage.ToggleBox.set\lToggleChangeMethod">
<polygon fill="white" stroke="black" points="396,-0 396,-30 542,-30 542,-0 396,-0"/>
<text text-anchor="start" x="404" y="-18" font-family="Helvetica,sans-Serif" font-size="10.00">viewPackage.ToggleBox.set</text>
<text text-anchor="middle" x="469" y="-7" font-family="Helvetica,sans-Serif" font-size="10.00">ToggleChangeMethod</text>
</a>
</g>
</g>
<!-- Node4&#45;&gt;Node5 -->
<g id="edge4" class="edge"><title>Node4&#45;&gt;Node5</title>
<path fill="none" stroke="midnightblue" d="M352.148,-15C363.089,-15 374.447,-15 385.586,-15"/>
<polygon fill="midnightblue" stroke="midnightblue" points="385.734,-18.5001 395.734,-15 385.734,-11.5001 385.734,-18.5001"/>
</g>
</g>
</svg>
