<?xml version="1.0" encoding="UTF-8" standalone="no"?>
<!DOCTYPE svg PUBLIC "-//W3C//DTD SVG 1.1//EN"
 "http://www.w3.org/Graphics/SVG/1.1/DTD/svg11.dtd">
<!-- Generated by graphviz version 2.36.0 (20140111.2315)
 -->
<!-- Title: viewPackage.ToggleBox.makeToggles Pages: 1 -->
<svg width="546pt" height="136pt"
 viewBox="0.00 0.00 546.00 136.00" xmlns="http://www.w3.org/2000/svg" xmlns:xlink="http://www.w3.org/1999/xlink">
<g id="graph0" class="graph" transform="scale(1 1) rotate(0) translate(4 132)">
<title>viewPackage.ToggleBox.makeToggles</title>
<polygon fill="white" stroke="none" points="-4,4 -4,-132 542,-132 542,4 -4,4"/>
<!-- Node1 -->
<g id="node1" class="node"><title>Node1</title>
<polygon fill="#bfbfbf" stroke="black" points="0,-49 0,-79 158,-79 158,-49 0,-49"/>
<text text-anchor="start" x="8" y="-67" font-family="Helvetica,sans-Serif" font-size="10.00">viewPackage.ToggleBox.make</text>
<text text-anchor="middle" x="79" y="-56" font-family="Helvetica,sans-Serif" font-size="10.00">Toggles</text>
</g>
<!-- Node2 -->
<g id="node2" class="node"><title>Node2</title>
<g id="a_node2"><a xlink:href="../../df/d81/classview_package_1_1_toggle_box.html#ab7cc0d51a6ba7ff0fb98938f608d130f" target="_top" xlink:title="viewPackage.ToggleBox.assign\lToVBox">
<polygon fill="white" stroke="black" points="194.5,-98 194.5,-128 355.5,-128 355.5,-98 194.5,-98"/>
<text text-anchor="start" x="202.5" y="-116" font-family="Helvetica,sans-Serif" font-size="10.00">viewPackage.ToggleBox.assign</text>
<text text-anchor="middle" x="275" y="-105" font-family="Helvetica,sans-Serif" font-size="10.00">ToVBox</text>
</a>
</g>
</g>
<!-- Node1&#45;&gt;Node2 -->
<g id="edge1" class="edge"><title>Node1&#45;&gt;Node2</title>
<path fill="none" stroke="midnightblue" d="M139.525,-79.0346C160.102,-84.2318 183.337,-90.1006 204.634,-95.4796"/>
<polygon fill="midnightblue" stroke="midnightblue" points="204.035,-98.9383 214.588,-97.9938 205.749,-92.1514 204.035,-98.9383"/>
</g>
<!-- Node3 -->
<g id="node3" class="node"><title>Node3</title>
<g id="a_node3"><a xlink:href="../../df/d81/classview_package_1_1_toggle_box.html#aea5e0d0c184125e36cda6a58d7eda94d" target="_top" xlink:title="viewPackage.ToggleBox.create\lToggleButton">
<polygon fill="white" stroke="black" points="194.5,-49 194.5,-79 355.5,-79 355.5,-49 194.5,-49"/>
<text text-anchor="start" x="202.5" y="-67" font-family="Helvetica,sans-Serif" font-size="10.00">viewPackage.ToggleBox.create</text>
<text text-anchor="middle" x="275" y="-56" font-family="Helvetica,sans-Serif" font-size="10.00">ToggleButton</text>
</a>
</g>
</g>
<!-- Node1&#45;&gt;Node3 -->
<g id="edge2" class="edge"><title>Node1&#45;&gt;Node3</title>
<path fill="none" stroke="midnightblue" d="M158.069,-64C166.62,-64 175.376,-64 184.055,-64"/>
<polygon fill="midnightblue" stroke="midnightblue" points="184.193,-67.5001 194.193,-64 184.193,-60.5001 184.193,-67.5001"/>
</g>
<!-- Node4 -->
<g id="node4" class="node"><title>Node4</title>
<g id="a_node4"><a xlink:href="../../df/d81/classview_package_1_1_toggle_box.html#ad93c586410df49bf8ed97247f167d5bf" target="_top" xlink:title="viewPackage.ToggleBox.set\lToggleProperty">
<polygon fill="white" stroke="black" points="202,-0 202,-30 348,-30 348,-0 202,-0"/>
<text text-anchor="start" x="210" y="-18" font-family="Helvetica,sans-Serif" font-size="10.00">viewPackage.ToggleBox.set</text>
<text text-anchor="middle" x="275" y="-7" font-family="Helvetica,sans-Serif" font-size="10.00">ToggleProperty</text>
</a>
</g>
</g>
<!-- Node1&#45;&gt;Node4 -->
<g id="edge3" class="edge"><title>Node1&#45;&gt;Node4</title>
<path fill="none" stroke="midnightblue" d="M139.525,-48.9654C160.102,-43.7682 183.337,-37.8994 204.634,-32.5204"/>
<polygon fill="midnightblue" stroke="midnightblue" points="205.749,-35.8486 214.588,-30.0062 204.035,-29.0617 205.749,-35.8486"/>
</g>
<!-- Node5 -->
<g id="node5" class="node"><title>Node5</title>
<g id="a_node5"><a xlink:href="../../df/d81/classview_package_1_1_toggle_box.html#a6b989e93bdb4c574c79aafcfcdc2fbad" target="_top" xlink:title="viewPackage.ToggleBox.set\lToggleChangeMethod">
<polygon fill="white" stroke="black" points="392,-0 392,-30 538,-30 538,-0 392,-0"/>
<text text-anchor="start" x="400" y="-18" font-family="Helvetica,sans-Serif" font-size="10.00">viewPackage.ToggleBox.set</text>
<text text-anchor="middle" x="465" y="-7" font-family="Helvetica,sans-Serif" font-size="10.00">ToggleChangeMethod</text>
</a>
</g>
</g>
<!-- Node4&#45;&gt;Node5 -->
<g id="edge4" class="edge"><title>Node4&#45;&gt;Node5</title>
<path fill="none" stroke="midnightblue" d="M348.148,-15C359.089,-15 370.447,-15 381.586,-15"/>
<polygon fill="midnightblue" stroke="midnightblue" points="381.734,-18.5001 391.734,-15 381.734,-11.5001 381.734,-18.5001"/>
</g>
</g>
</svg>
