<?xml version="1.0" encoding="UTF-8" standalone="no"?>
<!DOCTYPE svg PUBLIC "-//W3C//DTD SVG 1.1//EN"
 "http://www.w3.org/Graphics/SVG/1.1/DTD/svg11.dtd">
<!-- Generated by graphviz version 2.36.0 (20140111.2315)
 -->
<!-- Title: viewPackage.ToggleBox.getShape Pages: 1 -->
<svg width="1502pt" height="38pt"
 viewBox="0.00 0.00 1502.00 38.00" xmlns="http://www.w3.org/2000/svg" xmlns:xlink="http://www.w3.org/1999/xlink">
<g id="graph0" class="graph" transform="scale(1 1) rotate(0) translate(4 34)">
<title>viewPackage.ToggleBox.getShape</title>
<polygon fill="white" stroke="none" points="-4,4 -4,-34 1498,-34 1498,4 -4,4"/>
<!-- Node1 -->
<g id="node1" class="node"><title>Node1</title>
<polygon fill="#bfbfbf" stroke="black" points="0,-0 0,-30 146,-30 146,-0 0,-0"/>
<text text-anchor="start" x="8" y="-18" font-family="Helvetica,sans-Serif" font-size="10.00">viewPackage.ToggleBox.get</text>
<text text-anchor="middle" x="73" y="-7" font-family="Helvetica,sans-Serif" font-size="10.00">Shape</text>
</g>
<!-- Node2 -->
<g id="node2" class="node"><title>Node2</title>
<g id="a_node2"><a xlink:href="../../d1/dbf/classview_package_1_1_view.html#a463e5a91c22eba013dfe816c7c318e37" target="_top" xlink:title="viewPackage.View.createDisplayView">
<polygon fill="white" stroke="black" points="182.5,-5.5 182.5,-24.5 373.5,-24.5 373.5,-5.5 182.5,-5.5"/>
<text text-anchor="middle" x="278" y="-12.5" font-family="Helvetica,sans-Serif" font-size="10.00">viewPackage.View.createDisplayView</text>
</a>
</g>
</g>
<!-- Node1&#45;&gt;Node2 -->
<g id="edge1" class="edge"><title>Node1&#45;&gt;Node2</title>
<path fill="none" stroke="midnightblue" d="M156.166,-15C164.794,-15 173.616,-15 182.37,-15"/>
<polygon fill="midnightblue" stroke="midnightblue" points="156.142,-11.5001 146.142,-15 156.142,-18.5001 156.142,-11.5001"/>
</g>
<!-- Node3 -->
<g id="node3" class="node"><title>Node3</title>
<g id="a_node3"><a xlink:href="../../d9/df7/classcontroller_1_1_controller.html#af7cc9ab6dfe60da36d3159eea48882db" target="_top" xlink:title="controller.Controller.loadFile">
<polygon fill="white" stroke="black" points="410,-5.5 410,-24.5 558,-24.5 558,-5.5 410,-5.5"/>
<text text-anchor="middle" x="484" y="-12.5" font-family="Helvetica,sans-Serif" font-size="10.00">controller.Controller.loadFile</text>
</a>
</g>
</g>
<!-- Node2&#45;&gt;Node3 -->
<g id="edge2" class="edge"><title>Node2&#45;&gt;Node3</title>
<path fill="none" stroke="midnightblue" d="M383.556,-15C392.435,-15 401.287,-15 409.845,-15"/>
<polygon fill="midnightblue" stroke="midnightblue" points="383.535,-11.5001 373.535,-15 383.535,-18.5001 383.535,-11.5001"/>
</g>
<!-- Node4 -->
<g id="node4" class="node"><title>Node4</title>
<g id="a_node4"><a xlink:href="../../d1/dbf/classview_package_1_1_view.html#a718e5f42ae85512916198548e28477c7" target="_top" xlink:title="viewPackage.View.tryLoad">
<polygon fill="white" stroke="black" points="594,-5.5 594,-24.5 734,-24.5 734,-5.5 594,-5.5"/>
<text text-anchor="middle" x="664" y="-12.5" font-family="Helvetica,sans-Serif" font-size="10.00">viewPackage.View.tryLoad</text>
</a>
</g>
</g>
<!-- Node3&#45;&gt;Node4 -->
<g id="edge3" class="edge"><title>Node3&#45;&gt;Node4</title>
<path fill="none" stroke="midnightblue" d="M568.193,-15C576.776,-15 585.431,-15 593.838,-15"/>
<polygon fill="midnightblue" stroke="midnightblue" points="568.17,-11.5001 558.17,-15 568.17,-18.5001 568.17,-11.5001"/>
</g>
<!-- Node5 -->
<g id="node5" class="node"><title>Node5</title>
<g id="a_node5"><a xlink:href="../../dc/d2c/classview_package_1_1_button_box.html#aef53bd97c4407ecd3fb5dfbf42850a46" target="_top" xlink:title="viewPackage.ButtonBox.load\lFileBox">
<polygon fill="white" stroke="black" points="770.5,-0 770.5,-30 923.5,-30 923.5,-0 770.5,-0"/>
<text text-anchor="start" x="778.5" y="-18" font-family="Helvetica,sans-Serif" font-size="10.00">viewPackage.ButtonBox.load</text>
<text text-anchor="middle" x="847" y="-7" font-family="Helvetica,sans-Serif" font-size="10.00">FileBox</text>
</a>
</g>
</g>
<!-- Node4&#45;&gt;Node5 -->
<g id="edge4" class="edge"><title>Node4&#45;&gt;Node5</title>
<path fill="none" stroke="midnightblue" d="M744.241,-15C752.863,-15 761.623,-15 770.201,-15"/>
<polygon fill="midnightblue" stroke="midnightblue" points="744.203,-11.5001 734.203,-15 744.203,-18.5001 744.203,-11.5001"/>
</g>
<!-- Node6 -->
<g id="node6" class="node"><title>Node6</title>
<g id="a_node6"><a xlink:href="../../dc/d2c/classview_package_1_1_button_box.html#a9756fc46a96c169ce48a1867bd2c82f5" target="_top" xlink:title="viewPackage.ButtonBox.make\lButtonBox">
<polygon fill="white" stroke="black" points="960,-0 960,-30 1120,-30 1120,-0 960,-0"/>
<text text-anchor="start" x="968" y="-18" font-family="Helvetica,sans-Serif" font-size="10.00">viewPackage.ButtonBox.make</text>
<text text-anchor="middle" x="1040" y="-7" font-family="Helvetica,sans-Serif" font-size="10.00">ButtonBox</text>
</a>
</g>
</g>
<!-- Node5&#45;&gt;Node6 -->
<g id="edge5" class="edge"><title>Node5&#45;&gt;Node6</title>
<path fill="none" stroke="midnightblue" d="M933.864,-15C942.526,-15 951.295,-15 959.881,-15"/>
<polygon fill="midnightblue" stroke="midnightblue" points="933.763,-11.5001 923.763,-15 933.763,-18.5001 933.763,-11.5001"/>
</g>
<!-- Node7 -->
<g id="node7" class="node"><title>Node7</title>
<g id="a_node7"><a xlink:href="../../d1/dbf/classview_package_1_1_view.html#af6f6887ef253ae0fba2634e367b95312" target="_top" xlink:title="viewPackage.View.initialize">
<polygon fill="white" stroke="black" points="1156,-5.5 1156,-24.5 1298,-24.5 1298,-5.5 1156,-5.5"/>
<text text-anchor="middle" x="1227" y="-12.5" font-family="Helvetica,sans-Serif" font-size="10.00">viewPackage.View.initialize</text>
</a>
</g>
</g>
<!-- Node6&#45;&gt;Node7 -->
<g id="edge6" class="edge"><title>Node6&#45;&gt;Node7</title>
<path fill="none" stroke="midnightblue" d="M1130.33,-15C1138.93,-15 1147.57,-15 1155.95,-15"/>
<polygon fill="midnightblue" stroke="midnightblue" points="1130.26,-11.5001 1120.26,-15 1130.26,-18.5001 1130.26,-11.5001"/>
</g>
<!-- Node8 -->
<g id="node8" class="node"><title>Node8</title>
<g id="a_node8"><a xlink:href="../../d9/df7/classcontroller_1_1_controller.html#a4dbfef3e3e30bd1bb84df7a6b24ad1e7" target="_top" xlink:title="controller.Controller.Controller">
<polygon fill="white" stroke="black" points="1334.5,-5.5 1334.5,-24.5 1493.5,-24.5 1493.5,-5.5 1334.5,-5.5"/>
<text text-anchor="middle" x="1414" y="-12.5" font-family="Helvetica,sans-Serif" font-size="10.00">controller.Controller.Controller</text>
</a>
</g>
</g>
<!-- Node7&#45;&gt;Node8 -->
<g id="edge7" class="edge"><title>Node7&#45;&gt;Node8</title>
<path fill="none" stroke="midnightblue" d="M1308.31,-15C1317,-15 1325.83,-15 1334.49,-15"/>
<polygon fill="midnightblue" stroke="midnightblue" points="1308.2,-11.5001 1298.2,-15 1308.2,-18.5001 1308.2,-11.5001"/>
</g>
</g>
</svg>
