<?xml version="1.0" encoding="UTF-8" standalone="no"?>
<!DOCTYPE svg PUBLIC "-//W3C//DTD SVG 1.1//EN"
 "http://www.w3.org/Graphics/SVG/1.1/DTD/svg11.dtd">
<!-- Generated by graphviz version 2.36.0 (20140111.2315)
 -->
<!-- Title: viewPackage.ToggleBox.getOutline Pages: 1 -->
<svg width="550pt" height="38pt"
 viewBox="0.00 0.00 550.00 38.00" xmlns="http://www.w3.org/2000/svg" xmlns:xlink="http://www.w3.org/1999/xlink">
<g id="graph0" class="graph" transform="scale(1 1) rotate(0) translate(4 34)">
<title>viewPackage.ToggleBox.getOutline</title>
<polygon fill="white" stroke="none" points="-4,4 -4,-34 546,-34 546,4 -4,4"/>
<!-- Node1 -->
<g id="node1" class="node"><title>Node1</title>
<polygon fill="#bfbfbf" stroke="black" points="0,-0 0,-30 146,-30 146,-0 0,-0"/>
<text text-anchor="start" x="8" y="-18" font-family="Helvetica,sans-Serif" font-size="10.00">viewPackage.ToggleBox.get</text>
<text text-anchor="middle" x="73" y="-7" font-family="Helvetica,sans-Serif" font-size="10.00">Outline</text>
</g>
<!-- Node2 -->
<g id="node2" class="node"><title>Node2</title>
<g id="a_node2"><a xlink:href="../../d1/dbf/classview_package_1_1_view.html#a10e18f0846c22fe65db040a126a9db2d" target="_top" xlink:title="viewPackage.View.getOutline">
<polygon fill="white" stroke="black" points="182.5,-5.5 182.5,-24.5 335.5,-24.5 335.5,-5.5 182.5,-5.5"/>
<text text-anchor="middle" x="259" y="-12.5" font-family="Helvetica,sans-Serif" font-size="10.00">viewPackage.View.getOutline</text>
</a>
</g>
</g>
<!-- Node1&#45;&gt;Node2 -->
<g id="edge1" class="edge"><title>Node1&#45;&gt;Node2</title>
<path fill="none" stroke="midnightblue" d="M156.309,-15C164.987,-15 173.781,-15 182.378,-15"/>
<polygon fill="midnightblue" stroke="midnightblue" points="156.194,-11.5001 146.194,-15 156.194,-18.5001 156.194,-11.5001"/>
</g>
<!-- Node3 -->
<g id="node3" class="node"><title>Node3</title>
<g id="a_node3"><a xlink:href="../../df/dcf/classview_package_1_1_display_grid.html#ac6aba13bb5fe5581962c5ca983a80a0a" target="_top" xlink:title="viewPackage.DisplayGrid.outline">
<polygon fill="white" stroke="black" points="372.5,-5.5 372.5,-24.5 541.5,-24.5 541.5,-5.5 372.5,-5.5"/>
<text text-anchor="middle" x="457" y="-12.5" font-family="Helvetica,sans-Serif" font-size="10.00">viewPackage.DisplayGrid.outline</text>
</a>
</g>
</g>
<!-- Node2&#45;&gt;Node3 -->
<g id="edge2" class="edge"><title>Node2&#45;&gt;Node3</title>
<path fill="none" stroke="midnightblue" d="M345.961,-15C354.7,-15 363.569,-15 372.284,-15"/>
<polygon fill="midnightblue" stroke="midnightblue" points="345.779,-11.5001 335.779,-15 345.779,-18.5001 345.779,-11.5001"/>
</g>
</g>
</svg>
