<?xml version="1.0" encoding="UTF-8" standalone="no"?>
<!DOCTYPE svg PUBLIC "-//W3C//DTD SVG 1.1//EN"
 "http://www.w3.org/Graphics/SVG/1.1/DTD/svg11.dtd">
<!-- Generated by graphviz version 2.36.0 (20140111.2315)
 -->
<!-- Title: viewPackage.ToggleBox.setToggleProperty Pages: 1 -->
<svg width="726pt" height="87pt"
 viewBox="0.00 0.00 726.00 87.00" xmlns="http://www.w3.org/2000/svg" xmlns:xlink="http://www.w3.org/1999/xlink">
<g id="graph0" class="graph" transform="scale(1 1) rotate(0) translate(4 83)">
<title>viewPackage.ToggleBox.setToggleProperty</title>
<polygon fill="white" stroke="none" points="-4,4 -4,-83 722,-83 722,4 -4,4"/>
<!-- Node1 -->
<g id="node1" class="node"><title>Node1</title>
<polygon fill="#bfbfbf" stroke="black" points="0,-24 0,-54 146,-54 146,-24 0,-24"/>
<text text-anchor="start" x="8" y="-42" font-family="Helvetica,sans-Serif" font-size="10.00">viewPackage.ToggleBox.set</text>
<text text-anchor="middle" x="73" y="-31" font-family="Helvetica,sans-Serif" font-size="10.00">ToggleProperty</text>
</g>
<!-- Node2 -->
<g id="node2" class="node"><title>Node2</title>
<g id="a_node2"><a xlink:href="../../df/d81/classview_package_1_1_toggle_box.html#aaf20d2134ed09c7fb1875f0f278978e3" target="_top" xlink:title="viewPackage.ToggleBox.create\lToggleGroup">
<polygon fill="white" stroke="black" points="182.5,-49 182.5,-79 343.5,-79 343.5,-49 182.5,-49"/>
<text text-anchor="start" x="190.5" y="-67" font-family="Helvetica,sans-Serif" font-size="10.00">viewPackage.ToggleBox.create</text>
<text text-anchor="middle" x="263" y="-56" font-family="Helvetica,sans-Serif" font-size="10.00">ToggleGroup</text>
</a>
</g>
</g>
<!-- Node1&#45;&gt;Node2 -->
<g id="edge1" class="edge"><title>Node1&#45;&gt;Node2</title>
<path fill="none" stroke="midnightblue" d="M156.206,-49.9316C164.842,-51.08 173.612,-52.2463 182.22,-53.391"/>
<polygon fill="midnightblue" stroke="midnightblue" points="156.522,-46.443 146.148,-48.5942 155.599,-53.3819 156.522,-46.443"/>
</g>
<!-- Node3 -->
<g id="node3" class="node"><title>Node3</title>
<g id="a_node3"><a xlink:href="../../df/d81/classview_package_1_1_toggle_box.html#a272f1f8798b79e6e5098f48d48b7f3e9" target="_top" xlink:title="viewPackage.ToggleBox.make\lToggles">
<polygon fill="white" stroke="black" points="184,-0 184,-30 342,-30 342,-0 184,-0"/>
<text text-anchor="start" x="192" y="-18" font-family="Helvetica,sans-Serif" font-size="10.00">viewPackage.ToggleBox.make</text>
<text text-anchor="middle" x="263" y="-7" font-family="Helvetica,sans-Serif" font-size="10.00">Toggles</text>
</a>
</g>
</g>
<!-- Node1&#45;&gt;Node3 -->
<g id="edge2" class="edge"><title>Node1&#45;&gt;Node3</title>
<path fill="none" stroke="midnightblue" d="M156.356,-28.4864C165.471,-27.3229 174.733,-26.1405 183.794,-24.9838"/>
<polygon fill="midnightblue" stroke="midnightblue" points="155.624,-25.0514 146.148,-29.7896 156.511,-31.995 155.624,-25.0514"/>
</g>
<!-- Node4 -->
<g id="node4" class="node"><title>Node4</title>
<g id="a_node4"><a xlink:href="../../d1/dbf/classview_package_1_1_view.html#af6f6887ef253ae0fba2634e367b95312" target="_top" xlink:title="viewPackage.View.initialize">
<polygon fill="white" stroke="black" points="380,-5.5 380,-24.5 522,-24.5 522,-5.5 380,-5.5"/>
<text text-anchor="middle" x="451" y="-12.5" font-family="Helvetica,sans-Serif" font-size="10.00">viewPackage.View.initialize</text>
</a>
</g>
</g>
<!-- Node3&#45;&gt;Node4 -->
<g id="edge3" class="edge"><title>Node3&#45;&gt;Node4</title>
<path fill="none" stroke="midnightblue" d="M352.115,-15C361.41,-15 370.77,-15 379.823,-15"/>
<polygon fill="midnightblue" stroke="midnightblue" points="352.072,-11.5001 342.072,-15 352.072,-18.5001 352.072,-11.5001"/>
</g>
<!-- Node5 -->
<g id="node5" class="node"><title>Node5</title>
<g id="a_node5"><a xlink:href="../../d9/df7/classcontroller_1_1_controller.html#a4dbfef3e3e30bd1bb84df7a6b24ad1e7" target="_top" xlink:title="controller.Controller.Controller">
<polygon fill="white" stroke="black" points="558.5,-5.5 558.5,-24.5 717.5,-24.5 717.5,-5.5 558.5,-5.5"/>
<text text-anchor="middle" x="638" y="-12.5" font-family="Helvetica,sans-Serif" font-size="10.00">controller.Controller.Controller</text>
</a>
</g>
</g>
<!-- Node4&#45;&gt;Node5 -->
<g id="edge4" class="edge"><title>Node4&#45;&gt;Node5</title>
<path fill="none" stroke="midnightblue" d="M532.313,-15C540.998,-15 549.828,-15 558.491,-15"/>
<polygon fill="midnightblue" stroke="midnightblue" points="532.204,-11.5001 522.204,-15 532.204,-18.5001 532.204,-11.5001"/>
</g>
</g>
</svg>
