<?xml version="1.0" encoding="UTF-8" standalone="no"?>
<!DOCTYPE svg PUBLIC "-//W3C//DTD SVG 1.1//EN"
 "http://www.w3.org/Graphics/SVG/1.1/DTD/svg11.dtd">
<!-- Generated by graphviz version 2.36.0 (20140111.2315)
 -->
<!-- Title: viewPackage.ToggleBox.getEdgeType Pages: 1 -->
<svg width="1636pt" height="38pt"
 viewBox="0.00 0.00 1636.00 38.00" xmlns="http://www.w3.org/2000/svg" xmlns:xlink="http://www.w3.org/1999/xlink">
<g id="graph0" class="graph" transform="scale(1 1) rotate(0) translate(4 34)">
<title>viewPackage.ToggleBox.getEdgeType</title>
<polygon fill="white" stroke="none" points="-4,4 -4,-34 1632,-34 1632,4 -4,4"/>
<!-- Node1 -->
<g id="node1" class="node"><title>Node1</title>
<polygon fill="#bfbfbf" stroke="black" points="0,-0 0,-30 146,-30 146,-0 0,-0"/>
<text text-anchor="start" x="8" y="-18" font-family="Helvetica,sans-Serif" font-size="10.00">viewPackage.ToggleBox.get</text>
<text text-anchor="middle" x="73" y="-7" font-family="Helvetica,sans-Serif" font-size="10.00">EdgeType</text>
</g>
<!-- Node2 -->
<g id="node2" class="node"><title>Node2</title>
<g id="a_node2"><a xlink:href="../../d1/dbf/classview_package_1_1_view.html#a435f11370f53ac1c632490e16db58a71" target="_top" xlink:title="viewPackage.View.getEdgeType">
<polygon fill="white" stroke="black" points="182,-5.5 182,-24.5 346,-24.5 346,-5.5 182,-5.5"/>
<text text-anchor="middle" x="264" y="-12.5" font-family="Helvetica,sans-Serif" font-size="10.00">viewPackage.View.getEdgeType</text>
</a>
</g>
</g>
<!-- Node1&#45;&gt;Node2 -->
<g id="edge1" class="edge"><title>Node1&#45;&gt;Node2</title>
<path fill="none" stroke="midnightblue" d="M156.485,-15C164.934,-15 173.514,-15 181.947,-15"/>
<polygon fill="midnightblue" stroke="midnightblue" points="156.262,-11.5001 146.262,-15 156.262,-18.5001 156.262,-11.5001"/>
</g>
<!-- Node3 -->
<g id="node3" class="node"><title>Node3</title>
<g id="a_node3"><a xlink:href="../../d9/df7/classcontroller_1_1_controller.html#a10a5ebd0f50b360715ef70e410d6a86c" target="_top" xlink:title="controller.Controller.list\lToGrid">
<polygon fill="white" stroke="black" points="382,-0 382,-30 508,-30 508,-0 382,-0"/>
<text text-anchor="start" x="390" y="-18" font-family="Helvetica,sans-Serif" font-size="10.00">controller.Controller.list</text>
<text text-anchor="middle" x="445" y="-7" font-family="Helvetica,sans-Serif" font-size="10.00">ToGrid</text>
</a>
</g>
</g>
<!-- Node2&#45;&gt;Node3 -->
<g id="edge2" class="edge"><title>Node2&#45;&gt;Node3</title>
<path fill="none" stroke="midnightblue" d="M356.295,-15C364.971,-15 373.624,-15 381.928,-15"/>
<polygon fill="midnightblue" stroke="midnightblue" points="356.12,-11.5001 346.12,-15 356.12,-18.5001 356.12,-11.5001"/>
</g>
<!-- Node4 -->
<g id="node4" class="node"><title>Node4</title>
<g id="a_node4"><a xlink:href="../../d9/df7/classcontroller_1_1_controller.html#af7cc9ab6dfe60da36d3159eea48882db" target="_top" xlink:title="controller.Controller.loadFile">
<polygon fill="white" stroke="black" points="544,-5.5 544,-24.5 692,-24.5 692,-5.5 544,-5.5"/>
<text text-anchor="middle" x="618" y="-12.5" font-family="Helvetica,sans-Serif" font-size="10.00">controller.Controller.loadFile</text>
</a>
</g>
</g>
<!-- Node3&#45;&gt;Node4 -->
<g id="edge3" class="edge"><title>Node3&#45;&gt;Node4</title>
<path fill="none" stroke="midnightblue" d="M518.37,-15C526.782,-15 535.367,-15 543.79,-15"/>
<polygon fill="midnightblue" stroke="midnightblue" points="518.219,-11.5001 508.219,-15 518.219,-18.5001 518.219,-11.5001"/>
</g>
<!-- Node5 -->
<g id="node5" class="node"><title>Node5</title>
<g id="a_node5"><a xlink:href="../../d1/dbf/classview_package_1_1_view.html#a718e5f42ae85512916198548e28477c7" target="_top" xlink:title="viewPackage.View.tryLoad">
<polygon fill="white" stroke="black" points="728,-5.5 728,-24.5 868,-24.5 868,-5.5 728,-5.5"/>
<text text-anchor="middle" x="798" y="-12.5" font-family="Helvetica,sans-Serif" font-size="10.00">viewPackage.View.tryLoad</text>
</a>
</g>
</g>
<!-- Node4&#45;&gt;Node5 -->
<g id="edge4" class="edge"><title>Node4&#45;&gt;Node5</title>
<path fill="none" stroke="midnightblue" d="M702.193,-15C710.776,-15 719.431,-15 727.838,-15"/>
<polygon fill="midnightblue" stroke="midnightblue" points="702.17,-11.5001 692.17,-15 702.17,-18.5001 702.17,-11.5001"/>
</g>
<!-- Node6 -->
<g id="node6" class="node"><title>Node6</title>
<g id="a_node6"><a xlink:href="../../dc/d2c/classview_package_1_1_button_box.html#aef53bd97c4407ecd3fb5dfbf42850a46" target="_top" xlink:title="viewPackage.ButtonBox.load\lFileBox">
<polygon fill="white" stroke="black" points="904.5,-0 904.5,-30 1057.5,-30 1057.5,-0 904.5,-0"/>
<text text-anchor="start" x="912.5" y="-18" font-family="Helvetica,sans-Serif" font-size="10.00">viewPackage.ButtonBox.load</text>
<text text-anchor="middle" x="981" y="-7" font-family="Helvetica,sans-Serif" font-size="10.00">FileBox</text>
</a>
</g>
</g>
<!-- Node5&#45;&gt;Node6 -->
<g id="edge5" class="edge"><title>Node5&#45;&gt;Node6</title>
<path fill="none" stroke="midnightblue" d="M878.241,-15C886.863,-15 895.623,-15 904.201,-15"/>
<polygon fill="midnightblue" stroke="midnightblue" points="878.203,-11.5001 868.203,-15 878.203,-18.5001 878.203,-11.5001"/>
</g>
<!-- Node7 -->
<g id="node7" class="node"><title>Node7</title>
<g id="a_node7"><a xlink:href="../../dc/d2c/classview_package_1_1_button_box.html#a9756fc46a96c169ce48a1867bd2c82f5" target="_top" xlink:title="viewPackage.ButtonBox.make\lButtonBox">
<polygon fill="white" stroke="black" points="1094,-0 1094,-30 1254,-30 1254,-0 1094,-0"/>
<text text-anchor="start" x="1102" y="-18" font-family="Helvetica,sans-Serif" font-size="10.00">viewPackage.ButtonBox.make</text>
<text text-anchor="middle" x="1174" y="-7" font-family="Helvetica,sans-Serif" font-size="10.00">ButtonBox</text>
</a>
</g>
</g>
<!-- Node6&#45;&gt;Node7 -->
<g id="edge6" class="edge"><title>Node6&#45;&gt;Node7</title>
<path fill="none" stroke="midnightblue" d="M1067.86,-15C1076.53,-15 1085.29,-15 1093.88,-15"/>
<polygon fill="midnightblue" stroke="midnightblue" points="1067.76,-11.5001 1057.76,-15 1067.76,-18.5001 1067.76,-11.5001"/>
</g>
<!-- Node8 -->
<g id="node8" class="node"><title>Node8</title>
<g id="a_node8"><a xlink:href="../../d1/dbf/classview_package_1_1_view.html#af6f6887ef253ae0fba2634e367b95312" target="_top" xlink:title="viewPackage.View.initialize">
<polygon fill="white" stroke="black" points="1290,-5.5 1290,-24.5 1432,-24.5 1432,-5.5 1290,-5.5"/>
<text text-anchor="middle" x="1361" y="-12.5" font-family="Helvetica,sans-Serif" font-size="10.00">viewPackage.View.initialize</text>
</a>
</g>
</g>
<!-- Node7&#45;&gt;Node8 -->
<g id="edge7" class="edge"><title>Node7&#45;&gt;Node8</title>
<path fill="none" stroke="midnightblue" d="M1264.33,-15C1272.93,-15 1281.57,-15 1289.95,-15"/>
<polygon fill="midnightblue" stroke="midnightblue" points="1264.26,-11.5001 1254.26,-15 1264.26,-18.5001 1264.26,-11.5001"/>
</g>
<!-- Node9 -->
<g id="node9" class="node"><title>Node9</title>
<g id="a_node9"><a xlink:href="../../d9/df7/classcontroller_1_1_controller.html#a4dbfef3e3e30bd1bb84df7a6b24ad1e7" target="_top" xlink:title="controller.Controller.Controller">
<polygon fill="white" stroke="black" points="1468.5,-5.5 1468.5,-24.5 1627.5,-24.5 1627.5,-5.5 1468.5,-5.5"/>
<text text-anchor="middle" x="1548" y="-12.5" font-family="Helvetica,sans-Serif" font-size="10.00">controller.Controller.Controller</text>
</a>
</g>
</g>
<!-- Node8&#45;&gt;Node9 -->
<g id="edge8" class="edge"><title>Node8&#45;&gt;Node9</title>
<path fill="none" stroke="midnightblue" d="M1442.31,-15C1451,-15 1459.83,-15 1468.49,-15"/>
<polygon fill="midnightblue" stroke="midnightblue" points="1442.2,-11.5001 1432.2,-15 1442.2,-18.5001 1442.2,-11.5001"/>
</g>
</g>
</svg>
