<?xml version="1.0" encoding="UTF-8" standalone="no"?>
<!DOCTYPE svg PUBLIC "-//W3C//DTD SVG 1.1//EN"
 "http://www.w3.org/Graphics/SVG/1.1/DTD/svg11.dtd">
<!-- Generated by graphviz version 2.36.0 (20140111.2315)
 -->
<!-- Title: viewPackage.RectangularGridView Pages: 1 -->
<!--zoomable 638 -->
<svg id="main" version="1.1" xmlns="http://www.w3.org/2000/svg" xmlns:xlink="http://www.w3.org/1999/xlink" xml:space="preserve" onload="init(evt)">
<style type="text/css"><![CDATA[
.edge:hover path { stroke: red; }
.edge:hover polygon { stroke: red; fill: red; }
]]></style>
<script type="text/javascript"><![CDATA[
var edges = document.getElementsByTagName('g');
if (edges && edges.length) {
  for (var i=0;i<edges.length;i++) {
    if (edges[i].id.substr(0,4)=='edge') {
      edges[i].setAttribute('class','edge');
    }
  }
}
]]></script>
        <defs>
                <circle id="rim" cx="0" cy="0" r="7"/>
                <circle id="rim2" cx="0" cy="0" r="3.5"/>
                <g id="zoomPlus">
                        <use xlink:href="#rim" fill="#404040">
                                <set attributeName="fill" to="#808080" begin="zoomplus.mouseover" end="zoomplus.mouseout"/>
                        </use>
                        <path d="M-4,0h8M0,-4v8" fill="none" stroke="white" stroke-width="1.5" pointer-events="none"/>
                </g>
                <g id="zoomMin">
                        <use xlink:href="#rim" fill="#404040">
                                <set attributeName="fill" to="#808080" begin="zoomminus.mouseover" end="zoomminus.mouseout"/>
                        </use>
                        <path d="M-4,0h8" fill="none" stroke="white" stroke-width="1.5" pointer-events="none"/>
                </g>
                <g id="dirArrow">
                        <path fill="none" stroke="white" stroke-width="1.5" d="M0,-3.0v7 M-2.5,-0.5L0,-3.0L2.5,-0.5"/>
                </g>
               <g id="resetDef">
                       <use xlink:href="#rim2" fill="#404040">
                               <set attributeName="fill" to="#808080" begin="reset.mouseover" end="reset.mouseout"/>
                       </use>
               </g>
        </defs>

<script type="text/javascript">
var viewWidth = 1088;
var viewHeight = 638;
var sectionId = 'dynsection-1';
</script>
<script xlink:href="../../svgpan.js"/>
<svg id="graph" class="graph">
<g id="viewport">
<title>viewPackage.RectangularGridView</title>
<polygon fill="white" stroke="none" points="-4,4 -4,-634 1084,-634 1084,4 -4,4"/>
<!-- Node1 -->
<g id="node1" class="node"><title>Node1</title>
<polygon fill="#bfbfbf" stroke="black" points="632.5,-473.5 632.5,-492.5 809.5,-492.5 809.5,-473.5 632.5,-473.5"/>
<text text-anchor="middle" x="721" y="-480.5" font-family="Helvetica,sans-Serif" font-size="10.00">viewPackage.RectangularGridView</text>
</g>
<!-- Node2 -->
<g id="node2" class="node"><title>Node2</title>
<g id="a_node2"><a xlink:href="../../df/dcf/classview_package_1_1_display_grid.html" target="_top" xlink:title="viewPackage.DisplayGrid">
<polygon fill="white" stroke="black" points="376,-451.5 376,-470.5 510,-470.5 510,-451.5 376,-451.5"/>
<text text-anchor="middle" x="443" y="-458.5" font-family="Helvetica,sans-Serif" font-size="10.00">viewPackage.DisplayGrid</text>
</a>
</g>
</g>
<!-- Node2&#45;&gt;Node1 -->
<g id="edge1" class="edge"><title>Node2&#45;&gt;Node1</title>
<path fill="none" stroke="midnightblue" d="M516.572,-471.782C520.434,-472.226 524.261,-472.636 528,-473 562.052,-476.312 599.616,-478.575 632.421,-480.098"/>
<polygon fill="midnightblue" stroke="midnightblue" points="516.659,-468.267 506.31,-470.537 515.815,-475.216 516.659,-468.267"/>
</g>
<!-- Node4 -->
<g id="node4" class="node"><title>Node4</title>
<g id="a_node4"><a xlink:href="../../d1/dbf/classview_package_1_1_view.html" target="_top" xlink:title="viewPackage.View">
<polygon fill="white" stroke="black" points="670.5,-366.5 670.5,-385.5 771.5,-385.5 771.5,-366.5 670.5,-366.5"/>
<text text-anchor="middle" x="721" y="-373.5" font-family="Helvetica,sans-Serif" font-size="10.00">viewPackage.View</text>
</a>
</g>
</g>
<!-- Node2&#45;&gt;Node4 -->
<g id="edge5" class="edge"><title>Node2&#45;&gt;Node4</title>
<path fill="none" stroke="#9a32cd" stroke-dasharray="5,2" d="M519.973,-457.798C549.901,-454.839 584.177,-449.297 614,-439 650.828,-426.284 688.867,-399.806 707.781,-385.561"/>
<polygon fill="#9a32cd" stroke="#9a32cd" points="519.645,-454.313 510.004,-458.705 520.28,-461.284 519.645,-454.313"/>
<text text-anchor="middle" x="571" y="-460" font-family="Helvetica,sans-Serif" font-size="10.00"> myGridDisplayed</text>
</g>
<!-- Node3 -->
<g id="node3" class="node"><title>Node3</title>
<polygon fill="white" stroke="#bfbfbf" points="230.5,-451.5 230.5,-470.5 277.5,-470.5 277.5,-451.5 230.5,-451.5"/>
<text text-anchor="middle" x="254" y="-458.5" font-family="Helvetica,sans-Serif" font-size="10.00">Shape</text>
</g>
<!-- Node3&#45;&gt;Node2 -->
<g id="edge2" class="edge"><title>Node3&#45;&gt;Node2</title>
<path fill="none" stroke="#9a32cd" stroke-dasharray="5,2" d="M287.676,-461C312.006,-461 346.045,-461 375.966,-461"/>
<polygon fill="#9a32cd" stroke="#9a32cd" points="287.557,-457.5 277.557,-461 287.557,-464.5 287.557,-457.5"/>
<text text-anchor="middle" x="334" y="-464" font-family="Helvetica,sans-Serif" font-size="10.00"> myGrid</text>
</g>
<!-- Node4&#45;&gt;Node2 -->
<g id="edge3" class="edge"><title>Node4&#45;&gt;Node2</title>
<path fill="none" stroke="#9a32cd" stroke-dasharray="5,2" d="M675.324,-388.284C656.413,-393.467 634.139,-399.552 614,-405 575.807,-415.332 565.584,-415.636 528,-428 506.716,-435.002 483,-444.478 466.21,-451.48"/>
<polygon fill="#9a32cd" stroke="#9a32cd" points="676.444,-391.606 685.162,-385.585 674.593,-384.855 676.444,-391.606"/>
<text text-anchor="middle" x="571" y="-431" font-family="Helvetica,sans-Serif" font-size="10.00"> view</text>
</g>
<!-- Node9 -->
<g id="node9" class="node"><title>Node9</title>
<g id="a_node9"><a xlink:href="../../d1/d10/classview_package_1_1_population_graph.html" target="_top" xlink:title="viewPackage.PopulationGraph">
<polygon fill="white" stroke="black" points="920.5,-510.5 920.5,-529.5 1079.5,-529.5 1079.5,-510.5 920.5,-510.5"/>
<text text-anchor="middle" x="1000" y="-517.5" font-family="Helvetica,sans-Serif" font-size="10.00">viewPackage.PopulationGraph</text>
</a>
</g>
</g>
<!-- Node4&#45;&gt;Node9 -->
<g id="edge12" class="edge"><title>Node4&#45;&gt;Node9</title>
<path fill="none" stroke="#9a32cd" stroke-dasharray="5,2" d="M739.078,-392.537C759.017,-411.094 793.661,-441.071 828,-460 870.845,-483.618 924.732,-500.681 960.439,-510.439"/>
<polygon fill="#9a32cd" stroke="#9a32cd" points="741.385,-389.902 731.713,-385.576 736.576,-394.989 741.385,-389.902"/>
<text text-anchor="middle" x="865" y="-495" font-family="Helvetica,sans-Serif" font-size="10.00"> view</text>
</g>
<!-- Node13 -->
<g id="node13" class="node"><title>Node13</title>
<g id="a_node13"><a xlink:href="../../d9/df7/classcontroller_1_1_controller.html" target="_top" xlink:title="controller.Controller">
<polygon fill="white" stroke="black" points="945,-144.5 945,-163.5 1055,-163.5 1055,-144.5 945,-144.5"/>
<text text-anchor="middle" x="1000" y="-151.5" font-family="Helvetica,sans-Serif" font-size="10.00">controller.Controller</text>
</a>
</g>
</g>
<!-- Node4&#45;&gt;Node13 -->
<g id="edge17" class="edge"><title>Node4&#45;&gt;Node13</title>
<path fill="none" stroke="#9a32cd" stroke-dasharray="5,2" d="M748.177,-361.513C769.278,-350.242 799.952,-334.759 828,-324 859.92,-311.755 874.479,-323.282 902,-303 953.683,-264.911 985.416,-190.353 995.499,-163.733"/>
<polygon fill="#9a32cd" stroke="#9a32cd" points="746.334,-358.531 739.2,-366.364 749.661,-364.69 746.334,-358.531"/>
<text text-anchor="middle" x="865" y="-327" font-family="Helvetica,sans-Serif" font-size="10.00"> myView</text>
</g>
<!-- Node22 -->
<g id="node22" class="node"><title>Node22</title>
<g id="a_node22"><a xlink:href="../../dc/d2c/classview_package_1_1_button_box.html" target="_top" xlink:title="viewPackage.ButtonBox">
<polygon fill="white" stroke="black" points="935,-298.5 935,-317.5 1065,-317.5 1065,-298.5 935,-298.5"/>
<text text-anchor="middle" x="1000" y="-305.5" font-family="Helvetica,sans-Serif" font-size="10.00">viewPackage.ButtonBox</text>
</a>
</g>
</g>
<!-- Node4&#45;&gt;Node22 -->
<g id="edge27" class="edge"><title>Node4&#45;&gt;Node22</title>
<path fill="none" stroke="#9a32cd" stroke-dasharray="5,2" d="M780.882,-364.437C816.17,-357.211 861.838,-347.338 902,-337 924.639,-331.172 949.936,-323.573 969.019,-317.615"/>
<polygon fill="#9a32cd" stroke="#9a32cd" points="779.853,-361.075 770.751,-366.497 781.248,-367.934 779.853,-361.075"/>
<text text-anchor="middle" x="865" y="-358" font-family="Helvetica,sans-Serif" font-size="10.00"> view</text>
</g>
<!-- Node5 -->
<g id="node5" class="node"><title>Node5</title>
<polygon fill="white" stroke="#bfbfbf" points="420.5,-387.5 420.5,-406.5 465.5,-406.5 465.5,-387.5 420.5,-387.5"/>
<text text-anchor="middle" x="443" y="-394.5" font-family="Helvetica,sans-Serif" font-size="10.00">Stage</text>
</g>
<!-- Node5&#45;&gt;Node4 -->
<g id="edge4" class="edge"><title>Node5&#45;&gt;Node4</title>
<path fill="none" stroke="#9a32cd" stroke-dasharray="5,2" d="M475.708,-394.587C523.401,-390.959 614.01,-384.064 670.468,-379.769"/>
<polygon fill="#9a32cd" stroke="#9a32cd" points="475.363,-391.103 465.657,-395.352 475.894,-398.083 475.363,-391.103"/>
<text text-anchor="middle" x="571" y="-394" font-family="Helvetica,sans-Serif" font-size="10.00"> additionalStage</text>
</g>
<!-- Node6 -->
<g id="node6" class="node"><title>Node6</title>
<g id="a_node6"><a xlink:href="../../df/d81/classview_package_1_1_toggle_box.html" target="_top" xlink:title="viewPackage.ToggleBox">
<polygon fill="white" stroke="black" points="379,-349.5 379,-368.5 507,-368.5 507,-349.5 379,-349.5"/>
<text text-anchor="middle" x="443" y="-356.5" font-family="Helvetica,sans-Serif" font-size="10.00">viewPackage.ToggleBox</text>
</a>
</g>
</g>
<!-- Node6&#45;&gt;Node4 -->
<g id="edge6" class="edge"><title>Node6&#45;&gt;Node4</title>
<path fill="none" stroke="#9a32cd" stroke-dasharray="5,2" d="M517.445,-357.128C547.427,-356.963 582.414,-357.536 614,-360 632.462,-361.44 652.586,-364.178 670.29,-366.987"/>
<polygon fill="#9a32cd" stroke="#9a32cd" points="517.032,-353.631 507.062,-357.215 517.091,-360.631 517.032,-353.631"/>
<text text-anchor="middle" x="571" y="-363" font-family="Helvetica,sans-Serif" font-size="10.00"> toggles</text>
</g>
<!-- Node7 -->
<g id="node7" class="node"><title>Node7</title>
<polygon fill="white" stroke="#bfbfbf" points="216,-349.5 216,-368.5 292,-368.5 292,-349.5 216,-349.5"/>
<text text-anchor="middle" x="254" y="-356.5" font-family="Helvetica,sans-Serif" font-size="10.00">ToggleGroup</text>
</g>
<!-- Node7&#45;&gt;Node6 -->
<g id="edge7" class="edge"><title>Node7&#45;&gt;Node6</title>
<path fill="none" stroke="#9a32cd" stroke-dasharray="5,2" d="M302.655,-359C325.82,-359 353.973,-359 378.894,-359"/>
<polygon fill="#9a32cd" stroke="#9a32cd" points="302.393,-355.5 292.393,-359 302.393,-362.5 302.393,-355.5"/>
<text text-anchor="middle" x="334" y="-384" font-family="Helvetica,sans-Serif" font-size="10.00"> outline</text>
<text text-anchor="middle" x="334" y="-373" font-family="Helvetica,sans-Serif" font-size="10.00">edgeType</text>
<text text-anchor="middle" x="334" y="-362" font-family="Helvetica,sans-Serif" font-size="10.00">cellShape</text>
</g>
<!-- Node8 -->
<g id="node8" class="node"><title>Node8</title>
<polygon fill="white" stroke="#bfbfbf" points="396.5,-248.5 396.5,-267.5 489.5,-267.5 489.5,-248.5 396.5,-248.5"/>
<text text-anchor="middle" x="443" y="-255.5" font-family="Helvetica,sans-Serif" font-size="10.00">ResourceBundle</text>
</g>
<!-- Node8&#45;&gt;Node4 -->
<g id="edge8" class="edge"><title>Node8&#45;&gt;Node4</title>
<path fill="none" stroke="#9a32cd" stroke-dasharray="5,2" d="M488.828,-270.373C523.652,-280.614 572.791,-296.456 614,-315 648.078,-330.335 685.4,-353.416 705.399,-366.345"/>
<polygon fill="#9a32cd" stroke="#9a32cd" points="489.535,-266.934 478.956,-267.507 487.583,-273.656 489.535,-266.934"/>
<text text-anchor="middle" x="571" y="-318" font-family="Helvetica,sans-Serif" font-size="10.00"> myResources</text>
</g>
<!-- Node8&#45;&gt;Node13 -->
<g id="edge16" class="edge"><title>Node8&#45;&gt;Node13</title>
<path fill="none" stroke="#9a32cd" stroke-dasharray="5,2" d="M462.492,-241.92C494.434,-215.334 563.158,-163.242 632,-144 744.644,-112.516 884.366,-131.305 954.471,-144.473"/>
<polygon fill="#9a32cd" stroke="#9a32cd" points="460.212,-239.265 454.837,-248.395 464.732,-244.609 460.212,-239.265"/>
<text text-anchor="middle" x="721" y="-147" font-family="Helvetica,sans-Serif" font-size="10.00"> myResources</text>
</g>
<!-- Node8&#45;&gt;Node22 -->
<g id="edge26" class="edge"><title>Node8&#45;&gt;Node22</title>
<path fill="none" stroke="#9a32cd" stroke-dasharray="5,2" d="M499.891,-253.941C586.82,-248.914 759.265,-244.11 902,-272 929.678,-277.408 959.89,-289.723 979.118,-298.439"/>
<polygon fill="#9a32cd" stroke="#9a32cd" points="499.494,-250.458 489.722,-254.552 499.914,-257.445 499.494,-250.458"/>
<text text-anchor="middle" x="721" y="-262" font-family="Helvetica,sans-Serif" font-size="10.00"> myResources</text>
</g>
<!-- Node9&#45;&gt;Node4 -->
<g id="edge9" class="edge"><title>Node9&#45;&gt;Node4</title>
<path fill="none" stroke="#9a32cd" stroke-dasharray="5,2" d="M979.839,-503.76C960.934,-488.287 930.769,-465.038 902,-449 851.633,-420.921 788.24,-397.783 751.696,-385.513"/>
<polygon fill="#9a32cd" stroke="#9a32cd" points="977.755,-506.579 987.687,-510.268 982.223,-501.191 977.755,-506.579"/>
<text text-anchor="middle" x="865" y="-452" font-family="Helvetica,sans-Serif" font-size="10.00"> myGraph</text>
</g>
<!-- Node10 -->
<g id="node10" class="node"><title>Node10</title>
<polygon fill="white" stroke="#bfbfbf" points="654,-599 654,-629 788,-629 788,-599 654,-599"/>
<text text-anchor="start" x="662" y="-617" font-family="Helvetica,sans-Serif" font-size="10.00">List&lt; XYChart.Series</text>
<text text-anchor="middle" x="721" y="-606" font-family="Helvetica,sans-Serif" font-size="10.00">&lt; Number, Number &gt; &gt;</text>
</g>
<!-- Node10&#45;&gt;Node9 -->
<g id="edge10" class="edge"><title>Node10&#45;&gt;Node9</title>
<path fill="none" stroke="#9a32cd" stroke-dasharray="5,2" d="M798.02,-599.595C830.572,-592.362 868.685,-582.458 902,-570 931.99,-558.785 964.657,-540.587 983.397,-529.513"/>
<polygon fill="#9a32cd" stroke="#9a32cd" points="797.133,-596.206 788.107,-601.753 798.623,-603.045 797.133,-596.206"/>
<text text-anchor="middle" x="865" y="-596" font-family="Helvetica,sans-Serif" font-size="10.00"> listOfSpecies</text>
</g>
<!-- Node11 -->
<g id="node11" class="node"><title>Node11</title>
<polygon fill="white" stroke="#bfbfbf" points="663,-550 663,-580 779,-580 779,-550 663,-550"/>
<text text-anchor="start" x="671" y="-568" font-family="Helvetica,sans-Serif" font-size="10.00">LineChart&lt; Number,</text>
<text text-anchor="middle" x="721" y="-557" font-family="Helvetica,sans-Serif" font-size="10.00"> Number &gt;</text>
</g>
<!-- Node11&#45;&gt;Node9 -->
<g id="edge11" class="edge"><title>Node11&#45;&gt;Node9</title>
<path fill="none" stroke="#9a32cd" stroke-dasharray="5,2" d="M789.646,-558.532C823.515,-554.838 865.069,-549.614 902,-543 922.273,-539.369 944.658,-534.144 962.811,-529.591"/>
<polygon fill="#9a32cd" stroke="#9a32cd" points="788.965,-555.085 779.395,-559.63 789.71,-562.045 788.965,-555.085"/>
<text text-anchor="middle" x="865" y="-558" font-family="Helvetica,sans-Serif" font-size="10.00"> lineChart</text>
</g>
<!-- Node12 -->
<g id="node12" class="node"><title>Node12</title>
<polygon fill="white" stroke="#bfbfbf" points="683.5,-511.5 683.5,-530.5 758.5,-530.5 758.5,-511.5 683.5,-511.5"/>
<text text-anchor="middle" x="721" y="-518.5" font-family="Helvetica,sans-Serif" font-size="10.00">NumberAxis</text>
</g>
<!-- Node12&#45;&gt;Node9 -->
<g id="edge13" class="edge"><title>Node12&#45;&gt;Node9</title>
<path fill="none" stroke="#9a32cd" stroke-dasharray="5,2" d="M768.855,-520.831C810.224,-520.682 871.384,-520.461 920.259,-520.284"/>
<polygon fill="#9a32cd" stroke="#9a32cd" points="768.771,-517.331 758.783,-520.867 768.796,-524.331 768.771,-517.331"/>
<text text-anchor="middle" x="865" y="-535" font-family="Helvetica,sans-Serif" font-size="10.00"> xAxis</text>
<text text-anchor="middle" x="865" y="-524" font-family="Helvetica,sans-Serif" font-size="10.00">yAxis</text>
</g>
<!-- Node13&#45;&gt;Node4 -->
<g id="edge14" class="edge"><title>Node13&#45;&gt;Node4</title>
<path fill="none" stroke="#9a32cd" stroke-dasharray="5,2" d="M983.586,-171.2C965.286,-191.06 933.29,-224.062 902,-248 871.61,-271.25 859.509,-270.291 828,-292 791.842,-316.911 751.949,-350.25 733.07,-366.412"/>
<polygon fill="#9a32cd" stroke="#9a32cd" points="986.401,-173.307 990.549,-163.558 981.227,-168.593 986.401,-173.307"/>
<text text-anchor="middle" x="865" y="-295" font-family="Helvetica,sans-Serif" font-size="10.00"> control</text>
</g>
<!-- Node14 -->
<g id="node14" class="node"><title>Node14</title>
<polygon fill="white" stroke="#bfbfbf" points="693,-164.5 693,-183.5 749,-183.5 749,-164.5 693,-164.5"/>
<text text-anchor="middle" x="721" y="-171.5" font-family="Helvetica,sans-Serif" font-size="10.00">Timeline</text>
</g>
<!-- Node14&#45;&gt;Node13 -->
<g id="edge15" class="edge"><title>Node14&#45;&gt;Node13</title>
<path fill="none" stroke="#9a32cd" stroke-dasharray="5,2" d="M759.26,-171.31C806.99,-167.864 890.073,-161.865 944.805,-157.913"/>
<polygon fill="#9a32cd" stroke="#9a32cd" points="758.786,-167.835 749.064,-172.046 759.29,-174.817 758.786,-167.835"/>
<text text-anchor="middle" x="865" y="-169" font-family="Helvetica,sans-Serif" font-size="10.00"> myTimeline</text>
</g>
<!-- Node15 -->
<g id="node15" class="node"><title>Node15</title>
<g id="a_node15"><a xlink:href="../../d2/d17/classmodel_1_1_simulation.html" target="_top" xlink:title="model.Simulation">
<polygon fill="white" stroke="black" points="670.5,-41.5 670.5,-60.5 771.5,-60.5 771.5,-41.5 670.5,-41.5"/>
<text text-anchor="middle" x="721" y="-48.5" font-family="Helvetica,sans-Serif" font-size="10.00">model.Simulation</text>
</a>
</g>
</g>
<!-- Node15&#45;&gt;Node13 -->
<g id="edge18" class="edge"><title>Node15&#45;&gt;Node13</title>
<path fill="none" stroke="#9a32cd" stroke-dasharray="5,2" d="M781.879,-53.803C817.895,-57.2143 863.972,-64.6907 902,-81 938.222,-96.5348 973.284,-128.326 989.553,-144.335"/>
<polygon fill="#9a32cd" stroke="#9a32cd" points="781.79,-50.2823 771.526,-52.9071 781.187,-57.2562 781.79,-50.2823"/>
<text text-anchor="middle" x="865" y="-84" font-family="Helvetica,sans-Serif" font-size="10.00"> rules</text>
</g>
<!-- Node16 -->
<g id="node16" class="node"><title>Node16</title>
<g id="a_node16"><a xlink:href="../../dc/d8f/classmodel_1_1_grid.html" target="_top" xlink:title="model.Grid">
<polygon fill="white" stroke="black" points="408.5,-19.5 408.5,-38.5 477.5,-38.5 477.5,-19.5 408.5,-19.5"/>
<text text-anchor="middle" x="443" y="-26.5" font-family="Helvetica,sans-Serif" font-size="10.00">model.Grid</text>
</a>
</g>
</g>
<!-- Node16&#45;&gt;Node15 -->
<g id="edge19" class="edge"><title>Node16&#45;&gt;Node15</title>
<path fill="none" stroke="#9a32cd" stroke-dasharray="5,2" d="M487.829,-26.9833C522.232,-25.9488 571.288,-25.6829 614,-30 636.398,-32.2639 661.089,-37.0196 681.002,-41.4337"/>
<polygon fill="#9a32cd" stroke="#9a32cd" points="487.523,-23.4915 477.646,-27.3249 487.758,-30.4876 487.523,-23.4915"/>
<text text-anchor="middle" x="571" y="-44" font-family="Helvetica,sans-Serif" font-size="10.00"> currentGrid</text>
<text text-anchor="middle" x="571" y="-33" font-family="Helvetica,sans-Serif" font-size="10.00">nextGrid</text>
</g>
<!-- Node17 -->
<g id="node17" class="node"><title>Node17</title>
<g id="a_node17"><a xlink:href="../../d3/d57/classmodel_1_1_cell.html" target="_top" xlink:title="model.Cell">
<polygon fill="white" stroke="black" points="220.5,-19.5 220.5,-38.5 287.5,-38.5 287.5,-19.5 220.5,-19.5"/>
<text text-anchor="middle" x="254" y="-26.5" font-family="Helvetica,sans-Serif" font-size="10.00">model.Cell</text>
</a>
</g>
</g>
<!-- Node17&#45;&gt;Node16 -->
<g id="edge20" class="edge"><title>Node17&#45;&gt;Node16</title>
<path fill="none" stroke="#9a32cd" stroke-dasharray="5,2" d="M297.979,-29C331.473,-29 377.329,-29 408.224,-29"/>
<polygon fill="#9a32cd" stroke="#9a32cd" points="297.573,-25.5001 287.573,-29 297.573,-32.5001 297.573,-25.5001"/>
<text text-anchor="middle" x="334" y="-32" font-family="Helvetica,sans-Serif" font-size="10.00"> myCells</text>
</g>
<!-- Node18 -->
<g id="node18" class="node"><title>Node18</title>
<polygon fill="white" stroke="#bfbfbf" points="0,-38.5 0,-57.5 128,-57.5 128,-38.5 0,-38.5"/>
<text text-anchor="middle" x="64" y="-45.5" font-family="Helvetica,sans-Serif" font-size="10.00">Map&lt; String, Integer &gt;</text>
</g>
<!-- Node18&#45;&gt;Node17 -->
<g id="edge21" class="edge"><title>Node18&#45;&gt;Node17</title>
<path fill="none" stroke="#9a32cd" stroke-dasharray="5,2" d="M138.434,-40.5784C166.797,-37.712 197.787,-34.5801 220.375,-32.2972"/>
<polygon fill="#9a32cd" stroke="#9a32cd" points="137.722,-37.1326 128.124,-41.6204 138.426,-44.0971 137.722,-37.1326"/>
<text text-anchor="middle" x="172" y="-43" font-family="Helvetica,sans-Serif" font-size="10.00"> properties</text>
</g>
<!-- Node19 -->
<g id="node19" class="node"><title>Node19</title>
<g id="a_node19"><a xlink:href="../../d0/d76/enummodel_1_1_cell_state.html" target="_top" xlink:title="model.CellState">
<polygon fill="white" stroke="black" points="17.5,-0.5 17.5,-19.5 110.5,-19.5 110.5,-0.5 17.5,-0.5"/>
<text text-anchor="middle" x="64" y="-7.5" font-family="Helvetica,sans-Serif" font-size="10.00">model.CellState</text>
</a>
</g>
</g>
<!-- Node19&#45;&gt;Node17 -->
<g id="edge22" class="edge"><title>Node19&#45;&gt;Node17</title>
<path fill="none" stroke="#9a32cd" stroke-dasharray="5,2" d="M120.913,-13.1171C144.719,-14.7254 172.764,-16.9923 198,-20 205.302,-20.8702 213.116,-22.017 220.494,-23.1994"/>
<polygon fill="#9a32cd" stroke="#9a32cd" points="120.853,-9.60574 110.646,-12.446 120.396,-16.5908 120.853,-9.60574"/>
<text text-anchor="middle" x="172" y="-23" font-family="Helvetica,sans-Serif" font-size="10.00"> state</text>
</g>
<!-- Node20 -->
<g id="node20" class="node"><title>Node20</title>
<polygon fill="white" stroke="#bfbfbf" points="415,-64.5 415,-83.5 471,-83.5 471,-64.5 415,-64.5"/>
<text text-anchor="middle" x="443" y="-71.5" font-family="Helvetica,sans-Serif" font-size="10.00">Random</text>
</g>
<!-- Node20&#45;&gt;Node15 -->
<g id="edge23" class="edge"><title>Node20&#45;&gt;Node15</title>
<path fill="none" stroke="#9a32cd" stroke-dasharray="5,2" d="M481.352,-70.8873C530.214,-66.8155 615.978,-59.6685 670.291,-55.1425"/>
<polygon fill="#9a32cd" stroke="#9a32cd" points="480.894,-67.4133 471.219,-71.7317 481.475,-74.3891 480.894,-67.4133"/>
<text text-anchor="middle" x="571" y="-70" font-family="Helvetica,sans-Serif" font-size="10.00"> myGenerator</text>
</g>
<!-- Node21 -->
<g id="node21" class="node"><title>Node21</title>
<polygon fill="white" stroke="#bfbfbf" points="660,-79.5 660,-98.5 782,-98.5 782,-79.5 660,-79.5"/>
<text text-anchor="middle" x="721" y="-86.5" font-family="Helvetica,sans-Serif" font-size="10.00">Map&lt; String, String &gt;</text>
</g>
<!-- Node21&#45;&gt;Node13 -->
<g id="edge24" class="edge"><title>Node21&#45;&gt;Node13</title>
<path fill="none" stroke="#9a32cd" stroke-dasharray="5,2" d="M792.285,-92.1417C825.952,-94.9213 866.561,-100.154 902,-110 931.398,-118.168 963.196,-134.085 982.088,-144.37"/>
<polygon fill="#9a32cd" stroke="#9a32cd" points="792.312,-88.6335 782.073,-91.3554 791.775,-95.6128 792.312,-88.6335"/>
<text text-anchor="middle" x="865" y="-113" font-family="Helvetica,sans-Serif" font-size="10.00"> stateColorMap</text>
</g>
<!-- Node22&#45;&gt;Node4 -->
<g id="edge25" class="edge"><title>Node22&#45;&gt;Node4</title>
<path fill="none" stroke="#9a32cd" stroke-dasharray="5,2" d="M980.6,-324.445C962.189,-339.745 932.316,-361.559 902,-371 859.466,-384.245 808.512,-384.294 771.69,-381.734"/>
<polygon fill="#9a32cd" stroke="#9a32cd" points="983.347,-326.701 988.669,-317.54 978.795,-321.383 983.347,-326.701"/>
<text text-anchor="middle" x="865" y="-386" font-family="Helvetica,sans-Serif" font-size="10.00"> buttons</text>
</g>
<!-- Node23 -->
<g id="node23" class="node"><title>Node23</title>
<polygon fill="white" stroke="#bfbfbf" points="703.5,-202.5 703.5,-221.5 738.5,-221.5 738.5,-202.5 703.5,-202.5"/>
<text text-anchor="middle" x="721" y="-209.5" font-family="Helvetica,sans-Serif" font-size="10.00">Text</text>
</g>
<!-- Node23&#45;&gt;Node22 -->
<g id="edge28" class="edge"><title>Node23&#45;&gt;Node22</title>
<path fill="none" stroke="#9a32cd" stroke-dasharray="5,2" d="M748.842,-210.743C785.016,-210.012 850.78,-212.116 902,-233 939.255,-248.19 974.371,-281.831 990.201,-298.399"/>
<polygon fill="#9a32cd" stroke="#9a32cd" points="748.507,-207.251 738.614,-211.044 748.713,-214.248 748.507,-207.251"/>
<text text-anchor="middle" x="865" y="-236" font-family="Helvetica,sans-Serif" font-size="10.00"> speedText</text>
</g>
<!-- Node24 -->
<g id="node24" class="node"><title>Node24</title>
<polygon fill="white" stroke="#bfbfbf" points="420,-311.5 420,-330.5 466,-330.5 466,-311.5 420,-311.5"/>
<text text-anchor="middle" x="443" y="-318.5" font-family="Helvetica,sans-Serif" font-size="10.00">Group</text>
</g>
<!-- Node24&#45;&gt;Node4 -->
<g id="edge29" class="edge"><title>Node24&#45;&gt;Node4</title>
<path fill="none" stroke="#9a32cd" stroke-dasharray="5,2" d="M476.61,-323.531C511.046,-326.596 566.779,-332.676 614,-343 641.679,-349.052 672.521,-359.034 693.768,-366.438"/>
<polygon fill="#9a32cd" stroke="#9a32cd" points="476.478,-320.007 466.216,-322.64 475.88,-326.982 476.478,-320.007"/>
<text text-anchor="middle" x="571" y="-346" font-family="Helvetica,sans-Serif" font-size="10.00"> root</text>
</g>
</g>
</svg>
        <g id="navigator" transform="translate(0 0)" fill="#404254">
                <rect fill="#f2f5e9" fill-opacity="0.5" stroke="#606060" stroke-width=".5" x="0" y="0" width="60" height="60"/>
                <use id="zoomplus" xlink:href="#zoomPlus" x="17" y="9" onmousedown="handleZoom(evt,'in')"/>
                <use id="zoomminus" xlink:href="#zoomMin" x="42" y="9" onmousedown="handleZoom(evt,'out')"/>
                <use id="reset" xlink:href="#resetDef" x="30" y="36" onmousedown="handleReset()"/>
                <g id="arrowUp" xlink:href="#dirArrow" transform="translate(30 24)" onmousedown="handlePan(0,-1)">
                  <use xlink:href="#rim" fill="#404040">
                        <set attributeName="fill" to="#808080" begin="arrowUp.mouseover" end="arrowUp.mouseout"/>
                  </use>
                  <path fill="none" stroke="white" stroke-width="1.5" d="M0,-3.0v7 M-2.5,-0.5L0,-3.0L2.5,-0.5"/>
                </g>
                <g id="arrowRight" xlink:href="#dirArrow" transform="rotate(90) translate(36 -43)" onmousedown="handlePan(1,0)">
                  <use xlink:href="#rim" fill="#404040">
                        <set attributeName="fill" to="#808080" begin="arrowRight.mouseover" end="arrowRight.mouseout"/>
                  </use>
                  <path fill="none" stroke="white" stroke-width="1.5" d="M0,-3.0v7 M-2.5,-0.5L0,-3.0L2.5,-0.5"/>
                </g>
                <g id="arrowDown" xlink:href="#dirArrow" transform="rotate(180) translate(-30 -48)" onmousedown="handlePan(0,1)">
                  <use xlink:href="#rim" fill="#404040">
                        <set attributeName="fill" to="#808080" begin="arrowDown.mouseover" end="arrowDown.mouseout"/>
                  </use>
                  <path fill="none" stroke="white" stroke-width="1.5" d="M0,-3.0v7 M-2.5,-0.5L0,-3.0L2.5,-0.5"/>
                </g>
                <g id="arrowLeft" xlink:href="#dirArrow" transform="rotate(270) translate(-36 17)" onmousedown="handlePan(-1,0)">
                  <use xlink:href="#rim" fill="#404040">
                        <set attributeName="fill" to="#808080" begin="arrowLeft.mouseover" end="arrowLeft.mouseout"/>
                  </use>
                  <path fill="none" stroke="white" stroke-width="1.5" d="M0,-3.0v7 M-2.5,-0.5L0,-3.0L2.5,-0.5"/>
                </g>
        </g>
        <svg viewBox="0 0 15 15" width="100%" height="30px" preserveAspectRatio="xMaxYMin meet">
         <g id="arrow_out" transform="scale(0.3 0.3)">
          <a xlink:href="classview_package_1_1_rectangular_grid_view__coll__graph_org.svg" target="_base">
           <rect id="button" ry="5" rx="5" y="6" x="6" height="38" width="38"
                fill="#f2f5e9" fill-opacity="0.5" stroke="#606060" stroke-width="1.0"/>
           <path id="arrow"
             d="M 11.500037,31.436501 C 11.940474,20.09759 22.043105,11.32322 32.158766,21.979434 L 37.068811,17.246167 C 37.068811,17.246167 37.088388,32 37.088388,32 L 22.160133,31.978069 C 22.160133,31.978069 26.997745,27.140456 26.997745,27.140456 C 18.528582,18.264221 13.291696,25.230495 11.500037,31.436501 z"
             style="fill:#404040;"/>
          </a>
         </g>
        </svg>
</svg>
