<?xml version="1.0" encoding="UTF-8" standalone="no"?>
<!DOCTYPE svg PUBLIC "-//W3C//DTD SVG 1.1//EN"
 "http://www.w3.org/Graphics/SVG/1.1/DTD/svg11.dtd">
<!-- Generated by graphviz version 2.36.0 (20140111.2315)
 -->
<!-- Title: model.Cell.getProperties Pages: 1 -->
<svg width="1176pt" height="281pt"
 viewBox="0.00 0.00 1176.00 281.33" xmlns="http://www.w3.org/2000/svg" xmlns:xlink="http://www.w3.org/1999/xlink">
<g id="graph0" class="graph" transform="scale(1 1) rotate(0) translate(4 277.334)">
<title>model.Cell.getProperties</title>
<polygon fill="white" stroke="none" points="-4,4 -4,-277.334 1172,-277.334 1172,4 -4,4"/>
<!-- Node1 -->
<g id="node1" class="node"><title>Node1</title>
<polygon fill="#bfbfbf" stroke="black" points="0,-133.362 0,-152.362 134,-152.362 134,-133.362 0,-133.362"/>
<text text-anchor="middle" x="67" y="-140.362" font-family="Helvetica,sans-Serif" font-size="10.00">model.Cell.getProperties</text>
</g>
<!-- Node2 -->
<g id="node2" class="node"><title>Node2</title>
<g id="a_node2"><a xlink:href="../../db/ddc/classmodel_1_1_wator_simulation.html#a0d64d1242b4717fd5b8914b98ed36c95" target="_top" xlink:title="model.WatorSimulation.decrease\lEnergy">
<polygon fill="white" stroke="black" points="604.5,-240.862 604.5,-270.862 779.5,-270.862 779.5,-240.862 604.5,-240.862"/>
<text text-anchor="start" x="612.5" y="-258.862" font-family="Helvetica,sans-Serif" font-size="10.00">model.WatorSimulation.decrease</text>
<text text-anchor="middle" x="692" y="-247.862" font-family="Helvetica,sans-Serif" font-size="10.00">Energy</text>
</a>
</g>
</g>
<!-- Node1&#45;&gt;Node2 -->
<g id="edge1" class="edge"><title>Node1&#45;&gt;Node2</title>
<path fill="none" stroke="midnightblue" d="M82.9123,-160.311C101.149,-180.247 134.058,-211.91 170,-225.862 314.216,-281.846 497.832,-276.495 604.13,-266.722"/>
<polygon fill="midnightblue" stroke="midnightblue" points="85.2896,-157.717 76.0286,-152.571 80.0589,-162.369 85.2896,-157.717"/>
</g>
<!-- Node3 -->
<g id="node3" class="node"><title>Node3</title>
<g id="a_node3"><a xlink:href="../../db/ddc/classmodel_1_1_wator_simulation.html#a2205211b8ee8357a4687fce7bb25123a" target="_top" xlink:title="model.WatorSimulation.shark\lAction">
<polygon fill="white" stroke="black" points="816.5,-147.862 816.5,-177.862 973.5,-177.862 973.5,-147.862 816.5,-147.862"/>
<text text-anchor="start" x="824.5" y="-165.862" font-family="Helvetica,sans-Serif" font-size="10.00">model.WatorSimulation.shark</text>
<text text-anchor="middle" x="895" y="-154.862" font-family="Helvetica,sans-Serif" font-size="10.00">Action</text>
</a>
</g>
</g>
<!-- Node1&#45;&gt;Node3 -->
<g id="edge18" class="edge"><title>Node1&#45;&gt;Node3</title>
<path fill="none" stroke="midnightblue" d="M91.1182,-157.692C111.102,-169.576 141.227,-185.309 170,-191.862 404.117,-245.18 691.608,-202.868 822.729,-177.889"/>
<polygon fill="midnightblue" stroke="midnightblue" points="92.7909,-154.613 82.4323,-152.387 89.1422,-160.587 92.7909,-154.613"/>
</g>
<!-- Node5 -->
<g id="node5" class="node"><title>Node5</title>
<g id="a_node5"><a xlink:href="../../db/ddc/classmodel_1_1_wator_simulation.html#a1d9c45bb58d3edd46f9cba1d3b479d82" target="_top" xlink:title="model.WatorSimulation.fish\lAction">
<polygon fill="white" stroke="black" points="821.5,-78.8622 821.5,-108.862 968.5,-108.862 968.5,-78.8622 821.5,-78.8622"/>
<text text-anchor="start" x="829.5" y="-96.8622" font-family="Helvetica,sans-Serif" font-size="10.00">model.WatorSimulation.fish</text>
<text text-anchor="middle" x="895" y="-85.8622" font-family="Helvetica,sans-Serif" font-size="10.00">Action</text>
</a>
</g>
</g>
<!-- Node1&#45;&gt;Node5 -->
<g id="edge4" class="edge"><title>Node1&#45;&gt;Node5</title>
<path fill="none" stroke="midnightblue" d="M91.1182,-128.032C111.102,-116.148 141.227,-100.415 170,-93.8622 403.164,-40.7619 689.63,-66.5861 821.399,-83.354"/>
<polygon fill="midnightblue" stroke="midnightblue" points="89.1422,-125.138 82.4323,-133.337 92.7909,-131.112 89.1422,-125.138"/>
</g>
<!-- Node6 -->
<g id="node6" class="node"><title>Node6</title>
<g id="a_node6"><a xlink:href="../../db/ddc/classmodel_1_1_wator_simulation.html#ad7ba22a6c88c4944182c8a5ba53366fb" target="_top" xlink:title="model.WatorSimulation.increase\lBreedingTime">
<polygon fill="white" stroke="black" points="170.5,-103.862 170.5,-133.862 341.5,-133.862 341.5,-103.862 170.5,-103.862"/>
<text text-anchor="start" x="178.5" y="-121.862" font-family="Helvetica,sans-Serif" font-size="10.00">model.WatorSimulation.increase</text>
<text text-anchor="middle" x="256" y="-110.862" font-family="Helvetica,sans-Serif" font-size="10.00">BreedingTime</text>
</a>
</g>
</g>
<!-- Node1&#45;&gt;Node6 -->
<g id="edge6" class="edge"><title>Node1&#45;&gt;Node6</title>
<path fill="none" stroke="midnightblue" d="M144.162,-133.087C152.749,-131.985 161.538,-130.857 170.226,-129.742"/>
<polygon fill="midnightblue" stroke="midnightblue" points="143.665,-129.622 134.192,-134.367 144.557,-136.565 143.665,-129.622"/>
</g>
<!-- Node9 -->
<g id="node9" class="node"><title>Node9</title>
<g id="a_node9"><a xlink:href="../../dc/d8f/classmodel_1_1_grid.html#a2a1dabe5f40f45e1018d5fce56ae29bc" target="_top" xlink:title="model.Grid.print">
<polygon fill="white" stroke="black" points="209,-21.3622 209,-40.3622 303,-40.3622 303,-21.3622 209,-21.3622"/>
<text text-anchor="middle" x="256" y="-28.3622" font-family="Helvetica,sans-Serif" font-size="10.00">model.Grid.print</text>
</a>
</g>
</g>
<!-- Node1&#45;&gt;Node9 -->
<g id="edge13" class="edge"><title>Node1&#45;&gt;Node9</title>
<path fill="none" stroke="midnightblue" d="M84.9562,-126.184C104.193,-108.027 137.174,-79.1468 170,-60.8622 185.449,-52.2572 203.82,-45.4036 219.525,-40.4318"/>
<polygon fill="midnightblue" stroke="midnightblue" points="82.3874,-123.798 77.5938,-133.246 87.2332,-128.849 82.3874,-123.798"/>
</g>
<!-- Node11 -->
<g id="node11" class="node"><title>Node11</title>
<g id="a_node11"><a xlink:href="../../db/ddc/classmodel_1_1_wator_simulation.html#a5584ef42fda846a39a016ff060fd2322" target="_top" xlink:title="model.WatorSimulation.reset\lBreedTime">
<polygon fill="white" stroke="black" points="178.5,-152.862 178.5,-182.862 333.5,-182.862 333.5,-152.862 178.5,-152.862"/>
<text text-anchor="start" x="186.5" y="-170.862" font-family="Helvetica,sans-Serif" font-size="10.00">model.WatorSimulation.reset</text>
<text text-anchor="middle" x="256" y="-159.862" font-family="Helvetica,sans-Serif" font-size="10.00">BreedTime</text>
</a>
</g>
</g>
<!-- Node1&#45;&gt;Node11 -->
<g id="edge16" class="edge"><title>Node1&#45;&gt;Node11</title>
<path fill="none" stroke="midnightblue" d="M144.374,-153.073C155.585,-154.571 167.137,-156.116 178.354,-157.615"/>
<polygon fill="midnightblue" stroke="midnightblue" points="144.568,-149.568 134.192,-151.711 143.64,-156.506 144.568,-149.568"/>
</g>
<!-- Node2&#45;&gt;Node3 -->
<g id="edge2" class="edge"><title>Node2&#45;&gt;Node3</title>
<path fill="none" stroke="midnightblue" d="M751.105,-237.393C760.864,-233.846 770.803,-229.952 780,-225.862 812.026,-211.62 847.062,-191.529 869.722,-177.892"/>
<polygon fill="midnightblue" stroke="midnightblue" points="749.696,-234.179 741.44,-240.818 752.034,-240.777 749.696,-234.179"/>
</g>
<!-- Node4 -->
<g id="node4" class="node"><title>Node4</title>
<g id="a_node4"><a xlink:href="../../db/ddc/classmodel_1_1_wator_simulation.html#a71ffa6547eb00615e94ba1d708a08281" target="_top" xlink:title="model.WatorSimulation.make\lNextGrid">
<polygon fill="white" stroke="black" points="1010,-78.8622 1010,-108.862 1168,-108.862 1168,-78.8622 1010,-78.8622"/>
<text text-anchor="start" x="1018" y="-96.8622" font-family="Helvetica,sans-Serif" font-size="10.00">model.WatorSimulation.make</text>
<text text-anchor="middle" x="1089" y="-85.8622" font-family="Helvetica,sans-Serif" font-size="10.00">NextGrid</text>
</a>
</g>
</g>
<!-- Node3&#45;&gt;Node4 -->
<g id="edge3" class="edge"><title>Node3&#45;&gt;Node4</title>
<path fill="none" stroke="midnightblue" d="M947.83,-144.236C978.595,-133.18 1017.1,-119.342 1045.96,-108.969"/>
<polygon fill="midnightblue" stroke="midnightblue" points="946.362,-141.044 938.135,-147.72 948.73,-147.632 946.362,-141.044"/>
</g>
<!-- Node5&#45;&gt;Node4 -->
<g id="edge5" class="edge"><title>Node5&#45;&gt;Node4</title>
<path fill="none" stroke="midnightblue" d="M978.807,-93.8622C989.114,-93.8622 999.628,-93.8622 1009.86,-93.8622"/>
<polygon fill="midnightblue" stroke="midnightblue" points="978.587,-90.3623 968.587,-93.8622 978.587,-97.3623 978.587,-90.3623"/>
</g>
<!-- Node7 -->
<g id="node7" class="node"><title>Node7</title>
<g id="a_node7"><a xlink:href="../../db/ddc/classmodel_1_1_wator_simulation.html#ab1a02dcfc6d897735f1b90c728668aee" target="_top" xlink:title="model.WatorSimulation.move\lIfEmptyAndCheckBaby">
<polygon fill="white" stroke="black" points="613,-103.862 613,-133.862 771,-133.862 771,-103.862 613,-103.862"/>
<text text-anchor="start" x="621" y="-121.862" font-family="Helvetica,sans-Serif" font-size="10.00">model.WatorSimulation.move</text>
<text text-anchor="middle" x="692" y="-110.862" font-family="Helvetica,sans-Serif" font-size="10.00">IfEmptyAndCheckBaby</text>
</a>
</g>
</g>
<!-- Node6&#45;&gt;Node7 -->
<g id="edge7" class="edge"><title>Node6&#45;&gt;Node7</title>
<path fill="none" stroke="midnightblue" d="M352.039,-118.862C430.173,-118.862 539.547,-118.862 612.707,-118.862"/>
<polygon fill="midnightblue" stroke="midnightblue" points="351.71,-115.362 341.71,-118.862 351.71,-122.362 351.71,-115.362"/>
</g>
<!-- Node8 -->
<g id="node8" class="node"><title>Node8</title>
<g id="a_node8"><a xlink:href="../../db/ddc/classmodel_1_1_wator_simulation.html#af44e712c1655e6d268a32bbd1c4db7d9" target="_top" xlink:title="model.WatorSimulation.move\lAndCheckBaby">
<polygon fill="white" stroke="black" points="394,-147.862 394,-177.862 552,-177.862 552,-147.862 394,-147.862"/>
<text text-anchor="start" x="402" y="-165.862" font-family="Helvetica,sans-Serif" font-size="10.00">model.WatorSimulation.move</text>
<text text-anchor="middle" x="473" y="-154.862" font-family="Helvetica,sans-Serif" font-size="10.00">AndCheckBaby</text>
</a>
</g>
</g>
<!-- Node6&#45;&gt;Node8 -->
<g id="edge10" class="edge"><title>Node6&#45;&gt;Node8</title>
<path fill="none" stroke="midnightblue" d="M340.321,-135.914C359.53,-139.845 379.825,-143.998 398.576,-147.836"/>
<polygon fill="midnightblue" stroke="midnightblue" points="340.888,-132.458 330.389,-133.881 339.485,-139.315 340.888,-132.458"/>
</g>
<!-- Node7&#45;&gt;Node3 -->
<g id="edge8" class="edge"><title>Node7&#45;&gt;Node3</title>
<path fill="none" stroke="midnightblue" d="M771.39,-136.022C789.202,-139.921 807.988,-144.034 825.358,-147.836"/>
<polygon fill="midnightblue" stroke="midnightblue" points="772.128,-132.601 761.611,-133.881 770.631,-139.439 772.128,-132.601"/>
</g>
<!-- Node7&#45;&gt;Node5 -->
<g id="edge9" class="edge"><title>Node7&#45;&gt;Node5</title>
<path fill="none" stroke="midnightblue" d="M781.383,-107.869C794.679,-106.216 808.262,-104.526 821.184,-102.919"/>
<polygon fill="midnightblue" stroke="midnightblue" points="780.779,-104.417 771.287,-109.125 781.643,-111.364 780.779,-104.417"/>
</g>
<!-- Node8&#45;&gt;Node3 -->
<g id="edge11" class="edge"><title>Node8&#45;&gt;Node3</title>
<path fill="none" stroke="midnightblue" d="M562.405,-162.862C637.587,-162.862 744.489,-162.862 816.403,-162.862"/>
<polygon fill="midnightblue" stroke="midnightblue" points="562.015,-159.362 552.014,-162.862 562.014,-166.362 562.015,-159.362"/>
</g>
<!-- Node8&#45;&gt;Node7 -->
<g id="edge12" class="edge"><title>Node8&#45;&gt;Node7</title>
<path fill="none" stroke="midnightblue" d="M558.096,-145.81C577.484,-141.879 597.967,-137.726 616.893,-133.888"/>
<polygon fill="midnightblue" stroke="midnightblue" points="557.177,-142.425 548.072,-147.843 558.568,-149.286 557.177,-142.425"/>
</g>
<!-- Node9&#45;&gt;Node4 -->
<g id="edge15" class="edge"><title>Node9&#45;&gt;Node4</title>
<path fill="none" stroke="midnightblue" d="M303.157,-19.0215C325.58,-13.8623 353.018,-8.41603 378,-5.8622 623.582,19.2427 915.79,-47.6753 1034.2,-78.8609"/>
<polygon fill="midnightblue" stroke="midnightblue" points="302.165,-15.6594 293.234,-21.3603 303.771,-22.4727 302.165,-15.6594"/>
</g>
<!-- Node10 -->
<g id="node10" class="node"><title>Node10</title>
<g id="a_node10"><a xlink:href="../../dc/d98/classmodel_1_1_segregation_simulation.html#acb3ef4f31baad601bb96379b1225344b" target="_top" xlink:title="model.SegregationSimulation.make\lNextGrid">
<polygon fill="white" stroke="black" points="378.5,-15.8622 378.5,-45.8622 567.5,-45.8622 567.5,-15.8622 378.5,-15.8622"/>
<text text-anchor="start" x="386.5" y="-33.8622" font-family="Helvetica,sans-Serif" font-size="10.00">model.SegregationSimulation.make</text>
<text text-anchor="middle" x="473" y="-22.8622" font-family="Helvetica,sans-Serif" font-size="10.00">NextGrid</text>
</a>
</g>
</g>
<!-- Node9&#45;&gt;Node10 -->
<g id="edge14" class="edge"><title>Node9&#45;&gt;Node10</title>
<path fill="none" stroke="midnightblue" d="M313.223,-30.8622C333.108,-30.8622 356.05,-30.8622 378.204,-30.8622"/>
<polygon fill="midnightblue" stroke="midnightblue" points="313.123,-27.3623 303.123,-30.8622 313.123,-34.3623 313.123,-27.3623"/>
</g>
<!-- Node11&#45;&gt;Node8 -->
<g id="edge17" class="edge"><title>Node11&#45;&gt;Node8</title>
<path fill="none" stroke="midnightblue" d="M343.899,-165.841C360.429,-165.457 377.634,-165.057 393.871,-164.679"/>
<polygon fill="midnightblue" stroke="midnightblue" points="343.625,-162.347 333.709,-166.078 343.788,-169.345 343.625,-162.347"/>
</g>
</g>
</svg>
