<?xml version="1.0" encoding="UTF-8" standalone="no"?>
<!DOCTYPE svg PUBLIC "-//W3C//DTD SVG 1.1//EN"
 "http://www.w3.org/Graphics/SVG/1.1/DTD/svg11.dtd">
<!-- Generated by graphviz version 2.36.0 (20140111.2315)
 -->
<!-- Title: model.Cell.setState Pages: 1 -->
<svg width="1596pt" height="126pt"
 viewBox="0.00 0.00 1596.00 126.00" xmlns="http://www.w3.org/2000/svg" xmlns:xlink="http://www.w3.org/1999/xlink">
<g id="graph0" class="graph" transform="scale(1 1) rotate(0) translate(4 122)">
<title>model.Cell.setState</title>
<polygon fill="white" stroke="none" points="-4,4 -4,-122 1592,-122 1592,4 -4,4"/>
<!-- Node1 -->
<g id="node1" class="node"><title>Node1</title>
<polygon fill="#bfbfbf" stroke="black" points="0.5,-49.5 0.5,-68.5 111.5,-68.5 111.5,-49.5 0.5,-49.5"/>
<text text-anchor="middle" x="56" y="-56.5" font-family="Helvetica,sans-Serif" font-size="10.00">model.Cell.setState</text>
</g>
<!-- Node2 -->
<g id="node2" class="node"><title>Node2</title>
<g id="a_node2"><a xlink:href="../../d3/d57/classmodel_1_1_cell.html#ad2650e84dd059c88de833b4f96745fc8" target="_top" xlink:title="model.Cell.Cell">
<polygon fill="white" stroke="black" points="191.5,-69.5 191.5,-88.5 278.5,-88.5 278.5,-69.5 191.5,-69.5"/>
<text text-anchor="middle" x="235" y="-76.5" font-family="Helvetica,sans-Serif" font-size="10.00">model.Cell.Cell</text>
</a>
</g>
</g>
<!-- Node1&#45;&gt;Node2 -->
<g id="edge1" class="edge"><title>Node1&#45;&gt;Node2</title>
<path fill="none" stroke="midnightblue" d="M121.69,-66.3096C144.931,-68.9358 170.54,-71.8294 191.427,-74.1895"/>
<polygon fill="midnightblue" stroke="midnightblue" points="121.88,-62.8089 111.55,-65.1639 121.094,-69.7646 121.88,-62.8089"/>
</g>
<!-- Node4 -->
<g id="node4" class="node"><title>Node4</title>
<g id="a_node4"><a xlink:href="../../d2/d17/classmodel_1_1_simulation.html#a4fc716803ab2e78743a529a24a8c601f" target="_top" xlink:title="model.Simulation.makeNextGrid">
<polygon fill="white" stroke="black" points="148.5,-30.5 148.5,-49.5 321.5,-49.5 321.5,-30.5 148.5,-30.5"/>
<text text-anchor="middle" x="235" y="-37.5" font-family="Helvetica,sans-Serif" font-size="10.00">model.Simulation.makeNextGrid</text>
</a>
</g>
</g>
<!-- Node1&#45;&gt;Node4 -->
<g id="edge3" class="edge"><title>Node1&#45;&gt;Node4</title>
<path fill="none" stroke="midnightblue" d="M121.604,-52.0651C130.319,-51.1296 139.368,-50.1582 148.377,-49.1912"/>
<polygon fill="midnightblue" stroke="midnightblue" points="121.119,-48.5969 111.55,-53.1443 121.867,-55.5569 121.119,-48.5969"/>
</g>
<!-- Node3 -->
<g id="node3" class="node"><title>Node3</title>
<g id="a_node3"><a xlink:href="../../d3/d57/classmodel_1_1_cell.html#a760ac2cd0c4393c3881a77f8a8f4faba" target="_top" xlink:title="model.Cell.copyCell">
<polygon fill="white" stroke="black" points="370,-71.5 370,-90.5 480,-90.5 480,-71.5 370,-71.5"/>
<text text-anchor="middle" x="425" y="-78.5" font-family="Helvetica,sans-Serif" font-size="10.00">model.Cell.copyCell</text>
</a>
</g>
</g>
<!-- Node2&#45;&gt;Node3 -->
<g id="edge2" class="edge"><title>Node2&#45;&gt;Node3</title>
<path fill="none" stroke="midnightblue" d="M288.792,-79.5616C314.049,-79.8303 344.255,-80.1516 369.703,-80.4224"/>
<polygon fill="midnightblue" stroke="midnightblue" points="288.697,-76.0605 278.66,-79.4538 288.622,-83.0601 288.697,-76.0605"/>
</g>
<!-- Node5 -->
<g id="node5" class="node"><title>Node5</title>
<g id="a_node5"><a xlink:href="../../d9/df7/classcontroller_1_1_controller.html#aa8fee9e96592dabbb151850b562d9ec0" target="_top" xlink:title="controller.Controller.step\lSimulation">
<polygon fill="white" stroke="black" points="358,-22 358,-52 492,-52 492,-22 358,-22"/>
<text text-anchor="start" x="366" y="-40" font-family="Helvetica,sans-Serif" font-size="10.00">controller.Controller.step</text>
<text text-anchor="middle" x="425" y="-29" font-family="Helvetica,sans-Serif" font-size="10.00">Simulation</text>
</a>
</g>
</g>
<!-- Node4&#45;&gt;Node5 -->
<g id="edge4" class="edge"><title>Node4&#45;&gt;Node5</title>
<path fill="none" stroke="midnightblue" d="M331.987,-38.4683C340.716,-38.329 349.422,-38.1901 357.804,-38.0563"/>
<polygon fill="midnightblue" stroke="midnightblue" points="331.691,-34.9725 321.748,-38.6317 331.802,-41.9716 331.691,-34.9725"/>
</g>
<!-- Node6 -->
<g id="node6" class="node"><title>Node6</title>
<g id="a_node6"><a xlink:href="../../d9/df7/classcontroller_1_1_controller.html#ae859ed2fba4e22871428ec51f7d4c07d" target="_top" xlink:title="controller.Controller.play\lSimulation">
<polygon fill="white" stroke="black" points="528,-44 528,-74 660,-74 660,-44 528,-44"/>
<text text-anchor="start" x="536" y="-62" font-family="Helvetica,sans-Serif" font-size="10.00">controller.Controller.play</text>
<text text-anchor="middle" x="594" y="-51" font-family="Helvetica,sans-Serif" font-size="10.00">Simulation</text>
</a>
</g>
</g>
<!-- Node5&#45;&gt;Node6 -->
<g id="edge5" class="edge"><title>Node5&#45;&gt;Node6</title>
<path fill="none" stroke="midnightblue" d="M502.019,-47.0145C510.612,-48.1465 519.312,-49.2925 527.75,-50.4041"/>
<polygon fill="midnightblue" stroke="midnightblue" points="502.374,-43.5311 492.003,-45.695 501.46,-50.4712 502.374,-43.5311"/>
</g>
<!-- Node12 -->
<g id="node12" class="node"><title>Node12</title>
<g id="a_node12"><a xlink:href="../../d1/dbf/classview_package_1_1_view.html#acec783d5c91d6cb27da271e46588e79f" target="_top" xlink:title="viewPackage.View.setStep\lSimulation">
<polygon fill="white" stroke="black" points="699.5,-0 699.5,-30 840.5,-30 840.5,-0 699.5,-0"/>
<text text-anchor="start" x="707.5" y="-18" font-family="Helvetica,sans-Serif" font-size="10.00">viewPackage.View.setStep</text>
<text text-anchor="middle" x="770" y="-7" font-family="Helvetica,sans-Serif" font-size="10.00">Simulation</text>
</a>
</g>
</g>
<!-- Node5&#45;&gt;Node12 -->
<g id="edge12" class="edge"><title>Node5&#45;&gt;Node12</title>
<path fill="none" stroke="midnightblue" d="M502.13,-32.117C561.05,-28.3379 641.99,-23.1464 699.24,-19.4744"/>
<polygon fill="midnightblue" stroke="midnightblue" points="501.889,-28.6252 492.134,-32.7582 502.337,-35.6108 501.889,-28.6252"/>
</g>
<!-- Node7 -->
<g id="node7" class="node"><title>Node7</title>
<g id="a_node7"><a xlink:href="../../d9/df7/classcontroller_1_1_controller.html#a37d9d1d84d304a9d94d7666322b7c6ab" target="_top" xlink:title="controller.Controller.change\lSpeed">
<polygon fill="white" stroke="black" points="696,-88 696,-118 844,-118 844,-88 696,-88"/>
<text text-anchor="start" x="704" y="-106" font-family="Helvetica,sans-Serif" font-size="10.00">controller.Controller.change</text>
<text text-anchor="middle" x="770" y="-95" font-family="Helvetica,sans-Serif" font-size="10.00">Speed</text>
</a>
</g>
</g>
<!-- Node6&#45;&gt;Node7 -->
<g id="edge6" class="edge"><title>Node6&#45;&gt;Node7</title>
<path fill="none" stroke="midnightblue" d="M664.147,-76.4855C679.181,-80.2873 694.959,-84.277 709.578,-87.9738"/>
<polygon fill="midnightblue" stroke="midnightblue" points="664.947,-73.0777 654.394,-74.0192 663.231,-79.8641 664.947,-73.0777"/>
</g>
<!-- Node8 -->
<g id="node8" class="node"><title>Node8</title>
<g id="a_node8"><a xlink:href="../../d1/dbf/classview_package_1_1_view.html#a1d1a8e16ae622c0d6a66cd9c516672a6" target="_top" xlink:title="viewPackage.View.setPlay\lAction">
<polygon fill="white" stroke="black" points="880,-44 880,-74 1018,-74 1018,-44 880,-44"/>
<text text-anchor="start" x="888" y="-62" font-family="Helvetica,sans-Serif" font-size="10.00">viewPackage.View.setPlay</text>
<text text-anchor="middle" x="949" y="-51" font-family="Helvetica,sans-Serif" font-size="10.00">Action</text>
</a>
</g>
</g>
<!-- Node6&#45;&gt;Node8 -->
<g id="edge11" class="edge"><title>Node6&#45;&gt;Node8</title>
<path fill="none" stroke="midnightblue" d="M670.291,-59C732.428,-59 819.844,-59 879.914,-59"/>
<polygon fill="midnightblue" stroke="midnightblue" points="670.157,-55.5001 660.157,-59 670.157,-62.5001 670.157,-55.5001"/>
</g>
<!-- Node7&#45;&gt;Node8 -->
<g id="edge7" class="edge"><title>Node7&#45;&gt;Node8</title>
<path fill="none" stroke="midnightblue" d="M841.339,-85.5145C856.633,-81.7127 872.683,-77.723 887.554,-74.0262"/>
<polygon fill="midnightblue" stroke="midnightblue" points="840.279,-82.1716 831.418,-87.9808 841.967,-88.9649 840.279,-82.1716"/>
</g>
<!-- Node9 -->
<g id="node9" class="node"><title>Node9</title>
<g id="a_node9"><a xlink:href="../../dc/d2c/classview_package_1_1_button_box.html#a9756fc46a96c169ce48a1867bd2c82f5" target="_top" xlink:title="viewPackage.ButtonBox.make\lButtonBox">
<polygon fill="white" stroke="black" points="1054,-22 1054,-52 1214,-52 1214,-22 1054,-22"/>
<text text-anchor="start" x="1062" y="-40" font-family="Helvetica,sans-Serif" font-size="10.00">viewPackage.ButtonBox.make</text>
<text text-anchor="middle" x="1134" y="-29" font-family="Helvetica,sans-Serif" font-size="10.00">ButtonBox</text>
</a>
</g>
</g>
<!-- Node8&#45;&gt;Node9 -->
<g id="edge8" class="edge"><title>Node8&#45;&gt;Node9</title>
<path fill="none" stroke="midnightblue" d="M1028.3,-49.5865C1036.71,-48.5757 1045.27,-47.5467 1053.69,-46.5346"/>
<polygon fill="midnightblue" stroke="midnightblue" points="1027.65,-46.1394 1018.14,-50.808 1028.49,-53.0893 1027.65,-46.1394"/>
</g>
<!-- Node10 -->
<g id="node10" class="node"><title>Node10</title>
<g id="a_node10"><a xlink:href="../../d1/dbf/classview_package_1_1_view.html#af6f6887ef253ae0fba2634e367b95312" target="_top" xlink:title="viewPackage.View.initialize">
<polygon fill="white" stroke="black" points="1250,-27.5 1250,-46.5 1392,-46.5 1392,-27.5 1250,-27.5"/>
<text text-anchor="middle" x="1321" y="-34.5" font-family="Helvetica,sans-Serif" font-size="10.00">viewPackage.View.initialize</text>
</a>
</g>
</g>
<!-- Node9&#45;&gt;Node10 -->
<g id="edge9" class="edge"><title>Node9&#45;&gt;Node10</title>
<path fill="none" stroke="midnightblue" d="M1224.33,-37C1232.93,-37 1241.57,-37 1249.95,-37"/>
<polygon fill="midnightblue" stroke="midnightblue" points="1224.26,-33.5001 1214.26,-37 1224.26,-40.5001 1224.26,-33.5001"/>
</g>
<!-- Node11 -->
<g id="node11" class="node"><title>Node11</title>
<g id="a_node11"><a xlink:href="../../d9/df7/classcontroller_1_1_controller.html#a4dbfef3e3e30bd1bb84df7a6b24ad1e7" target="_top" xlink:title="controller.Controller.Controller">
<polygon fill="white" stroke="black" points="1428.5,-27.5 1428.5,-46.5 1587.5,-46.5 1587.5,-27.5 1428.5,-27.5"/>
<text text-anchor="middle" x="1508" y="-34.5" font-family="Helvetica,sans-Serif" font-size="10.00">controller.Controller.Controller</text>
</a>
</g>
</g>
<!-- Node10&#45;&gt;Node11 -->
<g id="edge10" class="edge"><title>Node10&#45;&gt;Node11</title>
<path fill="none" stroke="midnightblue" d="M1402.31,-37C1411,-37 1419.83,-37 1428.49,-37"/>
<polygon fill="midnightblue" stroke="midnightblue" points="1402.2,-33.5001 1392.2,-37 1402.2,-40.5001 1402.2,-33.5001"/>
</g>
<!-- Node12&#45;&gt;Node9 -->
<g id="edge13" class="edge"><title>Node12&#45;&gt;Node9</title>
<path fill="none" stroke="midnightblue" d="M851.047,-19.8647C911.428,-23.5343 993.847,-28.5432 1053.98,-32.1975"/>
<polygon fill="midnightblue" stroke="midnightblue" points="850.991,-16.355 840.797,-19.2418 850.566,-23.3421 850.991,-16.355"/>
</g>
</g>
</svg>
