<?xml version="1.0" encoding="UTF-8" standalone="no"?>
<!DOCTYPE svg PUBLIC "-//W3C//DTD SVG 1.1//EN"
 "http://www.w3.org/Graphics/SVG/1.1/DTD/svg11.dtd">
<!-- Generated by graphviz version 2.36.0 (20140111.2315)
 -->
<!-- Title: model.Cell.toString Pages: 1 -->
<svg width="1828pt" height="193pt"
 viewBox="0.00 0.00 1828.00 193.00" xmlns="http://www.w3.org/2000/svg" xmlns:xlink="http://www.w3.org/1999/xlink">
<g id="graph0" class="graph" transform="scale(1 1) rotate(0) translate(4 189)">
<title>model.Cell.toString</title>
<polygon fill="white" stroke="none" points="-4,4 -4,-189 1824,-189 1824,4 -4,4"/>
<!-- Node1 -->
<g id="node1" class="node"><title>Node1</title>
<polygon fill="#bfbfbf" stroke="black" points="0,-87.5 0,-106.5 108,-106.5 108,-87.5 0,-87.5"/>
<text text-anchor="middle" x="54" y="-94.5" font-family="Helvetica,sans-Serif" font-size="10.00">model.Cell.toString</text>
</g>
<!-- Node2 -->
<g id="node2" class="node"><title>Node2</title>
<g id="a_node2"><a xlink:href="../../d9/df7/classcontroller_1_1_controller.html#ae43191a1fc7db5c1cb03da2a8a580541" target="_top" xlink:title="controller.Controller.create\lColorGrid">
<polygon fill="white" stroke="black" points="145.5,-131 145.5,-161 288.5,-161 288.5,-131 145.5,-131"/>
<text text-anchor="start" x="153.5" y="-149" font-family="Helvetica,sans-Serif" font-size="10.00">controller.Controller.create</text>
<text text-anchor="middle" x="217" y="-138" font-family="Helvetica,sans-Serif" font-size="10.00">ColorGrid</text>
</a>
</g>
</g>
<!-- Node1&#45;&gt;Node2 -->
<g id="edge1" class="edge"><title>Node1&#45;&gt;Node2</title>
<path fill="none" stroke="midnightblue" d="M96.2114,-109.543C117.665,-116.072 144.051,-124.102 166.593,-130.963"/>
<polygon fill="midnightblue" stroke="midnightblue" points="97.0105,-106.127 86.4246,-106.564 94.9723,-112.824 97.0105,-106.127"/>
</g>
<!-- Node15 -->
<g id="node15" class="node"><title>Node15</title>
<g id="a_node15"><a xlink:href="../../dc/d8f/classmodel_1_1_grid.html#a2a1dabe5f40f45e1018d5fce56ae29bc" target="_top" xlink:title="model.Grid.print">
<polygon fill="white" stroke="black" points="170,-43.5 170,-62.5 264,-62.5 264,-43.5 170,-43.5"/>
<text text-anchor="middle" x="217" y="-50.5" font-family="Helvetica,sans-Serif" font-size="10.00">model.Grid.print</text>
</a>
</g>
</g>
<!-- Node1&#45;&gt;Node15 -->
<g id="edge17" class="edge"><title>Node1&#45;&gt;Node15</title>
<path fill="none" stroke="midnightblue" d="M98.108,-84.7427C112.669,-80.6419 129.028,-76.0781 144,-72 155.476,-68.8743 168.002,-65.5414 179.342,-62.5538"/>
<polygon fill="midnightblue" stroke="midnightblue" points="97.0263,-81.4112 88.3532,-87.4962 98.9279,-88.148 97.0263,-81.4112"/>
</g>
<!-- Node18 -->
<g id="node18" class="node"><title>Node18</title>
<g id="a_node18"><a xlink:href="../../d9/df7/classcontroller_1_1_controller.html#aca48bc84d82655ce699963fd859afebd" target="_top" xlink:title="controller.Controller.update\lStateTotals">
<polygon fill="white" stroke="black" points="144,-82 144,-112 290,-112 290,-82 144,-82"/>
<text text-anchor="start" x="152" y="-100" font-family="Helvetica,sans-Serif" font-size="10.00">controller.Controller.update</text>
<text text-anchor="middle" x="217" y="-89" font-family="Helvetica,sans-Serif" font-size="10.00">StateTotals</text>
</a>
</g>
</g>
<!-- Node1&#45;&gt;Node18 -->
<g id="edge20" class="edge"><title>Node1&#45;&gt;Node18</title>
<path fill="none" stroke="midnightblue" d="M118.276,-97C126.695,-97 135.377,-97 143.931,-97"/>
<polygon fill="midnightblue" stroke="midnightblue" points="118.164,-93.5001 108.164,-97 118.164,-100.5 118.164,-93.5001"/>
</g>
<!-- Node3 -->
<g id="node3" class="node"><title>Node3</title>
<g id="a_node3"><a xlink:href="../../d9/df7/classcontroller_1_1_controller.html#af87c08769a85e54ca1d5c688b82b11f6" target="_top" xlink:title="controller.Controller.bundle\lViewPackager">
<polygon fill="white" stroke="black" points="348.5,-109 348.5,-139 493.5,-139 493.5,-109 348.5,-109"/>
<text text-anchor="start" x="356.5" y="-127" font-family="Helvetica,sans-Serif" font-size="10.00">controller.Controller.bundle</text>
<text text-anchor="middle" x="421" y="-116" font-family="Helvetica,sans-Serif" font-size="10.00">ViewPackager</text>
</a>
</g>
</g>
<!-- Node2&#45;&gt;Node3 -->
<g id="edge2" class="edge"><title>Node2&#45;&gt;Node3</title>
<path fill="none" stroke="midnightblue" d="M298.751,-137.205C315.155,-135.419 332.303,-133.551 348.365,-131.802"/>
<polygon fill="midnightblue" stroke="midnightblue" points="298.212,-133.743 288.65,-138.305 298.97,-140.702 298.212,-133.743"/>
</g>
<!-- Node4 -->
<g id="node4" class="node"><title>Node4</title>
<g id="a_node4"><a xlink:href="../../d9/df7/classcontroller_1_1_controller.html#af7cc9ab6dfe60da36d3159eea48882db" target="_top" xlink:title="controller.Controller.loadFile">
<polygon fill="white" stroke="black" points="552,-136.5 552,-155.5 700,-155.5 700,-136.5 552,-136.5"/>
<text text-anchor="middle" x="626" y="-143.5" font-family="Helvetica,sans-Serif" font-size="10.00">controller.Controller.loadFile</text>
</a>
</g>
</g>
<!-- Node3&#45;&gt;Node4 -->
<g id="edge3" class="edge"><title>Node3&#45;&gt;Node4</title>
<path fill="none" stroke="midnightblue" d="M503.853,-132.871C519.671,-134.585 536.151,-136.371 551.675,-138.053"/>
<polygon fill="midnightblue" stroke="midnightblue" points="503.889,-129.354 493.57,-131.756 503.135,-136.314 503.889,-129.354"/>
</g>
<!-- Node10 -->
<g id="node10" class="node"><title>Node10</title>
<g id="a_node10"><a xlink:href="../../d9/df7/classcontroller_1_1_controller.html#aa8fee9e96592dabbb151850b562d9ec0" target="_top" xlink:title="controller.Controller.step\lSimulation">
<polygon fill="white" stroke="black" points="559,-87 559,-117 693,-117 693,-87 559,-87"/>
<text text-anchor="start" x="567" y="-105" font-family="Helvetica,sans-Serif" font-size="10.00">controller.Controller.step</text>
<text text-anchor="middle" x="626" y="-94" font-family="Helvetica,sans-Serif" font-size="10.00">Simulation</text>
</a>
</g>
</g>
<!-- Node3&#45;&gt;Node10 -->
<g id="edge9" class="edge"><title>Node3&#45;&gt;Node10</title>
<path fill="none" stroke="midnightblue" d="M503.647,-115.152C521.981,-113.165 541.214,-111.08 558.826,-109.172"/>
<polygon fill="midnightblue" stroke="midnightblue" points="503.135,-111.686 493.57,-116.244 503.889,-118.646 503.135,-111.686"/>
</g>
<!-- Node5 -->
<g id="node5" class="node"><title>Node5</title>
<g id="a_node5"><a xlink:href="../../d1/dbf/classview_package_1_1_view.html#a718e5f42ae85512916198548e28477c7" target="_top" xlink:title="viewPackage.View.tryLoad">
<polygon fill="white" stroke="black" points="736,-158.5 736,-177.5 876,-177.5 876,-158.5 736,-158.5"/>
<text text-anchor="middle" x="806" y="-165.5" font-family="Helvetica,sans-Serif" font-size="10.00">viewPackage.View.tryLoad</text>
</a>
</g>
</g>
<!-- Node4&#45;&gt;Node5 -->
<g id="edge4" class="edge"><title>Node4&#45;&gt;Node5</title>
<path fill="none" stroke="midnightblue" d="M710.193,-156.282C718.776,-157.343 727.431,-158.413 735.838,-159.452"/>
<polygon fill="midnightblue" stroke="midnightblue" points="710.524,-152.797 700.17,-155.043 709.665,-159.744 710.524,-152.797"/>
</g>
<!-- Node6 -->
<g id="node6" class="node"><title>Node6</title>
<g id="a_node6"><a xlink:href="../../dc/d2c/classview_package_1_1_button_box.html#aef53bd97c4407ecd3fb5dfbf42850a46" target="_top" xlink:title="viewPackage.ButtonBox.load\lFileBox">
<polygon fill="white" stroke="black" points="1096.5,-154 1096.5,-184 1249.5,-184 1249.5,-154 1096.5,-154"/>
<text text-anchor="start" x="1104.5" y="-172" font-family="Helvetica,sans-Serif" font-size="10.00">viewPackage.ButtonBox.load</text>
<text text-anchor="middle" x="1173" y="-161" font-family="Helvetica,sans-Serif" font-size="10.00">FileBox</text>
</a>
</g>
</g>
<!-- Node5&#45;&gt;Node6 -->
<g id="edge5" class="edge"><title>Node5&#45;&gt;Node6</title>
<path fill="none" stroke="midnightblue" d="M886.262,-168.217C948.595,-168.388 1034.87,-168.624 1096.27,-168.793"/>
<polygon fill="midnightblue" stroke="midnightblue" points="886.092,-164.717 876.083,-168.189 886.073,-171.717 886.092,-164.717"/>
</g>
<!-- Node7 -->
<g id="node7" class="node"><title>Node7</title>
<g id="a_node7"><a xlink:href="../../dc/d2c/classview_package_1_1_button_box.html#a9756fc46a96c169ce48a1867bd2c82f5" target="_top" xlink:title="viewPackage.ButtonBox.make\lButtonBox">
<polygon fill="white" stroke="black" points="1286,-86 1286,-116 1446,-116 1446,-86 1286,-86"/>
<text text-anchor="start" x="1294" y="-104" font-family="Helvetica,sans-Serif" font-size="10.00">viewPackage.ButtonBox.make</text>
<text text-anchor="middle" x="1366" y="-93" font-family="Helvetica,sans-Serif" font-size="10.00">ButtonBox</text>
</a>
</g>
</g>
<!-- Node6&#45;&gt;Node7 -->
<g id="edge6" class="edge"><title>Node6&#45;&gt;Node7</title>
<path fill="none" stroke="midnightblue" d="M1225.97,-150.499C1256.34,-139.684 1294.19,-126.208 1322.73,-116.049"/>
<polygon fill="midnightblue" stroke="midnightblue" points="1224.64,-147.257 1216.39,-153.909 1226.98,-153.852 1224.64,-147.257"/>
</g>
<!-- Node8 -->
<g id="node8" class="node"><title>Node8</title>
<g id="a_node8"><a xlink:href="../../d1/dbf/classview_package_1_1_view.html#af6f6887ef253ae0fba2634e367b95312" target="_top" xlink:title="viewPackage.View.initialize">
<polygon fill="white" stroke="black" points="1482,-91.5 1482,-110.5 1624,-110.5 1624,-91.5 1482,-91.5"/>
<text text-anchor="middle" x="1553" y="-98.5" font-family="Helvetica,sans-Serif" font-size="10.00">viewPackage.View.initialize</text>
</a>
</g>
</g>
<!-- Node7&#45;&gt;Node8 -->
<g id="edge7" class="edge"><title>Node7&#45;&gt;Node8</title>
<path fill="none" stroke="midnightblue" d="M1456.33,-101C1464.93,-101 1473.57,-101 1481.95,-101"/>
<polygon fill="midnightblue" stroke="midnightblue" points="1456.26,-97.5001 1446.26,-101 1456.26,-104.5 1456.26,-97.5001"/>
</g>
<!-- Node9 -->
<g id="node9" class="node"><title>Node9</title>
<g id="a_node9"><a xlink:href="../../d9/df7/classcontroller_1_1_controller.html#a4dbfef3e3e30bd1bb84df7a6b24ad1e7" target="_top" xlink:title="controller.Controller.Controller">
<polygon fill="white" stroke="black" points="1660.5,-91.5 1660.5,-110.5 1819.5,-110.5 1819.5,-91.5 1660.5,-91.5"/>
<text text-anchor="middle" x="1740" y="-98.5" font-family="Helvetica,sans-Serif" font-size="10.00">controller.Controller.Controller</text>
</a>
</g>
</g>
<!-- Node8&#45;&gt;Node9 -->
<g id="edge8" class="edge"><title>Node8&#45;&gt;Node9</title>
<path fill="none" stroke="midnightblue" d="M1634.31,-101C1643,-101 1651.83,-101 1660.49,-101"/>
<polygon fill="midnightblue" stroke="midnightblue" points="1634.2,-97.5001 1624.2,-101 1634.2,-104.5 1634.2,-97.5001"/>
</g>
<!-- Node11 -->
<g id="node11" class="node"><title>Node11</title>
<g id="a_node11"><a xlink:href="../../d9/df7/classcontroller_1_1_controller.html#ae859ed2fba4e22871428ec51f7d4c07d" target="_top" xlink:title="controller.Controller.play\lSimulation">
<polygon fill="white" stroke="black" points="740,-87 740,-117 872,-117 872,-87 740,-87"/>
<text text-anchor="start" x="748" y="-105" font-family="Helvetica,sans-Serif" font-size="10.00">controller.Controller.play</text>
<text text-anchor="middle" x="806" y="-94" font-family="Helvetica,sans-Serif" font-size="10.00">Simulation</text>
</a>
</g>
</g>
<!-- Node10&#45;&gt;Node11 -->
<g id="edge10" class="edge"><title>Node10&#45;&gt;Node11</title>
<path fill="none" stroke="midnightblue" d="M703.211,-102C715.451,-102 728.021,-102 739.968,-102"/>
<polygon fill="midnightblue" stroke="midnightblue" points="703.028,-98.5001 693.028,-102 703.028,-105.5 703.028,-98.5001"/>
</g>
<!-- Node14 -->
<g id="node14" class="node"><title>Node14</title>
<g id="a_node14"><a xlink:href="../../d1/dbf/classview_package_1_1_view.html#acec783d5c91d6cb27da271e46588e79f" target="_top" xlink:title="viewPackage.View.setStep\lSimulation">
<polygon fill="white" stroke="black" points="915.5,-32 915.5,-62 1056.5,-62 1056.5,-32 915.5,-32"/>
<text text-anchor="start" x="923.5" y="-50" font-family="Helvetica,sans-Serif" font-size="10.00">viewPackage.View.setStep</text>
<text text-anchor="middle" x="986" y="-39" font-family="Helvetica,sans-Serif" font-size="10.00">Simulation</text>
</a>
</g>
</g>
<!-- Node10&#45;&gt;Node14 -->
<g id="edge15" class="edge"><title>Node10&#45;&gt;Node14</title>
<path fill="none" stroke="midnightblue" d="M697.438,-84.7012C710.223,-81.8879 723.474,-79.1848 736,-77 796.266,-66.4884 865.383,-58.4786 915.482,-53.3906"/>
<polygon fill="midnightblue" stroke="midnightblue" points="696.299,-81.3696 687.307,-86.9732 697.831,-88.2 696.299,-81.3696"/>
</g>
<!-- Node12 -->
<g id="node12" class="node"><title>Node12</title>
<g id="a_node12"><a xlink:href="../../d9/df7/classcontroller_1_1_controller.html#a37d9d1d84d304a9d94d7666322b7c6ab" target="_top" xlink:title="controller.Controller.change\lSpeed">
<polygon fill="white" stroke="black" points="912,-120 912,-150 1060,-150 1060,-120 912,-120"/>
<text text-anchor="start" x="920" y="-138" font-family="Helvetica,sans-Serif" font-size="10.00">controller.Controller.change</text>
<text text-anchor="middle" x="986" y="-127" font-family="Helvetica,sans-Serif" font-size="10.00">Speed</text>
</a>
</g>
</g>
<!-- Node11&#45;&gt;Node12 -->
<g id="edge11" class="edge"><title>Node11&#45;&gt;Node12</title>
<path fill="none" stroke="midnightblue" d="M882.128,-115.928C891.929,-117.745 901.96,-119.605 911.731,-121.416"/>
<polygon fill="midnightblue" stroke="midnightblue" points="882.488,-112.435 872.018,-114.054 881.212,-119.318 882.488,-112.435"/>
</g>
<!-- Node13 -->
<g id="node13" class="node"><title>Node13</title>
<g id="a_node13"><a xlink:href="../../d1/dbf/classview_package_1_1_view.html#a1d1a8e16ae622c0d6a66cd9c516672a6" target="_top" xlink:title="viewPackage.View.setPlay\lAction">
<polygon fill="white" stroke="black" points="1104,-86 1104,-116 1242,-116 1242,-86 1104,-86"/>
<text text-anchor="start" x="1112" y="-104" font-family="Helvetica,sans-Serif" font-size="10.00">viewPackage.View.setPlay</text>
<text text-anchor="middle" x="1173" y="-93" font-family="Helvetica,sans-Serif" font-size="10.00">Action</text>
</a>
</g>
</g>
<!-- Node11&#45;&gt;Node13 -->
<g id="edge14" class="edge"><title>Node11&#45;&gt;Node13</title>
<path fill="none" stroke="midnightblue" d="M882.464,-101.793C947.638,-101.615 1040.98,-101.359 1103.91,-101.187"/>
<polygon fill="midnightblue" stroke="midnightblue" points="882.245,-98.2937 872.255,-101.821 882.264,-105.294 882.245,-98.2937"/>
</g>
<!-- Node12&#45;&gt;Node13 -->
<g id="edge12" class="edge"><title>Node12&#45;&gt;Node13</title>
<path fill="none" stroke="midnightblue" d="M1070.02,-119.743C1081.36,-117.658 1092.89,-115.538 1103.93,-113.51"/>
<polygon fill="midnightblue" stroke="midnightblue" points="1069.32,-116.312 1060.12,-121.562 1070.58,-123.197 1069.32,-116.312"/>
</g>
<!-- Node13&#45;&gt;Node7 -->
<g id="edge13" class="edge"><title>Node13&#45;&gt;Node7</title>
<path fill="none" stroke="midnightblue" d="M1252.22,-101C1263.3,-101 1274.7,-101 1285.8,-101"/>
<polygon fill="midnightblue" stroke="midnightblue" points="1252.15,-97.5001 1242.15,-101 1252.15,-104.5 1252.15,-97.5001"/>
</g>
<!-- Node14&#45;&gt;Node7 -->
<g id="edge16" class="edge"><title>Node14&#45;&gt;Node7</title>
<path fill="none" stroke="midnightblue" d="M1066.98,-53.6358C1119.25,-58.5094 1188.9,-66.0185 1250,-76 1266.84,-78.7507 1284.93,-82.3667 1301.66,-85.9909"/>
<polygon fill="midnightblue" stroke="midnightblue" points="1067.04,-50.127 1056.76,-52.6963 1066.4,-57.0976 1067.04,-50.127"/>
</g>
<!-- Node16 -->
<g id="node16" class="node"><title>Node16</title>
<g id="a_node16"><a xlink:href="../../dc/d98/classmodel_1_1_segregation_simulation.html#acb3ef4f31baad601bb96379b1225344b" target="_top" xlink:title="model.SegregationSimulation.make\lNextGrid">
<polygon fill="white" stroke="black" points="326.5,-49 326.5,-79 515.5,-79 515.5,-49 326.5,-49"/>
<text text-anchor="start" x="334.5" y="-67" font-family="Helvetica,sans-Serif" font-size="10.00">model.SegregationSimulation.make</text>
<text text-anchor="middle" x="421" y="-56" font-family="Helvetica,sans-Serif" font-size="10.00">NextGrid</text>
</a>
</g>
</g>
<!-- Node15&#45;&gt;Node16 -->
<g id="edge18" class="edge"><title>Node15&#45;&gt;Node16</title>
<path fill="none" stroke="midnightblue" d="M274.39,-56.0707C290.514,-56.9488 308.537,-57.9302 326.261,-58.8954"/>
<polygon fill="midnightblue" stroke="midnightblue" points="274.265,-52.5589 264.09,-55.5098 273.885,-59.5485 274.265,-52.5589"/>
</g>
<!-- Node17 -->
<g id="node17" class="node"><title>Node17</title>
<g id="a_node17"><a xlink:href="../../db/ddc/classmodel_1_1_wator_simulation.html#a71ffa6547eb00615e94ba1d708a08281" target="_top" xlink:title="model.WatorSimulation.make\lNextGrid">
<polygon fill="white" stroke="black" points="342,-0 342,-30 500,-30 500,-0 342,-0"/>
<text text-anchor="start" x="350" y="-18" font-family="Helvetica,sans-Serif" font-size="10.00">model.WatorSimulation.make</text>
<text text-anchor="middle" x="421" y="-7" font-family="Helvetica,sans-Serif" font-size="10.00">NextGrid</text>
</a>
</g>
</g>
<!-- Node15&#45;&gt;Node17 -->
<g id="edge19" class="edge"><title>Node15&#45;&gt;Node17</title>
<path fill="none" stroke="midnightblue" d="M274.068,-42.4525C294.965,-38.5214 319.085,-33.984 341.621,-29.7446"/>
<polygon fill="midnightblue" stroke="midnightblue" points="273.27,-39.0412 264.09,-44.3297 274.564,-45.9205 273.27,-39.0412"/>
</g>
<!-- Node18&#45;&gt;Node3 -->
<g id="edge21" class="edge"><title>Node18&#45;&gt;Node3</title>
<path fill="none" stroke="midnightblue" d="M300.397,-108.013C316.276,-110.136 332.791,-112.343 348.296,-114.416"/>
<polygon fill="midnightblue" stroke="midnightblue" points="300.447,-104.489 290.071,-106.633 299.519,-111.427 300.447,-104.489"/>
</g>
</g>
</svg>
