<?xml version="1.0" encoding="UTF-8" standalone="no"?>
<!DOCTYPE svg PUBLIC "-//W3C//DTD SVG 1.1//EN"
 "http://www.w3.org/Graphics/SVG/1.1/DTD/svg11.dtd">
<!-- Generated by graphviz version 2.36.0 (20140111.2315)
 -->
<!-- Title: model.Cell.copyCell Pages: 1 -->
<svg width="414pt" height="66pt"
 viewBox="0.00 0.00 414.00 66.00" xmlns="http://www.w3.org/2000/svg" xmlns:xlink="http://www.w3.org/1999/xlink">
<g id="graph0" class="graph" transform="scale(1 1) rotate(0) translate(4 62)">
<title>model.Cell.copyCell</title>
<polygon fill="white" stroke="none" points="-4,4 -4,-62 410,-62 410,4 -4,4"/>
<!-- Node1 -->
<g id="node1" class="node"><title>Node1</title>
<polygon fill="#bfbfbf" stroke="black" points="0,-19.5 0,-38.5 110,-38.5 110,-19.5 0,-19.5"/>
<text text-anchor="middle" x="55" y="-26.5" font-family="Helvetica,sans-Serif" font-size="10.00">model.Cell.copyCell</text>
</g>
<!-- Node2 -->
<g id="node2" class="node"><title>Node2</title>
<g id="a_node2"><a xlink:href="../../d3/d57/classmodel_1_1_cell.html#ad2650e84dd059c88de833b4f96745fc8" target="_top" xlink:title="model.Cell.Cell">
<polygon fill="white" stroke="black" points="158.5,-38.5 158.5,-57.5 245.5,-57.5 245.5,-38.5 158.5,-38.5"/>
<text text-anchor="middle" x="202" y="-45.5" font-family="Helvetica,sans-Serif" font-size="10.00">model.Cell.Cell</text>
</a>
</g>
</g>
<!-- Node1&#45;&gt;Node2 -->
<g id="edge1" class="edge"><title>Node1&#45;&gt;Node2</title>
<path fill="none" stroke="midnightblue" d="M110.405,-36.129C122.71,-37.7414 135.758,-39.4511 148.004,-41.0557"/>
<polygon fill="midnightblue" stroke="midnightblue" points="147.698,-44.5455 158.068,-42.3745 148.608,-37.6048 147.698,-44.5455"/>
</g>
<!-- Node4 -->
<g id="node4" class="node"><title>Node4</title>
<g id="a_node4"><a xlink:href="../../d3/d57/classmodel_1_1_cell.html#af3d3f6f007030f25fb677f0f2f01510b" target="_top" xlink:title="model.Cell.getState">
<polygon fill="white" stroke="black" points="146,-0.5 146,-19.5 258,-19.5 258,-0.5 146,-0.5"/>
<text text-anchor="middle" x="202" y="-7.5" font-family="Helvetica,sans-Serif" font-size="10.00">model.Cell.getState</text>
</a>
</g>
</g>
<!-- Node1&#45;&gt;Node4 -->
<g id="edge3" class="edge"><title>Node1&#45;&gt;Node4</title>
<path fill="none" stroke="midnightblue" d="M110.405,-21.871C118.632,-20.793 127.191,-19.6715 135.62,-18.567"/>
<polygon fill="midnightblue" stroke="midnightblue" points="136.346,-22.0019 145.807,-17.2322 135.437,-15.0612 136.346,-22.0019"/>
</g>
<!-- Node3 -->
<g id="node3" class="node"><title>Node3</title>
<g id="a_node3"><a xlink:href="../../d3/d57/classmodel_1_1_cell.html#afba3057d5fff58793cb8118915f47e2a" target="_top" xlink:title="model.Cell.setState">
<polygon fill="white" stroke="black" points="294.5,-38.5 294.5,-57.5 405.5,-57.5 405.5,-38.5 294.5,-38.5"/>
<text text-anchor="middle" x="350" y="-45.5" font-family="Helvetica,sans-Serif" font-size="10.00">model.Cell.setState</text>
</a>
</g>
</g>
<!-- Node2&#45;&gt;Node3 -->
<g id="edge2" class="edge"><title>Node2&#45;&gt;Node3</title>
<path fill="none" stroke="midnightblue" d="M245.622,-48C257.643,-48 271.001,-48 284.016,-48"/>
<polygon fill="midnightblue" stroke="midnightblue" points="284.347,-51.5001 294.347,-48 284.347,-44.5001 284.347,-51.5001"/>
</g>
</g>
</svg>
