<?xml version="1.0" encoding="UTF-8" standalone="no"?>
<!DOCTYPE svg PUBLIC "-//W3C//DTD SVG 1.1//EN"
 "http://www.w3.org/Graphics/SVG/1.1/DTD/svg11.dtd">
<!-- Generated by graphviz version 2.36.0 (20140111.2315)
 -->
<!-- Title: model.Cell.changeToEmptyCell Pages: 1 -->
<svg width="1152pt" height="122pt"
 viewBox="0.00 0.00 1152.00 122.00" xmlns="http://www.w3.org/2000/svg" xmlns:xlink="http://www.w3.org/1999/xlink">
<g id="graph0" class="graph" transform="scale(1 1) rotate(0) translate(4 118)">
<title>model.Cell.changeToEmptyCell</title>
<polygon fill="white" stroke="none" points="-4,4 -4,-118 1148,-118 1148,4 -4,4"/>
<!-- Node1 -->
<g id="node1" class="node"><title>Node1</title>
<polygon fill="#bfbfbf" stroke="black" points="0.5,-29.5 0.5,-48.5 163.5,-48.5 163.5,-29.5 0.5,-29.5"/>
<text text-anchor="middle" x="82" y="-36.5" font-family="Helvetica,sans-Serif" font-size="10.00">model.Cell.changeToEmptyCell</text>
</g>
<!-- Node2 -->
<g id="node2" class="node"><title>Node2</title>
<g id="a_node2"><a xlink:href="../../db/ddc/classmodel_1_1_wator_simulation.html#a53aa53cfee9794dff36ebb3292522d5a" target="_top" xlink:title="model.WatorSimulation.move\lCreature">
<polygon fill="white" stroke="black" points="200,-47 200,-77 358,-77 358,-47 200,-47"/>
<text text-anchor="start" x="208" y="-65" font-family="Helvetica,sans-Serif" font-size="10.00">model.WatorSimulation.move</text>
<text text-anchor="middle" x="279" y="-54" font-family="Helvetica,sans-Serif" font-size="10.00">Creature</text>
</a>
</g>
</g>
<!-- Node1&#45;&gt;Node2 -->
<g id="edge1" class="edge"><title>Node1&#45;&gt;Node2</title>
<path fill="none" stroke="midnightblue" d="M173.865,-49.7175C182.548,-50.7416 191.301,-51.774 199.848,-52.7821"/>
<polygon fill="midnightblue" stroke="midnightblue" points="174.063,-46.2166 163.722,-48.521 173.243,-53.1684 174.063,-46.2166"/>
</g>
<!-- Node8 -->
<g id="node8" class="node"><title>Node8</title>
<g id="a_node8"><a xlink:href="../../db/ddc/classmodel_1_1_wator_simulation.html#a1cd97f85f054403c89c42d2647ae8bbb" target="_top" xlink:title="model.WatorSimulation.remove\lCreature">
<polygon fill="white" stroke="black" points="394.5,-0 394.5,-30 561.5,-30 561.5,-0 394.5,-0"/>
<text text-anchor="start" x="402.5" y="-18" font-family="Helvetica,sans-Serif" font-size="10.00">model.WatorSimulation.remove</text>
<text text-anchor="middle" x="478" y="-7" font-family="Helvetica,sans-Serif" font-size="10.00">Creature</text>
</a>
</g>
</g>
<!-- Node1&#45;&gt;Node8 -->
<g id="edge9" class="edge"><title>Node1&#45;&gt;Node8</title>
<path fill="none" stroke="midnightblue" d="M173.739,-33.4728C240.263,-29.4205 329.857,-23.963 394.392,-20.032"/>
<polygon fill="midnightblue" stroke="midnightblue" points="173.451,-29.9837 163.683,-34.0853 173.877,-36.9707 173.451,-29.9837"/>
</g>
<!-- Node3 -->
<g id="node3" class="node"><title>Node3</title>
<g id="a_node3"><a xlink:href="../../db/ddc/classmodel_1_1_wator_simulation.html#af44e712c1655e6d268a32bbd1c4db7d9" target="_top" xlink:title="model.WatorSimulation.move\lAndCheckBaby">
<polygon fill="white" stroke="black" points="399,-49 399,-79 557,-79 557,-49 399,-49"/>
<text text-anchor="start" x="407" y="-67" font-family="Helvetica,sans-Serif" font-size="10.00">model.WatorSimulation.move</text>
<text text-anchor="middle" x="478" y="-56" font-family="Helvetica,sans-Serif" font-size="10.00">AndCheckBaby</text>
</a>
</g>
</g>
<!-- Node2&#45;&gt;Node3 -->
<g id="edge2" class="edge"><title>Node2&#45;&gt;Node3</title>
<path fill="none" stroke="midnightblue" d="M368.296,-62.8964C378.515,-63.0002 388.883,-63.1054 398.952,-63.2076"/>
<polygon fill="midnightblue" stroke="midnightblue" points="368.178,-59.3951 358.143,-62.7933 368.106,-66.3948 368.178,-59.3951"/>
</g>
<!-- Node4 -->
<g id="node4" class="node"><title>Node4</title>
<g id="a_node4"><a xlink:href="../../db/ddc/classmodel_1_1_wator_simulation.html#a2205211b8ee8357a4687fce7bb25123a" target="_top" xlink:title="model.WatorSimulation.shark\lAction">
<polygon fill="white" stroke="black" points="792.5,-35 792.5,-65 949.5,-65 949.5,-35 792.5,-35"/>
<text text-anchor="start" x="800.5" y="-53" font-family="Helvetica,sans-Serif" font-size="10.00">model.WatorSimulation.shark</text>
<text text-anchor="middle" x="871" y="-42" font-family="Helvetica,sans-Serif" font-size="10.00">Action</text>
</a>
</g>
</g>
<!-- Node3&#45;&gt;Node4 -->
<g id="edge3" class="edge"><title>Node3&#45;&gt;Node4</title>
<path fill="none" stroke="midnightblue" d="M567.401,-60.8348C635.05,-58.4125 727.446,-55.1042 792.284,-52.7827"/>
<polygon fill="midnightblue" stroke="midnightblue" points="567.053,-57.3449 557.185,-61.2005 567.304,-64.3404 567.053,-57.3449"/>
</g>
<!-- Node6 -->
<g id="node6" class="node"><title>Node6</title>
<g id="a_node6"><a xlink:href="../../db/ddc/classmodel_1_1_wator_simulation.html#ab1a02dcfc6d897735f1b90c728668aee" target="_top" xlink:title="model.WatorSimulation.move\lIfEmptyAndCheckBaby">
<polygon fill="white" stroke="black" points="598,-82 598,-112 756,-112 756,-82 598,-82"/>
<text text-anchor="start" x="606" y="-100" font-family="Helvetica,sans-Serif" font-size="10.00">model.WatorSimulation.move</text>
<text text-anchor="middle" x="677" y="-89" font-family="Helvetica,sans-Serif" font-size="10.00">IfEmptyAndCheckBaby</text>
</a>
</g>
</g>
<!-- Node3&#45;&gt;Node6 -->
<g id="edge5" class="edge"><title>Node3&#45;&gt;Node6</title>
<path fill="none" stroke="midnightblue" d="M567.296,-78.7907C577.515,-80.5026 587.883,-82.2393 597.952,-83.926"/>
<polygon fill="midnightblue" stroke="midnightblue" points="567.583,-75.2902 557.143,-77.0899 566.427,-82.194 567.583,-75.2902"/>
</g>
<!-- Node5 -->
<g id="node5" class="node"><title>Node5</title>
<g id="a_node5"><a xlink:href="../../db/ddc/classmodel_1_1_wator_simulation.html#a71ffa6547eb00615e94ba1d708a08281" target="_top" xlink:title="model.WatorSimulation.make\lNextGrid">
<polygon fill="white" stroke="black" points="986,-59 986,-89 1144,-89 1144,-59 986,-59"/>
<text text-anchor="start" x="994" y="-77" font-family="Helvetica,sans-Serif" font-size="10.00">model.WatorSimulation.make</text>
<text text-anchor="middle" x="1065" y="-66" font-family="Helvetica,sans-Serif" font-size="10.00">NextGrid</text>
</a>
</g>
</g>
<!-- Node4&#45;&gt;Node5 -->
<g id="edge4" class="edge"><title>Node4&#45;&gt;Node5</title>
<path fill="none" stroke="midnightblue" d="M959.716,-60.9645C968.435,-62.0544 977.246,-63.1557 985.858,-64.2322"/>
<polygon fill="midnightblue" stroke="midnightblue" points="959.897,-57.46 949.54,-59.6925 959.029,-64.4059 959.897,-57.46"/>
</g>
<!-- Node6&#45;&gt;Node4 -->
<g id="edge6" class="edge"><title>Node6&#45;&gt;Node4</title>
<path fill="none" stroke="midnightblue" d="M749.052,-79.6071C768.621,-74.8168 789.675,-69.6628 808.646,-65.019"/>
<polygon fill="midnightblue" stroke="midnightblue" points="748.159,-76.2223 739.278,-81.9997 749.823,-83.0215 748.159,-76.2223"/>
</g>
<!-- Node7 -->
<g id="node7" class="node"><title>Node7</title>
<g id="a_node7"><a xlink:href="../../db/ddc/classmodel_1_1_wator_simulation.html#a1d9c45bb58d3edd46f9cba1d3b479d82" target="_top" xlink:title="model.WatorSimulation.fish\lAction">
<polygon fill="white" stroke="black" points="797.5,-84 797.5,-114 944.5,-114 944.5,-84 797.5,-84"/>
<text text-anchor="start" x="805.5" y="-102" font-family="Helvetica,sans-Serif" font-size="10.00">model.WatorSimulation.fish</text>
<text text-anchor="middle" x="871" y="-91" font-family="Helvetica,sans-Serif" font-size="10.00">Action</text>
</a>
</g>
</g>
<!-- Node6&#45;&gt;Node7 -->
<g id="edge7" class="edge"><title>Node6&#45;&gt;Node7</title>
<path fill="none" stroke="midnightblue" d="M766.369,-97.9205C776.703,-98.0282 787.154,-98.137 797.242,-98.2421"/>
<polygon fill="midnightblue" stroke="midnightblue" points="766.13,-94.4179 756.094,-97.8135 766.057,-101.418 766.13,-94.4179"/>
</g>
<!-- Node7&#45;&gt;Node5 -->
<g id="edge8" class="edge"><title>Node7&#45;&gt;Node5</title>
<path fill="none" stroke="midnightblue" d="M954.807,-88.2178C965.114,-86.8758 975.628,-85.5068 985.861,-84.1744"/>
<polygon fill="midnightblue" stroke="midnightblue" points="954.051,-84.7866 944.587,-89.5486 954.955,-91.728 954.051,-84.7866"/>
</g>
<!-- Node8&#45;&gt;Node4 -->
<g id="edge10" class="edge"><title>Node8&#45;&gt;Node4</title>
<path fill="none" stroke="midnightblue" d="M572.078,-23.3318C639.226,-29.3425 728.838,-37.364 792.188,-43.0348"/>
<polygon fill="midnightblue" stroke="midnightblue" points="572.193,-19.8282 561.921,-22.4226 571.569,-26.8003 572.193,-19.8282"/>
</g>
</g>
</svg>
