<?xml version="1.0" encoding="UTF-8" standalone="no"?>
<!DOCTYPE svg PUBLIC "-//W3C//DTD SVG 1.1//EN"
 "http://www.w3.org/Graphics/SVG/1.1/DTD/svg11.dtd">
<!-- Generated by graphviz version 2.36.0 (20140111.2315)
 -->
<!-- Title: model.Cell.getState Pages: 1 -->
<!--zoomable 224 -->
<svg id="main" version="1.1" xmlns="http://www.w3.org/2000/svg" xmlns:xlink="http://www.w3.org/1999/xlink" xml:space="preserve" onload="init(evt)">
<style type="text/css"><![CDATA[
.edge:hover path { stroke: red; }
.edge:hover polygon { stroke: red; fill: red; }
]]></style>
<script type="text/javascript"><![CDATA[
var edges = document.getElementsByTagName('g');
if (edges && edges.length) {
  for (var i=0;i<edges.length;i++) {
    if (edges[i].id.substr(0,4)=='edge') {
      edges[i].setAttribute('class','edge');
    }
  }
}
]]></script>
        <defs>
                <circle id="rim" cx="0" cy="0" r="7"/>
                <circle id="rim2" cx="0" cy="0" r="3.5"/>
                <g id="zoomPlus">
                        <use xlink:href="#rim" fill="#404040">
                                <set attributeName="fill" to="#808080" begin="zoomplus.mouseover" end="zoomplus.mouseout"/>
                        </use>
                        <path d="M-4,0h8M0,-4v8" fill="none" stroke="white" stroke-width="1.5" pointer-events="none"/>
                </g>
                <g id="zoomMin">
                        <use xlink:href="#rim" fill="#404040">
                                <set attributeName="fill" to="#808080" begin="zoomminus.mouseover" end="zoomminus.mouseout"/>
                        </use>
                        <path d="M-4,0h8" fill="none" stroke="white" stroke-width="1.5" pointer-events="none"/>
                </g>
                <g id="dirArrow">
                        <path fill="none" stroke="white" stroke-width="1.5" d="M0,-3.0v7 M-2.5,-0.5L0,-3.0L2.5,-0.5"/>
                </g>
               <g id="resetDef">
                       <use xlink:href="#rim2" fill="#404040">
                               <set attributeName="fill" to="#808080" begin="reset.mouseover" end="reset.mouseout"/>
                       </use>
               </g>
        </defs>

<script type="text/javascript">
var viewWidth = 556;
var viewHeight = 224;
var sectionId = 'dynsection-7';
</script>
<script xlink:href="../../svgpan.js"/>
<svg id="graph" class="graph">
<g id="viewport">
<title>model.Cell.getState</title>
<polygon fill="white" stroke="none" points="-4,4 -4,-220 552,-220 552,4 -4,4"/>
<!-- Node1 -->
<g id="node1" class="node"><title>Node1</title>
<polygon fill="#bfbfbf" stroke="black" points="0,-93.5 0,-112.5 112,-112.5 112,-93.5 0,-93.5"/>
<text text-anchor="middle" x="56" y="-100.5" font-family="Helvetica,sans-Serif" font-size="10.00">model.Cell.getState</text>
</g>
<!-- Node2 -->
<g id="node2" class="node"><title>Node2</title>
<g id="a_node2"><a xlink:href="../../da/df2/classmodel_1_1_game_life_simulation.html#abf884de11d364a4e30c22d8f108c2c55" target="_top" xlink:title="model.GameLifeSimulation.calculate\lNewCellState">
<polygon fill="white" stroke="black" points="155,-186 155,-216 347,-216 347,-186 155,-186"/>
<text text-anchor="start" x="163" y="-204" font-family="Helvetica,sans-Serif" font-size="10.00">model.GameLifeSimulation.calculate</text>
<text text-anchor="middle" x="251" y="-193" font-family="Helvetica,sans-Serif" font-size="10.00">NewCellState</text>
</a>
</g>
</g>
<!-- Node1&#45;&gt;Node2 -->
<g id="edge1" class="edge"><title>Node1&#45;&gt;Node2</title>
<path fill="none" stroke="midnightblue" d="M73.5822,-120.099C90.711,-136.782 118.965,-161.679 148,-176 155.849,-179.871 164.34,-183.17 172.957,-185.974"/>
<polygon fill="midnightblue" stroke="midnightblue" points="75.6653,-117.234 66.1125,-112.651 70.7228,-122.191 75.6653,-117.234"/>
</g>
<!-- Node3 -->
<g id="node3" class="node"><title>Node3</title>
<g id="a_node3"><a xlink:href="../../d0/dea/classmodel_1_1_fire_simulation.html#afa5681b8bca9d9b06d8503cfb9debb51" target="_top" xlink:title="model.FireSimulation.calculate\lNewCellState">
<polygon fill="white" stroke="black" points="169.5,-137 169.5,-167 332.5,-167 332.5,-137 169.5,-137"/>
<text text-anchor="start" x="177.5" y="-155" font-family="Helvetica,sans-Serif" font-size="10.00">model.FireSimulation.calculate</text>
<text text-anchor="middle" x="251" y="-144" font-family="Helvetica,sans-Serif" font-size="10.00">NewCellState</text>
</a>
</g>
</g>
<!-- Node1&#45;&gt;Node3 -->
<g id="edge2" class="edge"><title>Node1&#45;&gt;Node3</title>
<path fill="none" stroke="midnightblue" d="M102.583,-115.189C117.087,-119.023 133.205,-123.236 148,-127 160.899,-130.281 174.735,-133.724 187.926,-136.97"/>
<polygon fill="midnightblue" stroke="midnightblue" points="103.399,-111.784 92.8356,-112.606 101.605,-118.551 103.399,-111.784"/>
</g>
<!-- Node4 -->
<g id="node4" class="node"><title>Node4</title>
<g id="a_node4"><a xlink:href="../../dc/d98/classmodel_1_1_segregation_simulation.html#ac32e4a0070545825aab876954e6f68e5" target="_top" xlink:title="model.SegregationSimulation.calculate\lNewCellState">
<polygon fill="white" stroke="black" points="148.5,-88 148.5,-118 353.5,-118 353.5,-88 148.5,-88"/>
<text text-anchor="start" x="156.5" y="-106" font-family="Helvetica,sans-Serif" font-size="10.00">model.SegregationSimulation.calculate</text>
<text text-anchor="middle" x="251" y="-95" font-family="Helvetica,sans-Serif" font-size="10.00">NewCellState</text>
</a>
</g>
</g>
<!-- Node1&#45;&gt;Node4 -->
<g id="edge3" class="edge"><title>Node1&#45;&gt;Node4</title>
<path fill="none" stroke="midnightblue" d="M122.12,-103C130.54,-103 139.317,-103 148.154,-103"/>
<polygon fill="midnightblue" stroke="midnightblue" points="122.048,-99.5001 112.048,-103 122.048,-106.5 122.048,-99.5001"/>
</g>
<!-- Node5 -->
<g id="node5" class="node"><title>Node5</title>
<g id="a_node5"><a xlink:href="../../d3/d57/classmodel_1_1_cell.html#a760ac2cd0c4393c3881a77f8a8f4faba" target="_top" xlink:title="model.Cell.copyCell">
<polygon fill="white" stroke="black" points="196,-49.5 196,-68.5 306,-68.5 306,-49.5 196,-49.5"/>
<text text-anchor="middle" x="251" y="-56.5" font-family="Helvetica,sans-Serif" font-size="10.00">model.Cell.copyCell</text>
</a>
</g>
</g>
<!-- Node1&#45;&gt;Node5 -->
<g id="edge4" class="edge"><title>Node1&#45;&gt;Node5</title>
<path fill="none" stroke="midnightblue" d="M100.974,-90.7927C115.856,-86.8245 132.603,-82.536 148,-79 164.181,-75.284 181.905,-71.6558 197.973,-68.5324"/>
<polygon fill="midnightblue" stroke="midnightblue" points="99.7558,-87.4961 91.0096,-93.4756 101.576,-94.2554 99.7558,-87.4961"/>
</g>
<!-- Node6 -->
<g id="node6" class="node"><title>Node6</title>
<g id="a_node6"><a xlink:href="../../dc/d8f/classmodel_1_1_grid.html#a58bacc5c1bb1e3db7647ee8730bf57ce" target="_top" xlink:title="model.Grid.getLocationsWith\lState">
<polygon fill="white" stroke="black" points="174,-0 174,-30 328,-30 328,-0 174,-0"/>
<text text-anchor="start" x="182" y="-18" font-family="Helvetica,sans-Serif" font-size="10.00">model.Grid.getLocationsWith</text>
<text text-anchor="middle" x="251" y="-7" font-family="Helvetica,sans-Serif" font-size="10.00">State</text>
</a>
</g>
</g>
<!-- Node1&#45;&gt;Node6 -->
<g id="edge5" class="edge"><title>Node1&#45;&gt;Node6</title>
<path fill="none" stroke="midnightblue" d="M75.7411,-86.941C93.3213,-72.6588 120.896,-52.2002 148,-40 156.479,-36.1834 165.628,-32.8952 174.843,-30.0765"/>
<polygon fill="midnightblue" stroke="midnightblue" points="73.4237,-84.3159 67.9596,-93.3929 77.8917,-89.7045 73.4237,-84.3159"/>
</g>
<!-- Node7 -->
<g id="node7" class="node"><title>Node7</title>
<g id="a_node7"><a xlink:href="../../db/ddc/classmodel_1_1_wator_simulation.html#a71ffa6547eb00615e94ba1d708a08281" target="_top" xlink:title="model.WatorSimulation.make\lNextGrid">
<polygon fill="white" stroke="black" points="390,-0 390,-30 548,-30 548,-0 390,-0"/>
<text text-anchor="start" x="398" y="-18" font-family="Helvetica,sans-Serif" font-size="10.00">model.WatorSimulation.make</text>
<text text-anchor="middle" x="469" y="-7" font-family="Helvetica,sans-Serif" font-size="10.00">NextGrid</text>
</a>
</g>
</g>
<!-- Node6&#45;&gt;Node7 -->
<g id="edge6" class="edge"><title>Node6&#45;&gt;Node7</title>
<path fill="none" stroke="midnightblue" d="M338.614,-15C355.591,-15 373.303,-15 389.98,-15"/>
<polygon fill="midnightblue" stroke="midnightblue" points="338.154,-11.5001 328.154,-15 338.153,-18.5001 338.154,-11.5001"/>
</g>
</g>
</svg>
        <g id="navigator" transform="translate(0 0)" fill="#404254">
                <rect fill="#f2f5e9" fill-opacity="0.5" stroke="#606060" stroke-width=".5" x="0" y="0" width="60" height="60"/>
                <use id="zoomplus" xlink:href="#zoomPlus" x="17" y="9" onmousedown="handleZoom(evt,'in')"/>
                <use id="zoomminus" xlink:href="#zoomMin" x="42" y="9" onmousedown="handleZoom(evt,'out')"/>
                <use id="reset" xlink:href="#resetDef" x="30" y="36" onmousedown="handleReset()"/>
                <g id="arrowUp" xlink:href="#dirArrow" transform="translate(30 24)" onmousedown="handlePan(0,-1)">
                  <use xlink:href="#rim" fill="#404040">
                        <set attributeName="fill" to="#808080" begin="arrowUp.mouseover" end="arrowUp.mouseout"/>
                  </use>
                  <path fill="none" stroke="white" stroke-width="1.5" d="M0,-3.0v7 M-2.5,-0.5L0,-3.0L2.5,-0.5"/>
                </g>
                <g id="arrowRight" xlink:href="#dirArrow" transform="rotate(90) translate(36 -43)" onmousedown="handlePan(1,0)">
                  <use xlink:href="#rim" fill="#404040">
                        <set attributeName="fill" to="#808080" begin="arrowRight.mouseover" end="arrowRight.mouseout"/>
                  </use>
                  <path fill="none" stroke="white" stroke-width="1.5" d="M0,-3.0v7 M-2.5,-0.5L0,-3.0L2.5,-0.5"/>
                </g>
                <g id="arrowDown" xlink:href="#dirArrow" transform="rotate(180) translate(-30 -48)" onmousedown="handlePan(0,1)">
                  <use xlink:href="#rim" fill="#404040">
                        <set attributeName="fill" to="#808080" begin="arrowDown.mouseover" end="arrowDown.mouseout"/>
                  </use>
                  <path fill="none" stroke="white" stroke-width="1.5" d="M0,-3.0v7 M-2.5,-0.5L0,-3.0L2.5,-0.5"/>
                </g>
                <g id="arrowLeft" xlink:href="#dirArrow" transform="rotate(270) translate(-36 17)" onmousedown="handlePan(-1,0)">
                  <use xlink:href="#rim" fill="#404040">
                        <set attributeName="fill" to="#808080" begin="arrowLeft.mouseover" end="arrowLeft.mouseout"/>
                  </use>
                  <path fill="none" stroke="white" stroke-width="1.5" d="M0,-3.0v7 M-2.5,-0.5L0,-3.0L2.5,-0.5"/>
                </g>
        </g>
        <svg viewBox="0 0 15 15" width="100%" height="30px" preserveAspectRatio="xMaxYMin meet">
         <g id="arrow_out" transform="scale(0.3 0.3)">
          <a xlink:href="classmodel_1_1_cell_af3d3f6f007030f25fb677f0f2f01510b_icgraph_org.svg" target="_base">
           <rect id="button" ry="5" rx="5" y="6" x="6" height="38" width="38"
                fill="#f2f5e9" fill-opacity="0.5" stroke="#606060" stroke-width="1.0"/>
           <path id="arrow"
             d="M 11.500037,31.436501 C 11.940474,20.09759 22.043105,11.32322 32.158766,21.979434 L 37.068811,17.246167 C 37.068811,17.246167 37.088388,32 37.088388,32 L 22.160133,31.978069 C 22.160133,31.978069 26.997745,27.140456 26.997745,27.140456 C 18.528582,18.264221 13.291696,25.230495 11.500037,31.436501 z"
             style="fill:#404040;"/>
          </a>
         </g>
        </svg>
</svg>
