<?xml version="1.0" encoding="UTF-8" standalone="no"?>
<!DOCTYPE svg PUBLIC "-//W3C//DTD SVG 1.1//EN"
 "http://www.w3.org/Graphics/SVG/1.1/DTD/svg11.dtd">
<!-- Generated by graphviz version 2.36.0 (20140111.2315)
 -->
<!-- Title: model.Simulation.updateGrid Pages: 1 -->
<svg width="1432pt" height="126pt"
 viewBox="0.00 0.00 1432.00 126.00" xmlns="http://www.w3.org/2000/svg" xmlns:xlink="http://www.w3.org/1999/xlink">
<g id="graph0" class="graph" transform="scale(1 1) rotate(0) translate(4 122)">
<title>model.Simulation.updateGrid</title>
<polygon fill="white" stroke="none" points="-4,4 -4,-122 1428,-122 1428,4 -4,4"/>
<!-- Node1 -->
<g id="node1" class="node"><title>Node1</title>
<polygon fill="#bfbfbf" stroke="black" points="0.5,-27.5 0.5,-46.5 157.5,-46.5 157.5,-27.5 0.5,-27.5"/>
<text text-anchor="middle" x="79" y="-34.5" font-family="Helvetica,sans-Serif" font-size="10.00">model.Simulation.updateGrid</text>
</g>
<!-- Node2 -->
<g id="node2" class="node"><title>Node2</title>
<g id="a_node2"><a xlink:href="../../d9/df7/classcontroller_1_1_controller.html#aa8fee9e96592dabbb151850b562d9ec0" target="_top" xlink:title="controller.Controller.step\lSimulation">
<polygon fill="white" stroke="black" points="194,-22 194,-52 328,-52 328,-22 194,-22"/>
<text text-anchor="start" x="202" y="-40" font-family="Helvetica,sans-Serif" font-size="10.00">controller.Controller.step</text>
<text text-anchor="middle" x="261" y="-29" font-family="Helvetica,sans-Serif" font-size="10.00">Simulation</text>
</a>
</g>
</g>
<!-- Node1&#45;&gt;Node2 -->
<g id="edge1" class="edge"><title>Node1&#45;&gt;Node2</title>
<path fill="none" stroke="midnightblue" d="M167.89,-37C176.647,-37 185.431,-37 193.91,-37"/>
<polygon fill="midnightblue" stroke="midnightblue" points="167.642,-33.5001 157.642,-37 167.642,-40.5001 167.642,-33.5001"/>
</g>
<!-- Node3 -->
<g id="node3" class="node"><title>Node3</title>
<g id="a_node3"><a xlink:href="../../d9/df7/classcontroller_1_1_controller.html#ae859ed2fba4e22871428ec51f7d4c07d" target="_top" xlink:title="controller.Controller.play\lSimulation">
<polygon fill="white" stroke="black" points="364,-44 364,-74 496,-74 496,-44 364,-44"/>
<text text-anchor="start" x="372" y="-62" font-family="Helvetica,sans-Serif" font-size="10.00">controller.Controller.play</text>
<text text-anchor="middle" x="430" y="-51" font-family="Helvetica,sans-Serif" font-size="10.00">Simulation</text>
</a>
</g>
</g>
<!-- Node2&#45;&gt;Node3 -->
<g id="edge2" class="edge"><title>Node2&#45;&gt;Node3</title>
<path fill="none" stroke="midnightblue" d="M338.019,-47.0145C346.612,-48.1465 355.312,-49.2925 363.75,-50.4041"/>
<polygon fill="midnightblue" stroke="midnightblue" points="338.374,-43.5311 328.003,-45.695 337.46,-50.4712 338.374,-43.5311"/>
</g>
<!-- Node9 -->
<g id="node9" class="node"><title>Node9</title>
<g id="a_node9"><a xlink:href="../../d1/dbf/classview_package_1_1_view.html#acec783d5c91d6cb27da271e46588e79f" target="_top" xlink:title="viewPackage.View.setStep\lSimulation">
<polygon fill="white" stroke="black" points="535.5,-0 535.5,-30 676.5,-30 676.5,-0 535.5,-0"/>
<text text-anchor="start" x="543.5" y="-18" font-family="Helvetica,sans-Serif" font-size="10.00">viewPackage.View.setStep</text>
<text text-anchor="middle" x="606" y="-7" font-family="Helvetica,sans-Serif" font-size="10.00">Simulation</text>
</a>
</g>
</g>
<!-- Node2&#45;&gt;Node9 -->
<g id="edge9" class="edge"><title>Node2&#45;&gt;Node9</title>
<path fill="none" stroke="midnightblue" d="M338.13,-32.117C397.05,-28.3379 477.99,-23.1464 535.24,-19.4744"/>
<polygon fill="midnightblue" stroke="midnightblue" points="337.889,-28.6252 328.134,-32.7582 338.337,-35.6108 337.889,-28.6252"/>
</g>
<!-- Node4 -->
<g id="node4" class="node"><title>Node4</title>
<g id="a_node4"><a xlink:href="../../d9/df7/classcontroller_1_1_controller.html#a37d9d1d84d304a9d94d7666322b7c6ab" target="_top" xlink:title="controller.Controller.change\lSpeed">
<polygon fill="white" stroke="black" points="532,-88 532,-118 680,-118 680,-88 532,-88"/>
<text text-anchor="start" x="540" y="-106" font-family="Helvetica,sans-Serif" font-size="10.00">controller.Controller.change</text>
<text text-anchor="middle" x="606" y="-95" font-family="Helvetica,sans-Serif" font-size="10.00">Speed</text>
</a>
</g>
</g>
<!-- Node3&#45;&gt;Node4 -->
<g id="edge3" class="edge"><title>Node3&#45;&gt;Node4</title>
<path fill="none" stroke="midnightblue" d="M500.147,-76.4855C515.181,-80.2873 530.959,-84.277 545.578,-87.9738"/>
<polygon fill="midnightblue" stroke="midnightblue" points="500.947,-73.0777 490.394,-74.0192 499.231,-79.8641 500.947,-73.0777"/>
</g>
<!-- Node5 -->
<g id="node5" class="node"><title>Node5</title>
<g id="a_node5"><a xlink:href="../../d1/dbf/classview_package_1_1_view.html#a1d1a8e16ae622c0d6a66cd9c516672a6" target="_top" xlink:title="viewPackage.View.setPlay\lAction">
<polygon fill="white" stroke="black" points="716,-44 716,-74 854,-74 854,-44 716,-44"/>
<text text-anchor="start" x="724" y="-62" font-family="Helvetica,sans-Serif" font-size="10.00">viewPackage.View.setPlay</text>
<text text-anchor="middle" x="785" y="-51" font-family="Helvetica,sans-Serif" font-size="10.00">Action</text>
</a>
</g>
</g>
<!-- Node3&#45;&gt;Node5 -->
<g id="edge8" class="edge"><title>Node3&#45;&gt;Node5</title>
<path fill="none" stroke="midnightblue" d="M506.291,-59C568.428,-59 655.844,-59 715.914,-59"/>
<polygon fill="midnightblue" stroke="midnightblue" points="506.157,-55.5001 496.157,-59 506.157,-62.5001 506.157,-55.5001"/>
</g>
<!-- Node4&#45;&gt;Node5 -->
<g id="edge4" class="edge"><title>Node4&#45;&gt;Node5</title>
<path fill="none" stroke="midnightblue" d="M677.339,-85.5145C692.633,-81.7127 708.683,-77.723 723.554,-74.0262"/>
<polygon fill="midnightblue" stroke="midnightblue" points="676.279,-82.1716 667.418,-87.9808 677.967,-88.9649 676.279,-82.1716"/>
</g>
<!-- Node6 -->
<g id="node6" class="node"><title>Node6</title>
<g id="a_node6"><a xlink:href="../../dc/d2c/classview_package_1_1_button_box.html#a9756fc46a96c169ce48a1867bd2c82f5" target="_top" xlink:title="viewPackage.ButtonBox.make\lButtonBox">
<polygon fill="white" stroke="black" points="890,-22 890,-52 1050,-52 1050,-22 890,-22"/>
<text text-anchor="start" x="898" y="-40" font-family="Helvetica,sans-Serif" font-size="10.00">viewPackage.ButtonBox.make</text>
<text text-anchor="middle" x="970" y="-29" font-family="Helvetica,sans-Serif" font-size="10.00">ButtonBox</text>
</a>
</g>
</g>
<!-- Node5&#45;&gt;Node6 -->
<g id="edge5" class="edge"><title>Node5&#45;&gt;Node6</title>
<path fill="none" stroke="midnightblue" d="M864.303,-49.5865C872.711,-48.5757 881.27,-47.5467 889.69,-46.5346"/>
<polygon fill="midnightblue" stroke="midnightblue" points="863.653,-46.1394 854.142,-50.808 864.489,-53.0893 863.653,-46.1394"/>
</g>
<!-- Node7 -->
<g id="node7" class="node"><title>Node7</title>
<g id="a_node7"><a xlink:href="../../d1/dbf/classview_package_1_1_view.html#af6f6887ef253ae0fba2634e367b95312" target="_top" xlink:title="viewPackage.View.initialize">
<polygon fill="white" stroke="black" points="1086,-27.5 1086,-46.5 1228,-46.5 1228,-27.5 1086,-27.5"/>
<text text-anchor="middle" x="1157" y="-34.5" font-family="Helvetica,sans-Serif" font-size="10.00">viewPackage.View.initialize</text>
</a>
</g>
</g>
<!-- Node6&#45;&gt;Node7 -->
<g id="edge6" class="edge"><title>Node6&#45;&gt;Node7</title>
<path fill="none" stroke="midnightblue" d="M1060.33,-37C1068.93,-37 1077.57,-37 1085.95,-37"/>
<polygon fill="midnightblue" stroke="midnightblue" points="1060.26,-33.5001 1050.26,-37 1060.26,-40.5001 1060.26,-33.5001"/>
</g>
<!-- Node8 -->
<g id="node8" class="node"><title>Node8</title>
<g id="a_node8"><a xlink:href="../../d9/df7/classcontroller_1_1_controller.html#a4dbfef3e3e30bd1bb84df7a6b24ad1e7" target="_top" xlink:title="controller.Controller.Controller">
<polygon fill="white" stroke="black" points="1264.5,-27.5 1264.5,-46.5 1423.5,-46.5 1423.5,-27.5 1264.5,-27.5"/>
<text text-anchor="middle" x="1344" y="-34.5" font-family="Helvetica,sans-Serif" font-size="10.00">controller.Controller.Controller</text>
</a>
</g>
</g>
<!-- Node7&#45;&gt;Node8 -->
<g id="edge7" class="edge"><title>Node7&#45;&gt;Node8</title>
<path fill="none" stroke="midnightblue" d="M1238.31,-37C1247,-37 1255.83,-37 1264.49,-37"/>
<polygon fill="midnightblue" stroke="midnightblue" points="1238.2,-33.5001 1228.2,-37 1238.2,-40.5001 1238.2,-33.5001"/>
</g>
<!-- Node9&#45;&gt;Node6 -->
<g id="edge10" class="edge"><title>Node9&#45;&gt;Node6</title>
<path fill="none" stroke="midnightblue" d="M687.047,-19.8647C747.428,-23.5343 829.847,-28.5432 889.977,-32.1975"/>
<polygon fill="midnightblue" stroke="midnightblue" points="686.991,-16.355 676.797,-19.2418 686.566,-23.3421 686.991,-16.355"/>
</g>
</g>
</svg>
