<?xml version="1.0" encoding="UTF-8" standalone="no"?>
<!DOCTYPE svg PUBLIC "-//W3C//DTD SVG 1.1//EN"
 "http://www.w3.org/Graphics/SVG/1.1/DTD/svg11.dtd">
<!-- Generated by graphviz version 2.36.0 (20140111.2315)
 -->
<!-- Title: model.Simulation.makeNextGrid Pages: 1 -->
<svg width="1448pt" height="126pt"
 viewBox="0.00 0.00 1448.00 126.00" xmlns="http://www.w3.org/2000/svg" xmlns:xlink="http://www.w3.org/1999/xlink">
<g id="graph0" class="graph" transform="scale(1 1) rotate(0) translate(4 122)">
<title>model.Simulation.makeNextGrid</title>
<polygon fill="white" stroke="none" points="-4,4 -4,-122 1444,-122 1444,4 -4,4"/>
<!-- Node1 -->
<g id="node1" class="node"><title>Node1</title>
<polygon fill="#bfbfbf" stroke="black" points="0.5,-27.5 0.5,-46.5 173.5,-46.5 173.5,-27.5 0.5,-27.5"/>
<text text-anchor="middle" x="87" y="-34.5" font-family="Helvetica,sans-Serif" font-size="10.00">model.Simulation.makeNextGrid</text>
</g>
<!-- Node2 -->
<g id="node2" class="node"><title>Node2</title>
<g id="a_node2"><a xlink:href="../../d9/df7/classcontroller_1_1_controller.html#aa8fee9e96592dabbb151850b562d9ec0" target="_top" xlink:title="controller.Controller.step\lSimulation">
<polygon fill="white" stroke="black" points="210,-22 210,-52 344,-52 344,-22 210,-22"/>
<text text-anchor="start" x="218" y="-40" font-family="Helvetica,sans-Serif" font-size="10.00">controller.Controller.step</text>
<text text-anchor="middle" x="277" y="-29" font-family="Helvetica,sans-Serif" font-size="10.00">Simulation</text>
</a>
</g>
</g>
<!-- Node1&#45;&gt;Node2 -->
<g id="edge1" class="edge"><title>Node1&#45;&gt;Node2</title>
<path fill="none" stroke="midnightblue" d="M183.987,-37C192.716,-37 201.422,-37 209.804,-37"/>
<polygon fill="midnightblue" stroke="midnightblue" points="183.748,-33.5001 173.748,-37 183.748,-40.5001 183.748,-33.5001"/>
</g>
<!-- Node3 -->
<g id="node3" class="node"><title>Node3</title>
<g id="a_node3"><a xlink:href="../../d9/df7/classcontroller_1_1_controller.html#ae859ed2fba4e22871428ec51f7d4c07d" target="_top" xlink:title="controller.Controller.play\lSimulation">
<polygon fill="white" stroke="black" points="380,-44 380,-74 512,-74 512,-44 380,-44"/>
<text text-anchor="start" x="388" y="-62" font-family="Helvetica,sans-Serif" font-size="10.00">controller.Controller.play</text>
<text text-anchor="middle" x="446" y="-51" font-family="Helvetica,sans-Serif" font-size="10.00">Simulation</text>
</a>
</g>
</g>
<!-- Node2&#45;&gt;Node3 -->
<g id="edge2" class="edge"><title>Node2&#45;&gt;Node3</title>
<path fill="none" stroke="midnightblue" d="M354.019,-47.0145C362.612,-48.1465 371.312,-49.2925 379.75,-50.4041"/>
<polygon fill="midnightblue" stroke="midnightblue" points="354.374,-43.5311 344.003,-45.695 353.46,-50.4712 354.374,-43.5311"/>
</g>
<!-- Node9 -->
<g id="node9" class="node"><title>Node9</title>
<g id="a_node9"><a xlink:href="../../d1/dbf/classview_package_1_1_view.html#acec783d5c91d6cb27da271e46588e79f" target="_top" xlink:title="viewPackage.View.setStep\lSimulation">
<polygon fill="white" stroke="black" points="551.5,-0 551.5,-30 692.5,-30 692.5,-0 551.5,-0"/>
<text text-anchor="start" x="559.5" y="-18" font-family="Helvetica,sans-Serif" font-size="10.00">viewPackage.View.setStep</text>
<text text-anchor="middle" x="622" y="-7" font-family="Helvetica,sans-Serif" font-size="10.00">Simulation</text>
</a>
</g>
</g>
<!-- Node2&#45;&gt;Node9 -->
<g id="edge9" class="edge"><title>Node2&#45;&gt;Node9</title>
<path fill="none" stroke="midnightblue" d="M354.13,-32.117C413.05,-28.3379 493.99,-23.1464 551.24,-19.4744"/>
<polygon fill="midnightblue" stroke="midnightblue" points="353.889,-28.6252 344.134,-32.7582 354.337,-35.6108 353.889,-28.6252"/>
</g>
<!-- Node4 -->
<g id="node4" class="node"><title>Node4</title>
<g id="a_node4"><a xlink:href="../../d9/df7/classcontroller_1_1_controller.html#a37d9d1d84d304a9d94d7666322b7c6ab" target="_top" xlink:title="controller.Controller.change\lSpeed">
<polygon fill="white" stroke="black" points="548,-88 548,-118 696,-118 696,-88 548,-88"/>
<text text-anchor="start" x="556" y="-106" font-family="Helvetica,sans-Serif" font-size="10.00">controller.Controller.change</text>
<text text-anchor="middle" x="622" y="-95" font-family="Helvetica,sans-Serif" font-size="10.00">Speed</text>
</a>
</g>
</g>
<!-- Node3&#45;&gt;Node4 -->
<g id="edge3" class="edge"><title>Node3&#45;&gt;Node4</title>
<path fill="none" stroke="midnightblue" d="M516.147,-76.4855C531.181,-80.2873 546.959,-84.277 561.578,-87.9738"/>
<polygon fill="midnightblue" stroke="midnightblue" points="516.947,-73.0777 506.394,-74.0192 515.231,-79.8641 516.947,-73.0777"/>
</g>
<!-- Node5 -->
<g id="node5" class="node"><title>Node5</title>
<g id="a_node5"><a xlink:href="../../d1/dbf/classview_package_1_1_view.html#a1d1a8e16ae622c0d6a66cd9c516672a6" target="_top" xlink:title="viewPackage.View.setPlay\lAction">
<polygon fill="white" stroke="black" points="732,-44 732,-74 870,-74 870,-44 732,-44"/>
<text text-anchor="start" x="740" y="-62" font-family="Helvetica,sans-Serif" font-size="10.00">viewPackage.View.setPlay</text>
<text text-anchor="middle" x="801" y="-51" font-family="Helvetica,sans-Serif" font-size="10.00">Action</text>
</a>
</g>
</g>
<!-- Node3&#45;&gt;Node5 -->
<g id="edge8" class="edge"><title>Node3&#45;&gt;Node5</title>
<path fill="none" stroke="midnightblue" d="M522.291,-59C584.428,-59 671.844,-59 731.914,-59"/>
<polygon fill="midnightblue" stroke="midnightblue" points="522.157,-55.5001 512.157,-59 522.157,-62.5001 522.157,-55.5001"/>
</g>
<!-- Node4&#45;&gt;Node5 -->
<g id="edge4" class="edge"><title>Node4&#45;&gt;Node5</title>
<path fill="none" stroke="midnightblue" d="M693.339,-85.5145C708.633,-81.7127 724.683,-77.723 739.554,-74.0262"/>
<polygon fill="midnightblue" stroke="midnightblue" points="692.279,-82.1716 683.418,-87.9808 693.967,-88.9649 692.279,-82.1716"/>
</g>
<!-- Node6 -->
<g id="node6" class="node"><title>Node6</title>
<g id="a_node6"><a xlink:href="../../dc/d2c/classview_package_1_1_button_box.html#a9756fc46a96c169ce48a1867bd2c82f5" target="_top" xlink:title="viewPackage.ButtonBox.make\lButtonBox">
<polygon fill="white" stroke="black" points="906,-22 906,-52 1066,-52 1066,-22 906,-22"/>
<text text-anchor="start" x="914" y="-40" font-family="Helvetica,sans-Serif" font-size="10.00">viewPackage.ButtonBox.make</text>
<text text-anchor="middle" x="986" y="-29" font-family="Helvetica,sans-Serif" font-size="10.00">ButtonBox</text>
</a>
</g>
</g>
<!-- Node5&#45;&gt;Node6 -->
<g id="edge5" class="edge"><title>Node5&#45;&gt;Node6</title>
<path fill="none" stroke="midnightblue" d="M880.303,-49.5865C888.711,-48.5757 897.27,-47.5467 905.69,-46.5346"/>
<polygon fill="midnightblue" stroke="midnightblue" points="879.653,-46.1394 870.142,-50.808 880.489,-53.0893 879.653,-46.1394"/>
</g>
<!-- Node7 -->
<g id="node7" class="node"><title>Node7</title>
<g id="a_node7"><a xlink:href="../../d1/dbf/classview_package_1_1_view.html#af6f6887ef253ae0fba2634e367b95312" target="_top" xlink:title="viewPackage.View.initialize">
<polygon fill="white" stroke="black" points="1102,-27.5 1102,-46.5 1244,-46.5 1244,-27.5 1102,-27.5"/>
<text text-anchor="middle" x="1173" y="-34.5" font-family="Helvetica,sans-Serif" font-size="10.00">viewPackage.View.initialize</text>
</a>
</g>
</g>
<!-- Node6&#45;&gt;Node7 -->
<g id="edge6" class="edge"><title>Node6&#45;&gt;Node7</title>
<path fill="none" stroke="midnightblue" d="M1076.33,-37C1084.93,-37 1093.57,-37 1101.95,-37"/>
<polygon fill="midnightblue" stroke="midnightblue" points="1076.26,-33.5001 1066.26,-37 1076.26,-40.5001 1076.26,-33.5001"/>
</g>
<!-- Node8 -->
<g id="node8" class="node"><title>Node8</title>
<g id="a_node8"><a xlink:href="../../d9/df7/classcontroller_1_1_controller.html#a4dbfef3e3e30bd1bb84df7a6b24ad1e7" target="_top" xlink:title="controller.Controller.Controller">
<polygon fill="white" stroke="black" points="1280.5,-27.5 1280.5,-46.5 1439.5,-46.5 1439.5,-27.5 1280.5,-27.5"/>
<text text-anchor="middle" x="1360" y="-34.5" font-family="Helvetica,sans-Serif" font-size="10.00">controller.Controller.Controller</text>
</a>
</g>
</g>
<!-- Node7&#45;&gt;Node8 -->
<g id="edge7" class="edge"><title>Node7&#45;&gt;Node8</title>
<path fill="none" stroke="midnightblue" d="M1254.31,-37C1263,-37 1271.83,-37 1280.49,-37"/>
<polygon fill="midnightblue" stroke="midnightblue" points="1254.2,-33.5001 1244.2,-37 1254.2,-40.5001 1254.2,-33.5001"/>
</g>
<!-- Node9&#45;&gt;Node6 -->
<g id="edge10" class="edge"><title>Node9&#45;&gt;Node6</title>
<path fill="none" stroke="midnightblue" d="M703.047,-19.8647C763.428,-23.5343 845.847,-28.5432 905.977,-32.1975"/>
<polygon fill="midnightblue" stroke="midnightblue" points="702.991,-16.355 692.797,-19.2418 702.566,-23.3421 702.991,-16.355"/>
</g>
</g>
</svg>
