<?xml version="1.0" encoding="UTF-8" standalone="no"?>
<!DOCTYPE svg PUBLIC "-//W3C//DTD SVG 1.1//EN"
 "http://www.w3.org/Graphics/SVG/1.1/DTD/svg11.dtd">
<!-- Generated by graphviz version 2.36.0 (20140111.2315)
 -->
<!-- Title: model.Simulation.calculateNewCellState Pages: 1 -->
<svg width="1630pt" height="126pt"
 viewBox="0.00 0.00 1630.00 126.00" xmlns="http://www.w3.org/2000/svg" xmlns:xlink="http://www.w3.org/1999/xlink">
<g id="graph0" class="graph" transform="scale(1 1) rotate(0) translate(4 122)">
<title>model.Simulation.calculateNewCellState</title>
<polygon fill="white" stroke="none" points="-4,4 -4,-122 1626,-122 1626,4 -4,4"/>
<!-- Node1 -->
<g id="node1" class="node"><title>Node1</title>
<polygon fill="#bfbfbf" stroke="black" points="0,-22 0,-52 146,-52 146,-22 0,-22"/>
<text text-anchor="start" x="8" y="-40" font-family="Helvetica,sans-Serif" font-size="10.00">model.Simulation.calculate</text>
<text text-anchor="middle" x="73" y="-29" font-family="Helvetica,sans-Serif" font-size="10.00">NewCellState</text>
</g>
<!-- Node2 -->
<g id="node2" class="node"><title>Node2</title>
<g id="a_node2"><a xlink:href="../../d2/d17/classmodel_1_1_simulation.html#a4fc716803ab2e78743a529a24a8c601f" target="_top" xlink:title="model.Simulation.makeNextGrid">
<polygon fill="white" stroke="black" points="182.5,-27.5 182.5,-46.5 355.5,-46.5 355.5,-27.5 182.5,-27.5"/>
<text text-anchor="middle" x="269" y="-34.5" font-family="Helvetica,sans-Serif" font-size="10.00">model.Simulation.makeNextGrid</text>
</a>
</g>
</g>
<!-- Node1&#45;&gt;Node2 -->
<g id="edge1" class="edge"><title>Node1&#45;&gt;Node2</title>
<path fill="none" stroke="midnightblue" d="M156.252,-37C164.859,-37 173.625,-37 182.269,-37"/>
<polygon fill="midnightblue" stroke="midnightblue" points="156.238,-33.5001 146.238,-37 156.238,-40.5001 156.238,-33.5001"/>
</g>
<!-- Node3 -->
<g id="node3" class="node"><title>Node3</title>
<g id="a_node3"><a xlink:href="../../d9/df7/classcontroller_1_1_controller.html#aa8fee9e96592dabbb151850b562d9ec0" target="_top" xlink:title="controller.Controller.step\lSimulation">
<polygon fill="white" stroke="black" points="392,-22 392,-52 526,-52 526,-22 392,-22"/>
<text text-anchor="start" x="400" y="-40" font-family="Helvetica,sans-Serif" font-size="10.00">controller.Controller.step</text>
<text text-anchor="middle" x="459" y="-29" font-family="Helvetica,sans-Serif" font-size="10.00">Simulation</text>
</a>
</g>
</g>
<!-- Node2&#45;&gt;Node3 -->
<g id="edge2" class="edge"><title>Node2&#45;&gt;Node3</title>
<path fill="none" stroke="midnightblue" d="M365.987,-37C374.716,-37 383.422,-37 391.804,-37"/>
<polygon fill="midnightblue" stroke="midnightblue" points="365.748,-33.5001 355.748,-37 365.748,-40.5001 365.748,-33.5001"/>
</g>
<!-- Node4 -->
<g id="node4" class="node"><title>Node4</title>
<g id="a_node4"><a xlink:href="../../d9/df7/classcontroller_1_1_controller.html#ae859ed2fba4e22871428ec51f7d4c07d" target="_top" xlink:title="controller.Controller.play\lSimulation">
<polygon fill="white" stroke="black" points="562,-44 562,-74 694,-74 694,-44 562,-44"/>
<text text-anchor="start" x="570" y="-62" font-family="Helvetica,sans-Serif" font-size="10.00">controller.Controller.play</text>
<text text-anchor="middle" x="628" y="-51" font-family="Helvetica,sans-Serif" font-size="10.00">Simulation</text>
</a>
</g>
</g>
<!-- Node3&#45;&gt;Node4 -->
<g id="edge3" class="edge"><title>Node3&#45;&gt;Node4</title>
<path fill="none" stroke="midnightblue" d="M536.019,-47.0145C544.612,-48.1465 553.312,-49.2925 561.75,-50.4041"/>
<polygon fill="midnightblue" stroke="midnightblue" points="536.374,-43.5311 526.003,-45.695 535.46,-50.4712 536.374,-43.5311"/>
</g>
<!-- Node10 -->
<g id="node10" class="node"><title>Node10</title>
<g id="a_node10"><a xlink:href="../../d1/dbf/classview_package_1_1_view.html#acec783d5c91d6cb27da271e46588e79f" target="_top" xlink:title="viewPackage.View.setStep\lSimulation">
<polygon fill="white" stroke="black" points="733.5,-0 733.5,-30 874.5,-30 874.5,-0 733.5,-0"/>
<text text-anchor="start" x="741.5" y="-18" font-family="Helvetica,sans-Serif" font-size="10.00">viewPackage.View.setStep</text>
<text text-anchor="middle" x="804" y="-7" font-family="Helvetica,sans-Serif" font-size="10.00">Simulation</text>
</a>
</g>
</g>
<!-- Node3&#45;&gt;Node10 -->
<g id="edge10" class="edge"><title>Node3&#45;&gt;Node10</title>
<path fill="none" stroke="midnightblue" d="M536.13,-32.117C595.05,-28.3379 675.99,-23.1464 733.24,-19.4744"/>
<polygon fill="midnightblue" stroke="midnightblue" points="535.889,-28.6252 526.134,-32.7582 536.337,-35.6108 535.889,-28.6252"/>
</g>
<!-- Node5 -->
<g id="node5" class="node"><title>Node5</title>
<g id="a_node5"><a xlink:href="../../d9/df7/classcontroller_1_1_controller.html#a37d9d1d84d304a9d94d7666322b7c6ab" target="_top" xlink:title="controller.Controller.change\lSpeed">
<polygon fill="white" stroke="black" points="730,-88 730,-118 878,-118 878,-88 730,-88"/>
<text text-anchor="start" x="738" y="-106" font-family="Helvetica,sans-Serif" font-size="10.00">controller.Controller.change</text>
<text text-anchor="middle" x="804" y="-95" font-family="Helvetica,sans-Serif" font-size="10.00">Speed</text>
</a>
</g>
</g>
<!-- Node4&#45;&gt;Node5 -->
<g id="edge4" class="edge"><title>Node4&#45;&gt;Node5</title>
<path fill="none" stroke="midnightblue" d="M698.147,-76.4855C713.181,-80.2873 728.959,-84.277 743.578,-87.9738"/>
<polygon fill="midnightblue" stroke="midnightblue" points="698.947,-73.0777 688.394,-74.0192 697.231,-79.8641 698.947,-73.0777"/>
</g>
<!-- Node6 -->
<g id="node6" class="node"><title>Node6</title>
<g id="a_node6"><a xlink:href="../../d1/dbf/classview_package_1_1_view.html#a1d1a8e16ae622c0d6a66cd9c516672a6" target="_top" xlink:title="viewPackage.View.setPlay\lAction">
<polygon fill="white" stroke="black" points="914,-44 914,-74 1052,-74 1052,-44 914,-44"/>
<text text-anchor="start" x="922" y="-62" font-family="Helvetica,sans-Serif" font-size="10.00">viewPackage.View.setPlay</text>
<text text-anchor="middle" x="983" y="-51" font-family="Helvetica,sans-Serif" font-size="10.00">Action</text>
</a>
</g>
</g>
<!-- Node4&#45;&gt;Node6 -->
<g id="edge9" class="edge"><title>Node4&#45;&gt;Node6</title>
<path fill="none" stroke="midnightblue" d="M704.291,-59C766.428,-59 853.844,-59 913.914,-59"/>
<polygon fill="midnightblue" stroke="midnightblue" points="704.157,-55.5001 694.157,-59 704.157,-62.5001 704.157,-55.5001"/>
</g>
<!-- Node5&#45;&gt;Node6 -->
<g id="edge5" class="edge"><title>Node5&#45;&gt;Node6</title>
<path fill="none" stroke="midnightblue" d="M875.339,-85.5145C890.633,-81.7127 906.683,-77.723 921.554,-74.0262"/>
<polygon fill="midnightblue" stroke="midnightblue" points="874.279,-82.1716 865.418,-87.9808 875.967,-88.9649 874.279,-82.1716"/>
</g>
<!-- Node7 -->
<g id="node7" class="node"><title>Node7</title>
<g id="a_node7"><a xlink:href="../../dc/d2c/classview_package_1_1_button_box.html#a9756fc46a96c169ce48a1867bd2c82f5" target="_top" xlink:title="viewPackage.ButtonBox.make\lButtonBox">
<polygon fill="white" stroke="black" points="1088,-22 1088,-52 1248,-52 1248,-22 1088,-22"/>
<text text-anchor="start" x="1096" y="-40" font-family="Helvetica,sans-Serif" font-size="10.00">viewPackage.ButtonBox.make</text>
<text text-anchor="middle" x="1168" y="-29" font-family="Helvetica,sans-Serif" font-size="10.00">ButtonBox</text>
</a>
</g>
</g>
<!-- Node6&#45;&gt;Node7 -->
<g id="edge6" class="edge"><title>Node6&#45;&gt;Node7</title>
<path fill="none" stroke="midnightblue" d="M1062.3,-49.5865C1070.71,-48.5757 1079.27,-47.5467 1087.69,-46.5346"/>
<polygon fill="midnightblue" stroke="midnightblue" points="1061.65,-46.1394 1052.14,-50.808 1062.49,-53.0893 1061.65,-46.1394"/>
</g>
<!-- Node8 -->
<g id="node8" class="node"><title>Node8</title>
<g id="a_node8"><a xlink:href="../../d1/dbf/classview_package_1_1_view.html#af6f6887ef253ae0fba2634e367b95312" target="_top" xlink:title="viewPackage.View.initialize">
<polygon fill="white" stroke="black" points="1284,-27.5 1284,-46.5 1426,-46.5 1426,-27.5 1284,-27.5"/>
<text text-anchor="middle" x="1355" y="-34.5" font-family="Helvetica,sans-Serif" font-size="10.00">viewPackage.View.initialize</text>
</a>
</g>
</g>
<!-- Node7&#45;&gt;Node8 -->
<g id="edge7" class="edge"><title>Node7&#45;&gt;Node8</title>
<path fill="none" stroke="midnightblue" d="M1258.33,-37C1266.93,-37 1275.57,-37 1283.95,-37"/>
<polygon fill="midnightblue" stroke="midnightblue" points="1258.26,-33.5001 1248.26,-37 1258.26,-40.5001 1258.26,-33.5001"/>
</g>
<!-- Node9 -->
<g id="node9" class="node"><title>Node9</title>
<g id="a_node9"><a xlink:href="../../d9/df7/classcontroller_1_1_controller.html#a4dbfef3e3e30bd1bb84df7a6b24ad1e7" target="_top" xlink:title="controller.Controller.Controller">
<polygon fill="white" stroke="black" points="1462.5,-27.5 1462.5,-46.5 1621.5,-46.5 1621.5,-27.5 1462.5,-27.5"/>
<text text-anchor="middle" x="1542" y="-34.5" font-family="Helvetica,sans-Serif" font-size="10.00">controller.Controller.Controller</text>
</a>
</g>
</g>
<!-- Node8&#45;&gt;Node9 -->
<g id="edge8" class="edge"><title>Node8&#45;&gt;Node9</title>
<path fill="none" stroke="midnightblue" d="M1436.31,-37C1445,-37 1453.83,-37 1462.49,-37"/>
<polygon fill="midnightblue" stroke="midnightblue" points="1436.2,-33.5001 1426.2,-37 1436.2,-40.5001 1436.2,-33.5001"/>
</g>
<!-- Node10&#45;&gt;Node7 -->
<g id="edge11" class="edge"><title>Node10&#45;&gt;Node7</title>
<path fill="none" stroke="midnightblue" d="M885.047,-19.8647C945.428,-23.5343 1027.85,-28.5432 1087.98,-32.1975"/>
<polygon fill="midnightblue" stroke="midnightblue" points="884.991,-16.355 874.797,-19.2418 884.566,-23.3421 884.991,-16.355"/>
</g>
</g>
</svg>
