<?xml version="1.0" encoding="UTF-8" standalone="no"?>
<!DOCTYPE svg PUBLIC "-//W3C//DTD SVG 1.1//EN"
 "http://www.w3.org/Graphics/SVG/1.1/DTD/svg11.dtd">
<!-- Generated by graphviz version 2.36.0 (20140111.2315)
 -->
<!-- Title: model.Simulation.getCurrentGrid Pages: 1 -->
<svg width="1220pt" height="427pt"
 viewBox="0.00 0.00 1220.00 427.00" xmlns="http://www.w3.org/2000/svg" xmlns:xlink="http://www.w3.org/1999/xlink">
<g id="graph0" class="graph" transform="scale(1 1) rotate(0) translate(4 423)">
<title>model.Simulation.getCurrentGrid</title>
<polygon fill="white" stroke="none" points="-4,4 -4,-423 1216,-423 1216,4 -4,4"/>
<!-- Node1 -->
<g id="node1" class="node"><title>Node1</title>
<polygon fill="#bfbfbf" stroke="black" points="0.5,-203.5 0.5,-222.5 175.5,-222.5 175.5,-203.5 0.5,-203.5"/>
<text text-anchor="middle" x="88" y="-210.5" font-family="Helvetica,sans-Serif" font-size="10.00">model.Simulation.getCurrentGrid</text>
</g>
<!-- Node2 -->
<g id="node2" class="node"><title>Node2</title>
<g id="a_node2"><a xlink:href="../../da/df2/classmodel_1_1_game_life_simulation.html#abf884de11d364a4e30c22d8f108c2c55" target="_top" xlink:title="model.GameLifeSimulation.calculate\lNewCellState">
<polygon fill="white" stroke="black" points="219,-389 219,-419 411,-419 411,-389 219,-389"/>
<text text-anchor="start" x="227" y="-407" font-family="Helvetica,sans-Serif" font-size="10.00">model.GameLifeSimulation.calculate</text>
<text text-anchor="middle" x="315" y="-396" font-family="Helvetica,sans-Serif" font-size="10.00">NewCellState</text>
</a>
</g>
</g>
<!-- Node1&#45;&gt;Node2 -->
<g id="edge1" class="edge"><title>Node1&#45;&gt;Node2</title>
<path fill="none" stroke="midnightblue" d="M97.4544,-231.765C114.119,-266.528 154.637,-340.863 212,-379 217.846,-382.886 224.24,-386.169 230.886,-388.942"/>
<polygon fill="midnightblue" stroke="midnightblue" points="100.624,-230.281 93.2233,-222.7 94.2814,-233.242 100.624,-230.281"/>
</g>
<!-- Node3 -->
<g id="node3" class="node"><title>Node3</title>
<g id="a_node3"><a xlink:href="../../dc/d98/classmodel_1_1_segregation_simulation.html#ac32e4a0070545825aab876954e6f68e5" target="_top" xlink:title="model.SegregationSimulation.calculate\lNewCellState">
<polygon fill="white" stroke="black" points="212.5,-340 212.5,-370 417.5,-370 417.5,-340 212.5,-340"/>
<text text-anchor="start" x="220.5" y="-358" font-family="Helvetica,sans-Serif" font-size="10.00">model.SegregationSimulation.calculate</text>
<text text-anchor="middle" x="315" y="-347" font-family="Helvetica,sans-Serif" font-size="10.00">NewCellState</text>
</a>
</g>
</g>
<!-- Node1&#45;&gt;Node3 -->
<g id="edge2" class="edge"><title>Node1&#45;&gt;Node3</title>
<path fill="none" stroke="midnightblue" d="M103.493,-230.463C124.803,-255.044 166.965,-299.671 212,-325 222.699,-331.017 234.722,-335.933 246.66,-339.913"/>
<polygon fill="midnightblue" stroke="midnightblue" points="106.004,-228.012 96.855,-222.669 100.675,-232.551 106.004,-228.012"/>
</g>
<!-- Node4 -->
<g id="node4" class="node"><title>Node4</title>
<g id="a_node4"><a xlink:href="../../db/ddc/classmodel_1_1_wator_simulation.html#a35418540015ff541b0e3940d9df2f0d5" target="_top" xlink:title="model.WatorSimulation.can\lReproduce">
<polygon fill="white" stroke="black" points="241,-176 241,-206 389,-206 389,-176 241,-176"/>
<text text-anchor="start" x="249" y="-194" font-family="Helvetica,sans-Serif" font-size="10.00">model.WatorSimulation.can</text>
<text text-anchor="middle" x="315" y="-183" font-family="Helvetica,sans-Serif" font-size="10.00">Reproduce</text>
</a>
</g>
</g>
<!-- Node1&#45;&gt;Node4 -->
<g id="edge3" class="edge"><title>Node1&#45;&gt;Node4</title>
<path fill="none" stroke="midnightblue" d="M185.851,-203.53C204.308,-201.725 223.338,-199.865 240.902,-198.147"/>
<polygon fill="midnightblue" stroke="midnightblue" points="185.281,-200.069 175.669,-204.526 185.962,-207.036 185.281,-200.069"/>
</g>
<!-- Node6 -->
<g id="node6" class="node"><title>Node6</title>
<g id="a_node6"><a xlink:href="../../db/ddc/classmodel_1_1_wator_simulation.html#a2205211b8ee8357a4687fce7bb25123a" target="_top" xlink:title="model.WatorSimulation.shark\lAction">
<polygon fill="white" stroke="black" points="860.5,-197 860.5,-227 1017.5,-227 1017.5,-197 860.5,-197"/>
<text text-anchor="start" x="868.5" y="-215" font-family="Helvetica,sans-Serif" font-size="10.00">model.WatorSimulation.shark</text>
<text text-anchor="middle" x="939" y="-204" font-family="Helvetica,sans-Serif" font-size="10.00">Action</text>
</a>
</g>
</g>
<!-- Node1&#45;&gt;Node6 -->
<g id="edge20" class="edge"><title>Node1&#45;&gt;Node6</title>
<path fill="none" stroke="midnightblue" d="M145.779,-224.413C166.543,-228.253 190.268,-232.256 212,-235 481.857,-269.078 554.82,-273.069 824,-234 837.465,-232.046 851.755,-229.593 865.498,-227.039"/>
<polygon fill="midnightblue" stroke="midnightblue" points="146.319,-220.953 135.845,-222.546 145.027,-227.833 146.319,-220.953"/>
</g>
<!-- Node7 -->
<g id="node7" class="node"><title>Node7</title>
<g id="a_node7"><a xlink:href="../../db/ddc/classmodel_1_1_wator_simulation.html#a71ffa6547eb00615e94ba1d708a08281" target="_top" xlink:title="model.WatorSimulation.make\lNextGrid">
<polygon fill="white" stroke="black" points="1054,-197 1054,-227 1212,-227 1212,-197 1054,-197"/>
<text text-anchor="start" x="1062" y="-215" font-family="Helvetica,sans-Serif" font-size="10.00">model.WatorSimulation.make</text>
<text text-anchor="middle" x="1133" y="-204" font-family="Helvetica,sans-Serif" font-size="10.00">NextGrid</text>
</a>
</g>
</g>
<!-- Node1&#45;&gt;Node7 -->
<g id="edge16" class="edge"><title>Node1&#45;&gt;Node7</title>
<path fill="none" stroke="midnightblue" d="M119.354,-226.666C143.893,-237.206 179.569,-251.394 212,-260 355.019,-297.953 393.031,-311 541,-311 541,-311 541,-311 746,-311 879.523,-311 1031.11,-254.731 1097.63,-227.036"/>
<polygon fill="midnightblue" stroke="midnightblue" points="120.449,-223.326 109.883,-222.542 117.654,-229.743 120.449,-223.326"/>
</g>
<!-- Node9 -->
<g id="node9" class="node"><title>Node9</title>
<g id="a_node9"><a xlink:href="../../db/ddc/classmodel_1_1_wator_simulation.html#a1d9c45bb58d3edd46f9cba1d3b479d82" target="_top" xlink:title="model.WatorSimulation.fish\lAction">
<polygon fill="white" stroke="black" points="865.5,-132 865.5,-162 1012.5,-162 1012.5,-132 865.5,-132"/>
<text text-anchor="start" x="873.5" y="-150" font-family="Helvetica,sans-Serif" font-size="10.00">model.WatorSimulation.fish</text>
<text text-anchor="middle" x="939" y="-139" font-family="Helvetica,sans-Serif" font-size="10.00">Action</text>
</a>
</g>
</g>
<!-- Node1&#45;&gt;Node9 -->
<g id="edge13" class="edge"><title>Node1&#45;&gt;Node9</title>
<path fill="none" stroke="midnightblue" d="M99.01,-194.561C116.928,-163.754 157.74,-102.847 212,-79 328.619,-27.7463 710.553,-99.1014 868.586,-131.967"/>
<polygon fill="midnightblue" stroke="midnightblue" points="95.8767,-192.992 94.009,-203.421 101.973,-196.433 95.8767,-192.992"/>
</g>
<!-- Node10 -->
<g id="node10" class="node"><title>Node10</title>
<g id="a_node10"><a xlink:href="../../db/ddc/classmodel_1_1_wator_simulation.html#a0d64d1242b4717fd5b8914b98ed36c95" target="_top" xlink:title="model.WatorSimulation.decrease\lEnergy">
<polygon fill="white" stroke="black" points="454.5,-214 454.5,-244 629.5,-244 629.5,-214 454.5,-214"/>
<text text-anchor="start" x="462.5" y="-232" font-family="Helvetica,sans-Serif" font-size="10.00">model.WatorSimulation.decrease</text>
<text text-anchor="middle" x="542" y="-221" font-family="Helvetica,sans-Serif" font-size="10.00">Energy</text>
</a>
</g>
</g>
<!-- Node1&#45;&gt;Node10 -->
<g id="edge11" class="edge"><title>Node1&#45;&gt;Node10</title>
<path fill="none" stroke="midnightblue" d="M185.66,-216.422C265.372,-219.243 377.445,-223.21 454.293,-225.931"/>
<polygon fill="midnightblue" stroke="midnightblue" points="185.733,-212.922 175.615,-216.066 185.485,-219.918 185.733,-212.922"/>
</g>
<!-- Node11 -->
<g id="node11" class="node"><title>Node11</title>
<g id="a_node11"><a xlink:href="../../db/ddc/classmodel_1_1_wator_simulation.html#adf3e1ba2978971c732bd4db24d4acdfc" target="_top" xlink:title="model.WatorSimulation.makeBaby">
<polygon fill="white" stroke="black" points="224,-137.5 224,-156.5 406,-156.5 406,-137.5 224,-137.5"/>
<text text-anchor="middle" x="315" y="-144.5" font-family="Helvetica,sans-Serif" font-size="10.00">model.WatorSimulation.makeBaby</text>
</a>
</g>
</g>
<!-- Node1&#45;&gt;Node11 -->
<g id="edge14" class="edge"><title>Node1&#45;&gt;Node11</title>
<path fill="none" stroke="midnightblue" d="M120.817,-199.452C145.373,-189.402 180.379,-175.947 212,-167 226.325,-162.947 242.01,-159.429 256.692,-156.522"/>
<polygon fill="midnightblue" stroke="midnightblue" points="119.201,-196.333 111.299,-203.392 121.878,-202.801 119.201,-196.333"/>
</g>
<!-- Node12 -->
<g id="node12" class="node"><title>Node12</title>
<g id="a_node12"><a xlink:href="../../dc/d98/classmodel_1_1_segregation_simulation.html#acb3ef4f31baad601bb96379b1225344b" target="_top" xlink:title="model.SegregationSimulation.make\lNextGrid">
<polygon fill="white" stroke="black" points="220.5,-0 220.5,-30 409.5,-30 409.5,-0 220.5,-0"/>
<text text-anchor="start" x="228.5" y="-18" font-family="Helvetica,sans-Serif" font-size="10.00">model.SegregationSimulation.make</text>
<text text-anchor="middle" x="315" y="-7" font-family="Helvetica,sans-Serif" font-size="10.00">NextGrid</text>
</a>
</g>
</g>
<!-- Node1&#45;&gt;Node12 -->
<g id="edge17" class="edge"><title>Node1&#45;&gt;Node12</title>
<path fill="none" stroke="midnightblue" d="M97.5593,-194.254C114.399,-159.482 155.197,-84.9071 212,-45 220.76,-38.8456 230.786,-33.94 241.056,-30.0332"/>
<polygon fill="midnightblue" stroke="midnightblue" points="94.3852,-192.779 93.2804,-203.316 100.715,-195.768 94.3852,-192.779"/>
</g>
<!-- Node13 -->
<g id="node13" class="node"><title>Node13</title>
<g id="a_node13"><a xlink:href="../../db/ddc/classmodel_1_1_wator_simulation.html#a53aa53cfee9794dff36ebb3292522d5a" target="_top" xlink:title="model.WatorSimulation.move\lCreature">
<polygon fill="white" stroke="black" points="236,-88 236,-118 394,-118 394,-88 236,-88"/>
<text text-anchor="start" x="244" y="-106" font-family="Helvetica,sans-Serif" font-size="10.00">model.WatorSimulation.move</text>
<text text-anchor="middle" x="315" y="-95" font-family="Helvetica,sans-Serif" font-size="10.00">Creature</text>
</a>
</g>
</g>
<!-- Node1&#45;&gt;Node13 -->
<g id="edge18" class="edge"><title>Node1&#45;&gt;Node13</title>
<path fill="none" stroke="midnightblue" d="M107.95,-196.578C131.027,-177.405 171.905,-146.027 212,-128 220.564,-124.15 229.81,-120.837 239.118,-118.001"/>
<polygon fill="midnightblue" stroke="midnightblue" points="105.4,-194.15 100.017,-203.275 109.916,-199.499 105.4,-194.15"/>
</g>
<!-- Node5 -->
<g id="node5" class="node"><title>Node5</title>
<g id="a_node5"><a xlink:href="../../db/ddc/classmodel_1_1_wator_simulation.html#af44e712c1655e6d268a32bbd1c4db7d9" target="_top" xlink:title="model.WatorSimulation.move\lAndCheckBaby">
<polygon fill="white" stroke="black" points="463,-132 463,-162 621,-162 621,-132 463,-132"/>
<text text-anchor="start" x="471" y="-150" font-family="Helvetica,sans-Serif" font-size="10.00">model.WatorSimulation.move</text>
<text text-anchor="middle" x="542" y="-139" font-family="Helvetica,sans-Serif" font-size="10.00">AndCheckBaby</text>
</a>
</g>
</g>
<!-- Node4&#45;&gt;Node5 -->
<g id="edge4" class="edge"><title>Node4&#45;&gt;Node5</title>
<path fill="none" stroke="midnightblue" d="M399.033,-174.762C420.311,-170.601 443.102,-166.144 464.058,-162.046"/>
<polygon fill="midnightblue" stroke="midnightblue" points="398.193,-171.36 389.051,-176.714 399.537,-178.23 398.193,-171.36"/>
</g>
<!-- Node5&#45;&gt;Node6 -->
<g id="edge5" class="edge"><title>Node5&#45;&gt;Node6</title>
<path fill="none" stroke="midnightblue" d="M627.226,-163.933C640.194,-166.396 653.443,-168.83 666,-171 731.41,-182.306 805.979,-193.422 860.476,-201.221"/>
<polygon fill="midnightblue" stroke="midnightblue" points="627.86,-160.491 617.38,-162.048 626.543,-167.366 627.86,-160.491"/>
</g>
<!-- Node8 -->
<g id="node8" class="node"><title>Node8</title>
<g id="a_node8"><a xlink:href="../../db/ddc/classmodel_1_1_wator_simulation.html#ab1a02dcfc6d897735f1b90c728668aee" target="_top" xlink:title="model.WatorSimulation.move\lIfEmptyAndCheckBaby">
<polygon fill="white" stroke="black" points="666,-132 666,-162 824,-162 824,-132 666,-132"/>
<text text-anchor="start" x="674" y="-150" font-family="Helvetica,sans-Serif" font-size="10.00">model.WatorSimulation.move</text>
<text text-anchor="middle" x="745" y="-139" font-family="Helvetica,sans-Serif" font-size="10.00">IfEmptyAndCheckBaby</text>
</a>
</g>
</g>
<!-- Node5&#45;&gt;Node8 -->
<g id="edge7" class="edge"><title>Node5&#45;&gt;Node8</title>
<path fill="none" stroke="midnightblue" d="M631.339,-147C642.857,-147 654.592,-147 665.926,-147"/>
<polygon fill="midnightblue" stroke="midnightblue" points="631.287,-143.5 621.287,-147 631.287,-150.5 631.287,-143.5"/>
</g>
<!-- Node6&#45;&gt;Node7 -->
<g id="edge6" class="edge"><title>Node6&#45;&gt;Node7</title>
<path fill="none" stroke="midnightblue" d="M1027.72,-212C1036.43,-212 1045.25,-212 1053.86,-212"/>
<polygon fill="midnightblue" stroke="midnightblue" points="1027.54,-208.5 1017.54,-212 1027.54,-215.5 1027.54,-208.5"/>
</g>
<!-- Node8&#45;&gt;Node6 -->
<g id="edge8" class="edge"><title>Node8&#45;&gt;Node6</title>
<path fill="none" stroke="midnightblue" d="M800.24,-165.362C829.665,-175.324 865.592,-187.487 893.378,-196.894"/>
<polygon fill="midnightblue" stroke="midnightblue" points="801.126,-161.967 790.531,-162.076 798.881,-168.598 801.126,-161.967"/>
</g>
<!-- Node8&#45;&gt;Node9 -->
<g id="edge9" class="edge"><title>Node8&#45;&gt;Node9</title>
<path fill="none" stroke="midnightblue" d="M834.369,-147C844.703,-147 855.154,-147 865.242,-147"/>
<polygon fill="midnightblue" stroke="midnightblue" points="834.094,-143.5 824.094,-147 834.094,-150.5 834.094,-143.5"/>
</g>
<!-- Node9&#45;&gt;Node7 -->
<g id="edge10" class="edge"><title>Node9&#45;&gt;Node7</title>
<path fill="none" stroke="midnightblue" d="M994.24,-165.362C1023.67,-175.324 1059.59,-187.487 1087.38,-196.894"/>
<polygon fill="midnightblue" stroke="midnightblue" points="995.126,-161.967 984.531,-162.076 992.881,-168.598 995.126,-161.967"/>
</g>
<!-- Node10&#45;&gt;Node6 -->
<g id="edge12" class="edge"><title>Node10&#45;&gt;Node6</title>
<path fill="none" stroke="midnightblue" d="M639.947,-224.828C707.738,-221.91 797.083,-218.065 860.217,-215.348"/>
<polygon fill="midnightblue" stroke="midnightblue" points="639.525,-221.342 629.684,-225.269 639.826,-228.336 639.525,-221.342"/>
</g>
<!-- Node11&#45;&gt;Node5 -->
<g id="edge15" class="edge"><title>Node11&#45;&gt;Node5</title>
<path fill="none" stroke="midnightblue" d="M416.373,-147C431.913,-147 447.764,-147 462.723,-147"/>
<polygon fill="midnightblue" stroke="midnightblue" points="416.22,-143.5 406.22,-147 416.22,-150.5 416.22,-143.5"/>
</g>
<!-- Node13&#45;&gt;Node5 -->
<g id="edge19" class="edge"><title>Node13&#45;&gt;Node5</title>
<path fill="none" stroke="midnightblue" d="M402.644,-119.944C422.909,-123.907 444.357,-128.101 464.161,-131.974"/>
<polygon fill="midnightblue" stroke="midnightblue" points="403.289,-116.504 392.803,-118.019 401.945,-123.373 403.289,-116.504"/>
</g>
</g>
</svg>
