<?xml version="1.0" encoding="UTF-8" standalone="no"?>
<!DOCTYPE svg PUBLIC "-//W3C//DTD SVG 1.1//EN"
 "http://www.w3.org/Graphics/SVG/1.1/DTD/svg11.dtd">
<!-- Generated by graphviz version 2.36.0 (20140111.2315)
 -->
<!-- Title: model.Simulation.getNextGrid Pages: 1 -->
<!--zoomable 468 -->
<svg id="main" version="1.1" xmlns="http://www.w3.org/2000/svg" xmlns:xlink="http://www.w3.org/1999/xlink" xml:space="preserve" onload="init(evt)">
<style type="text/css"><![CDATA[
.edge:hover path { stroke: red; }
.edge:hover polygon { stroke: red; fill: red; }
]]></style>
<script type="text/javascript"><![CDATA[
var edges = document.getElementsByTagName('g');
if (edges && edges.length) {
  for (var i=0;i<edges.length;i++) {
    if (edges[i].id.substr(0,4)=='edge') {
      edges[i].setAttribute('class','edge');
    }
  }
}
]]></script>
        <defs>
                <circle id="rim" cx="0" cy="0" r="7"/>
                <circle id="rim2" cx="0" cy="0" r="3.5"/>
                <g id="zoomPlus">
                        <use xlink:href="#rim" fill="#404040">
                                <set attributeName="fill" to="#808080" begin="zoomplus.mouseover" end="zoomplus.mouseout"/>
                        </use>
                        <path d="M-4,0h8M0,-4v8" fill="none" stroke="white" stroke-width="1.5" pointer-events="none"/>
                </g>
                <g id="zoomMin">
                        <use xlink:href="#rim" fill="#404040">
                                <set attributeName="fill" to="#808080" begin="zoomminus.mouseover" end="zoomminus.mouseout"/>
                        </use>
                        <path d="M-4,0h8" fill="none" stroke="white" stroke-width="1.5" pointer-events="none"/>
                </g>
                <g id="dirArrow">
                        <path fill="none" stroke="white" stroke-width="1.5" d="M0,-3.0v7 M-2.5,-0.5L0,-3.0L2.5,-0.5"/>
                </g>
               <g id="resetDef">
                       <use xlink:href="#rim2" fill="#404040">
                               <set attributeName="fill" to="#808080" begin="reset.mouseover" end="reset.mouseout"/>
                       </use>
               </g>
        </defs>

<script type="text/javascript">
var viewWidth = 1192;
var viewHeight = 468;
var sectionId = 'dynsection-4';
</script>
<script xlink:href="../../svgpan.js"/>
<svg id="graph" class="graph">
<g id="viewport">
<title>model.Simulation.getNextGrid</title>
<polygon fill="white" stroke="none" points="-4,4 -4,-464.097 1188,-464.097 1188,4 -4,4"/>
<!-- Node1 -->
<g id="node1" class="node"><title>Node1</title>
<polygon fill="#bfbfbf" stroke="black" points="0.5,-230.786 0.5,-249.786 161.5,-249.786 161.5,-230.786 0.5,-230.786"/>
<text text-anchor="middle" x="81" y="-237.786" font-family="Helvetica,sans-Serif" font-size="10.00">model.Simulation.getNextGrid</text>
</g>
<!-- Node2 -->
<g id="node2" class="node"><title>Node2</title>
<g id="a_node2"><a xlink:href="../../db/ddc/classmodel_1_1_wator_simulation.html#a0d64d1242b4717fd5b8914b98ed36c95" target="_top" xlink:title="model.WatorSimulation.decrease\lEnergy">
<polygon fill="white" stroke="black" points="416.5,-312.286 416.5,-342.286 591.5,-342.286 591.5,-312.286 416.5,-312.286"/>
<text text-anchor="start" x="424.5" y="-330.286" font-family="Helvetica,sans-Serif" font-size="10.00">model.WatorSimulation.decrease</text>
<text text-anchor="middle" x="504" y="-319.286" font-family="Helvetica,sans-Serif" font-size="10.00">Energy</text>
</a>
</g>
</g>
<!-- Node1&#45;&gt;Node2 -->
<g id="edge1" class="edge"><title>Node1&#45;&gt;Node2</title>
<path fill="none" stroke="midnightblue" d="M93.2842,-258.723C111.385,-286.303 149.819,-337.208 198,-357.286 287.877,-394.74 405.113,-363.317 464.667,-342.35"/>
<polygon fill="midnightblue" stroke="midnightblue" points="96.0711,-256.583 87.7471,-250.029 90.1669,-260.344 96.0711,-256.583"/>
</g>
<!-- Node3 -->
<g id="node3" class="node"><title>Node3</title>
<g id="a_node3"><a xlink:href="../../db/ddc/classmodel_1_1_wator_simulation.html#a2205211b8ee8357a4687fce7bb25123a" target="_top" xlink:title="model.WatorSimulation.shark\lAction">
<polygon fill="white" stroke="black" points="832.5,-222.286 832.5,-252.286 989.5,-252.286 989.5,-222.286 832.5,-222.286"/>
<text text-anchor="start" x="840.5" y="-240.286" font-family="Helvetica,sans-Serif" font-size="10.00">model.WatorSimulation.shark</text>
<text text-anchor="middle" x="911" y="-229.286" font-family="Helvetica,sans-Serif" font-size="10.00">Action</text>
</a>
</g>
</g>
<!-- Node1&#45;&gt;Node3 -->
<g id="edge24" class="edge"><title>Node1&#45;&gt;Node3</title>
<path fill="none" stroke="midnightblue" d="M90.7257,-258.898C106.772,-290.62 144.311,-354.163 198,-379.286 448.305,-496.415 792.116,-308.758 885.669,-252.466"/>
<polygon fill="midnightblue" stroke="midnightblue" points="93.8161,-257.251 86.2777,-249.806 87.5282,-260.327 93.8161,-257.251"/>
</g>
<!-- Node4 -->
<g id="node4" class="node"><title>Node4</title>
<g id="a_node4"><a xlink:href="../../db/ddc/classmodel_1_1_wator_simulation.html#a71ffa6547eb00615e94ba1d708a08281" target="_top" xlink:title="model.WatorSimulation.make\lNextGrid">
<polygon fill="white" stroke="black" points="1026,-222.286 1026,-252.286 1184,-252.286 1184,-222.286 1026,-222.286"/>
<text text-anchor="start" x="1034" y="-240.286" font-family="Helvetica,sans-Serif" font-size="10.00">model.WatorSimulation.make</text>
<text text-anchor="middle" x="1105" y="-229.286" font-family="Helvetica,sans-Serif" font-size="10.00">NextGrid</text>
</a>
</g>
</g>
<!-- Node1&#45;&gt;Node4 -->
<g id="edge15" class="edge"><title>Node1&#45;&gt;Node4</title>
<path fill="none" stroke="midnightblue" d="M88.9424,-259.647C103.138,-296.152 139.199,-374.765 198,-411.286 314.239,-483.482 366.165,-453.286 503,-453.286 503,-453.286 503,-453.286 713,-453.286 879.348,-453.286 1041.44,-301.641 1089.62,-252.475"/>
<polygon fill="midnightblue" stroke="midnightblue" points="92.1679,-258.28 85.3768,-250.148 85.6144,-260.74 92.1679,-258.28"/>
</g>
<!-- Node5 -->
<g id="node5" class="node"><title>Node5</title>
<g id="a_node5"><a xlink:href="../../db/ddc/classmodel_1_1_wator_simulation.html#a1d9c45bb58d3edd46f9cba1d3b479d82" target="_top" xlink:title="model.WatorSimulation.fish\lAction">
<polygon fill="white" stroke="black" points="837.5,-109.286 837.5,-139.286 984.5,-139.286 984.5,-109.286 837.5,-109.286"/>
<text text-anchor="start" x="845.5" y="-127.286" font-family="Helvetica,sans-Serif" font-size="10.00">model.WatorSimulation.fish</text>
<text text-anchor="middle" x="911" y="-116.286" font-family="Helvetica,sans-Serif" font-size="10.00">Action</text>
</a>
</g>
</g>
<!-- Node1&#45;&gt;Node5 -->
<g id="edge4" class="edge"><title>Node1&#45;&gt;Node5</title>
<path fill="none" stroke="midnightblue" d="M87.2847,-220.708C99.2516,-180.76 132.602,-90.5739 198,-54.2861 430.963,74.9807 773.398,-61.5196 878.3,-109.173"/>
<polygon fill="midnightblue" stroke="midnightblue" points="83.8528,-219.979 84.4677,-230.556 90.5829,-221.905 83.8528,-219.979"/>
</g>
<!-- Node6 -->
<g id="node6" class="node"><title>Node6</title>
<g id="a_node6"><a xlink:href="../../db/ddc/classmodel_1_1_wator_simulation.html#ad7ba22a6c88c4944182c8a5ba53366fb" target="_top" xlink:title="model.WatorSimulation.increase\lBreedingTime">
<polygon fill="white" stroke="black" points="203.5,-105.286 203.5,-135.286 374.5,-135.286 374.5,-105.286 203.5,-105.286"/>
<text text-anchor="start" x="211.5" y="-123.286" font-family="Helvetica,sans-Serif" font-size="10.00">model.WatorSimulation.increase</text>
<text text-anchor="middle" x="289" y="-112.286" font-family="Helvetica,sans-Serif" font-size="10.00">BreedingTime</text>
</a>
</g>
</g>
<!-- Node1&#45;&gt;Node6 -->
<g id="edge6" class="edge"><title>Node1&#45;&gt;Node6</title>
<path fill="none" stroke="midnightblue" d="M99.4435,-223.642C121.056,-203.793 159.727,-170.74 198,-150.286 208.894,-144.464 221.13,-139.478 232.986,-135.339"/>
<polygon fill="midnightblue" stroke="midnightblue" points="96.9616,-221.17 92.032,-230.549 101.734,-226.292 96.9616,-221.17"/>
</g>
<!-- Node7 -->
<g id="node7" class="node"><title>Node7</title>
<g id="a_node7"><a xlink:href="../../db/ddc/classmodel_1_1_wator_simulation.html#ab1a02dcfc6d897735f1b90c728668aee" target="_top" xlink:title="model.WatorSimulation.move\lIfEmptyAndCheckBaby">
<polygon fill="white" stroke="black" points="633,-109.286 633,-139.286 791,-139.286 791,-109.286 633,-109.286"/>
<text text-anchor="start" x="641" y="-127.286" font-family="Helvetica,sans-Serif" font-size="10.00">model.WatorSimulation.move</text>
<text text-anchor="middle" x="712" y="-116.286" font-family="Helvetica,sans-Serif" font-size="10.00">IfEmptyAndCheckBaby</text>
</a>
</g>
</g>
<!-- Node1&#45;&gt;Node7 -->
<g id="edge19" class="edge"><title>Node1&#45;&gt;Node7</title>
<path fill="none" stroke="midnightblue" d="M90.2714,-221.369C105.835,-188.482 142.941,-121.749 198,-95.2861 357.997,-18.3875 579.236,-78.5658 669.824,-109.176"/>
<polygon fill="midnightblue" stroke="midnightblue" points="86.9514,-220.214 85.9797,-230.764 93.3185,-223.123 86.9514,-220.214"/>
</g>
<!-- Node8 -->
<g id="node8" class="node"><title>Node8</title>
<g id="a_node8"><a xlink:href="../../db/ddc/classmodel_1_1_wator_simulation.html#af44e712c1655e6d268a32bbd1c4db7d9" target="_top" xlink:title="model.WatorSimulation.move\lAndCheckBaby">
<polygon fill="white" stroke="black" points="425,-222.286 425,-252.286 583,-252.286 583,-222.286 425,-222.286"/>
<text text-anchor="start" x="433" y="-240.286" font-family="Helvetica,sans-Serif" font-size="10.00">model.WatorSimulation.move</text>
<text text-anchor="middle" x="504" y="-229.286" font-family="Helvetica,sans-Serif" font-size="10.00">AndCheckBaby</text>
</a>
</g>
</g>
<!-- Node1&#45;&gt;Node8 -->
<g id="edge16" class="edge"><title>Node1&#45;&gt;Node8</title>
<path fill="none" stroke="midnightblue" d="M172.068,-239.644C247.17,-239.109 353.095,-238.354 424.713,-237.844"/>
<polygon fill="midnightblue" stroke="midnightblue" points="171.657,-236.147 161.682,-239.718 171.707,-243.147 171.657,-236.147"/>
</g>
<!-- Node9 -->
<g id="node9" class="node"><title>Node9</title>
<g id="a_node9"><a xlink:href="../../db/ddc/classmodel_1_1_wator_simulation.html#adf3e1ba2978971c732bd4db24d4acdfc" target="_top" xlink:title="model.WatorSimulation.makeBaby">
<polygon fill="white" stroke="black" points="198,-192.786 198,-211.786 380,-211.786 380,-192.786 198,-192.786"/>
<text text-anchor="middle" x="289" y="-199.786" font-family="Helvetica,sans-Serif" font-size="10.00">model.WatorSimulation.makeBaby</text>
</a>
</g>
</g>
<!-- Node1&#45;&gt;Node9 -->
<g id="edge13" class="edge"><title>Node1&#45;&gt;Node9</title>
<path fill="none" stroke="midnightblue" d="M143.898,-228.868C173.373,-223.431 208.22,-217.003 236.262,-211.83"/>
<polygon fill="midnightblue" stroke="midnightblue" points="142.916,-225.49 133.717,-230.746 144.186,-232.374 142.916,-225.49"/>
</g>
<!-- Node10 -->
<g id="node10" class="node"><title>Node10</title>
<g id="a_node10"><a xlink:href="../../db/ddc/classmodel_1_1_wator_simulation.html#a53aa53cfee9794dff36ebb3292522d5a" target="_top" xlink:title="model.WatorSimulation.move\lCreature">
<polygon fill="white" stroke="black" points="210,-318.286 210,-348.286 368,-348.286 368,-318.286 210,-318.286"/>
<text text-anchor="start" x="218" y="-336.286" font-family="Helvetica,sans-Serif" font-size="10.00">model.WatorSimulation.move</text>
<text text-anchor="middle" x="289" y="-325.286" font-family="Helvetica,sans-Serif" font-size="10.00">Creature</text>
</a>
</g>
</g>
<!-- Node1&#45;&gt;Node10 -->
<g id="edge17" class="edge"><title>Node1&#45;&gt;Node10</title>
<path fill="none" stroke="midnightblue" d="M104.21,-255.668C126.91,-270.811 163.615,-293.725 198,-308.286 206.81,-312.017 216.34,-315.356 225.79,-318.286"/>
<polygon fill="midnightblue" stroke="midnightblue" points="105.912,-252.594 95.6674,-249.894 101.992,-258.394 105.912,-252.594"/>
</g>
<!-- Node11 -->
<g id="node11" class="node"><title>Node11</title>
<g id="a_node11"><a xlink:href="../../db/ddc/classmodel_1_1_wator_simulation.html#a1cd97f85f054403c89c42d2647ae8bbb" target="_top" xlink:title="model.WatorSimulation.remove\lCreature">
<polygon fill="white" stroke="black" points="628.5,-165.286 628.5,-195.286 795.5,-195.286 795.5,-165.286 628.5,-165.286"/>
<text text-anchor="start" x="636.5" y="-183.286" font-family="Helvetica,sans-Serif" font-size="10.00">model.WatorSimulation.remove</text>
<text text-anchor="middle" x="712" y="-172.286" font-family="Helvetica,sans-Serif" font-size="10.00">Creature</text>
</a>
</g>
</g>
<!-- Node1&#45;&gt;Node11 -->
<g id="edge20" class="edge"><title>Node1&#45;&gt;Node11</title>
<path fill="none" stroke="midnightblue" d="M104.724,-225.249C127.299,-211.272 163.446,-191.424 198,-183.286 346.461,-148.323 525.859,-158.794 628.369,-169.559"/>
<polygon fill="midnightblue" stroke="midnightblue" points="102.78,-222.337 96.2057,-230.646 106.526,-228.251 102.78,-222.337"/>
</g>
<!-- Node12 -->
<g id="node12" class="node"><title>Node12</title>
<g id="a_node12"><a xlink:href="../../db/ddc/classmodel_1_1_wator_simulation.html#a5584ef42fda846a39a016ff060fd2322" target="_top" xlink:title="model.WatorSimulation.reset\lBreedTime">
<polygon fill="white" stroke="black" points="211.5,-269.286 211.5,-299.286 366.5,-299.286 366.5,-269.286 211.5,-269.286"/>
<text text-anchor="start" x="219.5" y="-287.286" font-family="Helvetica,sans-Serif" font-size="10.00">model.WatorSimulation.reset</text>
<text text-anchor="middle" x="289" y="-276.286" font-family="Helvetica,sans-Serif" font-size="10.00">BreedTime</text>
</a>
</g>
</g>
<!-- Node1&#45;&gt;Node12 -->
<g id="edge22" class="edge"><title>Node1&#45;&gt;Node12</title>
<path fill="none" stroke="midnightblue" d="M136.645,-251.958C161.425,-257.251 191.035,-263.575 217.467,-269.221"/>
<polygon fill="midnightblue" stroke="midnightblue" points="137.209,-248.499 126.699,-249.833 135.747,-255.345 137.209,-248.499"/>
</g>
<!-- Node2&#45;&gt;Node3 -->
<g id="edge2" class="edge"><title>Node2&#45;&gt;Node3</title>
<path fill="none" stroke="midnightblue" d="M582.681,-310.024C657.877,-293.313 770.718,-268.238 842.329,-252.324"/>
<polygon fill="midnightblue" stroke="midnightblue" points="581.79,-306.636 572.788,-312.222 583.309,-313.469 581.79,-306.636"/>
</g>
<!-- Node3&#45;&gt;Node4 -->
<g id="edge3" class="edge"><title>Node3&#45;&gt;Node4</title>
<path fill="none" stroke="midnightblue" d="M999.716,-237.286C1008.43,-237.286 1017.25,-237.286 1025.86,-237.286"/>
<polygon fill="midnightblue" stroke="midnightblue" points="999.54,-233.786 989.54,-237.286 999.54,-240.786 999.54,-233.786"/>
</g>
<!-- Node5&#45;&gt;Node4 -->
<g id="edge5" class="edge"><title>Node5&#45;&gt;Node4</title>
<path fill="none" stroke="midnightblue" d="M946.155,-144.387C984.055,-166.693 1044.35,-202.178 1078.4,-222.218"/>
<polygon fill="midnightblue" stroke="midnightblue" points="947.89,-141.347 937.496,-139.292 944.339,-147.38 947.89,-141.347"/>
</g>
<!-- Node6&#45;&gt;Node7 -->
<g id="edge7" class="edge"><title>Node6&#45;&gt;Node7</title>
<path fill="none" stroke="midnightblue" d="M385.05,-121.189C459.842,-121.9 562.789,-122.878 632.84,-123.543"/>
<polygon fill="midnightblue" stroke="midnightblue" points="384.722,-117.686 374.689,-121.091 384.655,-124.686 384.722,-117.686"/>
</g>
<!-- Node6&#45;&gt;Node8 -->
<g id="edge10" class="edge"><title>Node6&#45;&gt;Node8</title>
<path fill="none" stroke="midnightblue" d="M326.249,-140.197C368.455,-163.381 437.235,-201.161 475.358,-222.102"/>
<polygon fill="midnightblue" stroke="midnightblue" points="327.86,-137.089 317.41,-135.342 324.49,-143.224 327.86,-137.089"/>
</g>
<!-- Node7&#45;&gt;Node3 -->
<g id="edge8" class="edge"><title>Node7&#45;&gt;Node3</title>
<path fill="none" stroke="midnightblue" d="M769.436,-143.043C778.5,-146.712 787.642,-150.822 796,-155.286 832.344,-174.695 870.384,-204.214 892.043,-222.036"/>
<polygon fill="midnightblue" stroke="midnightblue" points="770.642,-139.757 760.054,-139.383 768.098,-146.278 770.642,-139.757"/>
</g>
<!-- Node7&#45;&gt;Node5 -->
<g id="edge9" class="edge"><title>Node7&#45;&gt;Node5</title>
<path fill="none" stroke="midnightblue" d="M801.235,-124.286C813.327,-124.286 825.628,-124.286 837.397,-124.286"/>
<polygon fill="midnightblue" stroke="midnightblue" points="801.143,-120.786 791.143,-124.286 801.143,-127.786 801.143,-120.786"/>
</g>
<!-- Node8&#45;&gt;Node3 -->
<g id="edge11" class="edge"><title>Node8&#45;&gt;Node3</title>
<path fill="none" stroke="midnightblue" d="M593.407,-237.286C664.775,-237.286 764.209,-237.286 832.496,-237.286"/>
<polygon fill="midnightblue" stroke="midnightblue" points="593.088,-233.786 583.088,-237.286 593.088,-240.786 593.088,-233.786"/>
</g>
<!-- Node8&#45;&gt;Node7 -->
<g id="edge12" class="edge"><title>Node8&#45;&gt;Node7</title>
<path fill="none" stroke="midnightblue" d="M532.922,-215.951C557.138,-198.127 593.607,-172.874 628,-155.286 639.641,-149.333 652.702,-143.915 664.956,-139.334"/>
<polygon fill="midnightblue" stroke="midnightblue" points="530.517,-213.378 524.582,-222.154 534.695,-218.995 530.517,-213.378"/>
</g>
<!-- Node9&#45;&gt;Node8 -->
<g id="edge14" class="edge"><title>Node9&#45;&gt;Node8</title>
<path fill="none" stroke="midnightblue" d="M357.835,-213.433C379.111,-216.929 402.77,-220.816 424.707,-224.421"/>
<polygon fill="midnightblue" stroke="midnightblue" points="358.357,-209.972 347.922,-211.804 357.222,-216.879 358.357,-209.972"/>
</g>
<!-- Node10&#45;&gt;Node8 -->
<g id="edge18" class="edge"><title>Node10&#45;&gt;Node8</title>
<path fill="none" stroke="midnightblue" d="M361.933,-315.078C368.113,-312.981 374.21,-310.715 380,-308.286 417.061,-292.738 456.792,-268.205 480.769,-252.433"/>
<polygon fill="midnightblue" stroke="midnightblue" points="360.624,-311.823 352.188,-318.233 362.78,-318.483 360.624,-311.823"/>
</g>
<!-- Node11&#45;&gt;Node3 -->
<g id="edge21" class="edge"><title>Node11&#45;&gt;Node3</title>
<path fill="none" stroke="midnightblue" d="M774.671,-198.13C801.443,-205.876 832.456,-214.849 858.033,-222.25"/>
<polygon fill="midnightblue" stroke="midnightblue" points="775.596,-194.754 765.017,-195.337 773.65,-201.478 775.596,-194.754"/>
</g>
<!-- Node12&#45;&gt;Node8 -->
<g id="edge23" class="edge"><title>Node12&#45;&gt;Node8</title>
<path fill="none" stroke="midnightblue" d="M367.932,-267.09C389.892,-262.244 413.602,-257.012 434.935,-252.305"/>
<polygon fill="midnightblue" stroke="midnightblue" points="366.991,-263.713 357.98,-269.286 368.499,-270.549 366.991,-263.713"/>
</g>
</g>
</svg>
        <g id="navigator" transform="translate(0 0)" fill="#404254">
                <rect fill="#f2f5e9" fill-opacity="0.5" stroke="#606060" stroke-width=".5" x="0" y="0" width="60" height="60"/>
                <use id="zoomplus" xlink:href="#zoomPlus" x="17" y="9" onmousedown="handleZoom(evt,'in')"/>
                <use id="zoomminus" xlink:href="#zoomMin" x="42" y="9" onmousedown="handleZoom(evt,'out')"/>
                <use id="reset" xlink:href="#resetDef" x="30" y="36" onmousedown="handleReset()"/>
                <g id="arrowUp" xlink:href="#dirArrow" transform="translate(30 24)" onmousedown="handlePan(0,-1)">
                  <use xlink:href="#rim" fill="#404040">
                        <set attributeName="fill" to="#808080" begin="arrowUp.mouseover" end="arrowUp.mouseout"/>
                  </use>
                  <path fill="none" stroke="white" stroke-width="1.5" d="M0,-3.0v7 M-2.5,-0.5L0,-3.0L2.5,-0.5"/>
                </g>
                <g id="arrowRight" xlink:href="#dirArrow" transform="rotate(90) translate(36 -43)" onmousedown="handlePan(1,0)">
                  <use xlink:href="#rim" fill="#404040">
                        <set attributeName="fill" to="#808080" begin="arrowRight.mouseover" end="arrowRight.mouseout"/>
                  </use>
                  <path fill="none" stroke="white" stroke-width="1.5" d="M0,-3.0v7 M-2.5,-0.5L0,-3.0L2.5,-0.5"/>
                </g>
                <g id="arrowDown" xlink:href="#dirArrow" transform="rotate(180) translate(-30 -48)" onmousedown="handlePan(0,1)">
                  <use xlink:href="#rim" fill="#404040">
                        <set attributeName="fill" to="#808080" begin="arrowDown.mouseover" end="arrowDown.mouseout"/>
                  </use>
                  <path fill="none" stroke="white" stroke-width="1.5" d="M0,-3.0v7 M-2.5,-0.5L0,-3.0L2.5,-0.5"/>
                </g>
                <g id="arrowLeft" xlink:href="#dirArrow" transform="rotate(270) translate(-36 17)" onmousedown="handlePan(-1,0)">
                  <use xlink:href="#rim" fill="#404040">
                        <set attributeName="fill" to="#808080" begin="arrowLeft.mouseover" end="arrowLeft.mouseout"/>
                  </use>
                  <path fill="none" stroke="white" stroke-width="1.5" d="M0,-3.0v7 M-2.5,-0.5L0,-3.0L2.5,-0.5"/>
                </g>
        </g>
        <svg viewBox="0 0 15 15" width="100%" height="30px" preserveAspectRatio="xMaxYMin meet">
         <g id="arrow_out" transform="scale(0.3 0.3)">
          <a xlink:href="classmodel_1_1_simulation_a0252922993a1cbfd2a23f05f834df1fc_icgraph_org.svg" target="_base">
           <rect id="button" ry="5" rx="5" y="6" x="6" height="38" width="38"
                fill="#f2f5e9" fill-opacity="0.5" stroke="#606060" stroke-width="1.0"/>
           <path id="arrow"
             d="M 11.500037,31.436501 C 11.940474,20.09759 22.043105,11.32322 32.158766,21.979434 L 37.068811,17.246167 C 37.068811,17.246167 37.088388,32 37.088388,32 L 22.160133,31.978069 C 22.160133,31.978069 26.997745,27.140456 26.997745,27.140456 C 18.528582,18.264221 13.291696,25.230495 11.500037,31.436501 z"
             style="fill:#404040;"/>
          </a>
         </g>
        </svg>
</svg>
