<?xml version="1.0" encoding="UTF-8" standalone="no"?>
<!DOCTYPE svg PUBLIC "-//W3C//DTD SVG 1.1//EN"
 "http://www.w3.org/Graphics/SVG/1.1/DTD/svg11.dtd">
<!-- Generated by graphviz version 2.36.0 (20140111.2315)
 -->
<!-- Title: model.Simulation.makeNextGrid Pages: 1 -->
<svg width="364pt" height="229pt"
 viewBox="0.00 0.00 364.00 229.00" xmlns="http://www.w3.org/2000/svg" xmlns:xlink="http://www.w3.org/1999/xlink">
<g id="graph0" class="graph" transform="scale(1 1) rotate(0) translate(4 225)">
<title>model.Simulation.makeNextGrid</title>
<polygon fill="white" stroke="none" points="-4,4 -4,-225 360,-225 360,4 -4,4"/>
<!-- Node1 -->
<g id="node1" class="node"><title>Node1</title>
<polygon fill="#bfbfbf" stroke="black" points="0.5,-95.5 0.5,-114.5 173.5,-114.5 173.5,-95.5 0.5,-95.5"/>
<text text-anchor="middle" x="87" y="-102.5" font-family="Helvetica,sans-Serif" font-size="10.00">model.Simulation.makeNextGrid</text>
</g>
<!-- Node2 -->
<g id="node2" class="node"><title>Node2</title>
<g id="a_node2"><a xlink:href="../../d2/d17/classmodel_1_1_simulation.html#ab1da5698abc45e35e163f783fa393f8d" target="_top" xlink:title="model.Simulation.calculate\lNewCellState">
<polygon fill="white" stroke="black" points="210,-191 210,-221 356,-221 356,-191 210,-191"/>
<text text-anchor="start" x="218" y="-209" font-family="Helvetica,sans-Serif" font-size="10.00">model.Simulation.calculate</text>
<text text-anchor="middle" x="283" y="-198" font-family="Helvetica,sans-Serif" font-size="10.00">NewCellState</text>
</a>
</g>
</g>
<!-- Node1&#45;&gt;Node2 -->
<g id="edge1" class="edge"><title>Node1&#45;&gt;Node2</title>
<path fill="none" stroke="midnightblue" d="M101.335,-114.703C123.182,-130.272 168.344,-161.1 210,-181 214.584,-183.19 219.412,-185.285 224.308,-187.265"/>
<polygon fill="midnightblue" stroke="midnightblue" points="223.172,-190.578 233.761,-190.924 225.699,-184.05 223.172,-190.578"/>
</g>
<!-- Node3 -->
<g id="node3" class="node"><title>Node3</title>
<g id="a_node3"><a xlink:href="../../dc/d8f/classmodel_1_1_grid.html#a994d6c682166c2599924fba6a64db842" target="_top" xlink:title="model.Grid.copyGrid">
<polygon fill="white" stroke="black" points="226,-152.5 226,-171.5 340,-171.5 340,-152.5 226,-152.5"/>
<text text-anchor="middle" x="283" y="-159.5" font-family="Helvetica,sans-Serif" font-size="10.00">model.Grid.copyGrid</text>
</a>
</g>
</g>
<!-- Node1&#45;&gt;Node3 -->
<g id="edge2" class="edge"><title>Node1&#45;&gt;Node3</title>
<path fill="none" stroke="midnightblue" d="M117.474,-114.579C142.116,-122.492 178.233,-133.866 210,-143 217.95,-145.286 226.423,-147.616 234.662,-149.825"/>
<polygon fill="midnightblue" stroke="midnightblue" points="233.982,-153.266 244.545,-152.45 235.778,-146.5 233.982,-153.266"/>
</g>
<!-- Node4 -->
<g id="node4" class="node"><title>Node4</title>
<g id="a_node4"><a xlink:href="../../dc/d8f/classmodel_1_1_grid.html#a7308e05b94f35a2f8198f314eb384267" target="_top" xlink:title="model.Grid.getCell">
<polygon fill="white" stroke="black" points="230.5,-114.5 230.5,-133.5 335.5,-133.5 335.5,-114.5 230.5,-114.5"/>
<text text-anchor="middle" x="283" y="-121.5" font-family="Helvetica,sans-Serif" font-size="10.00">model.Grid.getCell</text>
</a>
</g>
</g>
<!-- Node1&#45;&gt;Node4 -->
<g id="edge3" class="edge"><title>Node1&#45;&gt;Node4</title>
<path fill="none" stroke="midnightblue" d="M173.656,-113.389C189.326,-114.924 205.396,-116.498 220.2,-117.947"/>
<polygon fill="midnightblue" stroke="midnightblue" points="219.933,-121.438 230.227,-118.929 220.615,-114.471 219.933,-121.438"/>
</g>
<!-- Node5 -->
<g id="node5" class="node"><title>Node5</title>
<g id="a_node5"><a xlink:href="../../dc/d8f/classmodel_1_1_grid.html#a01924b6019a14826898f281a3064b3b5" target="_top" xlink:title="model.Grid.getGridColSize">
<polygon fill="white" stroke="black" points="211.5,-76.5 211.5,-95.5 354.5,-95.5 354.5,-76.5 211.5,-76.5"/>
<text text-anchor="middle" x="283" y="-83.5" font-family="Helvetica,sans-Serif" font-size="10.00">model.Grid.getGridColSize</text>
</a>
</g>
</g>
<!-- Node1&#45;&gt;Node5 -->
<g id="edge4" class="edge"><title>Node1&#45;&gt;Node5</title>
<path fill="none" stroke="midnightblue" d="M173.656,-96.611C182.801,-95.7154 192.082,-94.8064 201.168,-93.9165"/>
<polygon fill="midnightblue" stroke="midnightblue" points="201.716,-97.3797 211.327,-92.9216 201.033,-90.4131 201.716,-97.3797"/>
</g>
<!-- Node6 -->
<g id="node6" class="node"><title>Node6</title>
<g id="a_node6"><a xlink:href="../../dc/d8f/classmodel_1_1_grid.html#a40adce87c26a3a6830125324ae576c34" target="_top" xlink:title="model.Grid.getGridRowSize">
<polygon fill="white" stroke="black" points="210,-38.5 210,-57.5 356,-57.5 356,-38.5 210,-38.5"/>
<text text-anchor="middle" x="283" y="-45.5" font-family="Helvetica,sans-Serif" font-size="10.00">model.Grid.getGridRowSize</text>
</a>
</g>
</g>
<!-- Node1&#45;&gt;Node6 -->
<g id="edge5" class="edge"><title>Node1&#45;&gt;Node6</title>
<path fill="none" stroke="midnightblue" d="M117.474,-95.421C142.116,-87.5085 178.233,-76.1341 210,-67 217.95,-64.7142 226.423,-62.3841 234.662,-60.1746"/>
<polygon fill="midnightblue" stroke="midnightblue" points="235.778,-63.4997 244.545,-57.5505 233.982,-56.7342 235.778,-63.4997"/>
</g>
<!-- Node7 -->
<g id="node7" class="node"><title>Node7</title>
<g id="a_node7"><a xlink:href="../../d3/d57/classmodel_1_1_cell.html#afba3057d5fff58793cb8118915f47e2a" target="_top" xlink:title="model.Cell.setState">
<polygon fill="white" stroke="black" points="227.5,-0.5 227.5,-19.5 338.5,-19.5 338.5,-0.5 227.5,-0.5"/>
<text text-anchor="middle" x="283" y="-7.5" font-family="Helvetica,sans-Serif" font-size="10.00">model.Cell.setState</text>
</a>
</g>
</g>
<!-- Node1&#45;&gt;Node7 -->
<g id="edge6" class="edge"><title>Node1&#45;&gt;Node7</title>
<path fill="none" stroke="midnightblue" d="M100.474,-95.4439C121.808,-79.5232 167.158,-47.4966 210,-29 215.686,-26.5451 221.765,-24.3437 227.891,-22.3868"/>
<polygon fill="midnightblue" stroke="midnightblue" points="228.929,-25.7297 237.507,-19.5116 226.924,-19.0231 228.929,-25.7297"/>
</g>
</g>
</svg>
