<?xml version="1.0" encoding="UTF-8" standalone="no"?>
<!DOCTYPE svg PUBLIC "-//W3C//DTD SVG 1.1//EN"
 "http://www.w3.org/Graphics/SVG/1.1/DTD/svg11.dtd">
<!-- Generated by graphviz version 2.36.0 (20140111.2315)
 -->
<!-- Title: controller.ViewPackager.getStateTotals Pages: 1 -->
<svg width="1902pt" height="167pt"
 viewBox="0.00 0.00 1902.00 167.00" xmlns="http://www.w3.org/2000/svg" xmlns:xlink="http://www.w3.org/1999/xlink">
<g id="graph0" class="graph" transform="scale(1 1) rotate(0) translate(4 163)">
<title>controller.ViewPackager.getStateTotals</title>
<polygon fill="white" stroke="none" points="-4,4 -4,-163 1898,-163 1898,4 -4,4"/>
<!-- Node1 -->
<g id="node1" class="node"><title>Node1</title>
<polygon fill="#bfbfbf" stroke="black" points="0.5,-22 0.5,-52 147.5,-52 147.5,-22 0.5,-22"/>
<text text-anchor="start" x="8.5" y="-40" font-family="Helvetica,sans-Serif" font-size="10.00">controller.ViewPackager.get</text>
<text text-anchor="middle" x="74" y="-29" font-family="Helvetica,sans-Serif" font-size="10.00">StateTotals</text>
</g>
<!-- Node2 -->
<g id="node2" class="node"><title>Node2</title>
<g id="a_node2"><a xlink:href="../../d1/d10/classview_package_1_1_population_graph.html#a821b7af856b69286ee399d9db8c65a71" target="_top" xlink:title="viewPackage.PopulationGraph.update\lGraph">
<polygon fill="white" stroke="black" points="184,-22 184,-52 380,-52 380,-22 184,-22"/>
<text text-anchor="start" x="192" y="-40" font-family="Helvetica,sans-Serif" font-size="10.00">viewPackage.PopulationGraph.update</text>
<text text-anchor="middle" x="282" y="-29" font-family="Helvetica,sans-Serif" font-size="10.00">Graph</text>
</a>
</g>
</g>
<!-- Node1&#45;&gt;Node2 -->
<g id="edge1" class="edge"><title>Node1&#45;&gt;Node2</title>
<path fill="none" stroke="midnightblue" d="M157.901,-37C166.414,-37 175.118,-37 183.767,-37"/>
<polygon fill="midnightblue" stroke="midnightblue" points="157.628,-33.5001 147.628,-37 157.628,-40.5001 157.628,-33.5001"/>
</g>
<!-- Node3 -->
<g id="node3" class="node"><title>Node3</title>
<g id="a_node3"><a xlink:href="../../d1/dbf/classview_package_1_1_view.html#a7793d78c89cc38648fc57d4ee46a0837" target="_top" xlink:title="viewPackage.View.updateGridView">
<polygon fill="white" stroke="black" points="416.5,-27.5 416.5,-46.5 595.5,-46.5 595.5,-27.5 416.5,-27.5"/>
<text text-anchor="middle" x="506" y="-34.5" font-family="Helvetica,sans-Serif" font-size="10.00">viewPackage.View.updateGridView</text>
</a>
</g>
</g>
<!-- Node2&#45;&gt;Node3 -->
<g id="edge2" class="edge"><title>Node2&#45;&gt;Node3</title>
<path fill="none" stroke="midnightblue" d="M390.229,-37C398.923,-37 407.649,-37 416.191,-37"/>
<polygon fill="midnightblue" stroke="midnightblue" points="390.05,-33.5001 380.049,-37 390.049,-40.5001 390.05,-33.5001"/>
</g>
<!-- Node4 -->
<g id="node4" class="node"><title>Node4</title>
<g id="a_node4"><a xlink:href="../../d9/df7/classcontroller_1_1_controller.html#aa8fee9e96592dabbb151850b562d9ec0" target="_top" xlink:title="controller.Controller.step\lSimulation">
<polygon fill="white" stroke="black" points="639,-44 639,-74 773,-74 773,-44 639,-44"/>
<text text-anchor="start" x="647" y="-62" font-family="Helvetica,sans-Serif" font-size="10.00">controller.Controller.step</text>
<text text-anchor="middle" x="706" y="-51" font-family="Helvetica,sans-Serif" font-size="10.00">Simulation</text>
</a>
</g>
</g>
<!-- Node3&#45;&gt;Node4 -->
<g id="edge3" class="edge"><title>Node3&#45;&gt;Node4</title>
<path fill="none" stroke="midnightblue" d="M602.892,-47.6547C615.07,-49.0078 627.31,-50.3678 638.875,-51.6528"/>
<polygon fill="midnightblue" stroke="midnightblue" points="603.019,-44.1474 592.694,-46.5216 602.246,-51.1046 603.019,-44.1474"/>
</g>
<!-- Node12 -->
<g id="node12" class="node"><title>Node12</title>
<g id="a_node12"><a xlink:href="../../d9/df7/classcontroller_1_1_controller.html#af7cc9ab6dfe60da36d3159eea48882db" target="_top" xlink:title="controller.Controller.loadFile">
<polygon fill="white" stroke="black" points="632,-5.5 632,-24.5 780,-24.5 780,-5.5 632,-5.5"/>
<text text-anchor="middle" x="706" y="-12.5" font-family="Helvetica,sans-Serif" font-size="10.00">controller.Controller.loadFile</text>
</a>
</g>
</g>
<!-- Node3&#45;&gt;Node12 -->
<g id="edge13" class="edge"><title>Node3&#45;&gt;Node12</title>
<path fill="none" stroke="midnightblue" d="M602.845,-26.3505C612.616,-25.2649 622.428,-24.1747 631.899,-23.1223"/>
<polygon fill="midnightblue" stroke="midnightblue" points="602.246,-22.8954 592.694,-27.4784 603.019,-29.8526 602.246,-22.8954"/>
</g>
<!-- Node5 -->
<g id="node5" class="node"><title>Node5</title>
<g id="a_node5"><a xlink:href="../../d9/df7/classcontroller_1_1_controller.html#ae859ed2fba4e22871428ec51f7d4c07d" target="_top" xlink:title="controller.Controller.play\lSimulation">
<polygon fill="white" stroke="black" points="820,-88 820,-118 952,-118 952,-88 820,-88"/>
<text text-anchor="start" x="828" y="-106" font-family="Helvetica,sans-Serif" font-size="10.00">controller.Controller.play</text>
<text text-anchor="middle" x="886" y="-95" font-family="Helvetica,sans-Serif" font-size="10.00">Simulation</text>
</a>
</g>
</g>
<!-- Node4&#45;&gt;Node5 -->
<g id="edge4" class="edge"><title>Node4&#45;&gt;Node5</title>
<path fill="none" stroke="midnightblue" d="M777.737,-76.4855C793.117,-80.2873 809.257,-84.277 824.212,-87.9738"/>
<polygon fill="midnightblue" stroke="midnightblue" points="778.307,-73.0213 767.76,-74.0192 776.628,-79.8167 778.307,-73.0213"/>
</g>
<!-- Node11 -->
<g id="node11" class="node"><title>Node11</title>
<g id="a_node11"><a xlink:href="../../d1/dbf/classview_package_1_1_view.html#acec783d5c91d6cb27da271e46588e79f" target="_top" xlink:title="viewPackage.View.setStep\lSimulation">
<polygon fill="white" stroke="black" points="1182.5,-44 1182.5,-74 1323.5,-74 1323.5,-44 1182.5,-44"/>
<text text-anchor="start" x="1190.5" y="-62" font-family="Helvetica,sans-Serif" font-size="10.00">viewPackage.View.setStep</text>
<text text-anchor="middle" x="1253" y="-51" font-family="Helvetica,sans-Serif" font-size="10.00">Simulation</text>
</a>
</g>
</g>
<!-- Node4&#45;&gt;Node11 -->
<g id="edge11" class="edge"><title>Node4&#45;&gt;Node11</title>
<path fill="none" stroke="midnightblue" d="M783.319,-59C889.372,-59 1079.79,-59 1182.24,-59"/>
<polygon fill="midnightblue" stroke="midnightblue" points="783.011,-55.5001 773.011,-59 783.011,-62.5001 783.011,-55.5001"/>
</g>
<!-- Node6 -->
<g id="node6" class="node"><title>Node6</title>
<g id="a_node6"><a xlink:href="../../d9/df7/classcontroller_1_1_controller.html#a37d9d1d84d304a9d94d7666322b7c6ab" target="_top" xlink:title="controller.Controller.change\lSpeed">
<polygon fill="white" stroke="black" points="995,-129 995,-159 1143,-159 1143,-129 995,-129"/>
<text text-anchor="start" x="1003" y="-147" font-family="Helvetica,sans-Serif" font-size="10.00">controller.Controller.change</text>
<text text-anchor="middle" x="1069" y="-136" font-family="Helvetica,sans-Serif" font-size="10.00">Speed</text>
</a>
</g>
</g>
<!-- Node5&#45;&gt;Node6 -->
<g id="edge5" class="edge"><title>Node5&#45;&gt;Node6</title>
<path fill="none" stroke="midnightblue" d="M962.035,-119.997C975.18,-122.974 988.773,-126.054 1001.66,-128.973"/>
<polygon fill="midnightblue" stroke="midnightblue" points="962.616,-116.54 952.089,-117.744 961.069,-123.367 962.616,-116.54"/>
</g>
<!-- Node7 -->
<g id="node7" class="node"><title>Node7</title>
<g id="a_node7"><a xlink:href="../../d1/dbf/classview_package_1_1_view.html#a1d1a8e16ae622c0d6a66cd9c516672a6" target="_top" xlink:title="viewPackage.View.setPlay\lAction">
<polygon fill="white" stroke="black" points="1184,-93 1184,-123 1322,-123 1322,-93 1184,-93"/>
<text text-anchor="start" x="1192" y="-111" font-family="Helvetica,sans-Serif" font-size="10.00">viewPackage.View.setPlay</text>
<text text-anchor="middle" x="1253" y="-100" font-family="Helvetica,sans-Serif" font-size="10.00">Action</text>
</a>
</g>
</g>
<!-- Node5&#45;&gt;Node7 -->
<g id="edge10" class="edge"><title>Node5&#45;&gt;Node7</title>
<path fill="none" stroke="midnightblue" d="M962.464,-104.034C1027.64,-104.927 1120.98,-106.205 1183.91,-107.067"/>
<polygon fill="midnightblue" stroke="midnightblue" points="962.302,-100.531 952.255,-103.894 962.206,-107.531 962.302,-100.531"/>
</g>
<!-- Node6&#45;&gt;Node7 -->
<g id="edge6" class="edge"><title>Node6&#45;&gt;Node7</title>
<path fill="none" stroke="midnightblue" d="M1153.08,-127.567C1163.4,-125.525 1173.86,-123.457 1183.92,-121.467"/>
<polygon fill="midnightblue" stroke="midnightblue" points="1152.37,-124.139 1143.24,-129.513 1153.73,-131.006 1152.37,-124.139"/>
</g>
<!-- Node8 -->
<g id="node8" class="node"><title>Node8</title>
<g id="a_node8"><a xlink:href="../../dc/d2c/classview_package_1_1_button_box.html#a9756fc46a96c169ce48a1867bd2c82f5" target="_top" xlink:title="viewPackage.ButtonBox.make\lButtonBox">
<polygon fill="white" stroke="black" points="1360,-44 1360,-74 1520,-74 1520,-44 1360,-44"/>
<text text-anchor="start" x="1368" y="-62" font-family="Helvetica,sans-Serif" font-size="10.00">viewPackage.ButtonBox.make</text>
<text text-anchor="middle" x="1440" y="-51" font-family="Helvetica,sans-Serif" font-size="10.00">ButtonBox</text>
</a>
</g>
</g>
<!-- Node7&#45;&gt;Node8 -->
<g id="edge7" class="edge"><title>Node7&#45;&gt;Node8</title>
<path fill="none" stroke="midnightblue" d="M1320.54,-90.3771C1340.78,-85.0163 1362.82,-79.1775 1382.34,-74.0062"/>
<polygon fill="midnightblue" stroke="midnightblue" points="1319.53,-87.0216 1310.76,-92.9654 1321.33,-93.7883 1319.53,-87.0216"/>
</g>
<!-- Node9 -->
<g id="node9" class="node"><title>Node9</title>
<g id="a_node9"><a xlink:href="../../d1/dbf/classview_package_1_1_view.html#af6f6887ef253ae0fba2634e367b95312" target="_top" xlink:title="viewPackage.View.initialize">
<polygon fill="white" stroke="black" points="1556,-49.5 1556,-68.5 1698,-68.5 1698,-49.5 1556,-49.5"/>
<text text-anchor="middle" x="1627" y="-56.5" font-family="Helvetica,sans-Serif" font-size="10.00">viewPackage.View.initialize</text>
</a>
</g>
</g>
<!-- Node8&#45;&gt;Node9 -->
<g id="edge8" class="edge"><title>Node8&#45;&gt;Node9</title>
<path fill="none" stroke="midnightblue" d="M1530.33,-59C1538.93,-59 1547.57,-59 1555.95,-59"/>
<polygon fill="midnightblue" stroke="midnightblue" points="1530.26,-55.5001 1520.26,-59 1530.26,-62.5001 1530.26,-55.5001"/>
</g>
<!-- Node10 -->
<g id="node10" class="node"><title>Node10</title>
<g id="a_node10"><a xlink:href="../../d9/df7/classcontroller_1_1_controller.html#a4dbfef3e3e30bd1bb84df7a6b24ad1e7" target="_top" xlink:title="controller.Controller.Controller">
<polygon fill="white" stroke="black" points="1734.5,-49.5 1734.5,-68.5 1893.5,-68.5 1893.5,-49.5 1734.5,-49.5"/>
<text text-anchor="middle" x="1814" y="-56.5" font-family="Helvetica,sans-Serif" font-size="10.00">controller.Controller.Controller</text>
</a>
</g>
</g>
<!-- Node9&#45;&gt;Node10 -->
<g id="edge9" class="edge"><title>Node9&#45;&gt;Node10</title>
<path fill="none" stroke="midnightblue" d="M1708.31,-59C1717,-59 1725.83,-59 1734.49,-59"/>
<polygon fill="midnightblue" stroke="midnightblue" points="1708.2,-55.5001 1698.2,-59 1708.2,-62.5001 1708.2,-55.5001"/>
</g>
<!-- Node11&#45;&gt;Node8 -->
<g id="edge12" class="edge"><title>Node11&#45;&gt;Node8</title>
<path fill="none" stroke="midnightblue" d="M1333.72,-59C1342.35,-59 1351.14,-59 1359.76,-59"/>
<polygon fill="midnightblue" stroke="midnightblue" points="1333.68,-55.5001 1323.68,-59 1333.68,-62.5001 1333.68,-55.5001"/>
</g>
<!-- Node13 -->
<g id="node13" class="node"><title>Node13</title>
<g id="a_node13"><a xlink:href="../../d1/dbf/classview_package_1_1_view.html#a718e5f42ae85512916198548e28477c7" target="_top" xlink:title="viewPackage.View.tryLoad">
<polygon fill="white" stroke="black" points="816,-5.5 816,-24.5 956,-24.5 956,-5.5 816,-5.5"/>
<text text-anchor="middle" x="886" y="-12.5" font-family="Helvetica,sans-Serif" font-size="10.00">viewPackage.View.tryLoad</text>
</a>
</g>
</g>
<!-- Node12&#45;&gt;Node13 -->
<g id="edge14" class="edge"><title>Node12&#45;&gt;Node13</title>
<path fill="none" stroke="midnightblue" d="M790.193,-15C798.776,-15 807.431,-15 815.838,-15"/>
<polygon fill="midnightblue" stroke="midnightblue" points="790.17,-11.5001 780.17,-15 790.17,-18.5001 790.17,-11.5001"/>
</g>
<!-- Node14 -->
<g id="node14" class="node"><title>Node14</title>
<g id="a_node14"><a xlink:href="../../dc/d2c/classview_package_1_1_button_box.html#aef53bd97c4407ecd3fb5dfbf42850a46" target="_top" xlink:title="viewPackage.ButtonBox.load\lFileBox">
<polygon fill="white" stroke="black" points="992.5,-0 992.5,-30 1145.5,-30 1145.5,-0 992.5,-0"/>
<text text-anchor="start" x="1000.5" y="-18" font-family="Helvetica,sans-Serif" font-size="10.00">viewPackage.ButtonBox.load</text>
<text text-anchor="middle" x="1069" y="-7" font-family="Helvetica,sans-Serif" font-size="10.00">FileBox</text>
</a>
</g>
</g>
<!-- Node13&#45;&gt;Node14 -->
<g id="edge15" class="edge"><title>Node13&#45;&gt;Node14</title>
<path fill="none" stroke="midnightblue" d="M966.241,-15C974.863,-15 983.623,-15 992.201,-15"/>
<polygon fill="midnightblue" stroke="midnightblue" points="966.203,-11.5001 956.203,-15 966.203,-18.5001 966.203,-11.5001"/>
</g>
<!-- Node14&#45;&gt;Node8 -->
<g id="edge16" class="edge"><title>Node14&#45;&gt;Node8</title>
<path fill="none" stroke="midnightblue" d="M1155.61,-18.4268C1205.01,-21.1467 1268.22,-25.891 1324,-34 1341.49,-36.5425 1360.29,-40.2211 1377.52,-43.9777"/>
<polygon fill="midnightblue" stroke="midnightblue" points="1155.77,-14.9307 1145.6,-17.893 1155.4,-21.9207 1155.77,-14.9307"/>
</g>
</g>
</svg>
