<?xml version="1.0" encoding="UTF-8" standalone="no"?>
<!DOCTYPE svg PUBLIC "-//W3C//DTD SVG 1.1//EN"
 "http://www.w3.org/Graphics/SVG/1.1/DTD/svg11.dtd">
<!-- Generated by graphviz version 2.36.0 (20140111.2315)
 -->
<!-- Title: controller.ViewPackager.getColorGrid Pages: 1 -->
<svg width="1896pt" height="167pt"
 viewBox="0.00 0.00 1896.00 167.00" xmlns="http://www.w3.org/2000/svg" xmlns:xlink="http://www.w3.org/1999/xlink">
<g id="graph0" class="graph" transform="scale(1 1) rotate(0) translate(4 163)">
<title>controller.ViewPackager.getColorGrid</title>
<polygon fill="white" stroke="none" points="-4,4 -4,-163 1892,-163 1892,4 -4,4"/>
<!-- Node1 -->
<g id="node1" class="node"><title>Node1</title>
<polygon fill="#bfbfbf" stroke="black" points="0.5,-22 0.5,-52 147.5,-52 147.5,-22 0.5,-22"/>
<text text-anchor="start" x="8.5" y="-40" font-family="Helvetica,sans-Serif" font-size="10.00">controller.ViewPackager.get</text>
<text text-anchor="middle" x="74" y="-29" font-family="Helvetica,sans-Serif" font-size="10.00">ColorGrid</text>
</g>
<!-- Node2 -->
<g id="node2" class="node"><title>Node2</title>
<g id="a_node2"><a xlink:href="../../df/dcf/classview_package_1_1_display_grid.html#a1a0aa454acaa29992ff9c716d38ec396" target="_top" xlink:title="viewPackage.DisplayGrid.updateGrid">
<polygon fill="white" stroke="black" points="184,-27.5 184,-46.5 374,-46.5 374,-27.5 184,-27.5"/>
<text text-anchor="middle" x="279" y="-34.5" font-family="Helvetica,sans-Serif" font-size="10.00">viewPackage.DisplayGrid.updateGrid</text>
</a>
</g>
</g>
<!-- Node1&#45;&gt;Node2 -->
<g id="edge1" class="edge"><title>Node1&#45;&gt;Node2</title>
<path fill="none" stroke="midnightblue" d="M157.718,-37C166.326,-37 175.121,-37 183.844,-37"/>
<polygon fill="midnightblue" stroke="midnightblue" points="157.714,-33.5001 147.714,-37 157.714,-40.5001 157.714,-33.5001"/>
</g>
<!-- Node3 -->
<g id="node3" class="node"><title>Node3</title>
<g id="a_node3"><a xlink:href="../../d1/dbf/classview_package_1_1_view.html#a7793d78c89cc38648fc57d4ee46a0837" target="_top" xlink:title="viewPackage.View.updateGridView">
<polygon fill="white" stroke="black" points="410.5,-27.5 410.5,-46.5 589.5,-46.5 589.5,-27.5 410.5,-27.5"/>
<text text-anchor="middle" x="500" y="-34.5" font-family="Helvetica,sans-Serif" font-size="10.00">viewPackage.View.updateGridView</text>
</a>
</g>
</g>
<!-- Node2&#45;&gt;Node3 -->
<g id="edge2" class="edge"><title>Node2&#45;&gt;Node3</title>
<path fill="none" stroke="midnightblue" d="M384.366,-37C393.1,-37 401.878,-37 410.477,-37"/>
<polygon fill="midnightblue" stroke="midnightblue" points="384.147,-33.5001 374.147,-37 384.147,-40.5001 384.147,-33.5001"/>
</g>
<!-- Node4 -->
<g id="node4" class="node"><title>Node4</title>
<g id="a_node4"><a xlink:href="../../d9/df7/classcontroller_1_1_controller.html#aa8fee9e96592dabbb151850b562d9ec0" target="_top" xlink:title="controller.Controller.step\lSimulation">
<polygon fill="white" stroke="black" points="633,-44 633,-74 767,-74 767,-44 633,-44"/>
<text text-anchor="start" x="641" y="-62" font-family="Helvetica,sans-Serif" font-size="10.00">controller.Controller.step</text>
<text text-anchor="middle" x="700" y="-51" font-family="Helvetica,sans-Serif" font-size="10.00">Simulation</text>
</a>
</g>
</g>
<!-- Node3&#45;&gt;Node4 -->
<g id="edge3" class="edge"><title>Node3&#45;&gt;Node4</title>
<path fill="none" stroke="midnightblue" d="M596.892,-47.6547C609.07,-49.0078 621.31,-50.3678 632.875,-51.6528"/>
<polygon fill="midnightblue" stroke="midnightblue" points="597.019,-44.1474 586.694,-46.5216 596.246,-51.1046 597.019,-44.1474"/>
</g>
<!-- Node12 -->
<g id="node12" class="node"><title>Node12</title>
<g id="a_node12"><a xlink:href="../../d9/df7/classcontroller_1_1_controller.html#af7cc9ab6dfe60da36d3159eea48882db" target="_top" xlink:title="controller.Controller.loadFile">
<polygon fill="white" stroke="black" points="626,-5.5 626,-24.5 774,-24.5 774,-5.5 626,-5.5"/>
<text text-anchor="middle" x="700" y="-12.5" font-family="Helvetica,sans-Serif" font-size="10.00">controller.Controller.loadFile</text>
</a>
</g>
</g>
<!-- Node3&#45;&gt;Node12 -->
<g id="edge13" class="edge"><title>Node3&#45;&gt;Node12</title>
<path fill="none" stroke="midnightblue" d="M596.845,-26.3505C606.616,-25.2649 616.428,-24.1747 625.899,-23.1223"/>
<polygon fill="midnightblue" stroke="midnightblue" points="596.246,-22.8954 586.694,-27.4784 597.019,-29.8526 596.246,-22.8954"/>
</g>
<!-- Node5 -->
<g id="node5" class="node"><title>Node5</title>
<g id="a_node5"><a xlink:href="../../d9/df7/classcontroller_1_1_controller.html#ae859ed2fba4e22871428ec51f7d4c07d" target="_top" xlink:title="controller.Controller.play\lSimulation">
<polygon fill="white" stroke="black" points="814,-88 814,-118 946,-118 946,-88 814,-88"/>
<text text-anchor="start" x="822" y="-106" font-family="Helvetica,sans-Serif" font-size="10.00">controller.Controller.play</text>
<text text-anchor="middle" x="880" y="-95" font-family="Helvetica,sans-Serif" font-size="10.00">Simulation</text>
</a>
</g>
</g>
<!-- Node4&#45;&gt;Node5 -->
<g id="edge4" class="edge"><title>Node4&#45;&gt;Node5</title>
<path fill="none" stroke="midnightblue" d="M771.737,-76.4855C787.117,-80.2873 803.257,-84.277 818.212,-87.9738"/>
<polygon fill="midnightblue" stroke="midnightblue" points="772.307,-73.0213 761.76,-74.0192 770.628,-79.8167 772.307,-73.0213"/>
</g>
<!-- Node11 -->
<g id="node11" class="node"><title>Node11</title>
<g id="a_node11"><a xlink:href="../../d1/dbf/classview_package_1_1_view.html#acec783d5c91d6cb27da271e46588e79f" target="_top" xlink:title="viewPackage.View.setStep\lSimulation">
<polygon fill="white" stroke="black" points="1176.5,-44 1176.5,-74 1317.5,-74 1317.5,-44 1176.5,-44"/>
<text text-anchor="start" x="1184.5" y="-62" font-family="Helvetica,sans-Serif" font-size="10.00">viewPackage.View.setStep</text>
<text text-anchor="middle" x="1247" y="-51" font-family="Helvetica,sans-Serif" font-size="10.00">Simulation</text>
</a>
</g>
</g>
<!-- Node4&#45;&gt;Node11 -->
<g id="edge11" class="edge"><title>Node4&#45;&gt;Node11</title>
<path fill="none" stroke="midnightblue" d="M777.319,-59C883.372,-59 1073.79,-59 1176.24,-59"/>
<polygon fill="midnightblue" stroke="midnightblue" points="777.011,-55.5001 767.011,-59 777.011,-62.5001 777.011,-55.5001"/>
</g>
<!-- Node6 -->
<g id="node6" class="node"><title>Node6</title>
<g id="a_node6"><a xlink:href="../../d9/df7/classcontroller_1_1_controller.html#a37d9d1d84d304a9d94d7666322b7c6ab" target="_top" xlink:title="controller.Controller.change\lSpeed">
<polygon fill="white" stroke="black" points="989,-129 989,-159 1137,-159 1137,-129 989,-129"/>
<text text-anchor="start" x="997" y="-147" font-family="Helvetica,sans-Serif" font-size="10.00">controller.Controller.change</text>
<text text-anchor="middle" x="1063" y="-136" font-family="Helvetica,sans-Serif" font-size="10.00">Speed</text>
</a>
</g>
</g>
<!-- Node5&#45;&gt;Node6 -->
<g id="edge5" class="edge"><title>Node5&#45;&gt;Node6</title>
<path fill="none" stroke="midnightblue" d="M956.035,-119.997C969.18,-122.974 982.773,-126.054 995.662,-128.973"/>
<polygon fill="midnightblue" stroke="midnightblue" points="956.616,-116.54 946.089,-117.744 955.069,-123.367 956.616,-116.54"/>
</g>
<!-- Node7 -->
<g id="node7" class="node"><title>Node7</title>
<g id="a_node7"><a xlink:href="../../d1/dbf/classview_package_1_1_view.html#a1d1a8e16ae622c0d6a66cd9c516672a6" target="_top" xlink:title="viewPackage.View.setPlay\lAction">
<polygon fill="white" stroke="black" points="1178,-93 1178,-123 1316,-123 1316,-93 1178,-93"/>
<text text-anchor="start" x="1186" y="-111" font-family="Helvetica,sans-Serif" font-size="10.00">viewPackage.View.setPlay</text>
<text text-anchor="middle" x="1247" y="-100" font-family="Helvetica,sans-Serif" font-size="10.00">Action</text>
</a>
</g>
</g>
<!-- Node5&#45;&gt;Node7 -->
<g id="edge10" class="edge"><title>Node5&#45;&gt;Node7</title>
<path fill="none" stroke="midnightblue" d="M956.464,-104.034C1021.64,-104.927 1114.98,-106.205 1177.91,-107.067"/>
<polygon fill="midnightblue" stroke="midnightblue" points="956.302,-100.531 946.255,-103.894 956.206,-107.531 956.302,-100.531"/>
</g>
<!-- Node6&#45;&gt;Node7 -->
<g id="edge6" class="edge"><title>Node6&#45;&gt;Node7</title>
<path fill="none" stroke="midnightblue" d="M1147.08,-127.567C1157.4,-125.525 1167.86,-123.457 1177.92,-121.467"/>
<polygon fill="midnightblue" stroke="midnightblue" points="1146.37,-124.139 1137.24,-129.513 1147.73,-131.006 1146.37,-124.139"/>
</g>
<!-- Node8 -->
<g id="node8" class="node"><title>Node8</title>
<g id="a_node8"><a xlink:href="../../dc/d2c/classview_package_1_1_button_box.html#a9756fc46a96c169ce48a1867bd2c82f5" target="_top" xlink:title="viewPackage.ButtonBox.make\lButtonBox">
<polygon fill="white" stroke="black" points="1354,-44 1354,-74 1514,-74 1514,-44 1354,-44"/>
<text text-anchor="start" x="1362" y="-62" font-family="Helvetica,sans-Serif" font-size="10.00">viewPackage.ButtonBox.make</text>
<text text-anchor="middle" x="1434" y="-51" font-family="Helvetica,sans-Serif" font-size="10.00">ButtonBox</text>
</a>
</g>
</g>
<!-- Node7&#45;&gt;Node8 -->
<g id="edge7" class="edge"><title>Node7&#45;&gt;Node8</title>
<path fill="none" stroke="midnightblue" d="M1314.54,-90.3771C1334.78,-85.0163 1356.82,-79.1775 1376.34,-74.0062"/>
<polygon fill="midnightblue" stroke="midnightblue" points="1313.53,-87.0216 1304.76,-92.9654 1315.33,-93.7883 1313.53,-87.0216"/>
</g>
<!-- Node9 -->
<g id="node9" class="node"><title>Node9</title>
<g id="a_node9"><a xlink:href="../../d1/dbf/classview_package_1_1_view.html#af6f6887ef253ae0fba2634e367b95312" target="_top" xlink:title="viewPackage.View.initialize">
<polygon fill="white" stroke="black" points="1550,-49.5 1550,-68.5 1692,-68.5 1692,-49.5 1550,-49.5"/>
<text text-anchor="middle" x="1621" y="-56.5" font-family="Helvetica,sans-Serif" font-size="10.00">viewPackage.View.initialize</text>
</a>
</g>
</g>
<!-- Node8&#45;&gt;Node9 -->
<g id="edge8" class="edge"><title>Node8&#45;&gt;Node9</title>
<path fill="none" stroke="midnightblue" d="M1524.33,-59C1532.93,-59 1541.57,-59 1549.95,-59"/>
<polygon fill="midnightblue" stroke="midnightblue" points="1524.26,-55.5001 1514.26,-59 1524.26,-62.5001 1524.26,-55.5001"/>
</g>
<!-- Node10 -->
<g id="node10" class="node"><title>Node10</title>
<g id="a_node10"><a xlink:href="../../d9/df7/classcontroller_1_1_controller.html#a4dbfef3e3e30bd1bb84df7a6b24ad1e7" target="_top" xlink:title="controller.Controller.Controller">
<polygon fill="white" stroke="black" points="1728.5,-49.5 1728.5,-68.5 1887.5,-68.5 1887.5,-49.5 1728.5,-49.5"/>
<text text-anchor="middle" x="1808" y="-56.5" font-family="Helvetica,sans-Serif" font-size="10.00">controller.Controller.Controller</text>
</a>
</g>
</g>
<!-- Node9&#45;&gt;Node10 -->
<g id="edge9" class="edge"><title>Node9&#45;&gt;Node10</title>
<path fill="none" stroke="midnightblue" d="M1702.31,-59C1711,-59 1719.83,-59 1728.49,-59"/>
<polygon fill="midnightblue" stroke="midnightblue" points="1702.2,-55.5001 1692.2,-59 1702.2,-62.5001 1702.2,-55.5001"/>
</g>
<!-- Node11&#45;&gt;Node8 -->
<g id="edge12" class="edge"><title>Node11&#45;&gt;Node8</title>
<path fill="none" stroke="midnightblue" d="M1327.72,-59C1336.35,-59 1345.14,-59 1353.76,-59"/>
<polygon fill="midnightblue" stroke="midnightblue" points="1327.68,-55.5001 1317.68,-59 1327.68,-62.5001 1327.68,-55.5001"/>
</g>
<!-- Node13 -->
<g id="node13" class="node"><title>Node13</title>
<g id="a_node13"><a xlink:href="../../d1/dbf/classview_package_1_1_view.html#a718e5f42ae85512916198548e28477c7" target="_top" xlink:title="viewPackage.View.tryLoad">
<polygon fill="white" stroke="black" points="810,-5.5 810,-24.5 950,-24.5 950,-5.5 810,-5.5"/>
<text text-anchor="middle" x="880" y="-12.5" font-family="Helvetica,sans-Serif" font-size="10.00">viewPackage.View.tryLoad</text>
</a>
</g>
</g>
<!-- Node12&#45;&gt;Node13 -->
<g id="edge14" class="edge"><title>Node12&#45;&gt;Node13</title>
<path fill="none" stroke="midnightblue" d="M784.193,-15C792.776,-15 801.431,-15 809.838,-15"/>
<polygon fill="midnightblue" stroke="midnightblue" points="784.17,-11.5001 774.17,-15 784.17,-18.5001 784.17,-11.5001"/>
</g>
<!-- Node14 -->
<g id="node14" class="node"><title>Node14</title>
<g id="a_node14"><a xlink:href="../../dc/d2c/classview_package_1_1_button_box.html#aef53bd97c4407ecd3fb5dfbf42850a46" target="_top" xlink:title="viewPackage.ButtonBox.load\lFileBox">
<polygon fill="white" stroke="black" points="986.5,-0 986.5,-30 1139.5,-30 1139.5,-0 986.5,-0"/>
<text text-anchor="start" x="994.5" y="-18" font-family="Helvetica,sans-Serif" font-size="10.00">viewPackage.ButtonBox.load</text>
<text text-anchor="middle" x="1063" y="-7" font-family="Helvetica,sans-Serif" font-size="10.00">FileBox</text>
</a>
</g>
</g>
<!-- Node13&#45;&gt;Node14 -->
<g id="edge15" class="edge"><title>Node13&#45;&gt;Node14</title>
<path fill="none" stroke="midnightblue" d="M960.241,-15C968.863,-15 977.623,-15 986.201,-15"/>
<polygon fill="midnightblue" stroke="midnightblue" points="960.203,-11.5001 950.203,-15 960.203,-18.5001 960.203,-11.5001"/>
</g>
<!-- Node14&#45;&gt;Node8 -->
<g id="edge16" class="edge"><title>Node14&#45;&gt;Node8</title>
<path fill="none" stroke="midnightblue" d="M1149.61,-18.4268C1199.01,-21.1467 1262.22,-25.891 1318,-34 1335.49,-36.5425 1354.29,-40.2211 1371.52,-43.9777"/>
<polygon fill="midnightblue" stroke="midnightblue" points="1149.77,-14.9307 1139.6,-17.893 1149.4,-21.9207 1149.77,-14.9307"/>
</g>
</g>
</svg>
