<?xml version="1.0" encoding="UTF-8" standalone="no"?>
<!DOCTYPE svg PUBLIC "-//W3C//DTD SVG 1.1//EN"
 "http://www.w3.org/Graphics/SVG/1.1/DTD/svg11.dtd">
<!-- Generated by graphviz version 2.36.0 (20140111.2315)
 -->
<!-- Title: model.FiniteGrid.getAllNeighbors Pages: 1 -->
<svg width="512pt" height="69pt"
 viewBox="0.00 0.00 512.00 69.00" xmlns="http://www.w3.org/2000/svg" xmlns:xlink="http://www.w3.org/1999/xlink">
<g id="graph0" class="graph" transform="scale(1 1) rotate(0) translate(4 65)">
<title>model.FiniteGrid.getAllNeighbors</title>
<polygon fill="white" stroke="none" points="-4,4 -4,-65 508,-65 508,4 -4,4"/>
<!-- Node1 -->
<g id="node1" class="node"><title>Node1</title>
<polygon fill="#bfbfbf" stroke="black" points="0.5,-21.5 0.5,-40.5 173.5,-40.5 173.5,-21.5 0.5,-21.5"/>
<text text-anchor="middle" x="87" y="-28.5" font-family="Helvetica,sans-Serif" font-size="10.00">model.FiniteGrid.getAllNeighbors</text>
</g>
<!-- Node2 -->
<g id="node2" class="node"><title>Node2</title>
<g id="a_node2"><a xlink:href="../../dc/d8f/classmodel_1_1_grid.html#a7308e05b94f35a2f8198f314eb384267" target="_top" xlink:title="model.Grid.getCell">
<polygon fill="white" stroke="black" points="393.5,-41.5 393.5,-60.5 498.5,-60.5 498.5,-41.5 393.5,-41.5"/>
<text text-anchor="middle" x="446" y="-48.5" font-family="Helvetica,sans-Serif" font-size="10.00">model.Grid.getCell</text>
</a>
</g>
</g>
<!-- Node1&#45;&gt;Node2 -->
<g id="edge1" class="edge"><title>Node1&#45;&gt;Node2</title>
<path fill="none" stroke="midnightblue" d="M126.452,-40.5549C150.329,-45.9901 181.748,-52.2474 210,-55 272.814,-61.1198 288.903,-56.3563 352,-55 362.058,-54.7838 372.723,-54.4362 383.106,-54.034"/>
<polygon fill="midnightblue" stroke="midnightblue" points="383.512,-57.5204 393.361,-53.6163 383.227,-50.5262 383.512,-57.5204"/>
</g>
<!-- Node3 -->
<g id="node3" class="node"><title>Node3</title>
<g id="a_node3"><a xlink:href="../../d5/de9/classmodel_1_1_finite_grid.html#ac2d6394e9d65e66b936c3e993ca44719" target="_top" xlink:title="model.FiniteGrid.getDirect\lNeighbors">
<polygon fill="white" stroke="black" points="210.5,-16 210.5,-46 351.5,-46 351.5,-16 210.5,-16"/>
<text text-anchor="start" x="218.5" y="-34" font-family="Helvetica,sans-Serif" font-size="10.00">model.FiniteGrid.getDirect</text>
<text text-anchor="middle" x="281" y="-23" font-family="Helvetica,sans-Serif" font-size="10.00">Neighbors</text>
</a>
</g>
</g>
<!-- Node1&#45;&gt;Node3 -->
<g id="edge2" class="edge"><title>Node1&#45;&gt;Node3</title>
<path fill="none" stroke="midnightblue" d="M173.612,-31C182.452,-31 191.412,-31 200.186,-31"/>
<polygon fill="midnightblue" stroke="midnightblue" points="200.382,-34.5001 210.382,-31 200.382,-27.5001 200.382,-34.5001"/>
</g>
<!-- Node4 -->
<g id="node4" class="node"><title>Node4</title>
<g id="a_node4"><a xlink:href="../../dc/d8f/classmodel_1_1_grid.html#a7fd07edd38cb4fbc123431255df70a84" target="_top" xlink:title="model.Grid.inBounds">
<polygon fill="white" stroke="black" points="388,-0.5 388,-19.5 504,-19.5 504,-0.5 388,-0.5"/>
<text text-anchor="middle" x="446" y="-7.5" font-family="Helvetica,sans-Serif" font-size="10.00">model.Grid.inBounds</text>
</a>
</g>
</g>
<!-- Node1&#45;&gt;Node4 -->
<g id="edge5" class="edge"><title>Node1&#45;&gt;Node4</title>
<path fill="none" stroke="midnightblue" d="M124.539,-21.4979C148.622,-15.736 180.961,-8.94471 210,-6 272.789,0.367156 288.903,-4.64371 352,-6 360.361,-6.17973 369.142,-6.45025 377.832,-6.76751"/>
<polygon fill="midnightblue" stroke="midnightblue" points="377.833,-10.27 387.96,-7.15878 378.103,-3.27527 377.833,-10.27"/>
</g>
<!-- Node3&#45;&gt;Node2 -->
<g id="edge4" class="edge"><title>Node3&#45;&gt;Node2</title>
<path fill="none" stroke="midnightblue" d="M351.599,-39.5398C362.113,-40.8298 372.896,-42.1529 383.229,-43.4208"/>
<polygon fill="midnightblue" stroke="midnightblue" points="383.034,-46.9229 393.386,-44.6669 383.886,-39.975 383.034,-46.9229"/>
</g>
<!-- Node3&#45;&gt;Node4 -->
<g id="edge3" class="edge"><title>Node3&#45;&gt;Node4</title>
<path fill="none" stroke="midnightblue" d="M351.599,-22.0332C360.306,-20.9114 369.199,-19.7658 377.867,-18.649"/>
<polygon fill="midnightblue" stroke="midnightblue" points="378.445,-22.1036 387.915,-17.3545 377.55,-15.161 378.445,-22.1036"/>
</g>
</g>
</svg>
