<?xml version="1.0" encoding="UTF-8" standalone="no"?>
<!DOCTYPE svg PUBLIC "-//W3C//DTD SVG 1.1//EN"
 "http://www.w3.org/Graphics/SVG/1.1/DTD/svg11.dtd">
<!-- Generated by graphviz version 2.36.0 (20140111.2315)
 -->
<!-- Title: model.FiniteGrid.copyGrid Pages: 1 -->
<svg width="330pt" height="180pt"
 viewBox="0.00 0.00 330.00 180.00" xmlns="http://www.w3.org/2000/svg" xmlns:xlink="http://www.w3.org/1999/xlink">
<g id="graph0" class="graph" transform="scale(1 1) rotate(0) translate(4 176)">
<title>model.FiniteGrid.copyGrid</title>
<polygon fill="white" stroke="none" points="-4,4 -4,-176 326,-176 326,4 -4,4"/>
<!-- Node1 -->
<g id="node1" class="node"><title>Node1</title>
<polygon fill="#bfbfbf" stroke="black" points="0.5,-76.5 0.5,-95.5 139.5,-95.5 139.5,-76.5 0.5,-76.5"/>
<text text-anchor="middle" x="70" y="-83.5" font-family="Helvetica,sans-Serif" font-size="10.00">model.FiniteGrid.copyGrid</text>
</g>
<!-- Node2 -->
<g id="node2" class="node"><title>Node2</title>
<g id="a_node2"><a xlink:href="../../d5/de9/classmodel_1_1_finite_grid.html#ae719e524529b83032d06cbae7b554e6d" target="_top" xlink:title="model.FiniteGrid.FiniteGrid">
<polygon fill="white" stroke="black" points="178.5,-152.5 178.5,-171.5 319.5,-171.5 319.5,-152.5 178.5,-152.5"/>
<text text-anchor="middle" x="249" y="-159.5" font-family="Helvetica,sans-Serif" font-size="10.00">model.FiniteGrid.FiniteGrid</text>
</a>
</g>
</g>
<!-- Node1&#45;&gt;Node2 -->
<g id="edge1" class="edge"><title>Node1&#45;&gt;Node2</title>
<path fill="none" stroke="midnightblue" d="M86.0916,-95.7016C106.001,-108.141 142.452,-129.691 176,-143 181.993,-145.378 188.384,-147.55 194.79,-149.507"/>
<polygon fill="midnightblue" stroke="midnightblue" points="194.236,-152.99 204.815,-152.403 196.179,-146.265 194.236,-152.99"/>
</g>
<!-- Node3 -->
<g id="node3" class="node"><title>Node3</title>
<g id="a_node3"><a xlink:href="../../dc/d8f/classmodel_1_1_grid.html#a7308e05b94f35a2f8198f314eb384267" target="_top" xlink:title="model.Grid.getCell">
<polygon fill="white" stroke="black" points="196.5,-114.5 196.5,-133.5 301.5,-133.5 301.5,-114.5 196.5,-114.5"/>
<text text-anchor="middle" x="249" y="-121.5" font-family="Helvetica,sans-Serif" font-size="10.00">model.Grid.getCell</text>
</a>
</g>
</g>
<!-- Node1&#45;&gt;Node3 -->
<g id="edge2" class="edge"><title>Node1&#45;&gt;Node3</title>
<path fill="none" stroke="midnightblue" d="M115.665,-95.589C139.337,-100.671 168.608,-106.955 193.597,-112.32"/>
<polygon fill="midnightblue" stroke="midnightblue" points="193.145,-115.803 203.657,-114.48 194.614,-108.959 193.145,-115.803"/>
</g>
<!-- Node4 -->
<g id="node4" class="node"><title>Node4</title>
<g id="a_node4"><a xlink:href="../../dc/d8f/classmodel_1_1_grid.html#a01924b6019a14826898f281a3064b3b5" target="_top" xlink:title="model.Grid.getGridColSize">
<polygon fill="white" stroke="black" points="177.5,-76.5 177.5,-95.5 320.5,-95.5 320.5,-76.5 177.5,-76.5"/>
<text text-anchor="middle" x="249" y="-83.5" font-family="Helvetica,sans-Serif" font-size="10.00">model.Grid.getGridColSize</text>
</a>
</g>
</g>
<!-- Node1&#45;&gt;Node4 -->
<g id="edge3" class="edge"><title>Node1&#45;&gt;Node4</title>
<path fill="none" stroke="midnightblue" d="M139.686,-86C148.653,-86 157.905,-86 167.05,-86"/>
<polygon fill="midnightblue" stroke="midnightblue" points="167.307,-89.5001 177.307,-86 167.307,-82.5001 167.307,-89.5001"/>
</g>
<!-- Node5 -->
<g id="node5" class="node"><title>Node5</title>
<g id="a_node5"><a xlink:href="../../dc/d8f/classmodel_1_1_grid.html#a40adce87c26a3a6830125324ae576c34" target="_top" xlink:title="model.Grid.getGridRowSize">
<polygon fill="white" stroke="black" points="176,-38.5 176,-57.5 322,-57.5 322,-38.5 176,-38.5"/>
<text text-anchor="middle" x="249" y="-45.5" font-family="Helvetica,sans-Serif" font-size="10.00">model.Grid.getGridRowSize</text>
</a>
</g>
</g>
<!-- Node1&#45;&gt;Node5 -->
<g id="edge4" class="edge"><title>Node1&#45;&gt;Node5</title>
<path fill="none" stroke="midnightblue" d="M115.665,-76.411C139.337,-71.3287 168.608,-65.0446 193.597,-59.6797"/>
<polygon fill="midnightblue" stroke="midnightblue" points="194.614,-63.0412 203.657,-57.5201 193.145,-56.1972 194.614,-63.0412"/>
</g>
<!-- Node6 -->
<g id="node6" class="node"><title>Node6</title>
<g id="a_node6"><a xlink:href="../../dc/d8f/classmodel_1_1_grid.html#a9e11c6171839cc24ba2b1d86b185912f" target="_top" xlink:title="model.Grid.putCell">
<polygon fill="white" stroke="black" points="196.5,-0.5 196.5,-19.5 301.5,-19.5 301.5,-0.5 196.5,-0.5"/>
<text text-anchor="middle" x="249" y="-7.5" font-family="Helvetica,sans-Serif" font-size="10.00">model.Grid.putCell</text>
</a>
</g>
</g>
<!-- Node1&#45;&gt;Node6 -->
<g id="edge5" class="edge"><title>Node1&#45;&gt;Node6</title>
<path fill="none" stroke="midnightblue" d="M86.0916,-76.2984C106.001,-63.8586 142.452,-42.3089 176,-29 181.993,-26.6223 188.384,-24.4499 194.79,-22.4931"/>
<polygon fill="midnightblue" stroke="midnightblue" points="196.179,-25.7351 204.815,-19.5969 194.236,-19.0101 196.179,-25.7351"/>
</g>
</g>
</svg>
