<?xml version="1.0" encoding="UTF-8" standalone="no"?>
<!DOCTYPE svg PUBLIC "-//W3C//DTD SVG 1.1//EN"
 "http://www.w3.org/Graphics/SVG/1.1/DTD/svg11.dtd">
<!-- Generated by graphviz version 2.36.0 (20140111.2315)
 -->
<!-- Title: model.Grid.getGridColSize Pages: 1 -->
<!--zoomable 296 -->
<svg id="main" version="1.1" xmlns="http://www.w3.org/2000/svg" xmlns:xlink="http://www.w3.org/1999/xlink" xml:space="preserve" onload="init(evt)">
<style type="text/css"><![CDATA[
.edge:hover path { stroke: red; }
.edge:hover polygon { stroke: red; fill: red; }
]]></style>
<script type="text/javascript"><![CDATA[
var edges = document.getElementsByTagName('g');
if (edges && edges.length) {
  for (var i=0;i<edges.length;i++) {
    if (edges[i].id.substr(0,4)=='edge') {
      edges[i].setAttribute('class','edge');
    }
  }
}
]]></script>
        <defs>
                <circle id="rim" cx="0" cy="0" r="7"/>
                <circle id="rim2" cx="0" cy="0" r="3.5"/>
                <g id="zoomPlus">
                        <use xlink:href="#rim" fill="#404040">
                                <set attributeName="fill" to="#808080" begin="zoomplus.mouseover" end="zoomplus.mouseout"/>
                        </use>
                        <path d="M-4,0h8M0,-4v8" fill="none" stroke="white" stroke-width="1.5" pointer-events="none"/>
                </g>
                <g id="zoomMin">
                        <use xlink:href="#rim" fill="#404040">
                                <set attributeName="fill" to="#808080" begin="zoomminus.mouseover" end="zoomminus.mouseout"/>
                        </use>
                        <path d="M-4,0h8" fill="none" stroke="white" stroke-width="1.5" pointer-events="none"/>
                </g>
                <g id="dirArrow">
                        <path fill="none" stroke="white" stroke-width="1.5" d="M0,-3.0v7 M-2.5,-0.5L0,-3.0L2.5,-0.5"/>
                </g>
               <g id="resetDef">
                       <use xlink:href="#rim2" fill="#404040">
                               <set attributeName="fill" to="#808080" begin="reset.mouseover" end="reset.mouseout"/>
                       </use>
               </g>
        </defs>

<script type="text/javascript">
var viewWidth = 1854;
var viewHeight = 296;
var sectionId = 'dynsection-9';
</script>
<script xlink:href="../../svgpan.js"/>
<svg id="graph" class="graph">
<g id="viewport">
<title>model.Grid.getGridColSize</title>
<polygon fill="white" stroke="none" points="-4,4 -4,-292 1850,-292 1850,4 -4,4"/>
<!-- Node1 -->
<g id="node1" class="node"><title>Node1</title>
<polygon fill="#bfbfbf" stroke="black" points="0.5,-137.5 0.5,-156.5 143.5,-156.5 143.5,-137.5 0.5,-137.5"/>
<text text-anchor="middle" x="72" y="-144.5" font-family="Helvetica,sans-Serif" font-size="10.00">model.Grid.getGridColSize</text>
</g>
<!-- Node2 -->
<g id="node2" class="node"><title>Node2</title>
<g id="a_node2"><a xlink:href="../../d5/de9/classmodel_1_1_finite_grid.html#ab81e5e045cdb4a5ff7b2c4c1e4a99e6e" target="_top" xlink:title="model.FiniteGrid.copyGrid">
<polygon fill="white" stroke="black" points="186.5,-268.5 186.5,-287.5 325.5,-287.5 325.5,-268.5 186.5,-268.5"/>
<text text-anchor="middle" x="256" y="-275.5" font-family="Helvetica,sans-Serif" font-size="10.00">model.FiniteGrid.copyGrid</text>
</a>
</g>
</g>
<!-- Node1&#45;&gt;Node2 -->
<g id="edge1" class="edge"><title>Node1&#45;&gt;Node2</title>
<path fill="none" stroke="midnightblue" d="M85.1629,-165.041C102.983,-190.037 138.602,-234.846 180,-259 186.613,-262.858 193.999,-265.941 201.487,-268.401"/>
<polygon fill="midnightblue" stroke="midnightblue" points="87.8148,-162.724 79.2296,-156.516 82.0693,-166.723 87.8148,-162.724"/>
</g>
<!-- Node3 -->
<g id="node3" class="node"><title>Node3</title>
<g id="a_node3"><a xlink:href="../../dc/df5/classmodel_1_1_toroidal_grid.html#acd71c7955159df8b53f45fbc2a672ec5" target="_top" xlink:title="model.ToroidalGrid.copyGrid">
<polygon fill="white" stroke="black" points="181,-230.5 181,-249.5 331,-249.5 331,-230.5 181,-230.5"/>
<text text-anchor="middle" x="256" y="-237.5" font-family="Helvetica,sans-Serif" font-size="10.00">model.ToroidalGrid.copyGrid</text>
</a>
</g>
</g>
<!-- Node1&#45;&gt;Node3 -->
<g id="edge2" class="edge"><title>Node1&#45;&gt;Node3</title>
<path fill="none" stroke="midnightblue" d="M92.3365,-163.199C112.882,-179.662 146.906,-204.836 180,-220 189.188,-224.21 199.43,-227.67 209.319,-230.458"/>
<polygon fill="midnightblue" stroke="midnightblue" points="94.3618,-160.335 84.3983,-156.732 89.9404,-165.761 94.3618,-160.335"/>
</g>
<!-- Node4 -->
<g id="node4" class="node"><title>Node4</title>
<g id="a_node4"><a xlink:href="../../d9/df7/classcontroller_1_1_controller.html#ae43191a1fc7db5c1cb03da2a8a580541" target="_top" xlink:title="controller.Controller.create\lColorGrid">
<polygon fill="white" stroke="black" points="184.5,-181 184.5,-211 327.5,-211 327.5,-181 184.5,-181"/>
<text text-anchor="start" x="192.5" y="-199" font-family="Helvetica,sans-Serif" font-size="10.00">controller.Controller.create</text>
<text text-anchor="middle" x="256" y="-188" font-family="Helvetica,sans-Serif" font-size="10.00">ColorGrid</text>
</a>
</g>
</g>
<!-- Node1&#45;&gt;Node4 -->
<g id="edge3" class="edge"><title>Node1&#45;&gt;Node4</title>
<path fill="none" stroke="midnightblue" d="M118.276,-159.19C142.757,-165.781 173.205,-173.978 199.148,-180.963"/>
<polygon fill="midnightblue" stroke="midnightblue" points="119.09,-155.784 108.523,-156.564 117.27,-162.543 119.09,-155.784"/>
</g>
<!-- Node17 -->
<g id="node17" class="node"><title>Node17</title>
<g id="a_node17"><a xlink:href="../../dc/df5/classmodel_1_1_toroidal_grid.html#a92009f3c34c3300d8533fe4e12d16d24" target="_top" xlink:title="model.ToroidalGrid.getAll\lNeighbors">
<polygon fill="white" stroke="black" points="387.5,-73 387.5,-103 522.5,-103 522.5,-73 387.5,-73"/>
<text text-anchor="start" x="395.5" y="-91" font-family="Helvetica,sans-Serif" font-size="10.00">model.ToroidalGrid.getAll</text>
<text text-anchor="middle" x="455" y="-80" font-family="Helvetica,sans-Serif" font-size="10.00">Neighbors</text>
</a>
</g>
</g>
<!-- Node1&#45;&gt;Node17 -->
<g id="edge19" class="edge"><title>Node1&#45;&gt;Node17</title>
<path fill="none" stroke="midnightblue" d="M121.312,-135.156C139.619,-130.934 160.698,-126.39 180,-123 250.377,-110.64 331.651,-100.811 387.297,-94.7543"/>
<polygon fill="midnightblue" stroke="midnightblue" points="120.397,-131.775 111.456,-137.459 121.99,-138.592 120.397,-131.775"/>
</g>
<!-- Node18 -->
<g id="node18" class="node"><title>Node18</title>
<g id="a_node18"><a xlink:href="../../dc/df5/classmodel_1_1_toroidal_grid.html#a52805c279f2f0d1edc793980f171dffb" target="_top" xlink:title="model.ToroidalGrid.getDirect\lNeighbors">
<polygon fill="white" stroke="black" points="180,-44 180,-74 332,-74 332,-44 180,-44"/>
<text text-anchor="start" x="188" y="-62" font-family="Helvetica,sans-Serif" font-size="10.00">model.ToroidalGrid.getDirect</text>
<text text-anchor="middle" x="256" y="-51" font-family="Helvetica,sans-Serif" font-size="10.00">Neighbors</text>
</a>
</g>
</g>
<!-- Node1&#45;&gt;Node18 -->
<g id="edge20" class="edge"><title>Node1&#45;&gt;Node18</title>
<path fill="none" stroke="midnightblue" d="M98.1576,-132.284C119.575,-120.019 151.338,-102.445 180,-89 191.173,-83.7589 203.527,-78.5762 214.929,-74.031"/>
<polygon fill="midnightblue" stroke="midnightblue" points="96.2875,-129.322 89.3729,-137.349 99.7843,-135.386 96.2875,-129.322"/>
</g>
<!-- Node19 -->
<g id="node19" class="node"><title>Node19</title>
<g id="a_node19"><a xlink:href="../../d2/d17/classmodel_1_1_simulation.html#a4fc716803ab2e78743a529a24a8c601f" target="_top" xlink:title="model.Simulation.makeNextGrid">
<polygon fill="white" stroke="black" points="368.5,-24.5 368.5,-43.5 541.5,-43.5 541.5,-24.5 368.5,-24.5"/>
<text text-anchor="middle" x="455" y="-31.5" font-family="Helvetica,sans-Serif" font-size="10.00">model.Simulation.makeNextGrid</text>
</a>
</g>
</g>
<!-- Node1&#45;&gt;Node19 -->
<g id="edge22" class="edge"><title>Node1&#45;&gt;Node19</title>
<path fill="none" stroke="midnightblue" d="M83.6598,-128.473C100.269,-101.704 135.13,-53.3064 180,-34 257.342,-0.721387 358.718,-13.4609 413.921,-24.4926"/>
<polygon fill="midnightblue" stroke="midnightblue" points="80.5292,-126.888 78.3815,-137.263 86.5303,-130.492 80.5292,-126.888"/>
</g>
<!-- Node20 -->
<g id="node20" class="node"><title>Node20</title>
<g id="a_node20"><a xlink:href="../../d9/df7/classcontroller_1_1_controller.html#aca48bc84d82655ce699963fd859afebd" target="_top" xlink:title="controller.Controller.update\lStateTotals">
<polygon fill="white" stroke="black" points="183,-132 183,-162 329,-162 329,-132 183,-132"/>
<text text-anchor="start" x="191" y="-150" font-family="Helvetica,sans-Serif" font-size="10.00">controller.Controller.update</text>
<text text-anchor="middle" x="256" y="-139" font-family="Helvetica,sans-Serif" font-size="10.00">StateTotals</text>
</a>
</g>
</g>
<!-- Node1&#45;&gt;Node20 -->
<g id="edge24" class="edge"><title>Node1&#45;&gt;Node20</title>
<path fill="none" stroke="midnightblue" d="M153.691,-147C163.423,-147 173.314,-147 182.912,-147"/>
<polygon fill="midnightblue" stroke="midnightblue" points="153.626,-143.5 143.626,-147 153.626,-150.5 153.626,-143.5"/>
</g>
<!-- Node5 -->
<g id="node5" class="node"><title>Node5</title>
<g id="a_node5"><a xlink:href="../../d9/df7/classcontroller_1_1_controller.html#af87c08769a85e54ca1d5c688b82b11f6" target="_top" xlink:title="controller.Controller.bundle\lViewPackager">
<polygon fill="white" stroke="black" points="382.5,-132 382.5,-162 527.5,-162 527.5,-132 382.5,-132"/>
<text text-anchor="start" x="390.5" y="-150" font-family="Helvetica,sans-Serif" font-size="10.00">controller.Controller.bundle</text>
<text text-anchor="middle" x="455" y="-139" font-family="Helvetica,sans-Serif" font-size="10.00">ViewPackager</text>
</a>
</g>
</g>
<!-- Node4&#45;&gt;Node5 -->
<g id="edge4" class="edge"><title>Node4&#45;&gt;Node5</title>
<path fill="none" stroke="midnightblue" d="M327.264,-178.523C348.977,-173.123 372.689,-167.224 393.669,-162.006"/>
<polygon fill="midnightblue" stroke="midnightblue" points="326.305,-175.155 317.445,-180.965 327.994,-181.948 326.305,-175.155"/>
</g>
<!-- Node6 -->
<g id="node6" class="node"><title>Node6</title>
<g id="a_node6"><a xlink:href="../../d9/df7/classcontroller_1_1_controller.html#af7cc9ab6dfe60da36d3159eea48882db" target="_top" xlink:title="controller.Controller.loadFile">
<polygon fill="white" stroke="black" points="578,-137.5 578,-156.5 726,-156.5 726,-137.5 578,-137.5"/>
<text text-anchor="middle" x="652" y="-144.5" font-family="Helvetica,sans-Serif" font-size="10.00">controller.Controller.loadFile</text>
</a>
</g>
</g>
<!-- Node5&#45;&gt;Node6 -->
<g id="edge5" class="edge"><title>Node5&#45;&gt;Node6</title>
<path fill="none" stroke="midnightblue" d="M537.619,-147C550.974,-147 564.738,-147 577.871,-147"/>
<polygon fill="midnightblue" stroke="midnightblue" points="537.504,-143.5 527.504,-147 537.504,-150.5 537.504,-143.5"/>
</g>
<!-- Node12 -->
<g id="node12" class="node"><title>Node12</title>
<g id="a_node12"><a xlink:href="../../d9/df7/classcontroller_1_1_controller.html#aa8fee9e96592dabbb151850b562d9ec0" target="_top" xlink:title="controller.Controller.step\lSimulation">
<polygon fill="white" stroke="black" points="585,-31 585,-61 719,-61 719,-31 585,-31"/>
<text text-anchor="start" x="593" y="-49" font-family="Helvetica,sans-Serif" font-size="10.00">controller.Controller.step</text>
<text text-anchor="middle" x="652" y="-38" font-family="Helvetica,sans-Serif" font-size="10.00">Simulation</text>
</a>
</g>
</g>
<!-- Node5&#45;&gt;Node12 -->
<g id="edge11" class="edge"><title>Node5&#45;&gt;Node12</title>
<path fill="none" stroke="midnightblue" d="M506.208,-128.122C518.104,-123.224 530.634,-117.709 542,-112 572.839,-96.5097 606.569,-75.3899 628.215,-61.2537"/>
<polygon fill="midnightblue" stroke="midnightblue" points="504.797,-124.917 496.837,-131.91 507.42,-131.407 504.797,-124.917"/>
</g>
<!-- Node7 -->
<g id="node7" class="node"><title>Node7</title>
<g id="a_node7"><a xlink:href="../../d1/dbf/classview_package_1_1_view.html#a718e5f42ae85512916198548e28477c7" target="_top" xlink:title="viewPackage.View.tryLoad">
<polygon fill="white" stroke="black" points="762,-137.5 762,-156.5 902,-156.5 902,-137.5 762,-137.5"/>
<text text-anchor="middle" x="832" y="-144.5" font-family="Helvetica,sans-Serif" font-size="10.00">viewPackage.View.tryLoad</text>
</a>
</g>
</g>
<!-- Node6&#45;&gt;Node7 -->
<g id="edge6" class="edge"><title>Node6&#45;&gt;Node7</title>
<path fill="none" stroke="midnightblue" d="M736.193,-147C744.776,-147 753.431,-147 761.838,-147"/>
<polygon fill="midnightblue" stroke="midnightblue" points="736.17,-143.5 726.17,-147 736.17,-150.5 736.17,-143.5"/>
</g>
<!-- Node8 -->
<g id="node8" class="node"><title>Node8</title>
<g id="a_node8"><a xlink:href="../../dc/d2c/classview_package_1_1_button_box.html#aef53bd97c4407ecd3fb5dfbf42850a46" target="_top" xlink:title="viewPackage.ButtonBox.load\lFileBox">
<polygon fill="white" stroke="black" points="1122.5,-122 1122.5,-152 1275.5,-152 1275.5,-122 1122.5,-122"/>
<text text-anchor="start" x="1130.5" y="-140" font-family="Helvetica,sans-Serif" font-size="10.00">viewPackage.ButtonBox.load</text>
<text text-anchor="middle" x="1199" y="-129" font-family="Helvetica,sans-Serif" font-size="10.00">FileBox</text>
</a>
</g>
</g>
<!-- Node7&#45;&gt;Node8 -->
<g id="edge7" class="edge"><title>Node7&#45;&gt;Node8</title>
<path fill="none" stroke="midnightblue" d="M912.262,-144.828C974.595,-143.121 1060.87,-140.757 1122.27,-139.075"/>
<polygon fill="midnightblue" stroke="midnightblue" points="911.983,-141.335 902.083,-145.107 912.175,-148.332 911.983,-141.335"/>
</g>
<!-- Node9 -->
<g id="node9" class="node"><title>Node9</title>
<g id="a_node9"><a xlink:href="../../dc/d2c/classview_package_1_1_button_box.html#a9756fc46a96c169ce48a1867bd2c82f5" target="_top" xlink:title="viewPackage.ButtonBox.make\lButtonBox">
<polygon fill="white" stroke="black" points="1312,-54 1312,-84 1472,-84 1472,-54 1312,-54"/>
<text text-anchor="start" x="1320" y="-72" font-family="Helvetica,sans-Serif" font-size="10.00">viewPackage.ButtonBox.make</text>
<text text-anchor="middle" x="1392" y="-61" font-family="Helvetica,sans-Serif" font-size="10.00">ButtonBox</text>
</a>
</g>
</g>
<!-- Node8&#45;&gt;Node9 -->
<g id="edge8" class="edge"><title>Node8&#45;&gt;Node9</title>
<path fill="none" stroke="midnightblue" d="M1251.97,-118.499C1282.34,-107.684 1320.19,-94.2083 1348.73,-84.0492"/>
<polygon fill="midnightblue" stroke="midnightblue" points="1250.64,-115.257 1242.39,-121.909 1252.98,-121.852 1250.64,-115.257"/>
</g>
<!-- Node10 -->
<g id="node10" class="node"><title>Node10</title>
<g id="a_node10"><a xlink:href="../../d1/dbf/classview_package_1_1_view.html#af6f6887ef253ae0fba2634e367b95312" target="_top" xlink:title="viewPackage.View.initialize">
<polygon fill="white" stroke="black" points="1508,-59.5 1508,-78.5 1650,-78.5 1650,-59.5 1508,-59.5"/>
<text text-anchor="middle" x="1579" y="-66.5" font-family="Helvetica,sans-Serif" font-size="10.00">viewPackage.View.initialize</text>
</a>
</g>
</g>
<!-- Node9&#45;&gt;Node10 -->
<g id="edge9" class="edge"><title>Node9&#45;&gt;Node10</title>
<path fill="none" stroke="midnightblue" d="M1482.33,-69C1490.93,-69 1499.57,-69 1507.95,-69"/>
<polygon fill="midnightblue" stroke="midnightblue" points="1482.26,-65.5001 1472.26,-69 1482.26,-72.5001 1482.26,-65.5001"/>
</g>
<!-- Node11 -->
<g id="node11" class="node"><title>Node11</title>
<g id="a_node11"><a xlink:href="../../d9/df7/classcontroller_1_1_controller.html#a4dbfef3e3e30bd1bb84df7a6b24ad1e7" target="_top" xlink:title="controller.Controller.Controller">
<polygon fill="white" stroke="black" points="1686.5,-59.5 1686.5,-78.5 1845.5,-78.5 1845.5,-59.5 1686.5,-59.5"/>
<text text-anchor="middle" x="1766" y="-66.5" font-family="Helvetica,sans-Serif" font-size="10.00">controller.Controller.Controller</text>
</a>
</g>
</g>
<!-- Node10&#45;&gt;Node11 -->
<g id="edge10" class="edge"><title>Node10&#45;&gt;Node11</title>
<path fill="none" stroke="midnightblue" d="M1660.31,-69C1669,-69 1677.83,-69 1686.49,-69"/>
<polygon fill="midnightblue" stroke="midnightblue" points="1660.2,-65.5001 1650.2,-69 1660.2,-72.5001 1660.2,-65.5001"/>
</g>
<!-- Node13 -->
<g id="node13" class="node"><title>Node13</title>
<g id="a_node13"><a xlink:href="../../d9/df7/classcontroller_1_1_controller.html#ae859ed2fba4e22871428ec51f7d4c07d" target="_top" xlink:title="controller.Controller.play\lSimulation">
<polygon fill="white" stroke="black" points="766,-44 766,-74 898,-74 898,-44 766,-44"/>
<text text-anchor="start" x="774" y="-62" font-family="Helvetica,sans-Serif" font-size="10.00">controller.Controller.play</text>
<text text-anchor="middle" x="832" y="-51" font-family="Helvetica,sans-Serif" font-size="10.00">Simulation</text>
</a>
</g>
</g>
<!-- Node12&#45;&gt;Node13 -->
<g id="edge12" class="edge"><title>Node12&#45;&gt;Node13</title>
<path fill="none" stroke="midnightblue" d="M729.211,-51.566C741.451,-52.4599 754.021,-53.3779 765.968,-54.2505"/>
<polygon fill="midnightblue" stroke="midnightblue" points="729.256,-48.06 719.028,-50.8222 728.746,-55.0414 729.256,-48.06"/>
</g>
<!-- Node16 -->
<g id="node16" class="node"><title>Node16</title>
<g id="a_node16"><a xlink:href="../../d1/dbf/classview_package_1_1_view.html#acec783d5c91d6cb27da271e46588e79f" target="_top" xlink:title="viewPackage.View.setStep\lSimulation">
<polygon fill="white" stroke="black" points="941.5,-0 941.5,-30 1082.5,-30 1082.5,-0 941.5,-0"/>
<text text-anchor="start" x="949.5" y="-18" font-family="Helvetica,sans-Serif" font-size="10.00">viewPackage.View.setStep</text>
<text text-anchor="middle" x="1012" y="-7" font-family="Helvetica,sans-Serif" font-size="10.00">Simulation</text>
</a>
</g>
</g>
<!-- Node12&#45;&gt;Node16 -->
<g id="edge17" class="edge"><title>Node12&#45;&gt;Node16</title>
<path fill="none" stroke="midnightblue" d="M729.262,-37.2756C740.242,-36.1152 751.405,-34.9871 762,-34 822.543,-28.3591 891.484,-23.1963 941.45,-19.6807"/>
<polygon fill="midnightblue" stroke="midnightblue" points="728.822,-33.8026 719.252,-38.3473 729.568,-40.7628 728.822,-33.8026"/>
</g>
<!-- Node14 -->
<g id="node14" class="node"><title>Node14</title>
<g id="a_node14"><a xlink:href="../../d9/df7/classcontroller_1_1_controller.html#a37d9d1d84d304a9d94d7666322b7c6ab" target="_top" xlink:title="controller.Controller.change\lSpeed">
<polygon fill="white" stroke="black" points="938,-88 938,-118 1086,-118 1086,-88 938,-88"/>
<text text-anchor="start" x="946" y="-106" font-family="Helvetica,sans-Serif" font-size="10.00">controller.Controller.change</text>
<text text-anchor="middle" x="1012" y="-95" font-family="Helvetica,sans-Serif" font-size="10.00">Speed</text>
</a>
</g>
</g>
<!-- Node13&#45;&gt;Node14 -->
<g id="edge13" class="edge"><title>Node13&#45;&gt;Node14</title>
<path fill="none" stroke="midnightblue" d="M903.737,-76.4855C919.117,-80.2873 935.257,-84.277 950.212,-87.9738"/>
<polygon fill="midnightblue" stroke="midnightblue" points="904.307,-73.0213 893.76,-74.0192 902.628,-79.8167 904.307,-73.0213"/>
</g>
<!-- Node15 -->
<g id="node15" class="node"><title>Node15</title>
<g id="a_node15"><a xlink:href="../../d1/dbf/classview_package_1_1_view.html#a1d1a8e16ae622c0d6a66cd9c516672a6" target="_top" xlink:title="viewPackage.View.setPlay\lAction">
<polygon fill="white" stroke="black" points="1130,-54 1130,-84 1268,-84 1268,-54 1130,-54"/>
<text text-anchor="start" x="1138" y="-72" font-family="Helvetica,sans-Serif" font-size="10.00">viewPackage.View.setPlay</text>
<text text-anchor="middle" x="1199" y="-61" font-family="Helvetica,sans-Serif" font-size="10.00">Action</text>
</a>
</g>
</g>
<!-- Node13&#45;&gt;Node15 -->
<g id="edge16" class="edge"><title>Node13&#45;&gt;Node15</title>
<path fill="none" stroke="midnightblue" d="M908.464,-61.0675C973.638,-62.8531 1066.98,-65.4104 1129.91,-67.1344"/>
<polygon fill="midnightblue" stroke="midnightblue" points="908.347,-57.5631 898.255,-60.7878 908.155,-64.5605 908.347,-57.5631"/>
</g>
<!-- Node14&#45;&gt;Node15 -->
<g id="edge14" class="edge"><title>Node14&#45;&gt;Node15</title>
<path fill="none" stroke="midnightblue" d="M1096.02,-87.7427C1107.36,-85.6581 1118.89,-83.5383 1129.93,-81.5102"/>
<polygon fill="midnightblue" stroke="midnightblue" points="1095.32,-84.3123 1086.12,-89.5623 1096.58,-91.197 1095.32,-84.3123"/>
</g>
<!-- Node15&#45;&gt;Node9 -->
<g id="edge15" class="edge"><title>Node15&#45;&gt;Node9</title>
<path fill="none" stroke="midnightblue" d="M1278.22,-69C1289.3,-69 1300.7,-69 1311.8,-69"/>
<polygon fill="midnightblue" stroke="midnightblue" points="1278.15,-65.5001 1268.15,-69 1278.15,-72.5001 1278.15,-65.5001"/>
</g>
<!-- Node16&#45;&gt;Node9 -->
<g id="edge18" class="edge"><title>Node16&#45;&gt;Node9</title>
<path fill="none" stroke="midnightblue" d="M1092.98,-21.6358C1145.25,-26.5094 1214.9,-34.0185 1276,-44 1292.84,-46.7507 1310.93,-50.3667 1327.66,-53.9909"/>
<polygon fill="midnightblue" stroke="midnightblue" points="1093.04,-18.127 1082.76,-20.6963 1092.4,-25.0976 1093.04,-18.127"/>
</g>
<!-- Node18&#45;&gt;Node17 -->
<g id="edge21" class="edge"><title>Node18&#45;&gt;Node17</title>
<path fill="none" stroke="midnightblue" d="M342.355,-71.565C357.377,-73.7763 372.814,-76.0488 387.235,-78.1717"/>
<polygon fill="midnightblue" stroke="midnightblue" points="342.442,-68.0402 332.039,-70.0464 341.423,-74.9655 342.442,-68.0402"/>
</g>
<!-- Node19&#45;&gt;Node12 -->
<g id="edge23" class="edge"><title>Node19&#45;&gt;Node12</title>
<path fill="none" stroke="midnightblue" d="M551.789,-39.8947C562.989,-40.5839 574.218,-41.275 584.886,-41.9315"/>
<polygon fill="midnightblue" stroke="midnightblue" points="551.726,-36.3843 541.53,-39.2634 551.296,-43.3711 551.726,-36.3843"/>
</g>
<!-- Node20&#45;&gt;Node5 -->
<g id="edge25" class="edge"><title>Node20&#45;&gt;Node5</title>
<path fill="none" stroke="midnightblue" d="M339.52,-147C353.777,-147 368.493,-147 382.43,-147"/>
<polygon fill="midnightblue" stroke="midnightblue" points="339.237,-143.5 329.237,-147 339.237,-150.5 339.237,-143.5"/>
</g>
</g>
</svg>
        <g id="navigator" transform="translate(0 0)" fill="#404254">
                <rect fill="#f2f5e9" fill-opacity="0.5" stroke="#606060" stroke-width=".5" x="0" y="0" width="60" height="60"/>
                <use id="zoomplus" xlink:href="#zoomPlus" x="17" y="9" onmousedown="handleZoom(evt,'in')"/>
                <use id="zoomminus" xlink:href="#zoomMin" x="42" y="9" onmousedown="handleZoom(evt,'out')"/>
                <use id="reset" xlink:href="#resetDef" x="30" y="36" onmousedown="handleReset()"/>
                <g id="arrowUp" xlink:href="#dirArrow" transform="translate(30 24)" onmousedown="handlePan(0,-1)">
                  <use xlink:href="#rim" fill="#404040">
                        <set attributeName="fill" to="#808080" begin="arrowUp.mouseover" end="arrowUp.mouseout"/>
                  </use>
                  <path fill="none" stroke="white" stroke-width="1.5" d="M0,-3.0v7 M-2.5,-0.5L0,-3.0L2.5,-0.5"/>
                </g>
                <g id="arrowRight" xlink:href="#dirArrow" transform="rotate(90) translate(36 -43)" onmousedown="handlePan(1,0)">
                  <use xlink:href="#rim" fill="#404040">
                        <set attributeName="fill" to="#808080" begin="arrowRight.mouseover" end="arrowRight.mouseout"/>
                  </use>
                  <path fill="none" stroke="white" stroke-width="1.5" d="M0,-3.0v7 M-2.5,-0.5L0,-3.0L2.5,-0.5"/>
                </g>
                <g id="arrowDown" xlink:href="#dirArrow" transform="rotate(180) translate(-30 -48)" onmousedown="handlePan(0,1)">
                  <use xlink:href="#rim" fill="#404040">
                        <set attributeName="fill" to="#808080" begin="arrowDown.mouseover" end="arrowDown.mouseout"/>
                  </use>
                  <path fill="none" stroke="white" stroke-width="1.5" d="M0,-3.0v7 M-2.5,-0.5L0,-3.0L2.5,-0.5"/>
                </g>
                <g id="arrowLeft" xlink:href="#dirArrow" transform="rotate(270) translate(-36 17)" onmousedown="handlePan(-1,0)">
                  <use xlink:href="#rim" fill="#404040">
                        <set attributeName="fill" to="#808080" begin="arrowLeft.mouseover" end="arrowLeft.mouseout"/>
                  </use>
                  <path fill="none" stroke="white" stroke-width="1.5" d="M0,-3.0v7 M-2.5,-0.5L0,-3.0L2.5,-0.5"/>
                </g>
        </g>
        <svg viewBox="0 0 15 15" width="100%" height="30px" preserveAspectRatio="xMaxYMin meet">
         <g id="arrow_out" transform="scale(0.3 0.3)">
          <a xlink:href="classmodel_1_1_grid_a01924b6019a14826898f281a3064b3b5_icgraph_org.svg" target="_base">
           <rect id="button" ry="5" rx="5" y="6" x="6" height="38" width="38"
                fill="#f2f5e9" fill-opacity="0.5" stroke="#606060" stroke-width="1.0"/>
           <path id="arrow"
             d="M 11.500037,31.436501 C 11.940474,20.09759 22.043105,11.32322 32.158766,21.979434 L 37.068811,17.246167 C 37.068811,17.246167 37.088388,32 37.088388,32 L 22.160133,31.978069 C 22.160133,31.978069 26.997745,27.140456 26.997745,27.140456 C 18.528582,18.264221 13.291696,25.230495 11.500037,31.436501 z"
             style="fill:#404040;"/>
          </a>
         </g>
        </svg>
</svg>
