<?xml version="1.0" encoding="UTF-8" standalone="no"?>
<!DOCTYPE svg PUBLIC "-//W3C//DTD SVG 1.1//EN"
 "http://www.w3.org/Graphics/SVG/1.1/DTD/svg11.dtd">
<!-- Generated by graphviz version 2.36.0 (20140111.2315)
 -->
<!-- Title: model.Grid.getGridRowSize Pages: 1 -->
<!--zoomable 296 -->
<svg id="main" version="1.1" xmlns="http://www.w3.org/2000/svg" xmlns:xlink="http://www.w3.org/1999/xlink" xml:space="preserve" onload="init(evt)">
<style type="text/css"><![CDATA[
.edge:hover path { stroke: red; }
.edge:hover polygon { stroke: red; fill: red; }
]]></style>
<script type="text/javascript"><![CDATA[
var edges = document.getElementsByTagName('g');
if (edges && edges.length) {
  for (var i=0;i<edges.length;i++) {
    if (edges[i].id.substr(0,4)=='edge') {
      edges[i].setAttribute('class','edge');
    }
  }
}
]]></script>
        <defs>
                <circle id="rim" cx="0" cy="0" r="7"/>
                <circle id="rim2" cx="0" cy="0" r="3.5"/>
                <g id="zoomPlus">
                        <use xlink:href="#rim" fill="#404040">
                                <set attributeName="fill" to="#808080" begin="zoomplus.mouseover" end="zoomplus.mouseout"/>
                        </use>
                        <path d="M-4,0h8M0,-4v8" fill="none" stroke="white" stroke-width="1.5" pointer-events="none"/>
                </g>
                <g id="zoomMin">
                        <use xlink:href="#rim" fill="#404040">
                                <set attributeName="fill" to="#808080" begin="zoomminus.mouseover" end="zoomminus.mouseout"/>
                        </use>
                        <path d="M-4,0h8" fill="none" stroke="white" stroke-width="1.5" pointer-events="none"/>
                </g>
                <g id="dirArrow">
                        <path fill="none" stroke="white" stroke-width="1.5" d="M0,-3.0v7 M-2.5,-0.5L0,-3.0L2.5,-0.5"/>
                </g>
               <g id="resetDef">
                       <use xlink:href="#rim2" fill="#404040">
                               <set attributeName="fill" to="#808080" begin="reset.mouseover" end="reset.mouseout"/>
                       </use>
               </g>
        </defs>

<script type="text/javascript">
var viewWidth = 1856;
var viewHeight = 296;
var sectionId = 'dynsection-10';
</script>
<script xlink:href="../../svgpan.js"/>
<svg id="graph" class="graph">
<g id="viewport">
<title>model.Grid.getGridRowSize</title>
<polygon fill="white" stroke="none" points="-4,4 -4,-292 1852,-292 1852,4 -4,4"/>
<!-- Node1 -->
<g id="node1" class="node"><title>Node1</title>
<polygon fill="#bfbfbf" stroke="black" points="0,-137.5 0,-156.5 146,-156.5 146,-137.5 0,-137.5"/>
<text text-anchor="middle" x="73" y="-144.5" font-family="Helvetica,sans-Serif" font-size="10.00">model.Grid.getGridRowSize</text>
</g>
<!-- Node2 -->
<g id="node2" class="node"><title>Node2</title>
<g id="a_node2"><a xlink:href="../../d5/de9/classmodel_1_1_finite_grid.html#ab81e5e045cdb4a5ff7b2c4c1e4a99e6e" target="_top" xlink:title="model.FiniteGrid.copyGrid">
<polygon fill="white" stroke="black" points="188.5,-268.5 188.5,-287.5 327.5,-287.5 327.5,-268.5 188.5,-268.5"/>
<text text-anchor="middle" x="258" y="-275.5" font-family="Helvetica,sans-Serif" font-size="10.00">model.FiniteGrid.copyGrid</text>
</a>
</g>
</g>
<!-- Node1&#45;&gt;Node2 -->
<g id="edge1" class="edge"><title>Node1&#45;&gt;Node2</title>
<path fill="none" stroke="midnightblue" d="M86.0796,-164.709C104.035,-189.635 140.177,-234.728 182,-259 188.622,-262.843 196.013,-265.917 203.503,-268.373"/>
<polygon fill="midnightblue" stroke="midnightblue" points="88.929,-162.676 80.3106,-156.514 83.2051,-166.706 88.929,-162.676"/>
</g>
<!-- Node3 -->
<g id="node3" class="node"><title>Node3</title>
<g id="a_node3"><a xlink:href="../../dc/df5/classmodel_1_1_toroidal_grid.html#acd71c7955159df8b53f45fbc2a672ec5" target="_top" xlink:title="model.ToroidalGrid.copyGrid">
<polygon fill="white" stroke="black" points="183,-230.5 183,-249.5 333,-249.5 333,-230.5 183,-230.5"/>
<text text-anchor="middle" x="258" y="-237.5" font-family="Helvetica,sans-Serif" font-size="10.00">model.ToroidalGrid.copyGrid</text>
</a>
</g>
</g>
<!-- Node1&#45;&gt;Node3 -->
<g id="edge2" class="edge"><title>Node1&#45;&gt;Node3</title>
<path fill="none" stroke="midnightblue" d="M93.5436,-163.189C114.303,-179.643 148.662,-204.812 182,-220 191.197,-224.19 201.443,-227.642 211.333,-230.428"/>
<polygon fill="midnightblue" stroke="midnightblue" points="95.5047,-160.274 85.522,-156.725 91.1125,-165.725 95.5047,-160.274"/>
</g>
<!-- Node4 -->
<g id="node4" class="node"><title>Node4</title>
<g id="a_node4"><a xlink:href="../../d9/df7/classcontroller_1_1_controller.html#ae43191a1fc7db5c1cb03da2a8a580541" target="_top" xlink:title="controller.Controller.create\lColorGrid">
<polygon fill="white" stroke="black" points="186.5,-181 186.5,-211 329.5,-211 329.5,-181 186.5,-181"/>
<text text-anchor="start" x="194.5" y="-199" font-family="Helvetica,sans-Serif" font-size="10.00">controller.Controller.create</text>
<text text-anchor="middle" x="258" y="-188" font-family="Helvetica,sans-Serif" font-size="10.00">ColorGrid</text>
</a>
</g>
</g>
<!-- Node1&#45;&gt;Node4 -->
<g id="edge3" class="edge"><title>Node1&#45;&gt;Node4</title>
<path fill="none" stroke="midnightblue" d="M119.524,-159.19C144.141,-165.781 174.755,-173.978 200.842,-180.963"/>
<polygon fill="midnightblue" stroke="midnightblue" points="120.284,-155.77 109.719,-156.564 118.473,-162.531 120.284,-155.77"/>
</g>
<!-- Node17 -->
<g id="node17" class="node"><title>Node17</title>
<g id="a_node17"><a xlink:href="../../dc/df5/classmodel_1_1_toroidal_grid.html#a92009f3c34c3300d8533fe4e12d16d24" target="_top" xlink:title="model.ToroidalGrid.getAll\lNeighbors">
<polygon fill="white" stroke="black" points="389.5,-73 389.5,-103 524.5,-103 524.5,-73 389.5,-73"/>
<text text-anchor="start" x="397.5" y="-91" font-family="Helvetica,sans-Serif" font-size="10.00">model.ToroidalGrid.getAll</text>
<text text-anchor="middle" x="457" y="-80" font-family="Helvetica,sans-Serif" font-size="10.00">Neighbors</text>
</a>
</g>
</g>
<!-- Node1&#45;&gt;Node17 -->
<g id="edge19" class="edge"><title>Node1&#45;&gt;Node17</title>
<path fill="none" stroke="midnightblue" d="M122.769,-135.168C141.248,-130.947 162.523,-126.401 182,-123 252.39,-110.71 333.662,-100.87 389.303,-94.7908"/>
<polygon fill="midnightblue" stroke="midnightblue" points="121.774,-131.805 112.82,-137.47 123.352,-138.625 121.774,-131.805"/>
</g>
<!-- Node18 -->
<g id="node18" class="node"><title>Node18</title>
<g id="a_node18"><a xlink:href="../../dc/df5/classmodel_1_1_toroidal_grid.html#a52805c279f2f0d1edc793980f171dffb" target="_top" xlink:title="model.ToroidalGrid.getDirect\lNeighbors">
<polygon fill="white" stroke="black" points="182,-44 182,-74 334,-74 334,-44 182,-44"/>
<text text-anchor="start" x="190" y="-62" font-family="Helvetica,sans-Serif" font-size="10.00">model.ToroidalGrid.getDirect</text>
<text text-anchor="middle" x="258" y="-51" font-family="Helvetica,sans-Serif" font-size="10.00">Neighbors</text>
</a>
</g>
</g>
<!-- Node1&#45;&gt;Node18 -->
<g id="edge20" class="edge"><title>Node1&#45;&gt;Node18</title>
<path fill="none" stroke="midnightblue" d="M99.4104,-132.305C121.038,-120.053 153.105,-102.486 182,-89 193.183,-83.7807 205.54,-78.6047 216.942,-74.059"/>
<polygon fill="midnightblue" stroke="midnightblue" points="97.4914,-129.37 90.5387,-137.365 100.959,-135.451 97.4914,-129.37"/>
</g>
<!-- Node19 -->
<g id="node19" class="node"><title>Node19</title>
<g id="a_node19"><a xlink:href="../../d2/d17/classmodel_1_1_simulation.html#a4fc716803ab2e78743a529a24a8c601f" target="_top" xlink:title="model.Simulation.makeNextGrid">
<polygon fill="white" stroke="black" points="370.5,-24.5 370.5,-43.5 543.5,-43.5 543.5,-24.5 370.5,-24.5"/>
<text text-anchor="middle" x="457" y="-31.5" font-family="Helvetica,sans-Serif" font-size="10.00">model.Simulation.makeNextGrid</text>
</a>
</g>
</g>
<!-- Node1&#45;&gt;Node19 -->
<g id="edge22" class="edge"><title>Node1&#45;&gt;Node19</title>
<path fill="none" stroke="midnightblue" d="M84.8049,-128.468C101.627,-101.693 136.887,-53.2872 182,-34 259.201,-0.994619 360.194,-13.5006 415.474,-24.4509"/>
<polygon fill="midnightblue" stroke="midnightblue" points="81.6637,-126.897 79.4572,-137.26 87.6443,-130.535 81.6637,-126.897"/>
</g>
<!-- Node20 -->
<g id="node20" class="node"><title>Node20</title>
<g id="a_node20"><a xlink:href="../../d9/df7/classcontroller_1_1_controller.html#aca48bc84d82655ce699963fd859afebd" target="_top" xlink:title="controller.Controller.update\lStateTotals">
<polygon fill="white" stroke="black" points="185,-132 185,-162 331,-162 331,-132 185,-132"/>
<text text-anchor="start" x="193" y="-150" font-family="Helvetica,sans-Serif" font-size="10.00">controller.Controller.update</text>
<text text-anchor="middle" x="258" y="-139" font-family="Helvetica,sans-Serif" font-size="10.00">StateTotals</text>
</a>
</g>
</g>
<!-- Node1&#45;&gt;Node20 -->
<g id="edge24" class="edge"><title>Node1&#45;&gt;Node20</title>
<path fill="none" stroke="midnightblue" d="M156.277,-147C165.756,-147 175.369,-147 184.702,-147"/>
<polygon fill="midnightblue" stroke="midnightblue" points="156.064,-143.5 146.064,-147 156.064,-150.5 156.064,-143.5"/>
</g>
<!-- Node5 -->
<g id="node5" class="node"><title>Node5</title>
<g id="a_node5"><a xlink:href="../../d9/df7/classcontroller_1_1_controller.html#af87c08769a85e54ca1d5c688b82b11f6" target="_top" xlink:title="controller.Controller.bundle\lViewPackager">
<polygon fill="white" stroke="black" points="384.5,-132 384.5,-162 529.5,-162 529.5,-132 384.5,-132"/>
<text text-anchor="start" x="392.5" y="-150" font-family="Helvetica,sans-Serif" font-size="10.00">controller.Controller.bundle</text>
<text text-anchor="middle" x="457" y="-139" font-family="Helvetica,sans-Serif" font-size="10.00">ViewPackager</text>
</a>
</g>
</g>
<!-- Node4&#45;&gt;Node5 -->
<g id="edge4" class="edge"><title>Node4&#45;&gt;Node5</title>
<path fill="none" stroke="midnightblue" d="M329.264,-178.523C350.977,-173.123 374.689,-167.224 395.669,-162.006"/>
<polygon fill="midnightblue" stroke="midnightblue" points="328.305,-175.155 319.445,-180.965 329.994,-181.948 328.305,-175.155"/>
</g>
<!-- Node6 -->
<g id="node6" class="node"><title>Node6</title>
<g id="a_node6"><a xlink:href="../../d9/df7/classcontroller_1_1_controller.html#af7cc9ab6dfe60da36d3159eea48882db" target="_top" xlink:title="controller.Controller.loadFile">
<polygon fill="white" stroke="black" points="580,-137.5 580,-156.5 728,-156.5 728,-137.5 580,-137.5"/>
<text text-anchor="middle" x="654" y="-144.5" font-family="Helvetica,sans-Serif" font-size="10.00">controller.Controller.loadFile</text>
</a>
</g>
</g>
<!-- Node5&#45;&gt;Node6 -->
<g id="edge5" class="edge"><title>Node5&#45;&gt;Node6</title>
<path fill="none" stroke="midnightblue" d="M539.619,-147C552.974,-147 566.738,-147 579.871,-147"/>
<polygon fill="midnightblue" stroke="midnightblue" points="539.504,-143.5 529.504,-147 539.504,-150.5 539.504,-143.5"/>
</g>
<!-- Node12 -->
<g id="node12" class="node"><title>Node12</title>
<g id="a_node12"><a xlink:href="../../d9/df7/classcontroller_1_1_controller.html#aa8fee9e96592dabbb151850b562d9ec0" target="_top" xlink:title="controller.Controller.step\lSimulation">
<polygon fill="white" stroke="black" points="587,-31 587,-61 721,-61 721,-31 587,-31"/>
<text text-anchor="start" x="595" y="-49" font-family="Helvetica,sans-Serif" font-size="10.00">controller.Controller.step</text>
<text text-anchor="middle" x="654" y="-38" font-family="Helvetica,sans-Serif" font-size="10.00">Simulation</text>
</a>
</g>
</g>
<!-- Node5&#45;&gt;Node12 -->
<g id="edge11" class="edge"><title>Node5&#45;&gt;Node12</title>
<path fill="none" stroke="midnightblue" d="M508.208,-128.122C520.104,-123.224 532.634,-117.709 544,-112 574.839,-96.5097 608.569,-75.3899 630.215,-61.2537"/>
<polygon fill="midnightblue" stroke="midnightblue" points="506.797,-124.917 498.837,-131.91 509.42,-131.407 506.797,-124.917"/>
</g>
<!-- Node7 -->
<g id="node7" class="node"><title>Node7</title>
<g id="a_node7"><a xlink:href="../../d1/dbf/classview_package_1_1_view.html#a718e5f42ae85512916198548e28477c7" target="_top" xlink:title="viewPackage.View.tryLoad">
<polygon fill="white" stroke="black" points="764,-137.5 764,-156.5 904,-156.5 904,-137.5 764,-137.5"/>
<text text-anchor="middle" x="834" y="-144.5" font-family="Helvetica,sans-Serif" font-size="10.00">viewPackage.View.tryLoad</text>
</a>
</g>
</g>
<!-- Node6&#45;&gt;Node7 -->
<g id="edge6" class="edge"><title>Node6&#45;&gt;Node7</title>
<path fill="none" stroke="midnightblue" d="M738.193,-147C746.776,-147 755.431,-147 763.838,-147"/>
<polygon fill="midnightblue" stroke="midnightblue" points="738.17,-143.5 728.17,-147 738.17,-150.5 738.17,-143.5"/>
</g>
<!-- Node8 -->
<g id="node8" class="node"><title>Node8</title>
<g id="a_node8"><a xlink:href="../../dc/d2c/classview_package_1_1_button_box.html#aef53bd97c4407ecd3fb5dfbf42850a46" target="_top" xlink:title="viewPackage.ButtonBox.load\lFileBox">
<polygon fill="white" stroke="black" points="1124.5,-122 1124.5,-152 1277.5,-152 1277.5,-122 1124.5,-122"/>
<text text-anchor="start" x="1132.5" y="-140" font-family="Helvetica,sans-Serif" font-size="10.00">viewPackage.ButtonBox.load</text>
<text text-anchor="middle" x="1201" y="-129" font-family="Helvetica,sans-Serif" font-size="10.00">FileBox</text>
</a>
</g>
</g>
<!-- Node7&#45;&gt;Node8 -->
<g id="edge7" class="edge"><title>Node7&#45;&gt;Node8</title>
<path fill="none" stroke="midnightblue" d="M914.262,-144.828C976.595,-143.121 1062.87,-140.757 1124.27,-139.075"/>
<polygon fill="midnightblue" stroke="midnightblue" points="913.983,-141.335 904.083,-145.107 914.175,-148.332 913.983,-141.335"/>
</g>
<!-- Node9 -->
<g id="node9" class="node"><title>Node9</title>
<g id="a_node9"><a xlink:href="../../dc/d2c/classview_package_1_1_button_box.html#a9756fc46a96c169ce48a1867bd2c82f5" target="_top" xlink:title="viewPackage.ButtonBox.make\lButtonBox">
<polygon fill="white" stroke="black" points="1314,-54 1314,-84 1474,-84 1474,-54 1314,-54"/>
<text text-anchor="start" x="1322" y="-72" font-family="Helvetica,sans-Serif" font-size="10.00">viewPackage.ButtonBox.make</text>
<text text-anchor="middle" x="1394" y="-61" font-family="Helvetica,sans-Serif" font-size="10.00">ButtonBox</text>
</a>
</g>
</g>
<!-- Node8&#45;&gt;Node9 -->
<g id="edge8" class="edge"><title>Node8&#45;&gt;Node9</title>
<path fill="none" stroke="midnightblue" d="M1253.97,-118.499C1284.34,-107.684 1322.19,-94.2083 1350.73,-84.0492"/>
<polygon fill="midnightblue" stroke="midnightblue" points="1252.64,-115.257 1244.39,-121.909 1254.98,-121.852 1252.64,-115.257"/>
</g>
<!-- Node10 -->
<g id="node10" class="node"><title>Node10</title>
<g id="a_node10"><a xlink:href="../../d1/dbf/classview_package_1_1_view.html#af6f6887ef253ae0fba2634e367b95312" target="_top" xlink:title="viewPackage.View.initialize">
<polygon fill="white" stroke="black" points="1510,-59.5 1510,-78.5 1652,-78.5 1652,-59.5 1510,-59.5"/>
<text text-anchor="middle" x="1581" y="-66.5" font-family="Helvetica,sans-Serif" font-size="10.00">viewPackage.View.initialize</text>
</a>
</g>
</g>
<!-- Node9&#45;&gt;Node10 -->
<g id="edge9" class="edge"><title>Node9&#45;&gt;Node10</title>
<path fill="none" stroke="midnightblue" d="M1484.33,-69C1492.93,-69 1501.57,-69 1509.95,-69"/>
<polygon fill="midnightblue" stroke="midnightblue" points="1484.26,-65.5001 1474.26,-69 1484.26,-72.5001 1484.26,-65.5001"/>
</g>
<!-- Node11 -->
<g id="node11" class="node"><title>Node11</title>
<g id="a_node11"><a xlink:href="../../d9/df7/classcontroller_1_1_controller.html#a4dbfef3e3e30bd1bb84df7a6b24ad1e7" target="_top" xlink:title="controller.Controller.Controller">
<polygon fill="white" stroke="black" points="1688.5,-59.5 1688.5,-78.5 1847.5,-78.5 1847.5,-59.5 1688.5,-59.5"/>
<text text-anchor="middle" x="1768" y="-66.5" font-family="Helvetica,sans-Serif" font-size="10.00">controller.Controller.Controller</text>
</a>
</g>
</g>
<!-- Node10&#45;&gt;Node11 -->
<g id="edge10" class="edge"><title>Node10&#45;&gt;Node11</title>
<path fill="none" stroke="midnightblue" d="M1662.31,-69C1671,-69 1679.83,-69 1688.49,-69"/>
<polygon fill="midnightblue" stroke="midnightblue" points="1662.2,-65.5001 1652.2,-69 1662.2,-72.5001 1662.2,-65.5001"/>
</g>
<!-- Node13 -->
<g id="node13" class="node"><title>Node13</title>
<g id="a_node13"><a xlink:href="../../d9/df7/classcontroller_1_1_controller.html#ae859ed2fba4e22871428ec51f7d4c07d" target="_top" xlink:title="controller.Controller.play\lSimulation">
<polygon fill="white" stroke="black" points="768,-44 768,-74 900,-74 900,-44 768,-44"/>
<text text-anchor="start" x="776" y="-62" font-family="Helvetica,sans-Serif" font-size="10.00">controller.Controller.play</text>
<text text-anchor="middle" x="834" y="-51" font-family="Helvetica,sans-Serif" font-size="10.00">Simulation</text>
</a>
</g>
</g>
<!-- Node12&#45;&gt;Node13 -->
<g id="edge12" class="edge"><title>Node12&#45;&gt;Node13</title>
<path fill="none" stroke="midnightblue" d="M731.211,-51.566C743.451,-52.4599 756.021,-53.3779 767.968,-54.2505"/>
<polygon fill="midnightblue" stroke="midnightblue" points="731.256,-48.06 721.028,-50.8222 730.746,-55.0414 731.256,-48.06"/>
</g>
<!-- Node16 -->
<g id="node16" class="node"><title>Node16</title>
<g id="a_node16"><a xlink:href="../../d1/dbf/classview_package_1_1_view.html#acec783d5c91d6cb27da271e46588e79f" target="_top" xlink:title="viewPackage.View.setStep\lSimulation">
<polygon fill="white" stroke="black" points="943.5,-0 943.5,-30 1084.5,-30 1084.5,-0 943.5,-0"/>
<text text-anchor="start" x="951.5" y="-18" font-family="Helvetica,sans-Serif" font-size="10.00">viewPackage.View.setStep</text>
<text text-anchor="middle" x="1014" y="-7" font-family="Helvetica,sans-Serif" font-size="10.00">Simulation</text>
</a>
</g>
</g>
<!-- Node12&#45;&gt;Node16 -->
<g id="edge17" class="edge"><title>Node12&#45;&gt;Node16</title>
<path fill="none" stroke="midnightblue" d="M731.262,-37.2756C742.242,-36.1152 753.405,-34.9871 764,-34 824.543,-28.3591 893.484,-23.1963 943.45,-19.6807"/>
<polygon fill="midnightblue" stroke="midnightblue" points="730.822,-33.8026 721.252,-38.3473 731.568,-40.7628 730.822,-33.8026"/>
</g>
<!-- Node14 -->
<g id="node14" class="node"><title>Node14</title>
<g id="a_node14"><a xlink:href="../../d9/df7/classcontroller_1_1_controller.html#a37d9d1d84d304a9d94d7666322b7c6ab" target="_top" xlink:title="controller.Controller.change\lSpeed">
<polygon fill="white" stroke="black" points="940,-88 940,-118 1088,-118 1088,-88 940,-88"/>
<text text-anchor="start" x="948" y="-106" font-family="Helvetica,sans-Serif" font-size="10.00">controller.Controller.change</text>
<text text-anchor="middle" x="1014" y="-95" font-family="Helvetica,sans-Serif" font-size="10.00">Speed</text>
</a>
</g>
</g>
<!-- Node13&#45;&gt;Node14 -->
<g id="edge13" class="edge"><title>Node13&#45;&gt;Node14</title>
<path fill="none" stroke="midnightblue" d="M905.737,-76.4855C921.117,-80.2873 937.257,-84.277 952.212,-87.9738"/>
<polygon fill="midnightblue" stroke="midnightblue" points="906.307,-73.0213 895.76,-74.0192 904.628,-79.8167 906.307,-73.0213"/>
</g>
<!-- Node15 -->
<g id="node15" class="node"><title>Node15</title>
<g id="a_node15"><a xlink:href="../../d1/dbf/classview_package_1_1_view.html#a1d1a8e16ae622c0d6a66cd9c516672a6" target="_top" xlink:title="viewPackage.View.setPlay\lAction">
<polygon fill="white" stroke="black" points="1132,-54 1132,-84 1270,-84 1270,-54 1132,-54"/>
<text text-anchor="start" x="1140" y="-72" font-family="Helvetica,sans-Serif" font-size="10.00">viewPackage.View.setPlay</text>
<text text-anchor="middle" x="1201" y="-61" font-family="Helvetica,sans-Serif" font-size="10.00">Action</text>
</a>
</g>
</g>
<!-- Node13&#45;&gt;Node15 -->
<g id="edge16" class="edge"><title>Node13&#45;&gt;Node15</title>
<path fill="none" stroke="midnightblue" d="M910.464,-61.0675C975.638,-62.8531 1068.98,-65.4104 1131.91,-67.1344"/>
<polygon fill="midnightblue" stroke="midnightblue" points="910.347,-57.5631 900.255,-60.7878 910.155,-64.5605 910.347,-57.5631"/>
</g>
<!-- Node14&#45;&gt;Node15 -->
<g id="edge14" class="edge"><title>Node14&#45;&gt;Node15</title>
<path fill="none" stroke="midnightblue" d="M1098.02,-87.7427C1109.36,-85.6581 1120.89,-83.5383 1131.93,-81.5102"/>
<polygon fill="midnightblue" stroke="midnightblue" points="1097.32,-84.3123 1088.12,-89.5623 1098.58,-91.197 1097.32,-84.3123"/>
</g>
<!-- Node15&#45;&gt;Node9 -->
<g id="edge15" class="edge"><title>Node15&#45;&gt;Node9</title>
<path fill="none" stroke="midnightblue" d="M1280.22,-69C1291.3,-69 1302.7,-69 1313.8,-69"/>
<polygon fill="midnightblue" stroke="midnightblue" points="1280.15,-65.5001 1270.15,-69 1280.15,-72.5001 1280.15,-65.5001"/>
</g>
<!-- Node16&#45;&gt;Node9 -->
<g id="edge18" class="edge"><title>Node16&#45;&gt;Node9</title>
<path fill="none" stroke="midnightblue" d="M1094.98,-21.6358C1147.25,-26.5094 1216.9,-34.0185 1278,-44 1294.84,-46.7507 1312.93,-50.3667 1329.66,-53.9909"/>
<polygon fill="midnightblue" stroke="midnightblue" points="1095.04,-18.127 1084.76,-20.6963 1094.4,-25.0976 1095.04,-18.127"/>
</g>
<!-- Node18&#45;&gt;Node17 -->
<g id="edge21" class="edge"><title>Node18&#45;&gt;Node17</title>
<path fill="none" stroke="midnightblue" d="M344.355,-71.565C359.377,-73.7763 374.814,-76.0488 389.235,-78.1717"/>
<polygon fill="midnightblue" stroke="midnightblue" points="344.442,-68.0402 334.039,-70.0464 343.423,-74.9655 344.442,-68.0402"/>
</g>
<!-- Node19&#45;&gt;Node12 -->
<g id="edge23" class="edge"><title>Node19&#45;&gt;Node12</title>
<path fill="none" stroke="midnightblue" d="M553.789,-39.8947C564.989,-40.5839 576.218,-41.275 586.886,-41.9315"/>
<polygon fill="midnightblue" stroke="midnightblue" points="553.726,-36.3843 543.53,-39.2634 553.296,-43.3711 553.726,-36.3843"/>
</g>
<!-- Node20&#45;&gt;Node5 -->
<g id="edge25" class="edge"><title>Node20&#45;&gt;Node5</title>
<path fill="none" stroke="midnightblue" d="M341.52,-147C355.777,-147 370.493,-147 384.43,-147"/>
<polygon fill="midnightblue" stroke="midnightblue" points="341.237,-143.5 331.237,-147 341.237,-150.5 341.237,-143.5"/>
</g>
</g>
</svg>
        <g id="navigator" transform="translate(0 0)" fill="#404254">
                <rect fill="#f2f5e9" fill-opacity="0.5" stroke="#606060" stroke-width=".5" x="0" y="0" width="60" height="60"/>
                <use id="zoomplus" xlink:href="#zoomPlus" x="17" y="9" onmousedown="handleZoom(evt,'in')"/>
                <use id="zoomminus" xlink:href="#zoomMin" x="42" y="9" onmousedown="handleZoom(evt,'out')"/>
                <use id="reset" xlink:href="#resetDef" x="30" y="36" onmousedown="handleReset()"/>
                <g id="arrowUp" xlink:href="#dirArrow" transform="translate(30 24)" onmousedown="handlePan(0,-1)">
                  <use xlink:href="#rim" fill="#404040">
                        <set attributeName="fill" to="#808080" begin="arrowUp.mouseover" end="arrowUp.mouseout"/>
                  </use>
                  <path fill="none" stroke="white" stroke-width="1.5" d="M0,-3.0v7 M-2.5,-0.5L0,-3.0L2.5,-0.5"/>
                </g>
                <g id="arrowRight" xlink:href="#dirArrow" transform="rotate(90) translate(36 -43)" onmousedown="handlePan(1,0)">
                  <use xlink:href="#rim" fill="#404040">
                        <set attributeName="fill" to="#808080" begin="arrowRight.mouseover" end="arrowRight.mouseout"/>
                  </use>
                  <path fill="none" stroke="white" stroke-width="1.5" d="M0,-3.0v7 M-2.5,-0.5L0,-3.0L2.5,-0.5"/>
                </g>
                <g id="arrowDown" xlink:href="#dirArrow" transform="rotate(180) translate(-30 -48)" onmousedown="handlePan(0,1)">
                  <use xlink:href="#rim" fill="#404040">
                        <set attributeName="fill" to="#808080" begin="arrowDown.mouseover" end="arrowDown.mouseout"/>
                  </use>
                  <path fill="none" stroke="white" stroke-width="1.5" d="M0,-3.0v7 M-2.5,-0.5L0,-3.0L2.5,-0.5"/>
                </g>
                <g id="arrowLeft" xlink:href="#dirArrow" transform="rotate(270) translate(-36 17)" onmousedown="handlePan(-1,0)">
                  <use xlink:href="#rim" fill="#404040">
                        <set attributeName="fill" to="#808080" begin="arrowLeft.mouseover" end="arrowLeft.mouseout"/>
                  </use>
                  <path fill="none" stroke="white" stroke-width="1.5" d="M0,-3.0v7 M-2.5,-0.5L0,-3.0L2.5,-0.5"/>
                </g>
        </g>
        <svg viewBox="0 0 15 15" width="100%" height="30px" preserveAspectRatio="xMaxYMin meet">
         <g id="arrow_out" transform="scale(0.3 0.3)">
          <a xlink:href="classmodel_1_1_grid_a40adce87c26a3a6830125324ae576c34_icgraph_org.svg" target="_base">
           <rect id="button" ry="5" rx="5" y="6" x="6" height="38" width="38"
                fill="#f2f5e9" fill-opacity="0.5" stroke="#606060" stroke-width="1.0"/>
           <path id="arrow"
             d="M 11.500037,31.436501 C 11.940474,20.09759 22.043105,11.32322 32.158766,21.979434 L 37.068811,17.246167 C 37.068811,17.246167 37.088388,32 37.088388,32 L 22.160133,31.978069 C 22.160133,31.978069 26.997745,27.140456 26.997745,27.140456 C 18.528582,18.264221 13.291696,25.230495 11.500037,31.436501 z"
             style="fill:#404040;"/>
          </a>
         </g>
        </svg>
</svg>
