<?xml version="1.0" encoding="UTF-8" standalone="no"?>
<!DOCTYPE svg PUBLIC "-//W3C//DTD SVG 1.1//EN"
 "http://www.w3.org/Graphics/SVG/1.1/DTD/svg11.dtd">
<!-- Generated by graphviz version 2.36.0 (20140111.2315)
 -->
<!-- Title: model.Grid.print Pages: 1 -->
<svg width="328pt" height="87pt"
 viewBox="0.00 0.00 328.00 87.00" xmlns="http://www.w3.org/2000/svg" xmlns:xlink="http://www.w3.org/1999/xlink">
<g id="graph0" class="graph" transform="scale(1 1) rotate(0) translate(4 83)">
<title>model.Grid.print</title>
<polygon fill="white" stroke="none" points="-4,4 -4,-83 324,-83 324,4 -4,4"/>
<!-- Node1 -->
<g id="node1" class="node"><title>Node1</title>
<polygon fill="#bfbfbf" stroke="black" points="0,-29.5 0,-48.5 94,-48.5 94,-29.5 0,-29.5"/>
<text text-anchor="middle" x="47" y="-36.5" font-family="Helvetica,sans-Serif" font-size="10.00">model.Grid.print</text>
</g>
<!-- Node2 -->
<g id="node2" class="node"><title>Node2</title>
<g id="a_node2"><a xlink:href="../../db/ddc/classmodel_1_1_wator_simulation.html#a71ffa6547eb00615e94ba1d708a08281" target="_top" xlink:title="model.WatorSimulation.make\lNextGrid">
<polygon fill="white" stroke="black" points="146,-49 146,-79 304,-79 304,-49 146,-49"/>
<text text-anchor="start" x="154" y="-67" font-family="Helvetica,sans-Serif" font-size="10.00">model.WatorSimulation.make</text>
<text text-anchor="middle" x="225" y="-56" font-family="Helvetica,sans-Serif" font-size="10.00">NextGrid</text>
</a>
</g>
</g>
<!-- Node1&#45;&gt;Node2 -->
<g id="edge1" class="edge"><title>Node1&#45;&gt;Node2</title>
<path fill="none" stroke="midnightblue" d="M104.516,-47.0279C117.649,-48.8934 131.86,-50.9119 145.743,-52.8839"/>
<polygon fill="midnightblue" stroke="midnightblue" points="104.635,-43.5097 94.2419,-45.5685 103.65,-50.4401 104.635,-43.5097"/>
</g>
<!-- Node3 -->
<g id="node3" class="node"><title>Node3</title>
<g id="a_node3"><a xlink:href="../../dc/d98/classmodel_1_1_segregation_simulation.html#acb3ef4f31baad601bb96379b1225344b" target="_top" xlink:title="model.SegregationSimulation.make\lNextGrid">
<polygon fill="white" stroke="black" points="130.5,-0 130.5,-30 319.5,-30 319.5,-0 130.5,-0"/>
<text text-anchor="start" x="138.5" y="-18" font-family="Helvetica,sans-Serif" font-size="10.00">model.SegregationSimulation.make</text>
<text text-anchor="middle" x="225" y="-7" font-family="Helvetica,sans-Serif" font-size="10.00">NextGrid</text>
</a>
</g>
</g>
<!-- Node1&#45;&gt;Node3 -->
<g id="edge2" class="edge"><title>Node1&#45;&gt;Node3</title>
<path fill="none" stroke="midnightblue" d="M104.227,-31.3327C112.614,-30.189 121.446,-28.9846 130.356,-27.7697"/>
<polygon fill="midnightblue" stroke="midnightblue" points="103.677,-27.8752 94.2419,-32.6943 104.623,-34.811 103.677,-27.8752"/>
</g>
</g>
</svg>
