<?xml version="1.0" encoding="UTF-8" standalone="no"?>
<!DOCTYPE svg PUBLIC "-//W3C//DTD SVG 1.1//EN"
 "http://www.w3.org/Graphics/SVG/1.1/DTD/svg11.dtd">
<!-- Generated by graphviz version 2.36.0 (20140111.2315)
 -->
<!-- Title: model.Grid.inBounds Pages: 1 -->
<svg width="956pt" height="251pt"
 viewBox="0.00 0.00 956.00 251.02" xmlns="http://www.w3.org/2000/svg" xmlns:xlink="http://www.w3.org/1999/xlink">
<g id="graph0" class="graph" transform="scale(1 1) rotate(0) translate(4 247.023)">
<title>model.Grid.inBounds</title>
<polygon fill="white" stroke="none" points="-4,4 -4,-247.023 952,-247.023 952,4 -4,4"/>
<!-- Node1 -->
<g id="node1" class="node"><title>Node1</title>
<polygon fill="#bfbfbf" stroke="black" points="0,-125.5 0,-144.5 116,-144.5 116,-125.5 0,-125.5"/>
<text text-anchor="middle" x="58" y="-132.5" font-family="Helvetica,sans-Serif" font-size="10.00">model.Grid.inBounds</text>
</g>
<!-- Node2 -->
<g id="node2" class="node"><title>Node2</title>
<g id="a_node2"><a xlink:href="../../dc/df5/classmodel_1_1_toroidal_grid.html#a92009f3c34c3300d8533fe4e12d16d24" target="_top" xlink:title="model.ToroidalGrid.getAll\lNeighbors">
<polygon fill="white" stroke="black" points="389.5,-188 389.5,-218 524.5,-218 524.5,-188 389.5,-188"/>
<text text-anchor="start" x="397.5" y="-206" font-family="Helvetica,sans-Serif" font-size="10.00">model.ToroidalGrid.getAll</text>
<text text-anchor="middle" x="457" y="-195" font-family="Helvetica,sans-Serif" font-size="10.00">Neighbors</text>
</a>
</g>
</g>
<!-- Node1&#45;&gt;Node2 -->
<g id="edge1" class="edge"><title>Node1&#45;&gt;Node2</title>
<path fill="none" stroke="midnightblue" d="M71.0333,-153.219C86.6814,-175.067 116.28,-210.546 152,-225 238.822,-260.132 350.911,-236.166 411.822,-218.029"/>
<polygon fill="midnightblue" stroke="midnightblue" points="73.7712,-151.025 65.2039,-144.792 68.0143,-155.007 73.7712,-151.025"/>
</g>
<!-- Node3 -->
<g id="node3" class="node"><title>Node3</title>
<g id="a_node3"><a xlink:href="../../d5/de9/classmodel_1_1_finite_grid.html#ad5fbb8fb77d1549dce13e0f7856b3534" target="_top" xlink:title="model.FiniteGrid.getAllNeighbors">
<polygon fill="white" stroke="black" points="370.5,-144.5 370.5,-163.5 543.5,-163.5 543.5,-144.5 370.5,-144.5"/>
<text text-anchor="middle" x="457" y="-151.5" font-family="Helvetica,sans-Serif" font-size="10.00">model.FiniteGrid.getAllNeighbors</text>
</a>
</g>
</g>
<!-- Node1&#45;&gt;Node3 -->
<g id="edge2" class="edge"><title>Node1&#45;&gt;Node3</title>
<path fill="none" stroke="midnightblue" d="M126.359,-138.224C193.579,-141.441 297.109,-146.396 370.18,-149.893"/>
<polygon fill="midnightblue" stroke="midnightblue" points="126.459,-134.725 116.303,-137.742 126.124,-141.717 126.459,-134.725"/>
</g>
<!-- Node4 -->
<g id="node4" class="node"><title>Node4</title>
<g id="a_node4"><a xlink:href="../../dc/d8f/classmodel_1_1_grid.html#a7c79270cb5329121d7e66fa3178bc969" target="_top" xlink:title="model.Grid.getDirectLocations\lWithType">
<polygon fill="white" stroke="black" points="154,-49 154,-79 316,-79 316,-49 154,-49"/>
<text text-anchor="start" x="162" y="-67" font-family="Helvetica,sans-Serif" font-size="10.00">model.Grid.getDirectLocations</text>
<text text-anchor="middle" x="235" y="-56" font-family="Helvetica,sans-Serif" font-size="10.00">WithType</text>
</a>
</g>
</g>
<!-- Node1&#45;&gt;Node4 -->
<g id="edge3" class="edge"><title>Node1&#45;&gt;Node4</title>
<path fill="none" stroke="midnightblue" d="M84.6068,-120.454C102.966,-110.427 128.503,-97.2851 152,-88 160.139,-84.7836 168.882,-81.775 177.518,-79.0493"/>
<polygon fill="midnightblue" stroke="midnightblue" points="82.7649,-117.473 75.7094,-125.377 86.1539,-123.598 82.7649,-117.473"/>
</g>
<!-- Node9 -->
<g id="node9" class="node"><title>Node9</title>
<g id="a_node9"><a xlink:href="../../d5/de9/classmodel_1_1_finite_grid.html#ac2d6394e9d65e66b936c3e993ca44719" target="_top" xlink:title="model.FiniteGrid.getDirect\lNeighbors">
<polygon fill="white" stroke="black" points="164.5,-98 164.5,-128 305.5,-128 305.5,-98 164.5,-98"/>
<text text-anchor="start" x="172.5" y="-116" font-family="Helvetica,sans-Serif" font-size="10.00">model.FiniteGrid.getDirect</text>
<text text-anchor="middle" x="235" y="-105" font-family="Helvetica,sans-Serif" font-size="10.00">Neighbors</text>
</a>
</g>
</g>
<!-- Node1&#45;&gt;Node9 -->
<g id="edge10" class="edge"><title>Node1&#45;&gt;Node9</title>
<path fill="none" stroke="midnightblue" d="M126.555,-126.507C138.948,-124.949 151.904,-123.321 164.356,-121.755"/>
<polygon fill="midnightblue" stroke="midnightblue" points="125.787,-123.076 116.302,-127.796 126.66,-130.022 125.787,-123.076"/>
</g>
<!-- Node10 -->
<g id="node10" class="node"><title>Node10</title>
<g id="a_node10"><a xlink:href="../../dc/df5/classmodel_1_1_toroidal_grid.html#a52805c279f2f0d1edc793980f171dffb" target="_top" xlink:title="model.ToroidalGrid.getDirect\lNeighbors">
<polygon fill="white" stroke="black" points="159,-186 159,-216 311,-216 311,-186 159,-186"/>
<text text-anchor="start" x="167" y="-204" font-family="Helvetica,sans-Serif" font-size="10.00">model.ToroidalGrid.getDirect</text>
<text text-anchor="middle" x="235" y="-193" font-family="Helvetica,sans-Serif" font-size="10.00">Neighbors</text>
</a>
</g>
</g>
<!-- Node1&#45;&gt;Node10 -->
<g id="edge12" class="edge"><title>Node1&#45;&gt;Node10</title>
<path fill="none" stroke="midnightblue" d="M93.2268,-148.424C110.771,-155.261 132.495,-163.658 152,-171 165.052,-175.913 179.313,-181.17 192.229,-185.888"/>
<polygon fill="midnightblue" stroke="midnightblue" points="94.0167,-144.975 83.4286,-144.599 91.4711,-151.496 94.0167,-144.975"/>
</g>
<!-- Node11 -->
<g id="node11" class="node"><title>Node11</title>
<g id="a_node11"><a xlink:href="../../dc/d8f/classmodel_1_1_grid.html#ad735ff84934075c0000347c1685cc9d2" target="_top" xlink:title="model.Grid.getDirectNeighbors\lWithType">
<polygon fill="white" stroke="black" points="152.5,-0 152.5,-30 317.5,-30 317.5,-0 152.5,-0"/>
<text text-anchor="start" x="160.5" y="-18" font-family="Helvetica,sans-Serif" font-size="10.00">model.Grid.getDirectNeighbors</text>
<text text-anchor="middle" x="235" y="-7" font-family="Helvetica,sans-Serif" font-size="10.00">WithType</text>
</a>
</g>
</g>
<!-- Node1&#45;&gt;Node11 -->
<g id="edge14" class="edge"><title>Node1&#45;&gt;Node11</title>
<path fill="none" stroke="midnightblue" d="M71.8208,-116.916C88.077,-95.2912 118.102,-59.4581 152,-39 157.715,-35.551 163.954,-32.5729 170.357,-30.0068"/>
<polygon fill="midnightblue" stroke="midnightblue" points="68.8168,-115.094 65.7257,-125.228 74.4617,-119.234 68.8168,-115.094"/>
</g>
<!-- Node5 -->
<g id="node5" class="node"><title>Node5</title>
<g id="a_node5"><a xlink:href="../../db/ddc/classmodel_1_1_wator_simulation.html#ab1a02dcfc6d897735f1b90c728668aee" target="_top" xlink:title="model.WatorSimulation.move\lIfEmptyAndCheckBaby">
<polygon fill="white" stroke="black" points="378,-49 378,-79 536,-79 536,-49 378,-49"/>
<text text-anchor="start" x="386" y="-67" font-family="Helvetica,sans-Serif" font-size="10.00">model.WatorSimulation.move</text>
<text text-anchor="middle" x="457" y="-56" font-family="Helvetica,sans-Serif" font-size="10.00">IfEmptyAndCheckBaby</text>
</a>
</g>
</g>
<!-- Node4&#45;&gt;Node5 -->
<g id="edge4" class="edge"><title>Node4&#45;&gt;Node5</title>
<path fill="none" stroke="midnightblue" d="M326.068,-64C343.242,-64 361.086,-64 377.851,-64"/>
<polygon fill="midnightblue" stroke="midnightblue" points="326.047,-60.5001 316.047,-64 326.047,-67.5001 326.047,-60.5001"/>
</g>
<!-- Node6 -->
<g id="node6" class="node"><title>Node6</title>
<g id="a_node6"><a xlink:href="../../db/ddc/classmodel_1_1_wator_simulation.html#a2205211b8ee8357a4687fce7bb25123a" target="_top" xlink:title="model.WatorSimulation.shark\lAction">
<polygon fill="white" stroke="black" points="596.5,-93 596.5,-123 753.5,-123 753.5,-93 596.5,-93"/>
<text text-anchor="start" x="604.5" y="-111" font-family="Helvetica,sans-Serif" font-size="10.00">model.WatorSimulation.shark</text>
<text text-anchor="middle" x="675" y="-100" font-family="Helvetica,sans-Serif" font-size="10.00">Action</text>
</a>
</g>
</g>
<!-- Node4&#45;&gt;Node6 -->
<g id="edge9" class="edge"><title>Node4&#45;&gt;Node6</title>
<path fill="none" stroke="midnightblue" d="M311.666,-80.9994C325.683,-83.6896 340.241,-86.1797 354,-88 436.361,-98.8963 531.455,-103.885 596.441,-106.151"/>
<polygon fill="midnightblue" stroke="midnightblue" points="312.061,-77.5101 301.573,-79.0119 310.709,-84.3782 312.061,-77.5101"/>
</g>
<!-- Node5&#45;&gt;Node6 -->
<g id="edge5" class="edge"><title>Node5&#45;&gt;Node6</title>
<path fill="none" stroke="midnightblue" d="M541.709,-81.0518C561.007,-84.9829 581.396,-89.1362 600.235,-92.9738"/>
<polygon fill="midnightblue" stroke="midnightblue" points="542.228,-77.5858 531.731,-79.0192 540.831,-84.4449 542.228,-77.5858"/>
</g>
<!-- Node8 -->
<g id="node8" class="node"><title>Node8</title>
<g id="a_node8"><a xlink:href="../../db/ddc/classmodel_1_1_wator_simulation.html#a1d9c45bb58d3edd46f9cba1d3b479d82" target="_top" xlink:title="model.WatorSimulation.fish\lAction">
<polygon fill="white" stroke="black" points="601.5,-44 601.5,-74 748.5,-74 748.5,-44 601.5,-44"/>
<text text-anchor="start" x="609.5" y="-62" font-family="Helvetica,sans-Serif" font-size="10.00">model.WatorSimulation.fish</text>
<text text-anchor="middle" x="675" y="-51" font-family="Helvetica,sans-Serif" font-size="10.00">Action</text>
</a>
</g>
</g>
<!-- Node5&#45;&gt;Node8 -->
<g id="edge7" class="edge"><title>Node5&#45;&gt;Node8</title>
<path fill="none" stroke="midnightblue" d="M546.355,-61.9548C564.647,-61.5313 583.718,-61.0899 601.371,-60.6812"/>
<polygon fill="midnightblue" stroke="midnightblue" points="546.203,-58.4572 536.286,-62.1878 546.365,-65.4554 546.203,-58.4572"/>
</g>
<!-- Node7 -->
<g id="node7" class="node"><title>Node7</title>
<g id="a_node7"><a xlink:href="../../db/ddc/classmodel_1_1_wator_simulation.html#a71ffa6547eb00615e94ba1d708a08281" target="_top" xlink:title="model.WatorSimulation.make\lNextGrid">
<polygon fill="white" stroke="black" points="790,-68 790,-98 948,-98 948,-68 790,-68"/>
<text text-anchor="start" x="798" y="-86" font-family="Helvetica,sans-Serif" font-size="10.00">model.WatorSimulation.make</text>
<text text-anchor="middle" x="869" y="-75" font-family="Helvetica,sans-Serif" font-size="10.00">NextGrid</text>
</a>
</g>
</g>
<!-- Node6&#45;&gt;Node7 -->
<g id="edge6" class="edge"><title>Node6&#45;&gt;Node7</title>
<path fill="none" stroke="midnightblue" d="M763.716,-96.5787C772.435,-95.4434 781.246,-94.2961 789.858,-93.1748"/>
<polygon fill="midnightblue" stroke="midnightblue" points="763.005,-93.1416 753.54,-97.9036 763.909,-100.083 763.005,-93.1416"/>
</g>
<!-- Node8&#45;&gt;Node7 -->
<g id="edge8" class="edge"><title>Node8&#45;&gt;Node7</title>
<path fill="none" stroke="midnightblue" d="M758.807,-69.3509C769.114,-70.6392 779.628,-71.9535 789.861,-73.2326"/>
<polygon fill="midnightblue" stroke="midnightblue" points="758.944,-65.8408 748.587,-68.0734 758.076,-72.7868 758.944,-65.8408"/>
</g>
<!-- Node9&#45;&gt;Node3 -->
<g id="edge11" class="edge"><title>Node9&#45;&gt;Node3</title>
<path fill="none" stroke="midnightblue" d="M315.581,-127.831C345.39,-133.386 378.434,-139.544 404.975,-144.491"/>
<polygon fill="midnightblue" stroke="midnightblue" points="316.081,-124.364 305.609,-125.973 314.799,-131.246 316.081,-124.364"/>
</g>
<!-- Node10&#45;&gt;Node2 -->
<g id="edge13" class="edge"><title>Node10&#45;&gt;Node2</title>
<path fill="none" stroke="midnightblue" d="M321.346,-201.776C343.909,-201.981 367.931,-202.199 389.344,-202.394"/>
<polygon fill="midnightblue" stroke="midnightblue" points="321.128,-198.274 311.096,-201.683 321.064,-205.274 321.128,-198.274"/>
</g>
<!-- Node12 -->
<g id="node12" class="node"><title>Node12</title>
<g id="a_node12"><a xlink:href="../../dc/d98/classmodel_1_1_segregation_simulation.html#ac32e4a0070545825aab876954e6f68e5" target="_top" xlink:title="model.SegregationSimulation.calculate\lNewCellState">
<polygon fill="white" stroke="black" points="354.5,-0 354.5,-30 559.5,-30 559.5,-0 354.5,-0"/>
<text text-anchor="start" x="362.5" y="-18" font-family="Helvetica,sans-Serif" font-size="10.00">model.SegregationSimulation.calculate</text>
<text text-anchor="middle" x="457" y="-7" font-family="Helvetica,sans-Serif" font-size="10.00">NewCellState</text>
</a>
</g>
</g>
<!-- Node11&#45;&gt;Node12 -->
<g id="edge15" class="edge"><title>Node11&#45;&gt;Node12</title>
<path fill="none" stroke="midnightblue" d="M327.819,-15C336.592,-15 345.524,-15 354.383,-15"/>
<polygon fill="midnightblue" stroke="midnightblue" points="327.607,-11.5001 317.607,-15 327.607,-18.5001 327.607,-11.5001"/>
</g>
</g>
</svg>
