<?xml version="1.0" encoding="UTF-8" standalone="no"?>
<!DOCTYPE svg PUBLIC "-//W3C//DTD SVG 1.1//EN"
 "http://www.w3.org/Graphics/SVG/1.1/DTD/svg11.dtd">
<!-- Generated by graphviz version 2.36.0 (20140111.2315)
 -->
<!-- Title: model.Grid.getDirectLocationsWithType Pages: 1 -->
<svg width="752pt" height="87pt"
 viewBox="0.00 0.00 752.00 87.00" xmlns="http://www.w3.org/2000/svg" xmlns:xlink="http://www.w3.org/1999/xlink">
<g id="graph0" class="graph" transform="scale(1 1) rotate(0) translate(4 83)">
<title>model.Grid.getDirectLocationsWithType</title>
<polygon fill="white" stroke="none" points="-4,4 -4,-83 748,-83 748,4 -4,4"/>
<!-- Node1 -->
<g id="node1" class="node"><title>Node1</title>
<polygon fill="#bfbfbf" stroke="black" points="0,-27 0,-57 162,-57 162,-27 0,-27"/>
<text text-anchor="start" x="8" y="-45" font-family="Helvetica,sans-Serif" font-size="10.00">model.Grid.getDirectLocations</text>
<text text-anchor="middle" x="81" y="-34" font-family="Helvetica,sans-Serif" font-size="10.00">WithType</text>
</g>
<!-- Node2 -->
<g id="node2" class="node"><title>Node2</title>
<g id="a_node2"><a xlink:href="../../db/ddc/classmodel_1_1_wator_simulation.html#ab1a02dcfc6d897735f1b90c728668aee" target="_top" xlink:title="model.WatorSimulation.move\lIfEmptyAndCheckBaby">
<polygon fill="white" stroke="black" points="198,-5 198,-35 356,-35 356,-5 198,-5"/>
<text text-anchor="start" x="206" y="-23" font-family="Helvetica,sans-Serif" font-size="10.00">model.WatorSimulation.move</text>
<text text-anchor="middle" x="277" y="-12" font-family="Helvetica,sans-Serif" font-size="10.00">IfEmptyAndCheckBaby</text>
</a>
</g>
</g>
<!-- Node1&#45;&gt;Node2 -->
<g id="edge1" class="edge"><title>Node1&#45;&gt;Node2</title>
<path fill="none" stroke="midnightblue" d="M172.045,-31.7888C180.62,-30.8163 189.268,-29.8355 197.72,-28.8772"/>
<polygon fill="midnightblue" stroke="midnightblue" points="171.569,-28.3201 162.027,-32.9247 172.358,-35.2756 171.569,-28.3201"/>
</g>
<!-- Node3 -->
<g id="node3" class="node"><title>Node3</title>
<g id="a_node3"><a xlink:href="../../db/ddc/classmodel_1_1_wator_simulation.html#a2205211b8ee8357a4687fce7bb25123a" target="_top" xlink:title="model.WatorSimulation.shark\lAction">
<polygon fill="white" stroke="black" points="392.5,-49 392.5,-79 549.5,-79 549.5,-49 392.5,-49"/>
<text text-anchor="start" x="400.5" y="-67" font-family="Helvetica,sans-Serif" font-size="10.00">model.WatorSimulation.shark</text>
<text text-anchor="middle" x="471" y="-56" font-family="Helvetica,sans-Serif" font-size="10.00">Action</text>
</a>
</g>
</g>
<!-- Node1&#45;&gt;Node3 -->
<g id="edge6" class="edge"><title>Node1&#45;&gt;Node3</title>
<path fill="none" stroke="midnightblue" d="M172.474,-47.13C239.157,-50.911 328.92,-56.0006 392.357,-59.5975"/>
<polygon fill="midnightblue" stroke="midnightblue" points="172.576,-43.6302 162.394,-46.5584 172.18,-50.619 172.576,-43.6302"/>
</g>
<!-- Node2&#45;&gt;Node3 -->
<g id="edge2" class="edge"><title>Node2&#45;&gt;Node3</title>
<path fill="none" stroke="midnightblue" d="M353.353,-37.2684C370.226,-41.1352 387.993,-45.2066 404.431,-48.9738"/>
<polygon fill="midnightblue" stroke="midnightblue" points="354.068,-33.8415 343.539,-35.0192 352.504,-40.6646 354.068,-33.8415"/>
</g>
<!-- Node5 -->
<g id="node5" class="node"><title>Node5</title>
<g id="a_node5"><a xlink:href="../../db/ddc/classmodel_1_1_wator_simulation.html#a1d9c45bb58d3edd46f9cba1d3b479d82" target="_top" xlink:title="model.WatorSimulation.fish\lAction">
<polygon fill="white" stroke="black" points="397.5,-0 397.5,-30 544.5,-30 544.5,-0 397.5,-0"/>
<text text-anchor="start" x="405.5" y="-18" font-family="Helvetica,sans-Serif" font-size="10.00">model.WatorSimulation.fish</text>
<text text-anchor="middle" x="471" y="-7" font-family="Helvetica,sans-Serif" font-size="10.00">Action</text>
</a>
</g>
</g>
<!-- Node2&#45;&gt;Node5 -->
<g id="edge4" class="edge"><title>Node2&#45;&gt;Node5</title>
<path fill="none" stroke="midnightblue" d="M366.369,-17.6987C376.703,-17.4296 387.154,-17.1574 397.242,-16.8947"/>
<polygon fill="midnightblue" stroke="midnightblue" points="365.999,-14.2071 356.094,-17.9663 366.182,-21.2047 365.999,-14.2071"/>
</g>
<!-- Node4 -->
<g id="node4" class="node"><title>Node4</title>
<g id="a_node4"><a xlink:href="../../db/ddc/classmodel_1_1_wator_simulation.html#a71ffa6547eb00615e94ba1d708a08281" target="_top" xlink:title="model.WatorSimulation.make\lNextGrid">
<polygon fill="white" stroke="black" points="586,-24 586,-54 744,-54 744,-24 586,-24"/>
<text text-anchor="start" x="594" y="-42" font-family="Helvetica,sans-Serif" font-size="10.00">model.WatorSimulation.make</text>
<text text-anchor="middle" x="665" y="-31" font-family="Helvetica,sans-Serif" font-size="10.00">NextGrid</text>
</a>
</g>
</g>
<!-- Node3&#45;&gt;Node4 -->
<g id="edge3" class="edge"><title>Node3&#45;&gt;Node4</title>
<path fill="none" stroke="midnightblue" d="M559.716,-52.5787C568.435,-51.4434 577.246,-50.2961 585.858,-49.1748"/>
<polygon fill="midnightblue" stroke="midnightblue" points="559.005,-49.1416 549.54,-53.9036 559.909,-56.083 559.005,-49.1416"/>
</g>
<!-- Node5&#45;&gt;Node4 -->
<g id="edge5" class="edge"><title>Node5&#45;&gt;Node4</title>
<path fill="none" stroke="midnightblue" d="M554.807,-25.3509C565.114,-26.6392 575.628,-27.9535 585.861,-29.2326"/>
<polygon fill="midnightblue" stroke="midnightblue" points="554.944,-21.8408 544.587,-24.0734 554.076,-28.7868 554.944,-21.8408"/>
</g>
</g>
</svg>
