<?xml version="1.0" encoding="UTF-8" standalone="no"?>
<!DOCTYPE svg PUBLIC "-//W3C//DTD SVG 1.1//EN"
 "http://www.w3.org/Graphics/SVG/1.1/DTD/svg11.dtd">
<!-- Generated by graphviz version 2.36.0 (20140111.2315)
 -->
<!-- Title: model.Grid.getLocationsWithState Pages: 1 -->
<svg width="310pt" height="66pt"
 viewBox="0.00 0.00 310.00 66.00" xmlns="http://www.w3.org/2000/svg" xmlns:xlink="http://www.w3.org/1999/xlink">
<g id="graph0" class="graph" transform="scale(1 1) rotate(0) translate(4 62)">
<title>model.Grid.getLocationsWithState</title>
<polygon fill="white" stroke="none" points="-4,4 -4,-62 306,-62 306,4 -4,4"/>
<!-- Node1 -->
<g id="node1" class="node"><title>Node1</title>
<polygon fill="#bfbfbf" stroke="black" points="0,-14 0,-44 154,-44 154,-14 0,-14"/>
<text text-anchor="start" x="8" y="-32" font-family="Helvetica,sans-Serif" font-size="10.00">model.Grid.getLocationsWith</text>
<text text-anchor="middle" x="77" y="-21" font-family="Helvetica,sans-Serif" font-size="10.00">State</text>
</g>
<!-- Node2 -->
<g id="node2" class="node"><title>Node2</title>
<g id="a_node2"><a xlink:href="../../dc/d8f/classmodel_1_1_grid.html#a7308e05b94f35a2f8198f314eb384267" target="_top" xlink:title="model.Grid.getCell">
<polygon fill="white" stroke="black" points="193.5,-38.5 193.5,-57.5 298.5,-57.5 298.5,-38.5 193.5,-38.5"/>
<text text-anchor="middle" x="246" y="-45.5" font-family="Helvetica,sans-Serif" font-size="10.00">model.Grid.getCell</text>
</a>
</g>
</g>
<!-- Node1&#45;&gt;Node2 -->
<g id="edge1" class="edge"><title>Node1&#45;&gt;Node2</title>
<path fill="none" stroke="midnightblue" d="M154.17,-37.666C163.898,-38.7729 173.761,-39.895 183.224,-40.9715"/>
<polygon fill="midnightblue" stroke="midnightblue" points="182.978,-44.4661 193.309,-42.119 183.769,-37.5109 182.978,-44.4661"/>
</g>
<!-- Node3 -->
<g id="node3" class="node"><title>Node3</title>
<g id="a_node3"><a xlink:href="../../d3/d57/classmodel_1_1_cell.html#af3d3f6f007030f25fb677f0f2f01510b" target="_top" xlink:title="model.Cell.getState">
<polygon fill="white" stroke="black" points="190,-0.5 190,-19.5 302,-19.5 302,-0.5 190,-0.5"/>
<text text-anchor="middle" x="246" y="-7.5" font-family="Helvetica,sans-Serif" font-size="10.00">model.Cell.getState</text>
</a>
</g>
</g>
<!-- Node1&#45;&gt;Node3 -->
<g id="edge2" class="edge"><title>Node1&#45;&gt;Node3</title>
<path fill="none" stroke="midnightblue" d="M154.17,-20.334C162.732,-19.3599 171.397,-18.374 179.803,-17.4176"/>
<polygon fill="midnightblue" stroke="midnightblue" points="180.362,-20.8767 189.902,-16.2686 179.571,-13.9216 180.362,-20.8767"/>
</g>
</g>
</svg>
