<?xml version="1.0" encoding="UTF-8" standalone="no"?>
<!DOCTYPE svg PUBLIC "-//W3C//DTD SVG 1.1//EN"
 "http://www.w3.org/Graphics/SVG/1.1/DTD/svg11.dtd">
<!-- Generated by graphviz version 2.36.0 (20140111.2315)
 -->
<!-- Title: model.Grid.getCell Pages: 1 -->
<!--zoomable 909 -->
<svg id="main" version="1.1" xmlns="http://www.w3.org/2000/svg" xmlns:xlink="http://www.w3.org/1999/xlink" xml:space="preserve" onload="init(evt)">
<style type="text/css"><![CDATA[
.edge:hover path { stroke: red; }
.edge:hover polygon { stroke: red; fill: red; }
]]></style>
<script type="text/javascript"><![CDATA[
var edges = document.getElementsByTagName('g');
if (edges && edges.length) {
  for (var i=0;i<edges.length;i++) {
    if (edges[i].id.substr(0,4)=='edge') {
      edges[i].setAttribute('class','edge');
    }
  }
}
]]></script>
        <defs>
                <circle id="rim" cx="0" cy="0" r="7"/>
                <circle id="rim2" cx="0" cy="0" r="3.5"/>
                <g id="zoomPlus">
                        <use xlink:href="#rim" fill="#404040">
                                <set attributeName="fill" to="#808080" begin="zoomplus.mouseover" end="zoomplus.mouseout"/>
                        </use>
                        <path d="M-4,0h8M0,-4v8" fill="none" stroke="white" stroke-width="1.5" pointer-events="none"/>
                </g>
                <g id="zoomMin">
                        <use xlink:href="#rim" fill="#404040">
                                <set attributeName="fill" to="#808080" begin="zoomminus.mouseover" end="zoomminus.mouseout"/>
                        </use>
                        <path d="M-4,0h8" fill="none" stroke="white" stroke-width="1.5" pointer-events="none"/>
                </g>
                <g id="dirArrow">
                        <path fill="none" stroke="white" stroke-width="1.5" d="M0,-3.0v7 M-2.5,-0.5L0,-3.0L2.5,-0.5"/>
                </g>
               <g id="resetDef">
                       <use xlink:href="#rim2" fill="#404040">
                               <set attributeName="fill" to="#808080" begin="reset.mouseover" end="reset.mouseout"/>
                       </use>
               </g>
        </defs>

<script type="text/javascript">
var viewWidth = 1906;
var viewHeight = 909;
var sectionId = 'dynsection-4';
</script>
<script xlink:href="../../svgpan.js"/>
<svg id="graph" class="graph">
<g id="viewport">
<title>model.Grid.getCell</title>
<polygon fill="white" stroke="none" points="-4,4 -4,-905 1902,-905 1902,4 -4,4"/>
<!-- Node1 -->
<g id="node1" class="node"><title>Node1</title>
<polygon fill="#bfbfbf" stroke="black" points="0.5,-482.5 0.5,-501.5 105.5,-501.5 105.5,-482.5 0.5,-482.5"/>
<text text-anchor="middle" x="53" y="-489.5" font-family="Helvetica,sans-Serif" font-size="10.00">model.Grid.getCell</text>
</g>
<!-- Node2 -->
<g id="node2" class="node"><title>Node2</title>
<g id="a_node2"><a xlink:href="../../da/df2/classmodel_1_1_game_life_simulation.html#abf884de11d364a4e30c22d8f108c2c55" target="_top" xlink:title="model.GameLifeSimulation.calculate\lNewCellState">
<polygon fill="white" stroke="black" points="142,-871 142,-901 334,-901 334,-871 142,-871"/>
<text text-anchor="start" x="150" y="-889" font-family="Helvetica,sans-Serif" font-size="10.00">model.GameLifeSimulation.calculate</text>
<text text-anchor="middle" x="238" y="-878" font-family="Helvetica,sans-Serif" font-size="10.00">NewCellState</text>
</a>
</g>
</g>
<!-- Node1&#45;&gt;Node2 -->
<g id="edge1" class="edge"><title>Node1&#45;&gt;Node2</title>
<path fill="none" stroke="midnightblue" d="M56.264,-512.12C64.3765,-580.816 94.0825,-804.674 142,-856 147.665,-862.068 154.546,-866.916 161.987,-870.787"/>
<polygon fill="midnightblue" stroke="midnightblue" points="59.6985,-511.351 55.0735,-501.819 52.7448,-512.155 59.6985,-511.351"/>
</g>
<!-- Node3 -->
<g id="node3" class="node"><title>Node3</title>
<g id="a_node3"><a xlink:href="../../db/ddc/classmodel_1_1_wator_simulation.html#a35418540015ff541b0e3940d9df2f0d5" target="_top" xlink:title="model.WatorSimulation.can\lReproduce">
<polygon fill="white" stroke="black" points="164,-734 164,-764 312,-764 312,-734 164,-734"/>
<text text-anchor="start" x="172" y="-752" font-family="Helvetica,sans-Serif" font-size="10.00">model.WatorSimulation.can</text>
<text text-anchor="middle" x="238" y="-741" font-family="Helvetica,sans-Serif" font-size="10.00">Reproduce</text>
</a>
</g>
</g>
<!-- Node1&#45;&gt;Node3 -->
<g id="edge2" class="edge"><title>Node1&#45;&gt;Node3</title>
<path fill="none" stroke="midnightblue" d="M55.5594,-511.809C60.1755,-556.591 77.7854,-666.21 142,-724 148.338,-729.704 155.825,-734.134 163.769,-737.569"/>
<polygon fill="midnightblue" stroke="midnightblue" points="59.0277,-511.303 54.6271,-501.665 52.0571,-511.944 59.0277,-511.303"/>
</g>
<!-- Node5 -->
<g id="node5" class="node"><title>Node5</title>
<g id="a_node5"><a xlink:href="../../db/ddc/classmodel_1_1_wator_simulation.html#a2205211b8ee8357a4687fce7bb25123a" target="_top" xlink:title="model.WatorSimulation.shark\lAction">
<polygon fill="white" stroke="black" points="786.5,-515 786.5,-545 943.5,-545 943.5,-515 786.5,-515"/>
<text text-anchor="start" x="794.5" y="-533" font-family="Helvetica,sans-Serif" font-size="10.00">model.WatorSimulation.shark</text>
<text text-anchor="middle" x="865" y="-522" font-family="Helvetica,sans-Serif" font-size="10.00">Action</text>
</a>
</g>
</g>
<!-- Node1&#45;&gt;Node5 -->
<g id="edge50" class="edge"><title>Node1&#45;&gt;Node5</title>
<path fill="none" stroke="midnightblue" d="M56.2581,-472.127C62.0629,-431.537 81.5747,-339.69 142,-301 213.864,-254.985 248.743,-297.387 334,-301 428.476,-305.004 454.921,-293.576 546,-319 643.445,-346.201 667.287,-361.742 750,-420 790.923,-448.824 831.278,-492.261 851.189,-514.965"/>
<polygon fill="midnightblue" stroke="midnightblue" points="52.7762,-471.762 54.9617,-482.129 59.7181,-472.662 52.7762,-471.762"/>
</g>
<!-- Node8 -->
<g id="node8" class="node"><title>Node8</title>
<g id="a_node8"><a xlink:href="../../db/ddc/classmodel_1_1_wator_simulation.html#a1d9c45bb58d3edd46f9cba1d3b479d82" target="_top" xlink:title="model.WatorSimulation.fish\lAction">
<polygon fill="white" stroke="black" points="791.5,-608 791.5,-638 938.5,-638 938.5,-608 791.5,-608"/>
<text text-anchor="start" x="799.5" y="-626" font-family="Helvetica,sans-Serif" font-size="10.00">model.WatorSimulation.fish</text>
<text text-anchor="middle" x="865" y="-615" font-family="Helvetica,sans-Serif" font-size="10.00">Action</text>
</a>
</g>
</g>
<!-- Node1&#45;&gt;Node8 -->
<g id="edge30" class="edge"><title>Node1&#45;&gt;Node8</title>
<path fill="none" stroke="midnightblue" d="M56.15,-511.616C63.7177,-576.635 91.4341,-783.151 142,-822 255.931,-909.531 711.227,-697.629 833.592,-638.05"/>
<polygon fill="midnightblue" stroke="midnightblue" points="59.6077,-511.044 55.0042,-501.502 52.6522,-511.832 59.6077,-511.044"/>
</g>
<!-- Node9 -->
<g id="node9" class="node"><title>Node9</title>
<g id="a_node9"><a xlink:href="../../d5/de9/classmodel_1_1_finite_grid.html#ab81e5e045cdb4a5ff7b2c4c1e4a99e6e" target="_top" xlink:title="model.FiniteGrid.copyGrid">
<polygon fill="white" stroke="black" points="168.5,-695.5 168.5,-714.5 307.5,-714.5 307.5,-695.5 168.5,-695.5"/>
<text text-anchor="middle" x="238" y="-702.5" font-family="Helvetica,sans-Serif" font-size="10.00">model.FiniteGrid.copyGrid</text>
</a>
</g>
</g>
<!-- Node1&#45;&gt;Node9 -->
<g id="edge10" class="edge"><title>Node1&#45;&gt;Node9</title>
<path fill="none" stroke="midnightblue" d="M56.8705,-511.483C63.7848,-551.054 85.2051,-640.896 142,-686 149.639,-692.067 158.694,-696.36 168.129,-699.372"/>
<polygon fill="midnightblue" stroke="midnightblue" points="60.3121,-510.84 55.2571,-501.529 53.4023,-511.96 60.3121,-510.84"/>
</g>
<!-- Node10 -->
<g id="node10" class="node"><title>Node10</title>
<g id="a_node10"><a xlink:href="../../dc/df5/classmodel_1_1_toroidal_grid.html#acd71c7955159df8b53f45fbc2a672ec5" target="_top" xlink:title="model.ToroidalGrid.copyGrid">
<polygon fill="white" stroke="black" points="163,-657.5 163,-676.5 313,-676.5 313,-657.5 163,-657.5"/>
<text text-anchor="middle" x="238" y="-664.5" font-family="Helvetica,sans-Serif" font-size="10.00">model.ToroidalGrid.copyGrid</text>
</a>
</g>
</g>
<!-- Node1&#45;&gt;Node10 -->
<g id="edge11" class="edge"><title>Node1&#45;&gt;Node10</title>
<path fill="none" stroke="midnightblue" d="M59.2767,-511.377C69.4045,-544.693 94.8581,-612.558 142,-647 148.26,-651.574 155.338,-655.15 162.738,-657.938"/>
<polygon fill="midnightblue" stroke="midnightblue" points="62.5611,-510.136 56.4203,-501.502 55.8367,-512.081 62.5611,-510.136"/>
</g>
<!-- Node11 -->
<g id="node11" class="node"><title>Node11</title>
<g id="a_node11"><a xlink:href="../../d9/df7/classcontroller_1_1_controller.html#ae43191a1fc7db5c1cb03da2a8a580541" target="_top" xlink:title="controller.Controller.create\lColorGrid">
<polygon fill="white" stroke="black" points="166.5,-181 166.5,-211 309.5,-211 309.5,-181 166.5,-181"/>
<text text-anchor="start" x="174.5" y="-199" font-family="Helvetica,sans-Serif" font-size="10.00">controller.Controller.create</text>
<text text-anchor="middle" x="238" y="-188" font-family="Helvetica,sans-Serif" font-size="10.00">ColorGrid</text>
</a>
</g>
</g>
<!-- Node1&#45;&gt;Node11 -->
<g id="edge12" class="edge"><title>Node1&#45;&gt;Node11</title>
<path fill="none" stroke="midnightblue" d="M54.6681,-472.256C57.4024,-423.391 71.3112,-295.733 142,-226 148.895,-219.198 157.32,-213.936 166.275,-209.867"/>
<polygon fill="midnightblue" stroke="midnightblue" points="51.1639,-472.269 54.2024,-482.419 58.1566,-472.589 51.1639,-472.269"/>
</g>
<!-- Node24 -->
<g id="node24" class="node"><title>Node24</title>
<g id="a_node24"><a xlink:href="../../db/ddc/classmodel_1_1_wator_simulation.html#a0d64d1242b4717fd5b8914b98ed36c95" target="_top" xlink:title="model.WatorSimulation.decrease\lEnergy">
<polygon fill="white" stroke="black" points="370.5,-515 370.5,-545 545.5,-545 545.5,-515 370.5,-515"/>
<text text-anchor="start" x="378.5" y="-533" font-family="Helvetica,sans-Serif" font-size="10.00">model.WatorSimulation.decrease</text>
<text text-anchor="middle" x="458" y="-522" font-family="Helvetica,sans-Serif" font-size="10.00">Energy</text>
</a>
</g>
</g>
<!-- Node1&#45;&gt;Node24 -->
<g id="edge28" class="edge"><title>Node1&#45;&gt;Node24</title>
<path fill="none" stroke="midnightblue" d="M116.004,-497.847C184.077,-504.265 293.859,-514.617 370.408,-521.835"/>
<polygon fill="midnightblue" stroke="midnightblue" points="116.145,-494.344 105.86,-496.89 115.487,-501.313 116.145,-494.344"/>
</g>
<!-- Node25 -->
<g id="node25" class="node"><title>Node25</title>
<g id="a_node25"><a xlink:href="../../dc/df5/classmodel_1_1_toroidal_grid.html#a92009f3c34c3300d8533fe4e12d16d24" target="_top" xlink:title="model.ToroidalGrid.getAll\lNeighbors">
<polygon fill="white" stroke="black" points="390.5,-450 390.5,-480 525.5,-480 525.5,-450 390.5,-450"/>
<text text-anchor="start" x="398.5" y="-468" font-family="Helvetica,sans-Serif" font-size="10.00">model.ToroidalGrid.getAll</text>
<text text-anchor="middle" x="458" y="-457" font-family="Helvetica,sans-Serif" font-size="10.00">Neighbors</text>
</a>
</g>
</g>
<!-- Node1&#45;&gt;Node25 -->
<g id="edge31" class="edge"><title>Node1&#45;&gt;Node25</title>
<path fill="none" stroke="midnightblue" d="M115.993,-487.847C190.21,-482.874 314.013,-474.58 390.268,-469.471"/>
<polygon fill="midnightblue" stroke="midnightblue" points="115.604,-484.365 105.86,-488.525 116.072,-491.349 115.604,-484.365"/>
</g>
<!-- Node26 -->
<g id="node26" class="node"><title>Node26</title>
<g id="a_node26"><a xlink:href="../../d5/de9/classmodel_1_1_finite_grid.html#ad5fbb8fb77d1549dce13e0f7856b3534" target="_top" xlink:title="model.FiniteGrid.getAllNeighbors">
<polygon fill="white" stroke="black" points="371.5,-328.5 371.5,-347.5 544.5,-347.5 544.5,-328.5 371.5,-328.5"/>
<text text-anchor="middle" x="458" y="-335.5" font-family="Helvetica,sans-Serif" font-size="10.00">model.FiniteGrid.getAllNeighbors</text>
</a>
</g>
</g>
<!-- Node1&#45;&gt;Node26 -->
<g id="edge32" class="edge"><title>Node1&#45;&gt;Node26</title>
<path fill="none" stroke="midnightblue" d="M58.2625,-472.277C67.0149,-437.256 90.6688,-365.073 142,-335 234.017,-281.091 368.62,-311.05 427.542,-328.388"/>
<polygon fill="midnightblue" stroke="midnightblue" points="54.8014,-471.707 55.9282,-482.241 61.6169,-473.303 54.8014,-471.707"/>
</g>
<!-- Node27 -->
<g id="node27" class="node"><title>Node27</title>
<g id="a_node27"><a xlink:href="../../d5/de9/classmodel_1_1_finite_grid.html#ac2d6394e9d65e66b936c3e993ca44719" target="_top" xlink:title="model.FiniteGrid.getDirect\lNeighbors">
<polygon fill="white" stroke="black" points="167.5,-345 167.5,-375 308.5,-375 308.5,-345 167.5,-345"/>
<text text-anchor="start" x="175.5" y="-363" font-family="Helvetica,sans-Serif" font-size="10.00">model.FiniteGrid.getDirect</text>
<text text-anchor="middle" x="238" y="-352" font-family="Helvetica,sans-Serif" font-size="10.00">Neighbors</text>
</a>
</g>
</g>
<!-- Node1&#45;&gt;Node27 -->
<g id="edge33" class="edge"><title>Node1&#45;&gt;Node27</title>
<path fill="none" stroke="midnightblue" d="M65.2578,-473.557C80.1057,-450.733 108.331,-412.175 142,-390 151.244,-383.911 161.804,-378.992 172.444,-375.038"/>
<polygon fill="midnightblue" stroke="midnightblue" points="62.1264,-471.96 59.7366,-482.282 68.0416,-475.703 62.1264,-471.96"/>
</g>
<!-- Node28 -->
<g id="node28" class="node"><title>Node28</title>
<g id="a_node28"><a xlink:href="../../dc/df5/classmodel_1_1_toroidal_grid.html#a52805c279f2f0d1edc793980f171dffb" target="_top" xlink:title="model.ToroidalGrid.getDirect\lNeighbors">
<polygon fill="white" stroke="black" points="162,-433 162,-463 314,-463 314,-433 162,-433"/>
<text text-anchor="start" x="170" y="-451" font-family="Helvetica,sans-Serif" font-size="10.00">model.ToroidalGrid.getDirect</text>
<text text-anchor="middle" x="238" y="-440" font-family="Helvetica,sans-Serif" font-size="10.00">Neighbors</text>
</a>
</g>
</g>
<!-- Node1&#45;&gt;Node28 -->
<g id="edge35" class="edge"><title>Node1&#45;&gt;Node28</title>
<path fill="none" stroke="midnightblue" d="M103.722,-480.045C125.491,-474.811 151.278,-468.611 174.342,-463.065"/>
<polygon fill="midnightblue" stroke="midnightblue" points="102.613,-476.712 93.7083,-482.453 104.249,-483.518 102.613,-476.712"/>
</g>
<!-- Node29 -->
<g id="node29" class="node"><title>Node29</title>
<g id="a_node29"><a xlink:href="../../dc/d8f/classmodel_1_1_grid.html#a58bacc5c1bb1e3db7647ee8730bf57ce" target="_top" xlink:title="model.Grid.getLocationsWith\lState">
<polygon fill="white" stroke="black" points="589,-219 589,-249 743,-249 743,-219 589,-219"/>
<text text-anchor="start" x="597" y="-237" font-family="Helvetica,sans-Serif" font-size="10.00">model.Grid.getLocationsWith</text>
<text text-anchor="middle" x="666" y="-226" font-family="Helvetica,sans-Serif" font-size="10.00">State</text>
</a>
</g>
</g>
<!-- Node1&#45;&gt;Node29 -->
<g id="edge37" class="edge"><title>Node1&#45;&gt;Node29</title>
<path fill="none" stroke="midnightblue" d="M54.8986,-471.885C58.1423,-426.106 73.0933,-314.227 142,-264 211.131,-213.609 461.091,-221.078 588.778,-228.581"/>
<polygon fill="midnightblue" stroke="midnightblue" points="51.3957,-471.833 54.3005,-482.022 58.3835,-472.245 51.3957,-471.833"/>
</g>
<!-- Node30 -->
<g id="node30" class="node"><title>Node30</title>
<g id="a_node30"><a xlink:href="../../db/ddc/classmodel_1_1_wator_simulation.html#ad7ba22a6c88c4944182c8a5ba53366fb" target="_top" xlink:title="model.WatorSimulation.increase\lBreedingTime">
<polygon fill="white" stroke="black" points="152.5,-783 152.5,-813 323.5,-813 323.5,-783 152.5,-783"/>
<text text-anchor="start" x="160.5" y="-801" font-family="Helvetica,sans-Serif" font-size="10.00">model.WatorSimulation.increase</text>
<text text-anchor="middle" x="238" y="-790" font-family="Helvetica,sans-Serif" font-size="10.00">BreedingTime</text>
</a>
</g>
</g>
<!-- Node1&#45;&gt;Node30 -->
<g id="edge39" class="edge"><title>Node1&#45;&gt;Node30</title>
<path fill="none" stroke="midnightblue" d="M54.0446,-511.703C55.2742,-562.737 65.8635,-700.3 142,-773 146.07,-776.887 150.67,-780.187 155.595,-782.987"/>
<polygon fill="midnightblue" stroke="midnightblue" points="57.5439,-511.623 53.9019,-501.674 50.5446,-511.723 57.5439,-511.623"/>
</g>
<!-- Node31 -->
<g id="node31" class="node"><title>Node31</title>
<g id="a_node31"><a xlink:href="../../d2/d17/classmodel_1_1_simulation.html#a4fc716803ab2e78743a529a24a8c601f" target="_top" xlink:title="model.Simulation.makeNextGrid">
<polygon fill="white" stroke="black" points="371.5,-93.5 371.5,-112.5 544.5,-112.5 544.5,-93.5 371.5,-93.5"/>
<text text-anchor="middle" x="458" y="-100.5" font-family="Helvetica,sans-Serif" font-size="10.00">model.Simulation.makeNextGrid</text>
</a>
</g>
</g>
<!-- Node1&#45;&gt;Node31 -->
<g id="edge42" class="edge"><title>Node1&#45;&gt;Node31</title>
<path fill="none" stroke="midnightblue" d="M55.651,-472.447C61.9661,-402.751 87.0493,-168.169 142,-122 222.747,-54.157 360.17,-77.6003 423.376,-93.4045"/>
<polygon fill="midnightblue" stroke="midnightblue" points="52.1571,-472.226 54.7689,-482.493 59.1302,-472.838 52.1571,-472.226"/>
</g>
<!-- Node32 -->
<g id="node32" class="node"><title>Node32</title>
<g id="a_node32"><a xlink:href="../../db/ddc/classmodel_1_1_wator_simulation.html#a53aa53cfee9794dff36ebb3292522d5a" target="_top" xlink:title="model.WatorSimulation.move\lCreature">
<polygon fill="white" stroke="black" points="159,-608 159,-638 317,-638 317,-608 159,-608"/>
<text text-anchor="start" x="167" y="-626" font-family="Helvetica,sans-Serif" font-size="10.00">model.WatorSimulation.move</text>
<text text-anchor="middle" x="238" y="-615" font-family="Helvetica,sans-Serif" font-size="10.00">Creature</text>
</a>
</g>
</g>
<!-- Node1&#45;&gt;Node32 -->
<g id="edge44" class="edge"><title>Node1&#45;&gt;Node32</title>
<path fill="none" stroke="midnightblue" d="M64.2789,-510.402C78.5753,-534.272 106.727,-575.509 142,-598 148.04,-601.851 154.655,-605.111 161.494,-607.871"/>
<polygon fill="midnightblue" stroke="midnightblue" points="67.2262,-508.508 59.1764,-501.619 61.1736,-512.024 67.2262,-508.508"/>
</g>
<!-- Node33 -->
<g id="node33" class="node"><title>Node33</title>
<g id="a_node33"><a xlink:href="../../db/ddc/classmodel_1_1_wator_simulation.html#a1cd97f85f054403c89c42d2647ae8bbb" target="_top" xlink:title="model.WatorSimulation.remove\lCreature">
<polygon fill="white" stroke="black" points="582.5,-430 582.5,-460 749.5,-460 749.5,-430 582.5,-430"/>
<text text-anchor="start" x="590.5" y="-448" font-family="Helvetica,sans-Serif" font-size="10.00">model.WatorSimulation.remove</text>
<text text-anchor="middle" x="666" y="-437" font-family="Helvetica,sans-Serif" font-size="10.00">Creature</text>
</a>
</g>
</g>
<!-- Node1&#45;&gt;Node33 -->
<g id="edge46" class="edge"><title>Node1&#45;&gt;Node33</title>
<path fill="none" stroke="midnightblue" d="M69.2446,-474.667C85.3663,-457.772 112.509,-433.183 142,-423 304.784,-366.79 513.148,-405.852 610.415,-429.939"/>
<polygon fill="midnightblue" stroke="midnightblue" points="66.461,-472.523 62.2537,-482.247 71.6064,-477.269 66.461,-472.523"/>
</g>
<!-- Node34 -->
<g id="node34" class="node"><title>Node34</title>
<g id="a_node34"><a xlink:href="../../db/ddc/classmodel_1_1_wator_simulation.html#a5584ef42fda846a39a016ff060fd2322" target="_top" xlink:title="model.WatorSimulation.reset\lBreedTime">
<polygon fill="white" stroke="black" points="160.5,-559 160.5,-589 315.5,-589 315.5,-559 160.5,-559"/>
<text text-anchor="start" x="168.5" y="-577" font-family="Helvetica,sans-Serif" font-size="10.00">model.WatorSimulation.reset</text>
<text text-anchor="middle" x="238" y="-566" font-family="Helvetica,sans-Serif" font-size="10.00">BreedTime</text>
</a>
</g>
</g>
<!-- Node1&#45;&gt;Node34 -->
<g id="edge48" class="edge"><title>Node1&#45;&gt;Node34</title>
<path fill="none" stroke="midnightblue" d="M76.9038,-507.501C94.2247,-518.729 118.893,-533.687 142,-544 154.635,-549.639 168.651,-554.684 181.95,-558.955"/>
<polygon fill="midnightblue" stroke="midnightblue" points="78.3704,-504.276 68.0935,-501.7 74.5208,-510.123 78.3704,-504.276"/>
</g>
<!-- Node35 -->
<g id="node35" class="node"><title>Node35</title>
<g id="a_node35"><a xlink:href="../../d9/df7/classcontroller_1_1_controller.html#aca48bc84d82655ce699963fd859afebd" target="_top" xlink:title="controller.Controller.update\lStateTotals">
<polygon fill="white" stroke="black" points="165,-132 165,-162 311,-162 311,-132 165,-132"/>
<text text-anchor="start" x="173" y="-150" font-family="Helvetica,sans-Serif" font-size="10.00">controller.Controller.update</text>
<text text-anchor="middle" x="238" y="-139" font-family="Helvetica,sans-Serif" font-size="10.00">StateTotals</text>
</a>
</g>
</g>
<!-- Node1&#45;&gt;Node35 -->
<g id="edge51" class="edge"><title>Node1&#45;&gt;Node35</title>
<path fill="none" stroke="midnightblue" d="M56.8021,-472.143C66.1064,-408.964 97.9039,-214.218 142,-171 148.439,-164.689 156.284,-159.963 164.676,-156.435"/>
<polygon fill="midnightblue" stroke="midnightblue" points="53.2945,-471.945 55.3287,-482.343 60.2226,-472.946 53.2945,-471.945"/>
</g>
<!-- Node4 -->
<g id="node4" class="node"><title>Node4</title>
<g id="a_node4"><a xlink:href="../../db/ddc/classmodel_1_1_wator_simulation.html#af44e712c1655e6d268a32bbd1c4db7d9" target="_top" xlink:title="model.WatorSimulation.move\lAndCheckBaby">
<polygon fill="white" stroke="black" points="379,-608 379,-638 537,-638 537,-608 379,-608"/>
<text text-anchor="start" x="387" y="-626" font-family="Helvetica,sans-Serif" font-size="10.00">model.WatorSimulation.move</text>
<text text-anchor="middle" x="458" y="-615" font-family="Helvetica,sans-Serif" font-size="10.00">AndCheckBaby</text>
</a>
</g>
</g>
<!-- Node3&#45;&gt;Node4 -->
<g id="edge3" class="edge"><title>Node3&#45;&gt;Node4</title>
<path fill="none" stroke="midnightblue" d="M319.659,-730.425C324.599,-728.477 329.419,-726.341 334,-724 378.534,-701.243 421.581,-660.177 442.982,-638.067"/>
<polygon fill="midnightblue" stroke="midnightblue" points="318.233,-727.219 310.044,-733.941 320.638,-733.793 318.233,-727.219"/>
</g>
<!-- Node4&#45;&gt;Node5 -->
<g id="edge4" class="edge"><title>Node4&#45;&gt;Node5</title>
<path fill="none" stroke="midnightblue" d="M534.503,-605.662C610.466,-588.219 726.408,-561.595 798.574,-545.024"/>
<polygon fill="midnightblue" stroke="midnightblue" points="533.483,-602.305 524.52,-607.955 535.05,-609.128 533.483,-602.305"/>
</g>
<!-- Node7 -->
<g id="node7" class="node"><title>Node7</title>
<g id="a_node7"><a xlink:href="../../db/ddc/classmodel_1_1_wator_simulation.html#ab1a02dcfc6d897735f1b90c728668aee" target="_top" xlink:title="model.WatorSimulation.move\lIfEmptyAndCheckBaby">
<polygon fill="white" stroke="black" points="587,-608 587,-638 745,-638 745,-608 587,-608"/>
<text text-anchor="start" x="595" y="-626" font-family="Helvetica,sans-Serif" font-size="10.00">model.WatorSimulation.move</text>
<text text-anchor="middle" x="666" y="-615" font-family="Helvetica,sans-Serif" font-size="10.00">IfEmptyAndCheckBaby</text>
</a>
</g>
</g>
<!-- Node4&#45;&gt;Node7 -->
<g id="edge6" class="edge"><title>Node4&#45;&gt;Node7</title>
<path fill="none" stroke="midnightblue" d="M547.186,-623C560.383,-623 573.911,-623 586.88,-623"/>
<polygon fill="midnightblue" stroke="midnightblue" points="547.174,-619.5 537.173,-623 547.173,-626.5 547.174,-619.5"/>
</g>
<!-- Node6 -->
<g id="node6" class="node"><title>Node6</title>
<g id="a_node6"><a xlink:href="../../db/ddc/classmodel_1_1_wator_simulation.html#a71ffa6547eb00615e94ba1d708a08281" target="_top" xlink:title="model.WatorSimulation.make\lNextGrid">
<polygon fill="white" stroke="black" points="980,-515 980,-545 1138,-545 1138,-515 980,-515"/>
<text text-anchor="start" x="988" y="-533" font-family="Helvetica,sans-Serif" font-size="10.00">model.WatorSimulation.make</text>
<text text-anchor="middle" x="1059" y="-522" font-family="Helvetica,sans-Serif" font-size="10.00">NextGrid</text>
</a>
</g>
</g>
<!-- Node5&#45;&gt;Node6 -->
<g id="edge5" class="edge"><title>Node5&#45;&gt;Node6</title>
<path fill="none" stroke="midnightblue" d="M953.716,-530C962.435,-530 971.246,-530 979.858,-530"/>
<polygon fill="midnightblue" stroke="midnightblue" points="953.54,-526.5 943.54,-530 953.54,-533.5 953.54,-526.5"/>
</g>
<!-- Node7&#45;&gt;Node5 -->
<g id="edge7" class="edge"><title>Node7&#45;&gt;Node5</title>
<path fill="none" stroke="midnightblue" d="M713.762,-603.971C725.655,-598.943 738.361,-593.406 750,-588 779.605,-574.248 812.799,-557.166 835.699,-545.111"/>
<polygon fill="midnightblue" stroke="midnightblue" points="712.304,-600.788 704.435,-607.882 715.01,-607.243 712.304,-600.788"/>
</g>
<!-- Node7&#45;&gt;Node8 -->
<g id="edge8" class="edge"><title>Node7&#45;&gt;Node8</title>
<path fill="none" stroke="midnightblue" d="M755.235,-623C767.327,-623 779.628,-623 791.397,-623"/>
<polygon fill="midnightblue" stroke="midnightblue" points="755.143,-619.5 745.143,-623 755.143,-626.5 755.143,-619.5"/>
</g>
<!-- Node8&#45;&gt;Node6 -->
<g id="edge9" class="edge"><title>Node8&#45;&gt;Node6</title>
<path fill="none" stroke="midnightblue" d="M906.489,-603.388C942.354,-586.016 993.968,-561.015 1026.74,-545.143"/>
<polygon fill="midnightblue" stroke="midnightblue" points="904.749,-600.342 897.275,-607.851 907.801,-606.642 904.749,-600.342"/>
</g>
<!-- Node12 -->
<g id="node12" class="node"><title>Node12</title>
<g id="a_node12"><a xlink:href="../../d9/df7/classcontroller_1_1_controller.html#af87c08769a85e54ca1d5c688b82b11f6" target="_top" xlink:title="controller.Controller.bundle\lViewPackager">
<polygon fill="white" stroke="black" points="385.5,-132 385.5,-162 530.5,-162 530.5,-132 385.5,-132"/>
<text text-anchor="start" x="393.5" y="-150" font-family="Helvetica,sans-Serif" font-size="10.00">controller.Controller.bundle</text>
<text text-anchor="middle" x="458" y="-139" font-family="Helvetica,sans-Serif" font-size="10.00">ViewPackager</text>
</a>
</g>
</g>
<!-- Node11&#45;&gt;Node12 -->
<g id="edge13" class="edge"><title>Node11&#45;&gt;Node12</title>
<path fill="none" stroke="midnightblue" d="M315.781,-178.742C340.072,-173.282 366.708,-167.295 390.238,-162.006"/>
<polygon fill="midnightblue" stroke="midnightblue" points="314.878,-175.358 305.889,-180.965 316.413,-182.187 314.878,-175.358"/>
</g>
<!-- Node13 -->
<g id="node13" class="node"><title>Node13</title>
<g id="a_node13"><a xlink:href="../../d9/df7/classcontroller_1_1_controller.html#af7cc9ab6dfe60da36d3159eea48882db" target="_top" xlink:title="controller.Controller.loadFile">
<polygon fill="white" stroke="black" points="592,-137.5 592,-156.5 740,-156.5 740,-137.5 592,-137.5"/>
<text text-anchor="middle" x="666" y="-144.5" font-family="Helvetica,sans-Serif" font-size="10.00">controller.Controller.loadFile</text>
</a>
</g>
</g>
<!-- Node12&#45;&gt;Node13 -->
<g id="edge14" class="edge"><title>Node12&#45;&gt;Node13</title>
<path fill="none" stroke="midnightblue" d="M541.071,-147C557.819,-147 575.337,-147 591.752,-147"/>
<polygon fill="midnightblue" stroke="midnightblue" points="540.76,-143.5 530.76,-147 540.76,-150.5 540.76,-143.5"/>
</g>
<!-- Node19 -->
<g id="node19" class="node"><title>Node19</title>
<g id="a_node19"><a xlink:href="../../d9/df7/classcontroller_1_1_controller.html#aa8fee9e96592dabbb151850b562d9ec0" target="_top" xlink:title="controller.Controller.step\lSimulation">
<polygon fill="white" stroke="black" points="599,-88 599,-118 733,-118 733,-88 599,-88"/>
<text text-anchor="start" x="607" y="-106" font-family="Helvetica,sans-Serif" font-size="10.00">controller.Controller.step</text>
<text text-anchor="middle" x="666" y="-95" font-family="Helvetica,sans-Serif" font-size="10.00">Simulation</text>
</a>
</g>
</g>
<!-- Node12&#45;&gt;Node19 -->
<g id="edge20" class="edge"><title>Node12&#45;&gt;Node19</title>
<path fill="none" stroke="midnightblue" d="M539.202,-129.87C558.931,-125.656 579.835,-121.19 598.818,-117.136"/>
<polygon fill="midnightblue" stroke="midnightblue" points="538.366,-126.469 529.317,-131.981 539.828,-133.315 538.366,-126.469"/>
</g>
<!-- Node14 -->
<g id="node14" class="node"><title>Node14</title>
<g id="a_node14"><a xlink:href="../../d1/dbf/classview_package_1_1_view.html#a718e5f42ae85512916198548e28477c7" target="_top" xlink:title="viewPackage.View.tryLoad">
<polygon fill="white" stroke="black" points="795,-137.5 795,-156.5 935,-156.5 935,-137.5 795,-137.5"/>
<text text-anchor="middle" x="865" y="-144.5" font-family="Helvetica,sans-Serif" font-size="10.00">viewPackage.View.tryLoad</text>
</a>
</g>
</g>
<!-- Node13&#45;&gt;Node14 -->
<g id="edge15" class="edge"><title>Node13&#45;&gt;Node14</title>
<path fill="none" stroke="midnightblue" d="M750.287,-147C765.172,-147 780.532,-147 794.963,-147"/>
<polygon fill="midnightblue" stroke="midnightblue" points="750.076,-143.5 740.076,-147 750.076,-150.5 750.076,-143.5"/>
</g>
<!-- Node15 -->
<g id="node15" class="node"><title>Node15</title>
<g id="a_node15"><a xlink:href="../../dc/d2c/classview_package_1_1_button_box.html#aef53bd97c4407ecd3fb5dfbf42850a46" target="_top" xlink:title="viewPackage.ButtonBox.load\lFileBox">
<polygon fill="white" stroke="black" points="1174.5,-132 1174.5,-162 1327.5,-162 1327.5,-132 1174.5,-132"/>
<text text-anchor="start" x="1182.5" y="-150" font-family="Helvetica,sans-Serif" font-size="10.00">viewPackage.ButtonBox.load</text>
<text text-anchor="middle" x="1251" y="-139" font-family="Helvetica,sans-Serif" font-size="10.00">FileBox</text>
</a>
</g>
</g>
<!-- Node14&#45;&gt;Node15 -->
<g id="edge16" class="edge"><title>Node14&#45;&gt;Node15</title>
<path fill="none" stroke="midnightblue" d="M945.205,-147C1012.37,-147 1108.06,-147 1174.23,-147"/>
<polygon fill="midnightblue" stroke="midnightblue" points="945.095,-143.5 935.095,-147 945.095,-150.5 945.095,-143.5"/>
</g>
<!-- Node16 -->
<g id="node16" class="node"><title>Node16</title>
<g id="a_node16"><a xlink:href="../../dc/d2c/classview_package_1_1_button_box.html#a9756fc46a96c169ce48a1867bd2c82f5" target="_top" xlink:title="viewPackage.ButtonBox.make\lButtonBox">
<polygon fill="white" stroke="black" points="1364,-88 1364,-118 1524,-118 1524,-88 1364,-88"/>
<text text-anchor="start" x="1372" y="-106" font-family="Helvetica,sans-Serif" font-size="10.00">viewPackage.ButtonBox.make</text>
<text text-anchor="middle" x="1444" y="-95" font-family="Helvetica,sans-Serif" font-size="10.00">ButtonBox</text>
</a>
</g>
</g>
<!-- Node15&#45;&gt;Node16 -->
<g id="edge17" class="edge"><title>Node15&#45;&gt;Node16</title>
<path fill="none" stroke="midnightblue" d="M1326.96,-129.732C1343.75,-125.865 1361.42,-121.793 1377.77,-118.026"/>
<polygon fill="midnightblue" stroke="midnightblue" points="1326.16,-126.325 1317.2,-131.981 1327.73,-133.146 1326.16,-126.325"/>
</g>
<!-- Node17 -->
<g id="node17" class="node"><title>Node17</title>
<g id="a_node17"><a xlink:href="../../d1/dbf/classview_package_1_1_view.html#af6f6887ef253ae0fba2634e367b95312" target="_top" xlink:title="viewPackage.View.initialize">
<polygon fill="white" stroke="black" points="1560,-93.5 1560,-112.5 1702,-112.5 1702,-93.5 1560,-93.5"/>
<text text-anchor="middle" x="1631" y="-100.5" font-family="Helvetica,sans-Serif" font-size="10.00">viewPackage.View.initialize</text>
</a>
</g>
</g>
<!-- Node16&#45;&gt;Node17 -->
<g id="edge18" class="edge"><title>Node16&#45;&gt;Node17</title>
<path fill="none" stroke="midnightblue" d="M1534.33,-103C1542.93,-103 1551.57,-103 1559.95,-103"/>
<polygon fill="midnightblue" stroke="midnightblue" points="1534.26,-99.5001 1524.26,-103 1534.26,-106.5 1534.26,-99.5001"/>
</g>
<!-- Node18 -->
<g id="node18" class="node"><title>Node18</title>
<g id="a_node18"><a xlink:href="../../d9/df7/classcontroller_1_1_controller.html#a4dbfef3e3e30bd1bb84df7a6b24ad1e7" target="_top" xlink:title="controller.Controller.Controller">
<polygon fill="white" stroke="black" points="1738.5,-93.5 1738.5,-112.5 1897.5,-112.5 1897.5,-93.5 1738.5,-93.5"/>
<text text-anchor="middle" x="1818" y="-100.5" font-family="Helvetica,sans-Serif" font-size="10.00">controller.Controller.Controller</text>
</a>
</g>
</g>
<!-- Node17&#45;&gt;Node18 -->
<g id="edge19" class="edge"><title>Node17&#45;&gt;Node18</title>
<path fill="none" stroke="midnightblue" d="M1712.31,-103C1721,-103 1729.83,-103 1738.49,-103"/>
<polygon fill="midnightblue" stroke="midnightblue" points="1712.2,-99.5001 1702.2,-103 1712.2,-106.5 1712.2,-99.5001"/>
</g>
<!-- Node20 -->
<g id="node20" class="node"><title>Node20</title>
<g id="a_node20"><a xlink:href="../../d9/df7/classcontroller_1_1_controller.html#ae859ed2fba4e22871428ec51f7d4c07d" target="_top" xlink:title="controller.Controller.play\lSimulation">
<polygon fill="white" stroke="black" points="799,-44 799,-74 931,-74 931,-44 799,-44"/>
<text text-anchor="start" x="807" y="-62" font-family="Helvetica,sans-Serif" font-size="10.00">controller.Controller.play</text>
<text text-anchor="middle" x="865" y="-51" font-family="Helvetica,sans-Serif" font-size="10.00">Simulation</text>
</a>
</g>
</g>
<!-- Node19&#45;&gt;Node20 -->
<g id="edge21" class="edge"><title>Node19&#45;&gt;Node20</title>
<path fill="none" stroke="midnightblue" d="M742.941,-86.0386C761.337,-81.9299 780.841,-77.5735 798.698,-73.5852"/>
<polygon fill="midnightblue" stroke="midnightblue" points="742.143,-82.6305 733.146,-88.2262 743.669,-89.4622 742.143,-82.6305"/>
</g>
<!-- Node23 -->
<g id="node23" class="node"><title>Node23</title>
<g id="a_node23"><a xlink:href="../../d1/dbf/classview_package_1_1_view.html#acec783d5c91d6cb27da271e46588e79f" target="_top" xlink:title="viewPackage.View.setStep\lSimulation">
<polygon fill="white" stroke="black" points="988.5,-88 988.5,-118 1129.5,-118 1129.5,-88 988.5,-88"/>
<text text-anchor="start" x="996.5" y="-106" font-family="Helvetica,sans-Serif" font-size="10.00">viewPackage.View.setStep</text>
<text text-anchor="middle" x="1059" y="-95" font-family="Helvetica,sans-Serif" font-size="10.00">Simulation</text>
</a>
</g>
</g>
<!-- Node19&#45;&gt;Node23 -->
<g id="edge26" class="edge"><title>Node19&#45;&gt;Node23</title>
<path fill="none" stroke="midnightblue" d="M743.563,-103C814.657,-103 919.599,-103 988.377,-103"/>
<polygon fill="midnightblue" stroke="midnightblue" points="743.328,-99.5001 733.328,-103 743.328,-106.5 743.328,-99.5001"/>
</g>
<!-- Node21 -->
<g id="node21" class="node"><title>Node21</title>
<g id="a_node21"><a xlink:href="../../d9/df7/classcontroller_1_1_controller.html#a37d9d1d84d304a9d94d7666322b7c6ab" target="_top" xlink:title="controller.Controller.change\lSpeed">
<polygon fill="white" stroke="black" points="985,-0 985,-30 1133,-30 1133,-0 985,-0"/>
<text text-anchor="start" x="993" y="-18" font-family="Helvetica,sans-Serif" font-size="10.00">controller.Controller.change</text>
<text text-anchor="middle" x="1059" y="-7" font-family="Helvetica,sans-Serif" font-size="10.00">Speed</text>
</a>
</g>
</g>
<!-- Node20&#45;&gt;Node21 -->
<g id="edge22" class="edge"><title>Node20&#45;&gt;Node21</title>
<path fill="none" stroke="midnightblue" d="M940.89,-41.8378C957.894,-37.941 975.828,-33.8312 992.411,-30.0308"/>
<polygon fill="midnightblue" stroke="midnightblue" points="939.968,-38.4582 931.002,-44.1036 941.532,-45.2813 939.968,-38.4582"/>
</g>
<!-- Node22 -->
<g id="node22" class="node"><title>Node22</title>
<g id="a_node22"><a xlink:href="../../d1/dbf/classview_package_1_1_view.html#a1d1a8e16ae622c0d6a66cd9c516672a6" target="_top" xlink:title="viewPackage.View.setPlay\lAction">
<polygon fill="white" stroke="black" points="1182,-44 1182,-74 1320,-74 1320,-44 1182,-44"/>
<text text-anchor="start" x="1190" y="-62" font-family="Helvetica,sans-Serif" font-size="10.00">viewPackage.View.setPlay</text>
<text text-anchor="middle" x="1251" y="-51" font-family="Helvetica,sans-Serif" font-size="10.00">Action</text>
</a>
</g>
</g>
<!-- Node20&#45;&gt;Node22 -->
<g id="edge25" class="edge"><title>Node20&#45;&gt;Node22</title>
<path fill="none" stroke="midnightblue" d="M941.208,-59C1011.14,-59 1114.41,-59 1181.95,-59"/>
<polygon fill="midnightblue" stroke="midnightblue" points="941.14,-55.5001 931.14,-59 941.14,-62.5001 941.14,-55.5001"/>
</g>
<!-- Node21&#45;&gt;Node22 -->
<g id="edge23" class="edge"><title>Node21&#45;&gt;Node22</title>
<path fill="none" stroke="midnightblue" d="M1135.04,-32.3769C1151.59,-36.2112 1169,-40.2418 1185.11,-43.9738"/>
<polygon fill="midnightblue" stroke="midnightblue" points="1135.39,-28.8656 1124.86,-30.0192 1133.81,-35.6852 1135.39,-28.8656"/>
</g>
<!-- Node22&#45;&gt;Node16 -->
<g id="edge24" class="edge"><title>Node22&#45;&gt;Node16</title>
<path fill="none" stroke="midnightblue" d="M1326.96,-76.2684C1343.75,-80.1352 1361.42,-84.2066 1377.77,-87.9738"/>
<polygon fill="midnightblue" stroke="midnightblue" points="1327.73,-72.8535 1317.2,-74.0192 1326.16,-79.6749 1327.73,-72.8535"/>
</g>
<!-- Node23&#45;&gt;Node16 -->
<g id="edge27" class="edge"><title>Node23&#45;&gt;Node16</title>
<path fill="none" stroke="midnightblue" d="M1140.11,-103C1205.8,-103 1298.3,-103 1363.76,-103"/>
<polygon fill="midnightblue" stroke="midnightblue" points="1139.8,-99.5001 1129.8,-103 1139.8,-106.5 1139.8,-99.5001"/>
</g>
<!-- Node24&#45;&gt;Node5 -->
<g id="edge29" class="edge"><title>Node24&#45;&gt;Node5</title>
<path fill="none" stroke="midnightblue" d="M556.118,-530C626.694,-530 720.946,-530 786.497,-530"/>
<polygon fill="midnightblue" stroke="midnightblue" points="555.883,-526.5 545.883,-530 555.883,-533.5 555.883,-526.5"/>
</g>
<!-- Node27&#45;&gt;Node26 -->
<g id="edge34" class="edge"><title>Node27&#45;&gt;Node26</title>
<path fill="none" stroke="midnightblue" d="M318.539,-351.973C335.691,-350.242 353.895,-348.405 371.271,-346.652"/>
<polygon fill="midnightblue" stroke="midnightblue" points="318.174,-348.492 308.576,-352.979 318.877,-355.457 318.174,-348.492"/>
</g>
<!-- Node28&#45;&gt;Node25 -->
<g id="edge36" class="edge"><title>Node28&#45;&gt;Node25</title>
<path fill="none" stroke="midnightblue" d="M324.011,-454.629C345.987,-456.343 369.333,-458.164 390.23,-459.793"/>
<polygon fill="midnightblue" stroke="midnightblue" points="324.265,-451.139 314.023,-453.85 323.721,-458.117 324.265,-451.139"/>
</g>
<!-- Node29&#45;&gt;Node6 -->
<g id="edge38" class="edge"><title>Node29&#45;&gt;Node6</title>
<path fill="none" stroke="midnightblue" d="M727.44,-252.877C735.235,-256.163 742.949,-259.873 750,-264 878.352,-339.134 1003.87,-470.556 1044.43,-514.899"/>
<polygon fill="midnightblue" stroke="midnightblue" points="728.514,-249.537 717.929,-249.078 725.918,-256.038 728.514,-249.537"/>
</g>
<!-- Node30&#45;&gt;Node4 -->
<g id="edge41" class="edge"><title>Node30&#45;&gt;Node4</title>
<path fill="none" stroke="midnightblue" d="M325.501,-778.361C328.448,-776.716 331.293,-774.932 334,-773 357.475,-756.239 352.267,-741.749 370,-719 393.508,-688.843 424.16,-656.404 442.101,-638.013"/>
<polygon fill="midnightblue" stroke="midnightblue" points="323.783,-775.306 316.389,-782.895 326.901,-781.573 323.783,-775.306"/>
</g>
<!-- Node30&#45;&gt;Node7 -->
<g id="edge40" class="edge"><title>Node30&#45;&gt;Node7</title>
<path fill="none" stroke="midnightblue" d="M312.098,-780.101C319.548,-777.879 326.96,-775.501 334,-773 449.034,-732.126 579.277,-667.343 636.016,-638.148"/>
<polygon fill="midnightblue" stroke="midnightblue" points="310.943,-776.791 302.308,-782.931 312.887,-783.516 310.943,-776.791"/>
</g>
<!-- Node31&#45;&gt;Node19 -->
<g id="edge43" class="edge"><title>Node31&#45;&gt;Node19</title>
<path fill="none" stroke="midnightblue" d="M554.833,-103C569.723,-103 584.813,-103 598.851,-103"/>
<polygon fill="midnightblue" stroke="midnightblue" points="554.573,-99.5001 544.573,-103 554.573,-106.5 554.573,-99.5001"/>
</g>
<!-- Node32&#45;&gt;Node4 -->
<g id="edge45" class="edge"><title>Node32&#45;&gt;Node4</title>
<path fill="none" stroke="midnightblue" d="M327.538,-623C344.489,-623 362.125,-623 378.725,-623"/>
<polygon fill="midnightblue" stroke="midnightblue" points="327.087,-619.5 317.087,-623 327.087,-626.5 327.087,-619.5"/>
</g>
<!-- Node33&#45;&gt;Node5 -->
<g id="edge47" class="edge"><title>Node33&#45;&gt;Node5</title>
<path fill="none" stroke="midnightblue" d="M710.949,-463.963C746.522,-479.312 795.96,-500.643 828.919,-514.863"/>
<polygon fill="midnightblue" stroke="midnightblue" points="712.335,-460.749 701.766,-460.001 709.561,-467.176 712.335,-460.749"/>
</g>
<!-- Node34&#45;&gt;Node4 -->
<g id="edge49" class="edge"><title>Node34&#45;&gt;Node4</title>
<path fill="none" stroke="midnightblue" d="M315.781,-591.258C340.072,-596.718 366.708,-602.705 390.238,-607.994"/>
<polygon fill="midnightblue" stroke="midnightblue" points="316.413,-587.813 305.889,-589.035 314.878,-594.642 316.413,-587.813"/>
</g>
<!-- Node35&#45;&gt;Node12 -->
<g id="edge52" class="edge"><title>Node35&#45;&gt;Node12</title>
<path fill="none" stroke="midnightblue" d="M321.469,-147C342.468,-147 364.865,-147 385.279,-147"/>
<polygon fill="midnightblue" stroke="midnightblue" points="321.288,-143.5 311.288,-147 321.288,-150.5 321.288,-143.5"/>
</g>
</g>
</svg>
        <g id="navigator" transform="translate(0 0)" fill="#404254">
                <rect fill="#f2f5e9" fill-opacity="0.5" stroke="#606060" stroke-width=".5" x="0" y="0" width="60" height="60"/>
                <use id="zoomplus" xlink:href="#zoomPlus" x="17" y="9" onmousedown="handleZoom(evt,'in')"/>
                <use id="zoomminus" xlink:href="#zoomMin" x="42" y="9" onmousedown="handleZoom(evt,'out')"/>
                <use id="reset" xlink:href="#resetDef" x="30" y="36" onmousedown="handleReset()"/>
                <g id="arrowUp" xlink:href="#dirArrow" transform="translate(30 24)" onmousedown="handlePan(0,-1)">
                  <use xlink:href="#rim" fill="#404040">
                        <set attributeName="fill" to="#808080" begin="arrowUp.mouseover" end="arrowUp.mouseout"/>
                  </use>
                  <path fill="none" stroke="white" stroke-width="1.5" d="M0,-3.0v7 M-2.5,-0.5L0,-3.0L2.5,-0.5"/>
                </g>
                <g id="arrowRight" xlink:href="#dirArrow" transform="rotate(90) translate(36 -43)" onmousedown="handlePan(1,0)">
                  <use xlink:href="#rim" fill="#404040">
                        <set attributeName="fill" to="#808080" begin="arrowRight.mouseover" end="arrowRight.mouseout"/>
                  </use>
                  <path fill="none" stroke="white" stroke-width="1.5" d="M0,-3.0v7 M-2.5,-0.5L0,-3.0L2.5,-0.5"/>
                </g>
                <g id="arrowDown" xlink:href="#dirArrow" transform="rotate(180) translate(-30 -48)" onmousedown="handlePan(0,1)">
                  <use xlink:href="#rim" fill="#404040">
                        <set attributeName="fill" to="#808080" begin="arrowDown.mouseover" end="arrowDown.mouseout"/>
                  </use>
                  <path fill="none" stroke="white" stroke-width="1.5" d="M0,-3.0v7 M-2.5,-0.5L0,-3.0L2.5,-0.5"/>
                </g>
                <g id="arrowLeft" xlink:href="#dirArrow" transform="rotate(270) translate(-36 17)" onmousedown="handlePan(-1,0)">
                  <use xlink:href="#rim" fill="#404040">
                        <set attributeName="fill" to="#808080" begin="arrowLeft.mouseover" end="arrowLeft.mouseout"/>
                  </use>
                  <path fill="none" stroke="white" stroke-width="1.5" d="M0,-3.0v7 M-2.5,-0.5L0,-3.0L2.5,-0.5"/>
                </g>
        </g>
        <svg viewBox="0 0 15 15" width="100%" height="30px" preserveAspectRatio="xMaxYMin meet">
         <g id="arrow_out" transform="scale(0.3 0.3)">
          <a xlink:href="classmodel_1_1_grid_a7308e05b94f35a2f8198f314eb384267_icgraph_org.svg" target="_base">
           <rect id="button" ry="5" rx="5" y="6" x="6" height="38" width="38"
                fill="#f2f5e9" fill-opacity="0.5" stroke="#606060" stroke-width="1.0"/>
           <path id="arrow"
             d="M 11.500037,31.436501 C 11.940474,20.09759 22.043105,11.32322 32.158766,21.979434 L 37.068811,17.246167 C 37.068811,17.246167 37.088388,32 37.088388,32 L 22.160133,31.978069 C 22.160133,31.978069 26.997745,27.140456 26.997745,27.140456 C 18.528582,18.264221 13.291696,25.230495 11.500037,31.436501 z"
             style="fill:#404040;"/>
          </a>
         </g>
        </svg>
</svg>
