<?xml version="1.0" encoding="UTF-8" standalone="no"?>
<!DOCTYPE svg PUBLIC "-//W3C//DTD SVG 1.1//EN"
 "http://www.w3.org/Graphics/SVG/1.1/DTD/svg11.dtd">
<!-- Generated by graphviz version 2.36.0 (20140111.2315)
 -->
<!-- Title: model.Grid.copyGrid Pages: 1 -->
<svg width="1598pt" height="126pt"
 viewBox="0.00 0.00 1598.00 126.00" xmlns="http://www.w3.org/2000/svg" xmlns:xlink="http://www.w3.org/1999/xlink">
<g id="graph0" class="graph" transform="scale(1 1) rotate(0) translate(4 122)">
<title>model.Grid.copyGrid</title>
<polygon fill="white" stroke="none" points="-4,4 -4,-122 1594,-122 1594,4 -4,4"/>
<!-- Node1 -->
<g id="node1" class="node"><title>Node1</title>
<polygon fill="#bfbfbf" stroke="black" points="0,-27.5 0,-46.5 114,-46.5 114,-27.5 0,-27.5"/>
<text text-anchor="middle" x="57" y="-34.5" font-family="Helvetica,sans-Serif" font-size="10.00">model.Grid.copyGrid</text>
</g>
<!-- Node2 -->
<g id="node2" class="node"><title>Node2</title>
<g id="a_node2"><a xlink:href="../../d2/d17/classmodel_1_1_simulation.html#a4fc716803ab2e78743a529a24a8c601f" target="_top" xlink:title="model.Simulation.makeNextGrid">
<polygon fill="white" stroke="black" points="150.5,-27.5 150.5,-46.5 323.5,-46.5 323.5,-27.5 150.5,-27.5"/>
<text text-anchor="middle" x="237" y="-34.5" font-family="Helvetica,sans-Serif" font-size="10.00">model.Simulation.makeNextGrid</text>
</a>
</g>
</g>
<!-- Node1&#45;&gt;Node2 -->
<g id="edge1" class="edge"><title>Node1&#45;&gt;Node2</title>
<path fill="none" stroke="midnightblue" d="M124.491,-37C132.966,-37 141.732,-37 150.454,-37"/>
<polygon fill="midnightblue" stroke="midnightblue" points="124.32,-33.5001 114.32,-37 124.32,-40.5001 124.32,-33.5001"/>
</g>
<!-- Node3 -->
<g id="node3" class="node"><title>Node3</title>
<g id="a_node3"><a xlink:href="../../d9/df7/classcontroller_1_1_controller.html#aa8fee9e96592dabbb151850b562d9ec0" target="_top" xlink:title="controller.Controller.step\lSimulation">
<polygon fill="white" stroke="black" points="360,-22 360,-52 494,-52 494,-22 360,-22"/>
<text text-anchor="start" x="368" y="-40" font-family="Helvetica,sans-Serif" font-size="10.00">controller.Controller.step</text>
<text text-anchor="middle" x="427" y="-29" font-family="Helvetica,sans-Serif" font-size="10.00">Simulation</text>
</a>
</g>
</g>
<!-- Node2&#45;&gt;Node3 -->
<g id="edge2" class="edge"><title>Node2&#45;&gt;Node3</title>
<path fill="none" stroke="midnightblue" d="M333.987,-37C342.716,-37 351.422,-37 359.804,-37"/>
<polygon fill="midnightblue" stroke="midnightblue" points="333.748,-33.5001 323.748,-37 333.748,-40.5001 333.748,-33.5001"/>
</g>
<!-- Node4 -->
<g id="node4" class="node"><title>Node4</title>
<g id="a_node4"><a xlink:href="../../d9/df7/classcontroller_1_1_controller.html#ae859ed2fba4e22871428ec51f7d4c07d" target="_top" xlink:title="controller.Controller.play\lSimulation">
<polygon fill="white" stroke="black" points="530,-44 530,-74 662,-74 662,-44 530,-44"/>
<text text-anchor="start" x="538" y="-62" font-family="Helvetica,sans-Serif" font-size="10.00">controller.Controller.play</text>
<text text-anchor="middle" x="596" y="-51" font-family="Helvetica,sans-Serif" font-size="10.00">Simulation</text>
</a>
</g>
</g>
<!-- Node3&#45;&gt;Node4 -->
<g id="edge3" class="edge"><title>Node3&#45;&gt;Node4</title>
<path fill="none" stroke="midnightblue" d="M504.019,-47.0145C512.612,-48.1465 521.312,-49.2925 529.75,-50.4041"/>
<polygon fill="midnightblue" stroke="midnightblue" points="504.374,-43.5311 494.003,-45.695 503.46,-50.4712 504.374,-43.5311"/>
</g>
<!-- Node10 -->
<g id="node10" class="node"><title>Node10</title>
<g id="a_node10"><a xlink:href="../../d1/dbf/classview_package_1_1_view.html#acec783d5c91d6cb27da271e46588e79f" target="_top" xlink:title="viewPackage.View.setStep\lSimulation">
<polygon fill="white" stroke="black" points="701.5,-0 701.5,-30 842.5,-30 842.5,-0 701.5,-0"/>
<text text-anchor="start" x="709.5" y="-18" font-family="Helvetica,sans-Serif" font-size="10.00">viewPackage.View.setStep</text>
<text text-anchor="middle" x="772" y="-7" font-family="Helvetica,sans-Serif" font-size="10.00">Simulation</text>
</a>
</g>
</g>
<!-- Node3&#45;&gt;Node10 -->
<g id="edge10" class="edge"><title>Node3&#45;&gt;Node10</title>
<path fill="none" stroke="midnightblue" d="M504.13,-32.117C563.05,-28.3379 643.99,-23.1464 701.24,-19.4744"/>
<polygon fill="midnightblue" stroke="midnightblue" points="503.889,-28.6252 494.134,-32.7582 504.337,-35.6108 503.889,-28.6252"/>
</g>
<!-- Node5 -->
<g id="node5" class="node"><title>Node5</title>
<g id="a_node5"><a xlink:href="../../d9/df7/classcontroller_1_1_controller.html#a37d9d1d84d304a9d94d7666322b7c6ab" target="_top" xlink:title="controller.Controller.change\lSpeed">
<polygon fill="white" stroke="black" points="698,-88 698,-118 846,-118 846,-88 698,-88"/>
<text text-anchor="start" x="706" y="-106" font-family="Helvetica,sans-Serif" font-size="10.00">controller.Controller.change</text>
<text text-anchor="middle" x="772" y="-95" font-family="Helvetica,sans-Serif" font-size="10.00">Speed</text>
</a>
</g>
</g>
<!-- Node4&#45;&gt;Node5 -->
<g id="edge4" class="edge"><title>Node4&#45;&gt;Node5</title>
<path fill="none" stroke="midnightblue" d="M666.147,-76.4855C681.181,-80.2873 696.959,-84.277 711.578,-87.9738"/>
<polygon fill="midnightblue" stroke="midnightblue" points="666.947,-73.0777 656.394,-74.0192 665.231,-79.8641 666.947,-73.0777"/>
</g>
<!-- Node6 -->
<g id="node6" class="node"><title>Node6</title>
<g id="a_node6"><a xlink:href="../../d1/dbf/classview_package_1_1_view.html#a1d1a8e16ae622c0d6a66cd9c516672a6" target="_top" xlink:title="viewPackage.View.setPlay\lAction">
<polygon fill="white" stroke="black" points="882,-44 882,-74 1020,-74 1020,-44 882,-44"/>
<text text-anchor="start" x="890" y="-62" font-family="Helvetica,sans-Serif" font-size="10.00">viewPackage.View.setPlay</text>
<text text-anchor="middle" x="951" y="-51" font-family="Helvetica,sans-Serif" font-size="10.00">Action</text>
</a>
</g>
</g>
<!-- Node4&#45;&gt;Node6 -->
<g id="edge9" class="edge"><title>Node4&#45;&gt;Node6</title>
<path fill="none" stroke="midnightblue" d="M672.291,-59C734.428,-59 821.844,-59 881.914,-59"/>
<polygon fill="midnightblue" stroke="midnightblue" points="672.157,-55.5001 662.157,-59 672.157,-62.5001 672.157,-55.5001"/>
</g>
<!-- Node5&#45;&gt;Node6 -->
<g id="edge5" class="edge"><title>Node5&#45;&gt;Node6</title>
<path fill="none" stroke="midnightblue" d="M843.339,-85.5145C858.633,-81.7127 874.683,-77.723 889.554,-74.0262"/>
<polygon fill="midnightblue" stroke="midnightblue" points="842.279,-82.1716 833.418,-87.9808 843.967,-88.9649 842.279,-82.1716"/>
</g>
<!-- Node7 -->
<g id="node7" class="node"><title>Node7</title>
<g id="a_node7"><a xlink:href="../../dc/d2c/classview_package_1_1_button_box.html#a9756fc46a96c169ce48a1867bd2c82f5" target="_top" xlink:title="viewPackage.ButtonBox.make\lButtonBox">
<polygon fill="white" stroke="black" points="1056,-22 1056,-52 1216,-52 1216,-22 1056,-22"/>
<text text-anchor="start" x="1064" y="-40" font-family="Helvetica,sans-Serif" font-size="10.00">viewPackage.ButtonBox.make</text>
<text text-anchor="middle" x="1136" y="-29" font-family="Helvetica,sans-Serif" font-size="10.00">ButtonBox</text>
</a>
</g>
</g>
<!-- Node6&#45;&gt;Node7 -->
<g id="edge6" class="edge"><title>Node6&#45;&gt;Node7</title>
<path fill="none" stroke="midnightblue" d="M1030.3,-49.5865C1038.71,-48.5757 1047.27,-47.5467 1055.69,-46.5346"/>
<polygon fill="midnightblue" stroke="midnightblue" points="1029.65,-46.1394 1020.14,-50.808 1030.49,-53.0893 1029.65,-46.1394"/>
</g>
<!-- Node8 -->
<g id="node8" class="node"><title>Node8</title>
<g id="a_node8"><a xlink:href="../../d1/dbf/classview_package_1_1_view.html#af6f6887ef253ae0fba2634e367b95312" target="_top" xlink:title="viewPackage.View.initialize">
<polygon fill="white" stroke="black" points="1252,-27.5 1252,-46.5 1394,-46.5 1394,-27.5 1252,-27.5"/>
<text text-anchor="middle" x="1323" y="-34.5" font-family="Helvetica,sans-Serif" font-size="10.00">viewPackage.View.initialize</text>
</a>
</g>
</g>
<!-- Node7&#45;&gt;Node8 -->
<g id="edge7" class="edge"><title>Node7&#45;&gt;Node8</title>
<path fill="none" stroke="midnightblue" d="M1226.33,-37C1234.93,-37 1243.57,-37 1251.95,-37"/>
<polygon fill="midnightblue" stroke="midnightblue" points="1226.26,-33.5001 1216.26,-37 1226.26,-40.5001 1226.26,-33.5001"/>
</g>
<!-- Node9 -->
<g id="node9" class="node"><title>Node9</title>
<g id="a_node9"><a xlink:href="../../d9/df7/classcontroller_1_1_controller.html#a4dbfef3e3e30bd1bb84df7a6b24ad1e7" target="_top" xlink:title="controller.Controller.Controller">
<polygon fill="white" stroke="black" points="1430.5,-27.5 1430.5,-46.5 1589.5,-46.5 1589.5,-27.5 1430.5,-27.5"/>
<text text-anchor="middle" x="1510" y="-34.5" font-family="Helvetica,sans-Serif" font-size="10.00">controller.Controller.Controller</text>
</a>
</g>
</g>
<!-- Node8&#45;&gt;Node9 -->
<g id="edge8" class="edge"><title>Node8&#45;&gt;Node9</title>
<path fill="none" stroke="midnightblue" d="M1404.31,-37C1413,-37 1421.83,-37 1430.49,-37"/>
<polygon fill="midnightblue" stroke="midnightblue" points="1404.2,-33.5001 1394.2,-37 1404.2,-40.5001 1404.2,-33.5001"/>
</g>
<!-- Node10&#45;&gt;Node7 -->
<g id="edge11" class="edge"><title>Node10&#45;&gt;Node7</title>
<path fill="none" stroke="midnightblue" d="M853.047,-19.8647C913.428,-23.5343 995.847,-28.5432 1055.98,-32.1975"/>
<polygon fill="midnightblue" stroke="midnightblue" points="852.991,-16.355 842.797,-19.2418 852.566,-23.3421 852.991,-16.355"/>
</g>
</g>
</svg>
