<?xml version="1.0" encoding="UTF-8" standalone="no"?>
<!DOCTYPE svg PUBLIC "-//W3C//DTD SVG 1.1//EN"
 "http://www.w3.org/Graphics/SVG/1.1/DTD/svg11.dtd">
<!-- Generated by graphviz version 2.36.0 (20140111.2315)
 -->
<!-- Title: viewPackage.TriangularGridView.initialEmptyGrid Pages: 1 -->
<svg width="364pt" height="214pt"
 viewBox="0.00 0.00 364.00 214.00" xmlns="http://www.w3.org/2000/svg" xmlns:xlink="http://www.w3.org/1999/xlink">
<g id="graph0" class="graph" transform="scale(1 1) rotate(0) translate(4 210)">
<title>viewPackage.TriangularGridView.initialEmptyGrid</title>
<polygon fill="white" stroke="none" points="-4,4 -4,-210 360,-210 360,4 -4,4"/>
<!-- Node1 -->
<g id="node1" class="node"><title>Node1</title>
<polygon fill="#bfbfbf" stroke="black" points="0.5,-88 0.5,-118 145.5,-118 145.5,-88 0.5,-88"/>
<text text-anchor="start" x="8.5" y="-106" font-family="Helvetica,sans-Serif" font-size="10.00">viewPackage.TriangularGrid</text>
<text text-anchor="middle" x="73" y="-95" font-family="Helvetica,sans-Serif" font-size="10.00">View.initialEmptyGrid</text>
</g>
<!-- Node2 -->
<g id="node2" class="node"><title>Node2</title>
<g id="a_node2"><a xlink:href="../../d1/dbf/classview_package_1_1_view.html#aec9d25091987c1259ada51e121b5680a" target="_top" xlink:title="viewPackage.View.addToRoot">
<polygon fill="white" stroke="black" points="193,-186.5 193,-205.5 345,-205.5 345,-186.5 193,-186.5"/>
<text text-anchor="middle" x="269" y="-193.5" font-family="Helvetica,sans-Serif" font-size="10.00">viewPackage.View.addToRoot</text>
</a>
</g>
</g>
<!-- Node1&#45;&gt;Node2 -->
<g id="edge1" class="edge"><title>Node1&#45;&gt;Node2</title>
<path fill="none" stroke="midnightblue" d="M91.8922,-118.153C112.378,-134.741 147.567,-160.975 182,-176 188.838,-178.984 196.185,-181.556 203.6,-183.765"/>
<polygon fill="midnightblue" stroke="midnightblue" points="202.778,-187.169 213.349,-186.464 204.645,-180.423 202.778,-187.169"/>
</g>
<!-- Node3 -->
<g id="node3" class="node"><title>Node3</title>
<g id="a_node3"><a xlink:href="../../d6/dde/classview_package_1_1_triangular_grid_view.html#a9dd84b4958220fb4820afe2787cb44aa" target="_top" xlink:title="viewPackage.TriangularGrid\lView.drawEvenTriangle">
<polygon fill="white" stroke="black" points="196.5,-137 196.5,-167 341.5,-167 341.5,-137 196.5,-137"/>
<text text-anchor="start" x="204.5" y="-155" font-family="Helvetica,sans-Serif" font-size="10.00">viewPackage.TriangularGrid</text>
<text text-anchor="middle" x="269" y="-144" font-family="Helvetica,sans-Serif" font-size="10.00">View.drawEvenTriangle</text>
</a>
</g>
</g>
<!-- Node1&#45;&gt;Node3 -->
<g id="edge2" class="edge"><title>Node1&#45;&gt;Node3</title>
<path fill="none" stroke="midnightblue" d="M133.525,-118.035C154.102,-123.232 177.337,-129.101 198.634,-134.48"/>
<polygon fill="midnightblue" stroke="midnightblue" points="198.035,-137.938 208.588,-136.994 199.749,-131.151 198.035,-137.938"/>
</g>
<!-- Node4 -->
<g id="node4" class="node"><title>Node4</title>
<g id="a_node4"><a xlink:href="../../d6/dde/classview_package_1_1_triangular_grid_view.html#a360d12b23a08792692a523ce7911f544" target="_top" xlink:title="viewPackage.TriangularGrid\lView.drawOddTriangle">
<polygon fill="white" stroke="black" points="196.5,-88 196.5,-118 341.5,-118 341.5,-88 196.5,-88"/>
<text text-anchor="start" x="204.5" y="-106" font-family="Helvetica,sans-Serif" font-size="10.00">viewPackage.TriangularGrid</text>
<text text-anchor="middle" x="269" y="-95" font-family="Helvetica,sans-Serif" font-size="10.00">View.drawOddTriangle</text>
</a>
</g>
</g>
<!-- Node1&#45;&gt;Node4 -->
<g id="edge3" class="edge"><title>Node1&#45;&gt;Node4</title>
<path fill="none" stroke="midnightblue" d="M145.687,-103C158.847,-103 172.675,-103 186.107,-103"/>
<polygon fill="midnightblue" stroke="midnightblue" points="186.284,-106.5 196.284,-103 186.284,-99.5001 186.284,-106.5"/>
</g>
<!-- Node5 -->
<g id="node5" class="node"><title>Node5</title>
<g id="a_node5"><a xlink:href="../../df/dcf/classview_package_1_1_display_grid.html#a097c515d1afff2b98764e2dfa1b4562a" target="_top" xlink:title="viewPackage.DisplayGrid.getView">
<polygon fill="white" stroke="black" points="182,-49.5 182,-68.5 356,-68.5 356,-49.5 182,-49.5"/>
<text text-anchor="middle" x="269" y="-56.5" font-family="Helvetica,sans-Serif" font-size="10.00">viewPackage.DisplayGrid.getView</text>
</a>
</g>
</g>
<!-- Node1&#45;&gt;Node5 -->
<g id="edge4" class="edge"><title>Node1&#45;&gt;Node5</title>
<path fill="none" stroke="midnightblue" d="M140.221,-87.9808C164.986,-82.364 192.737,-76.07 216.033,-70.7863"/>
<polygon fill="midnightblue" stroke="midnightblue" points="217.081,-74.1377 226.059,-68.5124 215.532,-67.311 217.081,-74.1377"/>
</g>
<!-- Node6 -->
<g id="node6" class="node"><title>Node6</title>
<g id="a_node6"><a xlink:href="../../df/dcf/classview_package_1_1_display_grid.html#aa1467f245293c26d8dd0132f03e1b414" target="_top" xlink:title="viewPackage.DisplayGrid.set\lShape">
<polygon fill="white" stroke="black" points="193,-0 193,-30 345,-30 345,-0 193,-0"/>
<text text-anchor="start" x="201" y="-18" font-family="Helvetica,sans-Serif" font-size="10.00">viewPackage.DisplayGrid.set</text>
<text text-anchor="middle" x="269" y="-7" font-family="Helvetica,sans-Serif" font-size="10.00">Shape</text>
</a>
</g>
</g>
<!-- Node1&#45;&gt;Node6 -->
<g id="edge5" class="edge"><title>Node1&#45;&gt;Node6</title>
<path fill="none" stroke="midnightblue" d="M96.3197,-87.7858C117.585,-73.83 150.883,-53.3578 182,-40 187.492,-37.6425 193.273,-35.4293 199.134,-33.3703"/>
<polygon fill="midnightblue" stroke="midnightblue" points="200.664,-36.5488 209.033,-30.0523 198.439,-29.9116 200.664,-36.5488"/>
</g>
</g>
</svg>
