<?xml version="1.0" encoding="UTF-8" standalone="no"?>
<!DOCTYPE svg PUBLIC "-//W3C//DTD SVG 1.1//EN"
 "http://www.w3.org/Graphics/SVG/1.1/DTD/svg11.dtd">
<!-- Generated by graphviz version 2.36.0 (20140111.2315)
 -->
<!-- Title: model.GameLifeSimulation.calculateNewCellState Pages: 1 -->
<svg width="412pt" height="142pt"
 viewBox="0.00 0.00 412.00 142.00" xmlns="http://www.w3.org/2000/svg" xmlns:xlink="http://www.w3.org/1999/xlink">
<g id="graph0" class="graph" transform="scale(1 1) rotate(0) translate(4 138)">
<title>model.GameLifeSimulation.calculateNewCellState</title>
<polygon fill="white" stroke="none" points="-4,4 -4,-138 408,-138 408,4 -4,4"/>
<!-- Node1 -->
<g id="node1" class="node"><title>Node1</title>
<polygon fill="#bfbfbf" stroke="black" points="0,-52 0,-82 192,-82 192,-52 0,-52"/>
<text text-anchor="start" x="8" y="-70" font-family="Helvetica,sans-Serif" font-size="10.00">model.GameLifeSimulation.calculate</text>
<text text-anchor="middle" x="96" y="-59" font-family="Helvetica,sans-Serif" font-size="10.00">NewCellState</text>
</g>
<!-- Node2 -->
<g id="node2" class="node"><title>Node2</title>
<g id="a_node2"><a xlink:href="../../dc/d8f/classmodel_1_1_grid.html#af78a30e4a758cd489fd0d4291ca693c5" target="_top" xlink:title="model.Grid.getAllNeighbors">
<polygon fill="white" stroke="black" points="242,-114.5 242,-133.5 390,-133.5 390,-114.5 242,-114.5"/>
<text text-anchor="middle" x="316" y="-121.5" font-family="Helvetica,sans-Serif" font-size="10.00">model.Grid.getAllNeighbors</text>
</a>
</g>
</g>
<!-- Node1&#45;&gt;Node2 -->
<g id="edge1" class="edge"><title>Node1&#45;&gt;Node2</title>
<path fill="none" stroke="midnightblue" d="M145.93,-82.0418C170.46,-89.3658 200.687,-98.0645 228,-105 237.777,-107.483 248.223,-109.934 258.36,-112.209"/>
<polygon fill="midnightblue" stroke="midnightblue" points="257.839,-115.678 268.359,-114.42 259.35,-108.843 257.839,-115.678"/>
</g>
<!-- Node3 -->
<g id="node3" class="node"><title>Node3</title>
<g id="a_node3"><a xlink:href="../../dc/d8f/classmodel_1_1_grid.html#a7308e05b94f35a2f8198f314eb384267" target="_top" xlink:title="model.Grid.getCell">
<polygon fill="white" stroke="black" points="263.5,-76.5 263.5,-95.5 368.5,-95.5 368.5,-76.5 263.5,-76.5"/>
<text text-anchor="middle" x="316" y="-83.5" font-family="Helvetica,sans-Serif" font-size="10.00">model.Grid.getCell</text>
</a>
</g>
</g>
<!-- Node1&#45;&gt;Node3 -->
<g id="edge2" class="edge"><title>Node1&#45;&gt;Node3</title>
<path fill="none" stroke="midnightblue" d="M192.301,-75.306C212.987,-77.1089 234.341,-78.9701 253.321,-80.6243"/>
<polygon fill="midnightblue" stroke="midnightblue" points="253.04,-84.113 263.306,-81.4946 253.648,-77.1394 253.04,-84.113"/>
</g>
<!-- Node4 -->
<g id="node4" class="node"><title>Node4</title>
<g id="a_node4"><a xlink:href="../../d2/d17/classmodel_1_1_simulation.html#a8e66f9dff5f29f97efb58d49193e0e1f" target="_top" xlink:title="model.Simulation.getCurrentGrid">
<polygon fill="white" stroke="black" points="228.5,-38.5 228.5,-57.5 403.5,-57.5 403.5,-38.5 228.5,-38.5"/>
<text text-anchor="middle" x="316" y="-45.5" font-family="Helvetica,sans-Serif" font-size="10.00">model.Simulation.getCurrentGrid</text>
</a>
</g>
</g>
<!-- Node1&#45;&gt;Node4 -->
<g id="edge3" class="edge"><title>Node1&#45;&gt;Node4</title>
<path fill="none" stroke="midnightblue" d="M192.301,-58.694C200.947,-57.9404 209.711,-57.1766 218.369,-56.422"/>
<polygon fill="midnightblue" stroke="midnightblue" points="218.812,-59.8967 228.471,-55.5416 218.204,-52.9231 218.812,-59.8967"/>
</g>
<!-- Node5 -->
<g id="node5" class="node"><title>Node5</title>
<g id="a_node5"><a xlink:href="../../d3/d57/classmodel_1_1_cell.html#af3d3f6f007030f25fb677f0f2f01510b" target="_top" xlink:title="model.Cell.getState">
<polygon fill="white" stroke="black" points="260,-0.5 260,-19.5 372,-19.5 372,-0.5 260,-0.5"/>
<text text-anchor="middle" x="316" y="-7.5" font-family="Helvetica,sans-Serif" font-size="10.00">model.Cell.getState</text>
</a>
</g>
</g>
<!-- Node1&#45;&gt;Node5 -->
<g id="edge4" class="edge"><title>Node1&#45;&gt;Node5</title>
<path fill="none" stroke="midnightblue" d="M145.93,-51.9582C170.46,-44.6342 200.687,-35.9355 228,-29 237.777,-26.5172 248.223,-24.0658 258.36,-21.7909"/>
<polygon fill="midnightblue" stroke="midnightblue" points="259.35,-25.1566 268.359,-19.5803 257.839,-18.3217 259.35,-25.1566"/>
</g>
</g>
</svg>
