<?xml version="1.0" encoding="UTF-8" standalone="no"?>
<!DOCTYPE svg PUBLIC "-//W3C//DTD SVG 1.1//EN"
 "http://www.w3.org/Graphics/SVG/1.1/DTD/svg11.dtd">
<!-- Generated by graphviz version 2.36.0 (20140111.2315)
 -->
<!-- Title: model.WatorSimulation.makeNextGrid Pages: 1 -->
<!--zoomable 927 -->
<svg id="main" version="1.1" xmlns="http://www.w3.org/2000/svg" xmlns:xlink="http://www.w3.org/1999/xlink" xml:space="preserve" onload="init(evt)">
<style type="text/css"><![CDATA[
.edge:hover path { stroke: red; }
.edge:hover polygon { stroke: red; fill: red; }
]]></style>
<script type="text/javascript"><![CDATA[
var edges = document.getElementsByTagName('g');
if (edges && edges.length) {
  for (var i=0;i<edges.length;i++) {
    if (edges[i].id.substr(0,4)=='edge') {
      edges[i].setAttribute('class','edge');
    }
  }
}
]]></script>
        <defs>
                <circle id="rim" cx="0" cy="0" r="7"/>
                <circle id="rim2" cx="0" cy="0" r="3.5"/>
                <g id="zoomPlus">
                        <use xlink:href="#rim" fill="#404040">
                                <set attributeName="fill" to="#808080" begin="zoomplus.mouseover" end="zoomplus.mouseout"/>
                        </use>
                        <path d="M-4,0h8M0,-4v8" fill="none" stroke="white" stroke-width="1.5" pointer-events="none"/>
                </g>
                <g id="zoomMin">
                        <use xlink:href="#rim" fill="#404040">
                                <set attributeName="fill" to="#808080" begin="zoomminus.mouseover" end="zoomminus.mouseout"/>
                        </use>
                        <path d="M-4,0h8" fill="none" stroke="white" stroke-width="1.5" pointer-events="none"/>
                </g>
                <g id="dirArrow">
                        <path fill="none" stroke="white" stroke-width="1.5" d="M0,-3.0v7 M-2.5,-0.5L0,-3.0L2.5,-0.5"/>
                </g>
               <g id="resetDef">
                       <use xlink:href="#rim2" fill="#404040">
                               <set attributeName="fill" to="#808080" begin="reset.mouseover" end="reset.mouseout"/>
                       </use>
               </g>
        </defs>

<script type="text/javascript">
var viewWidth = 1186;
var viewHeight = 927;
var sectionId = 'dynsection-12';
</script>
<script xlink:href="../../svgpan.js"/>
<svg id="graph" class="graph">
<g id="viewport">
<title>model.WatorSimulation.makeNextGrid</title>
<polygon fill="white" stroke="none" points="-4,4 -4,-923.271 1182,-923.271 1182,4 -4,4"/>
<!-- Node1 -->
<g id="node1" class="node"><title>Node1</title>
<polygon fill="#bfbfbf" stroke="black" points="0,-309 0,-339 158,-339 158,-309 0,-309"/>
<text text-anchor="start" x="8" y="-327" font-family="Helvetica,sans-Serif" font-size="10.00">model.WatorSimulation.make</text>
<text text-anchor="middle" x="79" y="-316" font-family="Helvetica,sans-Serif" font-size="10.00">NextGrid</text>
</g>
<!-- Node2 -->
<g id="node2" class="node"><title>Node2</title>
<g id="a_node2"><a xlink:href="../../db/ddc/classmodel_1_1_wator_simulation.html#a1d9c45bb58d3edd46f9cba1d3b479d82" target="_top" xlink:title="model.WatorSimulation.fish\lAction">
<polygon fill="white" stroke="black" points="201.5,-405 201.5,-435 348.5,-435 348.5,-405 201.5,-405"/>
<text text-anchor="start" x="209.5" y="-423" font-family="Helvetica,sans-Serif" font-size="10.00">model.WatorSimulation.fish</text>
<text text-anchor="middle" x="275" y="-412" font-family="Helvetica,sans-Serif" font-size="10.00">Action</text>
</a>
</g>
</g>
<!-- Node1&#45;&gt;Node2 -->
<g id="edge1" class="edge"><title>Node1&#45;&gt;Node2</title>
<path fill="none" stroke="midnightblue" d="M110.74,-339.211C144.086,-355.713 197.445,-382.117 234.025,-400.219"/>
<polygon fill="midnightblue" stroke="midnightblue" points="232.889,-403.561 243.404,-404.86 235.994,-397.288 232.889,-403.561"/>
</g>
<!-- Node4 -->
<g id="node4" class="node"><title>Node4</title>
<g id="a_node4"><a xlink:href="../../d2/d17/classmodel_1_1_simulation.html#a8e66f9dff5f29f97efb58d49193e0e1f" target="_top" xlink:title="model.Simulation.getCurrentGrid">
<polygon fill="white" stroke="black" points="1002.5,-110.5 1002.5,-129.5 1177.5,-129.5 1177.5,-110.5 1002.5,-110.5"/>
<text text-anchor="middle" x="1090" y="-117.5" font-family="Helvetica,sans-Serif" font-size="10.00">model.Simulation.getCurrentGrid</text>
</a>
</g>
</g>
<!-- Node1&#45;&gt;Node4 -->
<g id="edge35" class="edge"><title>Node1&#45;&gt;Node4</title>
<path fill="none" stroke="midnightblue" d="M86.2562,-308.848C100.885,-274.857 140.205,-191.329 194,-138 291.397,-41.4458 332.854,-0 470,-0 470,-0 470,-0 668,-0 802.082,-0 839.866,-1.52455 966,-47 1004.73,-60.9651 1044.89,-87.4658 1068.38,-104.404"/>
<polygon fill="midnightblue" stroke="midnightblue" points="1066.4,-107.288 1076.53,-110.381 1070.54,-101.644 1066.4,-107.288"/>
</g>
<!-- Node5 -->
<g id="node5" class="node"><title>Node5</title>
<g id="a_node5"><a xlink:href="../../d2/d17/classmodel_1_1_simulation.html#a0252922993a1cbfd2a23f05f834df1fc" target="_top" xlink:title="model.Simulation.getNextGrid">
<polygon fill="white" stroke="black" points="1009.5,-499.5 1009.5,-518.5 1170.5,-518.5 1170.5,-499.5 1009.5,-499.5"/>
<text text-anchor="middle" x="1090" y="-506.5" font-family="Helvetica,sans-Serif" font-size="10.00">model.Simulation.getNextGrid</text>
</a>
</g>
</g>
<!-- Node1&#45;&gt;Node5 -->
<g id="edge39" class="edge"><title>Node1&#45;&gt;Node5</title>
<path fill="none" stroke="midnightblue" d="M84.9857,-339.052C111.236,-415.159 240.968,-754 470,-754 470,-754 470,-754 668,-754 801.461,-754 854.407,-790.205 966,-717 992.322,-699.733 985.983,-683.101 1002,-656 1029.4,-609.64 1061.7,-555.085 1078.17,-527.288"/>
<polygon fill="midnightblue" stroke="midnightblue" points="1081.21,-529.017 1083.3,-518.629 1075.19,-525.449 1081.21,-529.017"/>
</g>
<!-- Node19 -->
<g id="node19" class="node"><title>Node19</title>
<g id="a_node19"><a xlink:href="../../dc/d8f/classmodel_1_1_grid.html#a58bacc5c1bb1e3db7647ee8730bf57ce" target="_top" xlink:title="model.Grid.getLocationsWith\lState">
<polygon fill="white" stroke="black" points="198,-186 198,-216 352,-216 352,-186 198,-186"/>
<text text-anchor="start" x="206" y="-204" font-family="Helvetica,sans-Serif" font-size="10.00">model.Grid.getLocationsWith</text>
<text text-anchor="middle" x="275" y="-193" font-family="Helvetica,sans-Serif" font-size="10.00">State</text>
</a>
</g>
</g>
<!-- Node1&#45;&gt;Node19 -->
<g id="edge36" class="edge"><title>Node1&#45;&gt;Node19</title>
<path fill="none" stroke="midnightblue" d="M103.788,-308.918C138.352,-287.003 202.567,-246.29 241.479,-221.619"/>
<polygon fill="midnightblue" stroke="midnightblue" points="243.75,-224.324 250.321,-216.013 240.001,-218.412 243.75,-224.324"/>
</g>
<!-- Node21 -->
<g id="node21" class="node"><title>Node21</title>
<g id="a_node21"><a xlink:href="../../dc/d8f/classmodel_1_1_grid.html#a2a1dabe5f40f45e1018d5fce56ae29bc" target="_top" xlink:title="model.Grid.print">
<polygon fill="white" stroke="black" points="228,-858.5 228,-877.5 322,-877.5 322,-858.5 228,-858.5"/>
<text text-anchor="middle" x="275" y="-865.5" font-family="Helvetica,sans-Serif" font-size="10.00">model.Grid.print</text>
</a>
</g>
</g>
<!-- Node1&#45;&gt;Node21 -->
<g id="edge40" class="edge"><title>Node1&#45;&gt;Node21</title>
<path fill="none" stroke="midnightblue" d="M81.5772,-339.371C88.0687,-397.994 116.152,-612.064 194,-768 210.336,-800.722 238.71,-832.682 256.906,-851.348"/>
<polygon fill="midnightblue" stroke="midnightblue" points="254.483,-853.875 264.017,-858.497 259.447,-848.939 254.483,-853.875"/>
</g>
<!-- Node23 -->
<g id="node23" class="node"><title>Node23</title>
<g id="a_node23"><a xlink:href="../../d2/d17/classmodel_1_1_simulation.html#a5e3a13c204e66d77ac64d3bb1d0b36e1" target="_top" xlink:title="model.Simulation.setNextGrid">
<polygon fill="white" stroke="black" points="194.5,-147.5 194.5,-166.5 355.5,-166.5 355.5,-147.5 194.5,-147.5"/>
<text text-anchor="middle" x="275" y="-154.5" font-family="Helvetica,sans-Serif" font-size="10.00">model.Simulation.setNextGrid</text>
</a>
</g>
</g>
<!-- Node1&#45;&gt;Node23 -->
<g id="edge43" class="edge"><title>Node1&#45;&gt;Node23</title>
<path fill="none" stroke="midnightblue" d="M87.2861,-308.643C102.543,-278.233 140.885,-210.332 194,-176 197.185,-173.942 200.57,-172.106 204.079,-170.469"/>
<polygon fill="midnightblue" stroke="midnightblue" points="205.67,-173.6 213.608,-166.582 203.026,-167.118 205.67,-173.6"/>
</g>
<!-- Node24 -->
<g id="node24" class="node"><title>Node24</title>
<g id="a_node24"><a xlink:href="../../db/ddc/classmodel_1_1_wator_simulation.html#a2205211b8ee8357a4687fce7bb25123a" target="_top" xlink:title="model.WatorSimulation.shark\lAction">
<polygon fill="white" stroke="black" points="196.5,-309 196.5,-339 353.5,-339 353.5,-309 196.5,-309"/>
<text text-anchor="start" x="204.5" y="-327" font-family="Helvetica,sans-Serif" font-size="10.00">model.WatorSimulation.shark</text>
<text text-anchor="middle" x="275" y="-316" font-family="Helvetica,sans-Serif" font-size="10.00">Action</text>
</a>
</g>
</g>
<!-- Node1&#45;&gt;Node24 -->
<g id="edge44" class="edge"><title>Node1&#45;&gt;Node24</title>
<path fill="none" stroke="midnightblue" d="M158.069,-324C167.347,-324 176.866,-324 186.268,-324"/>
<polygon fill="midnightblue" stroke="midnightblue" points="186.407,-327.5 196.407,-324 186.407,-320.5 186.407,-327.5"/>
</g>
<!-- Node3 -->
<g id="node3" class="node"><title>Node3</title>
<g id="a_node3"><a xlink:href="../../dc/d8f/classmodel_1_1_grid.html#a7308e05b94f35a2f8198f314eb384267" target="_top" xlink:title="model.Grid.getCell">
<polygon fill="white" stroke="black" points="1037.5,-274.5 1037.5,-293.5 1142.5,-293.5 1142.5,-274.5 1037.5,-274.5"/>
<text text-anchor="middle" x="1090" y="-281.5" font-family="Helvetica,sans-Serif" font-size="10.00">model.Grid.getCell</text>
</a>
</g>
</g>
<!-- Node2&#45;&gt;Node3 -->
<g id="edge2" class="edge"><title>Node2&#45;&gt;Node3</title>
<path fill="none" stroke="midnightblue" d="M348.548,-424.913C448.52,-427.86 629.673,-419.017 748,-330 776.273,-308.73 753.852,-277.516 784,-259 871.519,-205.249 1000.78,-246.933 1058.84,-270.569"/>
<polygon fill="midnightblue" stroke="midnightblue" points="1057.6,-273.845 1068.18,-274.468 1060.3,-267.386 1057.6,-273.845"/>
</g>
<!-- Node2&#45;&gt;Node4 -->
<g id="edge3" class="edge"><title>Node2&#45;&gt;Node4</title>
<path fill="none" stroke="midnightblue" d="M296.206,-404.854C376.395,-345.101 673.212,-127.407 784,-95 876.069,-68.0688 989.985,-91.5622 1049.13,-107.749"/>
<polygon fill="midnightblue" stroke="midnightblue" points="1048.26,-111.139 1058.83,-110.473 1050.15,-104.4 1048.26,-111.139"/>
</g>
<!-- Node2&#45;&gt;Node5 -->
<g id="edge4" class="edge"><title>Node2&#45;&gt;Node5</title>
<path fill="none" stroke="midnightblue" d="M276.968,-435.005C280.955,-482.755 300.551,-631.582 392,-692 445.213,-727.156 909.712,-721.988 966,-692 1000.09,-673.837 1056.88,-570.575 1079.39,-527.68"/>
<polygon fill="midnightblue" stroke="midnightblue" points="1082.6,-529.089 1084.11,-518.603 1076.39,-525.858 1082.6,-529.089"/>
</g>
<!-- Node6 -->
<g id="node6" class="node"><title>Node6</title>
<g id="a_node6"><a xlink:href="../../d3/d57/classmodel_1_1_cell.html#a21f51d50e471c093ccba82f974f30032" target="_top" xlink:title="model.Cell.getProperties">
<polygon fill="white" stroke="black" points="1023,-665.5 1023,-684.5 1157,-684.5 1157,-665.5 1023,-665.5"/>
<text text-anchor="middle" x="1090" y="-672.5" font-family="Helvetica,sans-Serif" font-size="10.00">model.Cell.getProperties</text>
</a>
</g>
</g>
<!-- Node2&#45;&gt;Node6 -->
<g id="edge5" class="edge"><title>Node2&#45;&gt;Node6</title>
<path fill="none" stroke="midnightblue" d="M278.165,-435.268C287.838,-501.098 329.393,-759.441 392,-806 443.178,-844.059 907.469,-831.331 966,-806 1019.48,-782.856 1060.4,-723.746 1078.62,-693.475"/>
<polygon fill="midnightblue" stroke="midnightblue" points="1081.7,-695.141 1083.72,-684.742 1075.65,-691.609 1081.7,-695.141"/>
</g>
<!-- Node7 -->
<g id="node7" class="node"><title>Node7</title>
<g id="a_node7"><a xlink:href="../../db/ddc/classmodel_1_1_wator_simulation.html#ab1a02dcfc6d897735f1b90c728668aee" target="_top" xlink:title="model.WatorSimulation.move\lIfEmptyAndCheckBaby">
<polygon fill="white" stroke="black" points="392,-472 392,-502 550,-502 550,-472 392,-472"/>
<text text-anchor="start" x="400" y="-490" font-family="Helvetica,sans-Serif" font-size="10.00">model.WatorSimulation.move</text>
<text text-anchor="middle" x="471" y="-479" font-family="Helvetica,sans-Serif" font-size="10.00">IfEmptyAndCheckBaby</text>
</a>
</g>
</g>
<!-- Node2&#45;&gt;Node7 -->
<g id="edge6" class="edge"><title>Node2&#45;&gt;Node7</title>
<path fill="none" stroke="midnightblue" d="M319.537,-435.036C348.267,-444.958 386.095,-458.023 416.634,-468.57"/>
<polygon fill="midnightblue" stroke="midnightblue" points="415.678,-471.942 426.273,-471.898 417.963,-465.326 415.678,-471.942"/>
</g>
<!-- Node7&#45;&gt;Node5 -->
<g id="edge7" class="edge"><title>Node7&#45;&gt;Node5</title>
<path fill="none" stroke="midnightblue" d="M538.675,-502.004C542.571,-503.522 546.376,-505.184 550,-507 568.368,-516.205 567.528,-527.004 586,-536 738.948,-610.486 801.943,-627.018 966,-582 1006.34,-570.929 1046.86,-542.813 1069.85,-524.882"/>
<polygon fill="midnightblue" stroke="midnightblue" points="1072.13,-527.538 1077.76,-518.565 1067.76,-522.067 1072.13,-527.538"/>
</g>
<!-- Node8 -->
<g id="node8" class="node"><title>Node8</title>
<g id="a_node8"><a xlink:href="../../dc/d8f/classmodel_1_1_grid.html#a7c79270cb5329121d7e66fa3178bc969" target="_top" xlink:title="model.Grid.getDirectLocations\lWithType">
<polygon fill="white" stroke="black" points="586,-619 586,-649 748,-649 748,-619 586,-619"/>
<text text-anchor="start" x="594" y="-637" font-family="Helvetica,sans-Serif" font-size="10.00">model.Grid.getDirectLocations</text>
<text text-anchor="middle" x="667" y="-626" font-family="Helvetica,sans-Serif" font-size="10.00">WithType</text>
</a>
</g>
</g>
<!-- Node7&#45;&gt;Node8 -->
<g id="edge8" class="edge"><title>Node7&#45;&gt;Node8</title>
<path fill="none" stroke="midnightblue" d="M486.443,-502.171C515.797,-532.955 580.153,-600.181 586,-604 592.147,-608.015 598.909,-611.599 605.816,-614.769"/>
<polygon fill="midnightblue" stroke="midnightblue" points="604.713,-618.104 615.283,-618.835 607.476,-611.672 604.713,-618.104"/>
</g>
<!-- Node10 -->
<g id="node10" class="node"><title>Node10</title>
<g id="a_node10"><a xlink:href="../../db/ddc/classmodel_1_1_wator_simulation.html#af44e712c1655e6d268a32bbd1c4db7d9" target="_top" xlink:title="model.WatorSimulation.move\lAndCheckBaby">
<polygon fill="white" stroke="black" points="588,-417 588,-447 746,-447 746,-417 588,-417"/>
<text text-anchor="start" x="596" y="-435" font-family="Helvetica,sans-Serif" font-size="10.00">model.WatorSimulation.move</text>
<text text-anchor="middle" x="667" y="-424" font-family="Helvetica,sans-Serif" font-size="10.00">AndCheckBaby</text>
</a>
</g>
</g>
<!-- Node7&#45;&gt;Node10 -->
<g id="edge10" class="edge"><title>Node7&#45;&gt;Node10</title>
<path fill="none" stroke="midnightblue" d="M525.011,-471.971C549.177,-465.12 577.964,-456.959 603.207,-449.802"/>
<polygon fill="midnightblue" stroke="midnightblue" points="604.387,-453.106 613.053,-447.011 602.477,-446.371 604.387,-453.106"/>
</g>
<!-- Node18 -->
<g id="node18" class="node"><title>Node18</title>
<g id="a_node18"><a xlink:href="../../db/ddc/classmodel_1_1_wator_simulation.html#ad7ba22a6c88c4944182c8a5ba53366fb" target="_top" xlink:title="model.WatorSimulation.increase\lBreedingTime">
<polygon fill="white" stroke="black" points="789.5,-543 789.5,-573 960.5,-573 960.5,-543 789.5,-543"/>
<text text-anchor="start" x="797.5" y="-561" font-family="Helvetica,sans-Serif" font-size="10.00">model.WatorSimulation.increase</text>
<text text-anchor="middle" x="875" y="-550" font-family="Helvetica,sans-Serif" font-size="10.00">BreedingTime</text>
</a>
</g>
</g>
<!-- Node7&#45;&gt;Node18 -->
<g id="edge34" class="edge"><title>Node7&#45;&gt;Node18</title>
<path fill="none" stroke="midnightblue" d="M550.464,-500.858C616.017,-512.436 709.689,-528.98 779.385,-541.289"/>
<polygon fill="midnightblue" stroke="midnightblue" points="779.032,-544.781 789.488,-543.074 780.25,-537.888 779.032,-544.781"/>
</g>
<!-- Node9 -->
<g id="node9" class="node"><title>Node9</title>
<g id="a_node9"><a xlink:href="../../dc/d8f/classmodel_1_1_grid.html#a7fd07edd38cb4fbc123431255df70a84" target="_top" xlink:title="model.Grid.inBounds">
<polygon fill="white" stroke="black" points="817,-630.5 817,-649.5 933,-649.5 933,-630.5 817,-630.5"/>
<text text-anchor="middle" x="875" y="-637.5" font-family="Helvetica,sans-Serif" font-size="10.00">model.Grid.inBounds</text>
</a>
</g>
</g>
<!-- Node8&#45;&gt;Node9 -->
<g id="edge9" class="edge"><title>Node8&#45;&gt;Node9</title>
<path fill="none" stroke="midnightblue" d="M748.235,-636.337C767.585,-636.901 788.063,-637.497 806.749,-638.041"/>
<polygon fill="midnightblue" stroke="midnightblue" points="806.83,-641.545 816.927,-638.338 807.034,-634.548 806.83,-641.545"/>
</g>
<!-- Node10&#45;&gt;Node5 -->
<g id="edge15" class="edge"><title>Node10&#45;&gt;Node5</title>
<path fill="none" stroke="midnightblue" d="M746.223,-445.039C806.392,-455.217 891.559,-469.943 966,-484 988.274,-488.206 1012.76,-493.122 1033.97,-497.476"/>
<polygon fill="midnightblue" stroke="midnightblue" points="1033.29,-500.908 1043.79,-499.498 1034.7,-494.052 1033.29,-500.908"/>
</g>
<!-- Node11 -->
<g id="node11" class="node"><title>Node11</title>
<g id="a_node11"><a xlink:href="../../db/ddc/classmodel_1_1_wator_simulation.html#a35418540015ff541b0e3940d9df2f0d5" target="_top" xlink:title="model.WatorSimulation.can\lReproduce">
<polygon fill="white" stroke="black" points="801,-105 801,-135 949,-135 949,-105 801,-105"/>
<text text-anchor="start" x="809" y="-123" font-family="Helvetica,sans-Serif" font-size="10.00">model.WatorSimulation.can</text>
<text text-anchor="middle" x="875" y="-112" font-family="Helvetica,sans-Serif" font-size="10.00">Reproduce</text>
</a>
</g>
</g>
<!-- Node10&#45;&gt;Node11 -->
<g id="edge11" class="edge"><title>Node10&#45;&gt;Node11</title>
<path fill="none" stroke="midnightblue" d="M681.47,-416.806C698.239,-397.47 727.203,-362.648 748,-330 767.008,-300.16 766.361,-289.669 784,-259 807.952,-217.355 838.983,-170.85 857.646,-143.575"/>
<polygon fill="midnightblue" stroke="midnightblue" points="860.693,-145.321 863.472,-135.098 854.924,-141.356 860.693,-145.321"/>
</g>
<!-- Node13 -->
<g id="node13" class="node"><title>Node13</title>
<g id="a_node13"><a xlink:href="../../db/ddc/classmodel_1_1_wator_simulation.html#a53aa53cfee9794dff36ebb3292522d5a" target="_top" xlink:title="model.WatorSimulation.move\lCreature">
<polygon fill="white" stroke="black" points="796,-269 796,-299 954,-299 954,-269 796,-269"/>
<text text-anchor="start" x="804" y="-287" font-family="Helvetica,sans-Serif" font-size="10.00">model.WatorSimulation.move</text>
<text text-anchor="middle" x="875" y="-276" font-family="Helvetica,sans-Serif" font-size="10.00">Creature</text>
</a>
</g>
</g>
<!-- Node10&#45;&gt;Node13 -->
<g id="edge16" class="edge"><title>Node10&#45;&gt;Node13</title>
<path fill="none" stroke="midnightblue" d="M691.218,-416.794C708.262,-404.877 731.263,-387.151 748,-368 768.465,-344.584 759.158,-326.708 784,-308 785.837,-306.617 787.747,-305.313 789.717,-304.085"/>
<polygon fill="midnightblue" stroke="midnightblue" points="791.608,-307.04 798.695,-299.164 788.243,-300.901 791.608,-307.04"/>
</g>
<!-- Node16 -->
<g id="node16" class="node"><title>Node16</title>
<g id="a_node16"><a xlink:href="../../db/ddc/classmodel_1_1_wator_simulation.html#adf3e1ba2978971c732bd4db24d4acdfc" target="_top" xlink:title="model.WatorSimulation.makeBaby">
<polygon fill="white" stroke="black" points="784,-367.5 784,-386.5 966,-386.5 966,-367.5 784,-367.5"/>
<text text-anchor="middle" x="875" y="-374.5" font-family="Helvetica,sans-Serif" font-size="10.00">model.WatorSimulation.makeBaby</text>
</a>
</g>
</g>
<!-- Node10&#45;&gt;Node16 -->
<g id="edge22" class="edge"><title>Node10&#45;&gt;Node16</title>
<path fill="none" stroke="midnightblue" d="M713.17,-416.912C734.515,-410.058 760.43,-402.131 784,-396 793.955,-393.41 804.599,-390.921 814.954,-388.645"/>
<polygon fill="midnightblue" stroke="midnightblue" points="815.723,-392.06 824.761,-386.533 814.249,-385.217 815.723,-392.06"/>
</g>
<!-- Node17 -->
<g id="node17" class="node"><title>Node17</title>
<g id="a_node17"><a xlink:href="../../db/ddc/classmodel_1_1_wator_simulation.html#a5584ef42fda846a39a016ff060fd2322" target="_top" xlink:title="model.WatorSimulation.reset\lBreedTime">
<polygon fill="white" stroke="black" points="797.5,-494 797.5,-524 952.5,-524 952.5,-494 797.5,-494"/>
<text text-anchor="start" x="805.5" y="-512" font-family="Helvetica,sans-Serif" font-size="10.00">model.WatorSimulation.reset</text>
<text text-anchor="middle" x="875" y="-501" font-family="Helvetica,sans-Serif" font-size="10.00">BreedTime</text>
</a>
</g>
</g>
<!-- Node10&#45;&gt;Node17 -->
<g id="edge26" class="edge"><title>Node10&#45;&gt;Node17</title>
<path fill="none" stroke="midnightblue" d="M703.568,-447.091C726.408,-456.612 756.784,-468.962 784,-479 794.756,-482.967 806.318,-486.995 817.45,-490.757"/>
<polygon fill="midnightblue" stroke="midnightblue" points="816.499,-494.13 827.093,-493.987 818.722,-487.492 816.499,-494.13"/>
</g>
<!-- Node10&#45;&gt;Node18 -->
<g id="edge30" class="edge"><title>Node10&#45;&gt;Node18</title>
<path fill="none" stroke="midnightblue" d="M684.466,-447.059C713.726,-473.71 772.772,-526.958 784,-533 788.239,-535.281 792.706,-537.37 797.29,-539.279"/>
<polygon fill="midnightblue" stroke="midnightblue" points="796.239,-542.625 806.829,-542.952 798.754,-536.093 796.239,-542.625"/>
</g>
<!-- Node11&#45;&gt;Node3 -->
<g id="edge12" class="edge"><title>Node11&#45;&gt;Node3</title>
<path fill="none" stroke="midnightblue" d="M935.59,-135.098C946.161,-139.084 956.739,-143.999 966,-150 1014.81,-181.628 1057.05,-237.106 1076.91,-265.746"/>
<polygon fill="midnightblue" stroke="midnightblue" points="1074.25,-268.054 1082.77,-274.356 1080.04,-264.118 1074.25,-268.054"/>
</g>
<!-- Node11&#45;&gt;Node4 -->
<g id="edge13" class="edge"><title>Node11&#45;&gt;Node4</title>
<path fill="none" stroke="midnightblue" d="M949.005,-120C962.765,-120 977.357,-120 991.723,-120"/>
<polygon fill="midnightblue" stroke="midnightblue" points="992.128,-123.5 1002.13,-120 992.128,-116.5 992.128,-123.5"/>
</g>
<!-- Node12 -->
<g id="node12" class="node"><title>Node12</title>
<g id="a_node12"><a xlink:href="../../d3/d57/classmodel_1_1_cell.html#ae3edf2d4d7cc0314b5813d12dc8034f5" target="_top" xlink:title="model.Cell.getKey">
<polygon fill="white" stroke="black" points="1039,-12.5 1039,-31.5 1141,-31.5 1141,-12.5 1039,-12.5"/>
<text text-anchor="middle" x="1090" y="-19.5" font-family="Helvetica,sans-Serif" font-size="10.00">model.Cell.getKey</text>
</a>
</g>
</g>
<!-- Node11&#45;&gt;Node12 -->
<g id="edge14" class="edge"><title>Node11&#45;&gt;Node12</title>
<path fill="none" stroke="midnightblue" d="M908.814,-104.902C949.694,-86.0936 1018.99,-54.2134 1058.67,-35.9539"/>
<polygon fill="midnightblue" stroke="midnightblue" points="1060.47,-38.9807 1068.09,-31.6213 1057.54,-32.6215 1060.47,-38.9807"/>
</g>
<!-- Node13&#45;&gt;Node3 -->
<g id="edge20" class="edge"><title>Node13&#45;&gt;Node3</title>
<path fill="none" stroke="midnightblue" d="M954.104,-284C978.197,-284 1004.38,-284 1027.22,-284"/>
<polygon fill="midnightblue" stroke="midnightblue" points="1027.45,-287.5 1037.45,-284 1027.45,-280.5 1027.45,-287.5"/>
</g>
<!-- Node13&#45;&gt;Node4 -->
<g id="edge19" class="edge"><title>Node13&#45;&gt;Node4</title>
<path fill="none" stroke="midnightblue" d="M895.657,-268.865C935.943,-237.847 1027.53,-167.33 1068.51,-135.776"/>
<polygon fill="midnightblue" stroke="midnightblue" points="1070.66,-138.536 1076.45,-129.662 1066.39,-132.989 1070.66,-138.536"/>
</g>
<!-- Node13&#45;&gt;Node5 -->
<g id="edge17" class="edge"><title>Node13&#45;&gt;Node5</title>
<path fill="none" stroke="midnightblue" d="M953.127,-299.212C957.733,-301.715 962.079,-304.623 966,-308 996.465,-334.243 981.941,-356.151 1002,-391 1023.86,-428.974 1055.66,-469.236 1074.15,-491.536"/>
<polygon fill="midnightblue" stroke="midnightblue" points="1071.65,-494.002 1080.75,-499.42 1077.01,-489.507 1071.65,-494.002"/>
</g>
<!-- Node14 -->
<g id="node14" class="node"><title>Node14</title>
<g id="a_node14"><a xlink:href="../../dc/d8f/classmodel_1_1_grid.html#a9e11c6171839cc24ba2b1d86b185912f" target="_top" xlink:title="model.Grid.putCell">
<polygon fill="white" stroke="black" points="1037.5,-362.5 1037.5,-381.5 1142.5,-381.5 1142.5,-362.5 1037.5,-362.5"/>
<text text-anchor="middle" x="1090" y="-369.5" font-family="Helvetica,sans-Serif" font-size="10.00">model.Grid.putCell</text>
</a>
</g>
</g>
<!-- Node13&#45;&gt;Node14 -->
<g id="edge18" class="edge"><title>Node13&#45;&gt;Node14</title>
<path fill="none" stroke="midnightblue" d="M947.802,-299.101C954.157,-301.63 960.324,-304.574 966,-308 986.196,-320.188 981.922,-334.618 1002,-347 1010.14,-352.02 1019.33,-356.067 1028.6,-359.318"/>
<polygon fill="midnightblue" stroke="midnightblue" points="1027.67,-362.695 1038.26,-362.426 1029.82,-356.031 1027.67,-362.695"/>
</g>
<!-- Node15 -->
<g id="node15" class="node"><title>Node15</title>
<g id="a_node15"><a xlink:href="../../d3/d57/classmodel_1_1_cell.html#a16fd95430857f2f07371364b0015a32d" target="_top" xlink:title="model.Cell.changeToEmptyCell">
<polygon fill="white" stroke="black" points="1008.5,-318.5 1008.5,-337.5 1171.5,-337.5 1171.5,-318.5 1008.5,-318.5"/>
<text text-anchor="middle" x="1090" y="-325.5" font-family="Helvetica,sans-Serif" font-size="10.00">model.Cell.changeToEmptyCell</text>
</a>
</g>
</g>
<!-- Node13&#45;&gt;Node15 -->
<g id="edge21" class="edge"><title>Node13&#45;&gt;Node15</title>
<path fill="none" stroke="midnightblue" d="M948.707,-299.019C976.263,-304.712 1007.19,-311.099 1032.97,-316.426"/>
<polygon fill="midnightblue" stroke="midnightblue" points="1032.45,-319.892 1042.95,-318.488 1033.87,-313.037 1032.45,-319.892"/>
</g>
<!-- Node16&#45;&gt;Node4 -->
<g id="edge23" class="edge"><title>Node16&#45;&gt;Node4</title>
<path fill="none" stroke="midnightblue" d="M949.267,-367.408C955.319,-364.683 961.016,-361.269 966,-357 999.348,-328.438 982.637,-304.408 1002,-265 1025.39,-217.39 1059.11,-164.749 1076.92,-137.9"/>
<polygon fill="midnightblue" stroke="midnightblue" points="1079.87,-139.788 1082.51,-129.529 1074.04,-135.899 1079.87,-139.788"/>
</g>
<!-- Node16&#45;&gt;Node5 -->
<g id="edge24" class="edge"><title>Node16&#45;&gt;Node5</title>
<path fill="none" stroke="midnightblue" d="M941.83,-386.584C950.209,-389.04 958.475,-392.125 966,-396 1012.35,-419.87 1054.27,-465.952 1075.12,-491.27"/>
<polygon fill="midnightblue" stroke="midnightblue" points="1072.58,-493.702 1081.58,-499.289 1078.03,-489.308 1072.58,-493.702"/>
</g>
<!-- Node16&#45;&gt;Node14 -->
<g id="edge25" class="edge"><title>Node16&#45;&gt;Node14</title>
<path fill="none" stroke="midnightblue" d="M966.022,-374.887C986.618,-374.403 1008.06,-373.9 1027.16,-373.452"/>
<polygon fill="midnightblue" stroke="midnightblue" points="1027.29,-376.95 1037.21,-373.216 1027.13,-369.952 1027.29,-376.95"/>
</g>
<!-- Node17&#45;&gt;Node3 -->
<g id="edge28" class="edge"><title>Node17&#45;&gt;Node3</title>
<path fill="none" stroke="midnightblue" d="M907.436,-493.884C927.041,-482.913 951.263,-466.279 966,-445 1001.6,-393.597 958.255,-353.676 1002,-309 1009.09,-301.757 1018.13,-296.577 1027.69,-292.88"/>
<polygon fill="midnightblue" stroke="midnightblue" points="1028.99,-296.138 1037.37,-289.656 1026.77,-289.497 1028.99,-296.138"/>
</g>
<!-- Node17&#45;&gt;Node5 -->
<g id="edge27" class="edge"><title>Node17&#45;&gt;Node5</title>
<path fill="none" stroke="midnightblue" d="M952.597,-509C967.762,-509 983.807,-509 999.359,-509"/>
<polygon fill="midnightblue" stroke="midnightblue" points="999.494,-512.5 1009.49,-509 999.494,-505.5 999.494,-512.5"/>
</g>
<!-- Node17&#45;&gt;Node6 -->
<g id="edge29" class="edge"><title>Node17&#45;&gt;Node6</title>
<path fill="none" stroke="midnightblue" d="M948.381,-524.101C954.548,-526.627 960.515,-529.571 966,-533 1017.65,-565.298 1059.41,-626.06 1078.22,-656.555"/>
<polygon fill="midnightblue" stroke="midnightblue" points="1075.34,-658.561 1083.5,-665.318 1081.33,-654.947 1075.34,-658.561"/>
</g>
<!-- Node18&#45;&gt;Node3 -->
<g id="edge31" class="edge"><title>Node18&#45;&gt;Node3</title>
<path fill="none" stroke="midnightblue" d="M954.188,-542.959C958.54,-540.16 962.541,-536.868 966,-533 1033.21,-457.835 935.122,-384.462 1002,-309 1008.8,-301.326 1017.79,-295.939 1027.4,-292.173"/>
<polygon fill="midnightblue" stroke="midnightblue" points="1028.79,-295.401 1037.17,-288.923 1026.58,-288.76 1028.79,-295.401"/>
</g>
<!-- Node18&#45;&gt;Node5 -->
<g id="edge32" class="edge"><title>Node18&#45;&gt;Node5</title>
<path fill="none" stroke="midnightblue" d="M941.355,-542.965C972.312,-535.844 1008.75,-527.461 1037.68,-520.805"/>
<polygon fill="midnightblue" stroke="midnightblue" points="1038.62,-524.181 1047.58,-518.528 1037.05,-517.359 1038.62,-524.181"/>
</g>
<!-- Node18&#45;&gt;Node6 -->
<g id="edge33" class="edge"><title>Node18&#45;&gt;Node6</title>
<path fill="none" stroke="midnightblue" d="M903.41,-573.056C944.602,-595.683 1021.96,-638.174 1062.57,-660.481"/>
<polygon fill="midnightblue" stroke="midnightblue" points="1061.14,-663.689 1071.59,-665.436 1064.51,-657.554 1061.14,-663.689"/>
</g>
<!-- Node19&#45;&gt;Node3 -->
<g id="edge37" class="edge"><title>Node19&#45;&gt;Node3</title>
<path fill="none" stroke="midnightblue" d="M350.109,-185.97C479.079,-163.021 751.522,-128.85 966,-199 1008.63,-212.942 1049.74,-246.784 1071.97,-267.313"/>
<polygon fill="midnightblue" stroke="midnightblue" points="1069.6,-269.889 1079.27,-274.213 1074.41,-264.801 1069.6,-269.889"/>
</g>
<!-- Node20 -->
<g id="node20" class="node"><title>Node20</title>
<g id="a_node20"><a xlink:href="../../d3/d57/classmodel_1_1_cell.html#af3d3f6f007030f25fb677f0f2f01510b" target="_top" xlink:title="model.Cell.getState">
<polygon fill="white" stroke="black" points="415,-28.5 415,-47.5 527,-47.5 527,-28.5 415,-28.5"/>
<text text-anchor="middle" x="471" y="-35.5" font-family="Helvetica,sans-Serif" font-size="10.00">model.Cell.getState</text>
</a>
</g>
</g>
<!-- Node19&#45;&gt;Node20 -->
<g id="edge38" class="edge"><title>Node19&#45;&gt;Node20</title>
<path fill="none" stroke="midnightblue" d="M342.717,-185.982C347.568,-183.2 352.084,-179.904 356,-176 393.627,-138.486 354.291,-99.4318 392,-62 395.959,-58.0698 400.546,-54.7809 405.473,-52.0289"/>
<polygon fill="midnightblue" stroke="midnightblue" points="407.142,-55.1101 414.648,-47.6326 404.118,-48.7974 407.142,-55.1101"/>
</g>
<!-- Node21&#45;&gt;Node6 -->
<g id="edge41" class="edge"><title>Node21&#45;&gt;Node6</title>
<path fill="none" stroke="midnightblue" d="M311.383,-877.541C418.65,-904.352 746.29,-970.476 966,-844 1026.68,-809.067 1065.77,-730.785 1081.34,-694.346"/>
<polygon fill="midnightblue" stroke="midnightblue" points="1084.67,-695.438 1085.26,-684.86 1078.2,-692.764 1084.67,-695.438"/>
</g>
<!-- Node22 -->
<g id="node22" class="node"><title>Node22</title>
<g id="a_node22"><a xlink:href="../../d3/d57/classmodel_1_1_cell.html#a527cb796745a34155e9b2a82b2a8812a" target="_top" xlink:title="model.Cell.toString">
<polygon fill="white" stroke="black" points="417,-858.5 417,-877.5 525,-877.5 525,-858.5 417,-858.5"/>
<text text-anchor="middle" x="471" y="-865.5" font-family="Helvetica,sans-Serif" font-size="10.00">model.Cell.toString</text>
</a>
</g>
</g>
<!-- Node21&#45;&gt;Node22 -->
<g id="edge42" class="edge"><title>Node21&#45;&gt;Node22</title>
<path fill="none" stroke="midnightblue" d="M322.468,-868C347.615,-868 379.05,-868 406.434,-868"/>
<polygon fill="midnightblue" stroke="midnightblue" points="406.709,-871.5 416.709,-868 406.709,-864.5 406.709,-871.5"/>
</g>
<!-- Node24&#45;&gt;Node3 -->
<g id="edge46" class="edge"><title>Node24&#45;&gt;Node3</title>
<path fill="none" stroke="midnightblue" d="M287.525,-308.874C306.378,-285.51 346.317,-241.511 392,-224 511.106,-178.345 841.922,-196.415 966,-226 1002.49,-234.702 1041.07,-254.948 1065.09,-269.054"/>
<polygon fill="midnightblue" stroke="midnightblue" points="1063.47,-272.163 1073.84,-274.306 1067.07,-266.16 1063.47,-272.163"/>
</g>
<!-- Node24&#45;&gt;Node4 -->
<g id="edge45" class="edge"><title>Node24&#45;&gt;Node4</title>
<path fill="none" stroke="midnightblue" d="M288.068,-308.74C312.451,-278.232 367.355,-211.244 392,-195 545.612,-93.7528 602.478,-91.9553 784,-62 863.809,-48.8296 887.066,-44.323 966,-62 1002.81,-70.2442 1041.59,-90.7933 1065.54,-105.075"/>
<polygon fill="midnightblue" stroke="midnightblue" points="1063.89,-108.17 1074.25,-110.387 1067.54,-102.193 1063.89,-108.17"/>
</g>
<!-- Node24&#45;&gt;Node5 -->
<g id="edge61" class="edge"><title>Node24&#45;&gt;Node5</title>
<path fill="none" stroke="midnightblue" d="M300.127,-339.046C318.357,-351.713 342.476,-371.502 356,-395 396.262,-464.954 341.33,-510.174 392,-573 451.096,-646.274 493.913,-638.469 586,-658 668.607,-675.521 889.67,-695.12 966,-659 1023.93,-631.585 1063.71,-562.033 1080.3,-528.145"/>
<polygon fill="midnightblue" stroke="midnightblue" points="1083.58,-529.394 1084.71,-518.859 1077.26,-526.396 1083.58,-529.394"/>
</g>
<!-- Node24&#45;&gt;Node6 -->
<g id="edge47" class="edge"><title>Node24&#45;&gt;Node6</title>
<path fill="none" stroke="midnightblue" d="M300.8,-339.14C319.145,-351.728 343.096,-371.367 356,-395 405.794,-486.198 325.946,-545.792 392,-626 475.533,-727.432 841.423,-809.795 966,-768 1010.76,-752.984 1052.22,-714.526 1073.68,-692.048"/>
<polygon fill="midnightblue" stroke="midnightblue" points="1076.4,-694.264 1080.66,-684.562 1071.28,-689.493 1076.4,-694.264"/>
</g>
<!-- Node24&#45;&gt;Node7 -->
<g id="edge60" class="edge"><title>Node24&#45;&gt;Node7</title>
<path fill="none" stroke="midnightblue" d="M294.375,-339.176C310.979,-353.15 335.832,-374.725 356,-395 373.102,-412.193 373.684,-420.108 392,-436 404.932,-447.22 420.5,-457.879 434.316,-466.523"/>
<polygon fill="midnightblue" stroke="midnightblue" points="432.74,-469.662 443.096,-471.898 436.395,-463.692 432.74,-469.662"/>
</g>
<!-- Node24&#45;&gt;Node8 -->
<g id="edge53" class="edge"><title>Node24&#45;&gt;Node8</title>
<path fill="none" stroke="midnightblue" d="M299.111,-339.178C317.02,-352.056 341.202,-372.061 356,-395 385.263,-440.361 356.717,-470.145 392,-511 440.749,-567.447 520.562,-599.215 581.506,-616.26"/>
<polygon fill="midnightblue" stroke="midnightblue" points="580.933,-619.731 591.501,-618.971 582.766,-612.975 580.933,-619.731"/>
</g>
<!-- Node24&#45;&gt;Node10 -->
<g id="edge54" class="edge"><title>Node24&#45;&gt;Node10</title>
<path fill="none" stroke="midnightblue" d="M330.228,-339.017C401.337,-358.709 525.922,-393.209 601.703,-414.195"/>
<polygon fill="midnightblue" stroke="midnightblue" points="601.034,-417.641 611.605,-416.937 602.902,-410.895 601.034,-417.641"/>
</g>
<!-- Node24&#45;&gt;Node12 -->
<g id="edge48" class="edge"><title>Node24&#45;&gt;Node12</title>
<path fill="none" stroke="midnightblue" d="M291.359,-308.892C309.21,-290.552 338.455,-257.967 356,-225 381.56,-176.972 352.015,-144.894 392,-108 438.499,-65.0956 867.812,-35.2283 1028.59,-25.4628"/>
<polygon fill="midnightblue" stroke="midnightblue" points="1029.01,-28.9437 1038.79,-24.8487 1028.59,-21.9564 1029.01,-28.9437"/>
</g>
<!-- Node25 -->
<g id="node25" class="node"><title>Node25</title>
<g id="a_node25"><a xlink:href="../../db/ddc/classmodel_1_1_wator_simulation.html#a1cd97f85f054403c89c42d2647ae8bbb" target="_top" xlink:title="model.WatorSimulation.remove\lCreature">
<polygon fill="white" stroke="black" points="791.5,-318 791.5,-348 958.5,-348 958.5,-318 791.5,-318"/>
<text text-anchor="start" x="799.5" y="-336" font-family="Helvetica,sans-Serif" font-size="10.00">model.WatorSimulation.remove</text>
<text text-anchor="middle" x="875" y="-325" font-family="Helvetica,sans-Serif" font-size="10.00">Creature</text>
</a>
</g>
</g>
<!-- Node24&#45;&gt;Node25 -->
<g id="edge49" class="edge"><title>Node24&#45;&gt;Node25</title>
<path fill="none" stroke="midnightblue" d="M297.414,-308.91C319.794,-294.137 356.531,-272.63 392,-264 545.737,-226.594 605.019,-196.244 748,-264 770.833,-274.82 762.838,-294.195 784,-308 787.175,-310.071 790.52,-311.972 793.979,-313.718"/>
<polygon fill="midnightblue" stroke="midnightblue" points="792.806,-317.029 803.357,-317.982 795.703,-310.657 792.806,-317.029"/>
</g>
<!-- Node26 -->
<g id="node26" class="node"><title>Node26</title>
<g id="a_node26"><a xlink:href="../../db/ddc/classmodel_1_1_wator_simulation.html#a0d64d1242b4717fd5b8914b98ed36c95" target="_top" xlink:title="model.WatorSimulation.decrease\lEnergy">
<polygon fill="white" stroke="black" points="787.5,-406 787.5,-436 962.5,-436 962.5,-406 787.5,-406"/>
<text text-anchor="start" x="795.5" y="-424" font-family="Helvetica,sans-Serif" font-size="10.00">model.WatorSimulation.decrease</text>
<text text-anchor="middle" x="875" y="-413" font-family="Helvetica,sans-Serif" font-size="10.00">Energy</text>
</a>
</g>
</g>
<!-- Node24&#45;&gt;Node26 -->
<g id="edge55" class="edge"><title>Node24&#45;&gt;Node26</title>
<path fill="none" stroke="midnightblue" d="M353.605,-330.937C408.602,-336.303 484.037,-344.571 550,-355 635.887,-368.579 733.57,-389.196 799.02,-403.768"/>
<polygon fill="midnightblue" stroke="midnightblue" points="798.316,-407.197 808.839,-405.962 799.843,-400.365 798.316,-407.197"/>
</g>
<!-- Node25&#45;&gt;Node3 -->
<g id="edge51" class="edge"><title>Node25&#45;&gt;Node3</title>
<path fill="none" stroke="midnightblue" d="M941.355,-317.965C972.312,-310.844 1008.75,-302.461 1037.68,-295.805"/>
<polygon fill="midnightblue" stroke="midnightblue" points="1038.62,-299.181 1047.58,-293.528 1037.05,-292.359 1038.62,-299.181"/>
</g>
<!-- Node25&#45;&gt;Node5 -->
<g id="edge50" class="edge"><title>Node25&#45;&gt;Node5</title>
<path fill="none" stroke="midnightblue" d="M946.651,-348.004C953.45,-350.794 960.028,-354.095 966,-358 993.666,-376.09 1050.82,-454.634 1076.28,-490.731"/>
<polygon fill="midnightblue" stroke="midnightblue" points="1073.7,-493.141 1082.31,-499.318 1079.43,-489.122 1073.7,-493.141"/>
</g>
<!-- Node25&#45;&gt;Node15 -->
<g id="edge52" class="edge"><title>Node25&#45;&gt;Node15</title>
<path fill="none" stroke="midnightblue" d="M958.656,-331.06C971.702,-330.753 985.251,-330.435 998.465,-330.125"/>
<polygon fill="midnightblue" stroke="midnightblue" points="998.575,-333.624 1008.49,-329.89 998.411,-326.626 998.575,-333.624"/>
</g>
<!-- Node26&#45;&gt;Node3 -->
<g id="edge56" class="edge"><title>Node26&#45;&gt;Node3</title>
<path fill="none" stroke="midnightblue" d="M951.477,-405.919C956.708,-403.146 961.629,-399.87 966,-396 997.33,-368.26 970.793,-336.879 1002,-309 1009.38,-302.404 1018.4,-297.54 1027.8,-293.956"/>
<polygon fill="midnightblue" stroke="midnightblue" points="1028.91,-297.275 1037.29,-290.781 1026.69,-290.637 1028.91,-297.275"/>
</g>
<!-- Node26&#45;&gt;Node4 -->
<g id="edge57" class="edge"><title>Node26&#45;&gt;Node4</title>
<path fill="none" stroke="midnightblue" d="M953.297,-405.765C957.921,-403.017 962.221,-399.789 966,-396 1008.64,-353.246 978.248,-320.513 1002,-265 1022.76,-216.471 1057.28,-164.583 1075.98,-137.994"/>
<polygon fill="midnightblue" stroke="midnightblue" points="1078.95,-139.867 1081.89,-129.691 1073.24,-135.809 1078.95,-139.867"/>
</g>
<!-- Node26&#45;&gt;Node5 -->
<g id="edge58" class="edge"><title>Node26&#45;&gt;Node5</title>
<path fill="none" stroke="midnightblue" d="M924.96,-436.147C938.381,-440.616 952.852,-445.731 966,-451 999.469,-464.414 1036.78,-482.466 1061.44,-494.848"/>
<polygon fill="midnightblue" stroke="midnightblue" points="1060.05,-498.066 1070.55,-499.455 1063.21,-491.819 1060.05,-498.066"/>
</g>
<!-- Node26&#45;&gt;Node6 -->
<g id="edge59" class="edge"><title>Node26&#45;&gt;Node6</title>
<path fill="none" stroke="midnightblue" d="M903.287,-436.231C922.306,-447.721 947.487,-464.758 966,-484 993.526,-512.609 1053.83,-614.341 1078.33,-656.496"/>
<polygon fill="midnightblue" stroke="midnightblue" points="1075.33,-658.301 1083.37,-665.199 1081.39,-654.792 1075.33,-658.301"/>
</g>
</g>
</svg>
        <g id="navigator" transform="translate(0 0)" fill="#404254">
                <rect fill="#f2f5e9" fill-opacity="0.5" stroke="#606060" stroke-width=".5" x="0" y="0" width="60" height="60"/>
                <use id="zoomplus" xlink:href="#zoomPlus" x="17" y="9" onmousedown="handleZoom(evt,'in')"/>
                <use id="zoomminus" xlink:href="#zoomMin" x="42" y="9" onmousedown="handleZoom(evt,'out')"/>
                <use id="reset" xlink:href="#resetDef" x="30" y="36" onmousedown="handleReset()"/>
                <g id="arrowUp" xlink:href="#dirArrow" transform="translate(30 24)" onmousedown="handlePan(0,-1)">
                  <use xlink:href="#rim" fill="#404040">
                        <set attributeName="fill" to="#808080" begin="arrowUp.mouseover" end="arrowUp.mouseout"/>
                  </use>
                  <path fill="none" stroke="white" stroke-width="1.5" d="M0,-3.0v7 M-2.5,-0.5L0,-3.0L2.5,-0.5"/>
                </g>
                <g id="arrowRight" xlink:href="#dirArrow" transform="rotate(90) translate(36 -43)" onmousedown="handlePan(1,0)">
                  <use xlink:href="#rim" fill="#404040">
                        <set attributeName="fill" to="#808080" begin="arrowRight.mouseover" end="arrowRight.mouseout"/>
                  </use>
                  <path fill="none" stroke="white" stroke-width="1.5" d="M0,-3.0v7 M-2.5,-0.5L0,-3.0L2.5,-0.5"/>
                </g>
                <g id="arrowDown" xlink:href="#dirArrow" transform="rotate(180) translate(-30 -48)" onmousedown="handlePan(0,1)">
                  <use xlink:href="#rim" fill="#404040">
                        <set attributeName="fill" to="#808080" begin="arrowDown.mouseover" end="arrowDown.mouseout"/>
                  </use>
                  <path fill="none" stroke="white" stroke-width="1.5" d="M0,-3.0v7 M-2.5,-0.5L0,-3.0L2.5,-0.5"/>
                </g>
                <g id="arrowLeft" xlink:href="#dirArrow" transform="rotate(270) translate(-36 17)" onmousedown="handlePan(-1,0)">
                  <use xlink:href="#rim" fill="#404040">
                        <set attributeName="fill" to="#808080" begin="arrowLeft.mouseover" end="arrowLeft.mouseout"/>
                  </use>
                  <path fill="none" stroke="white" stroke-width="1.5" d="M0,-3.0v7 M-2.5,-0.5L0,-3.0L2.5,-0.5"/>
                </g>
        </g>
        <svg viewBox="0 0 15 15" width="100%" height="30px" preserveAspectRatio="xMaxYMin meet">
         <g id="arrow_out" transform="scale(0.3 0.3)">
          <a xlink:href="classmodel_1_1_wator_simulation_a71ffa6547eb00615e94ba1d708a08281_cgraph_org.svg" target="_base">
           <rect id="button" ry="5" rx="5" y="6" x="6" height="38" width="38"
                fill="#f2f5e9" fill-opacity="0.5" stroke="#606060" stroke-width="1.0"/>
           <path id="arrow"
             d="M 11.500037,31.436501 C 11.940474,20.09759 22.043105,11.32322 32.158766,21.979434 L 37.068811,17.246167 C 37.068811,17.246167 37.088388,32 37.088388,32 L 22.160133,31.978069 C 22.160133,31.978069 26.997745,27.140456 26.997745,27.140456 C 18.528582,18.264221 13.291696,25.230495 11.500037,31.436501 z"
             style="fill:#404040;"/>
          </a>
         </g>
        </svg>
</svg>
