<?xml version="1.0" encoding="UTF-8" standalone="no"?>
<!DOCTYPE svg PUBLIC "-//W3C//DTD SVG 1.1//EN"
 "http://www.w3.org/Graphics/SVG/1.1/DTD/svg11.dtd">
<!-- Generated by graphviz version 2.36.0 (20140111.2315)
 -->
<!-- Title: model.WatorSimulation.moveAndCheckBaby Pages: 1 -->
<!--zoomable 280 -->
<svg id="main" version="1.1" xmlns="http://www.w3.org/2000/svg" xmlns:xlink="http://www.w3.org/1999/xlink" xml:space="preserve" onload="init(evt)">
<style type="text/css"><![CDATA[
.edge:hover path { stroke: red; }
.edge:hover polygon { stroke: red; fill: red; }
]]></style>
<script type="text/javascript"><![CDATA[
var edges = document.getElementsByTagName('g');
if (edges && edges.length) {
  for (var i=0;i<edges.length;i++) {
    if (edges[i].id.substr(0,4)=='edge') {
      edges[i].setAttribute('class','edge');
    }
  }
}
]]></script>
        <defs>
                <circle id="rim" cx="0" cy="0" r="7"/>
                <circle id="rim2" cx="0" cy="0" r="3.5"/>
                <g id="zoomPlus">
                        <use xlink:href="#rim" fill="#404040">
                                <set attributeName="fill" to="#808080" begin="zoomplus.mouseover" end="zoomplus.mouseout"/>
                        </use>
                        <path d="M-4,0h8M0,-4v8" fill="none" stroke="white" stroke-width="1.5" pointer-events="none"/>
                </g>
                <g id="zoomMin">
                        <use xlink:href="#rim" fill="#404040">
                                <set attributeName="fill" to="#808080" begin="zoomminus.mouseover" end="zoomminus.mouseout"/>
                        </use>
                        <path d="M-4,0h8" fill="none" stroke="white" stroke-width="1.5" pointer-events="none"/>
                </g>
                <g id="dirArrow">
                        <path fill="none" stroke="white" stroke-width="1.5" d="M0,-3.0v7 M-2.5,-0.5L0,-3.0L2.5,-0.5"/>
                </g>
               <g id="resetDef">
                       <use xlink:href="#rim2" fill="#404040">
                               <set attributeName="fill" to="#808080" begin="reset.mouseover" end="reset.mouseout"/>
                       </use>
               </g>
        </defs>

<script type="text/javascript">
var viewWidth = 596;
var viewHeight = 280;
var sectionId = 'dynsection-13';
</script>
<script xlink:href="../../svgpan.js"/>
<svg id="graph" class="graph">
<g id="viewport">
<title>model.WatorSimulation.moveAndCheckBaby</title>
<polygon fill="white" stroke="none" points="-4,4 -4,-276 592,-276 592,4 -4,4"/>
<!-- Node1 -->
<g id="node1" class="node"><title>Node1</title>
<polygon fill="#bfbfbf" stroke="black" points="0,-122 0,-152 158,-152 158,-122 0,-122"/>
<text text-anchor="start" x="8" y="-140" font-family="Helvetica,sans-Serif" font-size="10.00">model.WatorSimulation.move</text>
<text text-anchor="middle" x="79" y="-129" font-family="Helvetica,sans-Serif" font-size="10.00">AndCheckBaby</text>
</g>
<!-- Node2 -->
<g id="node2" class="node"><title>Node2</title>
<g id="a_node2"><a xlink:href="../../db/ddc/classmodel_1_1_wator_simulation.html#a35418540015ff541b0e3940d9df2f0d5" target="_top" xlink:title="model.WatorSimulation.can\lReproduce">
<polygon fill="white" stroke="black" points="211,-144 211,-174 359,-174 359,-144 211,-144"/>
<text text-anchor="start" x="219" y="-162" font-family="Helvetica,sans-Serif" font-size="10.00">model.WatorSimulation.can</text>
<text text-anchor="middle" x="285" y="-151" font-family="Helvetica,sans-Serif" font-size="10.00">Reproduce</text>
</a>
</g>
</g>
<!-- Node1&#45;&gt;Node2 -->
<g id="edge1" class="edge"><title>Node1&#45;&gt;Node2</title>
<path fill="none" stroke="midnightblue" d="M158.288,-145.443C172.212,-146.944 186.76,-148.513 200.815,-150.029"/>
<polygon fill="midnightblue" stroke="midnightblue" points="200.628,-153.529 210.946,-151.122 201.378,-146.569 200.628,-153.529"/>
</g>
<!-- Node6 -->
<g id="node6" class="node"><title>Node6</title>
<g id="a_node6"><a xlink:href="../../d2/d17/classmodel_1_1_simulation.html#a0252922993a1cbfd2a23f05f834df1fc" target="_top" xlink:title="model.Simulation.getNextGrid">
<polygon fill="white" stroke="black" points="419.5,-114.5 419.5,-133.5 580.5,-133.5 580.5,-114.5 419.5,-114.5"/>
<text text-anchor="middle" x="500" y="-121.5" font-family="Helvetica,sans-Serif" font-size="10.00">model.Simulation.getNextGrid</text>
</a>
</g>
</g>
<!-- Node1&#45;&gt;Node6 -->
<g id="edge5" class="edge"><title>Node1&#45;&gt;Node6</title>
<path fill="none" stroke="midnightblue" d="M158.319,-134.57C229.466,-132.363 334.388,-129.107 408.969,-126.793"/>
<polygon fill="midnightblue" stroke="midnightblue" points="409.398,-130.282 419.285,-126.473 409.181,-123.285 409.398,-130.282"/>
</g>
<!-- Node7 -->
<g id="node7" class="node"><title>Node7</title>
<g id="a_node7"><a xlink:href="../../db/ddc/classmodel_1_1_wator_simulation.html#ad7ba22a6c88c4944182c8a5ba53366fb" target="_top" xlink:title="model.WatorSimulation.increase\lBreedingTime">
<polygon fill="white" stroke="black" points="199.5,-242 199.5,-272 370.5,-272 370.5,-242 199.5,-242"/>
<text text-anchor="start" x="207.5" y="-260" font-family="Helvetica,sans-Serif" font-size="10.00">model.WatorSimulation.increase</text>
<text text-anchor="middle" x="285" y="-249" font-family="Helvetica,sans-Serif" font-size="10.00">BreedingTime</text>
</a>
</g>
</g>
<!-- Node1&#45;&gt;Node7 -->
<g id="edge6" class="edge"><title>Node1&#45;&gt;Node7</title>
<path fill="none" stroke="midnightblue" d="M93.9887,-152.154C114.136,-173.097 153.384,-210.708 194,-232 198.464,-234.34 203.17,-236.48 207.994,-238.435"/>
<polygon fill="midnightblue" stroke="midnightblue" points="206.792,-241.722 217.384,-241.968 209.258,-235.171 206.792,-241.722"/>
</g>
<!-- Node9 -->
<g id="node9" class="node"><title>Node9</title>
<g id="a_node9"><a xlink:href="../../db/ddc/classmodel_1_1_wator_simulation.html#adf3e1ba2978971c732bd4db24d4acdfc" target="_top" xlink:title="model.WatorSimulation.makeBaby">
<polygon fill="white" stroke="black" points="194,-17.5 194,-36.5 376,-36.5 376,-17.5 194,-17.5"/>
<text text-anchor="middle" x="285" y="-24.5" font-family="Helvetica,sans-Serif" font-size="10.00">model.WatorSimulation.makeBaby</text>
</a>
</g>
</g>
<!-- Node1&#45;&gt;Node9 -->
<g id="edge10" class="edge"><title>Node1&#45;&gt;Node9</title>
<path fill="none" stroke="midnightblue" d="M94.2871,-121.815C114.484,-101.307 153.462,-65.1271 194,-46 199.274,-43.5117 204.874,-41.3466 210.601,-39.4633"/>
<polygon fill="midnightblue" stroke="midnightblue" points="211.746,-42.7739 220.322,-36.5523 209.738,-36.0681 211.746,-42.7739"/>
</g>
<!-- Node11 -->
<g id="node11" class="node"><title>Node11</title>
<g id="a_node11"><a xlink:href="../../db/ddc/classmodel_1_1_wator_simulation.html#a53aa53cfee9794dff36ebb3292522d5a" target="_top" xlink:title="model.WatorSimulation.move\lCreature">
<polygon fill="white" stroke="black" points="206,-56 206,-86 364,-86 364,-56 206,-56"/>
<text text-anchor="start" x="214" y="-74" font-family="Helvetica,sans-Serif" font-size="10.00">model.WatorSimulation.move</text>
<text text-anchor="middle" x="285" y="-63" font-family="Helvetica,sans-Serif" font-size="10.00">Creature</text>
</a>
</g>
</g>
<!-- Node1&#45;&gt;Node11 -->
<g id="edge14" class="edge"><title>Node1&#45;&gt;Node11</title>
<path fill="none" stroke="midnightblue" d="M126.546,-121.941C156.599,-112.218 195.879,-99.5096 227.688,-89.2186"/>
<polygon fill="midnightblue" stroke="midnightblue" points="228.864,-92.5168 237.301,-86.1084 226.709,-85.8566 228.864,-92.5168"/>
</g>
<!-- Node13 -->
<g id="node13" class="node"><title>Node13</title>
<g id="a_node13"><a xlink:href="../../db/ddc/classmodel_1_1_wator_simulation.html#a5584ef42fda846a39a016ff060fd2322" target="_top" xlink:title="model.WatorSimulation.reset\lBreedTime">
<polygon fill="white" stroke="black" points="207.5,-193 207.5,-223 362.5,-223 362.5,-193 207.5,-193"/>
<text text-anchor="start" x="215.5" y="-211" font-family="Helvetica,sans-Serif" font-size="10.00">model.WatorSimulation.reset</text>
<text text-anchor="middle" x="285" y="-200" font-family="Helvetica,sans-Serif" font-size="10.00">BreedTime</text>
</a>
</g>
</g>
<!-- Node1&#45;&gt;Node13 -->
<g id="edge20" class="edge"><title>Node1&#45;&gt;Node13</title>
<path fill="none" stroke="midnightblue" d="M114.293,-152.015C136.73,-161.544 166.818,-173.773 194,-183 201.234,-185.456 208.854,-187.854 216.471,-190.133"/>
<polygon fill="midnightblue" stroke="midnightblue" points="215.51,-193.499 226.091,-192.952 217.478,-186.781 215.51,-193.499"/>
</g>
<!-- Node3 -->
<g id="node3" class="node"><title>Node3</title>
<g id="a_node3"><a xlink:href="../../dc/d8f/classmodel_1_1_grid.html#a7308e05b94f35a2f8198f314eb384267" target="_top" xlink:title="model.Grid.getCell">
<polygon fill="white" stroke="black" points="447.5,-195.5 447.5,-214.5 552.5,-214.5 552.5,-195.5 447.5,-195.5"/>
<text text-anchor="middle" x="500" y="-202.5" font-family="Helvetica,sans-Serif" font-size="10.00">model.Grid.getCell</text>
</a>
</g>
</g>
<!-- Node2&#45;&gt;Node3 -->
<g id="edge2" class="edge"><title>Node2&#45;&gt;Node3</title>
<path fill="none" stroke="midnightblue" d="M355.744,-174.062C384.684,-180.312 417.751,-187.453 444.819,-193.299"/>
<polygon fill="midnightblue" stroke="midnightblue" points="444.365,-196.781 454.878,-195.471 445.843,-189.939 444.365,-196.781"/>
</g>
<!-- Node4 -->
<g id="node4" class="node"><title>Node4</title>
<g id="a_node4"><a xlink:href="../../d2/d17/classmodel_1_1_simulation.html#a8e66f9dff5f29f97efb58d49193e0e1f" target="_top" xlink:title="model.Simulation.getCurrentGrid">
<polygon fill="white" stroke="black" points="412.5,-38.5 412.5,-57.5 587.5,-57.5 587.5,-38.5 412.5,-38.5"/>
<text text-anchor="middle" x="500" y="-45.5" font-family="Helvetica,sans-Serif" font-size="10.00">model.Simulation.getCurrentGrid</text>
</a>
</g>
</g>
<!-- Node2&#45;&gt;Node4 -->
<g id="edge3" class="edge"><title>Node2&#45;&gt;Node4</title>
<path fill="none" stroke="midnightblue" d="M307.644,-143.998C325.992,-131.188 352.925,-112.166 376,-95 392.263,-82.9016 393.644,-75.5975 412,-67 417.292,-64.5215 422.917,-62.3606 428.663,-60.4777"/>
<polygon fill="midnightblue" stroke="midnightblue" points="429.83,-63.7821 438.408,-57.5643 427.824,-57.0754 429.83,-63.7821"/>
</g>
<!-- Node5 -->
<g id="node5" class="node"><title>Node5</title>
<g id="a_node5"><a xlink:href="../../d3/d57/classmodel_1_1_cell.html#ae3edf2d4d7cc0314b5813d12dc8034f5" target="_top" xlink:title="model.Cell.getKey">
<polygon fill="white" stroke="black" points="449,-152.5 449,-171.5 551,-171.5 551,-152.5 449,-152.5"/>
<text text-anchor="middle" x="500" y="-159.5" font-family="Helvetica,sans-Serif" font-size="10.00">model.Cell.getKey</text>
</a>
</g>
</g>
<!-- Node2&#45;&gt;Node5 -->
<g id="edge4" class="edge"><title>Node2&#45;&gt;Node5</title>
<path fill="none" stroke="midnightblue" d="M359.005,-160.028C385.042,-160.395 414.054,-160.804 438.885,-161.153"/>
<polygon fill="midnightblue" stroke="midnightblue" points="438.843,-164.653 448.892,-161.294 438.942,-157.654 438.843,-164.653"/>
</g>
<!-- Node7&#45;&gt;Node3 -->
<g id="edge7" class="edge"><title>Node7&#45;&gt;Node3</title>
<path fill="none" stroke="midnightblue" d="M347.608,-241.959C380.173,-234.01 419.591,-224.386 450.04,-216.953"/>
<polygon fill="midnightblue" stroke="midnightblue" points="451.116,-220.293 460,-214.521 449.455,-213.493 451.116,-220.293"/>
</g>
<!-- Node7&#45;&gt;Node6 -->
<g id="edge8" class="edge"><title>Node7&#45;&gt;Node6</title>
<path fill="none" stroke="midnightblue" d="M361.511,-241.957C366.734,-239.176 371.645,-235.887 376,-232 407.833,-203.587 379.385,-170.512 412,-143 413.824,-141.461 415.745,-140.039 417.744,-138.725"/>
<polygon fill="midnightblue" stroke="midnightblue" points="419.897,-141.533 426.951,-133.628 416.507,-135.409 419.897,-141.533"/>
</g>
<!-- Node8 -->
<g id="node8" class="node"><title>Node8</title>
<g id="a_node8"><a xlink:href="../../d3/d57/classmodel_1_1_cell.html#a21f51d50e471c093ccba82f974f30032" target="_top" xlink:title="model.Cell.getProperties">
<polygon fill="white" stroke="black" points="433,-238.5 433,-257.5 567,-257.5 567,-238.5 433,-238.5"/>
<text text-anchor="middle" x="500" y="-245.5" font-family="Helvetica,sans-Serif" font-size="10.00">model.Cell.getProperties</text>
</a>
</g>
</g>
<!-- Node7&#45;&gt;Node8 -->
<g id="edge9" class="edge"><title>Node7&#45;&gt;Node8</title>
<path fill="none" stroke="midnightblue" d="M370.795,-253.417C387.896,-252.695 405.777,-251.939 422.571,-251.229"/>
<polygon fill="midnightblue" stroke="midnightblue" points="423.028,-254.713 432.871,-250.794 422.732,-247.72 423.028,-254.713"/>
</g>
<!-- Node9&#45;&gt;Node4 -->
<g id="edge11" class="edge"><title>Node9&#45;&gt;Node4</title>
<path fill="none" stroke="midnightblue" d="M376.022,-35.8755C384.673,-36.7283 393.472,-37.5958 402.184,-38.4547"/>
<polygon fill="midnightblue" stroke="midnightblue" points="402.061,-41.9595 412.356,-39.4577 402.748,-34.9933 402.061,-41.9595"/>
</g>
<!-- Node9&#45;&gt;Node6 -->
<g id="edge12" class="edge"><title>Node9&#45;&gt;Node6</title>
<path fill="none" stroke="midnightblue" d="M358.047,-36.5155C364.422,-39.0143 370.524,-42.1275 376,-46 401.081,-63.7355 386.981,-87.1773 412,-105 414.707,-106.929 417.573,-108.667 420.553,-110.234"/>
<polygon fill="midnightblue" stroke="midnightblue" points="419.233,-113.479 429.784,-114.439 422.134,-107.109 419.233,-113.479"/>
</g>
<!-- Node10 -->
<g id="node10" class="node"><title>Node10</title>
<g id="a_node10"><a xlink:href="../../dc/d8f/classmodel_1_1_grid.html#a9e11c6171839cc24ba2b1d86b185912f" target="_top" xlink:title="model.Grid.putCell">
<polygon fill="white" stroke="black" points="447.5,-0.5 447.5,-19.5 552.5,-19.5 552.5,-0.5 447.5,-0.5"/>
<text text-anchor="middle" x="500" y="-7.5" font-family="Helvetica,sans-Serif" font-size="10.00">model.Grid.putCell</text>
</a>
</g>
</g>
<!-- Node9&#45;&gt;Node10 -->
<g id="edge13" class="edge"><title>Node9&#45;&gt;Node10</title>
<path fill="none" stroke="midnightblue" d="M376.022,-19.8151C396.618,-18.1713 418.057,-16.4602 437.156,-14.9359"/>
<polygon fill="midnightblue" stroke="midnightblue" points="437.518,-18.4182 447.208,-14.1336 436.961,-11.4404 437.518,-18.4182"/>
</g>
<!-- Node11&#45;&gt;Node3 -->
<g id="edge18" class="edge"><title>Node11&#45;&gt;Node3</title>
<path fill="none" stroke="midnightblue" d="M312.012,-86.2067C330.891,-97.9299 356.443,-115.264 376,-134 395.001,-152.202 390.182,-166.292 412,-181 419.728,-186.21 428.562,-190.294 437.571,-193.495"/>
<polygon fill="midnightblue" stroke="midnightblue" points="436.779,-196.917 447.371,-196.633 438.914,-190.25 436.779,-196.917"/>
</g>
<!-- Node11&#45;&gt;Node4 -->
<g id="edge17" class="edge"><title>Node11&#45;&gt;Node4</title>
<path fill="none" stroke="midnightblue" d="M364.104,-62.5662C376.47,-61.2309 389.388,-59.836 402.121,-58.4611"/>
<polygon fill="midnightblue" stroke="midnightblue" points="402.712,-61.9177 412.278,-57.3643 401.96,-54.9582 402.712,-61.9177"/>
</g>
<!-- Node11&#45;&gt;Node6 -->
<g id="edge15" class="edge"><title>Node11&#45;&gt;Node6</title>
<path fill="none" stroke="midnightblue" d="M339.5,-86.0519C361.845,-92.1784 388.117,-99.1735 412,-105 422.13,-107.471 432.961,-109.959 443.421,-112.284"/>
<polygon fill="midnightblue" stroke="midnightblue" points="442.782,-115.727 453.3,-114.456 444.285,-108.89 442.782,-115.727"/>
</g>
<!-- Node11&#45;&gt;Node10 -->
<g id="edge16" class="edge"><title>Node11&#45;&gt;Node10</title>
<path fill="none" stroke="midnightblue" d="M346.003,-55.8695C356.111,-52.8839 366.424,-49.5613 376,-46 392.584,-39.832 395.25,-34.7018 412,-29 420.188,-26.2128 428.952,-23.7365 437.649,-21.5682"/>
<polygon fill="midnightblue" stroke="midnightblue" points="438.486,-24.9669 447.407,-19.2508 436.868,-18.1564 438.486,-24.9669"/>
</g>
<!-- Node12 -->
<g id="node12" class="node"><title>Node12</title>
<g id="a_node12"><a xlink:href="../../d3/d57/classmodel_1_1_cell.html#a16fd95430857f2f07371364b0015a32d" target="_top" xlink:title="model.Cell.changeToEmptyCell">
<polygon fill="white" stroke="black" points="418.5,-76.5 418.5,-95.5 581.5,-95.5 581.5,-76.5 418.5,-76.5"/>
<text text-anchor="middle" x="500" y="-83.5" font-family="Helvetica,sans-Serif" font-size="10.00">model.Cell.changeToEmptyCell</text>
</a>
</g>
</g>
<!-- Node11&#45;&gt;Node12 -->
<g id="edge19" class="edge"><title>Node11&#45;&gt;Node12</title>
<path fill="none" stroke="midnightblue" d="M364.104,-76.5003C378.478,-77.5125 393.596,-78.5772 408.303,-79.6129"/>
<polygon fill="midnightblue" stroke="midnightblue" points="408.184,-83.1131 418.405,-80.3243 408.676,-76.1304 408.184,-83.1131"/>
</g>
<!-- Node13&#45;&gt;Node3 -->
<g id="edge22" class="edge"><title>Node13&#45;&gt;Node3</title>
<path fill="none" stroke="midnightblue" d="M362.597,-206.921C387.116,-206.576 413.936,-206.198 437.256,-205.87"/>
<polygon fill="midnightblue" stroke="midnightblue" points="437.41,-209.368 447.36,-205.727 437.312,-202.369 437.41,-209.368"/>
</g>
<!-- Node13&#45;&gt;Node6 -->
<g id="edge21" class="edge"><title>Node13&#45;&gt;Node6</title>
<path fill="none" stroke="midnightblue" d="M355.991,-192.876C362.992,-190.106 369.796,-186.842 376,-183 396.334,-170.408 391.322,-155.019 412,-143 415.864,-140.754 419.964,-138.774 424.199,-137.026"/>
<polygon fill="midnightblue" stroke="midnightblue" points="425.459,-140.292 433.643,-133.563 423.049,-133.72 425.459,-140.292"/>
</g>
<!-- Node13&#45;&gt;Node8 -->
<g id="edge23" class="edge"><title>Node13&#45;&gt;Node8</title>
<path fill="none" stroke="midnightblue" d="M362.597,-222.384C387.539,-227.068 414.862,-232.199 438.46,-236.631"/>
<polygon fill="midnightblue" stroke="midnightblue" points="437.853,-240.078 448.327,-238.484 439.145,-233.198 437.853,-240.078"/>
</g>
</g>
</svg>
        <g id="navigator" transform="translate(0 0)" fill="#404254">
                <rect fill="#f2f5e9" fill-opacity="0.5" stroke="#606060" stroke-width=".5" x="0" y="0" width="60" height="60"/>
                <use id="zoomplus" xlink:href="#zoomPlus" x="17" y="9" onmousedown="handleZoom(evt,'in')"/>
                <use id="zoomminus" xlink:href="#zoomMin" x="42" y="9" onmousedown="handleZoom(evt,'out')"/>
                <use id="reset" xlink:href="#resetDef" x="30" y="36" onmousedown="handleReset()"/>
                <g id="arrowUp" xlink:href="#dirArrow" transform="translate(30 24)" onmousedown="handlePan(0,-1)">
                  <use xlink:href="#rim" fill="#404040">
                        <set attributeName="fill" to="#808080" begin="arrowUp.mouseover" end="arrowUp.mouseout"/>
                  </use>
                  <path fill="none" stroke="white" stroke-width="1.5" d="M0,-3.0v7 M-2.5,-0.5L0,-3.0L2.5,-0.5"/>
                </g>
                <g id="arrowRight" xlink:href="#dirArrow" transform="rotate(90) translate(36 -43)" onmousedown="handlePan(1,0)">
                  <use xlink:href="#rim" fill="#404040">
                        <set attributeName="fill" to="#808080" begin="arrowRight.mouseover" end="arrowRight.mouseout"/>
                  </use>
                  <path fill="none" stroke="white" stroke-width="1.5" d="M0,-3.0v7 M-2.5,-0.5L0,-3.0L2.5,-0.5"/>
                </g>
                <g id="arrowDown" xlink:href="#dirArrow" transform="rotate(180) translate(-30 -48)" onmousedown="handlePan(0,1)">
                  <use xlink:href="#rim" fill="#404040">
                        <set attributeName="fill" to="#808080" begin="arrowDown.mouseover" end="arrowDown.mouseout"/>
                  </use>
                  <path fill="none" stroke="white" stroke-width="1.5" d="M0,-3.0v7 M-2.5,-0.5L0,-3.0L2.5,-0.5"/>
                </g>
                <g id="arrowLeft" xlink:href="#dirArrow" transform="rotate(270) translate(-36 17)" onmousedown="handlePan(-1,0)">
                  <use xlink:href="#rim" fill="#404040">
                        <set attributeName="fill" to="#808080" begin="arrowLeft.mouseover" end="arrowLeft.mouseout"/>
                  </use>
                  <path fill="none" stroke="white" stroke-width="1.5" d="M0,-3.0v7 M-2.5,-0.5L0,-3.0L2.5,-0.5"/>
                </g>
        </g>
        <svg viewBox="0 0 15 15" width="100%" height="30px" preserveAspectRatio="xMaxYMin meet">
         <g id="arrow_out" transform="scale(0.3 0.3)">
          <a xlink:href="classmodel_1_1_wator_simulation_af44e712c1655e6d268a32bbd1c4db7d9_cgraph_org.svg" target="_base">
           <rect id="button" ry="5" rx="5" y="6" x="6" height="38" width="38"
                fill="#f2f5e9" fill-opacity="0.5" stroke="#606060" stroke-width="1.0"/>
           <path id="arrow"
             d="M 11.500037,31.436501 C 11.940474,20.09759 22.043105,11.32322 32.158766,21.979434 L 37.068811,17.246167 C 37.068811,17.246167 37.088388,32 37.088388,32 L 22.160133,31.978069 C 22.160133,31.978069 26.997745,27.140456 26.997745,27.140456 C 18.528582,18.264221 13.291696,25.230495 11.500037,31.436501 z"
             style="fill:#404040;"/>
          </a>
         </g>
        </svg>
</svg>
