<?xml version="1.0" encoding="UTF-8" standalone="no"?>
<!DOCTYPE svg PUBLIC "-//W3C//DTD SVG 1.1//EN"
 "http://www.w3.org/Graphics/SVG/1.1/DTD/svg11.dtd">
<!-- Generated by graphviz version 2.36.0 (20140111.2315)
 -->
<!-- Title: model.WatorSimulation.increaseBreedingTime Pages: 1 -->
<svg width="378pt" height="104pt"
 viewBox="0.00 0.00 378.00 104.00" xmlns="http://www.w3.org/2000/svg" xmlns:xlink="http://www.w3.org/1999/xlink">
<g id="graph0" class="graph" transform="scale(1 1) rotate(0) translate(4 100)">
<title>model.WatorSimulation.increaseBreedingTime</title>
<polygon fill="white" stroke="none" points="-4,4 -4,-100 374,-100 374,4 -4,4"/>
<!-- Node1 -->
<g id="node1" class="node"><title>Node1</title>
<polygon fill="#bfbfbf" stroke="black" points="0.5,-33 0.5,-63 171.5,-63 171.5,-33 0.5,-33"/>
<text text-anchor="start" x="8.5" y="-51" font-family="Helvetica,sans-Serif" font-size="10.00">model.WatorSimulation.increase</text>
<text text-anchor="middle" x="86" y="-40" font-family="Helvetica,sans-Serif" font-size="10.00">BreedingTime</text>
</g>
<!-- Node2 -->
<g id="node2" class="node"><title>Node2</title>
<g id="a_node2"><a xlink:href="../../dc/d8f/classmodel_1_1_grid.html#a7308e05b94f35a2f8198f314eb384267" target="_top" xlink:title="model.Grid.getCell">
<polygon fill="white" stroke="black" points="236.5,-76.5 236.5,-95.5 341.5,-95.5 341.5,-76.5 236.5,-76.5"/>
<text text-anchor="middle" x="289" y="-83.5" font-family="Helvetica,sans-Serif" font-size="10.00">model.Grid.getCell</text>
</a>
</g>
</g>
<!-- Node1&#45;&gt;Node2 -->
<g id="edge1" class="edge"><title>Node1&#45;&gt;Node2</title>
<path fill="none" stroke="midnightblue" d="M166.441,-63.0186C186.905,-66.8875 208.589,-70.9869 227.889,-74.6357"/>
<polygon fill="midnightblue" stroke="midnightblue" points="227.269,-78.0804 237.745,-76.4991 228.569,-71.2023 227.269,-78.0804"/>
</g>
<!-- Node3 -->
<g id="node3" class="node"><title>Node3</title>
<g id="a_node3"><a xlink:href="../../d2/d17/classmodel_1_1_simulation.html#a0252922993a1cbfd2a23f05f834df1fc" target="_top" xlink:title="model.Simulation.getNextGrid">
<polygon fill="white" stroke="black" points="208.5,-38.5 208.5,-57.5 369.5,-57.5 369.5,-38.5 208.5,-38.5"/>
<text text-anchor="middle" x="289" y="-45.5" font-family="Helvetica,sans-Serif" font-size="10.00">model.Simulation.getNextGrid</text>
</a>
</g>
</g>
<!-- Node1&#45;&gt;Node3 -->
<g id="edge2" class="edge"><title>Node1&#45;&gt;Node3</title>
<path fill="none" stroke="midnightblue" d="M171.66,-48C180.373,-48 189.25,-48 198.019,-48"/>
<polygon fill="midnightblue" stroke="midnightblue" points="198.247,-51.5001 208.247,-48 198.247,-44.5001 198.247,-51.5001"/>
</g>
<!-- Node4 -->
<g id="node4" class="node"><title>Node4</title>
<g id="a_node4"><a xlink:href="../../d3/d57/classmodel_1_1_cell.html#a21f51d50e471c093ccba82f974f30032" target="_top" xlink:title="model.Cell.getProperties">
<polygon fill="white" stroke="black" points="222,-0.5 222,-19.5 356,-19.5 356,-0.5 222,-0.5"/>
<text text-anchor="middle" x="289" y="-7.5" font-family="Helvetica,sans-Serif" font-size="10.00">model.Cell.getProperties</text>
</a>
</g>
</g>
<!-- Node1&#45;&gt;Node4 -->
<g id="edge3" class="edge"><title>Node1&#45;&gt;Node4</title>
<path fill="none" stroke="midnightblue" d="M166.441,-32.9814C186.905,-29.1125 208.589,-25.0131 227.889,-21.3643"/>
<polygon fill="midnightblue" stroke="midnightblue" points="228.569,-24.7977 237.745,-19.5009 227.269,-17.9196 228.569,-24.7977"/>
</g>
</g>
</svg>
