<?xml version="1.0" encoding="UTF-8" standalone="no"?>
<!DOCTYPE svg PUBLIC "-//W3C//DTD SVG 1.1//EN"
 "http://www.w3.org/Graphics/SVG/1.1/DTD/svg11.dtd">
<!-- Generated by graphviz version 2.36.0 (20140111.2315)
 -->
<!-- Title: model.WatorSimulation.moveIfEmptyAndCheckBaby Pages: 1 -->
<!--zoomable 342 -->
<svg id="main" version="1.1" xmlns="http://www.w3.org/2000/svg" xmlns:xlink="http://www.w3.org/1999/xlink" xml:space="preserve" onload="init(evt)">
<style type="text/css"><![CDATA[
.edge:hover path { stroke: red; }
.edge:hover polygon { stroke: red; fill: red; }
]]></style>
<script type="text/javascript"><![CDATA[
var edges = document.getElementsByTagName('g');
if (edges && edges.length) {
  for (var i=0;i<edges.length;i++) {
    if (edges[i].id.substr(0,4)=='edge') {
      edges[i].setAttribute('class','edge');
    }
  }
}
]]></script>
        <defs>
                <circle id="rim" cx="0" cy="0" r="7"/>
                <circle id="rim2" cx="0" cy="0" r="3.5"/>
                <g id="zoomPlus">
                        <use xlink:href="#rim" fill="#404040">
                                <set attributeName="fill" to="#808080" begin="zoomplus.mouseover" end="zoomplus.mouseout"/>
                        </use>
                        <path d="M-4,0h8M0,-4v8" fill="none" stroke="white" stroke-width="1.5" pointer-events="none"/>
                </g>
                <g id="zoomMin">
                        <use xlink:href="#rim" fill="#404040">
                                <set attributeName="fill" to="#808080" begin="zoomminus.mouseover" end="zoomminus.mouseout"/>
                        </use>
                        <path d="M-4,0h8" fill="none" stroke="white" stroke-width="1.5" pointer-events="none"/>
                </g>
                <g id="dirArrow">
                        <path fill="none" stroke="white" stroke-width="1.5" d="M0,-3.0v7 M-2.5,-0.5L0,-3.0L2.5,-0.5"/>
                </g>
               <g id="resetDef">
                       <use xlink:href="#rim2" fill="#404040">
                               <set attributeName="fill" to="#808080" begin="reset.mouseover" end="reset.mouseout"/>
                       </use>
               </g>
        </defs>

<script type="text/javascript">
var viewWidth = 794;
var viewHeight = 342;
var sectionId = 'dynsection-17';
</script>
<script xlink:href="../../svgpan.js"/>
<svg id="graph" class="graph">
<g id="viewport">
<title>model.WatorSimulation.moveIfEmptyAndCheckBaby</title>
<polygon fill="white" stroke="none" points="-4,4 -4,-337.994 790,-337.994 790,4 -4,4"/>
<!-- Node1 -->
<g id="node1" class="node"><title>Node1</title>
<polygon fill="#bfbfbf" stroke="black" points="0,-94.9938 0,-124.994 158,-124.994 158,-94.9938 0,-94.9938"/>
<text text-anchor="start" x="8" y="-112.994" font-family="Helvetica,sans-Serif" font-size="10.00">model.WatorSimulation.move</text>
<text text-anchor="middle" x="79" y="-101.994" font-family="Helvetica,sans-Serif" font-size="10.00">IfEmptyAndCheckBaby</text>
</g>
<!-- Node2 -->
<g id="node2" class="node"><title>Node2</title>
<g id="a_node2"><a xlink:href="../../dc/d8f/classmodel_1_1_grid.html#a7c79270cb5329121d7e66fa3178bc969" target="_top" xlink:title="model.Grid.getDirectLocations\lWithType">
<polygon fill="white" stroke="black" points="194,-242.994 194,-272.994 356,-272.994 356,-242.994 194,-242.994"/>
<text text-anchor="start" x="202" y="-260.994" font-family="Helvetica,sans-Serif" font-size="10.00">model.Grid.getDirectLocations</text>
<text text-anchor="middle" x="275" y="-249.994" font-family="Helvetica,sans-Serif" font-size="10.00">WithType</text>
</a>
</g>
</g>
<!-- Node1&#45;&gt;Node2 -->
<g id="edge1" class="edge"><title>Node1&#45;&gt;Node2</title>
<path fill="none" stroke="midnightblue" d="M99.6694,-124.999C134.383,-151.482 206.593,-206.57 246.32,-236.877"/>
<polygon fill="midnightblue" stroke="midnightblue" points="244.205,-239.666 254.279,-242.949 248.451,-234.1 244.205,-239.666"/>
</g>
<!-- Node4 -->
<g id="node4" class="node"><title>Node4</title>
<g id="a_node4"><a xlink:href="../../d2/d17/classmodel_1_1_simulation.html#a0252922993a1cbfd2a23f05f834df1fc" target="_top" xlink:title="model.Simulation.getNextGrid">
<polygon fill="white" stroke="black" points="617.5,-92.4938 617.5,-111.494 778.5,-111.494 778.5,-92.4938 617.5,-92.4938"/>
<text text-anchor="middle" x="698" y="-99.4938" font-family="Helvetica,sans-Serif" font-size="10.00">model.Simulation.getNextGrid</text>
</a>
</g>
</g>
<!-- Node1&#45;&gt;Node4 -->
<g id="edge3" class="edge"><title>Node1&#45;&gt;Node4</title>
<path fill="none" stroke="midnightblue" d="M107.097,-94.9128C184.412,-54.0496 410.984,50.4842 574,-29.9938 597.594,-41.6416 588.261,-62.1695 610,-76.9938 617.264,-81.9471 625.508,-85.9295 633.957,-89.1286"/>
<polygon fill="midnightblue" stroke="midnightblue" points="632.947,-92.4824 643.541,-92.4178 635.219,-85.8614 632.947,-92.4824"/>
</g>
<!-- Node5 -->
<g id="node5" class="node"><title>Node5</title>
<g id="a_node5"><a xlink:href="../../db/ddc/classmodel_1_1_wator_simulation.html#ad7ba22a6c88c4944182c8a5ba53366fb" target="_top" xlink:title="model.WatorSimulation.increase\lBreedingTime">
<polygon fill="white" stroke="black" points="397.5,-39.9938 397.5,-69.9938 568.5,-69.9938 568.5,-39.9938 397.5,-39.9938"/>
<text text-anchor="start" x="405.5" y="-57.9938" font-family="Helvetica,sans-Serif" font-size="10.00">model.WatorSimulation.increase</text>
<text text-anchor="middle" x="483" y="-46.9938" font-family="Helvetica,sans-Serif" font-size="10.00">BreedingTime</text>
</a>
</g>
</g>
<!-- Node1&#45;&gt;Node5 -->
<g id="edge4" class="edge"><title>Node1&#45;&gt;Node5</title>
<path fill="none" stroke="midnightblue" d="M158.464,-99.2586C224.017,-90.2899 317.689,-77.4742 387.385,-67.9385"/>
<polygon fill="midnightblue" stroke="midnightblue" points="388.055,-71.3796 397.488,-66.5563 387.106,-64.4442 388.055,-71.3796"/>
</g>
<!-- Node8 -->
<g id="node8" class="node"><title>Node8</title>
<g id="a_node8"><a xlink:href="../../db/ddc/classmodel_1_1_wator_simulation.html#af44e712c1655e6d268a32bbd1c4db7d9" target="_top" xlink:title="model.WatorSimulation.move\lAndCheckBaby">
<polygon fill="white" stroke="black" points="196,-127.994 196,-157.994 354,-157.994 354,-127.994 196,-127.994"/>
<text text-anchor="start" x="204" y="-145.994" font-family="Helvetica,sans-Serif" font-size="10.00">model.WatorSimulation.move</text>
<text text-anchor="middle" x="275" y="-134.994" font-family="Helvetica,sans-Serif" font-size="10.00">AndCheckBaby</text>
</a>
</g>
</g>
<!-- Node1&#45;&gt;Node8 -->
<g id="edge8" class="edge"><title>Node1&#45;&gt;Node8</title>
<path fill="none" stroke="midnightblue" d="M158.069,-123.273C167.193,-124.825 176.549,-126.417 185.798,-127.99"/>
<polygon fill="midnightblue" stroke="midnightblue" points="185.33,-131.461 195.775,-129.687 186.504,-124.56 185.33,-131.461"/>
</g>
<!-- Node3 -->
<g id="node3" class="node"><title>Node3</title>
<g id="a_node3"><a xlink:href="../../dc/d8f/classmodel_1_1_grid.html#a7fd07edd38cb4fbc123431255df70a84" target="_top" xlink:title="model.Grid.inBounds">
<polygon fill="white" stroke="black" points="425,-314.494 425,-333.494 541,-333.494 541,-314.494 425,-314.494"/>
<text text-anchor="middle" x="483" y="-321.494" font-family="Helvetica,sans-Serif" font-size="10.00">model.Grid.inBounds</text>
</a>
</g>
</g>
<!-- Node2&#45;&gt;Node3 -->
<g id="edge2" class="edge"><title>Node2&#45;&gt;Node3</title>
<path fill="none" stroke="midnightblue" d="M309.752,-273.028C332.63,-282.807 363.732,-295.308 392,-303.994 401.855,-307.022 412.449,-309.792 422.786,-312.243"/>
<polygon fill="midnightblue" stroke="midnightblue" points="422.056,-315.666 432.585,-314.493 423.622,-308.844 422.056,-315.666"/>
</g>
<!-- Node5&#45;&gt;Node4 -->
<g id="edge6" class="edge"><title>Node5&#45;&gt;Node4</title>
<path fill="none" stroke="midnightblue" d="M551.98,-69.9941C581.691,-76.55 616.024,-84.1258 643.824,-90.2601"/>
<polygon fill="midnightblue" stroke="midnightblue" points="643.231,-93.7133 653.75,-92.4503 644.739,-86.8777 643.231,-93.7133"/>
</g>
<!-- Node6 -->
<g id="node6" class="node"><title>Node6</title>
<g id="a_node6"><a xlink:href="../../dc/d8f/classmodel_1_1_grid.html#a7308e05b94f35a2f8198f314eb384267" target="_top" xlink:title="model.Grid.getCell">
<polygon fill="white" stroke="black" points="645.5,-133.494 645.5,-152.494 750.5,-152.494 750.5,-133.494 645.5,-133.494"/>
<text text-anchor="middle" x="698" y="-140.494" font-family="Helvetica,sans-Serif" font-size="10.00">model.Grid.getCell</text>
</a>
</g>
</g>
<!-- Node5&#45;&gt;Node6 -->
<g id="edge5" class="edge"><title>Node5&#45;&gt;Node6</title>
<path fill="none" stroke="midnightblue" d="M508.764,-70.2018C533.601,-84.9101 573.324,-106.975 610,-120.994 619.815,-124.745 630.497,-128.047 640.908,-130.876"/>
<polygon fill="midnightblue" stroke="midnightblue" points="640.21,-134.311 650.77,-133.442 641.973,-127.537 640.21,-134.311"/>
</g>
<!-- Node7 -->
<g id="node7" class="node"><title>Node7</title>
<g id="a_node7"><a xlink:href="../../d3/d57/classmodel_1_1_cell.html#a21f51d50e471c093ccba82f974f30032" target="_top" xlink:title="model.Cell.getProperties">
<polygon fill="white" stroke="black" points="631,-48.4938 631,-67.4938 765,-67.4938 765,-48.4938 631,-48.4938"/>
<text text-anchor="middle" x="698" y="-55.4938" font-family="Helvetica,sans-Serif" font-size="10.00">model.Cell.getProperties</text>
</a>
</g>
</g>
<!-- Node5&#45;&gt;Node7 -->
<g id="edge7" class="edge"><title>Node5&#45;&gt;Node7</title>
<path fill="none" stroke="midnightblue" d="M568.795,-56.188C585.896,-56.4289 603.777,-56.6808 620.571,-56.9173"/>
<polygon fill="midnightblue" stroke="midnightblue" points="620.823,-60.4211 630.871,-57.0624 620.921,-53.4218 620.823,-60.4211"/>
</g>
<!-- Node8&#45;&gt;Node4 -->
<g id="edge13" class="edge"><title>Node8&#45;&gt;Node4</title>
<path fill="none" stroke="midnightblue" d="M336.784,-127.981C354.487,-124.13 373.927,-120.4 392,-117.994 463.921,-108.42 546.095,-104.509 607.014,-102.943"/>
<polygon fill="midnightblue" stroke="midnightblue" points="607.454,-106.434 617.367,-102.694 607.286,-99.4359 607.454,-106.434"/>
</g>
<!-- Node8&#45;&gt;Node5 -->
<g id="edge14" class="edge"><title>Node8&#45;&gt;Node5</title>
<path fill="none" stroke="midnightblue" d="M303.61,-127.795C326.794,-115.374 361.005,-97.8323 392,-84.9938 401.903,-80.892 412.587,-76.9369 423.015,-73.3191"/>
<polygon fill="midnightblue" stroke="midnightblue" points="424.149,-76.6301 432.49,-70.0968 421.896,-70.0029 424.149,-76.6301"/>
</g>
<!-- Node9 -->
<g id="node9" class="node"><title>Node9</title>
<g id="a_node9"><a xlink:href="../../db/ddc/classmodel_1_1_wator_simulation.html#a35418540015ff541b0e3940d9df2f0d5" target="_top" xlink:title="model.WatorSimulation.can\lReproduce">
<polygon fill="white" stroke="black" points="409,-264.994 409,-294.994 557,-294.994 557,-264.994 409,-264.994"/>
<text text-anchor="start" x="417" y="-282.994" font-family="Helvetica,sans-Serif" font-size="10.00">model.WatorSimulation.can</text>
<text text-anchor="middle" x="483" y="-271.994" font-family="Helvetica,sans-Serif" font-size="10.00">Reproduce</text>
</a>
</g>
</g>
<!-- Node8&#45;&gt;Node9 -->
<g id="edge9" class="edge"><title>Node8&#45;&gt;Node9</title>
<path fill="none" stroke="midnightblue" d="M287.444,-158.128C306.483,-182.245 347.041,-229.288 392,-254.994 395.907,-257.227 400.024,-259.271 404.26,-261.138"/>
<polygon fill="midnightblue" stroke="midnightblue" points="403.106,-264.447 413.688,-264.953 405.731,-257.958 403.106,-264.447"/>
</g>
<!-- Node12 -->
<g id="node12" class="node"><title>Node12</title>
<g id="a_node12"><a xlink:href="../../db/ddc/classmodel_1_1_wator_simulation.html#adf3e1ba2978971c732bd4db24d4acdfc" target="_top" xlink:title="model.WatorSimulation.makeBaby">
<polygon fill="white" stroke="black" points="392,-226.494 392,-245.494 574,-245.494 574,-226.494 392,-226.494"/>
<text text-anchor="middle" x="483" y="-233.494" font-family="Helvetica,sans-Serif" font-size="10.00">model.WatorSimulation.makeBaby</text>
</a>
</g>
</g>
<!-- Node8&#45;&gt;Node12 -->
<g id="edge15" class="edge"><title>Node8&#45;&gt;Node12</title>
<path fill="none" stroke="midnightblue" d="M295.385,-158.147C317.54,-174.736 355.469,-200.97 392,-215.994 399.367,-219.023 407.271,-221.631 415.224,-223.866"/>
<polygon fill="midnightblue" stroke="midnightblue" points="414.357,-227.257 424.918,-226.411 416.134,-220.486 414.357,-227.257"/>
</g>
<!-- Node14 -->
<g id="node14" class="node"><title>Node14</title>
<g id="a_node14"><a xlink:href="../../db/ddc/classmodel_1_1_wator_simulation.html#a53aa53cfee9794dff36ebb3292522d5a" target="_top" xlink:title="model.WatorSimulation.move\lCreature">
<polygon fill="white" stroke="black" points="404,-176.994 404,-206.994 562,-206.994 562,-176.994 404,-176.994"/>
<text text-anchor="start" x="412" y="-194.994" font-family="Helvetica,sans-Serif" font-size="10.00">model.WatorSimulation.move</text>
<text text-anchor="middle" x="483" y="-183.994" font-family="Helvetica,sans-Serif" font-size="10.00">Creature</text>
</a>
</g>
</g>
<!-- Node8&#45;&gt;Node14 -->
<g id="edge19" class="edge"><title>Node8&#45;&gt;Node14</title>
<path fill="none" stroke="midnightblue" d="M339.207,-158.028C361.254,-163.273 386.176,-169.201 408.956,-174.619"/>
<polygon fill="midnightblue" stroke="midnightblue" points="408.374,-178.078 418.913,-176.988 409.994,-171.268 408.374,-178.078"/>
</g>
<!-- Node16 -->
<g id="node16" class="node"><title>Node16</title>
<g id="a_node16"><a xlink:href="../../db/ddc/classmodel_1_1_wator_simulation.html#a5584ef42fda846a39a016ff060fd2322" target="_top" xlink:title="model.WatorSimulation.reset\lBreedTime">
<polygon fill="white" stroke="black" points="405.5,-127.994 405.5,-157.994 560.5,-157.994 560.5,-127.994 405.5,-127.994"/>
<text text-anchor="start" x="413.5" y="-145.994" font-family="Helvetica,sans-Serif" font-size="10.00">model.WatorSimulation.reset</text>
<text text-anchor="middle" x="483" y="-134.994" font-family="Helvetica,sans-Serif" font-size="10.00">BreedTime</text>
</a>
</g>
</g>
<!-- Node8&#45;&gt;Node16 -->
<g id="edge25" class="edge"><title>Node8&#45;&gt;Node16</title>
<path fill="none" stroke="midnightblue" d="M354.173,-142.994C367.506,-142.994 381.43,-142.994 394.975,-142.994"/>
<polygon fill="midnightblue" stroke="midnightblue" points="395.243,-146.494 405.243,-142.994 395.243,-139.494 395.243,-146.494"/>
</g>
<!-- Node9&#45;&gt;Node6 -->
<g id="edge10" class="edge"><title>Node9&#45;&gt;Node6</title>
<path fill="none" stroke="midnightblue" d="M557.389,-266.159C563.416,-263.134 569.073,-259.458 574,-254.994 606.844,-225.232 576.337,-190.825 610,-161.994 617.32,-155.724 626.235,-151.381 635.533,-148.399"/>
<polygon fill="midnightblue" stroke="midnightblue" points="636.569,-151.744 645.311,-145.759 634.745,-144.986 636.569,-151.744"/>
</g>
<!-- Node10 -->
<g id="node10" class="node"><title>Node10</title>
<g id="a_node10"><a xlink:href="../../d2/d17/classmodel_1_1_simulation.html#a8e66f9dff5f29f97efb58d49193e0e1f" target="_top" xlink:title="model.Simulation.getCurrentGrid">
<polygon fill="white" stroke="black" points="610.5,-247.494 610.5,-266.494 785.5,-266.494 785.5,-247.494 610.5,-247.494"/>
<text text-anchor="middle" x="698" y="-254.494" font-family="Helvetica,sans-Serif" font-size="10.00">model.Simulation.getCurrentGrid</text>
</a>
</g>
</g>
<!-- Node9&#45;&gt;Node10 -->
<g id="edge11" class="edge"><title>Node9&#45;&gt;Node10</title>
<path fill="none" stroke="midnightblue" d="M557.005,-272.111C570.899,-270.61 585.64,-269.019 600.141,-267.453"/>
<polygon fill="midnightblue" stroke="midnightblue" points="600.562,-270.928 610.128,-266.374 599.81,-263.968 600.562,-270.928"/>
</g>
<!-- Node11 -->
<g id="node11" class="node"><title>Node11</title>
<g id="a_node11"><a xlink:href="../../d3/d57/classmodel_1_1_cell.html#ae3edf2d4d7cc0314b5813d12dc8034f5" target="_top" xlink:title="model.Cell.getKey">
<polygon fill="white" stroke="black" points="647,-285.494 647,-304.494 749,-304.494 749,-285.494 647,-285.494"/>
<text text-anchor="middle" x="698" y="-292.494" font-family="Helvetica,sans-Serif" font-size="10.00">model.Cell.getKey</text>
</a>
</g>
</g>
<!-- Node9&#45;&gt;Node11 -->
<g id="edge12" class="edge"><title>Node9&#45;&gt;Node11</title>
<path fill="none" stroke="midnightblue" d="M557.005,-285.135C583.042,-286.969 612.054,-289.012 636.885,-290.76"/>
<polygon fill="midnightblue" stroke="midnightblue" points="636.67,-294.254 646.892,-291.465 637.162,-287.271 636.67,-294.254"/>
</g>
<!-- Node12&#45;&gt;Node4 -->
<g id="edge17" class="edge"><title>Node12&#45;&gt;Node4</title>
<path fill="none" stroke="midnightblue" d="M557.267,-226.401C563.319,-223.677 569.016,-220.263 574,-215.994 607.348,-187.432 577.069,-153.036 610,-123.994 613.445,-120.955 617.251,-118.325 621.288,-116.049"/>
<polygon fill="midnightblue" stroke="midnightblue" points="622.973,-119.122 630.447,-111.612 619.921,-112.822 622.973,-119.122"/>
</g>
<!-- Node12&#45;&gt;Node10 -->
<g id="edge16" class="edge"><title>Node12&#45;&gt;Node10</title>
<path fill="none" stroke="midnightblue" d="M574.022,-244.869C582.673,-245.722 591.472,-246.59 600.184,-247.448"/>
<polygon fill="midnightblue" stroke="midnightblue" points="600.061,-250.953 610.356,-248.451 600.748,-243.987 600.061,-250.953"/>
</g>
<!-- Node13 -->
<g id="node13" class="node"><title>Node13</title>
<g id="a_node13"><a xlink:href="../../dc/d8f/classmodel_1_1_grid.html#a9e11c6171839cc24ba2b1d86b185912f" target="_top" xlink:title="model.Grid.putCell">
<polygon fill="white" stroke="black" points="645.5,-209.494 645.5,-228.494 750.5,-228.494 750.5,-209.494 645.5,-209.494"/>
<text text-anchor="middle" x="698" y="-216.494" font-family="Helvetica,sans-Serif" font-size="10.00">model.Grid.putCell</text>
</a>
</g>
</g>
<!-- Node12&#45;&gt;Node13 -->
<g id="edge18" class="edge"><title>Node12&#45;&gt;Node13</title>
<path fill="none" stroke="midnightblue" d="M574.022,-228.809C594.618,-227.165 616.057,-225.454 635.156,-223.93"/>
<polygon fill="midnightblue" stroke="midnightblue" points="635.518,-227.412 645.208,-223.127 634.961,-220.434 635.518,-227.412"/>
</g>
<!-- Node14&#45;&gt;Node4 -->
<g id="edge23" class="edge"><title>Node14&#45;&gt;Node4</title>
<path fill="none" stroke="midnightblue" d="M554.597,-176.906C561.407,-174.133 568.002,-170.858 574,-166.994 594.952,-153.494 588.892,-137.249 610,-123.994 615.673,-120.431 621.895,-117.445 628.322,-114.941"/>
<polygon fill="midnightblue" stroke="midnightblue" points="629.561,-118.216 637.843,-111.608 627.248,-111.609 629.561,-118.216"/>
</g>
<!-- Node14&#45;&gt;Node6 -->
<g id="edge21" class="edge"><title>Node14&#45;&gt;Node6</title>
<path fill="none" stroke="midnightblue" d="M546.111,-176.961C566.452,-172.104 589.173,-166.747 610,-161.994 620.617,-159.571 631.978,-157.043 642.869,-154.651"/>
<polygon fill="midnightblue" stroke="midnightblue" points="643.684,-158.056 652.705,-152.499 642.188,-151.217 643.684,-158.056"/>
</g>
<!-- Node14&#45;&gt;Node10 -->
<g id="edge22" class="edge"><title>Node14&#45;&gt;Node10</title>
<path fill="none" stroke="midnightblue" d="M546.203,-207.011C555.654,-209.938 565.186,-213.272 574,-216.994 591.065,-224.199 592.741,-231.269 610,-237.994 616.734,-240.618 623.911,-242.917 631.143,-244.923"/>
<polygon fill="midnightblue" stroke="midnightblue" points="630.444,-248.357 641.003,-247.479 632.201,-241.581 630.444,-248.357"/>
</g>
<!-- Node14&#45;&gt;Node13 -->
<g id="edge24" class="edge"><title>Node14&#45;&gt;Node13</title>
<path fill="none" stroke="midnightblue" d="M562.104,-201.894C586.305,-204.962 612.618,-208.297 635.524,-211.201"/>
<polygon fill="midnightblue" stroke="midnightblue" points="635.091,-214.674 645.451,-212.459 635.971,-207.73 635.091,-214.674"/>
</g>
<!-- Node15 -->
<g id="node15" class="node"><title>Node15</title>
<g id="a_node15"><a xlink:href="../../d3/d57/classmodel_1_1_cell.html#a16fd95430857f2f07371364b0015a32d" target="_top" xlink:title="model.Cell.changeToEmptyCell">
<polygon fill="white" stroke="black" points="616.5,-171.494 616.5,-190.494 779.5,-190.494 779.5,-171.494 616.5,-171.494"/>
<text text-anchor="middle" x="698" y="-178.494" font-family="Helvetica,sans-Serif" font-size="10.00">model.Cell.changeToEmptyCell</text>
</a>
</g>
</g>
<!-- Node14&#45;&gt;Node15 -->
<g id="edge20" class="edge"><title>Node14&#45;&gt;Node15</title>
<path fill="none" stroke="midnightblue" d="M562.104,-187.96C576.478,-187.218 591.596,-186.437 606.303,-185.678"/>
<polygon fill="midnightblue" stroke="midnightblue" points="606.599,-189.167 616.405,-185.156 606.238,-182.176 606.599,-189.167"/>
</g>
<!-- Node16&#45;&gt;Node4 -->
<g id="edge26" class="edge"><title>Node16&#45;&gt;Node4</title>
<path fill="none" stroke="midnightblue" d="M560.597,-128.25C585.956,-123.368 613.777,-118.013 637.641,-113.42"/>
<polygon fill="midnightblue" stroke="midnightblue" points="638.45,-116.828 647.608,-111.501 637.127,-109.954 638.45,-116.828"/>
</g>
<!-- Node16&#45;&gt;Node6 -->
<g id="edge27" class="edge"><title>Node16&#45;&gt;Node6</title>
<path fill="none" stroke="midnightblue" d="M560.597,-142.994C585.116,-142.994 611.936,-142.994 635.256,-142.994"/>
<polygon fill="midnightblue" stroke="midnightblue" points="635.36,-146.494 645.36,-142.994 635.36,-139.494 635.36,-146.494"/>
</g>
<!-- Node16&#45;&gt;Node7 -->
<g id="edge28" class="edge"><title>Node16&#45;&gt;Node7</title>
<path fill="none" stroke="midnightblue" d="M512.438,-127.792C537.598,-114.746 575.561,-96.0401 610,-82.9938 622.292,-78.3372 635.839,-74.0548 648.508,-70.3991"/>
<polygon fill="midnightblue" stroke="midnightblue" points="649.761,-73.6827 658.44,-67.6065 647.866,-66.944 649.761,-73.6827"/>
</g>
</g>
</svg>
        <g id="navigator" transform="translate(0 0)" fill="#404254">
                <rect fill="#f2f5e9" fill-opacity="0.5" stroke="#606060" stroke-width=".5" x="0" y="0" width="60" height="60"/>
                <use id="zoomplus" xlink:href="#zoomPlus" x="17" y="9" onmousedown="handleZoom(evt,'in')"/>
                <use id="zoomminus" xlink:href="#zoomMin" x="42" y="9" onmousedown="handleZoom(evt,'out')"/>
                <use id="reset" xlink:href="#resetDef" x="30" y="36" onmousedown="handleReset()"/>
                <g id="arrowUp" xlink:href="#dirArrow" transform="translate(30 24)" onmousedown="handlePan(0,-1)">
                  <use xlink:href="#rim" fill="#404040">
                        <set attributeName="fill" to="#808080" begin="arrowUp.mouseover" end="arrowUp.mouseout"/>
                  </use>
                  <path fill="none" stroke="white" stroke-width="1.5" d="M0,-3.0v7 M-2.5,-0.5L0,-3.0L2.5,-0.5"/>
                </g>
                <g id="arrowRight" xlink:href="#dirArrow" transform="rotate(90) translate(36 -43)" onmousedown="handlePan(1,0)">
                  <use xlink:href="#rim" fill="#404040">
                        <set attributeName="fill" to="#808080" begin="arrowRight.mouseover" end="arrowRight.mouseout"/>
                  </use>
                  <path fill="none" stroke="white" stroke-width="1.5" d="M0,-3.0v7 M-2.5,-0.5L0,-3.0L2.5,-0.5"/>
                </g>
                <g id="arrowDown" xlink:href="#dirArrow" transform="rotate(180) translate(-30 -48)" onmousedown="handlePan(0,1)">
                  <use xlink:href="#rim" fill="#404040">
                        <set attributeName="fill" to="#808080" begin="arrowDown.mouseover" end="arrowDown.mouseout"/>
                  </use>
                  <path fill="none" stroke="white" stroke-width="1.5" d="M0,-3.0v7 M-2.5,-0.5L0,-3.0L2.5,-0.5"/>
                </g>
                <g id="arrowLeft" xlink:href="#dirArrow" transform="rotate(270) translate(-36 17)" onmousedown="handlePan(-1,0)">
                  <use xlink:href="#rim" fill="#404040">
                        <set attributeName="fill" to="#808080" begin="arrowLeft.mouseover" end="arrowLeft.mouseout"/>
                  </use>
                  <path fill="none" stroke="white" stroke-width="1.5" d="M0,-3.0v7 M-2.5,-0.5L0,-3.0L2.5,-0.5"/>
                </g>
        </g>
        <svg viewBox="0 0 15 15" width="100%" height="30px" preserveAspectRatio="xMaxYMin meet">
         <g id="arrow_out" transform="scale(0.3 0.3)">
          <a xlink:href="classmodel_1_1_wator_simulation_ab1a02dcfc6d897735f1b90c728668aee_cgraph_org.svg" target="_base">
           <rect id="button" ry="5" rx="5" y="6" x="6" height="38" width="38"
                fill="#f2f5e9" fill-opacity="0.5" stroke="#606060" stroke-width="1.0"/>
           <path id="arrow"
             d="M 11.500037,31.436501 C 11.940474,20.09759 22.043105,11.32322 32.158766,21.979434 L 37.068811,17.246167 C 37.068811,17.246167 37.088388,32 37.088388,32 L 22.160133,31.978069 C 22.160133,31.978069 26.997745,27.140456 26.997745,27.140456 C 18.528582,18.264221 13.291696,25.230495 11.500037,31.436501 z"
             style="fill:#404040;"/>
          </a>
         </g>
        </svg>
</svg>
