<?xml version="1.0" encoding="UTF-8" standalone="no"?>
<!DOCTYPE svg PUBLIC "-//W3C//DTD SVG 1.1//EN"
 "http://www.w3.org/Graphics/SVG/1.1/DTD/svg11.dtd">
<!-- Generated by graphviz version 2.36.0 (20140111.2315)
 -->
<!-- Title: model.WatorSimulation.canReproduce Pages: 1 -->
<svg width="368pt" height="104pt"
 viewBox="0.00 0.00 368.00 104.00" xmlns="http://www.w3.org/2000/svg" xmlns:xlink="http://www.w3.org/1999/xlink">
<g id="graph0" class="graph" transform="scale(1 1) rotate(0) translate(4 100)">
<title>model.WatorSimulation.canReproduce</title>
<polygon fill="white" stroke="none" points="-4,4 -4,-100 364,-100 364,4 -4,4"/>
<!-- Node1 -->
<g id="node1" class="node"><title>Node1</title>
<polygon fill="#bfbfbf" stroke="black" points="0,-33 0,-63 148,-63 148,-33 0,-33"/>
<text text-anchor="start" x="8" y="-51" font-family="Helvetica,sans-Serif" font-size="10.00">model.WatorSimulation.can</text>
<text text-anchor="middle" x="74" y="-40" font-family="Helvetica,sans-Serif" font-size="10.00">Reproduce</text>
</g>
<!-- Node2 -->
<g id="node2" class="node"><title>Node2</title>
<g id="a_node2"><a xlink:href="../../dc/d8f/classmodel_1_1_grid.html#a7308e05b94f35a2f8198f314eb384267" target="_top" xlink:title="model.Grid.getCell">
<polygon fill="white" stroke="black" points="219.5,-76.5 219.5,-95.5 324.5,-95.5 324.5,-76.5 219.5,-76.5"/>
<text text-anchor="middle" x="272" y="-83.5" font-family="Helvetica,sans-Serif" font-size="10.00">model.Grid.getCell</text>
</a>
</g>
</g>
<!-- Node1&#45;&gt;Node2 -->
<g id="edge1" class="edge"><title>Node1&#45;&gt;Node2</title>
<path fill="none" stroke="midnightblue" d="M148.262,-62.2038C169.284,-66.2795 191.931,-70.6702 211.978,-74.5569"/>
<polygon fill="midnightblue" stroke="midnightblue" points="211.412,-78.0124 221.896,-76.4798 212.745,-71.1403 211.412,-78.0124"/>
</g>
<!-- Node3 -->
<g id="node3" class="node"><title>Node3</title>
<g id="a_node3"><a xlink:href="../../d2/d17/classmodel_1_1_simulation.html#a8e66f9dff5f29f97efb58d49193e0e1f" target="_top" xlink:title="model.Simulation.getCurrentGrid">
<polygon fill="white" stroke="black" points="184.5,-38.5 184.5,-57.5 359.5,-57.5 359.5,-38.5 184.5,-38.5"/>
<text text-anchor="middle" x="272" y="-45.5" font-family="Helvetica,sans-Serif" font-size="10.00">model.Simulation.getCurrentGrid</text>
</a>
</g>
</g>
<!-- Node1&#45;&gt;Node3 -->
<g id="edge2" class="edge"><title>Node1&#45;&gt;Node3</title>
<path fill="none" stroke="midnightblue" d="M148.262,-48C156.702,-48 165.405,-48 174.095,-48"/>
<polygon fill="midnightblue" stroke="midnightblue" points="174.276,-51.5001 184.276,-48 174.276,-44.5001 174.276,-51.5001"/>
</g>
<!-- Node4 -->
<g id="node4" class="node"><title>Node4</title>
<g id="a_node4"><a xlink:href="../../d3/d57/classmodel_1_1_cell.html#ae3edf2d4d7cc0314b5813d12dc8034f5" target="_top" xlink:title="model.Cell.getKey">
<polygon fill="white" stroke="black" points="221,-0.5 221,-19.5 323,-19.5 323,-0.5 221,-0.5"/>
<text text-anchor="middle" x="272" y="-7.5" font-family="Helvetica,sans-Serif" font-size="10.00">model.Cell.getKey</text>
</a>
</g>
</g>
<!-- Node1&#45;&gt;Node4 -->
<g id="edge3" class="edge"><title>Node1&#45;&gt;Node4</title>
<path fill="none" stroke="midnightblue" d="M148.262,-33.7962C169.284,-29.7205 191.931,-25.3298 211.978,-21.4431"/>
<polygon fill="midnightblue" stroke="midnightblue" points="212.745,-24.8597 221.896,-19.5202 211.412,-17.9876 212.745,-24.8597"/>
</g>
</g>
</svg>
