<?xml version="1.0" encoding="UTF-8" standalone="no"?>
<!DOCTYPE svg PUBLIC "-//W3C//DTD SVG 1.1//EN"
 "http://www.w3.org/Graphics/SVG/1.1/DTD/svg11.dtd">
<!-- Generated by graphviz version 2.36.0 (20140111.2315)
 -->
<!-- Title: model.WatorSimulation.increaseBreedingTime Pages: 1 -->
<svg width="956pt" height="87pt"
 viewBox="0.00 0.00 956.00 87.00" xmlns="http://www.w3.org/2000/svg" xmlns:xlink="http://www.w3.org/1999/xlink">
<g id="graph0" class="graph" transform="scale(1 1) rotate(0) translate(4 83)">
<title>model.WatorSimulation.increaseBreedingTime</title>
<polygon fill="white" stroke="none" points="-4,4 -4,-83 952,-83 952,4 -4,4"/>
<!-- Node1 -->
<g id="node1" class="node"><title>Node1</title>
<polygon fill="#bfbfbf" stroke="black" points="0.5,-27 0.5,-57 171.5,-57 171.5,-27 0.5,-27"/>
<text text-anchor="start" x="8.5" y="-45" font-family="Helvetica,sans-Serif" font-size="10.00">model.WatorSimulation.increase</text>
<text text-anchor="middle" x="86" y="-34" font-family="Helvetica,sans-Serif" font-size="10.00">BreedingTime</text>
</g>
<!-- Node2 -->
<g id="node2" class="node"><title>Node2</title>
<g id="a_node2"><a xlink:href="../../db/ddc/classmodel_1_1_wator_simulation.html#af44e712c1655e6d268a32bbd1c4db7d9" target="_top" xlink:title="model.WatorSimulation.move\lAndCheckBaby">
<polygon fill="white" stroke="black" points="208,-49 208,-79 366,-79 366,-49 208,-49"/>
<text text-anchor="start" x="216" y="-67" font-family="Helvetica,sans-Serif" font-size="10.00">model.WatorSimulation.move</text>
<text text-anchor="middle" x="287" y="-56" font-family="Helvetica,sans-Serif" font-size="10.00">AndCheckBaby</text>
</a>
</g>
</g>
<!-- Node1&#45;&gt;Node2 -->
<g id="edge1" class="edge"><title>Node1&#45;&gt;Node2</title>
<path fill="none" stroke="midnightblue" d="M181.822,-52.4828C190.491,-53.4413 199.208,-54.4049 207.709,-55.3447"/>
<polygon fill="midnightblue" stroke="midnightblue" points="182.007,-48.982 171.682,-51.3619 181.237,-55.9396 182.007,-48.982"/>
</g>
<!-- Node5 -->
<g id="node5" class="node"><title>Node5</title>
<g id="a_node5"><a xlink:href="../../db/ddc/classmodel_1_1_wator_simulation.html#ab1a02dcfc6d897735f1b90c728668aee" target="_top" xlink:title="model.WatorSimulation.move\lIfEmptyAndCheckBaby">
<polygon fill="white" stroke="black" points="402,-5 402,-35 560,-35 560,-5 402,-5"/>
<text text-anchor="start" x="410" y="-23" font-family="Helvetica,sans-Serif" font-size="10.00">model.WatorSimulation.move</text>
<text text-anchor="middle" x="481" y="-12" font-family="Helvetica,sans-Serif" font-size="10.00">IfEmptyAndCheckBaby</text>
</a>
</g>
</g>
<!-- Node1&#45;&gt;Node5 -->
<g id="edge8" class="edge"><title>Node1&#45;&gt;Node5</title>
<path fill="none" stroke="midnightblue" d="M181.976,-36.6833C249.277,-32.9158 338.483,-27.9221 401.706,-24.3829"/>
<polygon fill="midnightblue" stroke="midnightblue" points="181.58,-33.1999 171.791,-37.2534 181.971,-40.1889 181.58,-33.1999"/>
</g>
<!-- Node3 -->
<g id="node3" class="node"><title>Node3</title>
<g id="a_node3"><a xlink:href="../../db/ddc/classmodel_1_1_wator_simulation.html#a2205211b8ee8357a4687fce7bb25123a" target="_top" xlink:title="model.WatorSimulation.shark\lAction">
<polygon fill="white" stroke="black" points="596.5,-49 596.5,-79 753.5,-79 753.5,-49 596.5,-49"/>
<text text-anchor="start" x="604.5" y="-67" font-family="Helvetica,sans-Serif" font-size="10.00">model.WatorSimulation.shark</text>
<text text-anchor="middle" x="675" y="-56" font-family="Helvetica,sans-Serif" font-size="10.00">Action</text>
</a>
</g>
</g>
<!-- Node2&#45;&gt;Node3 -->
<g id="edge2" class="edge"><title>Node2&#45;&gt;Node3</title>
<path fill="none" stroke="midnightblue" d="M376.14,-64C442.516,-64 532.652,-64 596.333,-64"/>
<polygon fill="midnightblue" stroke="midnightblue" points="376.113,-60.5001 366.113,-64 376.113,-67.5001 376.113,-60.5001"/>
</g>
<!-- Node2&#45;&gt;Node5 -->
<g id="edge4" class="edge"><title>Node2&#45;&gt;Node5</title>
<path fill="none" stroke="midnightblue" d="M363.353,-46.7316C380.226,-42.8648 397.993,-38.7934 414.431,-35.0262"/>
<polygon fill="midnightblue" stroke="midnightblue" points="362.504,-43.3354 353.539,-48.9808 364.068,-50.1585 362.504,-43.3354"/>
</g>
<!-- Node4 -->
<g id="node4" class="node"><title>Node4</title>
<g id="a_node4"><a xlink:href="../../db/ddc/classmodel_1_1_wator_simulation.html#a71ffa6547eb00615e94ba1d708a08281" target="_top" xlink:title="model.WatorSimulation.make\lNextGrid">
<polygon fill="white" stroke="black" points="790,-24 790,-54 948,-54 948,-24 790,-24"/>
<text text-anchor="start" x="798" y="-42" font-family="Helvetica,sans-Serif" font-size="10.00">model.WatorSimulation.make</text>
<text text-anchor="middle" x="869" y="-31" font-family="Helvetica,sans-Serif" font-size="10.00">NextGrid</text>
</a>
</g>
</g>
<!-- Node3&#45;&gt;Node4 -->
<g id="edge3" class="edge"><title>Node3&#45;&gt;Node4</title>
<path fill="none" stroke="midnightblue" d="M763.716,-52.5787C772.435,-51.4434 781.246,-50.2961 789.858,-49.1748"/>
<polygon fill="midnightblue" stroke="midnightblue" points="763.005,-49.1416 753.54,-53.9036 763.909,-56.083 763.005,-49.1416"/>
</g>
<!-- Node5&#45;&gt;Node3 -->
<g id="edge5" class="edge"><title>Node5&#45;&gt;Node3</title>
<path fill="none" stroke="midnightblue" d="M557.353,-37.2684C574.226,-41.1352 591.993,-45.2066 608.431,-48.9738"/>
<polygon fill="midnightblue" stroke="midnightblue" points="558.068,-33.8415 547.539,-35.0192 556.504,-40.6646 558.068,-33.8415"/>
</g>
<!-- Node6 -->
<g id="node6" class="node"><title>Node6</title>
<g id="a_node6"><a xlink:href="../../db/ddc/classmodel_1_1_wator_simulation.html#a1d9c45bb58d3edd46f9cba1d3b479d82" target="_top" xlink:title="model.WatorSimulation.fish\lAction">
<polygon fill="white" stroke="black" points="601.5,-0 601.5,-30 748.5,-30 748.5,-0 601.5,-0"/>
<text text-anchor="start" x="609.5" y="-18" font-family="Helvetica,sans-Serif" font-size="10.00">model.WatorSimulation.fish</text>
<text text-anchor="middle" x="675" y="-7" font-family="Helvetica,sans-Serif" font-size="10.00">Action</text>
</a>
</g>
</g>
<!-- Node5&#45;&gt;Node6 -->
<g id="edge6" class="edge"><title>Node5&#45;&gt;Node6</title>
<path fill="none" stroke="midnightblue" d="M570.369,-17.6987C580.703,-17.4296 591.154,-17.1574 601.242,-16.8947"/>
<polygon fill="midnightblue" stroke="midnightblue" points="569.999,-14.2071 560.094,-17.9663 570.182,-21.2047 569.999,-14.2071"/>
</g>
<!-- Node6&#45;&gt;Node4 -->
<g id="edge7" class="edge"><title>Node6&#45;&gt;Node4</title>
<path fill="none" stroke="midnightblue" d="M758.807,-25.3509C769.114,-26.6392 779.628,-27.9535 789.861,-29.2326"/>
<polygon fill="midnightblue" stroke="midnightblue" points="758.944,-21.8408 748.587,-24.0734 758.076,-28.7868 758.944,-21.8408"/>
</g>
</g>
</svg>
