<?xml version="1.0" encoding="UTF-8" standalone="no"?>
<!DOCTYPE svg PUBLIC "-//W3C//DTD SVG 1.1//EN"
 "http://www.w3.org/Graphics/SVG/1.1/DTD/svg11.dtd">
<!-- Generated by graphviz version 2.36.0 (20140111.2315)
 -->
<!-- Title: model.WatorSimulation.decreaseEnergy Pages: 1 -->
<svg width="396pt" height="142pt"
 viewBox="0.00 0.00 396.00 142.00" xmlns="http://www.w3.org/2000/svg" xmlns:xlink="http://www.w3.org/1999/xlink">
<g id="graph0" class="graph" transform="scale(1 1) rotate(0) translate(4 138)">
<title>model.WatorSimulation.decreaseEnergy</title>
<polygon fill="white" stroke="none" points="-4,4 -4,-138 392,-138 392,4 -4,4"/>
<!-- Node1 -->
<g id="node1" class="node"><title>Node1</title>
<polygon fill="#bfbfbf" stroke="black" points="0.5,-52 0.5,-82 175.5,-82 175.5,-52 0.5,-52"/>
<text text-anchor="start" x="8.5" y="-70" font-family="Helvetica,sans-Serif" font-size="10.00">model.WatorSimulation.decrease</text>
<text text-anchor="middle" x="88" y="-59" font-family="Helvetica,sans-Serif" font-size="10.00">Energy</text>
</g>
<!-- Node2 -->
<g id="node2" class="node"><title>Node2</title>
<g id="a_node2"><a xlink:href="../../dc/d8f/classmodel_1_1_grid.html#a7308e05b94f35a2f8198f314eb384267" target="_top" xlink:title="model.Grid.getCell">
<polygon fill="white" stroke="black" points="247.5,-114.5 247.5,-133.5 352.5,-133.5 352.5,-114.5 247.5,-114.5"/>
<text text-anchor="middle" x="300" y="-121.5" font-family="Helvetica,sans-Serif" font-size="10.00">model.Grid.getCell</text>
</a>
</g>
</g>
<!-- Node1&#45;&gt;Node2 -->
<g id="edge1" class="edge"><title>Node1&#45;&gt;Node2</title>
<path fill="none" stroke="midnightblue" d="M134.587,-82.0924C157.654,-89.4713 186.171,-98.2028 212,-105 221.643,-107.538 231.95,-110.003 241.974,-112.271"/>
<polygon fill="midnightblue" stroke="midnightblue" points="241.347,-115.717 251.868,-114.468 242.865,-108.883 241.347,-115.717"/>
</g>
<!-- Node3 -->
<g id="node3" class="node"><title>Node3</title>
<g id="a_node3"><a xlink:href="../../d2/d17/classmodel_1_1_simulation.html#a8e66f9dff5f29f97efb58d49193e0e1f" target="_top" xlink:title="model.Simulation.getCurrentGrid">
<polygon fill="white" stroke="black" points="212.5,-76.5 212.5,-95.5 387.5,-95.5 387.5,-76.5 212.5,-76.5"/>
<text text-anchor="middle" x="300" y="-83.5" font-family="Helvetica,sans-Serif" font-size="10.00">model.Simulation.getCurrentGrid</text>
</a>
</g>
</g>
<!-- Node1&#45;&gt;Node3 -->
<g id="edge2" class="edge"><title>Node1&#45;&gt;Node3</title>
<path fill="none" stroke="midnightblue" d="M175.627,-74.8377C184.411,-75.6324 193.371,-76.4431 202.253,-77.2467"/>
<polygon fill="midnightblue" stroke="midnightblue" points="201.958,-80.7342 212.233,-78.1496 202.589,-73.7627 201.958,-80.7342"/>
</g>
<!-- Node4 -->
<g id="node4" class="node"><title>Node4</title>
<g id="a_node4"><a xlink:href="../../d2/d17/classmodel_1_1_simulation.html#a0252922993a1cbfd2a23f05f834df1fc" target="_top" xlink:title="model.Simulation.getNextGrid">
<polygon fill="white" stroke="black" points="219.5,-38.5 219.5,-57.5 380.5,-57.5 380.5,-38.5 219.5,-38.5"/>
<text text-anchor="middle" x="300" y="-45.5" font-family="Helvetica,sans-Serif" font-size="10.00">model.Simulation.getNextGrid</text>
</a>
</g>
</g>
<!-- Node1&#45;&gt;Node4 -->
<g id="edge3" class="edge"><title>Node1&#45;&gt;Node4</title>
<path fill="none" stroke="midnightblue" d="M175.627,-59.1623C186.7,-58.1605 198.053,-57.1333 209.175,-56.127"/>
<polygon fill="midnightblue" stroke="midnightblue" points="209.665,-59.5971 219.309,-55.2102 209.034,-52.6256 209.665,-59.5971"/>
</g>
<!-- Node5 -->
<g id="node5" class="node"><title>Node5</title>
<g id="a_node5"><a xlink:href="../../d3/d57/classmodel_1_1_cell.html#a21f51d50e471c093ccba82f974f30032" target="_top" xlink:title="model.Cell.getProperties">
<polygon fill="white" stroke="black" points="233,-0.5 233,-19.5 367,-19.5 367,-0.5 233,-0.5"/>
<text text-anchor="middle" x="300" y="-7.5" font-family="Helvetica,sans-Serif" font-size="10.00">model.Cell.getProperties</text>
</a>
</g>
</g>
<!-- Node1&#45;&gt;Node5 -->
<g id="edge4" class="edge"><title>Node1&#45;&gt;Node5</title>
<path fill="none" stroke="midnightblue" d="M134.587,-51.9076C157.654,-44.5287 186.171,-35.7972 212,-29 221.643,-26.4622 231.95,-23.9971 241.974,-21.7291"/>
<polygon fill="midnightblue" stroke="midnightblue" points="242.865,-25.1166 251.868,-19.5315 241.347,-18.2831 242.865,-25.1166"/>
</g>
</g>
</svg>
