<?xml version="1.0" encoding="UTF-8" standalone="no"?>
<!DOCTYPE svg PUBLIC "-//W3C//DTD SVG 1.1//EN"
 "http://www.w3.org/Graphics/SVG/1.1/DTD/svg11.dtd">
<!-- Generated by graphviz version 2.36.0 (20140111.2315)
 -->
<!-- Title: model.WatorSimulation.removeCreature Pages: 1 -->
<svg width="376pt" height="104pt"
 viewBox="0.00 0.00 376.00 104.00" xmlns="http://www.w3.org/2000/svg" xmlns:xlink="http://www.w3.org/1999/xlink">
<g id="graph0" class="graph" transform="scale(1 1) rotate(0) translate(4 100)">
<title>model.WatorSimulation.removeCreature</title>
<polygon fill="white" stroke="none" points="-4,4 -4,-100 372,-100 372,4 -4,4"/>
<!-- Node1 -->
<g id="node1" class="node"><title>Node1</title>
<polygon fill="#bfbfbf" stroke="black" points="0.5,-33 0.5,-63 167.5,-63 167.5,-33 0.5,-33"/>
<text text-anchor="start" x="8.5" y="-51" font-family="Helvetica,sans-Serif" font-size="10.00">model.WatorSimulation.remove</text>
<text text-anchor="middle" x="84" y="-40" font-family="Helvetica,sans-Serif" font-size="10.00">Creature</text>
</g>
<!-- Node2 -->
<g id="node2" class="node"><title>Node2</title>
<g id="a_node2"><a xlink:href="../../d3/d57/classmodel_1_1_cell.html#a16fd95430857f2f07371364b0015a32d" target="_top" xlink:title="model.Cell.changeToEmptyCell">
<polygon fill="white" stroke="black" points="204.5,-76.5 204.5,-95.5 367.5,-95.5 367.5,-76.5 204.5,-76.5"/>
<text text-anchor="middle" x="286" y="-83.5" font-family="Helvetica,sans-Serif" font-size="10.00">model.Cell.changeToEmptyCell</text>
</a>
</g>
</g>
<!-- Node1&#45;&gt;Node2 -->
<g id="edge1" class="edge"><title>Node1&#45;&gt;Node2</title>
<path fill="none" stroke="midnightblue" d="M164.045,-63.0186C184.314,-66.8697 205.786,-70.9493 224.923,-74.5855"/>
<polygon fill="midnightblue" stroke="midnightblue" points="224.518,-78.0709 234.995,-76.4991 225.824,-71.1939 224.518,-78.0709"/>
</g>
<!-- Node3 -->
<g id="node3" class="node"><title>Node3</title>
<g id="a_node3"><a xlink:href="../../dc/d8f/classmodel_1_1_grid.html#a7308e05b94f35a2f8198f314eb384267" target="_top" xlink:title="model.Grid.getCell">
<polygon fill="white" stroke="black" points="233.5,-38.5 233.5,-57.5 338.5,-57.5 338.5,-38.5 233.5,-38.5"/>
<text text-anchor="middle" x="286" y="-45.5" font-family="Helvetica,sans-Serif" font-size="10.00">model.Grid.getCell</text>
</a>
</g>
</g>
<!-- Node1&#45;&gt;Node3 -->
<g id="edge2" class="edge"><title>Node1&#45;&gt;Node3</title>
<path fill="none" stroke="midnightblue" d="M167.502,-48C186.122,-48 205.576,-48 223.175,-48"/>
<polygon fill="midnightblue" stroke="midnightblue" points="223.302,-51.5001 233.302,-48 223.302,-44.5001 223.302,-51.5001"/>
</g>
<!-- Node4 -->
<g id="node4" class="node"><title>Node4</title>
<g id="a_node4"><a xlink:href="../../d2/d17/classmodel_1_1_simulation.html#a0252922993a1cbfd2a23f05f834df1fc" target="_top" xlink:title="model.Simulation.getNextGrid">
<polygon fill="white" stroke="black" points="205.5,-0.5 205.5,-19.5 366.5,-19.5 366.5,-0.5 205.5,-0.5"/>
<text text-anchor="middle" x="286" y="-7.5" font-family="Helvetica,sans-Serif" font-size="10.00">model.Simulation.getNextGrid</text>
</a>
</g>
</g>
<!-- Node1&#45;&gt;Node4 -->
<g id="edge3" class="edge"><title>Node1&#45;&gt;Node4</title>
<path fill="none" stroke="midnightblue" d="M164.045,-32.9814C184.314,-29.1303 205.786,-25.0507 224.923,-21.4145"/>
<polygon fill="midnightblue" stroke="midnightblue" points="225.824,-24.8061 234.995,-19.5009 224.518,-17.9291 225.824,-24.8061"/>
</g>
</g>
</svg>
