<?xml version="1.0" encoding="UTF-8" standalone="no"?>
<!DOCTYPE svg PUBLIC "-//W3C//DTD SVG 1.1//EN"
 "http://www.w3.org/Graphics/SVG/1.1/DTD/svg11.dtd">
<!-- Generated by graphviz version 2.36.0 (20140111.2315)
 -->
<!-- Title: model.WatorSimulation.canReproduce Pages: 1 -->
<svg width="932pt" height="87pt"
 viewBox="0.00 0.00 932.00 87.00" xmlns="http://www.w3.org/2000/svg" xmlns:xlink="http://www.w3.org/1999/xlink">
<g id="graph0" class="graph" transform="scale(1 1) rotate(0) translate(4 83)">
<title>model.WatorSimulation.canReproduce</title>
<polygon fill="white" stroke="none" points="-4,4 -4,-83 928,-83 928,4 -4,4"/>
<!-- Node1 -->
<g id="node1" class="node"><title>Node1</title>
<polygon fill="#bfbfbf" stroke="black" points="0,-27 0,-57 148,-57 148,-27 0,-27"/>
<text text-anchor="start" x="8" y="-45" font-family="Helvetica,sans-Serif" font-size="10.00">model.WatorSimulation.can</text>
<text text-anchor="middle" x="74" y="-34" font-family="Helvetica,sans-Serif" font-size="10.00">Reproduce</text>
</g>
<!-- Node2 -->
<g id="node2" class="node"><title>Node2</title>
<g id="a_node2"><a xlink:href="../../db/ddc/classmodel_1_1_wator_simulation.html#af44e712c1655e6d268a32bbd1c4db7d9" target="_top" xlink:title="model.WatorSimulation.move\lAndCheckBaby">
<polygon fill="white" stroke="black" points="184,-27 184,-57 342,-57 342,-27 184,-27"/>
<text text-anchor="start" x="192" y="-45" font-family="Helvetica,sans-Serif" font-size="10.00">model.WatorSimulation.move</text>
<text text-anchor="middle" x="263" y="-34" font-family="Helvetica,sans-Serif" font-size="10.00">AndCheckBaby</text>
</a>
</g>
</g>
<!-- Node1&#45;&gt;Node2 -->
<g id="edge1" class="edge"><title>Node1&#45;&gt;Node2</title>
<path fill="none" stroke="midnightblue" d="M158.323,-42C166.762,-42 175.313,-42 183.697,-42"/>
<polygon fill="midnightblue" stroke="midnightblue" points="158.103,-38.5001 148.103,-42 158.102,-45.5001 158.103,-38.5001"/>
</g>
<!-- Node3 -->
<g id="node3" class="node"><title>Node3</title>
<g id="a_node3"><a xlink:href="../../db/ddc/classmodel_1_1_wator_simulation.html#a2205211b8ee8357a4687fce7bb25123a" target="_top" xlink:title="model.WatorSimulation.shark\lAction">
<polygon fill="white" stroke="black" points="572.5,-49 572.5,-79 729.5,-79 729.5,-49 572.5,-49"/>
<text text-anchor="start" x="580.5" y="-67" font-family="Helvetica,sans-Serif" font-size="10.00">model.WatorSimulation.shark</text>
<text text-anchor="middle" x="651" y="-56" font-family="Helvetica,sans-Serif" font-size="10.00">Action</text>
</a>
</g>
</g>
<!-- Node2&#45;&gt;Node3 -->
<g id="edge2" class="edge"><title>Node2&#45;&gt;Node3</title>
<path fill="none" stroke="midnightblue" d="M352.14,-47.0235C418.516,-50.8066 508.652,-55.9439 572.333,-59.5734"/>
<polygon fill="midnightblue" stroke="midnightblue" points="352.296,-43.5268 342.113,-46.452 351.897,-50.5155 352.296,-43.5268"/>
</g>
<!-- Node5 -->
<g id="node5" class="node"><title>Node5</title>
<g id="a_node5"><a xlink:href="../../db/ddc/classmodel_1_1_wator_simulation.html#ab1a02dcfc6d897735f1b90c728668aee" target="_top" xlink:title="model.WatorSimulation.move\lIfEmptyAndCheckBaby">
<polygon fill="white" stroke="black" points="378,-5 378,-35 536,-35 536,-5 378,-5"/>
<text text-anchor="start" x="386" y="-23" font-family="Helvetica,sans-Serif" font-size="10.00">model.WatorSimulation.move</text>
<text text-anchor="middle" x="457" y="-12" font-family="Helvetica,sans-Serif" font-size="10.00">IfEmptyAndCheckBaby</text>
</a>
</g>
</g>
<!-- Node2&#45;&gt;Node5 -->
<g id="edge4" class="edge"><title>Node2&#45;&gt;Node5</title>
<path fill="none" stroke="midnightblue" d="M352.153,-31.8992C360.769,-30.9119 369.47,-29.9149 377.975,-28.9403"/>
<polygon fill="midnightblue" stroke="midnightblue" points="351.63,-28.436 342.094,-33.0518 352.427,-35.3905 351.63,-28.436"/>
</g>
<!-- Node4 -->
<g id="node4" class="node"><title>Node4</title>
<g id="a_node4"><a xlink:href="../../db/ddc/classmodel_1_1_wator_simulation.html#a71ffa6547eb00615e94ba1d708a08281" target="_top" xlink:title="model.WatorSimulation.make\lNextGrid">
<polygon fill="white" stroke="black" points="766,-24 766,-54 924,-54 924,-24 766,-24"/>
<text text-anchor="start" x="774" y="-42" font-family="Helvetica,sans-Serif" font-size="10.00">model.WatorSimulation.make</text>
<text text-anchor="middle" x="845" y="-31" font-family="Helvetica,sans-Serif" font-size="10.00">NextGrid</text>
</a>
</g>
</g>
<!-- Node3&#45;&gt;Node4 -->
<g id="edge3" class="edge"><title>Node3&#45;&gt;Node4</title>
<path fill="none" stroke="midnightblue" d="M739.716,-52.5787C748.435,-51.4434 757.246,-50.2961 765.858,-49.1748"/>
<polygon fill="midnightblue" stroke="midnightblue" points="739.005,-49.1416 729.54,-53.9036 739.909,-56.083 739.005,-49.1416"/>
</g>
<!-- Node5&#45;&gt;Node3 -->
<g id="edge5" class="edge"><title>Node5&#45;&gt;Node3</title>
<path fill="none" stroke="midnightblue" d="M533.353,-37.2684C550.226,-41.1352 567.993,-45.2066 584.431,-48.9738"/>
<polygon fill="midnightblue" stroke="midnightblue" points="534.068,-33.8415 523.539,-35.0192 532.504,-40.6646 534.068,-33.8415"/>
</g>
<!-- Node6 -->
<g id="node6" class="node"><title>Node6</title>
<g id="a_node6"><a xlink:href="../../db/ddc/classmodel_1_1_wator_simulation.html#a1d9c45bb58d3edd46f9cba1d3b479d82" target="_top" xlink:title="model.WatorSimulation.fish\lAction">
<polygon fill="white" stroke="black" points="577.5,-0 577.5,-30 724.5,-30 724.5,-0 577.5,-0"/>
<text text-anchor="start" x="585.5" y="-18" font-family="Helvetica,sans-Serif" font-size="10.00">model.WatorSimulation.fish</text>
<text text-anchor="middle" x="651" y="-7" font-family="Helvetica,sans-Serif" font-size="10.00">Action</text>
</a>
</g>
</g>
<!-- Node5&#45;&gt;Node6 -->
<g id="edge6" class="edge"><title>Node5&#45;&gt;Node6</title>
<path fill="none" stroke="midnightblue" d="M546.369,-17.6987C556.703,-17.4296 567.154,-17.1574 577.242,-16.8947"/>
<polygon fill="midnightblue" stroke="midnightblue" points="545.999,-14.2071 536.094,-17.9663 546.182,-21.2047 545.999,-14.2071"/>
</g>
<!-- Node6&#45;&gt;Node4 -->
<g id="edge7" class="edge"><title>Node6&#45;&gt;Node4</title>
<path fill="none" stroke="midnightblue" d="M734.807,-25.3509C745.114,-26.6392 755.628,-27.9535 765.861,-29.2326"/>
<polygon fill="midnightblue" stroke="midnightblue" points="734.944,-21.8408 724.587,-24.0734 734.076,-28.7868 734.944,-21.8408"/>
</g>
</g>
</svg>
