<?xml version="1.0" encoding="UTF-8" standalone="no"?>
<!DOCTYPE svg PUBLIC "-//W3C//DTD SVG 1.1//EN"
 "http://www.w3.org/Graphics/SVG/1.1/DTD/svg11.dtd">
<!-- Generated by graphviz version 2.36.0 (20140111.2315)
 -->
<!-- Title: model.WatorSimulation.moveAndCheckBaby Pages: 1 -->
<svg width="748pt" height="87pt"
 viewBox="0.00 0.00 748.00 87.00" xmlns="http://www.w3.org/2000/svg" xmlns:xlink="http://www.w3.org/1999/xlink">
<g id="graph0" class="graph" transform="scale(1 1) rotate(0) translate(4 83)">
<title>model.WatorSimulation.moveAndCheckBaby</title>
<polygon fill="white" stroke="none" points="-4,4 -4,-83 744,-83 744,4 -4,4"/>
<!-- Node1 -->
<g id="node1" class="node"><title>Node1</title>
<polygon fill="#bfbfbf" stroke="black" points="0,-27 0,-57 158,-57 158,-27 0,-27"/>
<text text-anchor="start" x="8" y="-45" font-family="Helvetica,sans-Serif" font-size="10.00">model.WatorSimulation.move</text>
<text text-anchor="middle" x="79" y="-34" font-family="Helvetica,sans-Serif" font-size="10.00">AndCheckBaby</text>
</g>
<!-- Node2 -->
<g id="node2" class="node"><title>Node2</title>
<g id="a_node2"><a xlink:href="../../db/ddc/classmodel_1_1_wator_simulation.html#ab1a02dcfc6d897735f1b90c728668aee" target="_top" xlink:title="model.WatorSimulation.move\lIfEmptyAndCheckBaby">
<polygon fill="white" stroke="black" points="194,-5 194,-35 352,-35 352,-5 194,-5"/>
<text text-anchor="start" x="202" y="-23" font-family="Helvetica,sans-Serif" font-size="10.00">model.WatorSimulation.move</text>
<text text-anchor="middle" x="273" y="-12" font-family="Helvetica,sans-Serif" font-size="10.00">IfEmptyAndCheckBaby</text>
</a>
</g>
</g>
<!-- Node1&#45;&gt;Node2 -->
<g id="edge1" class="edge"><title>Node1&#45;&gt;Node2</title>
<path fill="none" stroke="midnightblue" d="M168.153,-31.8992C176.769,-30.9119 185.47,-29.9149 193.975,-28.9403"/>
<polygon fill="midnightblue" stroke="midnightblue" points="167.63,-28.436 158.094,-33.0518 168.427,-35.3905 167.63,-28.436"/>
</g>
<!-- Node3 -->
<g id="node3" class="node"><title>Node3</title>
<g id="a_node3"><a xlink:href="../../db/ddc/classmodel_1_1_wator_simulation.html#a2205211b8ee8357a4687fce7bb25123a" target="_top" xlink:title="model.WatorSimulation.shark\lAction">
<polygon fill="white" stroke="black" points="388.5,-49 388.5,-79 545.5,-79 545.5,-49 388.5,-49"/>
<text text-anchor="start" x="396.5" y="-67" font-family="Helvetica,sans-Serif" font-size="10.00">model.WatorSimulation.shark</text>
<text text-anchor="middle" x="467" y="-56" font-family="Helvetica,sans-Serif" font-size="10.00">Action</text>
</a>
</g>
</g>
<!-- Node1&#45;&gt;Node3 -->
<g id="edge6" class="edge"><title>Node1&#45;&gt;Node3</title>
<path fill="none" stroke="midnightblue" d="M168.14,-47.0235C234.516,-50.8066 324.652,-55.9439 388.333,-59.5734"/>
<polygon fill="midnightblue" stroke="midnightblue" points="168.296,-43.5268 158.113,-46.452 167.897,-50.5155 168.296,-43.5268"/>
</g>
<!-- Node2&#45;&gt;Node3 -->
<g id="edge2" class="edge"><title>Node2&#45;&gt;Node3</title>
<path fill="none" stroke="midnightblue" d="M349.353,-37.2684C366.226,-41.1352 383.993,-45.2066 400.431,-48.9738"/>
<polygon fill="midnightblue" stroke="midnightblue" points="350.068,-33.8415 339.539,-35.0192 348.504,-40.6646 350.068,-33.8415"/>
</g>
<!-- Node5 -->
<g id="node5" class="node"><title>Node5</title>
<g id="a_node5"><a xlink:href="../../db/ddc/classmodel_1_1_wator_simulation.html#a1d9c45bb58d3edd46f9cba1d3b479d82" target="_top" xlink:title="model.WatorSimulation.fish\lAction">
<polygon fill="white" stroke="black" points="393.5,-0 393.5,-30 540.5,-30 540.5,-0 393.5,-0"/>
<text text-anchor="start" x="401.5" y="-18" font-family="Helvetica,sans-Serif" font-size="10.00">model.WatorSimulation.fish</text>
<text text-anchor="middle" x="467" y="-7" font-family="Helvetica,sans-Serif" font-size="10.00">Action</text>
</a>
</g>
</g>
<!-- Node2&#45;&gt;Node5 -->
<g id="edge4" class="edge"><title>Node2&#45;&gt;Node5</title>
<path fill="none" stroke="midnightblue" d="M362.369,-17.6987C372.703,-17.4296 383.154,-17.1574 393.242,-16.8947"/>
<polygon fill="midnightblue" stroke="midnightblue" points="361.999,-14.2071 352.094,-17.9663 362.182,-21.2047 361.999,-14.2071"/>
</g>
<!-- Node4 -->
<g id="node4" class="node"><title>Node4</title>
<g id="a_node4"><a xlink:href="../../db/ddc/classmodel_1_1_wator_simulation.html#a71ffa6547eb00615e94ba1d708a08281" target="_top" xlink:title="model.WatorSimulation.make\lNextGrid">
<polygon fill="white" stroke="black" points="582,-24 582,-54 740,-54 740,-24 582,-24"/>
<text text-anchor="start" x="590" y="-42" font-family="Helvetica,sans-Serif" font-size="10.00">model.WatorSimulation.make</text>
<text text-anchor="middle" x="661" y="-31" font-family="Helvetica,sans-Serif" font-size="10.00">NextGrid</text>
</a>
</g>
</g>
<!-- Node3&#45;&gt;Node4 -->
<g id="edge3" class="edge"><title>Node3&#45;&gt;Node4</title>
<path fill="none" stroke="midnightblue" d="M555.716,-52.5787C564.435,-51.4434 573.246,-50.2961 581.858,-49.1748"/>
<polygon fill="midnightblue" stroke="midnightblue" points="555.005,-49.1416 545.54,-53.9036 555.909,-56.083 555.005,-49.1416"/>
</g>
<!-- Node5&#45;&gt;Node4 -->
<g id="edge5" class="edge"><title>Node5&#45;&gt;Node4</title>
<path fill="none" stroke="midnightblue" d="M550.807,-25.3509C561.114,-26.6392 571.628,-27.9535 581.861,-29.2326"/>
<polygon fill="midnightblue" stroke="midnightblue" points="550.944,-21.8408 540.587,-24.0734 550.076,-28.7868 550.944,-21.8408"/>
</g>
</g>
</svg>
