<?xml version="1.0" encoding="UTF-8" standalone="no"?>
<!DOCTYPE svg PUBLIC "-//W3C//DTD SVG 1.1//EN"
 "http://www.w3.org/Graphics/SVG/1.1/DTD/svg11.dtd">
<!-- Generated by graphviz version 2.36.0 (20140111.2315)
 -->
<!-- Title: model.WatorSimulation.moveCreature Pages: 1 -->
<svg width="942pt" height="87pt"
 viewBox="0.00 0.00 942.00 87.00" xmlns="http://www.w3.org/2000/svg" xmlns:xlink="http://www.w3.org/1999/xlink">
<g id="graph0" class="graph" transform="scale(1 1) rotate(0) translate(4 83)">
<title>model.WatorSimulation.moveCreature</title>
<polygon fill="white" stroke="none" points="-4,4 -4,-83 938,-83 938,4 -4,4"/>
<!-- Node1 -->
<g id="node1" class="node"><title>Node1</title>
<polygon fill="#bfbfbf" stroke="black" points="0,-27 0,-57 158,-57 158,-27 0,-27"/>
<text text-anchor="start" x="8" y="-45" font-family="Helvetica,sans-Serif" font-size="10.00">model.WatorSimulation.move</text>
<text text-anchor="middle" x="79" y="-34" font-family="Helvetica,sans-Serif" font-size="10.00">Creature</text>
</g>
<!-- Node2 -->
<g id="node2" class="node"><title>Node2</title>
<g id="a_node2"><a xlink:href="../../db/ddc/classmodel_1_1_wator_simulation.html#af44e712c1655e6d268a32bbd1c4db7d9" target="_top" xlink:title="model.WatorSimulation.move\lAndCheckBaby">
<polygon fill="white" stroke="black" points="194,-27 194,-57 352,-57 352,-27 194,-27"/>
<text text-anchor="start" x="202" y="-45" font-family="Helvetica,sans-Serif" font-size="10.00">model.WatorSimulation.move</text>
<text text-anchor="middle" x="273" y="-34" font-family="Helvetica,sans-Serif" font-size="10.00">AndCheckBaby</text>
</a>
</g>
</g>
<!-- Node1&#45;&gt;Node2 -->
<g id="edge1" class="edge"><title>Node1&#45;&gt;Node2</title>
<path fill="none" stroke="midnightblue" d="M168.153,-42C176.769,-42 185.47,-42 193.975,-42"/>
<polygon fill="midnightblue" stroke="midnightblue" points="168.094,-38.5001 158.094,-42 168.094,-45.5001 168.094,-38.5001"/>
</g>
<!-- Node3 -->
<g id="node3" class="node"><title>Node3</title>
<g id="a_node3"><a xlink:href="../../db/ddc/classmodel_1_1_wator_simulation.html#ab1a02dcfc6d897735f1b90c728668aee" target="_top" xlink:title="model.WatorSimulation.move\lIfEmptyAndCheckBaby">
<polygon fill="white" stroke="black" points="388,-5 388,-35 546,-35 546,-5 388,-5"/>
<text text-anchor="start" x="396" y="-23" font-family="Helvetica,sans-Serif" font-size="10.00">model.WatorSimulation.move</text>
<text text-anchor="middle" x="467" y="-12" font-family="Helvetica,sans-Serif" font-size="10.00">IfEmptyAndCheckBaby</text>
</a>
</g>
</g>
<!-- Node2&#45;&gt;Node3 -->
<g id="edge2" class="edge"><title>Node2&#45;&gt;Node3</title>
<path fill="none" stroke="midnightblue" d="M362.153,-31.8992C370.769,-30.9119 379.47,-29.9149 387.975,-28.9403"/>
<polygon fill="midnightblue" stroke="midnightblue" points="361.63,-28.436 352.094,-33.0518 362.427,-35.3905 361.63,-28.436"/>
</g>
<!-- Node4 -->
<g id="node4" class="node"><title>Node4</title>
<g id="a_node4"><a xlink:href="../../db/ddc/classmodel_1_1_wator_simulation.html#a2205211b8ee8357a4687fce7bb25123a" target="_top" xlink:title="model.WatorSimulation.shark\lAction">
<polygon fill="white" stroke="black" points="582.5,-49 582.5,-79 739.5,-79 739.5,-49 582.5,-49"/>
<text text-anchor="start" x="590.5" y="-67" font-family="Helvetica,sans-Serif" font-size="10.00">model.WatorSimulation.shark</text>
<text text-anchor="middle" x="661" y="-56" font-family="Helvetica,sans-Serif" font-size="10.00">Action</text>
</a>
</g>
</g>
<!-- Node2&#45;&gt;Node4 -->
<g id="edge7" class="edge"><title>Node2&#45;&gt;Node4</title>
<path fill="none" stroke="midnightblue" d="M362.14,-47.0235C428.516,-50.8066 518.652,-55.9439 582.333,-59.5734"/>
<polygon fill="midnightblue" stroke="midnightblue" points="362.296,-43.5268 352.113,-46.452 361.897,-50.5155 362.296,-43.5268"/>
</g>
<!-- Node3&#45;&gt;Node4 -->
<g id="edge3" class="edge"><title>Node3&#45;&gt;Node4</title>
<path fill="none" stroke="midnightblue" d="M543.353,-37.2684C560.226,-41.1352 577.993,-45.2066 594.431,-48.9738"/>
<polygon fill="midnightblue" stroke="midnightblue" points="544.068,-33.8415 533.539,-35.0192 542.504,-40.6646 544.068,-33.8415"/>
</g>
<!-- Node6 -->
<g id="node6" class="node"><title>Node6</title>
<g id="a_node6"><a xlink:href="../../db/ddc/classmodel_1_1_wator_simulation.html#a1d9c45bb58d3edd46f9cba1d3b479d82" target="_top" xlink:title="model.WatorSimulation.fish\lAction">
<polygon fill="white" stroke="black" points="587.5,-0 587.5,-30 734.5,-30 734.5,-0 587.5,-0"/>
<text text-anchor="start" x="595.5" y="-18" font-family="Helvetica,sans-Serif" font-size="10.00">model.WatorSimulation.fish</text>
<text text-anchor="middle" x="661" y="-7" font-family="Helvetica,sans-Serif" font-size="10.00">Action</text>
</a>
</g>
</g>
<!-- Node3&#45;&gt;Node6 -->
<g id="edge5" class="edge"><title>Node3&#45;&gt;Node6</title>
<path fill="none" stroke="midnightblue" d="M556.369,-17.6987C566.703,-17.4296 577.154,-17.1574 587.242,-16.8947"/>
<polygon fill="midnightblue" stroke="midnightblue" points="555.999,-14.2071 546.094,-17.9663 556.182,-21.2047 555.999,-14.2071"/>
</g>
<!-- Node5 -->
<g id="node5" class="node"><title>Node5</title>
<g id="a_node5"><a xlink:href="../../db/ddc/classmodel_1_1_wator_simulation.html#a71ffa6547eb00615e94ba1d708a08281" target="_top" xlink:title="model.WatorSimulation.make\lNextGrid">
<polygon fill="white" stroke="black" points="776,-24 776,-54 934,-54 934,-24 776,-24"/>
<text text-anchor="start" x="784" y="-42" font-family="Helvetica,sans-Serif" font-size="10.00">model.WatorSimulation.make</text>
<text text-anchor="middle" x="855" y="-31" font-family="Helvetica,sans-Serif" font-size="10.00">NextGrid</text>
</a>
</g>
</g>
<!-- Node4&#45;&gt;Node5 -->
<g id="edge4" class="edge"><title>Node4&#45;&gt;Node5</title>
<path fill="none" stroke="midnightblue" d="M749.716,-52.5787C758.435,-51.4434 767.246,-50.2961 775.858,-49.1748"/>
<polygon fill="midnightblue" stroke="midnightblue" points="749.005,-49.1416 739.54,-53.9036 749.909,-56.083 749.005,-49.1416"/>
</g>
<!-- Node6&#45;&gt;Node5 -->
<g id="edge6" class="edge"><title>Node6&#45;&gt;Node5</title>
<path fill="none" stroke="midnightblue" d="M744.807,-25.3509C755.114,-26.6392 765.628,-27.9535 775.861,-29.2326"/>
<polygon fill="midnightblue" stroke="midnightblue" points="744.944,-21.8408 734.587,-24.0734 744.076,-28.7868 744.944,-21.8408"/>
</g>
</g>
</svg>
