<?xml version="1.0" encoding="UTF-8" standalone="no"?>
<!DOCTYPE svg PUBLIC "-//W3C//DTD SVG 1.1//EN"
 "http://www.w3.org/Graphics/SVG/1.1/DTD/svg11.dtd">
<!-- Generated by graphviz version 2.36.0 (20140111.2315)
 -->
<!-- Title: model.WatorSimulation.resetBreedTime Pages: 1 -->
<svg width="940pt" height="87pt"
 viewBox="0.00 0.00 940.00 87.00" xmlns="http://www.w3.org/2000/svg" xmlns:xlink="http://www.w3.org/1999/xlink">
<g id="graph0" class="graph" transform="scale(1 1) rotate(0) translate(4 83)">
<title>model.WatorSimulation.resetBreedTime</title>
<polygon fill="white" stroke="none" points="-4,4 -4,-83 936,-83 936,4 -4,4"/>
<!-- Node1 -->
<g id="node1" class="node"><title>Node1</title>
<polygon fill="#bfbfbf" stroke="black" points="0.5,-22 0.5,-52 155.5,-52 155.5,-22 0.5,-22"/>
<text text-anchor="start" x="8.5" y="-40" font-family="Helvetica,sans-Serif" font-size="10.00">model.WatorSimulation.reset</text>
<text text-anchor="middle" x="78" y="-29" font-family="Helvetica,sans-Serif" font-size="10.00">BreedTime</text>
</g>
<!-- Node2 -->
<g id="node2" class="node"><title>Node2</title>
<g id="a_node2"><a xlink:href="../../db/ddc/classmodel_1_1_wator_simulation.html#af44e712c1655e6d268a32bbd1c4db7d9" target="_top" xlink:title="model.WatorSimulation.move\lAndCheckBaby">
<polygon fill="white" stroke="black" points="192,-22 192,-52 350,-52 350,-22 192,-22"/>
<text text-anchor="start" x="200" y="-40" font-family="Helvetica,sans-Serif" font-size="10.00">model.WatorSimulation.move</text>
<text text-anchor="middle" x="271" y="-29" font-family="Helvetica,sans-Serif" font-size="10.00">AndCheckBaby</text>
</a>
</g>
</g>
<!-- Node1&#45;&gt;Node2 -->
<g id="edge1" class="edge"><title>Node1&#45;&gt;Node2</title>
<path fill="none" stroke="midnightblue" d="M165.737,-37C174.436,-37 183.234,-37 191.837,-37"/>
<polygon fill="midnightblue" stroke="midnightblue" points="165.587,-33.5001 155.586,-37 165.586,-40.5001 165.587,-33.5001"/>
</g>
<!-- Node3 -->
<g id="node3" class="node"><title>Node3</title>
<g id="a_node3"><a xlink:href="../../db/ddc/classmodel_1_1_wator_simulation.html#ab1a02dcfc6d897735f1b90c728668aee" target="_top" xlink:title="model.WatorSimulation.move\lIfEmptyAndCheckBaby">
<polygon fill="white" stroke="black" points="386,-44 386,-74 544,-74 544,-44 386,-44"/>
<text text-anchor="start" x="394" y="-62" font-family="Helvetica,sans-Serif" font-size="10.00">model.WatorSimulation.move</text>
<text text-anchor="middle" x="465" y="-51" font-family="Helvetica,sans-Serif" font-size="10.00">IfEmptyAndCheckBaby</text>
</a>
</g>
</g>
<!-- Node2&#45;&gt;Node3 -->
<g id="edge2" class="edge"><title>Node2&#45;&gt;Node3</title>
<path fill="none" stroke="midnightblue" d="M360.153,-47.1008C368.769,-48.0881 377.47,-49.0851 385.975,-50.0597"/>
<polygon fill="midnightblue" stroke="midnightblue" points="360.427,-43.6095 350.094,-45.9482 359.63,-50.564 360.427,-43.6095"/>
</g>
<!-- Node6 -->
<g id="node6" class="node"><title>Node6</title>
<g id="a_node6"><a xlink:href="../../db/ddc/classmodel_1_1_wator_simulation.html#a2205211b8ee8357a4687fce7bb25123a" target="_top" xlink:title="model.WatorSimulation.shark\lAction">
<polygon fill="white" stroke="black" points="580.5,-0 580.5,-30 737.5,-30 737.5,-0 580.5,-0"/>
<text text-anchor="start" x="588.5" y="-18" font-family="Helvetica,sans-Serif" font-size="10.00">model.WatorSimulation.shark</text>
<text text-anchor="middle" x="659" y="-7" font-family="Helvetica,sans-Serif" font-size="10.00">Action</text>
</a>
</g>
</g>
<!-- Node2&#45;&gt;Node6 -->
<g id="edge7" class="edge"><title>Node2&#45;&gt;Node6</title>
<path fill="none" stroke="midnightblue" d="M360.14,-31.9765C426.516,-28.1934 516.652,-23.0561 580.333,-19.4266"/>
<polygon fill="midnightblue" stroke="midnightblue" points="359.897,-28.4845 350.113,-32.548 360.296,-35.4732 359.897,-28.4845"/>
</g>
<!-- Node4 -->
<g id="node4" class="node"><title>Node4</title>
<g id="a_node4"><a xlink:href="../../db/ddc/classmodel_1_1_wator_simulation.html#a1d9c45bb58d3edd46f9cba1d3b479d82" target="_top" xlink:title="model.WatorSimulation.fish\lAction">
<polygon fill="white" stroke="black" points="585.5,-49 585.5,-79 732.5,-79 732.5,-49 585.5,-49"/>
<text text-anchor="start" x="593.5" y="-67" font-family="Helvetica,sans-Serif" font-size="10.00">model.WatorSimulation.fish</text>
<text text-anchor="middle" x="659" y="-56" font-family="Helvetica,sans-Serif" font-size="10.00">Action</text>
</a>
</g>
</g>
<!-- Node3&#45;&gt;Node4 -->
<g id="edge3" class="edge"><title>Node3&#45;&gt;Node4</title>
<path fill="none" stroke="midnightblue" d="M554.369,-61.3013C564.703,-61.5704 575.154,-61.8426 585.242,-62.1053"/>
<polygon fill="midnightblue" stroke="midnightblue" points="554.182,-57.7953 544.094,-61.0337 553.999,-64.7929 554.182,-57.7953"/>
</g>
<!-- Node3&#45;&gt;Node6 -->
<g id="edge5" class="edge"><title>Node3&#45;&gt;Node6</title>
<path fill="none" stroke="midnightblue" d="M541.353,-41.7316C558.226,-37.8648 575.993,-33.7934 592.431,-30.0262"/>
<polygon fill="midnightblue" stroke="midnightblue" points="540.504,-38.3354 531.539,-43.9808 542.068,-45.1585 540.504,-38.3354"/>
</g>
<!-- Node5 -->
<g id="node5" class="node"><title>Node5</title>
<g id="a_node5"><a xlink:href="../../db/ddc/classmodel_1_1_wator_simulation.html#a71ffa6547eb00615e94ba1d708a08281" target="_top" xlink:title="model.WatorSimulation.make\lNextGrid">
<polygon fill="white" stroke="black" points="774,-24 774,-54 932,-54 932,-24 774,-24"/>
<text text-anchor="start" x="782" y="-42" font-family="Helvetica,sans-Serif" font-size="10.00">model.WatorSimulation.make</text>
<text text-anchor="middle" x="853" y="-31" font-family="Helvetica,sans-Serif" font-size="10.00">NextGrid</text>
</a>
</g>
</g>
<!-- Node4&#45;&gt;Node5 -->
<g id="edge4" class="edge"><title>Node4&#45;&gt;Node5</title>
<path fill="none" stroke="midnightblue" d="M742.807,-53.2178C753.114,-51.8758 763.628,-50.5068 773.861,-49.1744"/>
<polygon fill="midnightblue" stroke="midnightblue" points="742.051,-49.7866 732.587,-54.5486 742.955,-56.728 742.051,-49.7866"/>
</g>
<!-- Node6&#45;&gt;Node5 -->
<g id="edge6" class="edge"><title>Node6&#45;&gt;Node5</title>
<path fill="none" stroke="midnightblue" d="M747.716,-25.9645C756.435,-27.0544 765.246,-28.1557 773.858,-29.2322"/>
<polygon fill="midnightblue" stroke="midnightblue" points="747.897,-22.46 737.54,-24.6925 747.029,-29.4059 747.897,-22.46"/>
</g>
</g>
</svg>
