<?xml version="1.0" encoding="UTF-8" standalone="no"?>
<!DOCTYPE svg PUBLIC "-//W3C//DTD SVG 1.1//EN"
 "http://www.w3.org/Graphics/SVG/1.1/DTD/svg11.dtd">
<!-- Generated by graphviz version 2.36.0 (20140111.2315)
 -->
<!-- Title: model.WatorSimulation.makeBaby Pages: 1 -->
<svg width="966pt" height="87pt"
 viewBox="0.00 0.00 966.00 87.00" xmlns="http://www.w3.org/2000/svg" xmlns:xlink="http://www.w3.org/1999/xlink">
<g id="graph0" class="graph" transform="scale(1 1) rotate(0) translate(4 83)">
<title>model.WatorSimulation.makeBaby</title>
<polygon fill="white" stroke="none" points="-4,4 -4,-83 962,-83 962,4 -4,4"/>
<!-- Node1 -->
<g id="node1" class="node"><title>Node1</title>
<polygon fill="#bfbfbf" stroke="black" points="0,-32.5 0,-51.5 182,-51.5 182,-32.5 0,-32.5"/>
<text text-anchor="middle" x="91" y="-39.5" font-family="Helvetica,sans-Serif" font-size="10.00">model.WatorSimulation.makeBaby</text>
</g>
<!-- Node2 -->
<g id="node2" class="node"><title>Node2</title>
<g id="a_node2"><a xlink:href="../../db/ddc/classmodel_1_1_wator_simulation.html#af44e712c1655e6d268a32bbd1c4db7d9" target="_top" xlink:title="model.WatorSimulation.move\lAndCheckBaby">
<polygon fill="white" stroke="black" points="218,-27 218,-57 376,-57 376,-27 218,-27"/>
<text text-anchor="start" x="226" y="-45" font-family="Helvetica,sans-Serif" font-size="10.00">model.WatorSimulation.move</text>
<text text-anchor="middle" x="297" y="-34" font-family="Helvetica,sans-Serif" font-size="10.00">AndCheckBaby</text>
</a>
</g>
</g>
<!-- Node1&#45;&gt;Node2 -->
<g id="edge1" class="edge"><title>Node1&#45;&gt;Node2</title>
<path fill="none" stroke="midnightblue" d="M192.195,-42C200.839,-42 209.5,-42 217.93,-42"/>
<polygon fill="midnightblue" stroke="midnightblue" points="192.071,-38.5001 182.071,-42 192.071,-45.5001 192.071,-38.5001"/>
</g>
<!-- Node3 -->
<g id="node3" class="node"><title>Node3</title>
<g id="a_node3"><a xlink:href="../../db/ddc/classmodel_1_1_wator_simulation.html#a2205211b8ee8357a4687fce7bb25123a" target="_top" xlink:title="model.WatorSimulation.shark\lAction">
<polygon fill="white" stroke="black" points="606.5,-49 606.5,-79 763.5,-79 763.5,-49 606.5,-49"/>
<text text-anchor="start" x="614.5" y="-67" font-family="Helvetica,sans-Serif" font-size="10.00">model.WatorSimulation.shark</text>
<text text-anchor="middle" x="685" y="-56" font-family="Helvetica,sans-Serif" font-size="10.00">Action</text>
</a>
</g>
</g>
<!-- Node2&#45;&gt;Node3 -->
<g id="edge2" class="edge"><title>Node2&#45;&gt;Node3</title>
<path fill="none" stroke="midnightblue" d="M386.14,-47.0235C452.516,-50.8066 542.652,-55.9439 606.333,-59.5734"/>
<polygon fill="midnightblue" stroke="midnightblue" points="386.296,-43.5268 376.113,-46.452 385.897,-50.5155 386.296,-43.5268"/>
</g>
<!-- Node5 -->
<g id="node5" class="node"><title>Node5</title>
<g id="a_node5"><a xlink:href="../../db/ddc/classmodel_1_1_wator_simulation.html#ab1a02dcfc6d897735f1b90c728668aee" target="_top" xlink:title="model.WatorSimulation.move\lIfEmptyAndCheckBaby">
<polygon fill="white" stroke="black" points="412,-5 412,-35 570,-35 570,-5 412,-5"/>
<text text-anchor="start" x="420" y="-23" font-family="Helvetica,sans-Serif" font-size="10.00">model.WatorSimulation.move</text>
<text text-anchor="middle" x="491" y="-12" font-family="Helvetica,sans-Serif" font-size="10.00">IfEmptyAndCheckBaby</text>
</a>
</g>
</g>
<!-- Node2&#45;&gt;Node5 -->
<g id="edge4" class="edge"><title>Node2&#45;&gt;Node5</title>
<path fill="none" stroke="midnightblue" d="M386.153,-31.8992C394.769,-30.9119 403.47,-29.9149 411.975,-28.9403"/>
<polygon fill="midnightblue" stroke="midnightblue" points="385.63,-28.436 376.094,-33.0518 386.427,-35.3905 385.63,-28.436"/>
</g>
<!-- Node4 -->
<g id="node4" class="node"><title>Node4</title>
<g id="a_node4"><a xlink:href="../../db/ddc/classmodel_1_1_wator_simulation.html#a71ffa6547eb00615e94ba1d708a08281" target="_top" xlink:title="model.WatorSimulation.make\lNextGrid">
<polygon fill="white" stroke="black" points="800,-24 800,-54 958,-54 958,-24 800,-24"/>
<text text-anchor="start" x="808" y="-42" font-family="Helvetica,sans-Serif" font-size="10.00">model.WatorSimulation.make</text>
<text text-anchor="middle" x="879" y="-31" font-family="Helvetica,sans-Serif" font-size="10.00">NextGrid</text>
</a>
</g>
</g>
<!-- Node3&#45;&gt;Node4 -->
<g id="edge3" class="edge"><title>Node3&#45;&gt;Node4</title>
<path fill="none" stroke="midnightblue" d="M773.716,-52.5787C782.435,-51.4434 791.246,-50.2961 799.858,-49.1748"/>
<polygon fill="midnightblue" stroke="midnightblue" points="773.005,-49.1416 763.54,-53.9036 773.909,-56.083 773.005,-49.1416"/>
</g>
<!-- Node5&#45;&gt;Node3 -->
<g id="edge5" class="edge"><title>Node5&#45;&gt;Node3</title>
<path fill="none" stroke="midnightblue" d="M567.353,-37.2684C584.226,-41.1352 601.993,-45.2066 618.431,-48.9738"/>
<polygon fill="midnightblue" stroke="midnightblue" points="568.068,-33.8415 557.539,-35.0192 566.504,-40.6646 568.068,-33.8415"/>
</g>
<!-- Node6 -->
<g id="node6" class="node"><title>Node6</title>
<g id="a_node6"><a xlink:href="../../db/ddc/classmodel_1_1_wator_simulation.html#a1d9c45bb58d3edd46f9cba1d3b479d82" target="_top" xlink:title="model.WatorSimulation.fish\lAction">
<polygon fill="white" stroke="black" points="611.5,-0 611.5,-30 758.5,-30 758.5,-0 611.5,-0"/>
<text text-anchor="start" x="619.5" y="-18" font-family="Helvetica,sans-Serif" font-size="10.00">model.WatorSimulation.fish</text>
<text text-anchor="middle" x="685" y="-7" font-family="Helvetica,sans-Serif" font-size="10.00">Action</text>
</a>
</g>
</g>
<!-- Node5&#45;&gt;Node6 -->
<g id="edge6" class="edge"><title>Node5&#45;&gt;Node6</title>
<path fill="none" stroke="midnightblue" d="M580.369,-17.6987C590.703,-17.4296 601.154,-17.1574 611.242,-16.8947"/>
<polygon fill="midnightblue" stroke="midnightblue" points="579.999,-14.2071 570.094,-17.9663 580.182,-21.2047 579.999,-14.2071"/>
</g>
<!-- Node6&#45;&gt;Node4 -->
<g id="edge7" class="edge"><title>Node6&#45;&gt;Node4</title>
<path fill="none" stroke="midnightblue" d="M768.807,-25.3509C779.114,-26.6392 789.628,-27.9535 799.861,-29.2326"/>
<polygon fill="midnightblue" stroke="midnightblue" points="768.944,-21.8408 758.587,-24.0734 768.076,-28.7868 768.944,-21.8408"/>
</g>
</g>
</svg>
