<?xml version="1.0" encoding="UTF-8" standalone="no"?>
<!DOCTYPE svg PUBLIC "-//W3C//DTD SVG 1.1//EN"
 "http://www.w3.org/Graphics/SVG/1.1/DTD/svg11.dtd">
<!-- Generated by graphviz version 2.36.0 (20140111.2315)
 -->
<!-- Title: model.WatorSimulation.fishAction Pages: 1 -->
<svg width="978pt" height="529pt"
 viewBox="0.00 0.00 978.00 528.94" xmlns="http://www.w3.org/2000/svg" xmlns:xlink="http://www.w3.org/1999/xlink">
<g id="graph0" class="graph" transform="scale(1 1) rotate(0) translate(4 524.944)">
<title>model.WatorSimulation.fishAction</title>
<polygon fill="white" stroke="none" points="-4,4 -4,-524.944 974,-524.944 974,4 -4,4"/>
<!-- Node1 -->
<g id="node1" class="node"><title>Node1</title>
<polygon fill="#bfbfbf" stroke="black" points="0.5,-184.389 0.5,-214.389 147.5,-214.389 147.5,-184.389 0.5,-184.389"/>
<text text-anchor="start" x="8.5" y="-202.389" font-family="Helvetica,sans-Serif" font-size="10.00">model.WatorSimulation.fish</text>
<text text-anchor="middle" x="74" y="-191.389" font-family="Helvetica,sans-Serif" font-size="10.00">Action</text>
</g>
<!-- Node2 -->
<g id="node2" class="node"><title>Node2</title>
<g id="a_node2"><a xlink:href="../../dc/d8f/classmodel_1_1_grid.html#a7308e05b94f35a2f8198f314eb384267" target="_top" xlink:title="model.Grid.getCell">
<polygon fill="white" stroke="black" points="829.5,-415.889 829.5,-434.889 934.5,-434.889 934.5,-415.889 829.5,-415.889"/>
<text text-anchor="middle" x="882" y="-422.889" font-family="Helvetica,sans-Serif" font-size="10.00">model.Grid.getCell</text>
</a>
</g>
</g>
<!-- Node1&#45;&gt;Node2 -->
<g id="edge1" class="edge"><title>Node1&#45;&gt;Node2</title>
<path fill="none" stroke="midnightblue" d="M99.5971,-214.416C170.364,-256.668 381.849,-376.123 576,-417.389 658.822,-434.993 757.132,-433.732 819.296,-430.301"/>
<polygon fill="midnightblue" stroke="midnightblue" points="819.555,-433.792 829.333,-429.711 819.144,-426.804 819.555,-433.792"/>
</g>
<!-- Node3 -->
<g id="node3" class="node"><title>Node3</title>
<g id="a_node3"><a xlink:href="../../d2/d17/classmodel_1_1_simulation.html#a8e66f9dff5f29f97efb58d49193e0e1f" target="_top" xlink:title="model.Simulation.getCurrentGrid">
<polygon fill="white" stroke="black" points="794.5,-453.889 794.5,-472.889 969.5,-472.889 969.5,-453.889 794.5,-453.889"/>
<text text-anchor="middle" x="882" y="-460.889" font-family="Helvetica,sans-Serif" font-size="10.00">model.Simulation.getCurrentGrid</text>
</a>
</g>
</g>
<!-- Node1&#45;&gt;Node3 -->
<g id="edge2" class="edge"><title>Node1&#45;&gt;Node3</title>
<path fill="none" stroke="midnightblue" d="M86.2575,-214.757C104.559,-238.902 142.877,-286.088 184,-316.389 339.711,-431.122 387.444,-462.307 576,-505.389 654.857,-523.407 680.357,-528.074 758,-505.389 776.225,-500.064 776.452,-489.639 794,-482.389 800.24,-479.811 806.883,-477.56 813.61,-475.599"/>
<polygon fill="midnightblue" stroke="midnightblue" points="814.748,-478.917 823.488,-472.929 812.921,-472.159 814.748,-478.917"/>
</g>
<!-- Node4 -->
<g id="node4" class="node"><title>Node4</title>
<g id="a_node4"><a xlink:href="../../d2/d17/classmodel_1_1_simulation.html#a0252922993a1cbfd2a23f05f834df1fc" target="_top" xlink:title="model.Simulation.getNextGrid">
<polygon fill="white" stroke="black" points="801.5,-257.889 801.5,-276.889 962.5,-276.889 962.5,-257.889 801.5,-257.889"/>
<text text-anchor="middle" x="882" y="-264.889" font-family="Helvetica,sans-Serif" font-size="10.00">model.Simulation.getNextGrid</text>
</a>
</g>
</g>
<!-- Node1&#45;&gt;Node4 -->
<g id="edge3" class="edge"><title>Node1&#45;&gt;Node4</title>
<path fill="none" stroke="midnightblue" d="M113.923,-184.221C170.853,-162.931 280.654,-125.239 378,-111.389 545.226,-87.5971 623.885,-14.7069 758,-117.389 802.211,-151.239 755.435,-197.225 794,-237.389 800.735,-244.403 809.184,-249.777 818.152,-253.895"/>
<polygon fill="midnightblue" stroke="midnightblue" points="817.054,-257.227 827.636,-257.748 819.689,-250.742 817.054,-257.227"/>
</g>
<!-- Node5 -->
<g id="node5" class="node"><title>Node5</title>
<g id="a_node5"><a xlink:href="../../d3/d57/classmodel_1_1_cell.html#a21f51d50e471c093ccba82f974f30032" target="_top" xlink:title="model.Cell.getProperties">
<polygon fill="white" stroke="black" points="815,-208.889 815,-227.889 949,-227.889 949,-208.889 815,-208.889"/>
<text text-anchor="middle" x="882" y="-215.889" font-family="Helvetica,sans-Serif" font-size="10.00">model.Cell.getProperties</text>
</a>
</g>
</g>
<!-- Node1&#45;&gt;Node5 -->
<g id="edge4" class="edge"><title>Node1&#45;&gt;Node5</title>
<path fill="none" stroke="midnightblue" d="M82.9708,-184.195C98.2709,-156.896 134.664,-100.348 184,-78.3892 417.068,25.3467 525.581,26.7923 758,-78.3892 813.588,-103.546 854.027,-167.615 871.469,-199.612"/>
<polygon fill="midnightblue" stroke="midnightblue" points="868.548,-201.577 876.314,-208.784 874.738,-198.307 868.548,-201.577"/>
</g>
<!-- Node6 -->
<g id="node6" class="node"><title>Node6</title>
<g id="a_node6"><a xlink:href="../../db/ddc/classmodel_1_1_wator_simulation.html#ab1a02dcfc6d897735f1b90c728668aee" target="_top" xlink:title="model.WatorSimulation.move\lIfEmptyAndCheckBaby">
<polygon fill="white" stroke="black" points="184,-184.389 184,-214.389 342,-214.389 342,-184.389 184,-184.389"/>
<text text-anchor="start" x="192" y="-202.389" font-family="Helvetica,sans-Serif" font-size="10.00">model.WatorSimulation.move</text>
<text text-anchor="middle" x="263" y="-191.389" font-family="Helvetica,sans-Serif" font-size="10.00">IfEmptyAndCheckBaby</text>
</a>
</g>
</g>
<!-- Node1&#45;&gt;Node6 -->
<g id="edge5" class="edge"><title>Node1&#45;&gt;Node6</title>
<path fill="none" stroke="midnightblue" d="M147.567,-199.389C156.126,-199.389 164.933,-199.389 173.679,-199.389"/>
<polygon fill="midnightblue" stroke="midnightblue" points="173.899,-202.889 183.899,-199.389 173.899,-195.889 173.899,-202.889"/>
</g>
<!-- Node6&#45;&gt;Node4 -->
<g id="edge6" class="edge"><title>Node6&#45;&gt;Node4</title>
<path fill="none" stroke="midnightblue" d="M342.327,-190.214C462.688,-177.481 686.693,-159.598 758,-193.389 780.833,-204.209 773.269,-222.944 794,-237.389 804.447,-244.668 816.821,-250.323 828.91,-254.659"/>
<polygon fill="midnightblue" stroke="midnightblue" points="827.907,-258.014 838.501,-257.859 830.123,-251.374 827.907,-258.014"/>
</g>
<!-- Node7 -->
<g id="node7" class="node"><title>Node7</title>
<g id="a_node7"><a xlink:href="../../dc/d8f/classmodel_1_1_grid.html#a7c79270cb5329121d7e66fa3178bc969" target="_top" xlink:title="model.Grid.getDirectLocations\lWithType">
<polygon fill="white" stroke="black" points="378,-121.389 378,-151.389 540,-151.389 540,-121.389 378,-121.389"/>
<text text-anchor="start" x="386" y="-139.389" font-family="Helvetica,sans-Serif" font-size="10.00">model.Grid.getDirectLocations</text>
<text text-anchor="middle" x="459" y="-128.389" font-family="Helvetica,sans-Serif" font-size="10.00">WithType</text>
</a>
</g>
</g>
<!-- Node6&#45;&gt;Node7 -->
<g id="edge7" class="edge"><title>Node6&#45;&gt;Node7</title>
<path fill="none" stroke="midnightblue" d="M310.468,-184.299C337.962,-175.371 372.971,-164.002 401.985,-154.58"/>
<polygon fill="midnightblue" stroke="midnightblue" points="403.146,-157.883 411.576,-151.465 400.983,-151.225 403.146,-157.883"/>
</g>
<!-- Node9 -->
<g id="node9" class="node"><title>Node9</title>
<g id="a_node9"><a xlink:href="../../db/ddc/classmodel_1_1_wator_simulation.html#af44e712c1655e6d268a32bbd1c4db7d9" target="_top" xlink:title="model.WatorSimulation.move\lAndCheckBaby">
<polygon fill="white" stroke="black" points="380,-296.389 380,-326.389 538,-326.389 538,-296.389 380,-296.389"/>
<text text-anchor="start" x="388" y="-314.389" font-family="Helvetica,sans-Serif" font-size="10.00">model.WatorSimulation.move</text>
<text text-anchor="middle" x="459" y="-303.389" font-family="Helvetica,sans-Serif" font-size="10.00">AndCheckBaby</text>
</a>
</g>
</g>
<!-- Node6&#45;&gt;Node9 -->
<g id="edge9" class="edge"><title>Node6&#45;&gt;Node9</title>
<path fill="none" stroke="midnightblue" d="M290.164,-214.494C324.538,-234.339 385.007,-269.249 423.208,-291.303"/>
<polygon fill="midnightblue" stroke="midnightblue" points="421.531,-294.377 431.942,-296.345 425.031,-288.314 421.531,-294.377"/>
</g>
<!-- Node17 -->
<g id="node17" class="node"><title>Node17</title>
<g id="a_node17"><a xlink:href="../../db/ddc/classmodel_1_1_wator_simulation.html#ad7ba22a6c88c4944182c8a5ba53366fb" target="_top" xlink:title="model.WatorSimulation.increase\lBreedingTime">
<polygon fill="white" stroke="black" points="581.5,-203.389 581.5,-233.389 752.5,-233.389 752.5,-203.389 581.5,-203.389"/>
<text text-anchor="start" x="589.5" y="-221.389" font-family="Helvetica,sans-Serif" font-size="10.00">model.WatorSimulation.increase</text>
<text text-anchor="middle" x="667" y="-210.389" font-family="Helvetica,sans-Serif" font-size="10.00">BreedingTime</text>
</a>
</g>
</g>
<!-- Node6&#45;&gt;Node17 -->
<g id="edge33" class="edge"><title>Node6&#45;&gt;Node17</title>
<path fill="none" stroke="midnightblue" d="M342.464,-203.098C408.017,-206.196 501.689,-210.623 571.385,-213.917"/>
<polygon fill="midnightblue" stroke="midnightblue" points="571.334,-217.419 581.488,-214.395 571.665,-210.427 571.334,-217.419"/>
</g>
<!-- Node8 -->
<g id="node8" class="node"><title>Node8</title>
<g id="a_node8"><a xlink:href="../../dc/d8f/classmodel_1_1_grid.html#a7fd07edd38cb4fbc123431255df70a84" target="_top" xlink:title="model.Grid.inBounds">
<polygon fill="white" stroke="black" points="609,-126.889 609,-145.889 725,-145.889 725,-126.889 609,-126.889"/>
<text text-anchor="middle" x="667" y="-133.889" font-family="Helvetica,sans-Serif" font-size="10.00">model.Grid.inBounds</text>
</a>
</g>
</g>
<!-- Node7&#45;&gt;Node8 -->
<g id="edge8" class="edge"><title>Node7&#45;&gt;Node8</title>
<path fill="none" stroke="midnightblue" d="M540.235,-136.389C559.585,-136.389 580.063,-136.389 598.749,-136.389"/>
<polygon fill="midnightblue" stroke="midnightblue" points="598.927,-139.889 608.927,-136.389 598.927,-132.889 598.927,-139.889"/>
</g>
<!-- Node9&#45;&gt;Node4 -->
<g id="edge14" class="edge"><title>Node9&#45;&gt;Node4</title>
<path fill="none" stroke="midnightblue" d="M538.067,-308.834C598.336,-306.213 683.704,-301.092 758,-291.389 781.466,-288.325 807.197,-283.531 829.032,-279.032"/>
<polygon fill="midnightblue" stroke="midnightblue" points="830.019,-282.401 839.088,-276.924 828.583,-275.55 830.019,-282.401"/>
</g>
<!-- Node10 -->
<g id="node10" class="node"><title>Node10</title>
<g id="a_node10"><a xlink:href="../../db/ddc/classmodel_1_1_wator_simulation.html#a35418540015ff541b0e3940d9df2f0d5" target="_top" xlink:title="model.WatorSimulation.can\lReproduce">
<polygon fill="white" stroke="black" points="593,-466.389 593,-496.389 741,-496.389 741,-466.389 593,-466.389"/>
<text text-anchor="start" x="601" y="-484.389" font-family="Helvetica,sans-Serif" font-size="10.00">model.WatorSimulation.can</text>
<text text-anchor="middle" x="667" y="-473.389" font-family="Helvetica,sans-Serif" font-size="10.00">Reproduce</text>
</a>
</g>
</g>
<!-- Node9&#45;&gt;Node10 -->
<g id="edge10" class="edge"><title>Node9&#45;&gt;Node10</title>
<path fill="none" stroke="midnightblue" d="M475.222,-326.418C496.896,-347.553 538.219,-386.883 576,-417.389 594.8,-432.569 616.903,-448.314 634.499,-460.389"/>
<polygon fill="midnightblue" stroke="midnightblue" points="633.013,-463.611 643.249,-466.346 636.953,-457.825 633.013,-463.611"/>
</g>
<!-- Node12 -->
<g id="node12" class="node"><title>Node12</title>
<g id="a_node12"><a xlink:href="../../db/ddc/classmodel_1_1_wator_simulation.html#a53aa53cfee9794dff36ebb3292522d5a" target="_top" xlink:title="model.WatorSimulation.move\lCreature">
<polygon fill="white" stroke="black" points="588,-378.389 588,-408.389 746,-408.389 746,-378.389 588,-378.389"/>
<text text-anchor="start" x="596" y="-396.389" font-family="Helvetica,sans-Serif" font-size="10.00">model.WatorSimulation.move</text>
<text text-anchor="middle" x="667" y="-385.389" font-family="Helvetica,sans-Serif" font-size="10.00">Creature</text>
</a>
</g>
</g>
<!-- Node9&#45;&gt;Node12 -->
<g id="edge15" class="edge"><title>Node9&#45;&gt;Node12</title>
<path fill="none" stroke="midnightblue" d="M487.015,-326.453C510.126,-338.901 544.545,-356.411 576,-368.389 582.415,-370.832 589.169,-373.15 595.975,-375.319"/>
<polygon fill="midnightblue" stroke="midnightblue" points="595.362,-378.792 605.949,-378.385 597.419,-372.101 595.362,-378.792"/>
</g>
<!-- Node15 -->
<g id="node15" class="node"><title>Node15</title>
<g id="a_node15"><a xlink:href="../../db/ddc/classmodel_1_1_wator_simulation.html#adf3e1ba2978971c732bd4db24d4acdfc" target="_top" xlink:title="model.WatorSimulation.makeBaby">
<polygon fill="white" stroke="black" points="576,-339.889 576,-358.889 758,-358.889 758,-339.889 576,-339.889"/>
<text text-anchor="middle" x="667" y="-346.889" font-family="Helvetica,sans-Serif" font-size="10.00">model.WatorSimulation.makeBaby</text>
</a>
</g>
</g>
<!-- Node9&#45;&gt;Node15 -->
<g id="edge21" class="edge"><title>Node9&#45;&gt;Node15</title>
<path fill="none" stroke="midnightblue" d="M538.173,-325.81C560.084,-329.851 583.588,-334.187 604.39,-338.024"/>
<polygon fill="midnightblue" stroke="midnightblue" points="603.897,-341.492 614.366,-339.865 605.167,-334.608 603.897,-341.492"/>
</g>
<!-- Node16 -->
<g id="node16" class="node"><title>Node16</title>
<g id="a_node16"><a xlink:href="../../db/ddc/classmodel_1_1_wator_simulation.html#a5584ef42fda846a39a016ff060fd2322" target="_top" xlink:title="model.WatorSimulation.reset\lBreedTime">
<polygon fill="white" stroke="black" points="589.5,-252.389 589.5,-282.389 744.5,-282.389 744.5,-252.389 589.5,-252.389"/>
<text text-anchor="start" x="597.5" y="-270.389" font-family="Helvetica,sans-Serif" font-size="10.00">model.WatorSimulation.reset</text>
<text text-anchor="middle" x="667" y="-259.389" font-family="Helvetica,sans-Serif" font-size="10.00">BreedTime</text>
</a>
</g>
</g>
<!-- Node9&#45;&gt;Node16 -->
<g id="edge25" class="edge"><title>Node9&#45;&gt;Node16</title>
<path fill="none" stroke="midnightblue" d="M530.317,-296.37C548.118,-292.568 567.371,-288.456 585.626,-284.556"/>
<polygon fill="midnightblue" stroke="midnightblue" points="586.602,-287.927 595.65,-282.415 585.14,-281.081 586.602,-287.927"/>
</g>
<!-- Node9&#45;&gt;Node17 -->
<g id="edge29" class="edge"><title>Node9&#45;&gt;Node17</title>
<path fill="none" stroke="midnightblue" d="M481.284,-296.271C503.856,-280.84 541.016,-257.123 576,-242.389 580.937,-240.31 586.103,-238.367 591.356,-236.56"/>
<polygon fill="midnightblue" stroke="midnightblue" points="592.455,-239.883 600.876,-233.454 590.283,-233.229 592.455,-239.883"/>
</g>
<!-- Node10&#45;&gt;Node2 -->
<g id="edge11" class="edge"><title>Node10&#45;&gt;Node2</title>
<path fill="none" stroke="midnightblue" d="M716.244,-466.354C739.617,-459.293 768.157,-450.997 794,-444.389 803.773,-441.89 814.217,-439.431 824.353,-437.153"/>
<polygon fill="midnightblue" stroke="midnightblue" points="825.344,-440.519 834.352,-434.941 823.832,-433.684 825.344,-440.519"/>
</g>
<!-- Node10&#45;&gt;Node3 -->
<g id="edge12" class="edge"><title>Node10&#45;&gt;Node3</title>
<path fill="none" stroke="midnightblue" d="M741.005,-475.22C754.899,-474.046 769.64,-472.8 784.141,-471.574"/>
<polygon fill="midnightblue" stroke="midnightblue" points="784.459,-475.06 794.128,-470.73 783.869,-468.085 784.459,-475.06"/>
</g>
<!-- Node11 -->
<g id="node11" class="node"><title>Node11</title>
<g id="a_node11"><a xlink:href="../../d3/d57/classmodel_1_1_cell.html#ae3edf2d4d7cc0314b5813d12dc8034f5" target="_top" xlink:title="model.Cell.getKey">
<polygon fill="white" stroke="black" points="831,-491.889 831,-510.889 933,-510.889 933,-491.889 831,-491.889"/>
<text text-anchor="middle" x="882" y="-498.889" font-family="Helvetica,sans-Serif" font-size="10.00">model.Cell.getKey</text>
</a>
</g>
</g>
<!-- Node10&#45;&gt;Node11 -->
<g id="edge13" class="edge"><title>Node10&#45;&gt;Node11</title>
<path fill="none" stroke="midnightblue" d="M741.005,-488.244C767.042,-490.689 796.054,-493.413 820.885,-495.745"/>
<polygon fill="midnightblue" stroke="midnightblue" points="820.608,-499.234 830.892,-496.684 821.263,-492.265 820.608,-499.234"/>
</g>
<!-- Node12&#45;&gt;Node2 -->
<g id="edge19" class="edge"><title>Node12&#45;&gt;Node2</title>
<path fill="none" stroke="midnightblue" d="M746.104,-405.123C770.305,-408.759 796.618,-412.712 819.524,-416.153"/>
<polygon fill="midnightblue" stroke="midnightblue" points="819.042,-419.62 829.451,-417.645 820.082,-412.698 819.042,-419.62"/>
</g>
<!-- Node12&#45;&gt;Node3 -->
<g id="edge18" class="edge"><title>Node12&#45;&gt;Node3</title>
<path fill="none" stroke="midnightblue" d="M700.868,-408.486C725.973,-419.574 761.646,-434.388 794,-444.389 802.478,-447.01 811.528,-449.411 820.467,-451.558"/>
<polygon fill="midnightblue" stroke="midnightblue" points="819.945,-455.03 830.476,-453.874 821.522,-448.21 819.945,-455.03"/>
</g>
<!-- Node12&#45;&gt;Node4 -->
<g id="edge16" class="edge"><title>Node12&#45;&gt;Node4</title>
<path fill="none" stroke="midnightblue" d="M737.423,-378.285C744.608,-375.506 751.608,-372.235 758,-368.389 777.934,-356.395 776.503,-345.722 794,-330.389 814.184,-312.701 839.169,-294.991 857.179,-282.873"/>
<polygon fill="midnightblue" stroke="midnightblue" points="859.509,-285.526 865.898,-277.075 855.633,-279.697 859.509,-285.526"/>
</g>
<!-- Node13 -->
<g id="node13" class="node"><title>Node13</title>
<g id="a_node13"><a xlink:href="../../dc/d8f/classmodel_1_1_grid.html#a9e11c6171839cc24ba2b1d86b185912f" target="_top" xlink:title="model.Grid.putCell">
<polygon fill="white" stroke="black" points="829.5,-339.889 829.5,-358.889 934.5,-358.889 934.5,-339.889 829.5,-339.889"/>
<text text-anchor="middle" x="882" y="-346.889" font-family="Helvetica,sans-Serif" font-size="10.00">model.Grid.putCell</text>
</a>
</g>
</g>
<!-- Node12&#45;&gt;Node13 -->
<g id="edge17" class="edge"><title>Node12&#45;&gt;Node13</title>
<path fill="none" stroke="midnightblue" d="M740.707,-378.37C768.263,-372.678 799.186,-366.29 824.973,-360.963"/>
<polygon fill="midnightblue" stroke="midnightblue" points="825.866,-364.352 834.951,-358.902 824.45,-357.497 825.866,-364.352"/>
</g>
<!-- Node14 -->
<g id="node14" class="node"><title>Node14</title>
<g id="a_node14"><a xlink:href="../../d3/d57/classmodel_1_1_cell.html#a16fd95430857f2f07371364b0015a32d" target="_top" xlink:title="model.Cell.changeToEmptyCell">
<polygon fill="white" stroke="black" points="800.5,-377.889 800.5,-396.889 963.5,-396.889 963.5,-377.889 800.5,-377.889"/>
<text text-anchor="middle" x="882" y="-384.889" font-family="Helvetica,sans-Serif" font-size="10.00">model.Cell.changeToEmptyCell</text>
</a>
</g>
</g>
<!-- Node12&#45;&gt;Node14 -->
<g id="edge20" class="edge"><title>Node12&#45;&gt;Node14</title>
<path fill="none" stroke="midnightblue" d="M746.104,-391.189C760.478,-390.784 775.596,-390.358 790.303,-389.944"/>
<polygon fill="midnightblue" stroke="midnightblue" points="790.508,-393.44 800.405,-389.659 790.31,-386.443 790.508,-393.44"/>
</g>
<!-- Node15&#45;&gt;Node3 -->
<g id="edge24" class="edge"><title>Node15&#45;&gt;Node3</title>
<path fill="none" stroke="midnightblue" d="M740.04,-358.999C746.49,-361.704 752.609,-365.11 758,-369.389 786.959,-392.378 764.999,-421.453 794,-444.389 796.198,-446.127 798.521,-447.715 800.94,-449.164"/>
<polygon fill="midnightblue" stroke="midnightblue" points="799.57,-452.395 810.068,-453.829 802.756,-446.161 799.57,-452.395"/>
</g>
<!-- Node15&#45;&gt;Node4 -->
<g id="edge22" class="edge"><title>Node15&#45;&gt;Node4</title>
<path fill="none" stroke="midnightblue" d="M710.158,-339.818C725.416,-335.918 742.661,-330.999 758,-325.389 792.06,-312.933 829.531,-294.542 854.056,-281.824"/>
<polygon fill="midnightblue" stroke="midnightblue" points="855.866,-284.827 863.1,-277.086 852.618,-278.626 855.866,-284.827"/>
</g>
<!-- Node15&#45;&gt;Node13 -->
<g id="edge23" class="edge"><title>Node15&#45;&gt;Node13</title>
<path fill="none" stroke="midnightblue" d="M758.022,-349.389C778.618,-349.389 800.057,-349.389 819.156,-349.389"/>
<polygon fill="midnightblue" stroke="midnightblue" points="819.208,-352.889 829.208,-349.389 819.208,-345.889 819.208,-352.889"/>
</g>
<!-- Node16&#45;&gt;Node2 -->
<g id="edge27" class="edge"><title>Node16&#45;&gt;Node2</title>
<path fill="none" stroke="midnightblue" d="M697.334,-282.631C716.552,-293.786 741.142,-310.425 758,-330.389 782.113,-358.946 764.744,-383.129 794,-406.389 801.455,-412.316 810.359,-416.491 819.584,-419.413"/>
<polygon fill="midnightblue" stroke="midnightblue" points="818.7,-422.8 829.267,-422.027 820.524,-416.042 818.7,-422.8"/>
</g>
<!-- Node16&#45;&gt;Node4 -->
<g id="edge26" class="edge"><title>Node16&#45;&gt;Node4</title>
<path fill="none" stroke="midnightblue" d="M744.597,-267.389C759.762,-267.389 775.807,-267.389 791.359,-267.389"/>
<polygon fill="midnightblue" stroke="midnightblue" points="791.494,-270.889 801.494,-267.389 791.494,-263.889 791.494,-270.889"/>
</g>
<!-- Node16&#45;&gt;Node5 -->
<g id="edge28" class="edge"><title>Node16&#45;&gt;Node5</title>
<path fill="none" stroke="midnightblue" d="M733.355,-252.355C764.312,-245.233 800.752,-236.85 829.683,-230.194"/>
<polygon fill="midnightblue" stroke="midnightblue" points="830.622,-233.57 839.583,-227.917 829.052,-226.748 830.622,-233.57"/>
</g>
<!-- Node17&#45;&gt;Node2 -->
<g id="edge31" class="edge"><title>Node17&#45;&gt;Node2</title>
<path fill="none" stroke="midnightblue" d="M747.151,-233.541C751.097,-236.071 754.759,-239 758,-242.389 809.58,-296.318 741.204,-353.65 794,-406.389 801.055,-413.437 810.078,-418.139 819.629,-421.23"/>
<polygon fill="midnightblue" stroke="midnightblue" points="818.738,-424.615 829.302,-423.812 820.543,-417.852 818.738,-424.615"/>
</g>
<!-- Node17&#45;&gt;Node4 -->
<g id="edge30" class="edge"><title>Node17&#45;&gt;Node4</title>
<path fill="none" stroke="midnightblue" d="M733.355,-233.424C764.312,-240.546 800.752,-248.928 829.683,-255.584"/>
<polygon fill="midnightblue" stroke="midnightblue" points="829.052,-259.03 839.583,-257.861 830.622,-252.208 829.052,-259.03"/>
</g>
<!-- Node17&#45;&gt;Node5 -->
<g id="edge32" class="edge"><title>Node17&#45;&gt;Node5</title>
<path fill="none" stroke="midnightblue" d="M752.795,-218.389C769.896,-218.389 787.777,-218.389 804.571,-218.389"/>
<polygon fill="midnightblue" stroke="midnightblue" points="804.871,-221.889 814.871,-218.389 804.871,-214.889 804.871,-221.889"/>
</g>
</g>
</svg>
