<?xml version="1.0" encoding="UTF-8" standalone="no"?>
<!DOCTYPE svg PUBLIC "-//W3C//DTD SVG 1.1//EN"
 "http://www.w3.org/Graphics/SVG/1.1/DTD/svg11.dtd">
<!-- Generated by graphviz version 2.36.0 (20140111.2315)
 -->
<!-- Title: model.WatorSimulation.sharkAction Pages: 1 -->
<!--zoomable 635 -->
<svg id="main" version="1.1" xmlns="http://www.w3.org/2000/svg" xmlns:xlink="http://www.w3.org/1999/xlink" xml:space="preserve" onload="init(evt)">
<style type="text/css"><![CDATA[
.edge:hover path { stroke: red; }
.edge:hover polygon { stroke: red; fill: red; }
]]></style>
<script type="text/javascript"><![CDATA[
var edges = document.getElementsByTagName('g');
if (edges && edges.length) {
  for (var i=0;i<edges.length;i++) {
    if (edges[i].id.substr(0,4)=='edge') {
      edges[i].setAttribute('class','edge');
    }
  }
}
]]></script>
        <defs>
                <circle id="rim" cx="0" cy="0" r="7"/>
                <circle id="rim2" cx="0" cy="0" r="3.5"/>
                <g id="zoomPlus">
                        <use xlink:href="#rim" fill="#404040">
                                <set attributeName="fill" to="#808080" begin="zoomplus.mouseover" end="zoomplus.mouseout"/>
                        </use>
                        <path d="M-4,0h8M0,-4v8" fill="none" stroke="white" stroke-width="1.5" pointer-events="none"/>
                </g>
                <g id="zoomMin">
                        <use xlink:href="#rim" fill="#404040">
                                <set attributeName="fill" to="#808080" begin="zoomminus.mouseover" end="zoomminus.mouseout"/>
                        </use>
                        <path d="M-4,0h8" fill="none" stroke="white" stroke-width="1.5" pointer-events="none"/>
                </g>
                <g id="dirArrow">
                        <path fill="none" stroke="white" stroke-width="1.5" d="M0,-3.0v7 M-2.5,-0.5L0,-3.0L2.5,-0.5"/>
                </g>
               <g id="resetDef">
                       <use xlink:href="#rim2" fill="#404040">
                               <set attributeName="fill" to="#808080" begin="reset.mouseover" end="reset.mouseout"/>
                       </use>
               </g>
        </defs>

<script type="text/javascript">
var viewWidth = 988;
var viewHeight = 635;
var sectionId = 'dynsection-23';
</script>
<script xlink:href="../../svgpan.js"/>
<svg id="graph" class="graph">
<g id="viewport">
<title>model.WatorSimulation.sharkAction</title>
<polygon fill="white" stroke="none" points="-4,4 -4,-630.769 984,-630.769 984,4 -4,4"/>
<!-- Node1 -->
<g id="node1" class="node"><title>Node1</title>
<polygon fill="#bfbfbf" stroke="black" points="0.5,-386.1 0.5,-416.1 157.5,-416.1 157.5,-386.1 0.5,-386.1"/>
<text text-anchor="start" x="8.5" y="-404.1" font-family="Helvetica,sans-Serif" font-size="10.00">model.WatorSimulation.shark</text>
<text text-anchor="middle" x="79" y="-393.1" font-family="Helvetica,sans-Serif" font-size="10.00">Action</text>
</g>
<!-- Node2 -->
<g id="node2" class="node"><title>Node2</title>
<g id="a_node2"><a xlink:href="../../db/ddc/classmodel_1_1_wator_simulation.html#a0d64d1242b4717fd5b8914b98ed36c95" target="_top" xlink:title="model.WatorSimulation.decrease\lEnergy">
<polygon fill="white" stroke="black" points="589.5,-411.1 589.5,-441.1 764.5,-441.1 764.5,-411.1 589.5,-411.1"/>
<text text-anchor="start" x="597.5" y="-429.1" font-family="Helvetica,sans-Serif" font-size="10.00">model.WatorSimulation.decrease</text>
<text text-anchor="middle" x="677" y="-418.1" font-family="Helvetica,sans-Serif" font-size="10.00">Energy</text>
</a>
</g>
</g>
<!-- Node1&#45;&gt;Node2 -->
<g id="edge1" class="edge"><title>Node1&#45;&gt;Node2</title>
<path fill="none" stroke="midnightblue" d="M157.611,-404.355C265.743,-408.891 461.648,-417.109 579.193,-422.039"/>
<polygon fill="midnightblue" stroke="midnightblue" points="579.129,-425.54 589.267,-422.462 579.423,-418.546 579.129,-425.54"/>
</g>
<!-- Node3 -->
<g id="node3" class="node"><title>Node3</title>
<g id="a_node3"><a xlink:href="../../dc/d8f/classmodel_1_1_grid.html#a7308e05b94f35a2f8198f314eb384267" target="_top" xlink:title="model.Grid.getCell">
<polygon fill="white" stroke="black" points="839.5,-328.6 839.5,-347.6 944.5,-347.6 944.5,-328.6 839.5,-328.6"/>
<text text-anchor="middle" x="892" y="-335.6" font-family="Helvetica,sans-Serif" font-size="10.00">model.Grid.getCell</text>
</a>
</g>
</g>
<!-- Node1&#45;&gt;Node3 -->
<g id="edge6" class="edge"><title>Node1&#45;&gt;Node3</title>
<path fill="none" stroke="midnightblue" d="M157.695,-400.134C285.476,-397.776 547.797,-389.694 768,-362.1 791.776,-359.121 817.859,-354.263 839.864,-349.694"/>
<polygon fill="midnightblue" stroke="midnightblue" points="840.604,-353.115 849.664,-347.623 839.157,-346.267 840.604,-353.115"/>
</g>
<!-- Node4 -->
<g id="node4" class="node"><title>Node4</title>
<g id="a_node4"><a xlink:href="../../d2/d17/classmodel_1_1_simulation.html#a8e66f9dff5f29f97efb58d49193e0e1f" target="_top" xlink:title="model.Simulation.getCurrentGrid">
<polygon fill="white" stroke="black" points="804.5,-378.6 804.5,-397.6 979.5,-397.6 979.5,-378.6 804.5,-378.6"/>
<text text-anchor="middle" x="892" y="-385.6" font-family="Helvetica,sans-Serif" font-size="10.00">model.Simulation.getCurrentGrid</text>
</a>
</g>
</g>
<!-- Node1&#45;&gt;Node4 -->
<g id="edge7" class="edge"><title>Node1&#45;&gt;Node4</title>
<path fill="none" stroke="midnightblue" d="M104.929,-416.291C127.458,-429.401 161.911,-447.938 194,-459.1 315.611,-501.402 665.6,-616.156 768,-538.1 816.02,-501.496 760.184,-448.645 804,-407.1 805.472,-405.704 807.023,-404.401 808.639,-403.185"/>
<polygon fill="midnightblue" stroke="midnightblue" points="810.601,-406.086 817.213,-397.808 806.881,-400.156 810.601,-406.086"/>
</g>
<!-- Node5 -->
<g id="node5" class="node"><title>Node5</title>
<g id="a_node5"><a xlink:href="../../d2/d17/classmodel_1_1_simulation.html#a0252922993a1cbfd2a23f05f834df1fc" target="_top" xlink:title="model.Simulation.getNextGrid">
<polygon fill="white" stroke="black" points="811.5,-191.6 811.5,-210.6 972.5,-210.6 972.5,-191.6 811.5,-191.6"/>
<text text-anchor="middle" x="892" y="-198.6" font-family="Helvetica,sans-Serif" font-size="10.00">model.Simulation.getNextGrid</text>
</a>
</g>
</g>
<!-- Node1&#45;&gt;Node5 -->
<g id="edge11" class="edge"><title>Node1&#45;&gt;Node5</title>
<path fill="none" stroke="midnightblue" d="M92.2405,-385.978C112.02,-362.118 152.956,-315.064 194,-282.1 272.684,-218.905 292.808,-197.614 388,-164.1 547.677,-107.883 603.435,-98.4072 768,-138.1 805.886,-147.238 845.215,-170.144 868.902,-185.667"/>
<polygon fill="midnightblue" stroke="midnightblue" points="867.213,-188.749 877.468,-191.409 871.111,-182.934 867.213,-188.749"/>
</g>
<!-- Node6 -->
<g id="node6" class="node"><title>Node6</title>
<g id="a_node6"><a xlink:href="../../d3/d57/classmodel_1_1_cell.html#a21f51d50e471c093ccba82f974f30032" target="_top" xlink:title="model.Cell.getProperties">
<polygon fill="white" stroke="black" points="825,-416.6 825,-435.6 959,-435.6 959,-416.6 825,-416.6"/>
<text text-anchor="middle" x="892" y="-423.6" font-family="Helvetica,sans-Serif" font-size="10.00">model.Cell.getProperties</text>
</a>
</g>
</g>
<!-- Node1&#45;&gt;Node6 -->
<g id="edge12" class="edge"><title>Node1&#45;&gt;Node6</title>
<path fill="none" stroke="midnightblue" d="M93.5866,-416.226C113.552,-437.55 152.919,-476.281 194,-498.1 350.164,-581.043 409.286,-559.86 586,-566.1 666.839,-568.954 694.306,-599.45 768,-566.1 782.531,-559.524 847.656,-480.013 876.81,-443.829"/>
<polygon fill="midnightblue" stroke="midnightblue" points="879.548,-446.009 883.084,-436.021 874.091,-441.624 879.548,-446.009"/>
</g>
<!-- Node7 -->
<g id="node7" class="node"><title>Node7</title>
<g id="a_node7"><a xlink:href="../../dc/d8f/classmodel_1_1_grid.html#a7c79270cb5329121d7e66fa3178bc969" target="_top" xlink:title="model.Grid.getDirectLocations\lWithType">
<polygon fill="white" stroke="black" points="388,-449.1 388,-479.1 550,-479.1 550,-449.1 388,-449.1"/>
<text text-anchor="start" x="396" y="-467.1" font-family="Helvetica,sans-Serif" font-size="10.00">model.Grid.getDirectLocations</text>
<text text-anchor="middle" x="469" y="-456.1" font-family="Helvetica,sans-Serif" font-size="10.00">WithType</text>
</a>
</g>
</g>
<!-- Node1&#45;&gt;Node7 -->
<g id="edge8" class="edge"><title>Node1&#45;&gt;Node7</title>
<path fill="none" stroke="midnightblue" d="M125.32,-416.171C146.052,-422.558 171.059,-429.559 194,-434.1 254.638,-446.103 323.845,-453.631 377.534,-458.144"/>
<polygon fill="midnightblue" stroke="midnightblue" points="377.462,-461.65 387.715,-458.979 378.034,-454.673 377.462,-461.65"/>
</g>
<!-- Node9 -->
<g id="node9" class="node"><title>Node9</title>
<g id="a_node9"><a xlink:href="../../d3/d57/classmodel_1_1_cell.html#ae3edf2d4d7cc0314b5813d12dc8034f5" target="_top" xlink:title="model.Cell.getKey">
<polygon fill="white" stroke="black" points="841,-544.6 841,-563.6 943,-563.6 943,-544.6 841,-544.6"/>
<text text-anchor="middle" x="892" y="-551.6" font-family="Helvetica,sans-Serif" font-size="10.00">model.Cell.getKey</text>
</a>
</g>
</g>
<!-- Node1&#45;&gt;Node9 -->
<g id="edge10" class="edge"><title>Node1&#45;&gt;Node9</title>
<path fill="none" stroke="midnightblue" d="M87.6322,-416.275C103.238,-445.61 141.78,-509.944 194,-541.1 413.815,-672.246 514.359,-622.511 768,-588.1 797.908,-584.042 830.816,-574.675 855.063,-566.798"/>
<polygon fill="midnightblue" stroke="midnightblue" points="856.173,-570.118 864.56,-563.645 853.967,-563.474 856.173,-570.118"/>
</g>
<!-- Node10 -->
<g id="node10" class="node"><title>Node10</title>
<g id="a_node10"><a xlink:href="../../db/ddc/classmodel_1_1_wator_simulation.html#af44e712c1655e6d268a32bbd1c4db7d9" target="_top" xlink:title="model.WatorSimulation.move\lAndCheckBaby">
<polygon fill="white" stroke="black" points="390,-276.1 390,-306.1 548,-306.1 548,-276.1 390,-276.1"/>
<text text-anchor="start" x="398" y="-294.1" font-family="Helvetica,sans-Serif" font-size="10.00">model.WatorSimulation.move</text>
<text text-anchor="middle" x="469" y="-283.1" font-family="Helvetica,sans-Serif" font-size="10.00">AndCheckBaby</text>
</a>
</g>
</g>
<!-- Node1&#45;&gt;Node10 -->
<g id="edge13" class="edge"><title>Node1&#45;&gt;Node10</title>
<path fill="none" stroke="midnightblue" d="M93.7389,-386.038C113.589,-365.42 152.487,-329.142 194,-313.1 253.088,-290.267 324.566,-285.197 379.699,-285.609"/>
<polygon fill="midnightblue" stroke="midnightblue" points="379.75,-289.11 389.797,-285.746 379.846,-282.11 379.75,-289.11"/>
</g>
<!-- Node18 -->
<g id="node18" class="node"><title>Node18</title>
<g id="a_node18"><a xlink:href="../../db/ddc/classmodel_1_1_wator_simulation.html#ab1a02dcfc6d897735f1b90c728668aee" target="_top" xlink:title="model.WatorSimulation.move\lIfEmptyAndCheckBaby">
<polygon fill="white" stroke="black" points="194,-323.1 194,-353.1 352,-353.1 352,-323.1 194,-323.1"/>
<text text-anchor="start" x="202" y="-341.1" font-family="Helvetica,sans-Serif" font-size="10.00">model.WatorSimulation.move</text>
<text text-anchor="middle" x="273" y="-330.1" font-family="Helvetica,sans-Serif" font-size="10.00">IfEmptyAndCheckBaby</text>
</a>
</g>
</g>
<!-- Node1&#45;&gt;Node18 -->
<g id="edge37" class="edge"><title>Node1&#45;&gt;Node18</title>
<path fill="none" stroke="midnightblue" d="M125.989,-386.01C153.081,-377.12 187.546,-365.811 216.188,-356.413"/>
<polygon fill="midnightblue" stroke="midnightblue" points="217.644,-359.619 226.054,-353.176 215.461,-352.968 217.644,-359.619"/>
</g>
<!-- Node19 -->
<g id="node19" class="node"><title>Node19</title>
<g id="a_node19"><a xlink:href="../../db/ddc/classmodel_1_1_wator_simulation.html#a1cd97f85f054403c89c42d2647ae8bbb" target="_top" xlink:title="model.WatorSimulation.remove\lCreature">
<polygon fill="white" stroke="black" points="593.5,-22.1 593.5,-52.1 760.5,-52.1 760.5,-22.1 593.5,-22.1"/>
<text text-anchor="start" x="601.5" y="-40.1" font-family="Helvetica,sans-Serif" font-size="10.00">model.WatorSimulation.remove</text>
<text text-anchor="middle" x="677" y="-29.1" font-family="Helvetica,sans-Serif" font-size="10.00">Creature</text>
</a>
</g>
</g>
<!-- Node1&#45;&gt;Node19 -->
<g id="edge42" class="edge"><title>Node1&#45;&gt;Node19</title>
<path fill="none" stroke="midnightblue" d="M79.773,-385.824C79.8884,-331.667 88.3174,-147.778 194,-67.1 315.251,25.4627 507.615,1.6084 608.766,-19.9398"/>
<polygon fill="midnightblue" stroke="midnightblue" points="608.045,-23.3647 618.562,-22.0804 609.54,-16.5261 608.045,-23.3647"/>
</g>
<!-- Node2&#45;&gt;Node3 -->
<g id="edge2" class="edge"><title>Node2&#45;&gt;Node3</title>
<path fill="none" stroke="midnightblue" d="M732.469,-411.078C744.476,-406.913 756.912,-401.909 768,-396.1 785.716,-386.818 786.381,-378.564 804,-369.1 817.543,-361.826 833.145,-355.652 847.363,-350.775"/>
<polygon fill="midnightblue" stroke="midnightblue" points="848.547,-354.07 856.944,-347.608 846.35,-347.423 848.547,-354.07"/>
</g>
<!-- Node2&#45;&gt;Node4 -->
<g id="edge3" class="edge"><title>Node2&#45;&gt;Node4</title>
<path fill="none" stroke="midnightblue" d="M762.183,-411.081C784.068,-407.177 807.269,-403.038 827.862,-399.364"/>
<polygon fill="midnightblue" stroke="midnightblue" points="828.515,-402.803 837.745,-397.601 827.286,-395.912 828.515,-402.803"/>
</g>
<!-- Node2&#45;&gt;Node5 -->
<g id="edge4" class="edge"><title>Node2&#45;&gt;Node5</title>
<path fill="none" stroke="midnightblue" d="M709.474,-411.01C729.095,-400.05 753.32,-383.418 768,-362.1 804.193,-309.54 758.746,-268.095 804,-223.1 806.9,-220.216 810.12,-217.693 813.564,-215.486"/>
<polygon fill="midnightblue" stroke="midnightblue" points="815.406,-218.469 822.531,-210.627 812.072,-212.314 815.406,-218.469"/>
</g>
<!-- Node2&#45;&gt;Node6 -->
<g id="edge5" class="edge"><title>Node2&#45;&gt;Node6</title>
<path fill="none" stroke="midnightblue" d="M764.635,-426.1C781.075,-426.1 798.169,-426.1 814.276,-426.1"/>
<polygon fill="midnightblue" stroke="midnightblue" points="814.7,-429.6 824.7,-426.1 814.7,-422.6 814.7,-429.6"/>
</g>
<!-- Node8 -->
<g id="node8" class="node"><title>Node8</title>
<g id="a_node8"><a xlink:href="../../dc/d8f/classmodel_1_1_grid.html#a7fd07edd38cb4fbc123431255df70a84" target="_top" xlink:title="model.Grid.inBounds">
<polygon fill="white" stroke="black" points="619,-509.6 619,-528.6 735,-528.6 735,-509.6 619,-509.6"/>
<text text-anchor="middle" x="677" y="-516.6" font-family="Helvetica,sans-Serif" font-size="10.00">model.Grid.inBounds</text>
</a>
</g>
</g>
<!-- Node7&#45;&gt;Node8 -->
<g id="edge9" class="edge"><title>Node7&#45;&gt;Node8</title>
<path fill="none" stroke="midnightblue" d="M516.902,-479.118C537.931,-485.627 563.105,-493.111 586,-499.1 597.019,-501.982 608.865,-504.807 620.228,-507.385"/>
<polygon fill="midnightblue" stroke="midnightblue" points="619.534,-510.816 630.056,-509.581 621.06,-503.984 619.534,-510.816"/>
</g>
<!-- Node10&#45;&gt;Node5 -->
<g id="edge18" class="edge"><title>Node10&#45;&gt;Node5</title>
<path fill="none" stroke="midnightblue" d="M479.493,-275.784C496.831,-249.462 536.439,-196.503 586,-176.1 677.723,-138.34 797.88,-168.953 856.213,-188.294"/>
<polygon fill="midnightblue" stroke="midnightblue" points="855.104,-191.614 865.699,-191.522 857.36,-184.987 855.104,-191.614"/>
</g>
<!-- Node11 -->
<g id="node11" class="node"><title>Node11</title>
<g id="a_node11"><a xlink:href="../../db/ddc/classmodel_1_1_wator_simulation.html#a35418540015ff541b0e3940d9df2f0d5" target="_top" xlink:title="model.WatorSimulation.can\lReproduce">
<polygon fill="white" stroke="black" points="603,-460.1 603,-490.1 751,-490.1 751,-460.1 603,-460.1"/>
<text text-anchor="start" x="611" y="-478.1" font-family="Helvetica,sans-Serif" font-size="10.00">model.WatorSimulation.can</text>
<text text-anchor="middle" x="677" y="-467.1" font-family="Helvetica,sans-Serif" font-size="10.00">Reproduce</text>
</a>
</g>
</g>
<!-- Node10&#45;&gt;Node11 -->
<g id="edge14" class="edge"><title>Node10&#45;&gt;Node11</title>
<path fill="none" stroke="midnightblue" d="M476.826,-306.436C491.8,-338.278 530.662,-411.774 586,-450.1 588.887,-452.1 591.93,-453.94 595.081,-455.633"/>
<polygon fill="midnightblue" stroke="midnightblue" points="593.682,-458.844 604.211,-460.027 596.718,-452.537 593.682,-458.844"/>
</g>
<!-- Node12 -->
<g id="node12" class="node"><title>Node12</title>
<g id="a_node12"><a xlink:href="../../db/ddc/classmodel_1_1_wator_simulation.html#ad7ba22a6c88c4944182c8a5ba53366fb" target="_top" xlink:title="model.WatorSimulation.increase\lBreedingTime">
<polygon fill="white" stroke="black" points="591.5,-323.1 591.5,-353.1 762.5,-353.1 762.5,-323.1 591.5,-323.1"/>
<text text-anchor="start" x="599.5" y="-341.1" font-family="Helvetica,sans-Serif" font-size="10.00">model.WatorSimulation.increase</text>
<text text-anchor="middle" x="677" y="-330.1" font-family="Helvetica,sans-Serif" font-size="10.00">BreedingTime</text>
</a>
</g>
</g>
<!-- Node10&#45;&gt;Node12 -->
<g id="edge19" class="edge"><title>Node10&#45;&gt;Node12</title>
<path fill="none" stroke="midnightblue" d="M535.746,-306.1C556.279,-310.785 579.096,-315.991 600.258,-320.819"/>
<polygon fill="midnightblue" stroke="midnightblue" points="599.644,-324.269 610.172,-323.081 601.201,-317.444 599.644,-324.269"/>
</g>
<!-- Node13 -->
<g id="node13" class="node"><title>Node13</title>
<g id="a_node13"><a xlink:href="../../db/ddc/classmodel_1_1_wator_simulation.html#adf3e1ba2978971c732bd4db24d4acdfc" target="_top" xlink:title="model.WatorSimulation.makeBaby">
<polygon fill="white" stroke="black" points="586,-235.6 586,-254.6 768,-254.6 768,-235.6 586,-235.6"/>
<text text-anchor="middle" x="677" y="-242.6" font-family="Helvetica,sans-Serif" font-size="10.00">model.WatorSimulation.makeBaby</text>
</a>
</g>
</g>
<!-- Node10&#45;&gt;Node13 -->
<g id="edge23" class="edge"><title>Node10&#45;&gt;Node13</title>
<path fill="none" stroke="midnightblue" d="M533.462,-276.079C550.507,-272.113 568.943,-267.885 586,-264.1 596.862,-261.69 608.478,-259.184 619.633,-256.813"/>
<polygon fill="midnightblue" stroke="midnightblue" points="620.653,-260.175 629.712,-254.681 619.205,-253.326 620.653,-260.175"/>
</g>
<!-- Node15 -->
<g id="node15" class="node"><title>Node15</title>
<g id="a_node15"><a xlink:href="../../db/ddc/classmodel_1_1_wator_simulation.html#a53aa53cfee9794dff36ebb3292522d5a" target="_top" xlink:title="model.WatorSimulation.move\lCreature">
<polygon fill="white" stroke="black" points="598,-186.1 598,-216.1 756,-216.1 756,-186.1 598,-186.1"/>
<text text-anchor="start" x="606" y="-204.1" font-family="Helvetica,sans-Serif" font-size="10.00">model.WatorSimulation.move</text>
<text text-anchor="middle" x="677" y="-193.1" font-family="Helvetica,sans-Serif" font-size="10.00">Creature</text>
</a>
</g>
</g>
<!-- Node10&#45;&gt;Node15 -->
<g id="edge27" class="edge"><title>Node10&#45;&gt;Node15</title>
<path fill="none" stroke="midnightblue" d="M493.157,-275.926C515.994,-261.499 552.276,-239.996 586,-226.1 591.904,-223.667 598.121,-221.392 604.414,-219.282"/>
<polygon fill="midnightblue" stroke="midnightblue" points="605.878,-222.488 614.334,-216.105 603.743,-215.822 605.878,-222.488"/>
</g>
<!-- Node17 -->
<g id="node17" class="node"><title>Node17</title>
<g id="a_node17"><a xlink:href="../../db/ddc/classmodel_1_1_wator_simulation.html#a5584ef42fda846a39a016ff060fd2322" target="_top" xlink:title="model.WatorSimulation.reset\lBreedTime">
<polygon fill="white" stroke="black" points="599.5,-274.1 599.5,-304.1 754.5,-304.1 754.5,-274.1 599.5,-274.1"/>
<text text-anchor="start" x="607.5" y="-292.1" font-family="Helvetica,sans-Serif" font-size="10.00">model.WatorSimulation.reset</text>
<text text-anchor="middle" x="677" y="-281.1" font-family="Helvetica,sans-Serif" font-size="10.00">BreedTime</text>
</a>
</g>
</g>
<!-- Node10&#45;&gt;Node17 -->
<g id="edge33" class="edge"><title>Node10&#45;&gt;Node17</title>
<path fill="none" stroke="midnightblue" d="M548.173,-290.341C561.506,-290.212 575.43,-290.076 588.975,-289.945"/>
<polygon fill="midnightblue" stroke="midnightblue" points="589.278,-293.442 599.243,-289.845 589.21,-286.443 589.278,-293.442"/>
</g>
<!-- Node11&#45;&gt;Node3 -->
<g id="edge15" class="edge"><title>Node11&#45;&gt;Node3</title>
<path fill="none" stroke="midnightblue" d="M751.161,-461.008C757.235,-458.036 762.965,-454.443 768,-450.1 797.831,-424.368 775.106,-395.879 804,-369.1 812.368,-361.344 822.806,-355.505 833.516,-351.116"/>
<polygon fill="midnightblue" stroke="midnightblue" points="834.791,-354.376 842.953,-347.621 832.36,-347.812 834.791,-354.376"/>
</g>
<!-- Node11&#45;&gt;Node4 -->
<g id="edge16" class="edge"><title>Node11&#45;&gt;Node4</title>
<path fill="none" stroke="midnightblue" d="M748.597,-460.013C755.407,-457.239 762.002,-453.965 768,-450.1 788.952,-436.6 782.678,-420.008 804,-407.1 807.472,-404.998 811.146,-403.128 814.945,-401.463"/>
<polygon fill="midnightblue" stroke="midnightblue" points="816.533,-404.602 824.601,-397.735 814.012,-398.072 816.533,-404.602"/>
</g>
<!-- Node11&#45;&gt;Node9 -->
<g id="edge17" class="edge"><title>Node11&#45;&gt;Node9</title>
<path fill="none" stroke="midnightblue" d="M736.958,-490.175C747.382,-493.209 758.071,-496.562 768,-500.1 800.97,-511.849 837.556,-528.381 862.187,-540.05"/>
<polygon fill="midnightblue" stroke="midnightblue" points="860.795,-543.264 871.327,-544.418 863.813,-536.948 860.795,-543.264"/>
</g>
<!-- Node12&#45;&gt;Node3 -->
<g id="edge20" class="edge"><title>Node12&#45;&gt;Node3</title>
<path fill="none" stroke="midnightblue" d="M762.795,-338.1C784.927,-338.1 808.365,-338.1 829.063,-338.1"/>
<polygon fill="midnightblue" stroke="midnightblue" points="829.3,-341.6 839.3,-338.1 829.3,-334.6 829.3,-341.6"/>
</g>
<!-- Node12&#45;&gt;Node5 -->
<g id="edge21" class="edge"><title>Node12&#45;&gt;Node5</title>
<path fill="none" stroke="midnightblue" d="M753.528,-323.076C758.747,-320.29 763.652,-316.996 768,-313.1 800.085,-284.35 771.582,-251.474 804,-223.1 807.457,-220.075 811.271,-217.454 815.315,-215.186"/>
<polygon fill="midnightblue" stroke="midnightblue" points="816.999,-218.259 824.485,-210.761 813.957,-211.955 816.999,-218.259"/>
</g>
<!-- Node12&#45;&gt;Node6 -->
<g id="edge22" class="edge"><title>Node12&#45;&gt;Node6</title>
<path fill="none" stroke="midnightblue" d="M700.73,-353.162C725.254,-368.777 765.925,-392.855 804,-407.1 811.048,-409.737 818.56,-412.058 826.106,-414.088"/>
<polygon fill="midnightblue" stroke="midnightblue" points="825.456,-417.533 836.009,-416.591 827.172,-410.747 825.456,-417.533"/>
</g>
<!-- Node13&#45;&gt;Node4 -->
<g id="edge24" class="edge"><title>Node13&#45;&gt;Node4</title>
<path fill="none" stroke="midnightblue" d="M753.021,-254.62C758.419,-257.154 763.499,-260.272 768,-264.1 801.763,-292.814 772.239,-326.186 804,-357.1 811.918,-364.806 821.876,-370.61 832.203,-374.977"/>
<polygon fill="midnightblue" stroke="midnightblue" points="831.151,-378.321 841.743,-378.597 833.635,-371.777 831.151,-378.321"/>
</g>
<!-- Node13&#45;&gt;Node5 -->
<g id="edge25" class="edge"><title>Node13&#45;&gt;Node5</title>
<path fill="none" stroke="midnightblue" d="M724.218,-235.553C756.735,-228.835 800.432,-219.809 834.941,-212.68"/>
<polygon fill="midnightblue" stroke="midnightblue" points="835.787,-216.079 844.872,-210.629 834.371,-209.224 835.787,-216.079"/>
</g>
<!-- Node14 -->
<g id="node14" class="node"><title>Node14</title>
<g id="a_node14"><a xlink:href="../../dc/d8f/classmodel_1_1_grid.html#a9e11c6171839cc24ba2b1d86b185912f" target="_top" xlink:title="model.Grid.putCell">
<polygon fill="white" stroke="black" points="839.5,-232.6 839.5,-251.6 944.5,-251.6 944.5,-232.6 839.5,-232.6"/>
<text text-anchor="middle" x="892" y="-239.6" font-family="Helvetica,sans-Serif" font-size="10.00">model.Grid.putCell</text>
</a>
</g>
</g>
<!-- Node13&#45;&gt;Node14 -->
<g id="edge26" class="edge"><title>Node13&#45;&gt;Node14</title>
<path fill="none" stroke="midnightblue" d="M768.022,-243.832C788.618,-243.542 810.057,-243.24 829.156,-242.971"/>
<polygon fill="midnightblue" stroke="midnightblue" points="829.258,-246.47 839.208,-242.829 829.16,-239.471 829.258,-246.47"/>
</g>
<!-- Node15&#45;&gt;Node3 -->
<g id="edge29" class="edge"><title>Node15&#45;&gt;Node3</title>
<path fill="none" stroke="midnightblue" d="M746.325,-216.118C753.866,-218.924 761.249,-222.225 768,-226.1 787.353,-237.21 787.64,-245.923 804,-261.1 827.001,-282.438 854.17,-306.273 871.95,-321.693"/>
<polygon fill="midnightblue" stroke="midnightblue" points="870.012,-324.644 879.865,-328.539 874.592,-319.35 870.012,-324.644"/>
</g>
<!-- Node15&#45;&gt;Node4 -->
<g id="edge30" class="edge"><title>Node15&#45;&gt;Node4</title>
<path fill="none" stroke="midnightblue" d="M755.297,-216.335C759.921,-219.083 764.221,-222.311 768,-226.1 810.637,-268.854 762.915,-312.852 804,-357.1 810.955,-364.591 819.842,-370.273 829.266,-374.583"/>
<polygon fill="midnightblue" stroke="midnightblue" points="828.235,-377.942 838.818,-378.452 830.863,-371.454 828.235,-377.942"/>
</g>
<!-- Node15&#45;&gt;Node5 -->
<g id="edge31" class="edge"><title>Node15&#45;&gt;Node5</title>
<path fill="none" stroke="midnightblue" d="M756.104,-201.1C770.767,-201.1 786.205,-201.1 801.191,-201.1"/>
<polygon fill="midnightblue" stroke="midnightblue" points="801.478,-204.6 811.478,-201.1 801.478,-197.6 801.478,-204.6"/>
</g>
<!-- Node15&#45;&gt;Node14 -->
<g id="edge32" class="edge"><title>Node15&#45;&gt;Node14</title>
<path fill="none" stroke="midnightblue" d="M756.104,-216.134C780.926,-220.912 807.968,-226.117 831.279,-230.604"/>
<polygon fill="midnightblue" stroke="midnightblue" points="830.882,-234.092 841.363,-232.545 832.205,-227.218 830.882,-234.092"/>
</g>
<!-- Node16 -->
<g id="node16" class="node"><title>Node16</title>
<g id="a_node16"><a xlink:href="../../d3/d57/classmodel_1_1_cell.html#a16fd95430857f2f07371364b0015a32d" target="_top" xlink:title="model.Cell.changeToEmptyCell">
<polygon fill="white" stroke="black" points="810.5,-90.6 810.5,-109.6 973.5,-109.6 973.5,-90.6 810.5,-90.6"/>
<text text-anchor="middle" x="892" y="-97.6" font-family="Helvetica,sans-Serif" font-size="10.00">model.Cell.changeToEmptyCell</text>
</a>
</g>
</g>
<!-- Node15&#45;&gt;Node16 -->
<g id="edge28" class="edge"><title>Node15&#45;&gt;Node16</title>
<path fill="none" stroke="midnightblue" d="M709.888,-185.979C750.951,-166.508 821.754,-132.935 861.581,-114.05"/>
<polygon fill="midnightblue" stroke="midnightblue" points="863.231,-117.141 870.767,-109.694 860.232,-110.816 863.231,-117.141"/>
</g>
<!-- Node17&#45;&gt;Node3 -->
<g id="edge34" class="edge"><title>Node17&#45;&gt;Node3</title>
<path fill="none" stroke="midnightblue" d="M743.355,-304.135C774.312,-311.256 810.752,-319.639 839.683,-326.295"/>
<polygon fill="midnightblue" stroke="midnightblue" points="839.052,-329.741 849.583,-328.572 840.622,-322.919 839.052,-329.741"/>
</g>
<!-- Node17&#45;&gt;Node5 -->
<g id="edge35" class="edge"><title>Node17&#45;&gt;Node5</title>
<path fill="none" stroke="midnightblue" d="M748.039,-274.053C755.031,-271.268 761.819,-267.98 768,-264.1 788.538,-251.207 783.313,-235.754 804,-223.1 809.893,-219.495 816.356,-216.479 823.013,-213.956"/>
<polygon fill="midnightblue" stroke="midnightblue" points="824.525,-217.138 832.862,-210.601 822.267,-210.512 824.525,-217.138"/>
</g>
<!-- Node17&#45;&gt;Node6 -->
<g id="edge36" class="edge"><title>Node17&#45;&gt;Node6</title>
<path fill="none" stroke="midnightblue" d="M754.87,-303.88C759.594,-306.482 764.033,-309.53 768,-313.1 801.252,-343.028 770.074,-377.938 804,-407.1 807.525,-410.13 811.421,-412.71 815.554,-414.904"/>
<polygon fill="midnightblue" stroke="midnightblue" points="814.369,-418.209 824.925,-419.117 817.239,-411.824 814.369,-418.209"/>
</g>
<!-- Node18&#45;&gt;Node5 -->
<g id="edge39" class="edge"><title>Node18&#45;&gt;Node5</title>
<path fill="none" stroke="midnightblue" d="M291.384,-323.078C336.303,-285.411 461.445,-187.631 586,-155.1 664.264,-134.659 688.403,-140.703 768,-155.1 801.718,-161.199 838.239,-175.991 862.651,-187.167"/>
<polygon fill="midnightblue" stroke="midnightblue" points="861.472,-190.48 872.012,-191.549 864.439,-184.14 861.472,-190.48"/>
</g>
<!-- Node18&#45;&gt;Node7 -->
<g id="edge38" class="edge"><title>Node18&#45;&gt;Node7</title>
<path fill="none" stroke="midnightblue" d="M297.401,-353.299C332.014,-375.779 396.96,-417.961 435.966,-443.294"/>
<polygon fill="midnightblue" stroke="midnightblue" points="434.525,-446.532 444.818,-449.044 438.338,-440.662 434.525,-446.532"/>
</g>
<!-- Node18&#45;&gt;Node10 -->
<g id="edge41" class="edge"><title>Node18&#45;&gt;Node10</title>
<path fill="none" stroke="midnightblue" d="M335.916,-323.1C355.078,-318.457 376.352,-313.303 396.128,-308.512"/>
<polygon fill="midnightblue" stroke="midnightblue" points="397.112,-311.875 406.007,-306.119 395.464,-305.072 397.112,-311.875"/>
</g>
<!-- Node18&#45;&gt;Node12 -->
<g id="edge40" class="edge"><title>Node18&#45;&gt;Node12</title>
<path fill="none" stroke="midnightblue" d="M352.464,-338.1C418.017,-338.1 511.689,-338.1 581.385,-338.1"/>
<polygon fill="midnightblue" stroke="midnightblue" points="581.488,-341.6 591.488,-338.1 581.488,-334.6 581.488,-341.6"/>
</g>
<!-- Node19&#45;&gt;Node3 -->
<g id="edge44" class="edge"><title>Node19&#45;&gt;Node3</title>
<path fill="none" stroke="midnightblue" d="M689.178,-52.4022C707.177,-77.4468 743.082,-129.113 768,-176.1 787.222,-212.345 780.047,-227.792 804,-261.1 821.872,-285.951 849.128,-308.398 868.362,-322.557"/>
<polygon fill="midnightblue" stroke="midnightblue" points="866.409,-325.464 876.572,-328.459 870.495,-319.78 866.409,-325.464"/>
</g>
<!-- Node19&#45;&gt;Node5 -->
<g id="edge45" class="edge"><title>Node19&#45;&gt;Node5</title>
<path fill="none" stroke="midnightblue" d="M740.646,-52.1177C750.34,-56.0542 759.831,-60.973 768,-67.1 790.487,-83.9654 785.672,-97.7878 804,-119.1 825.242,-143.801 853.142,-169.038 871.549,-184.868"/>
<polygon fill="midnightblue" stroke="midnightblue" points="869.396,-187.631 879.281,-191.444 873.931,-182.299 869.396,-187.631"/>
</g>
<!-- Node19&#45;&gt;Node16 -->
<g id="edge43" class="edge"><title>Node19&#45;&gt;Node16</title>
<path fill="none" stroke="midnightblue" d="M728.748,-52.11C765.482,-62.975 814.54,-77.485 849.062,-87.6957"/>
<polygon fill="midnightblue" stroke="midnightblue" points="848.252,-91.1061 858.834,-90.5861 850.238,-84.3935 848.252,-91.1061"/>
</g>
</g>
</svg>
        <g id="navigator" transform="translate(0 0)" fill="#404254">
                <rect fill="#f2f5e9" fill-opacity="0.5" stroke="#606060" stroke-width=".5" x="0" y="0" width="60" height="60"/>
                <use id="zoomplus" xlink:href="#zoomPlus" x="17" y="9" onmousedown="handleZoom(evt,'in')"/>
                <use id="zoomminus" xlink:href="#zoomMin" x="42" y="9" onmousedown="handleZoom(evt,'out')"/>
                <use id="reset" xlink:href="#resetDef" x="30" y="36" onmousedown="handleReset()"/>
                <g id="arrowUp" xlink:href="#dirArrow" transform="translate(30 24)" onmousedown="handlePan(0,-1)">
                  <use xlink:href="#rim" fill="#404040">
                        <set attributeName="fill" to="#808080" begin="arrowUp.mouseover" end="arrowUp.mouseout"/>
                  </use>
                  <path fill="none" stroke="white" stroke-width="1.5" d="M0,-3.0v7 M-2.5,-0.5L0,-3.0L2.5,-0.5"/>
                </g>
                <g id="arrowRight" xlink:href="#dirArrow" transform="rotate(90) translate(36 -43)" onmousedown="handlePan(1,0)">
                  <use xlink:href="#rim" fill="#404040">
                        <set attributeName="fill" to="#808080" begin="arrowRight.mouseover" end="arrowRight.mouseout"/>
                  </use>
                  <path fill="none" stroke="white" stroke-width="1.5" d="M0,-3.0v7 M-2.5,-0.5L0,-3.0L2.5,-0.5"/>
                </g>
                <g id="arrowDown" xlink:href="#dirArrow" transform="rotate(180) translate(-30 -48)" onmousedown="handlePan(0,1)">
                  <use xlink:href="#rim" fill="#404040">
                        <set attributeName="fill" to="#808080" begin="arrowDown.mouseover" end="arrowDown.mouseout"/>
                  </use>
                  <path fill="none" stroke="white" stroke-width="1.5" d="M0,-3.0v7 M-2.5,-0.5L0,-3.0L2.5,-0.5"/>
                </g>
                <g id="arrowLeft" xlink:href="#dirArrow" transform="rotate(270) translate(-36 17)" onmousedown="handlePan(-1,0)">
                  <use xlink:href="#rim" fill="#404040">
                        <set attributeName="fill" to="#808080" begin="arrowLeft.mouseover" end="arrowLeft.mouseout"/>
                  </use>
                  <path fill="none" stroke="white" stroke-width="1.5" d="M0,-3.0v7 M-2.5,-0.5L0,-3.0L2.5,-0.5"/>
                </g>
        </g>
        <svg viewBox="0 0 15 15" width="100%" height="30px" preserveAspectRatio="xMaxYMin meet">
         <g id="arrow_out" transform="scale(0.3 0.3)">
          <a xlink:href="classmodel_1_1_wator_simulation_a2205211b8ee8357a4687fce7bb25123a_cgraph_org.svg" target="_base">
           <rect id="button" ry="5" rx="5" y="6" x="6" height="38" width="38"
                fill="#f2f5e9" fill-opacity="0.5" stroke="#606060" stroke-width="1.0"/>
           <path id="arrow"
             d="M 11.500037,31.436501 C 11.940474,20.09759 22.043105,11.32322 32.158766,21.979434 L 37.068811,17.246167 C 37.068811,17.246167 37.088388,32 37.088388,32 L 22.160133,31.978069 C 22.160133,31.978069 26.997745,27.140456 26.997745,27.140456 C 18.528582,18.264221 13.291696,25.230495 11.500037,31.436501 z"
             style="fill:#404040;"/>
          </a>
         </g>
        </svg>
</svg>
