<?xml version="1.0" encoding="UTF-8" standalone="no"?>
<!DOCTYPE svg PUBLIC "-//W3C//DTD SVG 1.1//EN"
 "http://www.w3.org/Graphics/SVG/1.1/DTD/svg11.dtd">
<!-- Generated by graphviz version 2.36.0 (20140111.2315)
 -->
<!-- Title: model.Grid Pages: 1 -->
<svg width="247pt" height="164pt"
 viewBox="0.00 0.00 247.00 164.00" xmlns="http://www.w3.org/2000/svg" xmlns:xlink="http://www.w3.org/1999/xlink">
<g id="graph0" class="graph" transform="scale(1 1) rotate(0) translate(4 160)">
<title>model.Grid</title>
<polygon fill="white" stroke="none" points="-4,4 -4,-160 243,-160 243,4 -4,4"/>
<!-- Node1 -->
<g id="node1" class="node"><title>Node1</title>
<polygon fill="#bfbfbf" stroke="black" points="93.5,-0.5 93.5,-19.5 162.5,-19.5 162.5,-0.5 93.5,-0.5"/>
<text text-anchor="middle" x="128" y="-7.5" font-family="Helvetica,sans-Serif" font-size="10.00">model.Grid</text>
</g>
<!-- Node2 -->
<g id="node2" class="node"><title>Node2</title>
<g id="a_node2"><a xlink:href="../../d3/d57/classmodel_1_1_cell.html" target="_top" xlink:title="model.Cell">
<polygon fill="white" stroke="black" points="94.5,-68.5 94.5,-87.5 161.5,-87.5 161.5,-68.5 94.5,-68.5"/>
<text text-anchor="middle" x="128" y="-75.5" font-family="Helvetica,sans-Serif" font-size="10.00">model.Cell</text>
</a>
</g>
</g>
<!-- Node2&#45;&gt;Node1 -->
<g id="edge1" class="edge"><title>Node2&#45;&gt;Node1</title>
<path fill="none" stroke="#9a32cd" stroke-dasharray="5,2" d="M128,-58.0413C128,-45.4724 128,-29.5631 128,-19.8411"/>
<polygon fill="#9a32cd" stroke="#9a32cd" points="124.5,-58.3716 128,-68.3717 131.5,-58.3717 124.5,-58.3716"/>
<text text-anchor="middle" x="148.5" y="-41.5" font-family="Helvetica,sans-Serif" font-size="10.00"> myCells</text>
</g>
<!-- Node3 -->
<g id="node3" class="node"><title>Node3</title>
<polygon fill="white" stroke="#bfbfbf" points="0,-136.5 0,-155.5 128,-155.5 128,-136.5 0,-136.5"/>
<text text-anchor="middle" x="64" y="-143.5" font-family="Helvetica,sans-Serif" font-size="10.00">Map&lt; String, Integer &gt;</text>
</g>
<!-- Node3&#45;&gt;Node2 -->
<g id="edge2" class="edge"><title>Node3&#45;&gt;Node2</title>
<path fill="none" stroke="#9a32cd" stroke-dasharray="5,2" d="M79.4692,-129.047C92.0135,-116.111 109.23,-98.3567 119.427,-87.8411"/>
<polygon fill="#9a32cd" stroke="#9a32cd" points="76.8157,-126.756 72.3669,-136.372 81.841,-131.629 76.8157,-126.756"/>
<text text-anchor="middle" x="128" y="-109.5" font-family="Helvetica,sans-Serif" font-size="10.00"> properties</text>
</g>
<!-- Node4 -->
<g id="node4" class="node"><title>Node4</title>
<g id="a_node4"><a xlink:href="../../d0/d76/enummodel_1_1_cell_state.html" target="_top" xlink:title="model.CellState">
<polygon fill="white" stroke="black" points="146.5,-136.5 146.5,-155.5 239.5,-155.5 239.5,-136.5 146.5,-136.5"/>
<text text-anchor="middle" x="193" y="-143.5" font-family="Helvetica,sans-Serif" font-size="10.00">model.CellState</text>
</a>
</g>
</g>
<!-- Node4&#45;&gt;Node2 -->
<g id="edge3" class="edge"><title>Node4&#45;&gt;Node2</title>
<path fill="none" stroke="#9a32cd" stroke-dasharray="5,2" d="M179.091,-128.731C172.816,-121.595 165.208,-113.218 158,-106 151.662,-99.6534 144.162,-92.9034 138.247,-87.7401"/>
<polygon fill="#9a32cd" stroke="#9a32cd" points="176.543,-131.135 185.741,-136.394 181.83,-126.547 176.543,-131.135"/>
<text text-anchor="middle" x="183" y="-109.5" font-family="Helvetica,sans-Serif" font-size="10.00"> state</text>
</g>
</g>
</svg>
