<?xml version="1.0" encoding="UTF-8" standalone="no"?>
<!DOCTYPE svg PUBLIC "-//W3C//DTD SVG 1.1//EN"
 "http://www.w3.org/Graphics/SVG/1.1/DTD/svg11.dtd">
<!-- Generated by graphviz version 2.36.0 (20140111.2315)
 -->
<!-- Title: viewPackage.DisplayGrid Pages: 1 -->
<svg width="369pt" height="84pt"
 viewBox="0.00 0.00 369.00 84.00" xmlns="http://www.w3.org/2000/svg" xmlns:xlink="http://www.w3.org/1999/xlink">
<g id="graph0" class="graph" transform="scale(1 1) rotate(0) translate(4 80)">
<title>viewPackage.DisplayGrid</title>
<polygon fill="white" stroke="none" points="-4,4 -4,-80 365,-80 365,4 -4,4"/>
<!-- Node1 -->
<g id="node1" class="node"><title>Node1</title>
<polygon fill="#bfbfbf" stroke="black" points="116,-56.5 116,-75.5 250,-75.5 250,-56.5 116,-56.5"/>
<text text-anchor="middle" x="183" y="-63.5" font-family="Helvetica,sans-Serif" font-size="10.00">viewPackage.DisplayGrid</text>
</g>
<!-- Node2 -->
<g id="node2" class="node"><title>Node2</title>
<g id="a_node2"><a xlink:href="../../db/d94/classview_package_1_1_rectangular_grid_view.html" target="_top" xlink:title="viewPackage.RectangularGridView">
<polygon fill="white" stroke="black" points="-0.5,-0.5 -0.5,-19.5 176.5,-19.5 176.5,-0.5 -0.5,-0.5"/>
<text text-anchor="middle" x="88" y="-7.5" font-family="Helvetica,sans-Serif" font-size="10.00">viewPackage.RectangularGridView</text>
</a>
</g>
</g>
<!-- Node1&#45;&gt;Node2 -->
<g id="edge1" class="edge"><title>Node1&#45;&gt;Node2</title>
<path fill="none" stroke="midnightblue" d="M158.682,-51.1774C141.201,-41.2407 118.17,-28.1492 103.226,-19.6545"/>
<polygon fill="midnightblue" stroke="midnightblue" points="157.313,-54.425 167.737,-56.324 160.773,-48.3395 157.313,-54.425"/>
</g>
<!-- Node3 -->
<g id="node3" class="node"><title>Node3</title>
<g id="a_node3"><a xlink:href="../../d6/dde/classview_package_1_1_triangular_grid_view.html" target="_top" xlink:title="viewPackage.TriangularGridView">
<polygon fill="white" stroke="black" points="194.5,-0.5 194.5,-19.5 361.5,-19.5 361.5,-0.5 194.5,-0.5"/>
<text text-anchor="middle" x="278" y="-7.5" font-family="Helvetica,sans-Serif" font-size="10.00">viewPackage.TriangularGridView</text>
</a>
</g>
</g>
<!-- Node1&#45;&gt;Node3 -->
<g id="edge2" class="edge"><title>Node1&#45;&gt;Node3</title>
<path fill="none" stroke="midnightblue" d="M207.318,-51.1774C224.799,-41.2407 247.83,-28.1492 262.774,-19.6545"/>
<polygon fill="midnightblue" stroke="midnightblue" points="205.227,-48.3395 198.263,-56.324 208.687,-54.425 205.227,-48.3395"/>
</g>
</g>
</svg>
