<?xml version="1.0" encoding="UTF-8" standalone="no"?>
<!DOCTYPE svg PUBLIC "-//W3C//DTD SVG 1.1//EN"
 "http://www.w3.org/Graphics/SVG/1.1/DTD/svg11.dtd">
<!-- Generated by graphviz version 2.36.0 (20140111.2315)
 -->
<!-- Title: model.ToroidalGrid.getAllNeighbors Pages: 1 -->
<svg width="514pt" height="174pt"
 viewBox="0.00 0.00 514.00 174.00" xmlns="http://www.w3.org/2000/svg" xmlns:xlink="http://www.w3.org/1999/xlink">
<g id="graph0" class="graph" transform="scale(1 1) rotate(0) translate(4 170)">
<title>model.ToroidalGrid.getAllNeighbors</title>
<polygon fill="white" stroke="none" points="-4,4 -4,-170 510,-170 510,4 -4,4"/>
<!-- Node1 -->
<g id="node1" class="node"><title>Node1</title>
<polygon fill="#bfbfbf" stroke="black" points="0.5,-70 0.5,-100 135.5,-100 135.5,-70 0.5,-70"/>
<text text-anchor="start" x="8.5" y="-88" font-family="Helvetica,sans-Serif" font-size="10.00">model.ToroidalGrid.getAll</text>
<text text-anchor="middle" x="68" y="-77" font-family="Helvetica,sans-Serif" font-size="10.00">Neighbors</text>
</g>
<!-- Node2 -->
<g id="node2" class="node"><title>Node2</title>
<g id="a_node2"><a xlink:href="../../dc/d8f/classmodel_1_1_grid.html#a7308e05b94f35a2f8198f314eb384267" target="_top" xlink:title="model.Grid.getCell">
<polygon fill="white" stroke="black" points="380.5,-146.5 380.5,-165.5 485.5,-165.5 485.5,-146.5 380.5,-146.5"/>
<text text-anchor="middle" x="433" y="-153.5" font-family="Helvetica,sans-Serif" font-size="10.00">model.Grid.getCell</text>
</a>
</g>
</g>
<!-- Node1&#45;&gt;Node2 -->
<g id="edge1" class="edge"><title>Node1&#45;&gt;Node2</title>
<path fill="none" stroke="midnightblue" d="M101.709,-100.143C121.621,-108.742 147.804,-118.962 172,-125 238.573,-141.613 317.026,-149.412 370.208,-153.016"/>
<polygon fill="midnightblue" stroke="midnightblue" points="370.291,-156.529 380.496,-153.682 370.743,-149.543 370.291,-156.529"/>
</g>
<!-- Node3 -->
<g id="node3" class="node"><title>Node3</title>
<g id="a_node3"><a xlink:href="../../dc/df5/classmodel_1_1_toroidal_grid.html#a52805c279f2f0d1edc793980f171dffb" target="_top" xlink:title="model.ToroidalGrid.getDirect\lNeighbors">
<polygon fill="white" stroke="black" points="172,-70 172,-100 324,-100 324,-70 172,-70"/>
<text text-anchor="start" x="180" y="-88" font-family="Helvetica,sans-Serif" font-size="10.00">model.ToroidalGrid.getDirect</text>
<text text-anchor="middle" x="248" y="-77" font-family="Helvetica,sans-Serif" font-size="10.00">Neighbors</text>
</a>
</g>
</g>
<!-- Node1&#45;&gt;Node3 -->
<g id="edge2" class="edge"><title>Node1&#45;&gt;Node3</title>
<path fill="none" stroke="midnightblue" d="M135.534,-85C144.051,-85 152.861,-85 161.625,-85"/>
<polygon fill="midnightblue" stroke="midnightblue" points="161.871,-88.5001 171.871,-85 161.871,-81.5001 161.871,-88.5001"/>
</g>
<!-- Node4 -->
<g id="node4" class="node"><title>Node4</title>
<g id="a_node4"><a xlink:href="../../dc/d8f/classmodel_1_1_grid.html#a7fd07edd38cb4fbc123431255df70a84" target="_top" xlink:title="model.Grid.inBounds">
<polygon fill="white" stroke="black" points="375,-86.5 375,-105.5 491,-105.5 491,-86.5 375,-86.5"/>
<text text-anchor="middle" x="433" y="-93.5" font-family="Helvetica,sans-Serif" font-size="10.00">model.Grid.inBounds</text>
</a>
</g>
</g>
<!-- Node1&#45;&gt;Node4 -->
<g id="edge9" class="edge"><title>Node1&#45;&gt;Node4</title>
<path fill="none" stroke="midnightblue" d="M123.116,-100.058C138.761,-103.742 155.948,-107.155 172,-109 237.139,-116.489 311.95,-111.314 364.551,-105.425"/>
<polygon fill="midnightblue" stroke="midnightblue" points="365.235,-108.869 374.765,-104.241 364.429,-101.915 365.235,-108.869"/>
</g>
<!-- Node5 -->
<g id="node5" class="node"><title>Node5</title>
<g id="a_node5"><a xlink:href="../../dc/d8f/classmodel_1_1_grid.html#a40adce87c26a3a6830125324ae576c34" target="_top" xlink:title="model.Grid.getGridRowSize">
<polygon fill="white" stroke="black" points="360,-45.5 360,-64.5 506,-64.5 506,-45.5 360,-45.5"/>
<text text-anchor="middle" x="433" y="-52.5" font-family="Helvetica,sans-Serif" font-size="10.00">model.Grid.getGridRowSize</text>
</a>
</g>
</g>
<!-- Node1&#45;&gt;Node5 -->
<g id="edge8" class="edge"><title>Node1&#45;&gt;Node5</title>
<path fill="none" stroke="midnightblue" d="M121.247,-69.9745C137.382,-65.9703 155.302,-62.1605 172,-60 231.186,-52.3422 298.572,-51.2596 349.909,-52.0037"/>
<polygon fill="midnightblue" stroke="midnightblue" points="349.897,-55.5039 359.956,-52.1754 350.017,-48.5049 349.897,-55.5039"/>
</g>
<!-- Node6 -->
<g id="node6" class="node"><title>Node6</title>
<g id="a_node6"><a xlink:href="../../dc/d8f/classmodel_1_1_grid.html#a01924b6019a14826898f281a3064b3b5" target="_top" xlink:title="model.Grid.getGridColSize">
<polygon fill="white" stroke="black" points="361.5,-0.5 361.5,-19.5 504.5,-19.5 504.5,-0.5 361.5,-0.5"/>
<text text-anchor="middle" x="433" y="-7.5" font-family="Helvetica,sans-Serif" font-size="10.00">model.Grid.getGridColSize</text>
</a>
</g>
</g>
<!-- Node1&#45;&gt;Node6 -->
<g id="edge7" class="edge"><title>Node1&#45;&gt;Node6</title>
<path fill="none" stroke="midnightblue" d="M105.634,-69.8217C125.065,-62.2893 149.511,-53.6226 172,-48 231.227,-33.192 299.584,-23.4815 351.34,-17.5856"/>
<polygon fill="midnightblue" stroke="midnightblue" points="351.912,-21.0436 361.462,-16.4569 351.136,-14.0867 351.912,-21.0436"/>
</g>
<!-- Node3&#45;&gt;Node2 -->
<g id="edge4" class="edge"><title>Node3&#45;&gt;Node2</title>
<path fill="none" stroke="midnightblue" d="M287.81,-100.057C320.377,-112.693 366.453,-130.569 397.688,-142.688"/>
<polygon fill="midnightblue" stroke="midnightblue" points="396.683,-146.052 407.272,-146.406 399.215,-139.526 396.683,-146.052"/>
</g>
<!-- Node3&#45;&gt;Node4 -->
<g id="edge3" class="edge"><title>Node3&#45;&gt;Node4</title>
<path fill="none" stroke="midnightblue" d="M324.225,-89.5217C337.605,-90.326 351.464,-91.159 364.608,-91.9491"/>
<polygon fill="midnightblue" stroke="midnightblue" points="364.782,-95.4658 374.974,-92.5722 365.202,-88.4784 364.782,-95.4658"/>
</g>
<!-- Node3&#45;&gt;Node5 -->
<g id="edge5" class="edge"><title>Node3&#45;&gt;Node5</title>
<path fill="none" stroke="midnightblue" d="M324.225,-72.668C337.294,-70.5256 350.819,-68.3083 363.69,-66.1984"/>
<polygon fill="midnightblue" stroke="midnightblue" points="364.548,-69.6045 373.85,-64.5328 363.416,-62.6967 364.548,-69.6045"/>
</g>
<!-- Node3&#45;&gt;Node6 -->
<g id="edge6" class="edge"><title>Node3&#45;&gt;Node6</title>
<path fill="none" stroke="midnightblue" d="M281.774,-69.8183C303.742,-59.8193 333.407,-46.6562 360,-36 371.164,-31.5266 383.431,-26.967 394.628,-22.9411"/>
<polygon fill="midnightblue" stroke="midnightblue" points="395.889,-26.2072 404.137,-19.5562 393.542,-19.6125 395.889,-26.2072"/>
</g>
</g>
</svg>
