<?xml version="1.0" encoding="UTF-8" standalone="no"?>
<!DOCTYPE svg PUBLIC "-//W3C//DTD SVG 1.1//EN"
 "http://www.w3.org/Graphics/SVG/1.1/DTD/svg11.dtd">
<!-- Generated by graphviz version 2.36.0 (20140111.2315)
 -->
<!-- Title: model.ToroidalGrid.copyGrid Pages: 1 -->
<svg width="358pt" height="180pt"
 viewBox="0.00 0.00 358.00 180.00" xmlns="http://www.w3.org/2000/svg" xmlns:xlink="http://www.w3.org/1999/xlink">
<g id="graph0" class="graph" transform="scale(1 1) rotate(0) translate(4 176)">
<title>model.ToroidalGrid.copyGrid</title>
<polygon fill="white" stroke="none" points="-4,4 -4,-176 354,-176 354,4 -4,4"/>
<!-- Node1 -->
<g id="node1" class="node"><title>Node1</title>
<polygon fill="#bfbfbf" stroke="black" points="0,-76.5 0,-95.5 150,-95.5 150,-76.5 0,-76.5"/>
<text text-anchor="middle" x="75" y="-83.5" font-family="Helvetica,sans-Serif" font-size="10.00">model.ToroidalGrid.copyGrid</text>
</g>
<!-- Node2 -->
<g id="node2" class="node"><title>Node2</title>
<g id="a_node2"><a xlink:href="../../dc/d8f/classmodel_1_1_grid.html#a7308e05b94f35a2f8198f314eb384267" target="_top" xlink:title="model.Grid.getCell">
<polygon fill="white" stroke="black" points="215.5,-152.5 215.5,-171.5 320.5,-171.5 320.5,-152.5 215.5,-152.5"/>
<text text-anchor="middle" x="268" y="-159.5" font-family="Helvetica,sans-Serif" font-size="10.00">model.Grid.getCell</text>
</a>
</g>
</g>
<!-- Node1&#45;&gt;Node2 -->
<g id="edge1" class="edge"><title>Node1&#45;&gt;Node2</title>
<path fill="none" stroke="midnightblue" d="M91.4655,-95.5867C112.257,-108.101 150.697,-129.943 186,-143 192.971,-145.578 200.411,-147.887 207.851,-149.932"/>
<polygon fill="midnightblue" stroke="midnightblue" points="207.033,-153.335 217.592,-152.467 208.796,-146.561 207.033,-153.335"/>
</g>
<!-- Node3 -->
<g id="node3" class="node"><title>Node3</title>
<g id="a_node3"><a xlink:href="../../dc/d8f/classmodel_1_1_grid.html#a01924b6019a14826898f281a3064b3b5" target="_top" xlink:title="model.Grid.getGridColSize">
<polygon fill="white" stroke="black" points="196.5,-114.5 196.5,-133.5 339.5,-133.5 339.5,-114.5 196.5,-114.5"/>
<text text-anchor="middle" x="268" y="-121.5" font-family="Helvetica,sans-Serif" font-size="10.00">model.Grid.getGridColSize</text>
</a>
</g>
</g>
<!-- Node1&#45;&gt;Node3 -->
<g id="edge2" class="edge"><title>Node1&#45;&gt;Node3</title>
<path fill="none" stroke="midnightblue" d="M124.197,-95.589C149.97,-100.716 181.891,-107.067 209.012,-112.463"/>
<polygon fill="midnightblue" stroke="midnightblue" points="208.658,-115.961 219.149,-114.48 210.024,-109.096 208.658,-115.961"/>
</g>
<!-- Node4 -->
<g id="node4" class="node"><title>Node4</title>
<g id="a_node4"><a xlink:href="../../dc/d8f/classmodel_1_1_grid.html#a40adce87c26a3a6830125324ae576c34" target="_top" xlink:title="model.Grid.getGridRowSize">
<polygon fill="white" stroke="black" points="195,-76.5 195,-95.5 341,-95.5 341,-76.5 195,-76.5"/>
<text text-anchor="middle" x="268" y="-83.5" font-family="Helvetica,sans-Serif" font-size="10.00">model.Grid.getGridRowSize</text>
</a>
</g>
</g>
<!-- Node1&#45;&gt;Node4 -->
<g id="edge3" class="edge"><title>Node1&#45;&gt;Node4</title>
<path fill="none" stroke="midnightblue" d="M150.119,-86C161.473,-86 173.253,-86 184.77,-86"/>
<polygon fill="midnightblue" stroke="midnightblue" points="184.806,-89.5001 194.806,-86 184.806,-82.5001 184.806,-89.5001"/>
</g>
<!-- Node5 -->
<g id="node5" class="node"><title>Node5</title>
<g id="a_node5"><a xlink:href="../../dc/d8f/classmodel_1_1_grid.html#a9e11c6171839cc24ba2b1d86b185912f" target="_top" xlink:title="model.Grid.putCell">
<polygon fill="white" stroke="black" points="215.5,-38.5 215.5,-57.5 320.5,-57.5 320.5,-38.5 215.5,-38.5"/>
<text text-anchor="middle" x="268" y="-45.5" font-family="Helvetica,sans-Serif" font-size="10.00">model.Grid.putCell</text>
</a>
</g>
</g>
<!-- Node1&#45;&gt;Node5 -->
<g id="edge4" class="edge"><title>Node1&#45;&gt;Node5</title>
<path fill="none" stroke="midnightblue" d="M124.197,-76.411C149.97,-71.2835 181.891,-64.9328 209.012,-59.5368"/>
<polygon fill="midnightblue" stroke="midnightblue" points="210.024,-62.9041 219.149,-57.5201 208.658,-56.0387 210.024,-62.9041"/>
</g>
<!-- Node6 -->
<g id="node6" class="node"><title>Node6</title>
<g id="a_node6"><a xlink:href="../../dc/df5/classmodel_1_1_toroidal_grid.html#af1c56ec916e15a5fb25417aa727c9bfb" target="_top" xlink:title="model.ToroidalGrid.ToroidalGrid">
<polygon fill="white" stroke="black" points="186,-0.5 186,-19.5 350,-19.5 350,-0.5 186,-0.5"/>
<text text-anchor="middle" x="268" y="-7.5" font-family="Helvetica,sans-Serif" font-size="10.00">model.ToroidalGrid.ToroidalGrid</text>
</a>
</g>
</g>
<!-- Node1&#45;&gt;Node6 -->
<g id="edge5" class="edge"><title>Node1&#45;&gt;Node6</title>
<path fill="none" stroke="midnightblue" d="M91.4655,-76.4133C112.257,-63.8986 150.697,-42.0568 186,-29 192.971,-26.422 200.411,-24.1127 207.851,-22.0684"/>
<polygon fill="midnightblue" stroke="midnightblue" points="208.796,-25.4391 217.592,-19.5331 207.033,-18.6647 208.796,-25.4391"/>
</g>
</g>
</svg>
