<?xml version="1.0" encoding="UTF-8" standalone="no"?>
<!DOCTYPE svg PUBLIC "-//W3C//DTD SVG 1.1//EN"
 "http://www.w3.org/Graphics/SVG/1.1/DTD/svg11.dtd">
<!-- Generated by graphviz version 2.36.0 (20140111.2315)
 -->
<!-- Title: viewPackage.ErrorDisplay.display Pages: 1 -->
<svg width="1514pt" height="115pt"
 viewBox="0.00 0.00 1514.00 115.00" xmlns="http://www.w3.org/2000/svg" xmlns:xlink="http://www.w3.org/1999/xlink">
<g id="graph0" class="graph" transform="scale(1 1) rotate(0) translate(4 111)">
<title>viewPackage.ErrorDisplay.display</title>
<polygon fill="white" stroke="none" points="-4,4 -4,-111 1510,-111 1510,4 -4,4"/>
<!-- Node1 -->
<g id="node1" class="node"><title>Node1</title>
<polygon fill="#bfbfbf" stroke="black" points="0,-49.5 0,-68.5 172,-68.5 172,-49.5 0,-49.5"/>
<text text-anchor="middle" x="86" y="-56.5" font-family="Helvetica,sans-Serif" font-size="10.00">viewPackage.ErrorDisplay.display</text>
</g>
<!-- Node2 -->
<g id="node2" class="node"><title>Node2</title>
<g id="a_node2"><a xlink:href="../../d1/dbf/classview_package_1_1_view.html#a03c6d8048559bfb48f6b81662fd54057" target="_top" xlink:title="viewPackage.View.createError\lWindow">
<polygon fill="white" stroke="black" points="208,-44 208,-74 366,-74 366,-44 208,-44"/>
<text text-anchor="start" x="216" y="-62" font-family="Helvetica,sans-Serif" font-size="10.00">viewPackage.View.createError</text>
<text text-anchor="middle" x="287" y="-51" font-family="Helvetica,sans-Serif" font-size="10.00">Window</text>
</a>
</g>
</g>
<!-- Node1&#45;&gt;Node2 -->
<g id="edge1" class="edge"><title>Node1&#45;&gt;Node2</title>
<path fill="none" stroke="midnightblue" d="M182.279,-59C190.842,-59 199.448,-59 207.841,-59"/>
<polygon fill="midnightblue" stroke="midnightblue" points="182.26,-55.5001 172.26,-59 182.26,-62.5001 182.26,-55.5001"/>
</g>
<!-- Node3 -->
<g id="node3" class="node"><title>Node3</title>
<g id="a_node3"><a xlink:href="../../d9/df7/classcontroller_1_1_controller.html#af7cc9ab6dfe60da36d3159eea48882db" target="_top" xlink:title="controller.Controller.loadFile">
<polygon fill="white" stroke="black" points="402,-87.5 402,-106.5 550,-106.5 550,-87.5 402,-87.5"/>
<text text-anchor="middle" x="476" y="-94.5" font-family="Helvetica,sans-Serif" font-size="10.00">controller.Controller.loadFile</text>
</a>
</g>
</g>
<!-- Node2&#45;&gt;Node3 -->
<g id="edge2" class="edge"><title>Node2&#45;&gt;Node3</title>
<path fill="none" stroke="midnightblue" d="M371.949,-76.0592C391.282,-79.9877 411.165,-84.0281 428.245,-87.4991"/>
<polygon fill="midnightblue" stroke="midnightblue" points="372.404,-72.5802 361.907,-74.0186 371.01,-79.44 372.404,-72.5802"/>
</g>
<!-- Node5 -->
<g id="node5" class="node"><title>Node5</title>
<g id="a_node5"><a xlink:href="../../dc/d2c/classview_package_1_1_button_box.html#aef53bd97c4407ecd3fb5dfbf42850a46" target="_top" xlink:title="viewPackage.ButtonBox.load\lFileBox">
<polygon fill="white" stroke="black" points="782.5,-44 782.5,-74 935.5,-74 935.5,-44 782.5,-44"/>
<text text-anchor="start" x="790.5" y="-62" font-family="Helvetica,sans-Serif" font-size="10.00">viewPackage.ButtonBox.load</text>
<text text-anchor="middle" x="859" y="-51" font-family="Helvetica,sans-Serif" font-size="10.00">FileBox</text>
</a>
</g>
</g>
<!-- Node2&#45;&gt;Node5 -->
<g id="edge10" class="edge"><title>Node2&#45;&gt;Node5</title>
<path fill="none" stroke="midnightblue" d="M376.255,-59C487.591,-59 677.169,-59 782.243,-59"/>
<polygon fill="midnightblue" stroke="midnightblue" points="376.061,-55.5001 366.061,-59 376.061,-62.5001 376.061,-55.5001"/>
</g>
<!-- Node9 -->
<g id="node9" class="node"><title>Node9</title>
<g id="a_node9"><a xlink:href="../../dc/d2c/classview_package_1_1_button_box.html#a6bf9f301b61c832c249686871cb810b8" target="_top" xlink:title="viewPackage.ButtonBox.make\lSlider">
<polygon fill="white" stroke="black" points="586,-0 586,-30 746,-30 746,-0 586,-0"/>
<text text-anchor="start" x="594" y="-18" font-family="Helvetica,sans-Serif" font-size="10.00">viewPackage.ButtonBox.make</text>
<text text-anchor="middle" x="666" y="-7" font-family="Helvetica,sans-Serif" font-size="10.00">Slider</text>
</a>
</g>
</g>
<!-- Node2&#45;&gt;Node9 -->
<g id="edge8" class="edge"><title>Node2&#45;&gt;Node9</title>
<path fill="none" stroke="midnightblue" d="M376.337,-48.0753C385.008,-47.026 393.674,-45.9861 402,-45 463.724,-37.6897 533.637,-29.7301 585.858,-23.8477"/>
<polygon fill="midnightblue" stroke="midnightblue" points="375.683,-44.629 366.177,-49.3088 376.526,-51.5779 375.683,-44.629"/>
</g>
<!-- Node4 -->
<g id="node4" class="node"><title>Node4</title>
<g id="a_node4"><a xlink:href="../../d1/dbf/classview_package_1_1_view.html#a718e5f42ae85512916198548e28477c7" target="_top" xlink:title="viewPackage.View.tryLoad">
<polygon fill="white" stroke="black" points="596,-87.5 596,-106.5 736,-106.5 736,-87.5 596,-87.5"/>
<text text-anchor="middle" x="666" y="-94.5" font-family="Helvetica,sans-Serif" font-size="10.00">viewPackage.View.tryLoad</text>
</a>
</g>
</g>
<!-- Node3&#45;&gt;Node4 -->
<g id="edge3" class="edge"><title>Node3&#45;&gt;Node4</title>
<path fill="none" stroke="midnightblue" d="M560.551,-97C572.39,-97 584.453,-97 595.976,-97"/>
<polygon fill="midnightblue" stroke="midnightblue" points="560.224,-93.5001 550.224,-97 560.224,-100.5 560.224,-93.5001"/>
</g>
<!-- Node4&#45;&gt;Node5 -->
<g id="edge4" class="edge"><title>Node4&#45;&gt;Node5</title>
<path fill="none" stroke="midnightblue" d="M725.24,-85.413C743.231,-81.8336 763.315,-77.8378 782.306,-74.0595"/>
<polygon fill="midnightblue" stroke="midnightblue" points="724.322,-82.0269 715.197,-87.411 725.688,-88.8924 724.322,-82.0269"/>
</g>
<!-- Node6 -->
<g id="node6" class="node"><title>Node6</title>
<g id="a_node6"><a xlink:href="../../dc/d2c/classview_package_1_1_button_box.html#a9756fc46a96c169ce48a1867bd2c82f5" target="_top" xlink:title="viewPackage.ButtonBox.make\lButtonBox">
<polygon fill="white" stroke="black" points="972,-44 972,-74 1132,-74 1132,-44 972,-44"/>
<text text-anchor="start" x="980" y="-62" font-family="Helvetica,sans-Serif" font-size="10.00">viewPackage.ButtonBox.make</text>
<text text-anchor="middle" x="1052" y="-51" font-family="Helvetica,sans-Serif" font-size="10.00">ButtonBox</text>
</a>
</g>
</g>
<!-- Node5&#45;&gt;Node6 -->
<g id="edge5" class="edge"><title>Node5&#45;&gt;Node6</title>
<path fill="none" stroke="midnightblue" d="M945.864,-59C954.526,-59 963.295,-59 971.881,-59"/>
<polygon fill="midnightblue" stroke="midnightblue" points="945.763,-55.5001 935.763,-59 945.763,-62.5001 945.763,-55.5001"/>
</g>
<!-- Node7 -->
<g id="node7" class="node"><title>Node7</title>
<g id="a_node7"><a xlink:href="../../d1/dbf/classview_package_1_1_view.html#af6f6887ef253ae0fba2634e367b95312" target="_top" xlink:title="viewPackage.View.initialize">
<polygon fill="white" stroke="black" points="1168,-27.5 1168,-46.5 1310,-46.5 1310,-27.5 1168,-27.5"/>
<text text-anchor="middle" x="1239" y="-34.5" font-family="Helvetica,sans-Serif" font-size="10.00">viewPackage.View.initialize</text>
</a>
</g>
</g>
<!-- Node6&#45;&gt;Node7 -->
<g id="edge6" class="edge"><title>Node6&#45;&gt;Node7</title>
<path fill="none" stroke="midnightblue" d="M1142.33,-48.3774C1150.93,-47.3543 1159.57,-46.3268 1167.95,-45.3304"/>
<polygon fill="midnightblue" stroke="midnightblue" points="1141.78,-44.9178 1132.26,-49.5743 1142.61,-51.8688 1141.78,-44.9178"/>
</g>
<!-- Node8 -->
<g id="node8" class="node"><title>Node8</title>
<g id="a_node8"><a xlink:href="../../d9/df7/classcontroller_1_1_controller.html#a4dbfef3e3e30bd1bb84df7a6b24ad1e7" target="_top" xlink:title="controller.Controller.Controller">
<polygon fill="white" stroke="black" points="1346.5,-27.5 1346.5,-46.5 1505.5,-46.5 1505.5,-27.5 1346.5,-27.5"/>
<text text-anchor="middle" x="1426" y="-34.5" font-family="Helvetica,sans-Serif" font-size="10.00">controller.Controller.Controller</text>
</a>
</g>
</g>
<!-- Node7&#45;&gt;Node8 -->
<g id="edge7" class="edge"><title>Node7&#45;&gt;Node8</title>
<path fill="none" stroke="midnightblue" d="M1320.31,-37C1329,-37 1337.83,-37 1346.49,-37"/>
<polygon fill="midnightblue" stroke="midnightblue" points="1320.2,-33.5001 1310.2,-37 1320.2,-40.5001 1320.2,-33.5001"/>
</g>
<!-- Node9&#45;&gt;Node7 -->
<g id="edge9" class="edge"><title>Node9&#45;&gt;Node7</title>
<path fill="none" stroke="midnightblue" d="M756.16,-18.4353C869.808,-22.814 1063.95,-30.294 1167.71,-34.292"/>
<polygon fill="midnightblue" stroke="midnightblue" points="756.223,-14.9351 746.095,-18.0474 755.953,-21.93 756.223,-14.9351"/>
</g>
</g>
</svg>
