<?xml version="1.0" encoding="UTF-8" standalone="no"?>
<!DOCTYPE svg PUBLIC "-//W3C//DTD SVG 1.1//EN"
 "http://www.w3.org/Graphics/SVG/1.1/DTD/svg11.dtd">
<!-- Generated by graphviz version 2.36.0 (20140111.2315)
 -->
<!-- Title: viewPackage.ButtonBox Pages: 1 -->
<svg width="1084pt" height="554pt"
 viewBox="0.00 0.00 1084.00 554.00" xmlns="http://www.w3.org/2000/svg" xmlns:xlink="http://www.w3.org/1999/xlink">
<g id="graph0" class="graph" transform="scale(1 1) rotate(0) translate(4 550)">
<title>viewPackage.ButtonBox</title>
<polygon fill="white" stroke="none" points="-4,4 -4,-550 1080,-550 1080,4 -4,4"/>
<!-- Node1 -->
<g id="node1" class="node"><title>Node1</title>
<polygon fill="#bfbfbf" stroke="black" points="414,-170.5 414,-189.5 544,-189.5 544,-170.5 414,-170.5"/>
<text text-anchor="middle" x="479" y="-177.5" font-family="Helvetica,sans-Serif" font-size="10.00">viewPackage.ButtonBox</text>
</g>
<!-- Node3 -->
<g id="node3" class="node"><title>Node3</title>
<g id="a_node3"><a xlink:href="../../d1/dbf/classview_package_1_1_view.html" target="_top" xlink:title="viewPackage.View">
<polygon fill="white" stroke="black" points="676.5,-255.5 676.5,-274.5 777.5,-274.5 777.5,-255.5 676.5,-255.5"/>
<text text-anchor="middle" x="727" y="-262.5" font-family="Helvetica,sans-Serif" font-size="10.00">viewPackage.View</text>
</a>
</g>
</g>
<!-- Node1&#45;&gt;Node3 -->
<g id="edge26" class="edge"><title>Node1&#45;&gt;Node3</title>
<path fill="none" stroke="#9a32cd" stroke-dasharray="5,2" d="M516.61,-167.546C550.663,-158.159 602.015,-149.732 642,-168 647.192,-170.372 697.934,-231.146 717.945,-255.267"/>
<polygon fill="#9a32cd" stroke="#9a32cd" points="515.246,-164.298 506.628,-170.461 517.209,-171.017 515.246,-164.298"/>
<text text-anchor="middle" x="602" y="-171" font-family="Helvetica,sans-Serif" font-size="10.00"> buttons</text>
</g>
<!-- Node2 -->
<g id="node2" class="node"><title>Node2</title>
<polygon fill="white" stroke="#bfbfbf" points="216.5,-170.5 216.5,-189.5 309.5,-189.5 309.5,-170.5 216.5,-170.5"/>
<text text-anchor="middle" x="263" y="-177.5" font-family="Helvetica,sans-Serif" font-size="10.00">ResourceBundle</text>
</g>
<!-- Node2&#45;&gt;Node1 -->
<g id="edge1" class="edge"><title>Node2&#45;&gt;Node1</title>
<path fill="none" stroke="#9a32cd" stroke-dasharray="5,2" d="M319.929,-180C348.69,-180 383.881,-180 413.753,-180"/>
<polygon fill="#9a32cd" stroke="#9a32cd" points="319.646,-176.5 309.646,-180 319.646,-183.5 319.646,-176.5"/>
<text text-anchor="middle" x="362" y="-183" font-family="Helvetica,sans-Serif" font-size="10.00"> myResources</text>
</g>
<!-- Node2&#45;&gt;Node3 -->
<g id="edge9" class="edge"><title>Node2&#45;&gt;Node3</title>
<path fill="none" stroke="#9a32cd" stroke-dasharray="5,2" d="M313.293,-191.846C318.253,-192.95 323.221,-194.02 328,-195 393.98,-208.523 584.865,-241.137 676.184,-256.598"/>
<polygon fill="#9a32cd" stroke="#9a32cd" points="313.712,-188.352 303.185,-189.551 312.162,-195.178 313.712,-188.352"/>
<text text-anchor="middle" x="479" y="-237" font-family="Helvetica,sans-Serif" font-size="10.00"> myResources</text>
</g>
<!-- Node13 -->
<g id="node13" class="node"><title>Node13</title>
<g id="a_node13"><a xlink:href="../../d9/df7/classcontroller_1_1_controller.html" target="_top" xlink:title="controller.Controller">
<polygon fill="white" stroke="black" points="941,-136.5 941,-155.5 1051,-155.5 1051,-136.5 941,-136.5"/>
<text text-anchor="middle" x="996" y="-143.5" font-family="Helvetica,sans-Serif" font-size="10.00">controller.Controller</text>
</a>
</g>
</g>
<!-- Node2&#45;&gt;Node13 -->
<g id="edge17" class="edge"><title>Node2&#45;&gt;Node13</title>
<path fill="none" stroke="#9a32cd" stroke-dasharray="5,2" d="M314.246,-168.201C389.072,-151.297 534.457,-121.011 660,-110 719.328,-104.797 734.56,-106.299 794,-110 840.492,-112.894 852.159,-114.725 898,-123 918.268,-126.659 940.653,-131.886 958.807,-136.432"/>
<polygon fill="#9a32cd" stroke="#9a32cd" points="313.139,-164.863 304.165,-170.494 314.692,-171.689 313.139,-164.863"/>
<text text-anchor="middle" x="602" y="-125" font-family="Helvetica,sans-Serif" font-size="10.00"> myResources</text>
</g>
<!-- Node3&#45;&gt;Node1 -->
<g id="edge2" class="edge"><title>Node3&#45;&gt;Node1</title>
<path fill="none" stroke="#9a32cd" stroke-dasharray="5,2" d="M709.361,-248.015C693.528,-232.983 668.281,-211.803 642,-201 611.31,-188.385 574.834,-182.914 544.272,-180.693"/>
<polygon fill="#9a32cd" stroke="#9a32cd" points="707.141,-250.74 716.738,-255.229 712.035,-245.735 707.141,-250.74"/>
<text text-anchor="middle" x="602" y="-204" font-family="Helvetica,sans-Serif" font-size="10.00"> view</text>
</g>
<!-- Node5 -->
<g id="node5" class="node"><title>Node5</title>
<g id="a_node5"><a xlink:href="../../df/dcf/classview_package_1_1_display_grid.html" target="_top" xlink:title="viewPackage.DisplayGrid">
<polygon fill="white" stroke="black" points="929,-289.5 929,-308.5 1063,-308.5 1063,-289.5 929,-289.5"/>
<text text-anchor="middle" x="996" y="-296.5" font-family="Helvetica,sans-Serif" font-size="10.00">viewPackage.DisplayGrid</text>
</a>
</g>
</g>
<!-- Node3&#45;&gt;Node5 -->
<g id="edge6" class="edge"><title>Node3&#45;&gt;Node5</title>
<path fill="none" stroke="#9a32cd" stroke-dasharray="5,2" d="M787.888,-273.722C795.989,-274.853 804.195,-275.973 812,-277 850.706,-282.091 894.082,-287.326 928.886,-291.411"/>
<polygon fill="#9a32cd" stroke="#9a32cd" points="788.113,-270.219 777.722,-272.29 787.136,-277.15 788.113,-270.219"/>
<text text-anchor="middle" x="855" y="-291" font-family="Helvetica,sans-Serif" font-size="10.00"> view</text>
</g>
<!-- Node9 -->
<g id="node9" class="node"><title>Node9</title>
<g id="a_node9"><a xlink:href="../../d1/d10/classview_package_1_1_population_graph.html" target="_top" xlink:title="viewPackage.PopulationGraph">
<polygon fill="white" stroke="black" points="916.5,-427.5 916.5,-446.5 1075.5,-446.5 1075.5,-427.5 916.5,-427.5"/>
<text text-anchor="middle" x="996" y="-434.5" font-family="Helvetica,sans-Serif" font-size="10.00">viewPackage.PopulationGraph</text>
</a>
</g>
</g>
<!-- Node3&#45;&gt;Node9 -->
<g id="edge13" class="edge"><title>Node3&#45;&gt;Node9</title>
<path fill="none" stroke="#9a32cd" stroke-dasharray="5,2" d="M741.72,-282.674C756.927,-301.03 783.146,-329.228 812,-345 846.524,-363.872 862.33,-349.395 898,-366 933.002,-382.294 968.072,-412.116 984.832,-427.405"/>
<polygon fill="#9a32cd" stroke="#9a32cd" points="744.175,-280.142 735.176,-274.551 738.724,-284.534 744.175,-280.142"/>
<text text-anchor="middle" x="855" y="-369" font-family="Helvetica,sans-Serif" font-size="10.00"> view</text>
</g>
<!-- Node3&#45;&gt;Node13 -->
<g id="edge18" class="edge"><title>Node3&#45;&gt;Node13</title>
<path fill="none" stroke="#9a32cd" stroke-dasharray="5,2" d="M776.123,-252.735C810.884,-243.024 858.472,-227.954 898,-209 930.23,-193.546 964.535,-169.125 982.449,-155.678"/>
<polygon fill="#9a32cd" stroke="#9a32cd" points="774.941,-249.43 766.224,-255.452 776.794,-256.18 774.941,-249.43"/>
<text text-anchor="middle" x="855" y="-244" font-family="Helvetica,sans-Serif" font-size="10.00"> myView</text>
</g>
<!-- Node4 -->
<g id="node4" class="node"><title>Node4</title>
<polygon fill="white" stroke="#bfbfbf" points="456.5,-331.5 456.5,-350.5 501.5,-350.5 501.5,-331.5 456.5,-331.5"/>
<text text-anchor="middle" x="479" y="-338.5" font-family="Helvetica,sans-Serif" font-size="10.00">Stage</text>
</g>
<!-- Node4&#45;&gt;Node3 -->
<g id="edge3" class="edge"><title>Node4&#45;&gt;Node3</title>
<path fill="none" stroke="#9a32cd" stroke-dasharray="5,2" d="M511.721,-336.807C544.861,-331.861 598.045,-322.315 642,-307 666.635,-298.417 693.289,-284.156 709.815,-274.668"/>
<polygon fill="#9a32cd" stroke="#9a32cd" points="511.101,-333.36 501.703,-338.253 512.101,-340.288 511.101,-333.36"/>
<text text-anchor="middle" x="602" y="-331" font-family="Helvetica,sans-Serif" font-size="10.00"> additionalStage</text>
</g>
<!-- Node5&#45;&gt;Node3 -->
<g id="edge4" class="edge"><title>Node5&#45;&gt;Node3</title>
<path fill="none" stroke="#9a32cd" stroke-dasharray="5,2" d="M964.075,-285.626C945.344,-278.251 920.749,-269.833 898,-266 857.982,-259.258 811.909,-259.47 777.831,-261.111"/>
<polygon fill="#9a32cd" stroke="#9a32cd" points="962.979,-288.958 973.562,-289.468 965.607,-282.47 962.979,-288.958"/>
<text text-anchor="middle" x="855" y="-269" font-family="Helvetica,sans-Serif" font-size="10.00"> myGridDisplayed</text>
</g>
<!-- Node6 -->
<g id="node6" class="node"><title>Node6</title>
<polygon fill="white" stroke="#bfbfbf" points="703.5,-389.5 703.5,-408.5 750.5,-408.5 750.5,-389.5 703.5,-389.5"/>
<text text-anchor="middle" x="727" y="-396.5" font-family="Helvetica,sans-Serif" font-size="10.00">Shape</text>
</g>
<!-- Node6&#45;&gt;Node5 -->
<g id="edge5" class="edge"><title>Node6&#45;&gt;Node5</title>
<path fill="none" stroke="#9a32cd" stroke-dasharray="5,2" d="M760.991,-400.523C796.308,-400.943 853.29,-398.081 898,-379 936.347,-362.634 971.469,-326.157 986.832,-308.688"/>
<polygon fill="#9a32cd" stroke="#9a32cd" points="760.838,-397.019 750.764,-400.301 760.686,-404.017 760.838,-397.019"/>
<text text-anchor="middle" x="855" y="-402" font-family="Helvetica,sans-Serif" font-size="10.00"> myGrid</text>
</g>
<!-- Node7 -->
<g id="node7" class="node"><title>Node7</title>
<g id="a_node7"><a xlink:href="../../df/d81/classview_package_1_1_toggle_box.html" target="_top" xlink:title="viewPackage.ToggleBox">
<polygon fill="white" stroke="black" points="415,-255.5 415,-274.5 543,-274.5 543,-255.5 415,-255.5"/>
<text text-anchor="middle" x="479" y="-262.5" font-family="Helvetica,sans-Serif" font-size="10.00">viewPackage.ToggleBox</text>
</a>
</g>
</g>
<!-- Node7&#45;&gt;Node3 -->
<g id="edge7" class="edge"><title>Node7&#45;&gt;Node3</title>
<path fill="none" stroke="#9a32cd" stroke-dasharray="5,2" d="M553.201,-265C592.92,-265 640.975,-265 676.315,-265"/>
<polygon fill="#9a32cd" stroke="#9a32cd" points="553.032,-261.5 543.032,-265 553.032,-268.5 553.032,-261.5"/>
<text text-anchor="middle" x="602" y="-268" font-family="Helvetica,sans-Serif" font-size="10.00"> toggles</text>
</g>
<!-- Node8 -->
<g id="node8" class="node"><title>Node8</title>
<polygon fill="white" stroke="#bfbfbf" points="225,-287.5 225,-306.5 301,-306.5 301,-287.5 225,-287.5"/>
<text text-anchor="middle" x="263" y="-294.5" font-family="Helvetica,sans-Serif" font-size="10.00">ToggleGroup</text>
</g>
<!-- Node8&#45;&gt;Node7 -->
<g id="edge8" class="edge"><title>Node8&#45;&gt;Node7</title>
<path fill="none" stroke="#9a32cd" stroke-dasharray="5,2" d="M311.21,-289.94C341.649,-285.389 381.594,-279.416 414.761,-274.456"/>
<polygon fill="#9a32cd" stroke="#9a32cd" points="310.648,-286.486 301.276,-291.426 311.684,-293.409 310.648,-286.486"/>
<text text-anchor="middle" x="362" y="-312" font-family="Helvetica,sans-Serif" font-size="10.00"> outline</text>
<text text-anchor="middle" x="362" y="-301" font-family="Helvetica,sans-Serif" font-size="10.00">edgeType</text>
<text text-anchor="middle" x="362" y="-290" font-family="Helvetica,sans-Serif" font-size="10.00">cellShape</text>
</g>
<!-- Node9&#45;&gt;Node3 -->
<g id="edge10" class="edge"><title>Node9&#45;&gt;Node3</title>
<path fill="none" stroke="#9a32cd" stroke-dasharray="5,2" d="M982.269,-418.948C965.39,-396.219 933.559,-357.332 898,-334 864.03,-311.711 849.649,-318.274 812,-303 789.752,-293.974 764.737,-282.479 747.835,-274.507"/>
<polygon fill="#9a32cd" stroke="#9a32cd" points="979.656,-421.306 988.365,-427.339 985.319,-417.191 979.656,-421.306"/>
<text text-anchor="middle" x="855" y="-337" font-family="Helvetica,sans-Serif" font-size="10.00"> myGraph</text>
</g>
<!-- Node10 -->
<g id="node10" class="node"><title>Node10</title>
<polygon fill="white" stroke="#bfbfbf" points="660,-516 660,-546 794,-546 794,-516 660,-516"/>
<text text-anchor="start" x="668" y="-534" font-family="Helvetica,sans-Serif" font-size="10.00">List&lt; XYChart.Series</text>
<text text-anchor="middle" x="727" y="-523" font-family="Helvetica,sans-Serif" font-size="10.00">&lt; Number, Number &gt; &gt;</text>
</g>
<!-- Node10&#45;&gt;Node9 -->
<g id="edge11" class="edge"><title>Node10&#45;&gt;Node9</title>
<path fill="none" stroke="#9a32cd" stroke-dasharray="5,2" d="M803.969,-515.164C833.754,-507.969 867.932,-498.476 898,-487 927.737,-475.65 960.218,-457.664 979.036,-446.639"/>
<polygon fill="#9a32cd" stroke="#9a32cd" points="802.972,-511.803 794.049,-517.515 804.586,-518.614 802.972,-511.803"/>
<text text-anchor="middle" x="855" y="-515" font-family="Helvetica,sans-Serif" font-size="10.00"> listOfSpecies</text>
</g>
<!-- Node11 -->
<g id="node11" class="node"><title>Node11</title>
<polygon fill="white" stroke="#bfbfbf" points="669,-467 669,-497 785,-497 785,-467 669,-467"/>
<text text-anchor="start" x="677" y="-485" font-family="Helvetica,sans-Serif" font-size="10.00">LineChart&lt; Number,</text>
<text text-anchor="middle" x="727" y="-474" font-family="Helvetica,sans-Serif" font-size="10.00"> Number &gt;</text>
</g>
<!-- Node11&#45;&gt;Node9 -->
<g id="edge12" class="edge"><title>Node11&#45;&gt;Node9</title>
<path fill="none" stroke="#9a32cd" stroke-dasharray="5,2" d="M795.226,-474.934C826.577,-471.221 864.319,-466.155 898,-460 918.26,-456.297 940.644,-451.067 958.8,-446.53"/>
<polygon fill="#9a32cd" stroke="#9a32cd" points="794.813,-471.458 785.285,-476.092 795.622,-478.411 794.813,-471.458"/>
<text text-anchor="middle" x="855" y="-475" font-family="Helvetica,sans-Serif" font-size="10.00"> lineChart</text>
</g>
<!-- Node12 -->
<g id="node12" class="node"><title>Node12</title>
<polygon fill="white" stroke="#bfbfbf" points="689.5,-427.5 689.5,-446.5 764.5,-446.5 764.5,-427.5 689.5,-427.5"/>
<text text-anchor="middle" x="727" y="-434.5" font-family="Helvetica,sans-Serif" font-size="10.00">NumberAxis</text>
</g>
<!-- Node12&#45;&gt;Node9 -->
<g id="edge14" class="edge"><title>Node12&#45;&gt;Node9</title>
<path fill="none" stroke="#9a32cd" stroke-dasharray="5,2" d="M774.604,-437C813.697,-437 870.368,-437 916.454,-437"/>
<polygon fill="#9a32cd" stroke="#9a32cd" points="774.565,-433.5 764.565,-437 774.565,-440.5 774.565,-433.5"/>
<text text-anchor="middle" x="855" y="-451" font-family="Helvetica,sans-Serif" font-size="10.00"> xAxis</text>
<text text-anchor="middle" x="855" y="-440" font-family="Helvetica,sans-Serif" font-size="10.00">yAxis</text>
</g>
<!-- Node13&#45;&gt;Node3 -->
<g id="edge15" class="edge"><title>Node13&#45;&gt;Node3</title>
<path fill="none" stroke="#9a32cd" stroke-dasharray="5,2" d="M954.256,-158.469C936.945,-163.692 916.52,-169.756 898,-175 859.931,-185.779 847.324,-180.176 812,-198 781.69,-213.294 752.02,-240.706 737.401,-255.275"/>
<polygon fill="#9a32cd" stroke="#9a32cd" points="955.494,-161.751 964.051,-155.504 953.466,-155.052 955.494,-161.751"/>
<text text-anchor="middle" x="855" y="-201" font-family="Helvetica,sans-Serif" font-size="10.00"> control</text>
</g>
<!-- Node14 -->
<g id="node14" class="node"><title>Node14</title>
<polygon fill="white" stroke="#bfbfbf" points="699,-157.5 699,-176.5 755,-176.5 755,-157.5 699,-157.5"/>
<text text-anchor="middle" x="727" y="-164.5" font-family="Helvetica,sans-Serif" font-size="10.00">Timeline</text>
</g>
<!-- Node14&#45;&gt;Node13 -->
<g id="edge16" class="edge"><title>Node14&#45;&gt;Node13</title>
<path fill="none" stroke="#9a32cd" stroke-dasharray="5,2" d="M765.124,-164.08C810.77,-160.49 888.604,-154.368 940.901,-150.255"/>
<polygon fill="#9a32cd" stroke="#9a32cd" points="764.765,-160.597 755.071,-164.871 765.314,-167.576 764.765,-160.597"/>
<text text-anchor="middle" x="855" y="-164" font-family="Helvetica,sans-Serif" font-size="10.00"> myTimeline</text>
</g>
<!-- Node15 -->
<g id="node15" class="node"><title>Node15</title>
<g id="a_node15"><a xlink:href="../../d2/d17/classmodel_1_1_simulation.html" target="_top" xlink:title="model.Simulation">
<polygon fill="white" stroke="black" points="676.5,-36.5 676.5,-55.5 777.5,-55.5 777.5,-36.5 676.5,-36.5"/>
<text text-anchor="middle" x="727" y="-43.5" font-family="Helvetica,sans-Serif" font-size="10.00">model.Simulation</text>
</a>
</g>
</g>
<!-- Node15&#45;&gt;Node13 -->
<g id="edge19" class="edge"><title>Node15&#45;&gt;Node13</title>
<path fill="none" stroke="#9a32cd" stroke-dasharray="5,2" d="M787.653,-44.836C821.261,-46.1576 863.322,-51.2002 898,-66 936.347,-82.3656 971.469,-118.843 986.832,-136.312"/>
<polygon fill="#9a32cd" stroke="#9a32cd" points="787.61,-41.3333 777.512,-44.5386 787.405,-48.3303 787.61,-41.3333"/>
<text text-anchor="middle" x="855" y="-69" font-family="Helvetica,sans-Serif" font-size="10.00"> rules</text>
</g>
<!-- Node16 -->
<g id="node16" class="node"><title>Node16</title>
<g id="a_node16"><a xlink:href="../../dc/d8f/classmodel_1_1_grid.html" target="_top" xlink:title="model.Grid">
<polygon fill="white" stroke="black" points="444.5,-38.5 444.5,-57.5 513.5,-57.5 513.5,-38.5 444.5,-38.5"/>
<text text-anchor="middle" x="479" y="-45.5" font-family="Helvetica,sans-Serif" font-size="10.00">model.Grid</text>
</a>
</g>
</g>
<!-- Node16&#45;&gt;Node15 -->
<g id="edge20" class="edge"><title>Node16&#45;&gt;Node15</title>
<path fill="none" stroke="#9a32cd" stroke-dasharray="5,2" d="M523.619,-47.4187C536.022,-47.2668 549.543,-47.1139 562,-47 600.437,-46.6484 643.942,-46.3896 676.481,-46.2234"/>
<polygon fill="#9a32cd" stroke="#9a32cd" points="523.468,-43.9202 513.512,-47.5452 523.555,-50.9197 523.468,-43.9202"/>
<text text-anchor="middle" x="602" y="-61" font-family="Helvetica,sans-Serif" font-size="10.00"> currentGrid</text>
<text text-anchor="middle" x="602" y="-50" font-family="Helvetica,sans-Serif" font-size="10.00">nextGrid</text>
</g>
<!-- Node17 -->
<g id="node17" class="node"><title>Node17</title>
<g id="a_node17"><a xlink:href="../../d3/d57/classmodel_1_1_cell.html" target="_top" xlink:title="model.Cell">
<polygon fill="white" stroke="black" points="229.5,-38.5 229.5,-57.5 296.5,-57.5 296.5,-38.5 229.5,-38.5"/>
<text text-anchor="middle" x="263" y="-45.5" font-family="Helvetica,sans-Serif" font-size="10.00">model.Cell</text>
</a>
</g>
</g>
<!-- Node17&#45;&gt;Node16 -->
<g id="edge21" class="edge"><title>Node17&#45;&gt;Node16</title>
<path fill="none" stroke="#9a32cd" stroke-dasharray="5,2" d="M306.611,-48C347.135,-48 407.277,-48 444.485,-48"/>
<polygon fill="#9a32cd" stroke="#9a32cd" points="306.502,-44.5001 296.502,-48 306.502,-51.5001 306.502,-44.5001"/>
<text text-anchor="middle" x="362" y="-51" font-family="Helvetica,sans-Serif" font-size="10.00"> myCells</text>
</g>
<!-- Node18 -->
<g id="node18" class="node"><title>Node18</title>
<polygon fill="white" stroke="#bfbfbf" points="0,-57.5 0,-76.5 128,-76.5 128,-57.5 0,-57.5"/>
<text text-anchor="middle" x="64" y="-64.5" font-family="Helvetica,sans-Serif" font-size="10.00">Map&lt; String, Integer &gt;</text>
</g>
<!-- Node18&#45;&gt;Node17 -->
<g id="edge22" class="edge"><title>Node18&#45;&gt;Node17</title>
<path fill="none" stroke="#9a32cd" stroke-dasharray="5,2" d="M138.167,-59.9432C169.487,-56.9225 204.474,-53.5482 229.248,-51.1588"/>
<polygon fill="#9a32cd" stroke="#9a32cd" points="137.763,-56.4659 128.145,-60.9099 138.435,-63.4336 137.763,-56.4659"/>
<text text-anchor="middle" x="172" y="-62" font-family="Helvetica,sans-Serif" font-size="10.00"> properties</text>
</g>
<!-- Node19 -->
<g id="node19" class="node"><title>Node19</title>
<g id="a_node19"><a xlink:href="../../d0/d76/enummodel_1_1_cell_state.html" target="_top" xlink:title="model.CellState">
<polygon fill="white" stroke="black" points="17.5,-19.5 17.5,-38.5 110.5,-38.5 110.5,-19.5 17.5,-19.5"/>
<text text-anchor="middle" x="64" y="-26.5" font-family="Helvetica,sans-Serif" font-size="10.00">model.CellState</text>
</a>
</g>
</g>
<!-- Node19&#45;&gt;Node17 -->
<g id="edge23" class="edge"><title>Node19&#45;&gt;Node17</title>
<path fill="none" stroke="#9a32cd" stroke-dasharray="5,2" d="M120.857,-33.0972C144.653,-34.9781 172.706,-37.3743 198,-40 208.247,-41.0637 219.394,-42.396 229.472,-43.6666"/>
<polygon fill="#9a32cd" stroke="#9a32cd" points="120.837,-29.5851 110.595,-32.297 120.292,-36.5639 120.837,-29.5851"/>
<text text-anchor="middle" x="172" y="-43" font-family="Helvetica,sans-Serif" font-size="10.00"> state</text>
</g>
<!-- Node20 -->
<g id="node20" class="node"><title>Node20</title>
<polygon fill="white" stroke="#bfbfbf" points="451,-0.5 451,-19.5 507,-19.5 507,-0.5 451,-0.5"/>
<text text-anchor="middle" x="479" y="-7.5" font-family="Helvetica,sans-Serif" font-size="10.00">Random</text>
</g>
<!-- Node20&#45;&gt;Node15 -->
<g id="edge24" class="edge"><title>Node20&#45;&gt;Node15</title>
<path fill="none" stroke="#9a32cd" stroke-dasharray="5,2" d="M517.336,-14.7453C550.2,-18.9998 599.33,-25.5483 642,-32 653.11,-33.6798 665.027,-35.5961 676.292,-37.4605"/>
<polygon fill="#9a32cd" stroke="#9a32cd" points="517.632,-11.2545 507.266,-13.4476 516.737,-18.1971 517.632,-11.2545"/>
<text text-anchor="middle" x="602" y="-35" font-family="Helvetica,sans-Serif" font-size="10.00"> myGenerator</text>
</g>
<!-- Node21 -->
<g id="node21" class="node"><title>Node21</title>
<polygon fill="white" stroke="#bfbfbf" points="666,-119.5 666,-138.5 788,-138.5 788,-119.5 666,-119.5"/>
<text text-anchor="middle" x="727" y="-126.5" font-family="Helvetica,sans-Serif" font-size="10.00">Map&lt; String, String &gt;</text>
</g>
<!-- Node21&#45;&gt;Node13 -->
<g id="edge25" class="edge"><title>Node21&#45;&gt;Node13</title>
<path fill="none" stroke="#9a32cd" stroke-dasharray="5,2" d="M798.452,-126.932C829.088,-126.674 865.369,-127.23 898,-130 913.816,-131.343 930.942,-133.821 946.339,-136.433"/>
<polygon fill="#9a32cd" stroke="#9a32cd" points="798.251,-123.434 788.292,-127.049 798.331,-130.433 798.251,-123.434"/>
<text text-anchor="middle" x="855" y="-133" font-family="Helvetica,sans-Serif" font-size="10.00"> stateColorMap</text>
</g>
<!-- Node22 -->
<g id="node22" class="node"><title>Node22</title>
<polygon fill="white" stroke="#bfbfbf" points="456,-293.5 456,-312.5 502,-312.5 502,-293.5 456,-293.5"/>
<text text-anchor="middle" x="479" y="-300.5" font-family="Helvetica,sans-Serif" font-size="10.00">Group</text>
</g>
<!-- Node22&#45;&gt;Node3 -->
<g id="edge27" class="edge"><title>Node22&#45;&gt;Node3</title>
<path fill="none" stroke="#9a32cd" stroke-dasharray="5,2" d="M512.372,-298.75C545.11,-294.37 597.143,-287.187 642,-280 653.117,-278.219 665.036,-276.173 676.302,-274.177"/>
<polygon fill="#9a32cd" stroke="#9a32cd" points="511.499,-295.335 502.048,-300.123 512.422,-302.274 511.499,-295.335"/>
<text text-anchor="middle" x="602" y="-295" font-family="Helvetica,sans-Serif" font-size="10.00"> root</text>
</g>
<!-- Node23 -->
<g id="node23" class="node"><title>Node23</title>
<polygon fill="white" stroke="#bfbfbf" points="245.5,-249.5 245.5,-268.5 280.5,-268.5 280.5,-249.5 245.5,-249.5"/>
<text text-anchor="middle" x="263" y="-256.5" font-family="Helvetica,sans-Serif" font-size="10.00">Text</text>
</g>
<!-- Node23&#45;&gt;Node1 -->
<g id="edge28" class="edge"><title>Node23&#45;&gt;Node1</title>
<path fill="none" stroke="#9a32cd" stroke-dasharray="5,2" d="M290.174,-249.338C331.446,-234.102 411.161,-204.674 452.2,-189.524"/>
<polygon fill="#9a32cd" stroke="#9a32cd" points="288.961,-246.054 280.792,-252.801 291.386,-252.621 288.961,-246.054"/>
<text text-anchor="middle" x="362" y="-237" font-family="Helvetica,sans-Serif" font-size="10.00"> speedText</text>
</g>
</g>
</svg>
