<?xml version="1.0" encoding="UTF-8" standalone="no"?>
<!DOCTYPE svg PUBLIC "-//W3C//DTD SVG 1.1//EN"
 "http://www.w3.org/Graphics/SVG/1.1/DTD/svg11.dtd">
<!-- Generated by graphviz version 2.36.0 (20140111.2315)
 -->
<!-- Title: model.FireSimulation Pages: 1 -->
<svg width="273pt" height="300pt"
 viewBox="0.00 0.00 273.00 300.00" xmlns="http://www.w3.org/2000/svg" xmlns:xlink="http://www.w3.org/1999/xlink">
<g id="graph0" class="graph" transform="scale(1 1) rotate(0) translate(4 296)">
<title>model.FireSimulation</title>
<polygon fill="white" stroke="none" points="-4,4 -4,-296 269,-296 269,4 -4,4"/>
<!-- Node1 -->
<g id="node1" class="node"><title>Node1</title>
<polygon fill="#bfbfbf" stroke="black" points="109.5,-0.5 109.5,-19.5 226.5,-19.5 226.5,-0.5 109.5,-0.5"/>
<text text-anchor="middle" x="168" y="-7.5" font-family="Helvetica,sans-Serif" font-size="10.00">model.FireSimulation</text>
</g>
<!-- Node2 -->
<g id="node2" class="node"><title>Node2</title>
<g id="a_node2"><a xlink:href="../../d2/d17/classmodel_1_1_simulation.html" target="_top" xlink:title="model.Simulation">
<polygon fill="white" stroke="black" points="117.5,-58.5 117.5,-77.5 218.5,-77.5 218.5,-58.5 117.5,-58.5"/>
<text text-anchor="middle" x="168" y="-65.5" font-family="Helvetica,sans-Serif" font-size="10.00">model.Simulation</text>
</a>
</g>
</g>
<!-- Node2&#45;&gt;Node1 -->
<g id="edge1" class="edge"><title>Node2&#45;&gt;Node1</title>
<path fill="none" stroke="midnightblue" d="M168,-47.953C168,-38.2875 168,-27.0312 168,-19.5052"/>
<polygon fill="midnightblue" stroke="midnightblue" points="164.5,-48.25 168,-58.25 171.5,-48.25 164.5,-48.25"/>
</g>
<!-- Node3 -->
<g id="node3" class="node"><title>Node3</title>
<g id="a_node3"><a xlink:href="../../dc/d8f/classmodel_1_1_grid.html" target="_top" xlink:title="model.Grid">
<polygon fill="white" stroke="black" points="93.5,-136.5 93.5,-155.5 162.5,-155.5 162.5,-136.5 93.5,-136.5"/>
<text text-anchor="middle" x="128" y="-143.5" font-family="Helvetica,sans-Serif" font-size="10.00">model.Grid</text>
</a>
</g>
</g>
<!-- Node3&#45;&gt;Node2 -->
<g id="edge2" class="edge"><title>Node3&#45;&gt;Node2</title>
<path fill="none" stroke="#9a32cd" stroke-dasharray="5,2" d="M124.502,-126.34C123.63,-116.738 124.081,-105.159 129,-96 133.286,-88.0194 141.089,-81.9121 148.596,-77.5416"/>
<polygon fill="#9a32cd" stroke="#9a32cd" points="121.066,-127.036 125.946,-136.44 127.996,-126.046 121.066,-127.036"/>
<text text-anchor="middle" x="158" y="-110" font-family="Helvetica,sans-Serif" font-size="10.00"> currentGrid</text>
<text text-anchor="middle" x="158" y="-99" font-family="Helvetica,sans-Serif" font-size="10.00">nextGrid</text>
</g>
<!-- Node4 -->
<g id="node4" class="node"><title>Node4</title>
<g id="a_node4"><a xlink:href="../../d3/d57/classmodel_1_1_cell.html" target="_top" xlink:title="model.Cell">
<polygon fill="white" stroke="black" points="94.5,-204.5 94.5,-223.5 161.5,-223.5 161.5,-204.5 94.5,-204.5"/>
<text text-anchor="middle" x="128" y="-211.5" font-family="Helvetica,sans-Serif" font-size="10.00">model.Cell</text>
</a>
</g>
</g>
<!-- Node4&#45;&gt;Node3 -->
<g id="edge3" class="edge"><title>Node4&#45;&gt;Node3</title>
<path fill="none" stroke="#9a32cd" stroke-dasharray="5,2" d="M128,-194.041C128,-181.472 128,-165.563 128,-155.841"/>
<polygon fill="#9a32cd" stroke="#9a32cd" points="124.5,-194.372 128,-204.372 131.5,-194.372 124.5,-194.372"/>
<text text-anchor="middle" x="148.5" y="-177.5" font-family="Helvetica,sans-Serif" font-size="10.00"> myCells</text>
</g>
<!-- Node5 -->
<g id="node5" class="node"><title>Node5</title>
<polygon fill="white" stroke="#bfbfbf" points="0,-272.5 0,-291.5 128,-291.5 128,-272.5 0,-272.5"/>
<text text-anchor="middle" x="64" y="-279.5" font-family="Helvetica,sans-Serif" font-size="10.00">Map&lt; String, Integer &gt;</text>
</g>
<!-- Node5&#45;&gt;Node4 -->
<g id="edge4" class="edge"><title>Node5&#45;&gt;Node4</title>
<path fill="none" stroke="#9a32cd" stroke-dasharray="5,2" d="M79.4692,-265.047C92.0135,-252.111 109.23,-234.357 119.427,-223.841"/>
<polygon fill="#9a32cd" stroke="#9a32cd" points="76.8157,-262.756 72.3669,-272.372 81.841,-267.629 76.8157,-262.756"/>
<text text-anchor="middle" x="128" y="-245.5" font-family="Helvetica,sans-Serif" font-size="10.00"> properties</text>
</g>
<!-- Node6 -->
<g id="node6" class="node"><title>Node6</title>
<g id="a_node6"><a xlink:href="../../d0/d76/enummodel_1_1_cell_state.html" target="_top" xlink:title="model.CellState">
<polygon fill="white" stroke="black" points="146.5,-272.5 146.5,-291.5 239.5,-291.5 239.5,-272.5 146.5,-272.5"/>
<text text-anchor="middle" x="193" y="-279.5" font-family="Helvetica,sans-Serif" font-size="10.00">model.CellState</text>
</a>
</g>
</g>
<!-- Node6&#45;&gt;Node4 -->
<g id="edge5" class="edge"><title>Node6&#45;&gt;Node4</title>
<path fill="none" stroke="#9a32cd" stroke-dasharray="5,2" d="M179.091,-264.731C172.816,-257.595 165.208,-249.218 158,-242 151.662,-235.653 144.162,-228.903 138.247,-223.74"/>
<polygon fill="#9a32cd" stroke="#9a32cd" points="176.543,-267.135 185.741,-272.394 181.83,-262.547 176.543,-267.135"/>
<text text-anchor="middle" x="183" y="-245.5" font-family="Helvetica,sans-Serif" font-size="10.00"> state</text>
</g>
<!-- Node7 -->
<g id="node7" class="node"><title>Node7</title>
<polygon fill="white" stroke="#bfbfbf" points="181,-136.5 181,-155.5 237,-155.5 237,-136.5 181,-136.5"/>
<text text-anchor="middle" x="209" y="-143.5" font-family="Helvetica,sans-Serif" font-size="10.00">Random</text>
</g>
<!-- Node7&#45;&gt;Node2 -->
<g id="edge6" class="edge"><title>Node7&#45;&gt;Node2</title>
<path fill="none" stroke="#9a32cd" stroke-dasharray="5,2" d="M201.86,-126.919C197.895,-117.49 192.632,-105.891 187,-96 183.37,-89.6244 178.62,-82.8744 174.777,-77.7183"/>
<polygon fill="#9a32cd" stroke="#9a32cd" points="198.723,-128.495 205.736,-136.437 205.206,-125.855 198.723,-128.495"/>
<text text-anchor="middle" x="231.5" y="-104.5" font-family="Helvetica,sans-Serif" font-size="10.00"> myGenerator</text>
</g>
</g>
</svg>
