<?xml version="1.0" encoding="UTF-8" standalone="no"?>
<!DOCTYPE svg PUBLIC "-//W3C//DTD SVG 1.1//EN"
 "http://www.w3.org/Graphics/SVG/1.1/DTD/svg11.dtd">
<!-- Generated by graphviz version 2.36.0 (20140111.2315)
 -->
<!-- Title: controller.Packager.getPropertiesMap Pages: 1 -->
<svg width="1672pt" height="87pt"
 viewBox="0.00 0.00 1672.00 87.00" xmlns="http://www.w3.org/2000/svg" xmlns:xlink="http://www.w3.org/1999/xlink">
<g id="graph0" class="graph" transform="scale(1 1) rotate(0) translate(4 83)">
<title>controller.Packager.getPropertiesMap</title>
<polygon fill="white" stroke="none" points="-4,4 -4,-83 1668,-83 1668,4 -4,4"/>
<!-- Node1 -->
<g id="node1" class="node"><title>Node1</title>
<polygon fill="#bfbfbf" stroke="black" points="0,-29.5 0,-48.5 194,-48.5 194,-29.5 0,-29.5"/>
<text text-anchor="middle" x="97" y="-36.5" font-family="Helvetica,sans-Serif" font-size="10.00">controller.Packager.getPropertiesMap</text>
</g>
<!-- Node2 -->
<g id="node2" class="node"><title>Node2</title>
<g id="a_node2"><a xlink:href="../../d9/df7/classcontroller_1_1_controller.html#a10a5ebd0f50b360715ef70e410d6a86c" target="_top" xlink:title="controller.Controller.list\lToGrid">
<polygon fill="white" stroke="black" points="406,-49 406,-79 532,-79 532,-49 406,-49"/>
<text text-anchor="start" x="414" y="-67" font-family="Helvetica,sans-Serif" font-size="10.00">controller.Controller.list</text>
<text text-anchor="middle" x="469" y="-56" font-family="Helvetica,sans-Serif" font-size="10.00">ToGrid</text>
</a>
</g>
</g>
<!-- Node1&#45;&gt;Node2 -->
<g id="edge1" class="edge"><title>Node1&#45;&gt;Node2</title>
<path fill="none" stroke="midnightblue" d="M204.575,-46.201C269.817,-50.6093 351.029,-56.0966 405.901,-59.8041"/>
<polygon fill="midnightblue" stroke="midnightblue" points="204.46,-42.6854 194.247,-45.5032 203.989,-49.6695 204.46,-42.6854"/>
</g>
<!-- Node9 -->
<g id="node9" class="node"><title>Node9</title>
<g id="a_node9"><a xlink:href="../../d9/df7/classcontroller_1_1_controller.html#a30880f3ff62c3e343da7b3c35126a2c2" target="_top" xlink:title="controller.Controller.set\lDefaultParameters">
<polygon fill="white" stroke="black" points="230,-2 230,-32 358,-32 358,-2 230,-2"/>
<text text-anchor="start" x="238" y="-20" font-family="Helvetica,sans-Serif" font-size="10.00">controller.Controller.set</text>
<text text-anchor="middle" x="294" y="-9" font-family="Helvetica,sans-Serif" font-size="10.00">DefaultParameters</text>
</a>
</g>
</g>
<!-- Node1&#45;&gt;Node9 -->
<g id="edge8" class="edge"><title>Node1&#45;&gt;Node9</title>
<path fill="none" stroke="midnightblue" d="M192.539,-28.3341C205.225,-26.9028 217.979,-25.464 229.938,-24.1146"/>
<polygon fill="midnightblue" stroke="midnightblue" points="191.94,-24.8793 182.396,-29.4784 192.725,-31.8352 191.94,-24.8793"/>
</g>
<!-- Node3 -->
<g id="node3" class="node"><title>Node3</title>
<g id="a_node3"><a xlink:href="../../d9/df7/classcontroller_1_1_controller.html#af7cc9ab6dfe60da36d3159eea48882db" target="_top" xlink:title="controller.Controller.loadFile">
<polygon fill="white" stroke="black" points="580,-29.5 580,-48.5 728,-48.5 728,-29.5 580,-29.5"/>
<text text-anchor="middle" x="654" y="-36.5" font-family="Helvetica,sans-Serif" font-size="10.00">controller.Controller.loadFile</text>
</a>
</g>
</g>
<!-- Node2&#45;&gt;Node3 -->
<g id="edge2" class="edge"><title>Node2&#45;&gt;Node3</title>
<path fill="none" stroke="midnightblue" d="M542.405,-54.1086C555.911,-52.2635 569.998,-50.3391 583.416,-48.506"/>
<polygon fill="midnightblue" stroke="midnightblue" points="541.645,-50.6798 532.211,-55.5013 542.593,-57.6154 541.645,-50.6798"/>
</g>
<!-- Node4 -->
<g id="node4" class="node"><title>Node4</title>
<g id="a_node4"><a xlink:href="../../d1/dbf/classview_package_1_1_view.html#a718e5f42ae85512916198548e28477c7" target="_top" xlink:title="viewPackage.View.tryLoad">
<polygon fill="white" stroke="black" points="764,-29.5 764,-48.5 904,-48.5 904,-29.5 764,-29.5"/>
<text text-anchor="middle" x="834" y="-36.5" font-family="Helvetica,sans-Serif" font-size="10.00">viewPackage.View.tryLoad</text>
</a>
</g>
</g>
<!-- Node3&#45;&gt;Node4 -->
<g id="edge3" class="edge"><title>Node3&#45;&gt;Node4</title>
<path fill="none" stroke="midnightblue" d="M738.193,-39C746.776,-39 755.431,-39 763.838,-39"/>
<polygon fill="midnightblue" stroke="midnightblue" points="738.17,-35.5001 728.17,-39 738.17,-42.5001 738.17,-35.5001"/>
</g>
<!-- Node5 -->
<g id="node5" class="node"><title>Node5</title>
<g id="a_node5"><a xlink:href="../../dc/d2c/classview_package_1_1_button_box.html#aef53bd97c4407ecd3fb5dfbf42850a46" target="_top" xlink:title="viewPackage.ButtonBox.load\lFileBox">
<polygon fill="white" stroke="black" points="940.5,-24 940.5,-54 1093.5,-54 1093.5,-24 940.5,-24"/>
<text text-anchor="start" x="948.5" y="-42" font-family="Helvetica,sans-Serif" font-size="10.00">viewPackage.ButtonBox.load</text>
<text text-anchor="middle" x="1017" y="-31" font-family="Helvetica,sans-Serif" font-size="10.00">FileBox</text>
</a>
</g>
</g>
<!-- Node4&#45;&gt;Node5 -->
<g id="edge4" class="edge"><title>Node4&#45;&gt;Node5</title>
<path fill="none" stroke="midnightblue" d="M914.241,-39C922.863,-39 931.623,-39 940.201,-39"/>
<polygon fill="midnightblue" stroke="midnightblue" points="914.203,-35.5001 904.203,-39 914.203,-42.5001 914.203,-35.5001"/>
</g>
<!-- Node6 -->
<g id="node6" class="node"><title>Node6</title>
<g id="a_node6"><a xlink:href="../../dc/d2c/classview_package_1_1_button_box.html#a9756fc46a96c169ce48a1867bd2c82f5" target="_top" xlink:title="viewPackage.ButtonBox.make\lButtonBox">
<polygon fill="white" stroke="black" points="1130,-24 1130,-54 1290,-54 1290,-24 1130,-24"/>
<text text-anchor="start" x="1138" y="-42" font-family="Helvetica,sans-Serif" font-size="10.00">viewPackage.ButtonBox.make</text>
<text text-anchor="middle" x="1210" y="-31" font-family="Helvetica,sans-Serif" font-size="10.00">ButtonBox</text>
</a>
</g>
</g>
<!-- Node5&#45;&gt;Node6 -->
<g id="edge5" class="edge"><title>Node5&#45;&gt;Node6</title>
<path fill="none" stroke="midnightblue" d="M1103.86,-39C1112.53,-39 1121.29,-39 1129.88,-39"/>
<polygon fill="midnightblue" stroke="midnightblue" points="1103.76,-35.5001 1093.76,-39 1103.76,-42.5001 1103.76,-35.5001"/>
</g>
<!-- Node7 -->
<g id="node7" class="node"><title>Node7</title>
<g id="a_node7"><a xlink:href="../../d1/dbf/classview_package_1_1_view.html#af6f6887ef253ae0fba2634e367b95312" target="_top" xlink:title="viewPackage.View.initialize">
<polygon fill="white" stroke="black" points="1326,-29.5 1326,-48.5 1468,-48.5 1468,-29.5 1326,-29.5"/>
<text text-anchor="middle" x="1397" y="-36.5" font-family="Helvetica,sans-Serif" font-size="10.00">viewPackage.View.initialize</text>
</a>
</g>
</g>
<!-- Node6&#45;&gt;Node7 -->
<g id="edge6" class="edge"><title>Node6&#45;&gt;Node7</title>
<path fill="none" stroke="midnightblue" d="M1300.33,-39C1308.93,-39 1317.57,-39 1325.95,-39"/>
<polygon fill="midnightblue" stroke="midnightblue" points="1300.26,-35.5001 1290.26,-39 1300.26,-42.5001 1300.26,-35.5001"/>
</g>
<!-- Node8 -->
<g id="node8" class="node"><title>Node8</title>
<g id="a_node8"><a xlink:href="../../d9/df7/classcontroller_1_1_controller.html#a4dbfef3e3e30bd1bb84df7a6b24ad1e7" target="_top" xlink:title="controller.Controller.Controller">
<polygon fill="white" stroke="black" points="1504.5,-29.5 1504.5,-48.5 1663.5,-48.5 1663.5,-29.5 1504.5,-29.5"/>
<text text-anchor="middle" x="1584" y="-36.5" font-family="Helvetica,sans-Serif" font-size="10.00">controller.Controller.Controller</text>
</a>
</g>
</g>
<!-- Node7&#45;&gt;Node8 -->
<g id="edge7" class="edge"><title>Node7&#45;&gt;Node8</title>
<path fill="none" stroke="midnightblue" d="M1478.31,-39C1487,-39 1495.83,-39 1504.49,-39"/>
<polygon fill="midnightblue" stroke="midnightblue" points="1478.2,-35.5001 1468.2,-39 1478.2,-42.5001 1478.2,-35.5001"/>
</g>
<!-- Node10 -->
<g id="node10" class="node"><title>Node10</title>
<g id="a_node10"><a xlink:href="../../d9/df7/classcontroller_1_1_controller.html#a5dbaa96de02c3987db4a64fb6793897a" target="_top" xlink:title="controller.Controller.validate\lParameters">
<polygon fill="white" stroke="black" points="394,-0 394,-30 544,-30 544,-0 394,-0"/>
<text text-anchor="start" x="402" y="-18" font-family="Helvetica,sans-Serif" font-size="10.00">controller.Controller.validate</text>
<text text-anchor="middle" x="469" y="-7" font-family="Helvetica,sans-Serif" font-size="10.00">Parameters</text>
</a>
</g>
</g>
<!-- Node9&#45;&gt;Node10 -->
<g id="edge9" class="edge"><title>Node9&#45;&gt;Node10</title>
<path fill="none" stroke="midnightblue" d="M368.513,-16.1501C376.859,-16.0537 385.369,-15.9553 393.725,-15.8587"/>
<polygon fill="midnightblue" stroke="midnightblue" points="368.395,-12.6512 358.436,-16.2666 368.476,-19.6507 368.395,-12.6512"/>
</g>
<!-- Node10&#45;&gt;Node3 -->
<g id="edge10" class="edge"><title>Node10&#45;&gt;Node3</title>
<path fill="none" stroke="midnightblue" d="M554.363,-26.064C563.097,-27.2094 571.918,-28.3663 580.506,-29.4926"/>
<polygon fill="midnightblue" stroke="midnightblue" points="554.54,-22.5573 544.169,-24.7271 553.629,-29.4978 554.54,-22.5573"/>
</g>
</g>
</svg>
