<?xml version="1.0" encoding="UTF-8" standalone="no"?>
<!DOCTYPE svg PUBLIC "-//W3C//DTD SVG 1.1//EN"
 "http://www.w3.org/Graphics/SVG/1.1/DTD/svg11.dtd">
<!-- Generated by graphviz version 2.36.0 (20140111.2315)
 -->
<!-- Title: controller.Controller Pages: 1 -->
<svg width="1436pt" height="439pt"
 viewBox="0.00 0.00 1436.00 439.00" xmlns="http://www.w3.org/2000/svg" xmlns:xlink="http://www.w3.org/1999/xlink">
<g id="graph0" class="graph" transform="scale(1 1) rotate(0) translate(4 435)">
<title>controller.Controller</title>
<polygon fill="white" stroke="none" points="-4,4 -4,-435 1432,-435 1432,4 -4,4"/>
<!-- Node1 -->
<g id="node1" class="node"><title>Node1</title>
<polygon fill="#bfbfbf" stroke="black" points="777,-173.5 777,-192.5 887,-192.5 887,-173.5 777,-173.5"/>
<text text-anchor="middle" x="832" y="-180.5" font-family="Helvetica,sans-Serif" font-size="10.00">controller.Controller</text>
</g>
<!-- Node4 -->
<g id="node4" class="node"><title>Node4</title>
<g id="a_node4"><a xlink:href="../../d1/dbf/classview_package_1_1_view.html" target="_top" xlink:title="viewPackage.View">
<polygon fill="white" stroke="black" points="1028.5,-165.5 1028.5,-184.5 1129.5,-184.5 1129.5,-165.5 1028.5,-165.5"/>
<text text-anchor="middle" x="1079" y="-172.5" font-family="Helvetica,sans-Serif" font-size="10.00">viewPackage.View</text>
</a>
</g>
</g>
<!-- Node1&#45;&gt;Node4 -->
<g id="edge16" class="edge"><title>Node1&#45;&gt;Node4</title>
<path fill="none" stroke="#9a32cd" stroke-dasharray="5,2" d="M897.212,-181.739C926.703,-181.074 962.132,-180.154 994,-179 1005.09,-178.598 1017,-178.083 1028.26,-177.556"/>
<polygon fill="#9a32cd" stroke="#9a32cd" points="896.964,-178.244 887.043,-181.964 897.118,-185.242 896.964,-178.244"/>
<text text-anchor="middle" x="954" y="-185" font-family="Helvetica,sans-Serif" font-size="10.00"> control</text>
</g>
<!-- Node2 -->
<g id="node2" class="node"><title>Node2</title>
<polygon fill="white" stroke="#bfbfbf" points="569,-185.5 569,-204.5 625,-204.5 625,-185.5 569,-185.5"/>
<text text-anchor="middle" x="597" y="-192.5" font-family="Helvetica,sans-Serif" font-size="10.00">Timeline</text>
</g>
<!-- Node2&#45;&gt;Node1 -->
<g id="edge1" class="edge"><title>Node2&#45;&gt;Node1</title>
<path fill="none" stroke="#9a32cd" stroke-dasharray="5,2" d="M635.35,-193.076C673.524,-191.11 733.209,-188.036 776.625,-185.8"/>
<polygon fill="#9a32cd" stroke="#9a32cd" points="634.991,-189.59 625.184,-193.6 635.351,-196.581 634.991,-189.59"/>
<text text-anchor="middle" x="713" y="-194" font-family="Helvetica,sans-Serif" font-size="10.00"> myTimeline</text>
</g>
<!-- Node3 -->
<g id="node3" class="node"><title>Node3</title>
<polygon fill="white" stroke="#bfbfbf" points="550.5,-84.5 550.5,-103.5 643.5,-103.5 643.5,-84.5 550.5,-84.5"/>
<text text-anchor="middle" x="597" y="-91.5" font-family="Helvetica,sans-Serif" font-size="10.00">ResourceBundle</text>
</g>
<!-- Node3&#45;&gt;Node1 -->
<g id="edge2" class="edge"><title>Node3&#45;&gt;Node1</title>
<path fill="none" stroke="#9a32cd" stroke-dasharray="5,2" d="M633.329,-107.05C664.178,-118.492 710.129,-135.65 750,-151 769.19,-158.388 790.851,-166.958 806.942,-173.368"/>
<polygon fill="#9a32cd" stroke="#9a32cd" points="634.464,-103.738 623.871,-103.545 632.032,-110.301 634.464,-103.738"/>
<text text-anchor="middle" x="713" y="-154" font-family="Helvetica,sans-Serif" font-size="10.00"> myResources</text>
</g>
<!-- Node3&#45;&gt;Node4 -->
<g id="edge10" class="edge"><title>Node3&#45;&gt;Node4</title>
<path fill="none" stroke="#9a32cd" stroke-dasharray="5,2" d="M653.7,-90.6866C713.968,-88.2576 812.631,-87.6512 896,-103 941.34,-111.348 951.176,-119.926 994,-137 1016.3,-145.892 1041.31,-157.41 1058.19,-165.424"/>
<polygon fill="#9a32cd" stroke="#9a32cd" points="653.475,-87.1929 643.636,-91.1237 653.779,-94.1864 653.475,-87.1929"/>
<text text-anchor="middle" x="832" y="-106" font-family="Helvetica,sans-Serif" font-size="10.00"> myResources</text>
</g>
<!-- Node14 -->
<g id="node14" class="node"><title>Node14</title>
<g id="a_node14"><a xlink:href="../../dc/d2c/classview_package_1_1_button_box.html" target="_top" xlink:title="viewPackage.ButtonBox">
<polygon fill="white" stroke="black" points="1283,-54.5 1283,-73.5 1413,-73.5 1413,-54.5 1283,-54.5"/>
<text text-anchor="middle" x="1348" y="-61.5" font-family="Helvetica,sans-Serif" font-size="10.00">viewPackage.ButtonBox</text>
</a>
</g>
</g>
<!-- Node3&#45;&gt;Node14 -->
<g id="edge18" class="edge"><title>Node3&#45;&gt;Node14</title>
<path fill="none" stroke="#9a32cd" stroke-dasharray="5,2" d="M653.807,-87.8715C661.263,-87.1714 668.813,-86.5228 676,-86 892.518,-70.2517 946.974,-70.2607 1164,-65 1203.38,-64.0453 1247.55,-63.7809 1282.63,-63.762"/>
<polygon fill="#9a32cd" stroke="#9a32cd" points="653.356,-84.3988 643.742,-88.8511 654.034,-91.3659 653.356,-84.3988"/>
<text text-anchor="middle" x="954" y="-75" font-family="Helvetica,sans-Serif" font-size="10.00"> myResources</text>
</g>
<!-- Node4&#45;&gt;Node1 -->
<g id="edge3" class="edge"><title>Node4&#45;&gt;Node1</title>
<path fill="none" stroke="#9a32cd" stroke-dasharray="5,2" d="M1018.15,-168.6C987.039,-166.245 948.42,-164.84 914,-168 901.752,-169.125 888.592,-171.186 876.515,-173.429"/>
<polygon fill="#9a32cd" stroke="#9a32cd" points="1018.15,-172.111 1028.4,-169.429 1018.71,-165.134 1018.15,-172.111"/>
<text text-anchor="middle" x="954" y="-171" font-family="Helvetica,sans-Serif" font-size="10.00"> myView</text>
</g>
<!-- Node6 -->
<g id="node6" class="node"><title>Node6</title>
<g id="a_node6"><a xlink:href="../../df/dcf/classview_package_1_1_display_grid.html" target="_top" xlink:title="viewPackage.DisplayGrid">
<polygon fill="white" stroke="black" points="1281,-173.5 1281,-192.5 1415,-192.5 1415,-173.5 1281,-173.5"/>
<text text-anchor="middle" x="1348" y="-180.5" font-family="Helvetica,sans-Serif" font-size="10.00">viewPackage.DisplayGrid</text>
</a>
</g>
</g>
<!-- Node4&#45;&gt;Node6 -->
<g id="edge7" class="edge"><title>Node4&#45;&gt;Node6</title>
<path fill="none" stroke="#9a32cd" stroke-dasharray="5,2" d="M1139.8,-165.398C1147.91,-164.406 1156.15,-163.558 1164,-163 1202.13,-160.29 1211.98,-159.121 1250,-163 1269.84,-165.024 1291.62,-169.321 1309.5,-173.414"/>
<polygon fill="#9a32cd" stroke="#9a32cd" points="1139.09,-161.961 1129.62,-166.722 1139.99,-168.903 1139.09,-161.961"/>
<text text-anchor="middle" x="1207" y="-166" font-family="Helvetica,sans-Serif" font-size="10.00"> view</text>
</g>
<!-- Node10 -->
<g id="node10" class="node"><title>Node10</title>
<g id="a_node10"><a xlink:href="../../d1/d10/classview_package_1_1_population_graph.html" target="_top" xlink:title="viewPackage.PopulationGraph">
<polygon fill="white" stroke="black" points="1268.5,-311.5 1268.5,-330.5 1427.5,-330.5 1427.5,-311.5 1268.5,-311.5"/>
<text text-anchor="middle" x="1348" y="-318.5" font-family="Helvetica,sans-Serif" font-size="10.00">viewPackage.PopulationGraph</text>
</a>
</g>
</g>
<!-- Node4&#45;&gt;Node10 -->
<g id="edge14" class="edge"><title>Node4&#45;&gt;Node10</title>
<path fill="none" stroke="#9a32cd" stroke-dasharray="5,2" d="M1100.33,-190.82C1116.7,-202.864 1140.75,-219.019 1164,-229 1200.16,-244.518 1214.33,-233.395 1250,-250 1285,-266.294 1320.07,-296.116 1336.83,-311.405"/>
<polygon fill="#9a32cd" stroke="#9a32cd" points="1102.17,-187.828 1092.07,-184.618 1097.96,-193.424 1102.17,-187.828"/>
<text text-anchor="middle" x="1207" y="-253" font-family="Helvetica,sans-Serif" font-size="10.00"> view</text>
</g>
<!-- Node4&#45;&gt;Node14 -->
<g id="edge19" class="edge"><title>Node4&#45;&gt;Node14</title>
<path fill="none" stroke="#9a32cd" stroke-dasharray="5,2" d="M1092.64,-157.015C1107.38,-137.551 1133.64,-107.257 1164,-92 1200.62,-73.6013 1246.15,-66.584 1282.64,-64.175"/>
<polygon fill="#9a32cd" stroke="#9a32cd" points="1089.62,-155.211 1086.53,-165.345 1095.27,-159.35 1089.62,-155.211"/>
<text text-anchor="middle" x="1207" y="-95" font-family="Helvetica,sans-Serif" font-size="10.00"> view</text>
</g>
<!-- Node5 -->
<g id="node5" class="node"><title>Node5</title>
<polygon fill="white" stroke="#bfbfbf" points="809.5,-123.5 809.5,-142.5 854.5,-142.5 854.5,-123.5 809.5,-123.5"/>
<text text-anchor="middle" x="832" y="-130.5" font-family="Helvetica,sans-Serif" font-size="10.00">Stage</text>
</g>
<!-- Node5&#45;&gt;Node4 -->
<g id="edge4" class="edge"><title>Node5&#45;&gt;Node4</title>
<path fill="none" stroke="#9a32cd" stroke-dasharray="5,2" d="M864.793,-135.338C897.426,-138.067 949.571,-143.347 994,-152 1011.96,-155.498 1031.71,-160.827 1047.54,-165.476"/>
<polygon fill="#9a32cd" stroke="#9a32cd" points="864.762,-131.824 854.513,-134.509 864.199,-138.801 864.762,-131.824"/>
<text text-anchor="middle" x="954" y="-155" font-family="Helvetica,sans-Serif" font-size="10.00"> additionalStage</text>
</g>
<!-- Node6&#45;&gt;Node4 -->
<g id="edge5" class="edge"><title>Node6&#45;&gt;Node4</title>
<path fill="none" stroke="#9a32cd" stroke-dasharray="5,2" d="M1270.47,-180.707C1225.18,-179.35 1169.13,-177.671 1129.59,-176.486"/>
<polygon fill="#9a32cd" stroke="#9a32cd" points="1270.45,-184.208 1280.55,-181.009 1270.66,-177.211 1270.45,-184.208"/>
<text text-anchor="middle" x="1207" y="-183" font-family="Helvetica,sans-Serif" font-size="10.00"> myGridDisplayed</text>
</g>
<!-- Node7 -->
<g id="node7" class="node"><title>Node7</title>
<polygon fill="white" stroke="#bfbfbf" points="1055.5,-273.5 1055.5,-292.5 1102.5,-292.5 1102.5,-273.5 1055.5,-273.5"/>
<text text-anchor="middle" x="1079" y="-280.5" font-family="Helvetica,sans-Serif" font-size="10.00">Shape</text>
</g>
<!-- Node7&#45;&gt;Node6 -->
<g id="edge6" class="edge"><title>Node7&#45;&gt;Node6</title>
<path fill="none" stroke="#9a32cd" stroke-dasharray="5,2" d="M1112.99,-284.523C1148.31,-284.943 1205.29,-282.081 1250,-263 1288.35,-246.634 1323.47,-210.157 1338.83,-192.688"/>
<polygon fill="#9a32cd" stroke="#9a32cd" points="1112.84,-281.019 1102.76,-284.301 1112.69,-288.017 1112.84,-281.019"/>
<text text-anchor="middle" x="1207" y="-286" font-family="Helvetica,sans-Serif" font-size="10.00"> myGrid</text>
</g>
<!-- Node8 -->
<g id="node8" class="node"><title>Node8</title>
<g id="a_node8"><a xlink:href="../../df/d81/classview_package_1_1_toggle_box.html" target="_top" xlink:title="viewPackage.ToggleBox">
<polygon fill="white" stroke="black" points="768,-263.5 768,-282.5 896,-282.5 896,-263.5 768,-263.5"/>
<text text-anchor="middle" x="832" y="-270.5" font-family="Helvetica,sans-Serif" font-size="10.00">viewPackage.ToggleBox</text>
</a>
</g>
</g>
<!-- Node8&#45;&gt;Node4 -->
<g id="edge8" class="edge"><title>Node8&#45;&gt;Node4</title>
<path fill="none" stroke="#9a32cd" stroke-dasharray="5,2" d="M899.956,-261.389C929.576,-254.887 964.341,-245.344 994,-232 1022.13,-219.346 1051.05,-197.356 1066.54,-184.708"/>
<polygon fill="#9a32cd" stroke="#9a32cd" points="899.177,-257.976 890.123,-263.478 900.632,-264.823 899.177,-257.976"/>
<text text-anchor="middle" x="954" y="-261" font-family="Helvetica,sans-Serif" font-size="10.00"> toggles</text>
</g>
<!-- Node9 -->
<g id="node9" class="node"><title>Node9</title>
<polygon fill="white" stroke="#bfbfbf" points="559,-263.5 559,-282.5 635,-282.5 635,-263.5 559,-263.5"/>
<text text-anchor="middle" x="597" y="-270.5" font-family="Helvetica,sans-Serif" font-size="10.00">ToggleGroup</text>
</g>
<!-- Node9&#45;&gt;Node8 -->
<g id="edge9" class="edge"><title>Node9&#45;&gt;Node8</title>
<path fill="none" stroke="#9a32cd" stroke-dasharray="5,2" d="M645.203,-273C680.444,-273 728.977,-273 767.602,-273"/>
<polygon fill="#9a32cd" stroke="#9a32cd" points="645.177,-269.5 635.177,-273 645.177,-276.5 645.177,-269.5"/>
<text text-anchor="middle" x="713" y="-298" font-family="Helvetica,sans-Serif" font-size="10.00"> outline</text>
<text text-anchor="middle" x="713" y="-287" font-family="Helvetica,sans-Serif" font-size="10.00">edgeType</text>
<text text-anchor="middle" x="713" y="-276" font-family="Helvetica,sans-Serif" font-size="10.00">cellShape</text>
</g>
<!-- Node10&#45;&gt;Node4 -->
<g id="edge11" class="edge"><title>Node10&#45;&gt;Node4</title>
<path fill="none" stroke="#9a32cd" stroke-dasharray="5,2" d="M1335.08,-303.054C1318.7,-279.827 1287.01,-239.764 1250,-218 1244.33,-214.663 1168.68,-196.199 1120.23,-184.577"/>
<polygon fill="#9a32cd" stroke="#9a32cd" points="1332.23,-305.073 1340.77,-311.331 1337.99,-301.108 1332.23,-305.073"/>
<text text-anchor="middle" x="1207" y="-221" font-family="Helvetica,sans-Serif" font-size="10.00"> myGraph</text>
</g>
<!-- Node11 -->
<g id="node11" class="node"><title>Node11</title>
<polygon fill="white" stroke="#bfbfbf" points="1012,-400 1012,-430 1146,-430 1146,-400 1012,-400"/>
<text text-anchor="start" x="1020" y="-418" font-family="Helvetica,sans-Serif" font-size="10.00">List&lt; XYChart.Series</text>
<text text-anchor="middle" x="1079" y="-407" font-family="Helvetica,sans-Serif" font-size="10.00">&lt; Number, Number &gt; &gt;</text>
</g>
<!-- Node11&#45;&gt;Node10 -->
<g id="edge12" class="edge"><title>Node11&#45;&gt;Node10</title>
<path fill="none" stroke="#9a32cd" stroke-dasharray="5,2" d="M1156.03,-399.817C1185.82,-392.826 1219.99,-383.499 1250,-372 1280.03,-360.496 1312.68,-341.955 1331.41,-330.681"/>
<polygon fill="#9a32cd" stroke="#9a32cd" points="1155.07,-396.447 1146.1,-402.099 1156.63,-403.269 1155.07,-396.447"/>
<text text-anchor="middle" x="1207" y="-401" font-family="Helvetica,sans-Serif" font-size="10.00"> listOfSpecies</text>
</g>
<!-- Node12 -->
<g id="node12" class="node"><title>Node12</title>
<polygon fill="white" stroke="#bfbfbf" points="1021,-351 1021,-381 1137,-381 1137,-351 1021,-351"/>
<text text-anchor="start" x="1029" y="-369" font-family="Helvetica,sans-Serif" font-size="10.00">LineChart&lt; Number,</text>
<text text-anchor="middle" x="1079" y="-358" font-family="Helvetica,sans-Serif" font-size="10.00"> Number &gt;</text>
</g>
<!-- Node12&#45;&gt;Node10 -->
<g id="edge13" class="edge"><title>Node12&#45;&gt;Node10</title>
<path fill="none" stroke="#9a32cd" stroke-dasharray="5,2" d="M1147.23,-358.934C1178.58,-355.221 1216.32,-350.155 1250,-344 1270.26,-340.297 1292.64,-335.067 1310.8,-330.53"/>
<polygon fill="#9a32cd" stroke="#9a32cd" points="1146.81,-355.458 1137.28,-360.092 1147.62,-362.411 1146.81,-355.458"/>
<text text-anchor="middle" x="1207" y="-360" font-family="Helvetica,sans-Serif" font-size="10.00"> lineChart</text>
</g>
<!-- Node13 -->
<g id="node13" class="node"><title>Node13</title>
<polygon fill="white" stroke="#bfbfbf" points="1041.5,-311.5 1041.5,-330.5 1116.5,-330.5 1116.5,-311.5 1041.5,-311.5"/>
<text text-anchor="middle" x="1079" y="-318.5" font-family="Helvetica,sans-Serif" font-size="10.00">NumberAxis</text>
</g>
<!-- Node13&#45;&gt;Node10 -->
<g id="edge15" class="edge"><title>Node13&#45;&gt;Node10</title>
<path fill="none" stroke="#9a32cd" stroke-dasharray="5,2" d="M1126.6,-321C1165.7,-321 1222.37,-321 1268.45,-321"/>
<polygon fill="#9a32cd" stroke="#9a32cd" points="1126.57,-317.5 1116.57,-321 1126.57,-324.5 1126.57,-317.5"/>
<text text-anchor="middle" x="1207" y="-335" font-family="Helvetica,sans-Serif" font-size="10.00"> xAxis</text>
<text text-anchor="middle" x="1207" y="-324" font-family="Helvetica,sans-Serif" font-size="10.00">yAxis</text>
</g>
<!-- Node14&#45;&gt;Node4 -->
<g id="edge17" class="edge"><title>Node14&#45;&gt;Node4</title>
<path fill="none" stroke="#9a32cd" stroke-dasharray="5,2" d="M1314.47,-77.5235C1259.82,-100.244 1150.88,-145.531 1103.23,-165.344"/>
<polygon fill="#9a32cd" stroke="#9a32cd" points="1316.13,-80.6257 1324.02,-73.555 1313.44,-74.162 1316.13,-80.6257"/>
<text text-anchor="middle" x="1207" y="-143" font-family="Helvetica,sans-Serif" font-size="10.00"> buttons</text>
</g>
<!-- Node15 -->
<g id="node15" class="node"><title>Node15</title>
<polygon fill="white" stroke="#bfbfbf" points="1061.5,-0.5 1061.5,-19.5 1096.5,-19.5 1096.5,-0.5 1061.5,-0.5"/>
<text text-anchor="middle" x="1079" y="-7.5" font-family="Helvetica,sans-Serif" font-size="10.00">Text</text>
</g>
<!-- Node15&#45;&gt;Node14 -->
<g id="edge20" class="edge"><title>Node15&#45;&gt;Node14</title>
<path fill="none" stroke="#9a32cd" stroke-dasharray="5,2" d="M1106.71,-9.40263C1140.55,-9.24395 1200.42,-10.9671 1250,-23 1278.96,-30.0291 1310.37,-44.729 1329.36,-54.4816"/>
<polygon fill="#9a32cd" stroke="#9a32cd" points="1106.65,-5.903 1096.69,-9.50959 1106.72,-12.9026 1106.65,-5.903"/>
<text text-anchor="middle" x="1207" y="-26" font-family="Helvetica,sans-Serif" font-size="10.00"> speedText</text>
</g>
<!-- Node16 -->
<g id="node16" class="node"><title>Node16</title>
<polygon fill="white" stroke="#bfbfbf" points="809,-225.5 809,-244.5 855,-244.5 855,-225.5 809,-225.5"/>
<text text-anchor="middle" x="832" y="-232.5" font-family="Helvetica,sans-Serif" font-size="10.00">Group</text>
</g>
<!-- Node16&#45;&gt;Node4 -->
<g id="edge21" class="edge"><title>Node16&#45;&gt;Node4</title>
<path fill="none" stroke="#9a32cd" stroke-dasharray="5,2" d="M865.029,-227.683C897.559,-220.194 949.363,-208.111 994,-197 1009.95,-193.031 1027.54,-188.453 1042.49,-184.505"/>
<polygon fill="#9a32cd" stroke="#9a32cd" points="864.14,-224.295 855.178,-229.946 865.707,-231.118 864.14,-224.295"/>
<text text-anchor="middle" x="954" y="-220" font-family="Helvetica,sans-Serif" font-size="10.00"> root</text>
</g>
<!-- Node17 -->
<g id="node17" class="node"><title>Node17</title>
<g id="a_node17"><a xlink:href="../../d2/d17/classmodel_1_1_simulation.html" target="_top" xlink:title="model.Simulation">
<polygon fill="white" stroke="black" points="546.5,-147.5 546.5,-166.5 647.5,-166.5 647.5,-147.5 546.5,-147.5"/>
<text text-anchor="middle" x="597" y="-154.5" font-family="Helvetica,sans-Serif" font-size="10.00">model.Simulation</text>
</a>
</g>
</g>
<!-- Node17&#45;&gt;Node1 -->
<g id="edge22" class="edge"><title>Node17&#45;&gt;Node1</title>
<path fill="none" stroke="#9a32cd" stroke-dasharray="5,2" d="M657.702,-163.034C685.733,-165.931 719.594,-169.523 750,-173 758.728,-173.998 767.98,-175.099 776.989,-176.195"/>
<polygon fill="#9a32cd" stroke="#9a32cd" points="657.962,-159.542 647.656,-162 657.245,-166.506 657.962,-159.542"/>
<text text-anchor="middle" x="713" y="-176" font-family="Helvetica,sans-Serif" font-size="10.00"> rules</text>
</g>
<!-- Node18 -->
<g id="node18" class="node"><title>Node18</title>
<g id="a_node18"><a xlink:href="../../dc/d8f/classmodel_1_1_grid.html" target="_top" xlink:title="model.Grid">
<polygon fill="white" stroke="black" points="362.5,-166.5 362.5,-185.5 431.5,-185.5 431.5,-166.5 362.5,-166.5"/>
<text text-anchor="middle" x="397" y="-173.5" font-family="Helvetica,sans-Serif" font-size="10.00">model.Grid</text>
</a>
</g>
</g>
<!-- Node18&#45;&gt;Node17 -->
<g id="edge23" class="edge"><title>Node18&#45;&gt;Node17</title>
<path fill="none" stroke="#9a32cd" stroke-dasharray="5,2" d="M441.633,-171.813C472.538,-168.847 514.053,-164.864 546.246,-161.774"/>
<polygon fill="#9a32cd" stroke="#9a32cd" points="441.208,-168.338 431.588,-172.777 441.877,-175.306 441.208,-168.338"/>
<text text-anchor="middle" x="484" y="-185" font-family="Helvetica,sans-Serif" font-size="10.00"> currentGrid</text>
<text text-anchor="middle" x="484" y="-174" font-family="Helvetica,sans-Serif" font-size="10.00">nextGrid</text>
</g>
<!-- Node19 -->
<g id="node19" class="node"><title>Node19</title>
<g id="a_node19"><a xlink:href="../../d3/d57/classmodel_1_1_cell.html" target="_top" xlink:title="model.Cell">
<polygon fill="white" stroke="black" points="216.5,-166.5 216.5,-185.5 283.5,-185.5 283.5,-166.5 216.5,-166.5"/>
<text text-anchor="middle" x="250" y="-173.5" font-family="Helvetica,sans-Serif" font-size="10.00">model.Cell</text>
</a>
</g>
</g>
<!-- Node19&#45;&gt;Node18 -->
<g id="edge24" class="edge"><title>Node19&#45;&gt;Node18</title>
<path fill="none" stroke="#9a32cd" stroke-dasharray="5,2" d="M293.579,-176C315.493,-176 341.83,-176 362.309,-176"/>
<polygon fill="#9a32cd" stroke="#9a32cd" points="293.541,-172.5 283.541,-176 293.541,-179.5 293.541,-172.5"/>
<text text-anchor="middle" x="323" y="-179" font-family="Helvetica,sans-Serif" font-size="10.00"> myCells</text>
</g>
<!-- Node20 -->
<g id="node20" class="node"><title>Node20</title>
<polygon fill="white" stroke="#bfbfbf" points="0,-185.5 0,-204.5 128,-204.5 128,-185.5 0,-185.5"/>
<text text-anchor="middle" x="64" y="-192.5" font-family="Helvetica,sans-Serif" font-size="10.00">Map&lt; String, Integer &gt;</text>
</g>
<!-- Node20&#45;&gt;Node19 -->
<g id="edge25" class="edge"><title>Node20&#45;&gt;Node19</title>
<path fill="none" stroke="#9a32cd" stroke-dasharray="5,2" d="M138.292,-187.432C165.318,-184.641 194.593,-181.618 216.247,-179.382"/>
<polygon fill="#9a32cd" stroke="#9a32cd" points="137.653,-183.979 128.065,-188.488 138.372,-190.942 137.653,-183.979"/>
<text text-anchor="middle" x="172" y="-190" font-family="Helvetica,sans-Serif" font-size="10.00"> properties</text>
</g>
<!-- Node21 -->
<g id="node21" class="node"><title>Node21</title>
<g id="a_node21"><a xlink:href="../../d0/d76/enummodel_1_1_cell_state.html" target="_top" xlink:title="model.CellState">
<polygon fill="white" stroke="black" points="17.5,-147.5 17.5,-166.5 110.5,-166.5 110.5,-147.5 17.5,-147.5"/>
<text text-anchor="middle" x="64" y="-154.5" font-family="Helvetica,sans-Serif" font-size="10.00">model.CellState</text>
</a>
</g>
</g>
<!-- Node21&#45;&gt;Node19 -->
<g id="edge26" class="edge"><title>Node21&#45;&gt;Node19</title>
<path fill="none" stroke="#9a32cd" stroke-dasharray="5,2" d="M120.932,-159.963C144.741,-161.546 172.783,-163.835 198,-167 203.977,-167.75 210.319,-168.724 216.425,-169.753"/>
<polygon fill="#9a32cd" stroke="#9a32cd" points="120.866,-156.452 110.663,-159.306 120.419,-163.437 120.866,-156.452"/>
<text text-anchor="middle" x="172" y="-170" font-family="Helvetica,sans-Serif" font-size="10.00"> state</text>
</g>
<!-- Node22 -->
<g id="node22" class="node"><title>Node22</title>
<polygon fill="white" stroke="#bfbfbf" points="369,-128.5 369,-147.5 425,-147.5 425,-128.5 369,-128.5"/>
<text text-anchor="middle" x="397" y="-135.5" font-family="Helvetica,sans-Serif" font-size="10.00">Random</text>
</g>
<!-- Node22&#45;&gt;Node17 -->
<g id="edge27" class="edge"><title>Node22&#45;&gt;Node17</title>
<path fill="none" stroke="#9a32cd" stroke-dasharray="5,2" d="M435.205,-141.57C466.623,-144.585 511.877,-148.928 546.378,-152.238"/>
<polygon fill="#9a32cd" stroke="#9a32cd" points="435.405,-138.073 425.116,-140.602 434.736,-145.041 435.405,-138.073"/>
<text text-anchor="middle" x="484" y="-153" font-family="Helvetica,sans-Serif" font-size="10.00"> myGenerator</text>
</g>
<!-- Node23 -->
<g id="node23" class="node"><title>Node23</title>
<polygon fill="white" stroke="#bfbfbf" points="536,-223.5 536,-242.5 658,-242.5 658,-223.5 536,-223.5"/>
<text text-anchor="middle" x="597" y="-230.5" font-family="Helvetica,sans-Serif" font-size="10.00">Map&lt; String, String &gt;</text>
</g>
<!-- Node23&#45;&gt;Node1 -->
<g id="edge28" class="edge"><title>Node23&#45;&gt;Node1</title>
<path fill="none" stroke="#9a32cd" stroke-dasharray="5,2" d="M668.278,-222.038C694.093,-217.612 723.483,-212.103 750,-206 766.668,-202.164 785.019,-197.03 800.034,-192.586"/>
<polygon fill="#9a32cd" stroke="#9a32cd" points="667.479,-218.624 658.202,-223.742 668.646,-225.526 667.479,-218.624"/>
<text text-anchor="middle" x="713" y="-224" font-family="Helvetica,sans-Serif" font-size="10.00"> stateColorMap</text>
</g>
</g>
</svg>
