<?xml version="1.0" encoding="UTF-8" standalone="no"?>
<!DOCTYPE svg PUBLIC "-//W3C//DTD SVG 1.1//EN"
 "http://www.w3.org/Graphics/SVG/1.1/DTD/svg11.dtd">
<!-- Generated by graphviz version 2.36.0 (20140111.2315)
 -->
<!-- Title: viewPackage.View.addToRoot Pages: 1 -->
<svg width="352pt" height="87pt"
 viewBox="0.00 0.00 352.00 87.00" xmlns="http://www.w3.org/2000/svg" xmlns:xlink="http://www.w3.org/1999/xlink">
<g id="graph0" class="graph" transform="scale(1 1) rotate(0) translate(4 83)">
<title>viewPackage.View.addToRoot</title>
<polygon fill="white" stroke="none" points="-4,4 -4,-83 348,-83 348,4 -4,4"/>
<!-- Node1 -->
<g id="node1" class="node"><title>Node1</title>
<polygon fill="#bfbfbf" stroke="black" points="0,-29.5 0,-48.5 152,-48.5 152,-29.5 0,-29.5"/>
<text text-anchor="middle" x="76" y="-36.5" font-family="Helvetica,sans-Serif" font-size="10.00">viewPackage.View.addToRoot</text>
</g>
<!-- Node2 -->
<g id="node2" class="node"><title>Node2</title>
<g id="a_node2"><a xlink:href="../../db/d94/classview_package_1_1_rectangular_grid_view.html#a615bcd662022790b32b7c88abe3784c9" target="_top" xlink:title="viewPackage.RectangularGrid\lView.initialEmptyGrid">
<polygon fill="white" stroke="black" points="188.5,-49 188.5,-79 343.5,-79 343.5,-49 188.5,-49"/>
<text text-anchor="start" x="196.5" y="-67" font-family="Helvetica,sans-Serif" font-size="10.00">viewPackage.RectangularGrid</text>
<text text-anchor="middle" x="266" y="-56" font-family="Helvetica,sans-Serif" font-size="10.00">View.initialEmptyGrid</text>
</a>
</g>
</g>
<!-- Node1&#45;&gt;Node2 -->
<g id="edge1" class="edge"><title>Node1&#45;&gt;Node2</title>
<path fill="none" stroke="midnightblue" d="M158.745,-49.8704C168.551,-51.1743 178.537,-52.5022 188.267,-53.7962"/>
<polygon fill="midnightblue" stroke="midnightblue" points="158.985,-46.3716 148.611,-48.5227 158.062,-53.3105 158.985,-46.3716"/>
</g>
<!-- Node3 -->
<g id="node3" class="node"><title>Node3</title>
<g id="a_node3"><a xlink:href="../../d6/dde/classview_package_1_1_triangular_grid_view.html#a671be1e0a8e883b9a472961be025ca43" target="_top" xlink:title="viewPackage.TriangularGrid\lView.initialEmptyGrid">
<polygon fill="white" stroke="black" points="193.5,-0 193.5,-30 338.5,-30 338.5,-0 193.5,-0"/>
<text text-anchor="start" x="201.5" y="-18" font-family="Helvetica,sans-Serif" font-size="10.00">viewPackage.TriangularGrid</text>
<text text-anchor="middle" x="266" y="-7" font-family="Helvetica,sans-Serif" font-size="10.00">View.initialEmptyGrid</text>
</a>
</g>
</g>
<!-- Node1&#45;&gt;Node3 -->
<g id="edge2" class="edge"><title>Node1&#45;&gt;Node3</title>
<path fill="none" stroke="midnightblue" d="M161.638,-28.1952C172.205,-26.8462 182.932,-25.4768 193.277,-24.1562"/>
<polygon fill="midnightblue" stroke="midnightblue" points="161.049,-24.7419 151.573,-29.4801 161.935,-31.6855 161.049,-24.7419"/>
</g>
</g>
</svg>
