<?xml version="1.0" encoding="UTF-8" standalone="no"?>
<!DOCTYPE svg PUBLIC "-//W3C//DTD SVG 1.1//EN"
 "http://www.w3.org/Graphics/SVG/1.1/DTD/svg11.dtd">
<!-- Generated by graphviz version 2.36.0 (20140111.2315)
 -->
<!-- Title: viewPackage.View.updateGridView Pages: 1 -->
<svg width="1492pt" height="160pt"
 viewBox="0.00 0.00 1492.00 160.00" xmlns="http://www.w3.org/2000/svg" xmlns:xlink="http://www.w3.org/1999/xlink">
<g id="graph0" class="graph" transform="scale(1 1) rotate(0) translate(4 156)">
<title>viewPackage.View.updateGridView</title>
<polygon fill="white" stroke="none" points="-4,4 -4,-156 1488,-156 1488,4 -4,4"/>
<!-- Node1 -->
<g id="node1" class="node"><title>Node1</title>
<polygon fill="#bfbfbf" stroke="black" points="0.5,-95.5 0.5,-114.5 179.5,-114.5 179.5,-95.5 0.5,-95.5"/>
<text text-anchor="middle" x="90" y="-102.5" font-family="Helvetica,sans-Serif" font-size="10.00">viewPackage.View.updateGridView</text>
</g>
<!-- Node2 -->
<g id="node2" class="node"><title>Node2</title>
<g id="a_node2"><a xlink:href="../../d9/df7/classcontroller_1_1_controller.html#af7cc9ab6dfe60da36d3159eea48882db" target="_top" xlink:title="controller.Controller.loadFile">
<polygon fill="white" stroke="black" points="216,-120.5 216,-139.5 364,-139.5 364,-120.5 216,-120.5"/>
<text text-anchor="middle" x="290" y="-127.5" font-family="Helvetica,sans-Serif" font-size="10.00">controller.Controller.loadFile</text>
</a>
</g>
</g>
<!-- Node1&#45;&gt;Node2 -->
<g id="edge1" class="edge"><title>Node1&#45;&gt;Node2</title>
<path fill="none" stroke="midnightblue" d="M176.371,-115.779C189.487,-117.435 202.929,-119.132 215.751,-120.751"/>
<polygon fill="midnightblue" stroke="midnightblue" points="176.78,-112.303 166.42,-114.523 175.903,-119.248 176.78,-112.303"/>
</g>
<!-- Node8 -->
<g id="node8" class="node"><title>Node8</title>
<g id="a_node8"><a xlink:href="../../d9/df7/classcontroller_1_1_controller.html#aa8fee9e96592dabbb151850b562d9ec0" target="_top" xlink:title="controller.Controller.step\lSimulation">
<polygon fill="white" stroke="black" points="223,-66 223,-96 357,-96 357,-66 223,-66"/>
<text text-anchor="start" x="231" y="-84" font-family="Helvetica,sans-Serif" font-size="10.00">controller.Controller.step</text>
<text text-anchor="middle" x="290" y="-73" font-family="Helvetica,sans-Serif" font-size="10.00">Simulation</text>
</a>
</g>
</g>
<!-- Node1&#45;&gt;Node8 -->
<g id="edge7" class="edge"><title>Node1&#45;&gt;Node8</title>
<path fill="none" stroke="midnightblue" d="M179.58,-94.263C194.176,-92.4938 209.079,-90.6875 222.998,-89.0003"/>
<polygon fill="midnightblue" stroke="midnightblue" points="179.045,-90.8021 169.539,-95.4801 179.888,-97.7513 179.045,-90.8021"/>
</g>
<!-- Node3 -->
<g id="node3" class="node"><title>Node3</title>
<g id="a_node3"><a xlink:href="../../d1/dbf/classview_package_1_1_view.html#a718e5f42ae85512916198548e28477c7" target="_top" xlink:title="viewPackage.View.tryLoad">
<polygon fill="white" stroke="black" points="400,-131.5 400,-150.5 540,-150.5 540,-131.5 400,-131.5"/>
<text text-anchor="middle" x="470" y="-138.5" font-family="Helvetica,sans-Serif" font-size="10.00">viewPackage.View.tryLoad</text>
</a>
</g>
</g>
<!-- Node2&#45;&gt;Node3 -->
<g id="edge2" class="edge"><title>Node2&#45;&gt;Node3</title>
<path fill="none" stroke="midnightblue" d="M374.193,-135.141C382.776,-135.672 391.431,-136.206 399.838,-136.726"/>
<polygon fill="midnightblue" stroke="midnightblue" points="374.367,-131.645 364.17,-134.522 373.935,-138.632 374.367,-131.645"/>
</g>
<!-- Node4 -->
<g id="node4" class="node"><title>Node4</title>
<g id="a_node4"><a xlink:href="../../dc/d2c/classview_package_1_1_button_box.html#aef53bd97c4407ecd3fb5dfbf42850a46" target="_top" xlink:title="viewPackage.ButtonBox.load\lFileBox">
<polygon fill="white" stroke="black" points="760.5,-122 760.5,-152 913.5,-152 913.5,-122 760.5,-122"/>
<text text-anchor="start" x="768.5" y="-140" font-family="Helvetica,sans-Serif" font-size="10.00">viewPackage.ButtonBox.load</text>
<text text-anchor="middle" x="837" y="-129" font-family="Helvetica,sans-Serif" font-size="10.00">FileBox</text>
</a>
</g>
</g>
<!-- Node3&#45;&gt;Node4 -->
<g id="edge3" class="edge"><title>Node3&#45;&gt;Node4</title>
<path fill="none" stroke="midnightblue" d="M550.262,-140.131C612.595,-139.448 698.872,-138.503 760.275,-137.83"/>
<polygon fill="midnightblue" stroke="midnightblue" points="550.044,-136.633 540.083,-140.243 550.121,-143.633 550.044,-136.633"/>
</g>
<!-- Node5 -->
<g id="node5" class="node"><title>Node5</title>
<g id="a_node5"><a xlink:href="../../dc/d2c/classview_package_1_1_button_box.html#a9756fc46a96c169ce48a1867bd2c82f5" target="_top" xlink:title="viewPackage.ButtonBox.make\lButtonBox">
<polygon fill="white" stroke="black" points="950,-54 950,-84 1110,-84 1110,-54 950,-54"/>
<text text-anchor="start" x="958" y="-72" font-family="Helvetica,sans-Serif" font-size="10.00">viewPackage.ButtonBox.make</text>
<text text-anchor="middle" x="1030" y="-61" font-family="Helvetica,sans-Serif" font-size="10.00">ButtonBox</text>
</a>
</g>
</g>
<!-- Node4&#45;&gt;Node5 -->
<g id="edge4" class="edge"><title>Node4&#45;&gt;Node5</title>
<path fill="none" stroke="midnightblue" d="M889.967,-118.499C920.343,-107.684 958.194,-94.2083 986.729,-84.0492"/>
<polygon fill="midnightblue" stroke="midnightblue" points="888.636,-115.257 880.389,-121.909 890.984,-121.852 888.636,-115.257"/>
</g>
<!-- Node6 -->
<g id="node6" class="node"><title>Node6</title>
<g id="a_node6"><a xlink:href="../../d1/dbf/classview_package_1_1_view.html#af6f6887ef253ae0fba2634e367b95312" target="_top" xlink:title="viewPackage.View.initialize">
<polygon fill="white" stroke="black" points="1146,-59.5 1146,-78.5 1288,-78.5 1288,-59.5 1146,-59.5"/>
<text text-anchor="middle" x="1217" y="-66.5" font-family="Helvetica,sans-Serif" font-size="10.00">viewPackage.View.initialize</text>
</a>
</g>
</g>
<!-- Node5&#45;&gt;Node6 -->
<g id="edge5" class="edge"><title>Node5&#45;&gt;Node6</title>
<path fill="none" stroke="midnightblue" d="M1120.33,-69C1128.93,-69 1137.57,-69 1145.95,-69"/>
<polygon fill="midnightblue" stroke="midnightblue" points="1120.26,-65.5001 1110.26,-69 1120.26,-72.5001 1120.26,-65.5001"/>
</g>
<!-- Node7 -->
<g id="node7" class="node"><title>Node7</title>
<g id="a_node7"><a xlink:href="../../d9/df7/classcontroller_1_1_controller.html#a4dbfef3e3e30bd1bb84df7a6b24ad1e7" target="_top" xlink:title="controller.Controller.Controller">
<polygon fill="white" stroke="black" points="1324.5,-59.5 1324.5,-78.5 1483.5,-78.5 1483.5,-59.5 1324.5,-59.5"/>
<text text-anchor="middle" x="1404" y="-66.5" font-family="Helvetica,sans-Serif" font-size="10.00">controller.Controller.Controller</text>
</a>
</g>
</g>
<!-- Node6&#45;&gt;Node7 -->
<g id="edge6" class="edge"><title>Node6&#45;&gt;Node7</title>
<path fill="none" stroke="midnightblue" d="M1298.31,-69C1307,-69 1315.83,-69 1324.49,-69"/>
<polygon fill="midnightblue" stroke="midnightblue" points="1298.2,-65.5001 1288.2,-69 1298.2,-72.5001 1298.2,-65.5001"/>
</g>
<!-- Node9 -->
<g id="node9" class="node"><title>Node9</title>
<g id="a_node9"><a xlink:href="../../d9/df7/classcontroller_1_1_controller.html#ae859ed2fba4e22871428ec51f7d4c07d" target="_top" xlink:title="controller.Controller.play\lSimulation">
<polygon fill="white" stroke="black" points="404,-66 404,-96 536,-96 536,-66 404,-66"/>
<text text-anchor="start" x="412" y="-84" font-family="Helvetica,sans-Serif" font-size="10.00">controller.Controller.play</text>
<text text-anchor="middle" x="470" y="-73" font-family="Helvetica,sans-Serif" font-size="10.00">Simulation</text>
</a>
</g>
</g>
<!-- Node8&#45;&gt;Node9 -->
<g id="edge8" class="edge"><title>Node8&#45;&gt;Node9</title>
<path fill="none" stroke="midnightblue" d="M367.211,-81C379.451,-81 392.021,-81 403.968,-81"/>
<polygon fill="midnightblue" stroke="midnightblue" points="367.028,-77.5001 357.028,-81 367.028,-84.5001 367.028,-77.5001"/>
</g>
<!-- Node12 -->
<g id="node12" class="node"><title>Node12</title>
<g id="a_node12"><a xlink:href="../../d1/dbf/classview_package_1_1_view.html#acec783d5c91d6cb27da271e46588e79f" target="_top" xlink:title="viewPackage.View.setStep\lSimulation">
<polygon fill="white" stroke="black" points="579.5,-0 579.5,-30 720.5,-30 720.5,-0 579.5,-0"/>
<text text-anchor="start" x="587.5" y="-18" font-family="Helvetica,sans-Serif" font-size="10.00">viewPackage.View.setStep</text>
<text text-anchor="middle" x="650" y="-7" font-family="Helvetica,sans-Serif" font-size="10.00">Simulation</text>
</a>
</g>
</g>
<!-- Node8&#45;&gt;Node12 -->
<g id="edge13" class="edge"><title>Node8&#45;&gt;Node12</title>
<path fill="none" stroke="midnightblue" d="M363.504,-63.7078C375.662,-60.9988 388.168,-58.3286 400,-56 460.289,-44.1346 529.254,-32.9643 579.294,-25.2889"/>
<polygon fill="midnightblue" stroke="midnightblue" points="362.383,-60.3728 353.397,-65.9859 363.922,-67.2015 362.383,-60.3728"/>
</g>
<!-- Node10 -->
<g id="node10" class="node"><title>Node10</title>
<g id="a_node10"><a xlink:href="../../d9/df7/classcontroller_1_1_controller.html#a37d9d1d84d304a9d94d7666322b7c6ab" target="_top" xlink:title="controller.Controller.change\lSpeed">
<polygon fill="white" stroke="black" points="576,-88 576,-118 724,-118 724,-88 576,-88"/>
<text text-anchor="start" x="584" y="-106" font-family="Helvetica,sans-Serif" font-size="10.00">controller.Controller.change</text>
<text text-anchor="middle" x="650" y="-95" font-family="Helvetica,sans-Serif" font-size="10.00">Speed</text>
</a>
</g>
</g>
<!-- Node9&#45;&gt;Node10 -->
<g id="edge9" class="edge"><title>Node9&#45;&gt;Node10</title>
<path fill="none" stroke="midnightblue" d="M546.128,-90.2855C555.929,-91.4968 565.96,-92.7367 575.731,-93.9442"/>
<polygon fill="midnightblue" stroke="midnightblue" points="546.371,-86.789 536.018,-89.0359 545.513,-93.7362 546.371,-86.789"/>
</g>
<!-- Node11 -->
<g id="node11" class="node"><title>Node11</title>
<g id="a_node11"><a xlink:href="../../d1/dbf/classview_package_1_1_view.html#a1d1a8e16ae622c0d6a66cd9c516672a6" target="_top" xlink:title="viewPackage.View.setPlay\lAction">
<polygon fill="white" stroke="black" points="768,-54 768,-84 906,-84 906,-54 768,-54"/>
<text text-anchor="start" x="776" y="-72" font-family="Helvetica,sans-Serif" font-size="10.00">viewPackage.View.setPlay</text>
<text text-anchor="middle" x="837" y="-61" font-family="Helvetica,sans-Serif" font-size="10.00">Action</text>
</a>
</g>
</g>
<!-- Node9&#45;&gt;Node11 -->
<g id="edge12" class="edge"><title>Node9&#45;&gt;Node11</title>
<path fill="none" stroke="midnightblue" d="M546.464,-78.519C611.638,-76.3763 704.979,-73.3075 767.906,-71.2387"/>
<polygon fill="midnightblue" stroke="midnightblue" points="546.134,-75.0278 536.255,-78.8546 546.364,-82.0241 546.134,-75.0278"/>
</g>
<!-- Node10&#45;&gt;Node11 -->
<g id="edge10" class="edge"><title>Node10&#45;&gt;Node11</title>
<path fill="none" stroke="midnightblue" d="M734.018,-87.7427C745.36,-85.6581 756.895,-83.5383 767.93,-81.5102"/>
<polygon fill="midnightblue" stroke="midnightblue" points="733.32,-84.3123 724.117,-89.5623 734.585,-91.197 733.32,-84.3123"/>
</g>
<!-- Node11&#45;&gt;Node5 -->
<g id="edge11" class="edge"><title>Node11&#45;&gt;Node5</title>
<path fill="none" stroke="midnightblue" d="M916.216,-69C927.298,-69 938.702,-69 949.803,-69"/>
<polygon fill="midnightblue" stroke="midnightblue" points="916.147,-65.5001 906.146,-69 916.146,-72.5001 916.147,-65.5001"/>
</g>
<!-- Node12&#45;&gt;Node5 -->
<g id="edge14" class="edge"><title>Node12&#45;&gt;Node5</title>
<path fill="none" stroke="midnightblue" d="M730.977,-21.6358C783.248,-26.5094 852.903,-34.0185 914,-44 930.837,-46.7507 948.925,-50.3667 965.657,-53.9909"/>
<polygon fill="midnightblue" stroke="midnightblue" points="731.041,-18.127 720.763,-20.6963 730.4,-25.0976 731.041,-18.127"/>
</g>
</g>
</svg>
