<?xml version="1.0" encoding="UTF-8" standalone="no"?>
<!DOCTYPE svg PUBLIC "-//W3C//DTD SVG 1.1//EN"
 "http://www.w3.org/Graphics/SVG/1.1/DTD/svg11.dtd">
<!-- Generated by graphviz version 2.36.0 (20140111.2315)
 -->
<!-- Title: viewPackage.View.createErrorWindow Pages: 1 -->
<svg width="1306pt" height="115pt"
 viewBox="0.00 0.00 1306.00 115.00" xmlns="http://www.w3.org/2000/svg" xmlns:xlink="http://www.w3.org/1999/xlink">
<g id="graph0" class="graph" transform="scale(1 1) rotate(0) translate(4 111)">
<title>viewPackage.View.createErrorWindow</title>
<polygon fill="white" stroke="none" points="-4,4 -4,-111 1302,-111 1302,4 -4,4"/>
<!-- Node1 -->
<g id="node1" class="node"><title>Node1</title>
<polygon fill="#bfbfbf" stroke="black" points="0,-44 0,-74 158,-74 158,-44 0,-44"/>
<text text-anchor="start" x="8" y="-62" font-family="Helvetica,sans-Serif" font-size="10.00">viewPackage.View.createError</text>
<text text-anchor="middle" x="79" y="-51" font-family="Helvetica,sans-Serif" font-size="10.00">Window</text>
</g>
<!-- Node2 -->
<g id="node2" class="node"><title>Node2</title>
<g id="a_node2"><a xlink:href="../../d9/df7/classcontroller_1_1_controller.html#af7cc9ab6dfe60da36d3159eea48882db" target="_top" xlink:title="controller.Controller.loadFile">
<polygon fill="white" stroke="black" points="194,-87.5 194,-106.5 342,-106.5 342,-87.5 194,-87.5"/>
<text text-anchor="middle" x="268" y="-94.5" font-family="Helvetica,sans-Serif" font-size="10.00">controller.Controller.loadFile</text>
</a>
</g>
</g>
<!-- Node1&#45;&gt;Node2 -->
<g id="edge1" class="edge"><title>Node1&#45;&gt;Node2</title>
<path fill="none" stroke="midnightblue" d="M163.949,-76.0592C183.282,-79.9877 203.165,-84.0281 220.245,-87.4991"/>
<polygon fill="midnightblue" stroke="midnightblue" points="164.404,-72.5802 153.907,-74.0186 163.01,-79.44 164.404,-72.5802"/>
</g>
<!-- Node4 -->
<g id="node4" class="node"><title>Node4</title>
<g id="a_node4"><a xlink:href="../../dc/d2c/classview_package_1_1_button_box.html#aef53bd97c4407ecd3fb5dfbf42850a46" target="_top" xlink:title="viewPackage.ButtonBox.load\lFileBox">
<polygon fill="white" stroke="black" points="574.5,-44 574.5,-74 727.5,-74 727.5,-44 574.5,-44"/>
<text text-anchor="start" x="582.5" y="-62" font-family="Helvetica,sans-Serif" font-size="10.00">viewPackage.ButtonBox.load</text>
<text text-anchor="middle" x="651" y="-51" font-family="Helvetica,sans-Serif" font-size="10.00">FileBox</text>
</a>
</g>
</g>
<!-- Node1&#45;&gt;Node4 -->
<g id="edge7" class="edge"><title>Node1&#45;&gt;Node4</title>
<path fill="none" stroke="midnightblue" d="M168.255,-59C279.591,-59 469.169,-59 574.243,-59"/>
<polygon fill="midnightblue" stroke="midnightblue" points="168.061,-55.5001 158.061,-59 168.061,-62.5001 168.061,-55.5001"/>
</g>
<!-- Node8 -->
<g id="node8" class="node"><title>Node8</title>
<g id="a_node8"><a xlink:href="../../dc/d2c/classview_package_1_1_button_box.html#a6bf9f301b61c832c249686871cb810b8" target="_top" xlink:title="viewPackage.ButtonBox.make\lSlider">
<polygon fill="white" stroke="black" points="378,-0 378,-30 538,-30 538,-0 378,-0"/>
<text text-anchor="start" x="386" y="-18" font-family="Helvetica,sans-Serif" font-size="10.00">viewPackage.ButtonBox.make</text>
<text text-anchor="middle" x="458" y="-7" font-family="Helvetica,sans-Serif" font-size="10.00">Slider</text>
</a>
</g>
</g>
<!-- Node1&#45;&gt;Node8 -->
<g id="edge8" class="edge"><title>Node1&#45;&gt;Node8</title>
<path fill="none" stroke="midnightblue" d="M168.337,-48.0753C177.008,-47.026 185.674,-45.9861 194,-45 255.724,-37.6897 325.637,-29.7301 377.858,-23.8477"/>
<polygon fill="midnightblue" stroke="midnightblue" points="167.683,-44.629 158.177,-49.3088 168.526,-51.5779 167.683,-44.629"/>
</g>
<!-- Node3 -->
<g id="node3" class="node"><title>Node3</title>
<g id="a_node3"><a xlink:href="../../d1/dbf/classview_package_1_1_view.html#a718e5f42ae85512916198548e28477c7" target="_top" xlink:title="viewPackage.View.tryLoad">
<polygon fill="white" stroke="black" points="388,-87.5 388,-106.5 528,-106.5 528,-87.5 388,-87.5"/>
<text text-anchor="middle" x="458" y="-94.5" font-family="Helvetica,sans-Serif" font-size="10.00">viewPackage.View.tryLoad</text>
</a>
</g>
</g>
<!-- Node2&#45;&gt;Node3 -->
<g id="edge2" class="edge"><title>Node2&#45;&gt;Node3</title>
<path fill="none" stroke="midnightblue" d="M352.551,-97C364.39,-97 376.453,-97 387.976,-97"/>
<polygon fill="midnightblue" stroke="midnightblue" points="352.224,-93.5001 342.224,-97 352.224,-100.5 352.224,-93.5001"/>
</g>
<!-- Node3&#45;&gt;Node4 -->
<g id="edge3" class="edge"><title>Node3&#45;&gt;Node4</title>
<path fill="none" stroke="midnightblue" d="M517.24,-85.413C535.231,-81.8336 555.315,-77.8378 574.306,-74.0595"/>
<polygon fill="midnightblue" stroke="midnightblue" points="516.322,-82.0269 507.197,-87.411 517.688,-88.8924 516.322,-82.0269"/>
</g>
<!-- Node5 -->
<g id="node5" class="node"><title>Node5</title>
<g id="a_node5"><a xlink:href="../../dc/d2c/classview_package_1_1_button_box.html#a9756fc46a96c169ce48a1867bd2c82f5" target="_top" xlink:title="viewPackage.ButtonBox.make\lButtonBox">
<polygon fill="white" stroke="black" points="764,-44 764,-74 924,-74 924,-44 764,-44"/>
<text text-anchor="start" x="772" y="-62" font-family="Helvetica,sans-Serif" font-size="10.00">viewPackage.ButtonBox.make</text>
<text text-anchor="middle" x="844" y="-51" font-family="Helvetica,sans-Serif" font-size="10.00">ButtonBox</text>
</a>
</g>
</g>
<!-- Node4&#45;&gt;Node5 -->
<g id="edge4" class="edge"><title>Node4&#45;&gt;Node5</title>
<path fill="none" stroke="midnightblue" d="M737.864,-59C746.526,-59 755.295,-59 763.881,-59"/>
<polygon fill="midnightblue" stroke="midnightblue" points="737.763,-55.5001 727.763,-59 737.763,-62.5001 737.763,-55.5001"/>
</g>
<!-- Node6 -->
<g id="node6" class="node"><title>Node6</title>
<g id="a_node6"><a xlink:href="../../d1/dbf/classview_package_1_1_view.html#af6f6887ef253ae0fba2634e367b95312" target="_top" xlink:title="viewPackage.View.initialize">
<polygon fill="white" stroke="black" points="960,-27.5 960,-46.5 1102,-46.5 1102,-27.5 960,-27.5"/>
<text text-anchor="middle" x="1031" y="-34.5" font-family="Helvetica,sans-Serif" font-size="10.00">viewPackage.View.initialize</text>
</a>
</g>
</g>
<!-- Node5&#45;&gt;Node6 -->
<g id="edge5" class="edge"><title>Node5&#45;&gt;Node6</title>
<path fill="none" stroke="midnightblue" d="M934.327,-48.3774C942.93,-47.3543 951.57,-46.3268 959.949,-45.3304"/>
<polygon fill="midnightblue" stroke="midnightblue" points="933.778,-44.9178 924.262,-49.5743 934.605,-51.8688 933.778,-44.9178"/>
</g>
<!-- Node7 -->
<g id="node7" class="node"><title>Node7</title>
<g id="a_node7"><a xlink:href="../../d9/df7/classcontroller_1_1_controller.html#a4dbfef3e3e30bd1bb84df7a6b24ad1e7" target="_top" xlink:title="controller.Controller.Controller">
<polygon fill="white" stroke="black" points="1138.5,-27.5 1138.5,-46.5 1297.5,-46.5 1297.5,-27.5 1138.5,-27.5"/>
<text text-anchor="middle" x="1218" y="-34.5" font-family="Helvetica,sans-Serif" font-size="10.00">controller.Controller.Controller</text>
</a>
</g>
</g>
<!-- Node6&#45;&gt;Node7 -->
<g id="edge6" class="edge"><title>Node6&#45;&gt;Node7</title>
<path fill="none" stroke="midnightblue" d="M1112.31,-37C1121,-37 1129.83,-37 1138.49,-37"/>
<polygon fill="midnightblue" stroke="midnightblue" points="1112.2,-33.5001 1102.2,-37 1112.2,-40.5001 1112.2,-33.5001"/>
</g>
<!-- Node8&#45;&gt;Node6 -->
<g id="edge9" class="edge"><title>Node8&#45;&gt;Node6</title>
<path fill="none" stroke="midnightblue" d="M548.16,-18.4353C661.808,-22.814 855.948,-30.294 959.715,-34.292"/>
<polygon fill="midnightblue" stroke="midnightblue" points="548.223,-14.9351 538.095,-18.0474 547.953,-21.93 548.223,-14.9351"/>
</g>
</g>
</svg>
