<?xml version="1.0" encoding="UTF-8" standalone="no"?>
<!DOCTYPE svg PUBLIC "-//W3C//DTD SVG 1.1//EN"
 "http://www.w3.org/Graphics/SVG/1.1/DTD/svg11.dtd">
<!-- Generated by graphviz version 2.36.0 (20140111.2315)
 -->
<!-- Title: viewPackage.View.setFileName Pages: 1 -->
<svg width="932pt" height="38pt"
 viewBox="0.00 0.00 932.00 38.00" xmlns="http://www.w3.org/2000/svg" xmlns:xlink="http://www.w3.org/1999/xlink">
<g id="graph0" class="graph" transform="scale(1 1) rotate(0) translate(4 34)">
<title>viewPackage.View.setFileName</title>
<polygon fill="white" stroke="none" points="-4,4 -4,-34 928,-34 928,4 -4,4"/>
<!-- Node1 -->
<g id="node1" class="node"><title>Node1</title>
<polygon fill="#bfbfbf" stroke="black" points="0.5,-5.5 0.5,-24.5 163.5,-24.5 163.5,-5.5 0.5,-5.5"/>
<text text-anchor="middle" x="82" y="-12.5" font-family="Helvetica,sans-Serif" font-size="10.00">viewPackage.View.setFileName</text>
</g>
<!-- Node2 -->
<g id="node2" class="node"><title>Node2</title>
<g id="a_node2"><a xlink:href="../../dc/d2c/classview_package_1_1_button_box.html#aef53bd97c4407ecd3fb5dfbf42850a46" target="_top" xlink:title="viewPackage.ButtonBox.load\lFileBox">
<polygon fill="white" stroke="black" points="200.5,-0 200.5,-30 353.5,-30 353.5,-0 200.5,-0"/>
<text text-anchor="start" x="208.5" y="-18" font-family="Helvetica,sans-Serif" font-size="10.00">viewPackage.ButtonBox.load</text>
<text text-anchor="middle" x="277" y="-7" font-family="Helvetica,sans-Serif" font-size="10.00">FileBox</text>
</a>
</g>
</g>
<!-- Node1&#45;&gt;Node2 -->
<g id="edge1" class="edge"><title>Node1&#45;&gt;Node2</title>
<path fill="none" stroke="midnightblue" d="M173.991,-15C182.77,-15 191.61,-15 200.219,-15"/>
<polygon fill="midnightblue" stroke="midnightblue" points="173.731,-11.5001 163.731,-15 173.731,-18.5001 173.731,-11.5001"/>
</g>
<!-- Node3 -->
<g id="node3" class="node"><title>Node3</title>
<g id="a_node3"><a xlink:href="../../dc/d2c/classview_package_1_1_button_box.html#a9756fc46a96c169ce48a1867bd2c82f5" target="_top" xlink:title="viewPackage.ButtonBox.make\lButtonBox">
<polygon fill="white" stroke="black" points="390,-0 390,-30 550,-30 550,-0 390,-0"/>
<text text-anchor="start" x="398" y="-18" font-family="Helvetica,sans-Serif" font-size="10.00">viewPackage.ButtonBox.make</text>
<text text-anchor="middle" x="470" y="-7" font-family="Helvetica,sans-Serif" font-size="10.00">ButtonBox</text>
</a>
</g>
</g>
<!-- Node2&#45;&gt;Node3 -->
<g id="edge2" class="edge"><title>Node2&#45;&gt;Node3</title>
<path fill="none" stroke="midnightblue" d="M363.864,-15C372.526,-15 381.295,-15 389.881,-15"/>
<polygon fill="midnightblue" stroke="midnightblue" points="363.763,-11.5001 353.763,-15 363.763,-18.5001 363.763,-11.5001"/>
</g>
<!-- Node4 -->
<g id="node4" class="node"><title>Node4</title>
<g id="a_node4"><a xlink:href="../../d1/dbf/classview_package_1_1_view.html#af6f6887ef253ae0fba2634e367b95312" target="_top" xlink:title="viewPackage.View.initialize">
<polygon fill="white" stroke="black" points="586,-5.5 586,-24.5 728,-24.5 728,-5.5 586,-5.5"/>
<text text-anchor="middle" x="657" y="-12.5" font-family="Helvetica,sans-Serif" font-size="10.00">viewPackage.View.initialize</text>
</a>
</g>
</g>
<!-- Node3&#45;&gt;Node4 -->
<g id="edge3" class="edge"><title>Node3&#45;&gt;Node4</title>
<path fill="none" stroke="midnightblue" d="M560.327,-15C568.93,-15 577.57,-15 585.949,-15"/>
<polygon fill="midnightblue" stroke="midnightblue" points="560.262,-11.5001 550.262,-15 560.262,-18.5001 560.262,-11.5001"/>
</g>
<!-- Node5 -->
<g id="node5" class="node"><title>Node5</title>
<g id="a_node5"><a xlink:href="../../d9/df7/classcontroller_1_1_controller.html#a4dbfef3e3e30bd1bb84df7a6b24ad1e7" target="_top" xlink:title="controller.Controller.Controller">
<polygon fill="white" stroke="black" points="764.5,-5.5 764.5,-24.5 923.5,-24.5 923.5,-5.5 764.5,-5.5"/>
<text text-anchor="middle" x="844" y="-12.5" font-family="Helvetica,sans-Serif" font-size="10.00">controller.Controller.Controller</text>
</a>
</g>
</g>
<!-- Node4&#45;&gt;Node5 -->
<g id="edge4" class="edge"><title>Node4&#45;&gt;Node5</title>
<path fill="none" stroke="midnightblue" d="M738.313,-15C746.998,-15 755.828,-15 764.491,-15"/>
<polygon fill="midnightblue" stroke="midnightblue" points="738.204,-11.5001 728.204,-15 738.204,-18.5001 738.204,-11.5001"/>
</g>
</g>
</svg>
