<?xml version="1.0" encoding="UTF-8" standalone="no"?>
<!DOCTYPE svg PUBLIC "-//W3C//DTD SVG 1.1//EN"
 "http://www.w3.org/Graphics/SVG/1.1/DTD/svg11.dtd">
<!-- Generated by graphviz version 2.36.0 (20140111.2315)
 -->
<!-- Title: viewPackage.View.setPlayAction Pages: 1 -->
<!--zoomable 520 -->
<svg id="main" version="1.1" xmlns="http://www.w3.org/2000/svg" xmlns:xlink="http://www.w3.org/1999/xlink" xml:space="preserve" onload="init(evt)">
<style type="text/css"><![CDATA[
.edge:hover path { stroke: red; }
.edge:hover polygon { stroke: red; fill: red; }
]]></style>
<script type="text/javascript"><![CDATA[
var edges = document.getElementsByTagName('g');
if (edges && edges.length) {
  for (var i=0;i<edges.length;i++) {
    if (edges[i].id.substr(0,4)=='edge') {
      edges[i].setAttribute('class','edge');
    }
  }
}
]]></script>
        <defs>
                <circle id="rim" cx="0" cy="0" r="7"/>
                <circle id="rim2" cx="0" cy="0" r="3.5"/>
                <g id="zoomPlus">
                        <use xlink:href="#rim" fill="#404040">
                                <set attributeName="fill" to="#808080" begin="zoomplus.mouseover" end="zoomplus.mouseout"/>
                        </use>
                        <path d="M-4,0h8M0,-4v8" fill="none" stroke="white" stroke-width="1.5" pointer-events="none"/>
                </g>
                <g id="zoomMin">
                        <use xlink:href="#rim" fill="#404040">
                                <set attributeName="fill" to="#808080" begin="zoomminus.mouseover" end="zoomminus.mouseout"/>
                        </use>
                        <path d="M-4,0h8" fill="none" stroke="white" stroke-width="1.5" pointer-events="none"/>
                </g>
                <g id="dirArrow">
                        <path fill="none" stroke="white" stroke-width="1.5" d="M0,-3.0v7 M-2.5,-0.5L0,-3.0L2.5,-0.5"/>
                </g>
               <g id="resetDef">
                       <use xlink:href="#rim2" fill="#404040">
                               <set attributeName="fill" to="#808080" begin="reset.mouseover" end="reset.mouseout"/>
                       </use>
               </g>
        </defs>

<script type="text/javascript">
var viewWidth = 1334;
var viewHeight = 520;
var sectionId = 'dynsection-20';
</script>
<script xlink:href="../../svgpan.js"/>
<svg id="graph" class="graph">
<g id="viewport">
<title>viewPackage.View.setPlayAction</title>
<polygon fill="white" stroke="none" points="-4,4 -4,-516 1330,-516 1330,4 -4,4"/>
<!-- Node1 -->
<g id="node1" class="node"><title>Node1</title>
<polygon fill="#bfbfbf" stroke="black" points="0,-250 0,-280 138,-280 138,-250 0,-250"/>
<text text-anchor="start" x="8" y="-268" font-family="Helvetica,sans-Serif" font-size="10.00">viewPackage.View.setPlay</text>
<text text-anchor="middle" x="69" y="-257" font-family="Helvetica,sans-Serif" font-size="10.00">Action</text>
</g>
<!-- Node2 -->
<g id="node2" class="node"><title>Node2</title>
<g id="a_node2"><a xlink:href="../../d9/df7/classcontroller_1_1_controller.html#a37d9d1d84d304a9d94d7666322b7c6ab" target="_top" xlink:title="controller.Controller.change\lSpeed">
<polygon fill="white" stroke="black" points="175,-294 175,-324 323,-324 323,-294 175,-294"/>
<text text-anchor="start" x="183" y="-312" font-family="Helvetica,sans-Serif" font-size="10.00">controller.Controller.change</text>
<text text-anchor="middle" x="249" y="-301" font-family="Helvetica,sans-Serif" font-size="10.00">Speed</text>
</a>
</g>
</g>
<!-- Node1&#45;&gt;Node2 -->
<g id="edge1" class="edge"><title>Node1&#45;&gt;Node2</title>
<path fill="none" stroke="midnightblue" d="M130.76,-280.019C145.713,-283.716 161.853,-287.705 177.234,-291.507"/>
<polygon fill="midnightblue" stroke="midnightblue" points="176.664,-294.972 187.212,-293.974 178.344,-288.176 176.664,-294.972"/>
</g>
<!-- Node3 -->
<g id="node3" class="node"><title>Node3</title>
<g id="a_node3"><a xlink:href="../../d9/df7/classcontroller_1_1_controller.html#ae859ed2fba4e22871428ec51f7d4c07d" target="_top" xlink:title="controller.Controller.play\lSimulation">
<polygon fill="white" stroke="black" points="360,-272 360,-302 492,-302 492,-272 360,-272"/>
<text text-anchor="start" x="368" y="-290" font-family="Helvetica,sans-Serif" font-size="10.00">controller.Controller.play</text>
<text text-anchor="middle" x="426" y="-279" font-family="Helvetica,sans-Serif" font-size="10.00">Simulation</text>
</a>
</g>
</g>
<!-- Node1&#45;&gt;Node3 -->
<g id="edge34" class="edge"><title>Node1&#45;&gt;Node3</title>
<path fill="none" stroke="midnightblue" d="M138.028,-269.216C198.578,-272.968 287.014,-278.449 349.681,-282.332"/>
<polygon fill="midnightblue" stroke="midnightblue" points="349.701,-285.84 359.898,-282.966 350.134,-278.854 349.701,-285.84"/>
</g>
<!-- Node27 -->
<g id="node27" class="node"><title>Node27</title>
<g id="a_node27"><a xlink:href="../../dc/d2c/classview_package_1_1_button_box.html#af3af1c415492d2aa9a7aaaeeb34b6021" target="_top" xlink:title="viewPackage.ButtonBox.get\lSpeed">
<polygon fill="white" stroke="black" points="174.5,-206 174.5,-236 323.5,-236 323.5,-206 174.5,-206"/>
<text text-anchor="start" x="182.5" y="-224" font-family="Helvetica,sans-Serif" font-size="10.00">viewPackage.ButtonBox.get</text>
<text text-anchor="middle" x="249" y="-213" font-family="Helvetica,sans-Serif" font-size="10.00">Speed</text>
</a>
</g>
</g>
<!-- Node1&#45;&gt;Node27 -->
<g id="edge33" class="edge"><title>Node1&#45;&gt;Node27</title>
<path fill="none" stroke="midnightblue" d="M130.76,-249.981C145.713,-246.284 161.853,-242.295 177.234,-238.493"/>
<polygon fill="midnightblue" stroke="midnightblue" points="178.344,-241.824 187.212,-236.026 176.664,-235.028 178.344,-241.824"/>
</g>
<!-- Node2&#45;&gt;Node3 -->
<g id="edge2" class="edge"><title>Node2&#45;&gt;Node3</title>
<path fill="none" stroke="midnightblue" d="M323.202,-299.797C332.048,-298.685 341.095,-297.548 349.968,-296.433"/>
<polygon fill="midnightblue" stroke="midnightblue" points="350.406,-299.905 359.891,-295.185 349.532,-292.96 350.406,-299.905"/>
</g>
<!-- Node4 -->
<g id="node4" class="node"><title>Node4</title>
<g id="a_node4"><a xlink:href="../../d9/df7/classcontroller_1_1_controller.html#aa8fee9e96592dabbb151850b562d9ec0" target="_top" xlink:title="controller.Controller.step\lSimulation">
<polygon fill="white" stroke="black" points="528,-272 528,-302 662,-302 662,-272 528,-272"/>
<text text-anchor="start" x="536" y="-290" font-family="Helvetica,sans-Serif" font-size="10.00">controller.Controller.step</text>
<text text-anchor="middle" x="595" y="-279" font-family="Helvetica,sans-Serif" font-size="10.00">Simulation</text>
</a>
</g>
</g>
<!-- Node3&#45;&gt;Node4 -->
<g id="edge3" class="edge"><title>Node3&#45;&gt;Node4</title>
<path fill="none" stroke="midnightblue" d="M492.045,-287C500.47,-287 509.16,-287 517.747,-287"/>
<polygon fill="midnightblue" stroke="midnightblue" points="517.757,-290.5 527.757,-287 517.757,-283.5 517.757,-290.5"/>
</g>
<!-- Node5 -->
<g id="node5" class="node"><title>Node5</title>
<g id="a_node5"><a xlink:href="../../d9/df7/classcontroller_1_1_controller.html#af87c08769a85e54ca1d5c688b82b11f6" target="_top" xlink:title="controller.Controller.bundle\lViewPackager">
<polygon fill="white" stroke="black" points="715.5,-384 715.5,-414 860.5,-414 860.5,-384 715.5,-384"/>
<text text-anchor="start" x="723.5" y="-402" font-family="Helvetica,sans-Serif" font-size="10.00">controller.Controller.bundle</text>
<text text-anchor="middle" x="788" y="-391" font-family="Helvetica,sans-Serif" font-size="10.00">ViewPackager</text>
</a>
</g>
</g>
<!-- Node4&#45;&gt;Node5 -->
<g id="edge4" class="edge"><title>Node4&#45;&gt;Node5</title>
<path fill="none" stroke="midnightblue" d="M621.759,-302.105C655.459,-321.866 714.633,-356.565 752.269,-378.634"/>
<polygon fill="midnightblue" stroke="midnightblue" points="750.948,-381.917 761.345,-383.956 754.489,-375.878 750.948,-381.917"/>
</g>
<!-- Node14 -->
<g id="node14" class="node"><title>Node14</title>
<g id="a_node14"><a xlink:href="../../d2/d17/classmodel_1_1_simulation.html#a4fc716803ab2e78743a529a24a8c601f" target="_top" xlink:title="model.Simulation.makeNextGrid">
<polygon fill="white" stroke="black" points="925.5,-296.5 925.5,-315.5 1098.5,-315.5 1098.5,-296.5 925.5,-296.5"/>
<text text-anchor="middle" x="1012" y="-303.5" font-family="Helvetica,sans-Serif" font-size="10.00">model.Simulation.makeNextGrid</text>
</a>
</g>
</g>
<!-- Node4&#45;&gt;Node14 -->
<g id="edge17" class="edge"><title>Node4&#45;&gt;Node14</title>
<path fill="none" stroke="midnightblue" d="M662.217,-290.032C730.437,-293.155 837.46,-298.055 914.97,-301.603"/>
<polygon fill="midnightblue" stroke="midnightblue" points="915.076,-305.112 925.226,-302.073 915.396,-298.119 915.076,-305.112"/>
</g>
<!-- Node18 -->
<g id="node18" class="node"><title>Node18</title>
<g id="a_node18"><a xlink:href="../../d2/d17/classmodel_1_1_simulation.html#abed35864045d807fe4a577bbe02b996e" target="_top" xlink:title="model.Simulation.updateGrid">
<polygon fill="white" stroke="black" points="709.5,-258.5 709.5,-277.5 866.5,-277.5 866.5,-258.5 709.5,-258.5"/>
<text text-anchor="middle" x="788" y="-265.5" font-family="Helvetica,sans-Serif" font-size="10.00">model.Simulation.updateGrid</text>
</a>
</g>
</g>
<!-- Node4&#45;&gt;Node18 -->
<g id="edge24" class="edge"><title>Node4&#45;&gt;Node18</title>
<path fill="none" stroke="midnightblue" d="M662.266,-280.408C674.254,-279.216 686.921,-277.955 699.408,-276.713"/>
<polygon fill="midnightblue" stroke="midnightblue" points="699.761,-280.196 709.366,-275.723 699.068,-273.23 699.761,-280.196"/>
</g>
<!-- Node19 -->
<g id="node19" class="node"><title>Node19</title>
<g id="a_node19"><a xlink:href="../../d1/dbf/classview_package_1_1_view.html#a7793d78c89cc38648fc57d4ee46a0837" target="_top" xlink:title="viewPackage.View.updateGridView">
<polygon fill="white" stroke="black" points="698.5,-132.5 698.5,-151.5 877.5,-151.5 877.5,-132.5 698.5,-132.5"/>
<text text-anchor="middle" x="788" y="-139.5" font-family="Helvetica,sans-Serif" font-size="10.00">viewPackage.View.updateGridView</text>
</a>
</g>
</g>
<!-- Node4&#45;&gt;Node19 -->
<g id="edge25" class="edge"><title>Node4&#45;&gt;Node19</title>
<path fill="none" stroke="midnightblue" d="M616.079,-271.757C652.434,-244.157 728.823,-186.166 765.908,-158.013"/>
<polygon fill="midnightblue" stroke="midnightblue" points="768.179,-160.682 774.028,-151.848 763.947,-155.107 768.179,-160.682"/>
</g>
<!-- Node6 -->
<g id="node6" class="node"><title>Node6</title>
<g id="a_node6"><a xlink:href="../../d9/df7/classcontroller_1_1_controller.html#ae43191a1fc7db5c1cb03da2a8a580541" target="_top" xlink:title="controller.Controller.create\lColorGrid">
<polygon fill="white" stroke="black" points="940.5,-384 940.5,-414 1083.5,-414 1083.5,-384 940.5,-384"/>
<text text-anchor="start" x="948.5" y="-402" font-family="Helvetica,sans-Serif" font-size="10.00">controller.Controller.create</text>
<text text-anchor="middle" x="1012" y="-391" font-family="Helvetica,sans-Serif" font-size="10.00">ColorGrid</text>
</a>
</g>
</g>
<!-- Node5&#45;&gt;Node6 -->
<g id="edge5" class="edge"><title>Node5&#45;&gt;Node6</title>
<path fill="none" stroke="midnightblue" d="M860.77,-399C882.851,-399 907.309,-399 929.967,-399"/>
<polygon fill="midnightblue" stroke="midnightblue" points="930.235,-402.5 940.235,-399 930.235,-395.5 930.235,-402.5"/>
</g>
<!-- Node11 -->
<g id="node11" class="node"><title>Node11</title>
<g id="a_node11"><a xlink:href="../../d2/d2c/classcontroller_1_1_view_packager.html#a637ec76985be3af6c2b14a527e1c1bac" target="_top" xlink:title="controller.ViewPackager.set\lColorGrid">
<polygon fill="white" stroke="black" points="939,-335 939,-365 1085,-365 1085,-335 939,-335"/>
<text text-anchor="start" x="947" y="-353" font-family="Helvetica,sans-Serif" font-size="10.00">controller.ViewPackager.set</text>
<text text-anchor="middle" x="1012" y="-342" font-family="Helvetica,sans-Serif" font-size="10.00">ColorGrid</text>
</a>
</g>
</g>
<!-- Node5&#45;&gt;Node11 -->
<g id="edge10" class="edge"><title>Node5&#45;&gt;Node11</title>
<path fill="none" stroke="midnightblue" d="M857.116,-383.965C881.089,-378.674 908.215,-372.687 932.943,-367.229"/>
<polygon fill="midnightblue" stroke="midnightblue" points="934.002,-370.579 943.013,-365.006 932.493,-363.744 934.002,-370.579"/>
</g>
<!-- Node12 -->
<g id="node12" class="node"><title>Node12</title>
<g id="a_node12"><a xlink:href="../../d2/d2c/classcontroller_1_1_view_packager.html#a8a82603c0efc9d0197a0c027030f4993" target="_top" xlink:title="controller.ViewPackager.set\lStateTotalMap">
<polygon fill="white" stroke="black" points="939,-482 939,-512 1085,-512 1085,-482 939,-482"/>
<text text-anchor="start" x="947" y="-500" font-family="Helvetica,sans-Serif" font-size="10.00">controller.ViewPackager.set</text>
<text text-anchor="middle" x="1012" y="-489" font-family="Helvetica,sans-Serif" font-size="10.00">StateTotalMap</text>
</a>
</g>
</g>
<!-- Node5&#45;&gt;Node12 -->
<g id="edge11" class="edge"><title>Node5&#45;&gt;Node12</title>
<path fill="none" stroke="midnightblue" d="M810.619,-414.133C834.811,-430.455 875.654,-456.219 914,-472 920.105,-474.512 926.532,-476.829 933.052,-478.954"/>
<polygon fill="midnightblue" stroke="midnightblue" points="932.056,-482.309 942.644,-481.928 934.129,-475.623 932.056,-482.309"/>
</g>
<!-- Node13 -->
<g id="node13" class="node"><title>Node13</title>
<g id="a_node13"><a xlink:href="../../d9/df7/classcontroller_1_1_controller.html#aca48bc84d82655ce699963fd859afebd" target="_top" xlink:title="controller.Controller.update\lStateTotals">
<polygon fill="white" stroke="black" points="939,-433 939,-463 1085,-463 1085,-433 939,-433"/>
<text text-anchor="start" x="947" y="-451" font-family="Helvetica,sans-Serif" font-size="10.00">controller.Controller.update</text>
<text text-anchor="middle" x="1012" y="-440" font-family="Helvetica,sans-Serif" font-size="10.00">StateTotals</text>
</a>
</g>
</g>
<!-- Node5&#45;&gt;Node13 -->
<g id="edge12" class="edge"><title>Node5&#45;&gt;Node13</title>
<path fill="none" stroke="midnightblue" d="M857.116,-414.035C881.089,-419.326 908.215,-425.313 932.943,-430.771"/>
<polygon fill="midnightblue" stroke="midnightblue" points="932.493,-434.256 943.013,-432.994 934.002,-427.421 932.493,-434.256"/>
</g>
<!-- Node7 -->
<g id="node7" class="node"><title>Node7</title>
<g id="a_node7"><a xlink:href="../../dc/d8f/classmodel_1_1_grid.html#a7308e05b94f35a2f8198f314eb384267" target="_top" xlink:title="model.Grid.getCell">
<polygon fill="white" stroke="black" points="1183.5,-427.5 1183.5,-446.5 1288.5,-446.5 1288.5,-427.5 1183.5,-427.5"/>
<text text-anchor="middle" x="1236" y="-434.5" font-family="Helvetica,sans-Serif" font-size="10.00">model.Grid.getCell</text>
</a>
</g>
</g>
<!-- Node6&#45;&gt;Node7 -->
<g id="edge6" class="edge"><title>Node6&#45;&gt;Node7</title>
<path fill="none" stroke="midnightblue" d="M1083.55,-411.076C1112.38,-416.011 1145.44,-421.669 1173.29,-426.437"/>
<polygon fill="midnightblue" stroke="midnightblue" points="1172.85,-429.913 1183.3,-428.151 1174.04,-423.014 1172.85,-429.913"/>
</g>
<!-- Node8 -->
<g id="node8" class="node"><title>Node8</title>
<g id="a_node8"><a xlink:href="../../dc/d8f/classmodel_1_1_grid.html#a01924b6019a14826898f281a3064b3b5" target="_top" xlink:title="model.Grid.getGridColSize">
<polygon fill="white" stroke="black" points="1164.5,-389.5 1164.5,-408.5 1307.5,-408.5 1307.5,-389.5 1164.5,-389.5"/>
<text text-anchor="middle" x="1236" y="-396.5" font-family="Helvetica,sans-Serif" font-size="10.00">model.Grid.getGridColSize</text>
</a>
</g>
</g>
<!-- Node6&#45;&gt;Node8 -->
<g id="edge7" class="edge"><title>Node6&#45;&gt;Node8</title>
<path fill="none" stroke="midnightblue" d="M1083.55,-399C1106,-399 1131.01,-399 1154.13,-399"/>
<polygon fill="midnightblue" stroke="midnightblue" points="1154.26,-402.5 1164.26,-399 1154.26,-395.5 1154.26,-402.5"/>
</g>
<!-- Node9 -->
<g id="node9" class="node"><title>Node9</title>
<g id="a_node9"><a xlink:href="../../dc/d8f/classmodel_1_1_grid.html#a40adce87c26a3a6830125324ae576c34" target="_top" xlink:title="model.Grid.getGridRowSize">
<polygon fill="white" stroke="black" points="1163,-351.5 1163,-370.5 1309,-370.5 1309,-351.5 1163,-351.5"/>
<text text-anchor="middle" x="1236" y="-358.5" font-family="Helvetica,sans-Serif" font-size="10.00">model.Grid.getGridRowSize</text>
</a>
</g>
</g>
<!-- Node6&#45;&gt;Node9 -->
<g id="edge8" class="edge"><title>Node6&#45;&gt;Node9</title>
<path fill="none" stroke="midnightblue" d="M1083.55,-386.924C1111.02,-382.222 1142.32,-376.865 1169.3,-372.246"/>
<polygon fill="midnightblue" stroke="midnightblue" points="1170.15,-375.651 1179.42,-370.514 1168.97,-368.752 1170.15,-375.651"/>
</g>
<!-- Node10 -->
<g id="node10" class="node"><title>Node10</title>
<g id="a_node10"><a xlink:href="../../d3/d57/classmodel_1_1_cell.html#a527cb796745a34155e9b2a82b2a8812a" target="_top" xlink:title="model.Cell.toString">
<polygon fill="white" stroke="black" points="1182,-465.5 1182,-484.5 1290,-484.5 1290,-465.5 1182,-465.5"/>
<text text-anchor="middle" x="1236" y="-472.5" font-family="Helvetica,sans-Serif" font-size="10.00">model.Cell.toString</text>
</a>
</g>
</g>
<!-- Node6&#45;&gt;Node10 -->
<g id="edge9" class="edge"><title>Node6&#45;&gt;Node10</title>
<path fill="none" stroke="midnightblue" d="M1083.71,-412.06C1092.82,-415.012 1101.82,-418.614 1110,-423 1129.13,-433.258 1126.71,-446.051 1146,-456 1154.04,-460.148 1162.94,-463.391 1171.91,-465.927"/>
<polygon fill="midnightblue" stroke="midnightblue" points="1171.08,-469.327 1181.64,-468.409 1172.81,-462.544 1171.08,-469.327"/>
</g>
<!-- Node13&#45;&gt;Node7 -->
<g id="edge13" class="edge"><title>Node13&#45;&gt;Node7</title>
<path fill="none" stroke="midnightblue" d="M1085.08,-444.429C1113.48,-443.021 1145.78,-441.421 1173.1,-440.067"/>
<polygon fill="midnightblue" stroke="midnightblue" points="1173.5,-443.552 1183.31,-439.561 1173.15,-436.56 1173.5,-443.552"/>
</g>
<!-- Node13&#45;&gt;Node8 -->
<g id="edge14" class="edge"><title>Node13&#45;&gt;Node8</title>
<path fill="none" stroke="midnightblue" d="M1078.92,-432.972C1100.31,-428.139 1124.15,-422.796 1146,-418 1156.87,-415.614 1168.5,-413.102 1179.64,-410.715"/>
<polygon fill="midnightblue" stroke="midnightblue" points="1180.65,-414.078 1189.7,-408.565 1179.19,-407.232 1180.65,-414.078"/>
</g>
<!-- Node13&#45;&gt;Node9 -->
<g id="edge15" class="edge"><title>Node13&#45;&gt;Node9</title>
<path fill="none" stroke="midnightblue" d="M1085.05,-434.87C1093.81,-431.724 1102.35,-427.827 1110,-423 1131.08,-409.697 1124.65,-392.858 1146,-380 1149.48,-377.905 1153.16,-376.039 1156.96,-374.377"/>
<polygon fill="midnightblue" stroke="midnightblue" points="1158.55,-377.516 1166.62,-370.654 1156.03,-370.985 1158.55,-377.516"/>
</g>
<!-- Node13&#45;&gt;Node10 -->
<g id="edge16" class="edge"><title>Node13&#45;&gt;Node10</title>
<path fill="none" stroke="midnightblue" d="M1085.08,-456.766C1113.03,-460.166 1144.76,-464.024 1171.8,-467.314"/>
<polygon fill="midnightblue" stroke="midnightblue" points="1171.57,-470.811 1181.92,-468.544 1172.41,-463.862 1171.57,-470.811"/>
</g>
<!-- Node14&#45;&gt;Node7 -->
<g id="edge20" class="edge"><title>Node14&#45;&gt;Node7</title>
<path fill="none" stroke="midnightblue" d="M1095.23,-315.63C1100.53,-318.166 1105.53,-321.253 1110,-325 1143.97,-353.466 1112.27,-389.248 1146,-418 1153.76,-424.611 1163.25,-429.097 1173.12,-432.108"/>
<polygon fill="midnightblue" stroke="midnightblue" points="1172.51,-435.564 1183.06,-434.653 1174.24,-428.783 1172.51,-435.564"/>
</g>
<!-- Node14&#45;&gt;Node8 -->
<g id="edge21" class="edge"><title>Node14&#45;&gt;Node8</title>
<path fill="none" stroke="midnightblue" d="M1091.47,-315.569C1098.02,-318.069 1104.31,-321.168 1110,-325 1134.24,-341.311 1121.9,-363.485 1146,-380 1148.89,-381.98 1151.95,-383.76 1155.12,-385.359"/>
<polygon fill="midnightblue" stroke="midnightblue" points="1153.77,-388.587 1164.33,-389.404 1156.58,-382.178 1153.77,-388.587"/>
</g>
<!-- Node14&#45;&gt;Node9 -->
<g id="edge22" class="edge"><title>Node14&#45;&gt;Node9</title>
<path fill="none" stroke="midnightblue" d="M1072.78,-315.518C1085.21,-318.106 1098.14,-321.254 1110,-325 1126.7,-330.272 1129.38,-335.498 1146,-341 1155.15,-344.029 1164.98,-346.747 1174.65,-349.133"/>
<polygon fill="midnightblue" stroke="midnightblue" points="1174.09,-352.598 1184.63,-351.497 1175.71,-345.786 1174.09,-352.598"/>
</g>
<!-- Node15 -->
<g id="node15" class="node"><title>Node15</title>
<g id="a_node15"><a xlink:href="../../d2/d17/classmodel_1_1_simulation.html#ab1da5698abc45e35e163f783fa393f8d" target="_top" xlink:title="model.Simulation.calculate\lNewCellState">
<polygon fill="white" stroke="black" points="1163,-302 1163,-332 1309,-332 1309,-302 1163,-302"/>
<text text-anchor="start" x="1171" y="-320" font-family="Helvetica,sans-Serif" font-size="10.00">model.Simulation.calculate</text>
<text text-anchor="middle" x="1236" y="-309" font-family="Helvetica,sans-Serif" font-size="10.00">NewCellState</text>
</a>
</g>
</g>
<!-- Node14&#45;&gt;Node15 -->
<g id="edge18" class="edge"><title>Node14&#45;&gt;Node15</title>
<path fill="none" stroke="midnightblue" d="M1098.51,-310.237C1116.28,-311.117 1134.97,-312.043 1152.62,-312.918"/>
<polygon fill="midnightblue" stroke="midnightblue" points="1152.72,-316.427 1162.88,-313.426 1153.06,-309.436 1152.72,-316.427"/>
</g>
<!-- Node16 -->
<g id="node16" class="node"><title>Node16</title>
<g id="a_node16"><a xlink:href="../../dc/d8f/classmodel_1_1_grid.html#a994d6c682166c2599924fba6a64db842" target="_top" xlink:title="model.Grid.copyGrid">
<polygon fill="white" stroke="black" points="1179,-263.5 1179,-282.5 1293,-282.5 1293,-263.5 1179,-263.5"/>
<text text-anchor="middle" x="1236" y="-270.5" font-family="Helvetica,sans-Serif" font-size="10.00">model.Grid.copyGrid</text>
</a>
</g>
</g>
<!-- Node14&#45;&gt;Node16 -->
<g id="edge19" class="edge"><title>Node14&#45;&gt;Node16</title>
<path fill="none" stroke="midnightblue" d="M1076.91,-296.499C1105.67,-292.224 1139.61,-287.179 1168.65,-282.862"/>
<polygon fill="midnightblue" stroke="midnightblue" points="1169.33,-286.3 1178.71,-281.368 1168.3,-279.376 1169.33,-286.3"/>
</g>
<!-- Node17 -->
<g id="node17" class="node"><title>Node17</title>
<g id="a_node17"><a xlink:href="../../d3/d57/classmodel_1_1_cell.html#afba3057d5fff58793cb8118915f47e2a" target="_top" xlink:title="model.Cell.setState">
<polygon fill="white" stroke="black" points="1180.5,-225.5 1180.5,-244.5 1291.5,-244.5 1291.5,-225.5 1180.5,-225.5"/>
<text text-anchor="middle" x="1236" y="-232.5" font-family="Helvetica,sans-Serif" font-size="10.00">model.Cell.setState</text>
</a>
</g>
</g>
<!-- Node14&#45;&gt;Node17 -->
<g id="edge23" class="edge"><title>Node14&#45;&gt;Node17</title>
<path fill="none" stroke="midnightblue" d="M1034.28,-296.439C1060.23,-285.069 1105.63,-266.113 1146,-254 1154.78,-251.366 1164.15,-248.949 1173.39,-246.788"/>
<polygon fill="midnightblue" stroke="midnightblue" points="1174.36,-250.159 1183.34,-244.544 1172.82,-243.331 1174.36,-250.159"/>
</g>
<!-- Node20 -->
<g id="node20" class="node"><title>Node20</title>
<g id="a_node20"><a xlink:href="../../df/dcf/classview_package_1_1_display_grid.html#a1a0aa454acaa29992ff9c716d38ec396" target="_top" xlink:title="viewPackage.DisplayGrid.updateGrid">
<polygon fill="white" stroke="black" points="917,-44.5 917,-63.5 1107,-63.5 1107,-44.5 917,-44.5"/>
<text text-anchor="middle" x="1012" y="-51.5" font-family="Helvetica,sans-Serif" font-size="10.00">viewPackage.DisplayGrid.updateGrid</text>
</a>
</g>
</g>
<!-- Node19&#45;&gt;Node20 -->
<g id="edge26" class="edge"><title>Node19&#45;&gt;Node20</title>
<path fill="none" stroke="midnightblue" d="M813.18,-132.415C852.965,-116.645 932.31,-85.1924 977.486,-67.2849"/>
<polygon fill="midnightblue" stroke="midnightblue" points="978.843,-70.512 986.849,-63.5732 976.263,-64.0046 978.843,-70.512"/>
</g>
<!-- Node23 -->
<g id="node23" class="node"><title>Node23</title>
<g id="a_node23"><a xlink:href="../../d1/d10/classview_package_1_1_population_graph.html#a821b7af856b69286ee399d9db8c65a71" target="_top" xlink:title="viewPackage.PopulationGraph.update\lGraph">
<polygon fill="white" stroke="black" points="914,-127 914,-157 1110,-157 1110,-127 914,-127"/>
<text text-anchor="start" x="922" y="-145" font-family="Helvetica,sans-Serif" font-size="10.00">viewPackage.PopulationGraph.update</text>
<text text-anchor="middle" x="1012" y="-134" font-family="Helvetica,sans-Serif" font-size="10.00">Graph</text>
</a>
</g>
</g>
<!-- Node19&#45;&gt;Node23 -->
<g id="edge29" class="edge"><title>Node19&#45;&gt;Node23</title>
<path fill="none" stroke="midnightblue" d="M877.697,-142C886.204,-142 894.894,-142 903.554,-142"/>
<polygon fill="midnightblue" stroke="midnightblue" points="903.694,-145.5 913.694,-142 903.694,-138.5 903.694,-145.5"/>
</g>
<!-- Node21 -->
<g id="node21" class="node"><title>Node21</title>
<g id="a_node21"><a xlink:href="../../d2/d2c/classcontroller_1_1_view_packager.html#a1e8974daf2095f568a390c63173683c7" target="_top" xlink:title="controller.ViewPackager.get\lColorGrid">
<polygon fill="white" stroke="black" points="1162.5,-39 1162.5,-69 1309.5,-69 1309.5,-39 1162.5,-39"/>
<text text-anchor="start" x="1170.5" y="-57" font-family="Helvetica,sans-Serif" font-size="10.00">controller.ViewPackager.get</text>
<text text-anchor="middle" x="1236" y="-46" font-family="Helvetica,sans-Serif" font-size="10.00">ColorGrid</text>
</a>
</g>
</g>
<!-- Node20&#45;&gt;Node21 -->
<g id="edge27" class="edge"><title>Node20&#45;&gt;Node21</title>
<path fill="none" stroke="midnightblue" d="M1107.15,-54C1122.13,-54 1137.52,-54 1152.22,-54"/>
<polygon fill="midnightblue" stroke="midnightblue" points="1152.26,-57.5001 1162.26,-54 1152.26,-50.5001 1152.26,-57.5001"/>
</g>
<!-- Node22 -->
<g id="node22" class="node"><title>Node22</title>
<g id="a_node22"><a xlink:href="../../df/dcf/classview_package_1_1_display_grid.html#abcfcacf1767533f216fca38abf791804" target="_top" xlink:title="viewPackage.DisplayGrid.setFill">
<polygon fill="white" stroke="black" points="1154.5,-0.5 1154.5,-19.5 1317.5,-19.5 1317.5,-0.5 1154.5,-0.5"/>
<text text-anchor="middle" x="1236" y="-7.5" font-family="Helvetica,sans-Serif" font-size="10.00">viewPackage.DisplayGrid.setFill</text>
</a>
</g>
</g>
<!-- Node20&#45;&gt;Node22 -->
<g id="edge28" class="edge"><title>Node20&#45;&gt;Node22</title>
<path fill="none" stroke="midnightblue" d="M1061.17,-44.4527C1095.21,-37.7066 1141,-28.6313 1177.04,-21.4886"/>
<polygon fill="midnightblue" stroke="midnightblue" points="1177.79,-24.9062 1186.92,-19.5287 1176.43,-18.0397 1177.79,-24.9062"/>
</g>
<!-- Node24 -->
<g id="node24" class="node"><title>Node24</title>
<g id="a_node24"><a xlink:href="../../d1/d10/classview_package_1_1_population_graph.html#a3cb5ab88b681f1415029a3ef5b675588" target="_top" xlink:title="viewPackage.PopulationGraph.add\lToList">
<polygon fill="white" stroke="black" points="1146,-127 1146,-157 1326,-157 1326,-127 1146,-127"/>
<text text-anchor="start" x="1154" y="-145" font-family="Helvetica,sans-Serif" font-size="10.00">viewPackage.PopulationGraph.add</text>
<text text-anchor="middle" x="1236" y="-134" font-family="Helvetica,sans-Serif" font-size="10.00">ToList</text>
</a>
</g>
</g>
<!-- Node23&#45;&gt;Node24 -->
<g id="edge30" class="edge"><title>Node23&#45;&gt;Node24</title>
<path fill="none" stroke="midnightblue" d="M1110.05,-142C1118.6,-142 1127.27,-142 1135.84,-142"/>
<polygon fill="midnightblue" stroke="midnightblue" points="1135.84,-145.5 1145.84,-142 1135.84,-138.5 1135.84,-145.5"/>
</g>
<!-- Node25 -->
<g id="node25" class="node"><title>Node25</title>
<g id="a_node25"><a xlink:href="../../d1/dbf/classview_package_1_1_view.html#aea085ebbf6e586d637710ff0d8ba71bf" target="_top" xlink:title="viewPackage.View.getGeneration">
<polygon fill="white" stroke="black" points="1149.5,-88.5 1149.5,-107.5 1322.5,-107.5 1322.5,-88.5 1149.5,-88.5"/>
<text text-anchor="middle" x="1236" y="-95.5" font-family="Helvetica,sans-Serif" font-size="10.00">viewPackage.View.getGeneration</text>
</a>
</g>
</g>
<!-- Node23&#45;&gt;Node25 -->
<g id="edge31" class="edge"><title>Node23&#45;&gt;Node25</title>
<path fill="none" stroke="midnightblue" d="M1088.78,-126.981C1117.63,-121.263 1150.01,-114.844 1176.96,-109.503"/>
<polygon fill="midnightblue" stroke="midnightblue" points="1177.88,-112.89 1187.01,-107.512 1176.52,-106.023 1177.88,-112.89"/>
</g>
<!-- Node26 -->
<g id="node26" class="node"><title>Node26</title>
<g id="a_node26"><a xlink:href="../../d2/d2c/classcontroller_1_1_view_packager.html#a111fe52ef72753012062470020a0e152" target="_top" xlink:title="controller.ViewPackager.get\lStateTotals">
<polygon fill="white" stroke="black" points="1162.5,-176 1162.5,-206 1309.5,-206 1309.5,-176 1162.5,-176"/>
<text text-anchor="start" x="1170.5" y="-194" font-family="Helvetica,sans-Serif" font-size="10.00">controller.ViewPackager.get</text>
<text text-anchor="middle" x="1236" y="-183" font-family="Helvetica,sans-Serif" font-size="10.00">StateTotals</text>
</a>
</g>
</g>
<!-- Node23&#45;&gt;Node26 -->
<g id="edge32" class="edge"><title>Node23&#45;&gt;Node26</title>
<path fill="none" stroke="midnightblue" d="M1081.12,-157.035C1105.09,-162.326 1132.22,-168.313 1156.94,-173.771"/>
<polygon fill="midnightblue" stroke="midnightblue" points="1156.49,-177.256 1167.01,-175.994 1158,-170.421 1156.49,-177.256"/>
</g>
</g>
</svg>
        <g id="navigator" transform="translate(0 0)" fill="#404254">
                <rect fill="#f2f5e9" fill-opacity="0.5" stroke="#606060" stroke-width=".5" x="0" y="0" width="60" height="60"/>
                <use id="zoomplus" xlink:href="#zoomPlus" x="17" y="9" onmousedown="handleZoom(evt,'in')"/>
                <use id="zoomminus" xlink:href="#zoomMin" x="42" y="9" onmousedown="handleZoom(evt,'out')"/>
                <use id="reset" xlink:href="#resetDef" x="30" y="36" onmousedown="handleReset()"/>
                <g id="arrowUp" xlink:href="#dirArrow" transform="translate(30 24)" onmousedown="handlePan(0,-1)">
                  <use xlink:href="#rim" fill="#404040">
                        <set attributeName="fill" to="#808080" begin="arrowUp.mouseover" end="arrowUp.mouseout"/>
                  </use>
                  <path fill="none" stroke="white" stroke-width="1.5" d="M0,-3.0v7 M-2.5,-0.5L0,-3.0L2.5,-0.5"/>
                </g>
                <g id="arrowRight" xlink:href="#dirArrow" transform="rotate(90) translate(36 -43)" onmousedown="handlePan(1,0)">
                  <use xlink:href="#rim" fill="#404040">
                        <set attributeName="fill" to="#808080" begin="arrowRight.mouseover" end="arrowRight.mouseout"/>
                  </use>
                  <path fill="none" stroke="white" stroke-width="1.5" d="M0,-3.0v7 M-2.5,-0.5L0,-3.0L2.5,-0.5"/>
                </g>
                <g id="arrowDown" xlink:href="#dirArrow" transform="rotate(180) translate(-30 -48)" onmousedown="handlePan(0,1)">
                  <use xlink:href="#rim" fill="#404040">
                        <set attributeName="fill" to="#808080" begin="arrowDown.mouseover" end="arrowDown.mouseout"/>
                  </use>
                  <path fill="none" stroke="white" stroke-width="1.5" d="M0,-3.0v7 M-2.5,-0.5L0,-3.0L2.5,-0.5"/>
                </g>
                <g id="arrowLeft" xlink:href="#dirArrow" transform="rotate(270) translate(-36 17)" onmousedown="handlePan(-1,0)">
                  <use xlink:href="#rim" fill="#404040">
                        <set attributeName="fill" to="#808080" begin="arrowLeft.mouseover" end="arrowLeft.mouseout"/>
                  </use>
                  <path fill="none" stroke="white" stroke-width="1.5" d="M0,-3.0v7 M-2.5,-0.5L0,-3.0L2.5,-0.5"/>
                </g>
        </g>
        <svg viewBox="0 0 15 15" width="100%" height="30px" preserveAspectRatio="xMaxYMin meet">
         <g id="arrow_out" transform="scale(0.3 0.3)">
          <a xlink:href="classview_package_1_1_view_a1d1a8e16ae622c0d6a66cd9c516672a6_cgraph_org.svg" target="_base">
           <rect id="button" ry="5" rx="5" y="6" x="6" height="38" width="38"
                fill="#f2f5e9" fill-opacity="0.5" stroke="#606060" stroke-width="1.0"/>
           <path id="arrow"
             d="M 11.500037,31.436501 C 11.940474,20.09759 22.043105,11.32322 32.158766,21.979434 L 37.068811,17.246167 C 37.068811,17.246167 37.088388,32 37.088388,32 L 22.160133,31.978069 C 22.160133,31.978069 26.997745,27.140456 26.997745,27.140456 C 18.528582,18.264221 13.291696,25.230495 11.500037,31.436501 z"
             style="fill:#404040;"/>
          </a>
         </g>
        </svg>
</svg>
