<?xml version="1.0" encoding="UTF-8" standalone="no"?>
<!DOCTYPE svg PUBLIC "-//W3C//DTD SVG 1.1//EN"
 "http://www.w3.org/Graphics/SVG/1.1/DTD/svg11.dtd">
<!-- Generated by graphviz version 2.36.0 (20140111.2315)
 -->
<!-- Title: viewPackage.View.getGeneration Pages: 1 -->
<svg width="1928pt" height="167pt"
 viewBox="0.00 0.00 1928.00 167.00" xmlns="http://www.w3.org/2000/svg" xmlns:xlink="http://www.w3.org/1999/xlink">
<g id="graph0" class="graph" transform="scale(1 1) rotate(0) translate(4 163)">
<title>viewPackage.View.getGeneration</title>
<polygon fill="white" stroke="none" points="-4,4 -4,-163 1924,-163 1924,4 -4,4"/>
<!-- Node1 -->
<g id="node1" class="node"><title>Node1</title>
<polygon fill="#bfbfbf" stroke="black" points="0.5,-27.5 0.5,-46.5 173.5,-46.5 173.5,-27.5 0.5,-27.5"/>
<text text-anchor="middle" x="87" y="-34.5" font-family="Helvetica,sans-Serif" font-size="10.00">viewPackage.View.getGeneration</text>
</g>
<!-- Node2 -->
<g id="node2" class="node"><title>Node2</title>
<g id="a_node2"><a xlink:href="../../d1/d10/classview_package_1_1_population_graph.html#a821b7af856b69286ee399d9db8c65a71" target="_top" xlink:title="viewPackage.PopulationGraph.update\lGraph">
<polygon fill="white" stroke="black" points="210,-22 210,-52 406,-52 406,-22 210,-22"/>
<text text-anchor="start" x="218" y="-40" font-family="Helvetica,sans-Serif" font-size="10.00">viewPackage.PopulationGraph.update</text>
<text text-anchor="middle" x="308" y="-29" font-family="Helvetica,sans-Serif" font-size="10.00">Graph</text>
</a>
</g>
</g>
<!-- Node1&#45;&gt;Node2 -->
<g id="edge1" class="edge"><title>Node1&#45;&gt;Node2</title>
<path fill="none" stroke="midnightblue" d="M183.713,-37C192.375,-37 201.154,-37 209.828,-37"/>
<polygon fill="midnightblue" stroke="midnightblue" points="183.612,-33.5001 173.612,-37 183.612,-40.5001 183.612,-33.5001"/>
</g>
<!-- Node3 -->
<g id="node3" class="node"><title>Node3</title>
<g id="a_node3"><a xlink:href="../../d1/dbf/classview_package_1_1_view.html#a7793d78c89cc38648fc57d4ee46a0837" target="_top" xlink:title="viewPackage.View.updateGridView">
<polygon fill="white" stroke="black" points="442.5,-27.5 442.5,-46.5 621.5,-46.5 621.5,-27.5 442.5,-27.5"/>
<text text-anchor="middle" x="532" y="-34.5" font-family="Helvetica,sans-Serif" font-size="10.00">viewPackage.View.updateGridView</text>
</a>
</g>
</g>
<!-- Node2&#45;&gt;Node3 -->
<g id="edge2" class="edge"><title>Node2&#45;&gt;Node3</title>
<path fill="none" stroke="midnightblue" d="M416.229,-37C424.923,-37 433.649,-37 442.191,-37"/>
<polygon fill="midnightblue" stroke="midnightblue" points="416.05,-33.5001 406.049,-37 416.049,-40.5001 416.05,-33.5001"/>
</g>
<!-- Node4 -->
<g id="node4" class="node"><title>Node4</title>
<g id="a_node4"><a xlink:href="../../d9/df7/classcontroller_1_1_controller.html#aa8fee9e96592dabbb151850b562d9ec0" target="_top" xlink:title="controller.Controller.step\lSimulation">
<polygon fill="white" stroke="black" points="665,-44 665,-74 799,-74 799,-44 665,-44"/>
<text text-anchor="start" x="673" y="-62" font-family="Helvetica,sans-Serif" font-size="10.00">controller.Controller.step</text>
<text text-anchor="middle" x="732" y="-51" font-family="Helvetica,sans-Serif" font-size="10.00">Simulation</text>
</a>
</g>
</g>
<!-- Node3&#45;&gt;Node4 -->
<g id="edge3" class="edge"><title>Node3&#45;&gt;Node4</title>
<path fill="none" stroke="midnightblue" d="M628.892,-47.6547C641.07,-49.0078 653.31,-50.3678 664.875,-51.6528"/>
<polygon fill="midnightblue" stroke="midnightblue" points="629.019,-44.1474 618.694,-46.5216 628.246,-51.1046 629.019,-44.1474"/>
</g>
<!-- Node12 -->
<g id="node12" class="node"><title>Node12</title>
<g id="a_node12"><a xlink:href="../../d9/df7/classcontroller_1_1_controller.html#af7cc9ab6dfe60da36d3159eea48882db" target="_top" xlink:title="controller.Controller.loadFile">
<polygon fill="white" stroke="black" points="658,-5.5 658,-24.5 806,-24.5 806,-5.5 658,-5.5"/>
<text text-anchor="middle" x="732" y="-12.5" font-family="Helvetica,sans-Serif" font-size="10.00">controller.Controller.loadFile</text>
</a>
</g>
</g>
<!-- Node3&#45;&gt;Node12 -->
<g id="edge13" class="edge"><title>Node3&#45;&gt;Node12</title>
<path fill="none" stroke="midnightblue" d="M628.845,-26.3505C638.616,-25.2649 648.428,-24.1747 657.899,-23.1223"/>
<polygon fill="midnightblue" stroke="midnightblue" points="628.246,-22.8954 618.694,-27.4784 629.019,-29.8526 628.246,-22.8954"/>
</g>
<!-- Node5 -->
<g id="node5" class="node"><title>Node5</title>
<g id="a_node5"><a xlink:href="../../d9/df7/classcontroller_1_1_controller.html#ae859ed2fba4e22871428ec51f7d4c07d" target="_top" xlink:title="controller.Controller.play\lSimulation">
<polygon fill="white" stroke="black" points="846,-88 846,-118 978,-118 978,-88 846,-88"/>
<text text-anchor="start" x="854" y="-106" font-family="Helvetica,sans-Serif" font-size="10.00">controller.Controller.play</text>
<text text-anchor="middle" x="912" y="-95" font-family="Helvetica,sans-Serif" font-size="10.00">Simulation</text>
</a>
</g>
</g>
<!-- Node4&#45;&gt;Node5 -->
<g id="edge4" class="edge"><title>Node4&#45;&gt;Node5</title>
<path fill="none" stroke="midnightblue" d="M803.737,-76.4855C819.117,-80.2873 835.257,-84.277 850.212,-87.9738"/>
<polygon fill="midnightblue" stroke="midnightblue" points="804.307,-73.0213 793.76,-74.0192 802.628,-79.8167 804.307,-73.0213"/>
</g>
<!-- Node11 -->
<g id="node11" class="node"><title>Node11</title>
<g id="a_node11"><a xlink:href="../../d1/dbf/classview_package_1_1_view.html#acec783d5c91d6cb27da271e46588e79f" target="_top" xlink:title="viewPackage.View.setStep\lSimulation">
<polygon fill="white" stroke="black" points="1208.5,-44 1208.5,-74 1349.5,-74 1349.5,-44 1208.5,-44"/>
<text text-anchor="start" x="1216.5" y="-62" font-family="Helvetica,sans-Serif" font-size="10.00">viewPackage.View.setStep</text>
<text text-anchor="middle" x="1279" y="-51" font-family="Helvetica,sans-Serif" font-size="10.00">Simulation</text>
</a>
</g>
</g>
<!-- Node4&#45;&gt;Node11 -->
<g id="edge11" class="edge"><title>Node4&#45;&gt;Node11</title>
<path fill="none" stroke="midnightblue" d="M809.319,-59C915.372,-59 1105.79,-59 1208.24,-59"/>
<polygon fill="midnightblue" stroke="midnightblue" points="809.011,-55.5001 799.011,-59 809.011,-62.5001 809.011,-55.5001"/>
</g>
<!-- Node6 -->
<g id="node6" class="node"><title>Node6</title>
<g id="a_node6"><a xlink:href="../../d9/df7/classcontroller_1_1_controller.html#a37d9d1d84d304a9d94d7666322b7c6ab" target="_top" xlink:title="controller.Controller.change\lSpeed">
<polygon fill="white" stroke="black" points="1021,-129 1021,-159 1169,-159 1169,-129 1021,-129"/>
<text text-anchor="start" x="1029" y="-147" font-family="Helvetica,sans-Serif" font-size="10.00">controller.Controller.change</text>
<text text-anchor="middle" x="1095" y="-136" font-family="Helvetica,sans-Serif" font-size="10.00">Speed</text>
</a>
</g>
</g>
<!-- Node5&#45;&gt;Node6 -->
<g id="edge5" class="edge"><title>Node5&#45;&gt;Node6</title>
<path fill="none" stroke="midnightblue" d="M988.035,-119.997C1001.18,-122.974 1014.77,-126.054 1027.66,-128.973"/>
<polygon fill="midnightblue" stroke="midnightblue" points="988.616,-116.54 978.089,-117.744 987.069,-123.367 988.616,-116.54"/>
</g>
<!-- Node7 -->
<g id="node7" class="node"><title>Node7</title>
<g id="a_node7"><a xlink:href="../../d1/dbf/classview_package_1_1_view.html#a1d1a8e16ae622c0d6a66cd9c516672a6" target="_top" xlink:title="viewPackage.View.setPlay\lAction">
<polygon fill="white" stroke="black" points="1210,-93 1210,-123 1348,-123 1348,-93 1210,-93"/>
<text text-anchor="start" x="1218" y="-111" font-family="Helvetica,sans-Serif" font-size="10.00">viewPackage.View.setPlay</text>
<text text-anchor="middle" x="1279" y="-100" font-family="Helvetica,sans-Serif" font-size="10.00">Action</text>
</a>
</g>
</g>
<!-- Node5&#45;&gt;Node7 -->
<g id="edge10" class="edge"><title>Node5&#45;&gt;Node7</title>
<path fill="none" stroke="midnightblue" d="M988.464,-104.034C1053.64,-104.927 1146.98,-106.205 1209.91,-107.067"/>
<polygon fill="midnightblue" stroke="midnightblue" points="988.302,-100.531 978.255,-103.894 988.206,-107.531 988.302,-100.531"/>
</g>
<!-- Node6&#45;&gt;Node7 -->
<g id="edge6" class="edge"><title>Node6&#45;&gt;Node7</title>
<path fill="none" stroke="midnightblue" d="M1179.08,-127.567C1189.4,-125.525 1199.86,-123.457 1209.92,-121.467"/>
<polygon fill="midnightblue" stroke="midnightblue" points="1178.37,-124.139 1169.24,-129.513 1179.73,-131.006 1178.37,-124.139"/>
</g>
<!-- Node8 -->
<g id="node8" class="node"><title>Node8</title>
<g id="a_node8"><a xlink:href="../../dc/d2c/classview_package_1_1_button_box.html#a9756fc46a96c169ce48a1867bd2c82f5" target="_top" xlink:title="viewPackage.ButtonBox.make\lButtonBox">
<polygon fill="white" stroke="black" points="1386,-44 1386,-74 1546,-74 1546,-44 1386,-44"/>
<text text-anchor="start" x="1394" y="-62" font-family="Helvetica,sans-Serif" font-size="10.00">viewPackage.ButtonBox.make</text>
<text text-anchor="middle" x="1466" y="-51" font-family="Helvetica,sans-Serif" font-size="10.00">ButtonBox</text>
</a>
</g>
</g>
<!-- Node7&#45;&gt;Node8 -->
<g id="edge7" class="edge"><title>Node7&#45;&gt;Node8</title>
<path fill="none" stroke="midnightblue" d="M1346.54,-90.3771C1366.78,-85.0163 1388.82,-79.1775 1408.34,-74.0062"/>
<polygon fill="midnightblue" stroke="midnightblue" points="1345.53,-87.0216 1336.76,-92.9654 1347.33,-93.7883 1345.53,-87.0216"/>
</g>
<!-- Node9 -->
<g id="node9" class="node"><title>Node9</title>
<g id="a_node9"><a xlink:href="../../d1/dbf/classview_package_1_1_view.html#af6f6887ef253ae0fba2634e367b95312" target="_top" xlink:title="viewPackage.View.initialize">
<polygon fill="white" stroke="black" points="1582,-49.5 1582,-68.5 1724,-68.5 1724,-49.5 1582,-49.5"/>
<text text-anchor="middle" x="1653" y="-56.5" font-family="Helvetica,sans-Serif" font-size="10.00">viewPackage.View.initialize</text>
</a>
</g>
</g>
<!-- Node8&#45;&gt;Node9 -->
<g id="edge8" class="edge"><title>Node8&#45;&gt;Node9</title>
<path fill="none" stroke="midnightblue" d="M1556.33,-59C1564.93,-59 1573.57,-59 1581.95,-59"/>
<polygon fill="midnightblue" stroke="midnightblue" points="1556.26,-55.5001 1546.26,-59 1556.26,-62.5001 1556.26,-55.5001"/>
</g>
<!-- Node10 -->
<g id="node10" class="node"><title>Node10</title>
<g id="a_node10"><a xlink:href="../../d9/df7/classcontroller_1_1_controller.html#a4dbfef3e3e30bd1bb84df7a6b24ad1e7" target="_top" xlink:title="controller.Controller.Controller">
<polygon fill="white" stroke="black" points="1760.5,-49.5 1760.5,-68.5 1919.5,-68.5 1919.5,-49.5 1760.5,-49.5"/>
<text text-anchor="middle" x="1840" y="-56.5" font-family="Helvetica,sans-Serif" font-size="10.00">controller.Controller.Controller</text>
</a>
</g>
</g>
<!-- Node9&#45;&gt;Node10 -->
<g id="edge9" class="edge"><title>Node9&#45;&gt;Node10</title>
<path fill="none" stroke="midnightblue" d="M1734.31,-59C1743,-59 1751.83,-59 1760.49,-59"/>
<polygon fill="midnightblue" stroke="midnightblue" points="1734.2,-55.5001 1724.2,-59 1734.2,-62.5001 1734.2,-55.5001"/>
</g>
<!-- Node11&#45;&gt;Node8 -->
<g id="edge12" class="edge"><title>Node11&#45;&gt;Node8</title>
<path fill="none" stroke="midnightblue" d="M1359.72,-59C1368.35,-59 1377.14,-59 1385.76,-59"/>
<polygon fill="midnightblue" stroke="midnightblue" points="1359.68,-55.5001 1349.68,-59 1359.68,-62.5001 1359.68,-55.5001"/>
</g>
<!-- Node13 -->
<g id="node13" class="node"><title>Node13</title>
<g id="a_node13"><a xlink:href="../../d1/dbf/classview_package_1_1_view.html#a718e5f42ae85512916198548e28477c7" target="_top" xlink:title="viewPackage.View.tryLoad">
<polygon fill="white" stroke="black" points="842,-5.5 842,-24.5 982,-24.5 982,-5.5 842,-5.5"/>
<text text-anchor="middle" x="912" y="-12.5" font-family="Helvetica,sans-Serif" font-size="10.00">viewPackage.View.tryLoad</text>
</a>
</g>
</g>
<!-- Node12&#45;&gt;Node13 -->
<g id="edge14" class="edge"><title>Node12&#45;&gt;Node13</title>
<path fill="none" stroke="midnightblue" d="M816.193,-15C824.776,-15 833.431,-15 841.838,-15"/>
<polygon fill="midnightblue" stroke="midnightblue" points="816.17,-11.5001 806.17,-15 816.17,-18.5001 816.17,-11.5001"/>
</g>
<!-- Node14 -->
<g id="node14" class="node"><title>Node14</title>
<g id="a_node14"><a xlink:href="../../dc/d2c/classview_package_1_1_button_box.html#aef53bd97c4407ecd3fb5dfbf42850a46" target="_top" xlink:title="viewPackage.ButtonBox.load\lFileBox">
<polygon fill="white" stroke="black" points="1018.5,-0 1018.5,-30 1171.5,-30 1171.5,-0 1018.5,-0"/>
<text text-anchor="start" x="1026.5" y="-18" font-family="Helvetica,sans-Serif" font-size="10.00">viewPackage.ButtonBox.load</text>
<text text-anchor="middle" x="1095" y="-7" font-family="Helvetica,sans-Serif" font-size="10.00">FileBox</text>
</a>
</g>
</g>
<!-- Node13&#45;&gt;Node14 -->
<g id="edge15" class="edge"><title>Node13&#45;&gt;Node14</title>
<path fill="none" stroke="midnightblue" d="M992.241,-15C1000.86,-15 1009.62,-15 1018.2,-15"/>
<polygon fill="midnightblue" stroke="midnightblue" points="992.203,-11.5001 982.203,-15 992.203,-18.5001 992.203,-11.5001"/>
</g>
<!-- Node14&#45;&gt;Node8 -->
<g id="edge16" class="edge"><title>Node14&#45;&gt;Node8</title>
<path fill="none" stroke="midnightblue" d="M1181.61,-18.4268C1231.01,-21.1467 1294.22,-25.891 1350,-34 1367.49,-36.5425 1386.29,-40.2211 1403.52,-43.9777"/>
<polygon fill="midnightblue" stroke="midnightblue" points="1181.77,-14.9307 1171.6,-17.893 1181.4,-21.9207 1181.77,-14.9307"/>
</g>
</g>
</svg>
