<?xml version="1.0" encoding="UTF-8" standalone="no"?>
<!DOCTYPE svg PUBLIC "-//W3C//DTD SVG 1.1//EN"
 "http://www.w3.org/Graphics/SVG/1.1/DTD/svg11.dtd">
<!-- Generated by graphviz version 2.36.0 (20140111.2315)
 -->
<!-- Title: viewPackage.View.setStepSimulation Pages: 1 -->
<!--zoomable 520 -->
<svg id="main" version="1.1" xmlns="http://www.w3.org/2000/svg" xmlns:xlink="http://www.w3.org/1999/xlink" xml:space="preserve" onload="init(evt)">
<style type="text/css"><![CDATA[
.edge:hover path { stroke: red; }
.edge:hover polygon { stroke: red; fill: red; }
]]></style>
<script type="text/javascript"><![CDATA[
var edges = document.getElementsByTagName('g');
if (edges && edges.length) {
  for (var i=0;i<edges.length;i++) {
    if (edges[i].id.substr(0,4)=='edge') {
      edges[i].setAttribute('class','edge');
    }
  }
}
]]></script>
        <defs>
                <circle id="rim" cx="0" cy="0" r="7"/>
                <circle id="rim2" cx="0" cy="0" r="3.5"/>
                <g id="zoomPlus">
                        <use xlink:href="#rim" fill="#404040">
                                <set attributeName="fill" to="#808080" begin="zoomplus.mouseover" end="zoomplus.mouseout"/>
                        </use>
                        <path d="M-4,0h8M0,-4v8" fill="none" stroke="white" stroke-width="1.5" pointer-events="none"/>
                </g>
                <g id="zoomMin">
                        <use xlink:href="#rim" fill="#404040">
                                <set attributeName="fill" to="#808080" begin="zoomminus.mouseover" end="zoomminus.mouseout"/>
                        </use>
                        <path d="M-4,0h8" fill="none" stroke="white" stroke-width="1.5" pointer-events="none"/>
                </g>
                <g id="dirArrow">
                        <path fill="none" stroke="white" stroke-width="1.5" d="M0,-3.0v7 M-2.5,-0.5L0,-3.0L2.5,-0.5"/>
                </g>
               <g id="resetDef">
                       <use xlink:href="#rim2" fill="#404040">
                               <set attributeName="fill" to="#808080" begin="reset.mouseover" end="reset.mouseout"/>
                       </use>
               </g>
        </defs>

<script type="text/javascript">
var viewWidth = 984;
var viewHeight = 520;
var sectionId = 'dynsection-22';
</script>
<script xlink:href="../../svgpan.js"/>
<svg id="graph" class="graph">
<g id="viewport">
<title>viewPackage.View.setStepSimulation</title>
<polygon fill="white" stroke="none" points="-4,4 -4,-516 980,-516 980,4 -4,4"/>
<!-- Node1 -->
<g id="node1" class="node"><title>Node1</title>
<polygon fill="#bfbfbf" stroke="black" points="0.5,-272 0.5,-302 141.5,-302 141.5,-272 0.5,-272"/>
<text text-anchor="start" x="8.5" y="-290" font-family="Helvetica,sans-Serif" font-size="10.00">viewPackage.View.setStep</text>
<text text-anchor="middle" x="71" y="-279" font-family="Helvetica,sans-Serif" font-size="10.00">Simulation</text>
</g>
<!-- Node2 -->
<g id="node2" class="node"><title>Node2</title>
<g id="a_node2"><a xlink:href="../../d9/df7/classcontroller_1_1_controller.html#aa8fee9e96592dabbb151850b562d9ec0" target="_top" xlink:title="controller.Controller.step\lSimulation">
<polygon fill="white" stroke="black" points="178,-272 178,-302 312,-302 312,-272 178,-272"/>
<text text-anchor="start" x="186" y="-290" font-family="Helvetica,sans-Serif" font-size="10.00">controller.Controller.step</text>
<text text-anchor="middle" x="245" y="-279" font-family="Helvetica,sans-Serif" font-size="10.00">Simulation</text>
</a>
</g>
</g>
<!-- Node1&#45;&gt;Node2 -->
<g id="edge1" class="edge"><title>Node1&#45;&gt;Node2</title>
<path fill="none" stroke="midnightblue" d="M141.959,-287C150.516,-287 159.292,-287 167.932,-287"/>
<polygon fill="midnightblue" stroke="midnightblue" points="167.992,-290.5 177.992,-287 167.992,-283.5 167.992,-290.5"/>
</g>
<!-- Node3 -->
<g id="node3" class="node"><title>Node3</title>
<g id="a_node3"><a xlink:href="../../d9/df7/classcontroller_1_1_controller.html#af87c08769a85e54ca1d5c688b82b11f6" target="_top" xlink:title="controller.Controller.bundle\lViewPackager">
<polygon fill="white" stroke="black" points="365.5,-384 365.5,-414 510.5,-414 510.5,-384 365.5,-384"/>
<text text-anchor="start" x="373.5" y="-402" font-family="Helvetica,sans-Serif" font-size="10.00">controller.Controller.bundle</text>
<text text-anchor="middle" x="438" y="-391" font-family="Helvetica,sans-Serif" font-size="10.00">ViewPackager</text>
</a>
</g>
</g>
<!-- Node2&#45;&gt;Node3 -->
<g id="edge2" class="edge"><title>Node2&#45;&gt;Node3</title>
<path fill="none" stroke="midnightblue" d="M271.759,-302.105C305.459,-321.866 364.633,-356.565 402.269,-378.634"/>
<polygon fill="midnightblue" stroke="midnightblue" points="400.948,-381.917 411.345,-383.956 404.489,-375.878 400.948,-381.917"/>
</g>
<!-- Node12 -->
<g id="node12" class="node"><title>Node12</title>
<g id="a_node12"><a xlink:href="../../d2/d17/classmodel_1_1_simulation.html#a4fc716803ab2e78743a529a24a8c601f" target="_top" xlink:title="model.Simulation.makeNextGrid">
<polygon fill="white" stroke="black" points="575.5,-296.5 575.5,-315.5 748.5,-315.5 748.5,-296.5 575.5,-296.5"/>
<text text-anchor="middle" x="662" y="-303.5" font-family="Helvetica,sans-Serif" font-size="10.00">model.Simulation.makeNextGrid</text>
</a>
</g>
</g>
<!-- Node2&#45;&gt;Node12 -->
<g id="edge15" class="edge"><title>Node2&#45;&gt;Node12</title>
<path fill="none" stroke="midnightblue" d="M312.217,-290.032C380.437,-293.155 487.46,-298.055 564.97,-301.603"/>
<polygon fill="midnightblue" stroke="midnightblue" points="565.076,-305.112 575.226,-302.073 565.396,-298.119 565.076,-305.112"/>
</g>
<!-- Node16 -->
<g id="node16" class="node"><title>Node16</title>
<g id="a_node16"><a xlink:href="../../d2/d17/classmodel_1_1_simulation.html#abed35864045d807fe4a577bbe02b996e" target="_top" xlink:title="model.Simulation.updateGrid">
<polygon fill="white" stroke="black" points="359.5,-258.5 359.5,-277.5 516.5,-277.5 516.5,-258.5 359.5,-258.5"/>
<text text-anchor="middle" x="438" y="-265.5" font-family="Helvetica,sans-Serif" font-size="10.00">model.Simulation.updateGrid</text>
</a>
</g>
</g>
<!-- Node2&#45;&gt;Node16 -->
<g id="edge22" class="edge"><title>Node2&#45;&gt;Node16</title>
<path fill="none" stroke="midnightblue" d="M312.266,-280.408C324.254,-279.216 336.921,-277.955 349.408,-276.713"/>
<polygon fill="midnightblue" stroke="midnightblue" points="349.761,-280.196 359.366,-275.723 349.068,-273.23 349.761,-280.196"/>
</g>
<!-- Node17 -->
<g id="node17" class="node"><title>Node17</title>
<g id="a_node17"><a xlink:href="../../d1/dbf/classview_package_1_1_view.html#a7793d78c89cc38648fc57d4ee46a0837" target="_top" xlink:title="viewPackage.View.updateGridView">
<polygon fill="white" stroke="black" points="348.5,-132.5 348.5,-151.5 527.5,-151.5 527.5,-132.5 348.5,-132.5"/>
<text text-anchor="middle" x="438" y="-139.5" font-family="Helvetica,sans-Serif" font-size="10.00">viewPackage.View.updateGridView</text>
</a>
</g>
</g>
<!-- Node2&#45;&gt;Node17 -->
<g id="edge23" class="edge"><title>Node2&#45;&gt;Node17</title>
<path fill="none" stroke="midnightblue" d="M266.079,-271.757C302.434,-244.157 378.823,-186.166 415.908,-158.013"/>
<polygon fill="midnightblue" stroke="midnightblue" points="418.179,-160.682 424.028,-151.848 413.947,-155.107 418.179,-160.682"/>
</g>
<!-- Node4 -->
<g id="node4" class="node"><title>Node4</title>
<g id="a_node4"><a xlink:href="../../d9/df7/classcontroller_1_1_controller.html#ae43191a1fc7db5c1cb03da2a8a580541" target="_top" xlink:title="controller.Controller.create\lColorGrid">
<polygon fill="white" stroke="black" points="590.5,-384 590.5,-414 733.5,-414 733.5,-384 590.5,-384"/>
<text text-anchor="start" x="598.5" y="-402" font-family="Helvetica,sans-Serif" font-size="10.00">controller.Controller.create</text>
<text text-anchor="middle" x="662" y="-391" font-family="Helvetica,sans-Serif" font-size="10.00">ColorGrid</text>
</a>
</g>
</g>
<!-- Node3&#45;&gt;Node4 -->
<g id="edge3" class="edge"><title>Node3&#45;&gt;Node4</title>
<path fill="none" stroke="midnightblue" d="M510.77,-399C532.851,-399 557.309,-399 579.967,-399"/>
<polygon fill="midnightblue" stroke="midnightblue" points="580.235,-402.5 590.235,-399 580.235,-395.5 580.235,-402.5"/>
</g>
<!-- Node9 -->
<g id="node9" class="node"><title>Node9</title>
<g id="a_node9"><a xlink:href="../../d2/d2c/classcontroller_1_1_view_packager.html#a637ec76985be3af6c2b14a527e1c1bac" target="_top" xlink:title="controller.ViewPackager.set\lColorGrid">
<polygon fill="white" stroke="black" points="589,-335 589,-365 735,-365 735,-335 589,-335"/>
<text text-anchor="start" x="597" y="-353" font-family="Helvetica,sans-Serif" font-size="10.00">controller.ViewPackager.set</text>
<text text-anchor="middle" x="662" y="-342" font-family="Helvetica,sans-Serif" font-size="10.00">ColorGrid</text>
</a>
</g>
</g>
<!-- Node3&#45;&gt;Node9 -->
<g id="edge8" class="edge"><title>Node3&#45;&gt;Node9</title>
<path fill="none" stroke="midnightblue" d="M507.116,-383.965C531.089,-378.674 558.215,-372.687 582.943,-367.229"/>
<polygon fill="midnightblue" stroke="midnightblue" points="584.002,-370.579 593.013,-365.006 582.493,-363.744 584.002,-370.579"/>
</g>
<!-- Node10 -->
<g id="node10" class="node"><title>Node10</title>
<g id="a_node10"><a xlink:href="../../d2/d2c/classcontroller_1_1_view_packager.html#a8a82603c0efc9d0197a0c027030f4993" target="_top" xlink:title="controller.ViewPackager.set\lStateTotalMap">
<polygon fill="white" stroke="black" points="589,-482 589,-512 735,-512 735,-482 589,-482"/>
<text text-anchor="start" x="597" y="-500" font-family="Helvetica,sans-Serif" font-size="10.00">controller.ViewPackager.set</text>
<text text-anchor="middle" x="662" y="-489" font-family="Helvetica,sans-Serif" font-size="10.00">StateTotalMap</text>
</a>
</g>
</g>
<!-- Node3&#45;&gt;Node10 -->
<g id="edge9" class="edge"><title>Node3&#45;&gt;Node10</title>
<path fill="none" stroke="midnightblue" d="M460.619,-414.133C484.811,-430.455 525.654,-456.219 564,-472 570.105,-474.512 576.532,-476.829 583.052,-478.954"/>
<polygon fill="midnightblue" stroke="midnightblue" points="582.056,-482.309 592.644,-481.928 584.129,-475.623 582.056,-482.309"/>
</g>
<!-- Node11 -->
<g id="node11" class="node"><title>Node11</title>
<g id="a_node11"><a xlink:href="../../d9/df7/classcontroller_1_1_controller.html#aca48bc84d82655ce699963fd859afebd" target="_top" xlink:title="controller.Controller.update\lStateTotals">
<polygon fill="white" stroke="black" points="589,-433 589,-463 735,-463 735,-433 589,-433"/>
<text text-anchor="start" x="597" y="-451" font-family="Helvetica,sans-Serif" font-size="10.00">controller.Controller.update</text>
<text text-anchor="middle" x="662" y="-440" font-family="Helvetica,sans-Serif" font-size="10.00">StateTotals</text>
</a>
</g>
</g>
<!-- Node3&#45;&gt;Node11 -->
<g id="edge10" class="edge"><title>Node3&#45;&gt;Node11</title>
<path fill="none" stroke="midnightblue" d="M507.116,-414.035C531.089,-419.326 558.215,-425.313 582.943,-430.771"/>
<polygon fill="midnightblue" stroke="midnightblue" points="582.493,-434.256 593.013,-432.994 584.002,-427.421 582.493,-434.256"/>
</g>
<!-- Node5 -->
<g id="node5" class="node"><title>Node5</title>
<g id="a_node5"><a xlink:href="../../dc/d8f/classmodel_1_1_grid.html#a7308e05b94f35a2f8198f314eb384267" target="_top" xlink:title="model.Grid.getCell">
<polygon fill="white" stroke="black" points="833.5,-427.5 833.5,-446.5 938.5,-446.5 938.5,-427.5 833.5,-427.5"/>
<text text-anchor="middle" x="886" y="-434.5" font-family="Helvetica,sans-Serif" font-size="10.00">model.Grid.getCell</text>
</a>
</g>
</g>
<!-- Node4&#45;&gt;Node5 -->
<g id="edge4" class="edge"><title>Node4&#45;&gt;Node5</title>
<path fill="none" stroke="midnightblue" d="M733.547,-411.076C762.382,-416.011 795.435,-421.669 823.291,-426.437"/>
<polygon fill="midnightblue" stroke="midnightblue" points="822.854,-429.913 833.302,-428.151 824.035,-423.014 822.854,-429.913"/>
</g>
<!-- Node6 -->
<g id="node6" class="node"><title>Node6</title>
<g id="a_node6"><a xlink:href="../../dc/d8f/classmodel_1_1_grid.html#a01924b6019a14826898f281a3064b3b5" target="_top" xlink:title="model.Grid.getGridColSize">
<polygon fill="white" stroke="black" points="814.5,-389.5 814.5,-408.5 957.5,-408.5 957.5,-389.5 814.5,-389.5"/>
<text text-anchor="middle" x="886" y="-396.5" font-family="Helvetica,sans-Serif" font-size="10.00">model.Grid.getGridColSize</text>
</a>
</g>
</g>
<!-- Node4&#45;&gt;Node6 -->
<g id="edge5" class="edge"><title>Node4&#45;&gt;Node6</title>
<path fill="none" stroke="midnightblue" d="M733.547,-399C755.998,-399 781.007,-399 804.129,-399"/>
<polygon fill="midnightblue" stroke="midnightblue" points="804.255,-402.5 814.255,-399 804.255,-395.5 804.255,-402.5"/>
</g>
<!-- Node7 -->
<g id="node7" class="node"><title>Node7</title>
<g id="a_node7"><a xlink:href="../../dc/d8f/classmodel_1_1_grid.html#a40adce87c26a3a6830125324ae576c34" target="_top" xlink:title="model.Grid.getGridRowSize">
<polygon fill="white" stroke="black" points="813,-351.5 813,-370.5 959,-370.5 959,-351.5 813,-351.5"/>
<text text-anchor="middle" x="886" y="-358.5" font-family="Helvetica,sans-Serif" font-size="10.00">model.Grid.getGridRowSize</text>
</a>
</g>
</g>
<!-- Node4&#45;&gt;Node7 -->
<g id="edge6" class="edge"><title>Node4&#45;&gt;Node7</title>
<path fill="none" stroke="midnightblue" d="M733.547,-386.924C761.017,-382.222 792.315,-376.865 819.302,-372.246"/>
<polygon fill="midnightblue" stroke="midnightblue" points="820.15,-375.651 829.416,-370.514 818.969,-368.752 820.15,-375.651"/>
</g>
<!-- Node8 -->
<g id="node8" class="node"><title>Node8</title>
<g id="a_node8"><a xlink:href="../../d3/d57/classmodel_1_1_cell.html#a527cb796745a34155e9b2a82b2a8812a" target="_top" xlink:title="model.Cell.toString">
<polygon fill="white" stroke="black" points="832,-465.5 832,-484.5 940,-484.5 940,-465.5 832,-465.5"/>
<text text-anchor="middle" x="886" y="-472.5" font-family="Helvetica,sans-Serif" font-size="10.00">model.Cell.toString</text>
</a>
</g>
</g>
<!-- Node4&#45;&gt;Node8 -->
<g id="edge7" class="edge"><title>Node4&#45;&gt;Node8</title>
<path fill="none" stroke="midnightblue" d="M733.647,-412.97C742.773,-415.988 751.788,-419.626 760,-424 778.894,-434.064 776.899,-446.334 796,-456 804.075,-460.086 812.992,-463.295 821.971,-465.815"/>
<polygon fill="midnightblue" stroke="midnightblue" points="821.146,-469.217 831.7,-468.287 822.87,-462.432 821.146,-469.217"/>
</g>
<!-- Node11&#45;&gt;Node5 -->
<g id="edge11" class="edge"><title>Node11&#45;&gt;Node5</title>
<path fill="none" stroke="midnightblue" d="M735.077,-444.429C763.48,-443.021 795.776,-441.421 823.1,-440.067"/>
<polygon fill="midnightblue" stroke="midnightblue" points="823.496,-443.552 833.311,-439.561 823.15,-436.56 823.496,-443.552"/>
</g>
<!-- Node11&#45;&gt;Node6 -->
<g id="edge12" class="edge"><title>Node11&#45;&gt;Node6</title>
<path fill="none" stroke="midnightblue" d="M728.925,-432.972C750.31,-428.139 774.152,-422.796 796,-418 806.87,-415.614 818.496,-413.102 829.639,-410.715"/>
<polygon fill="midnightblue" stroke="midnightblue" points="830.654,-414.078 839.702,-408.565 829.191,-407.232 830.654,-414.078"/>
</g>
<!-- Node11&#45;&gt;Node7 -->
<g id="edge13" class="edge"><title>Node11&#45;&gt;Node7</title>
<path fill="none" stroke="midnightblue" d="M735.051,-434.87C743.81,-431.724 752.353,-427.827 760,-423 781.078,-409.697 774.648,-392.858 796,-380 799.479,-377.905 803.156,-376.039 806.957,-374.377"/>
<polygon fill="midnightblue" stroke="midnightblue" points="808.546,-377.516 816.618,-370.654 806.028,-370.985 808.546,-377.516"/>
</g>
<!-- Node11&#45;&gt;Node8 -->
<g id="edge14" class="edge"><title>Node11&#45;&gt;Node8</title>
<path fill="none" stroke="midnightblue" d="M735.077,-456.766C763.031,-460.166 794.756,-464.024 821.801,-467.314"/>
<polygon fill="midnightblue" stroke="midnightblue" points="821.57,-470.811 831.919,-468.544 822.415,-463.862 821.57,-470.811"/>
</g>
<!-- Node12&#45;&gt;Node5 -->
<g id="edge18" class="edge"><title>Node12&#45;&gt;Node5</title>
<path fill="none" stroke="midnightblue" d="M743.356,-315.645C749.356,-318.386 755.005,-321.788 760,-326 793.566,-354.305 762.533,-389.577 796,-418 803.768,-424.597 813.271,-429.075 823.142,-432.085"/>
<polygon fill="midnightblue" stroke="midnightblue" points="822.53,-435.541 833.085,-434.628 824.264,-428.759 822.53,-435.541"/>
</g>
<!-- Node12&#45;&gt;Node6 -->
<g id="edge19" class="edge"><title>Node12&#45;&gt;Node6</title>
<path fill="none" stroke="midnightblue" d="M738.986,-315.55C746.426,-318.253 753.584,-321.675 760,-326 783.919,-342.121 772.138,-363.795 796,-380 798.898,-381.968 801.962,-383.738 805.14,-385.329"/>
<polygon fill="midnightblue" stroke="midnightblue" points="803.797,-388.561 814.362,-389.355 806.598,-382.146 803.797,-388.561"/>
</g>
<!-- Node12&#45;&gt;Node7 -->
<g id="edge20" class="edge"><title>Node12&#45;&gt;Node7</title>
<path fill="none" stroke="midnightblue" d="M718.354,-315.508C732.093,-318.388 746.691,-321.897 760,-326 776.564,-331.107 779.482,-335.747 796,-341 805.395,-343.988 815.483,-346.705 825.372,-349.107"/>
<polygon fill="midnightblue" stroke="midnightblue" points="824.627,-352.527 835.161,-351.402 826.224,-345.712 824.627,-352.527"/>
</g>
<!-- Node13 -->
<g id="node13" class="node"><title>Node13</title>
<g id="a_node13"><a xlink:href="../../d2/d17/classmodel_1_1_simulation.html#ab1da5698abc45e35e163f783fa393f8d" target="_top" xlink:title="model.Simulation.calculate\lNewCellState">
<polygon fill="white" stroke="black" points="813,-302 813,-332 959,-332 959,-302 813,-302"/>
<text text-anchor="start" x="821" y="-320" font-family="Helvetica,sans-Serif" font-size="10.00">model.Simulation.calculate</text>
<text text-anchor="middle" x="886" y="-309" font-family="Helvetica,sans-Serif" font-size="10.00">NewCellState</text>
</a>
</g>
</g>
<!-- Node12&#45;&gt;Node13 -->
<g id="edge16" class="edge"><title>Node12&#45;&gt;Node13</title>
<path fill="none" stroke="midnightblue" d="M748.513,-310.237C766.28,-311.117 784.967,-312.043 802.618,-312.918"/>
<polygon fill="midnightblue" stroke="midnightblue" points="802.715,-316.427 812.876,-313.426 803.062,-309.436 802.715,-316.427"/>
</g>
<!-- Node14 -->
<g id="node14" class="node"><title>Node14</title>
<g id="a_node14"><a xlink:href="../../dc/d8f/classmodel_1_1_grid.html#a994d6c682166c2599924fba6a64db842" target="_top" xlink:title="model.Grid.copyGrid">
<polygon fill="white" stroke="black" points="829,-263.5 829,-282.5 943,-282.5 943,-263.5 829,-263.5"/>
<text text-anchor="middle" x="886" y="-270.5" font-family="Helvetica,sans-Serif" font-size="10.00">model.Grid.copyGrid</text>
</a>
</g>
</g>
<!-- Node12&#45;&gt;Node14 -->
<g id="edge17" class="edge"><title>Node12&#45;&gt;Node14</title>
<path fill="none" stroke="midnightblue" d="M726.914,-296.499C755.674,-292.224 789.611,-287.179 818.654,-282.862"/>
<polygon fill="midnightblue" stroke="midnightblue" points="819.329,-286.3 828.706,-281.368 818.3,-279.376 819.329,-286.3"/>
</g>
<!-- Node15 -->
<g id="node15" class="node"><title>Node15</title>
<g id="a_node15"><a xlink:href="../../d3/d57/classmodel_1_1_cell.html#afba3057d5fff58793cb8118915f47e2a" target="_top" xlink:title="model.Cell.setState">
<polygon fill="white" stroke="black" points="830.5,-225.5 830.5,-244.5 941.5,-244.5 941.5,-225.5 830.5,-225.5"/>
<text text-anchor="middle" x="886" y="-232.5" font-family="Helvetica,sans-Serif" font-size="10.00">model.Cell.setState</text>
</a>
</g>
</g>
<!-- Node12&#45;&gt;Node15 -->
<g id="edge21" class="edge"><title>Node12&#45;&gt;Node15</title>
<path fill="none" stroke="midnightblue" d="M684.277,-296.439C710.227,-285.069 755.631,-266.113 796,-254 804.779,-251.366 814.151,-248.949 823.394,-246.788"/>
<polygon fill="midnightblue" stroke="midnightblue" points="824.356,-250.159 833.341,-244.544 822.815,-243.331 824.356,-250.159"/>
</g>
<!-- Node18 -->
<g id="node18" class="node"><title>Node18</title>
<g id="a_node18"><a xlink:href="../../df/dcf/classview_package_1_1_display_grid.html#a1a0aa454acaa29992ff9c716d38ec396" target="_top" xlink:title="viewPackage.DisplayGrid.updateGrid">
<polygon fill="white" stroke="black" points="567,-44.5 567,-63.5 757,-63.5 757,-44.5 567,-44.5"/>
<text text-anchor="middle" x="662" y="-51.5" font-family="Helvetica,sans-Serif" font-size="10.00">viewPackage.DisplayGrid.updateGrid</text>
</a>
</g>
</g>
<!-- Node17&#45;&gt;Node18 -->
<g id="edge24" class="edge"><title>Node17&#45;&gt;Node18</title>
<path fill="none" stroke="midnightblue" d="M463.18,-132.415C502.965,-116.645 582.31,-85.1924 627.486,-67.2849"/>
<polygon fill="midnightblue" stroke="midnightblue" points="628.843,-70.512 636.849,-63.5732 626.263,-64.0046 628.843,-70.512"/>
</g>
<!-- Node21 -->
<g id="node21" class="node"><title>Node21</title>
<g id="a_node21"><a xlink:href="../../d1/d10/classview_package_1_1_population_graph.html#a821b7af856b69286ee399d9db8c65a71" target="_top" xlink:title="viewPackage.PopulationGraph.update\lGraph">
<polygon fill="white" stroke="black" points="564,-127 564,-157 760,-157 760,-127 564,-127"/>
<text text-anchor="start" x="572" y="-145" font-family="Helvetica,sans-Serif" font-size="10.00">viewPackage.PopulationGraph.update</text>
<text text-anchor="middle" x="662" y="-134" font-family="Helvetica,sans-Serif" font-size="10.00">Graph</text>
</a>
</g>
</g>
<!-- Node17&#45;&gt;Node21 -->
<g id="edge27" class="edge"><title>Node17&#45;&gt;Node21</title>
<path fill="none" stroke="midnightblue" d="M527.697,-142C536.204,-142 544.894,-142 553.554,-142"/>
<polygon fill="midnightblue" stroke="midnightblue" points="553.694,-145.5 563.694,-142 553.694,-138.5 553.694,-145.5"/>
</g>
<!-- Node19 -->
<g id="node19" class="node"><title>Node19</title>
<g id="a_node19"><a xlink:href="../../d2/d2c/classcontroller_1_1_view_packager.html#a1e8974daf2095f568a390c63173683c7" target="_top" xlink:title="controller.ViewPackager.get\lColorGrid">
<polygon fill="white" stroke="black" points="812.5,-39 812.5,-69 959.5,-69 959.5,-39 812.5,-39"/>
<text text-anchor="start" x="820.5" y="-57" font-family="Helvetica,sans-Serif" font-size="10.00">controller.ViewPackager.get</text>
<text text-anchor="middle" x="886" y="-46" font-family="Helvetica,sans-Serif" font-size="10.00">ColorGrid</text>
</a>
</g>
</g>
<!-- Node18&#45;&gt;Node19 -->
<g id="edge25" class="edge"><title>Node18&#45;&gt;Node19</title>
<path fill="none" stroke="midnightblue" d="M757.148,-54C772.127,-54 787.525,-54 802.216,-54"/>
<polygon fill="midnightblue" stroke="midnightblue" points="802.261,-57.5001 812.261,-54 802.261,-50.5001 802.261,-57.5001"/>
</g>
<!-- Node20 -->
<g id="node20" class="node"><title>Node20</title>
<g id="a_node20"><a xlink:href="../../df/dcf/classview_package_1_1_display_grid.html#abcfcacf1767533f216fca38abf791804" target="_top" xlink:title="viewPackage.DisplayGrid.setFill">
<polygon fill="white" stroke="black" points="804.5,-0.5 804.5,-19.5 967.5,-19.5 967.5,-0.5 804.5,-0.5"/>
<text text-anchor="middle" x="886" y="-7.5" font-family="Helvetica,sans-Serif" font-size="10.00">viewPackage.DisplayGrid.setFill</text>
</a>
</g>
</g>
<!-- Node18&#45;&gt;Node20 -->
<g id="edge26" class="edge"><title>Node18&#45;&gt;Node20</title>
<path fill="none" stroke="midnightblue" d="M711.171,-44.4527C745.207,-37.7066 790.996,-28.6313 827.035,-21.4886"/>
<polygon fill="midnightblue" stroke="midnightblue" points="827.795,-24.9062 836.923,-19.5287 826.434,-18.0397 827.795,-24.9062"/>
</g>
<!-- Node22 -->
<g id="node22" class="node"><title>Node22</title>
<g id="a_node22"><a xlink:href="../../d1/d10/classview_package_1_1_population_graph.html#a3cb5ab88b681f1415029a3ef5b675588" target="_top" xlink:title="viewPackage.PopulationGraph.add\lToList">
<polygon fill="white" stroke="black" points="796,-127 796,-157 976,-157 976,-127 796,-127"/>
<text text-anchor="start" x="804" y="-145" font-family="Helvetica,sans-Serif" font-size="10.00">viewPackage.PopulationGraph.add</text>
<text text-anchor="middle" x="886" y="-134" font-family="Helvetica,sans-Serif" font-size="10.00">ToList</text>
</a>
</g>
</g>
<!-- Node21&#45;&gt;Node22 -->
<g id="edge28" class="edge"><title>Node21&#45;&gt;Node22</title>
<path fill="none" stroke="midnightblue" d="M760.049,-142C768.603,-142 777.269,-142 785.84,-142"/>
<polygon fill="midnightblue" stroke="midnightblue" points="785.845,-145.5 795.845,-142 785.845,-138.5 785.845,-145.5"/>
</g>
<!-- Node23 -->
<g id="node23" class="node"><title>Node23</title>
<g id="a_node23"><a xlink:href="../../d1/dbf/classview_package_1_1_view.html#aea085ebbf6e586d637710ff0d8ba71bf" target="_top" xlink:title="viewPackage.View.getGeneration">
<polygon fill="white" stroke="black" points="799.5,-88.5 799.5,-107.5 972.5,-107.5 972.5,-88.5 799.5,-88.5"/>
<text text-anchor="middle" x="886" y="-95.5" font-family="Helvetica,sans-Serif" font-size="10.00">viewPackage.View.getGeneration</text>
</a>
</g>
</g>
<!-- Node21&#45;&gt;Node23 -->
<g id="edge29" class="edge"><title>Node21&#45;&gt;Node23</title>
<path fill="none" stroke="midnightblue" d="M738.779,-126.981C767.626,-121.263 800.014,-114.844 826.962,-109.503"/>
<polygon fill="midnightblue" stroke="midnightblue" points="827.877,-112.89 837.006,-107.512 826.516,-106.023 827.877,-112.89"/>
</g>
<!-- Node24 -->
<g id="node24" class="node"><title>Node24</title>
<g id="a_node24"><a xlink:href="../../d2/d2c/classcontroller_1_1_view_packager.html#a111fe52ef72753012062470020a0e152" target="_top" xlink:title="controller.ViewPackager.get\lStateTotals">
<polygon fill="white" stroke="black" points="812.5,-176 812.5,-206 959.5,-206 959.5,-176 812.5,-176"/>
<text text-anchor="start" x="820.5" y="-194" font-family="Helvetica,sans-Serif" font-size="10.00">controller.ViewPackager.get</text>
<text text-anchor="middle" x="886" y="-183" font-family="Helvetica,sans-Serif" font-size="10.00">StateTotals</text>
</a>
</g>
</g>
<!-- Node21&#45;&gt;Node24 -->
<g id="edge30" class="edge"><title>Node21&#45;&gt;Node24</title>
<path fill="none" stroke="midnightblue" d="M731.116,-157.035C755.089,-162.326 782.215,-168.313 806.943,-173.771"/>
<polygon fill="midnightblue" stroke="midnightblue" points="806.493,-177.256 817.013,-175.994 808.002,-170.421 806.493,-177.256"/>
</g>
</g>
</svg>
        <g id="navigator" transform="translate(0 0)" fill="#404254">
                <rect fill="#f2f5e9" fill-opacity="0.5" stroke="#606060" stroke-width=".5" x="0" y="0" width="60" height="60"/>
                <use id="zoomplus" xlink:href="#zoomPlus" x="17" y="9" onmousedown="handleZoom(evt,'in')"/>
                <use id="zoomminus" xlink:href="#zoomMin" x="42" y="9" onmousedown="handleZoom(evt,'out')"/>
                <use id="reset" xlink:href="#resetDef" x="30" y="36" onmousedown="handleReset()"/>
                <g id="arrowUp" xlink:href="#dirArrow" transform="translate(30 24)" onmousedown="handlePan(0,-1)">
                  <use xlink:href="#rim" fill="#404040">
                        <set attributeName="fill" to="#808080" begin="arrowUp.mouseover" end="arrowUp.mouseout"/>
                  </use>
                  <path fill="none" stroke="white" stroke-width="1.5" d="M0,-3.0v7 M-2.5,-0.5L0,-3.0L2.5,-0.5"/>
                </g>
                <g id="arrowRight" xlink:href="#dirArrow" transform="rotate(90) translate(36 -43)" onmousedown="handlePan(1,0)">
                  <use xlink:href="#rim" fill="#404040">
                        <set attributeName="fill" to="#808080" begin="arrowRight.mouseover" end="arrowRight.mouseout"/>
                  </use>
                  <path fill="none" stroke="white" stroke-width="1.5" d="M0,-3.0v7 M-2.5,-0.5L0,-3.0L2.5,-0.5"/>
                </g>
                <g id="arrowDown" xlink:href="#dirArrow" transform="rotate(180) translate(-30 -48)" onmousedown="handlePan(0,1)">
                  <use xlink:href="#rim" fill="#404040">
                        <set attributeName="fill" to="#808080" begin="arrowDown.mouseover" end="arrowDown.mouseout"/>
                  </use>
                  <path fill="none" stroke="white" stroke-width="1.5" d="M0,-3.0v7 M-2.5,-0.5L0,-3.0L2.5,-0.5"/>
                </g>
                <g id="arrowLeft" xlink:href="#dirArrow" transform="rotate(270) translate(-36 17)" onmousedown="handlePan(-1,0)">
                  <use xlink:href="#rim" fill="#404040">
                        <set attributeName="fill" to="#808080" begin="arrowLeft.mouseover" end="arrowLeft.mouseout"/>
                  </use>
                  <path fill="none" stroke="white" stroke-width="1.5" d="M0,-3.0v7 M-2.5,-0.5L0,-3.0L2.5,-0.5"/>
                </g>
        </g>
        <svg viewBox="0 0 15 15" width="100%" height="30px" preserveAspectRatio="xMaxYMin meet">
         <g id="arrow_out" transform="scale(0.3 0.3)">
          <a xlink:href="classview_package_1_1_view_acec783d5c91d6cb27da271e46588e79f_cgraph_org.svg" target="_base">
           <rect id="button" ry="5" rx="5" y="6" x="6" height="38" width="38"
                fill="#f2f5e9" fill-opacity="0.5" stroke="#606060" stroke-width="1.0"/>
           <path id="arrow"
             d="M 11.500037,31.436501 C 11.940474,20.09759 22.043105,11.32322 32.158766,21.979434 L 37.068811,17.246167 C 37.068811,17.246167 37.088388,32 37.088388,32 L 22.160133,31.978069 C 22.160133,31.978069 26.997745,27.140456 26.997745,27.140456 C 18.528582,18.264221 13.291696,25.230495 11.500037,31.436501 z"
             style="fill:#404040;"/>
          </a>
         </g>
        </svg>
</svg>
