<?xml version="1.0" encoding="UTF-8" standalone="no"?>
<!DOCTYPE svg PUBLIC "-//W3C//DTD SVG 1.1//EN"
 "http://www.w3.org/Graphics/SVG/1.1/DTD/svg11.dtd">
<!-- Generated by graphviz version 2.36.0 (20140111.2315)
 -->
<!-- Title: viewPackage.View.updateGridView Pages: 1 -->
<!--zoomable 214 -->
<svg id="main" version="1.1" xmlns="http://www.w3.org/2000/svg" xmlns:xlink="http://www.w3.org/1999/xlink" xml:space="preserve" onload="init(evt)">
<style type="text/css"><![CDATA[
.edge:hover path { stroke: red; }
.edge:hover polygon { stroke: red; fill: red; }
]]></style>
<script type="text/javascript"><![CDATA[
var edges = document.getElementsByTagName('g');
if (edges && edges.length) {
  for (var i=0;i<edges.length;i++) {
    if (edges[i].id.substr(0,4)=='edge') {
      edges[i].setAttribute('class','edge');
    }
  }
}
]]></script>
        <defs>
                <circle id="rim" cx="0" cy="0" r="7"/>
                <circle id="rim2" cx="0" cy="0" r="3.5"/>
                <g id="zoomPlus">
                        <use xlink:href="#rim" fill="#404040">
                                <set attributeName="fill" to="#808080" begin="zoomplus.mouseover" end="zoomplus.mouseout"/>
                        </use>
                        <path d="M-4,0h8M0,-4v8" fill="none" stroke="white" stroke-width="1.5" pointer-events="none"/>
                </g>
                <g id="zoomMin">
                        <use xlink:href="#rim" fill="#404040">
                                <set attributeName="fill" to="#808080" begin="zoomminus.mouseover" end="zoomminus.mouseout"/>
                        </use>
                        <path d="M-4,0h8" fill="none" stroke="white" stroke-width="1.5" pointer-events="none"/>
                </g>
                <g id="dirArrow">
                        <path fill="none" stroke="white" stroke-width="1.5" d="M0,-3.0v7 M-2.5,-0.5L0,-3.0L2.5,-0.5"/>
                </g>
               <g id="resetDef">
                       <use xlink:href="#rim2" fill="#404040">
                               <set attributeName="fill" to="#808080" begin="reset.mouseover" end="reset.mouseout"/>
                       </use>
               </g>
        </defs>

<script type="text/javascript">
var viewWidth = 636;
var viewHeight = 214;
var sectionId = 'dynsection-26';
</script>
<script xlink:href="../../svgpan.js"/>
<svg id="graph" class="graph">
<g id="viewport">
<title>viewPackage.View.updateGridView</title>
<polygon fill="white" stroke="none" points="-4,4 -4,-210 632,-210 632,4 -4,4"/>
<!-- Node1 -->
<g id="node1" class="node"><title>Node1</title>
<polygon fill="#bfbfbf" stroke="black" points="0.5,-79.5 0.5,-98.5 179.5,-98.5 179.5,-79.5 0.5,-79.5"/>
<text text-anchor="middle" x="90" y="-86.5" font-family="Helvetica,sans-Serif" font-size="10.00">viewPackage.View.updateGridView</text>
</g>
<!-- Node2 -->
<g id="node2" class="node"><title>Node2</title>
<g id="a_node2"><a xlink:href="../../d1/d10/classview_package_1_1_population_graph.html#a821b7af856b69286ee399d9db8c65a71" target="_top" xlink:title="viewPackage.PopulationGraph.update\lGraph">
<polygon fill="white" stroke="black" points="216,-110 216,-140 412,-140 412,-110 216,-110"/>
<text text-anchor="start" x="224" y="-128" font-family="Helvetica,sans-Serif" font-size="10.00">viewPackage.PopulationGraph.update</text>
<text text-anchor="middle" x="314" y="-117" font-family="Helvetica,sans-Serif" font-size="10.00">Graph</text>
</a>
</g>
</g>
<!-- Node1&#45;&gt;Node2 -->
<g id="edge1" class="edge"><title>Node1&#45;&gt;Node2</title>
<path fill="none" stroke="midnightblue" d="M149.618,-98.5057C168.36,-101.545 189.687,-105.003 210.604,-108.395"/>
<polygon fill="midnightblue" stroke="midnightblue" points="210.068,-111.854 220.499,-110 211.188,-104.944 210.068,-111.854"/>
</g>
<!-- Node6 -->
<g id="node6" class="node"><title>Node6</title>
<g id="a_node6"><a xlink:href="../../df/dcf/classview_package_1_1_display_grid.html#a1a0aa454acaa29992ff9c716d38ec396" target="_top" xlink:title="viewPackage.DisplayGrid.updateGrid">
<polygon fill="white" stroke="black" points="219,-44.5 219,-63.5 409,-63.5 409,-44.5 219,-44.5"/>
<text text-anchor="middle" x="314" y="-51.5" font-family="Helvetica,sans-Serif" font-size="10.00">viewPackage.DisplayGrid.updateGrid</text>
</a>
</g>
</g>
<!-- Node1&#45;&gt;Node6 -->
<g id="edge5" class="edge"><title>Node1&#45;&gt;Node6</title>
<path fill="none" stroke="midnightblue" d="M151.369,-79.4823C179.508,-75.046 213.173,-69.7386 242.476,-65.1187"/>
<polygon fill="midnightblue" stroke="midnightblue" points="243.31,-68.5305 252.643,-63.5158 242.22,-61.6159 243.31,-68.5305"/>
</g>
<!-- Node3 -->
<g id="node3" class="node"><title>Node3</title>
<g id="a_node3"><a xlink:href="../../d1/d10/classview_package_1_1_population_graph.html#a3cb5ab88b681f1415029a3ef5b675588" target="_top" xlink:title="viewPackage.PopulationGraph.add\lToList">
<polygon fill="white" stroke="black" points="448,-176 448,-206 628,-206 628,-176 448,-176"/>
<text text-anchor="start" x="456" y="-194" font-family="Helvetica,sans-Serif" font-size="10.00">viewPackage.PopulationGraph.add</text>
<text text-anchor="middle" x="538" y="-183" font-family="Helvetica,sans-Serif" font-size="10.00">ToList</text>
</a>
</g>
</g>
<!-- Node2&#45;&gt;Node3 -->
<g id="edge2" class="edge"><title>Node2&#45;&gt;Node3</title>
<path fill="none" stroke="midnightblue" d="M362.93,-140.095C388.191,-147.969 419.723,-157.671 448,-166 455.967,-168.347 464.35,-170.766 472.655,-173.133"/>
<polygon fill="midnightblue" stroke="midnightblue" points="471.764,-176.518 482.339,-175.88 473.674,-169.784 471.764,-176.518"/>
</g>
<!-- Node4 -->
<g id="node4" class="node"><title>Node4</title>
<g id="a_node4"><a xlink:href="../../d1/dbf/classview_package_1_1_view.html#aea085ebbf6e586d637710ff0d8ba71bf" target="_top" xlink:title="viewPackage.View.getGeneration">
<polygon fill="white" stroke="black" points="451.5,-137.5 451.5,-156.5 624.5,-156.5 624.5,-137.5 451.5,-137.5"/>
<text text-anchor="middle" x="538" y="-144.5" font-family="Helvetica,sans-Serif" font-size="10.00">viewPackage.View.getGeneration</text>
</a>
</g>
</g>
<!-- Node2&#45;&gt;Node4 -->
<g id="edge3" class="edge"><title>Node2&#45;&gt;Node4</title>
<path fill="none" stroke="midnightblue" d="M412.049,-134.618C421.748,-135.579 431.591,-136.554 441.275,-137.514"/>
<polygon fill="midnightblue" stroke="midnightblue" points="441.002,-141.004 451.298,-138.507 441.692,-134.038 441.002,-141.004"/>
</g>
<!-- Node5 -->
<g id="node5" class="node"><title>Node5</title>
<g id="a_node5"><a xlink:href="../../d2/d2c/classcontroller_1_1_view_packager.html#a111fe52ef72753012062470020a0e152" target="_top" xlink:title="controller.ViewPackager.get\lStateTotals">
<polygon fill="white" stroke="black" points="464.5,-88 464.5,-118 611.5,-118 611.5,-88 464.5,-88"/>
<text text-anchor="start" x="472.5" y="-106" font-family="Helvetica,sans-Serif" font-size="10.00">controller.ViewPackager.get</text>
<text text-anchor="middle" x="538" y="-95" font-family="Helvetica,sans-Serif" font-size="10.00">StateTotals</text>
</a>
</g>
</g>
<!-- Node2&#45;&gt;Node5 -->
<g id="edge4" class="edge"><title>Node2&#45;&gt;Node5</title>
<path fill="none" stroke="midnightblue" d="M412.049,-115.382C425.996,-114 440.24,-112.589 453.884,-111.237"/>
<polygon fill="midnightblue" stroke="midnightblue" points="454.579,-114.685 464.185,-110.216 453.889,-107.719 454.579,-114.685"/>
</g>
<!-- Node7 -->
<g id="node7" class="node"><title>Node7</title>
<g id="a_node7"><a xlink:href="../../d2/d2c/classcontroller_1_1_view_packager.html#a1e8974daf2095f568a390c63173683c7" target="_top" xlink:title="controller.ViewPackager.get\lColorGrid">
<polygon fill="white" stroke="black" points="464.5,-39 464.5,-69 611.5,-69 611.5,-39 464.5,-39"/>
<text text-anchor="start" x="472.5" y="-57" font-family="Helvetica,sans-Serif" font-size="10.00">controller.ViewPackager.get</text>
<text text-anchor="middle" x="538" y="-46" font-family="Helvetica,sans-Serif" font-size="10.00">ColorGrid</text>
</a>
</g>
</g>
<!-- Node6&#45;&gt;Node7 -->
<g id="edge6" class="edge"><title>Node6&#45;&gt;Node7</title>
<path fill="none" stroke="midnightblue" d="M409.148,-54C424.127,-54 439.525,-54 454.216,-54"/>
<polygon fill="midnightblue" stroke="midnightblue" points="454.261,-57.5001 464.261,-54 454.261,-50.5001 454.261,-57.5001"/>
</g>
<!-- Node8 -->
<g id="node8" class="node"><title>Node8</title>
<g id="a_node8"><a xlink:href="../../df/dcf/classview_package_1_1_display_grid.html#abcfcacf1767533f216fca38abf791804" target="_top" xlink:title="viewPackage.DisplayGrid.setFill">
<polygon fill="white" stroke="black" points="456.5,-0.5 456.5,-19.5 619.5,-19.5 619.5,-0.5 456.5,-0.5"/>
<text text-anchor="middle" x="538" y="-7.5" font-family="Helvetica,sans-Serif" font-size="10.00">viewPackage.DisplayGrid.setFill</text>
</a>
</g>
</g>
<!-- Node6&#45;&gt;Node8 -->
<g id="edge7" class="edge"><title>Node6&#45;&gt;Node8</title>
<path fill="none" stroke="midnightblue" d="M363.171,-44.4527C397.207,-37.7066 442.996,-28.6313 479.035,-21.4886"/>
<polygon fill="midnightblue" stroke="midnightblue" points="479.795,-24.9062 488.923,-19.5287 478.434,-18.0397 479.795,-24.9062"/>
</g>
</g>
</svg>
        <g id="navigator" transform="translate(0 0)" fill="#404254">
                <rect fill="#f2f5e9" fill-opacity="0.5" stroke="#606060" stroke-width=".5" x="0" y="0" width="60" height="60"/>
                <use id="zoomplus" xlink:href="#zoomPlus" x="17" y="9" onmousedown="handleZoom(evt,'in')"/>
                <use id="zoomminus" xlink:href="#zoomMin" x="42" y="9" onmousedown="handleZoom(evt,'out')"/>
                <use id="reset" xlink:href="#resetDef" x="30" y="36" onmousedown="handleReset()"/>
                <g id="arrowUp" xlink:href="#dirArrow" transform="translate(30 24)" onmousedown="handlePan(0,-1)">
                  <use xlink:href="#rim" fill="#404040">
                        <set attributeName="fill" to="#808080" begin="arrowUp.mouseover" end="arrowUp.mouseout"/>
                  </use>
                  <path fill="none" stroke="white" stroke-width="1.5" d="M0,-3.0v7 M-2.5,-0.5L0,-3.0L2.5,-0.5"/>
                </g>
                <g id="arrowRight" xlink:href="#dirArrow" transform="rotate(90) translate(36 -43)" onmousedown="handlePan(1,0)">
                  <use xlink:href="#rim" fill="#404040">
                        <set attributeName="fill" to="#808080" begin="arrowRight.mouseover" end="arrowRight.mouseout"/>
                  </use>
                  <path fill="none" stroke="white" stroke-width="1.5" d="M0,-3.0v7 M-2.5,-0.5L0,-3.0L2.5,-0.5"/>
                </g>
                <g id="arrowDown" xlink:href="#dirArrow" transform="rotate(180) translate(-30 -48)" onmousedown="handlePan(0,1)">
                  <use xlink:href="#rim" fill="#404040">
                        <set attributeName="fill" to="#808080" begin="arrowDown.mouseover" end="arrowDown.mouseout"/>
                  </use>
                  <path fill="none" stroke="white" stroke-width="1.5" d="M0,-3.0v7 M-2.5,-0.5L0,-3.0L2.5,-0.5"/>
                </g>
                <g id="arrowLeft" xlink:href="#dirArrow" transform="rotate(270) translate(-36 17)" onmousedown="handlePan(-1,0)">
                  <use xlink:href="#rim" fill="#404040">
                        <set attributeName="fill" to="#808080" begin="arrowLeft.mouseover" end="arrowLeft.mouseout"/>
                  </use>
                  <path fill="none" stroke="white" stroke-width="1.5" d="M0,-3.0v7 M-2.5,-0.5L0,-3.0L2.5,-0.5"/>
                </g>
        </g>
        <svg viewBox="0 0 15 15" width="100%" height="30px" preserveAspectRatio="xMaxYMin meet">
         <g id="arrow_out" transform="scale(0.3 0.3)">
          <a xlink:href="classview_package_1_1_view_a7793d78c89cc38648fc57d4ee46a0837_cgraph_org.svg" target="_base">
           <rect id="button" ry="5" rx="5" y="6" x="6" height="38" width="38"
                fill="#f2f5e9" fill-opacity="0.5" stroke="#606060" stroke-width="1.0"/>
           <path id="arrow"
             d="M 11.500037,31.436501 C 11.940474,20.09759 22.043105,11.32322 32.158766,21.979434 L 37.068811,17.246167 C 37.068811,17.246167 37.088388,32 37.088388,32 L 22.160133,31.978069 C 22.160133,31.978069 26.997745,27.140456 26.997745,27.140456 C 18.528582,18.264221 13.291696,25.230495 11.500037,31.436501 z"
             style="fill:#404040;"/>
          </a>
         </g>
        </svg>
</svg>
