<?xml version="1.0" encoding="UTF-8" standalone="no"?>
<!DOCTYPE svg PUBLIC "-//W3C//DTD SVG 1.1//EN"
 "http://www.w3.org/Graphics/SVG/1.1/DTD/svg11.dtd">
<!-- Generated by graphviz version 2.36.0 (20140111.2315)
 -->
<!-- Title: viewPackage.View.createDisplayView Pages: 1 -->
<svg width="860pt" height="234pt"
 viewBox="0.00 0.00 860.00 234.00" xmlns="http://www.w3.org/2000/svg" xmlns:xlink="http://www.w3.org/1999/xlink">
<g id="graph0" class="graph" transform="scale(1 1) rotate(0) translate(4 230)">
<title>viewPackage.View.createDisplayView</title>
<polygon fill="white" stroke="none" points="-4,4 -4,-230 856,-230 856,4 -4,4"/>
<!-- Node1 -->
<g id="node1" class="node"><title>Node1</title>
<polygon fill="#bfbfbf" stroke="black" points="0.5,-127.5 0.5,-146.5 191.5,-146.5 191.5,-127.5 0.5,-127.5"/>
<text text-anchor="middle" x="96" y="-134.5" font-family="Helvetica,sans-Serif" font-size="10.00">viewPackage.View.createDisplayView</text>
</g>
<!-- Node2 -->
<g id="node2" class="node"><title>Node2</title>
<g id="a_node2"><a xlink:href="../../df/d81/classview_package_1_1_toggle_box.html#a03d2482d851b85f92b092115d94bcaa9" target="_top" xlink:title="viewPackage.ToggleBox.get\lShape">
<polygon fill="white" stroke="black" points="243,-147 243,-177 389,-177 389,-147 243,-147"/>
<text text-anchor="start" x="251" y="-165" font-family="Helvetica,sans-Serif" font-size="10.00">viewPackage.ToggleBox.get</text>
<text text-anchor="middle" x="316" y="-154" font-family="Helvetica,sans-Serif" font-size="10.00">Shape</text>
</a>
</g>
</g>
<!-- Node1&#45;&gt;Node2 -->
<g id="edge1" class="edge"><title>Node1&#45;&gt;Node2</title>
<path fill="none" stroke="midnightblue" d="M180.038,-146.523C197.339,-148.507 215.566,-150.597 232.835,-152.577"/>
<polygon fill="midnightblue" stroke="midnightblue" points="232.544,-156.067 242.877,-153.729 233.341,-149.112 232.544,-156.067"/>
</g>
<!-- Node3 -->
<g id="node3" class="node"><title>Node3</title>
<g id="a_node3"><a xlink:href="../../df/dcf/classview_package_1_1_display_grid.html#a5ec8bada84cea7265f0a46ccc1c45686" target="_top" xlink:title="viewPackage.DisplayGrid.initialize\lGridView">
<polygon fill="white" stroke="black" points="228.5,-98 228.5,-128 403.5,-128 403.5,-98 228.5,-98"/>
<text text-anchor="start" x="236.5" y="-116" font-family="Helvetica,sans-Serif" font-size="10.00">viewPackage.DisplayGrid.initialize</text>
<text text-anchor="middle" x="316" y="-105" font-family="Helvetica,sans-Serif" font-size="10.00">GridView</text>
</a>
</g>
</g>
<!-- Node1&#45;&gt;Node3 -->
<g id="edge2" class="edge"><title>Node1&#45;&gt;Node3</title>
<path fill="none" stroke="midnightblue" d="M183.472,-127.48C194.873,-126.225 206.618,-124.932 218.178,-123.659"/>
<polygon fill="midnightblue" stroke="midnightblue" points="218.719,-127.121 228.275,-122.548 217.952,-120.163 218.719,-127.121"/>
</g>
<!-- Node4 -->
<g id="node4" class="node"><title>Node4</title>
<g id="a_node4"><a xlink:href="../../d1/dbf/classview_package_1_1_view.html#a4c4b23ee9b019dcad37467a24571d496" target="_top" xlink:title="viewPackage.View.createGraph\lWindow">
<polygon fill="white" stroke="black" points="451,-196 451,-226 615,-226 615,-196 451,-196"/>
<text text-anchor="start" x="459" y="-214" font-family="Helvetica,sans-Serif" font-size="10.00">viewPackage.View.createGraph</text>
<text text-anchor="middle" x="533" y="-203" font-family="Helvetica,sans-Serif" font-size="10.00">Window</text>
</a>
</g>
</g>
<!-- Node3&#45;&gt;Node4 -->
<g id="edge3" class="edge"><title>Node3&#45;&gt;Node4</title>
<path fill="none" stroke="midnightblue" d="M385.906,-128.155C392.287,-130.912 398.436,-134.165 404,-138 425.955,-153.135 417.936,-171.024 440,-186 443.056,-188.074 446.278,-189.976 449.613,-191.721"/>
<polygon fill="midnightblue" stroke="midnightblue" points="448.136,-194.894 458.674,-195.982 451.114,-188.559 448.136,-194.894"/>
</g>
<!-- Node6 -->
<g id="node6" class="node"><title>Node6</title>
<g id="a_node6"><a xlink:href="../../df/dcf/classview_package_1_1_display_grid.html#a0cb104739fb841a9c4529aec67880178" target="_top" xlink:title="viewPackage.DisplayGrid.determine\lXlength">
<polygon fill="white" stroke="black" points="440,-147 440,-177 626,-177 626,-147 440,-147"/>
<text text-anchor="start" x="448" y="-165" font-family="Helvetica,sans-Serif" font-size="10.00">viewPackage.DisplayGrid.determine</text>
<text text-anchor="middle" x="533" y="-154" font-family="Helvetica,sans-Serif" font-size="10.00">Xlength</text>
</a>
</g>
</g>
<!-- Node3&#45;&gt;Node6 -->
<g id="edge5" class="edge"><title>Node3&#45;&gt;Node6</title>
<path fill="none" stroke="midnightblue" d="M382.968,-128.035C406.185,-133.326 432.456,-139.313 456.404,-144.771"/>
<polygon fill="midnightblue" stroke="midnightblue" points="455.629,-148.184 466.157,-146.994 457.184,-141.359 455.629,-148.184"/>
</g>
<!-- Node7 -->
<g id="node7" class="node"><title>Node7</title>
<g id="a_node7"><a xlink:href="../../df/dcf/classview_package_1_1_display_grid.html#a442cb3efa56bac1965b30cdfcfe8f023" target="_top" xlink:title="viewPackage.DisplayGrid.determine\lYlength">
<polygon fill="white" stroke="black" points="440,-98 440,-128 626,-128 626,-98 440,-98"/>
<text text-anchor="start" x="448" y="-116" font-family="Helvetica,sans-Serif" font-size="10.00">viewPackage.DisplayGrid.determine</text>
<text text-anchor="middle" x="533" y="-105" font-family="Helvetica,sans-Serif" font-size="10.00">Ylength</text>
</a>
</g>
</g>
<!-- Node3&#45;&gt;Node7 -->
<g id="edge6" class="edge"><title>Node3&#45;&gt;Node7</title>
<path fill="none" stroke="midnightblue" d="M403.519,-113C412.074,-113 420.813,-113 429.508,-113"/>
<polygon fill="midnightblue" stroke="midnightblue" points="429.681,-116.5 439.681,-113 429.681,-109.5 429.681,-116.5"/>
</g>
<!-- Node8 -->
<g id="node8" class="node"><title>Node8</title>
<g id="a_node8"><a xlink:href="../../df/dcf/classview_package_1_1_display_grid.html#a7527ebd4f6b4014c1e9a2e639408932a" target="_top" xlink:title="viewPackage.DisplayGrid.initial\lEmptyGrid">
<polygon fill="white" stroke="black" points="452.5,-49 452.5,-79 613.5,-79 613.5,-49 452.5,-49"/>
<text text-anchor="start" x="460.5" y="-67" font-family="Helvetica,sans-Serif" font-size="10.00">viewPackage.DisplayGrid.initial</text>
<text text-anchor="middle" x="533" y="-56" font-family="Helvetica,sans-Serif" font-size="10.00">EmptyGrid</text>
</a>
</g>
</g>
<!-- Node3&#45;&gt;Node8 -->
<g id="edge7" class="edge"><title>Node3&#45;&gt;Node8</title>
<path fill="none" stroke="midnightblue" d="M382.968,-97.9654C406.185,-92.6741 432.456,-86.6867 456.404,-81.2288"/>
<polygon fill="midnightblue" stroke="midnightblue" points="457.184,-84.6409 466.157,-79.0062 455.629,-77.8159 457.184,-84.6409"/>
</g>
<!-- Node9 -->
<g id="node9" class="node"><title>Node9</title>
<g id="a_node9"><a xlink:href="../../df/dcf/classview_package_1_1_display_grid.html#ac52b80af539639c59883fcf7130b6219" target="_top" xlink:title="viewPackage.DisplayGrid.set\lGridSize">
<polygon fill="white" stroke="black" points="457,-0 457,-30 609,-30 609,-0 457,-0"/>
<text text-anchor="start" x="465" y="-18" font-family="Helvetica,sans-Serif" font-size="10.00">viewPackage.DisplayGrid.set</text>
<text text-anchor="middle" x="533" y="-7" font-family="Helvetica,sans-Serif" font-size="10.00">GridSize</text>
</a>
</g>
</g>
<!-- Node3&#45;&gt;Node9 -->
<g id="edge8" class="edge"><title>Node3&#45;&gt;Node9</title>
<path fill="none" stroke="midnightblue" d="M338.274,-97.9405C362.079,-81.6819 402.269,-55.9735 440,-40 445.801,-37.5439 451.911,-35.2656 458.11,-33.1663"/>
<polygon fill="midnightblue" stroke="midnightblue" points="459.447,-36.4128 467.892,-30.0152 457.301,-29.75 459.447,-36.4128"/>
</g>
<!-- Node5 -->
<g id="node5" class="node"><title>Node5</title>
<g id="a_node5"><a xlink:href="../../d1/d10/classview_package_1_1_population_graph.html#a500944259dd2ce92ad9d0131f6f333a8" target="_top" xlink:title="viewPackage.PopulationGraph.make\lGraph">
<polygon fill="white" stroke="black" points="662.5,-196 662.5,-226 851.5,-226 851.5,-196 662.5,-196"/>
<text text-anchor="start" x="670.5" y="-214" font-family="Helvetica,sans-Serif" font-size="10.00">viewPackage.PopulationGraph.make</text>
<text text-anchor="middle" x="757" y="-203" font-family="Helvetica,sans-Serif" font-size="10.00">Graph</text>
</a>
</g>
</g>
<!-- Node4&#45;&gt;Node5 -->
<g id="edge4" class="edge"><title>Node4&#45;&gt;Node5</title>
<path fill="none" stroke="midnightblue" d="M615.089,-211C627.089,-211 639.592,-211 651.978,-211"/>
<polygon fill="midnightblue" stroke="midnightblue" points="652.342,-214.5 662.342,-211 652.342,-207.5 652.342,-214.5"/>
</g>
</g>
</svg>
