<?xml version="1.0" encoding="UTF-8" standalone="no"?>
<!DOCTYPE svg PUBLIC "-//W3C//DTD SVG 1.1//EN"
 "http://www.w3.org/Graphics/SVG/1.1/DTD/svg11.dtd">
<!-- Generated by graphviz version 2.36.0 (20140111.2315)
 -->
<!-- Title: viewPackage.DisplayGrid.setGridSize Pages: 1 -->
<!--zoomable 38 -->
<svg id="main" version="1.1" xmlns="http://www.w3.org/2000/svg" xmlns:xlink="http://www.w3.org/1999/xlink" xml:space="preserve" onload="init(evt)">
<style type="text/css"><![CDATA[
.edge:hover path { stroke: red; }
.edge:hover polygon { stroke: red; fill: red; }
]]></style>
<script type="text/javascript"><![CDATA[
var edges = document.getElementsByTagName('g');
if (edges && edges.length) {
  for (var i=0;i<edges.length;i++) {
    if (edges[i].id.substr(0,4)=='edge') {
      edges[i].setAttribute('class','edge');
    }
  }
}
]]></script>
        <defs>
                <circle id="rim" cx="0" cy="0" r="7"/>
                <circle id="rim2" cx="0" cy="0" r="3.5"/>
                <g id="zoomPlus">
                        <use xlink:href="#rim" fill="#404040">
                                <set attributeName="fill" to="#808080" begin="zoomplus.mouseover" end="zoomplus.mouseout"/>
                        </use>
                        <path d="M-4,0h8M0,-4v8" fill="none" stroke="white" stroke-width="1.5" pointer-events="none"/>
                </g>
                <g id="zoomMin">
                        <use xlink:href="#rim" fill="#404040">
                                <set attributeName="fill" to="#808080" begin="zoomminus.mouseover" end="zoomminus.mouseout"/>
                        </use>
                        <path d="M-4,0h8" fill="none" stroke="white" stroke-width="1.5" pointer-events="none"/>
                </g>
                <g id="dirArrow">
                        <path fill="none" stroke="white" stroke-width="1.5" d="M0,-3.0v7 M-2.5,-0.5L0,-3.0L2.5,-0.5"/>
                </g>
               <g id="resetDef">
                       <use xlink:href="#rim2" fill="#404040">
                               <set attributeName="fill" to="#808080" begin="reset.mouseover" end="reset.mouseout"/>
                       </use>
               </g>
        </defs>

<script type="text/javascript">
var viewWidth = 1720;
var viewHeight = 38;
var sectionId = 'dynsection-10';
</script>
<script xlink:href="../../svgpan.js"/>
<svg id="graph" class="graph">
<g id="viewport">
<title>viewPackage.DisplayGrid.setGridSize</title>
<polygon fill="white" stroke="none" points="-4,4 -4,-34 1716,-34 1716,4 -4,4"/>
<!-- Node1 -->
<g id="node1" class="node"><title>Node1</title>
<polygon fill="#bfbfbf" stroke="black" points="0,-0 0,-30 152,-30 152,-0 0,-0"/>
<text text-anchor="start" x="8" y="-18" font-family="Helvetica,sans-Serif" font-size="10.00">viewPackage.DisplayGrid.set</text>
<text text-anchor="middle" x="76" y="-7" font-family="Helvetica,sans-Serif" font-size="10.00">GridSize</text>
</g>
<!-- Node2 -->
<g id="node2" class="node"><title>Node2</title>
<g id="a_node2"><a xlink:href="../../df/dcf/classview_package_1_1_display_grid.html#a5ec8bada84cea7265f0a46ccc1c45686" target="_top" xlink:title="viewPackage.DisplayGrid.initialize\lGridView">
<polygon fill="white" stroke="black" points="188.5,-0 188.5,-30 363.5,-30 363.5,-0 188.5,-0"/>
<text text-anchor="start" x="196.5" y="-18" font-family="Helvetica,sans-Serif" font-size="10.00">viewPackage.DisplayGrid.initialize</text>
<text text-anchor="middle" x="276" y="-7" font-family="Helvetica,sans-Serif" font-size="10.00">GridView</text>
</a>
</g>
</g>
<!-- Node1&#45;&gt;Node2 -->
<g id="edge1" class="edge"><title>Node1&#45;&gt;Node2</title>
<path fill="none" stroke="midnightblue" d="M162.205,-15C170.851,-15 179.639,-15 188.301,-15"/>
<polygon fill="midnightblue" stroke="midnightblue" points="162.138,-11.5001 152.138,-15 162.138,-18.5001 162.138,-11.5001"/>
</g>
<!-- Node3 -->
<g id="node3" class="node"><title>Node3</title>
<g id="a_node3"><a xlink:href="../../d1/dbf/classview_package_1_1_view.html#a463e5a91c22eba013dfe816c7c318e37" target="_top" xlink:title="viewPackage.View.createDisplayView">
<polygon fill="white" stroke="black" points="400.5,-5.5 400.5,-24.5 591.5,-24.5 591.5,-5.5 400.5,-5.5"/>
<text text-anchor="middle" x="496" y="-12.5" font-family="Helvetica,sans-Serif" font-size="10.00">viewPackage.View.createDisplayView</text>
</a>
</g>
</g>
<!-- Node2&#45;&gt;Node3 -->
<g id="edge2" class="edge"><title>Node2&#45;&gt;Node3</title>
<path fill="none" stroke="midnightblue" d="M373.98,-15C382.716,-15 391.556,-15 400.272,-15"/>
<polygon fill="midnightblue" stroke="midnightblue" points="373.786,-11.5001 363.786,-15 373.786,-18.5001 373.786,-11.5001"/>
</g>
<!-- Node4 -->
<g id="node4" class="node"><title>Node4</title>
<g id="a_node4"><a xlink:href="../../d9/df7/classcontroller_1_1_controller.html#af7cc9ab6dfe60da36d3159eea48882db" target="_top" xlink:title="controller.Controller.loadFile">
<polygon fill="white" stroke="black" points="628,-5.5 628,-24.5 776,-24.5 776,-5.5 628,-5.5"/>
<text text-anchor="middle" x="702" y="-12.5" font-family="Helvetica,sans-Serif" font-size="10.00">controller.Controller.loadFile</text>
</a>
</g>
</g>
<!-- Node3&#45;&gt;Node4 -->
<g id="edge3" class="edge"><title>Node3&#45;&gt;Node4</title>
<path fill="none" stroke="midnightblue" d="M601.556,-15C610.435,-15 619.287,-15 627.845,-15"/>
<polygon fill="midnightblue" stroke="midnightblue" points="601.535,-11.5001 591.535,-15 601.535,-18.5001 601.535,-11.5001"/>
</g>
<!-- Node5 -->
<g id="node5" class="node"><title>Node5</title>
<g id="a_node5"><a xlink:href="../../d1/dbf/classview_package_1_1_view.html#a718e5f42ae85512916198548e28477c7" target="_top" xlink:title="viewPackage.View.tryLoad">
<polygon fill="white" stroke="black" points="812,-5.5 812,-24.5 952,-24.5 952,-5.5 812,-5.5"/>
<text text-anchor="middle" x="882" y="-12.5" font-family="Helvetica,sans-Serif" font-size="10.00">viewPackage.View.tryLoad</text>
</a>
</g>
</g>
<!-- Node4&#45;&gt;Node5 -->
<g id="edge4" class="edge"><title>Node4&#45;&gt;Node5</title>
<path fill="none" stroke="midnightblue" d="M786.193,-15C794.776,-15 803.431,-15 811.838,-15"/>
<polygon fill="midnightblue" stroke="midnightblue" points="786.17,-11.5001 776.17,-15 786.17,-18.5001 786.17,-11.5001"/>
</g>
<!-- Node6 -->
<g id="node6" class="node"><title>Node6</title>
<g id="a_node6"><a xlink:href="../../dc/d2c/classview_package_1_1_button_box.html#aef53bd97c4407ecd3fb5dfbf42850a46" target="_top" xlink:title="viewPackage.ButtonBox.load\lFileBox">
<polygon fill="white" stroke="black" points="988.5,-0 988.5,-30 1141.5,-30 1141.5,-0 988.5,-0"/>
<text text-anchor="start" x="996.5" y="-18" font-family="Helvetica,sans-Serif" font-size="10.00">viewPackage.ButtonBox.load</text>
<text text-anchor="middle" x="1065" y="-7" font-family="Helvetica,sans-Serif" font-size="10.00">FileBox</text>
</a>
</g>
</g>
<!-- Node5&#45;&gt;Node6 -->
<g id="edge5" class="edge"><title>Node5&#45;&gt;Node6</title>
<path fill="none" stroke="midnightblue" d="M962.241,-15C970.863,-15 979.623,-15 988.201,-15"/>
<polygon fill="midnightblue" stroke="midnightblue" points="962.203,-11.5001 952.203,-15 962.203,-18.5001 962.203,-11.5001"/>
</g>
<!-- Node7 -->
<g id="node7" class="node"><title>Node7</title>
<g id="a_node7"><a xlink:href="../../dc/d2c/classview_package_1_1_button_box.html#a9756fc46a96c169ce48a1867bd2c82f5" target="_top" xlink:title="viewPackage.ButtonBox.make\lButtonBox">
<polygon fill="white" stroke="black" points="1178,-0 1178,-30 1338,-30 1338,-0 1178,-0"/>
<text text-anchor="start" x="1186" y="-18" font-family="Helvetica,sans-Serif" font-size="10.00">viewPackage.ButtonBox.make</text>
<text text-anchor="middle" x="1258" y="-7" font-family="Helvetica,sans-Serif" font-size="10.00">ButtonBox</text>
</a>
</g>
</g>
<!-- Node6&#45;&gt;Node7 -->
<g id="edge6" class="edge"><title>Node6&#45;&gt;Node7</title>
<path fill="none" stroke="midnightblue" d="M1151.86,-15C1160.53,-15 1169.29,-15 1177.88,-15"/>
<polygon fill="midnightblue" stroke="midnightblue" points="1151.76,-11.5001 1141.76,-15 1151.76,-18.5001 1151.76,-11.5001"/>
</g>
<!-- Node8 -->
<g id="node8" class="node"><title>Node8</title>
<g id="a_node8"><a xlink:href="../../d1/dbf/classview_package_1_1_view.html#af6f6887ef253ae0fba2634e367b95312" target="_top" xlink:title="viewPackage.View.initialize">
<polygon fill="white" stroke="black" points="1374,-5.5 1374,-24.5 1516,-24.5 1516,-5.5 1374,-5.5"/>
<text text-anchor="middle" x="1445" y="-12.5" font-family="Helvetica,sans-Serif" font-size="10.00">viewPackage.View.initialize</text>
</a>
</g>
</g>
<!-- Node7&#45;&gt;Node8 -->
<g id="edge7" class="edge"><title>Node7&#45;&gt;Node8</title>
<path fill="none" stroke="midnightblue" d="M1348.33,-15C1356.93,-15 1365.57,-15 1373.95,-15"/>
<polygon fill="midnightblue" stroke="midnightblue" points="1348.26,-11.5001 1338.26,-15 1348.26,-18.5001 1348.26,-11.5001"/>
</g>
<!-- Node9 -->
<g id="node9" class="node"><title>Node9</title>
<g id="a_node9"><a xlink:href="../../d9/df7/classcontroller_1_1_controller.html#a4dbfef3e3e30bd1bb84df7a6b24ad1e7" target="_top" xlink:title="controller.Controller.Controller">
<polygon fill="white" stroke="black" points="1552.5,-5.5 1552.5,-24.5 1711.5,-24.5 1711.5,-5.5 1552.5,-5.5"/>
<text text-anchor="middle" x="1632" y="-12.5" font-family="Helvetica,sans-Serif" font-size="10.00">controller.Controller.Controller</text>
</a>
</g>
</g>
<!-- Node8&#45;&gt;Node9 -->
<g id="edge8" class="edge"><title>Node8&#45;&gt;Node9</title>
<path fill="none" stroke="midnightblue" d="M1526.31,-15C1535,-15 1543.83,-15 1552.49,-15"/>
<polygon fill="midnightblue" stroke="midnightblue" points="1526.2,-11.5001 1516.2,-15 1526.2,-18.5001 1526.2,-11.5001"/>
</g>
</g>
</svg>
        <g id="navigator" transform="translate(0 0)" fill="#404254">
                <rect fill="#f2f5e9" fill-opacity="0.5" stroke="#606060" stroke-width=".5" x="0" y="0" width="60" height="60"/>
                <use id="zoomplus" xlink:href="#zoomPlus" x="17" y="9" onmousedown="handleZoom(evt,'in')"/>
                <use id="zoomminus" xlink:href="#zoomMin" x="42" y="9" onmousedown="handleZoom(evt,'out')"/>
                <use id="reset" xlink:href="#resetDef" x="30" y="36" onmousedown="handleReset()"/>
                <g id="arrowUp" xlink:href="#dirArrow" transform="translate(30 24)" onmousedown="handlePan(0,-1)">
                  <use xlink:href="#rim" fill="#404040">
                        <set attributeName="fill" to="#808080" begin="arrowUp.mouseover" end="arrowUp.mouseout"/>
                  </use>
                  <path fill="none" stroke="white" stroke-width="1.5" d="M0,-3.0v7 M-2.5,-0.5L0,-3.0L2.5,-0.5"/>
                </g>
                <g id="arrowRight" xlink:href="#dirArrow" transform="rotate(90) translate(36 -43)" onmousedown="handlePan(1,0)">
                  <use xlink:href="#rim" fill="#404040">
                        <set attributeName="fill" to="#808080" begin="arrowRight.mouseover" end="arrowRight.mouseout"/>
                  </use>
                  <path fill="none" stroke="white" stroke-width="1.5" d="M0,-3.0v7 M-2.5,-0.5L0,-3.0L2.5,-0.5"/>
                </g>
                <g id="arrowDown" xlink:href="#dirArrow" transform="rotate(180) translate(-30 -48)" onmousedown="handlePan(0,1)">
                  <use xlink:href="#rim" fill="#404040">
                        <set attributeName="fill" to="#808080" begin="arrowDown.mouseover" end="arrowDown.mouseout"/>
                  </use>
                  <path fill="none" stroke="white" stroke-width="1.5" d="M0,-3.0v7 M-2.5,-0.5L0,-3.0L2.5,-0.5"/>
                </g>
                <g id="arrowLeft" xlink:href="#dirArrow" transform="rotate(270) translate(-36 17)" onmousedown="handlePan(-1,0)">
                  <use xlink:href="#rim" fill="#404040">
                        <set attributeName="fill" to="#808080" begin="arrowLeft.mouseover" end="arrowLeft.mouseout"/>
                  </use>
                  <path fill="none" stroke="white" stroke-width="1.5" d="M0,-3.0v7 M-2.5,-0.5L0,-3.0L2.5,-0.5"/>
                </g>
        </g>
        <svg viewBox="0 0 15 15" width="100%" height="30px" preserveAspectRatio="xMaxYMin meet">
         <g id="arrow_out" transform="scale(0.3 0.3)">
          <a xlink:href="classview_package_1_1_display_grid_ac52b80af539639c59883fcf7130b6219_icgraph_org.svg" target="_base">
           <rect id="button" ry="5" rx="5" y="6" x="6" height="38" width="38"
                fill="#f2f5e9" fill-opacity="0.5" stroke="#606060" stroke-width="1.0"/>
           <path id="arrow"
             d="M 11.500037,31.436501 C 11.940474,20.09759 22.043105,11.32322 32.158766,21.979434 L 37.068811,17.246167 C 37.068811,17.246167 37.088388,32 37.088388,32 L 22.160133,31.978069 C 22.160133,31.978069 26.997745,27.140456 26.997745,27.140456 C 18.528582,18.264221 13.291696,25.230495 11.500037,31.436501 z"
             style="fill:#404040;"/>
          </a>
         </g>
        </svg>
</svg>
