<?xml version="1.0" encoding="UTF-8" standalone="no"?>
<!DOCTYPE svg PUBLIC "-//W3C//DTD SVG 1.1//EN"
 "http://www.w3.org/Graphics/SVG/1.1/DTD/svg11.dtd">
<!-- Generated by graphviz version 2.36.0 (20140111.2315)
 -->
<!-- Title: viewPackage.DisplayGrid.initializeGridView Pages: 1 -->
<svg width="632pt" height="234pt"
 viewBox="0.00 0.00 632.00 234.00" xmlns="http://www.w3.org/2000/svg" xmlns:xlink="http://www.w3.org/1999/xlink">
<g id="graph0" class="graph" transform="scale(1 1) rotate(0) translate(4 230)">
<title>viewPackage.DisplayGrid.initializeGridView</title>
<polygon fill="white" stroke="none" points="-4,4 -4,-230 628,-230 628,4 -4,4"/>
<!-- Node1 -->
<g id="node1" class="node"><title>Node1</title>
<polygon fill="#bfbfbf" stroke="black" points="0.5,-98 0.5,-128 175.5,-128 175.5,-98 0.5,-98"/>
<text text-anchor="start" x="8.5" y="-116" font-family="Helvetica,sans-Serif" font-size="10.00">viewPackage.DisplayGrid.initialize</text>
<text text-anchor="middle" x="88" y="-105" font-family="Helvetica,sans-Serif" font-size="10.00">GridView</text>
</g>
<!-- Node2 -->
<g id="node2" class="node"><title>Node2</title>
<g id="a_node2"><a xlink:href="../../d1/dbf/classview_package_1_1_view.html#a4c4b23ee9b019dcad37467a24571d496" target="_top" xlink:title="viewPackage.View.createGraph\lWindow">
<polygon fill="white" stroke="black" points="223,-196 223,-226 387,-226 387,-196 223,-196"/>
<text text-anchor="start" x="231" y="-214" font-family="Helvetica,sans-Serif" font-size="10.00">viewPackage.View.createGraph</text>
<text text-anchor="middle" x="305" y="-203" font-family="Helvetica,sans-Serif" font-size="10.00">Window</text>
</a>
</g>
</g>
<!-- Node1&#45;&gt;Node2 -->
<g id="edge1" class="edge"><title>Node1&#45;&gt;Node2</title>
<path fill="none" stroke="midnightblue" d="M110.274,-128.059C134.079,-144.318 174.269,-170.027 212,-186 217.801,-188.456 223.911,-190.734 230.11,-192.834"/>
<polygon fill="midnightblue" stroke="midnightblue" points="229.301,-196.25 239.892,-195.985 231.447,-189.587 229.301,-196.25"/>
</g>
<!-- Node4 -->
<g id="node4" class="node"><title>Node4</title>
<g id="a_node4"><a xlink:href="../../df/dcf/classview_package_1_1_display_grid.html#a0cb104739fb841a9c4529aec67880178" target="_top" xlink:title="viewPackage.DisplayGrid.determine\lXlength">
<polygon fill="white" stroke="black" points="212,-147 212,-177 398,-177 398,-147 212,-147"/>
<text text-anchor="start" x="220" y="-165" font-family="Helvetica,sans-Serif" font-size="10.00">viewPackage.DisplayGrid.determine</text>
<text text-anchor="middle" x="305" y="-154" font-family="Helvetica,sans-Serif" font-size="10.00">Xlength</text>
</a>
</g>
</g>
<!-- Node1&#45;&gt;Node4 -->
<g id="edge3" class="edge"><title>Node1&#45;&gt;Node4</title>
<path fill="none" stroke="midnightblue" d="M154.968,-128.035C178.185,-133.326 204.456,-139.313 228.404,-144.771"/>
<polygon fill="midnightblue" stroke="midnightblue" points="227.629,-148.184 238.157,-146.994 229.184,-141.359 227.629,-148.184"/>
</g>
<!-- Node5 -->
<g id="node5" class="node"><title>Node5</title>
<g id="a_node5"><a xlink:href="../../df/dcf/classview_package_1_1_display_grid.html#a442cb3efa56bac1965b30cdfcfe8f023" target="_top" xlink:title="viewPackage.DisplayGrid.determine\lYlength">
<polygon fill="white" stroke="black" points="212,-98 212,-128 398,-128 398,-98 212,-98"/>
<text text-anchor="start" x="220" y="-116" font-family="Helvetica,sans-Serif" font-size="10.00">viewPackage.DisplayGrid.determine</text>
<text text-anchor="middle" x="305" y="-105" font-family="Helvetica,sans-Serif" font-size="10.00">Ylength</text>
</a>
</g>
</g>
<!-- Node1&#45;&gt;Node5 -->
<g id="edge4" class="edge"><title>Node1&#45;&gt;Node5</title>
<path fill="none" stroke="midnightblue" d="M175.519,-113C184.074,-113 192.813,-113 201.508,-113"/>
<polygon fill="midnightblue" stroke="midnightblue" points="201.681,-116.5 211.681,-113 201.681,-109.5 201.681,-116.5"/>
</g>
<!-- Node6 -->
<g id="node6" class="node"><title>Node6</title>
<g id="a_node6"><a xlink:href="../../df/dcf/classview_package_1_1_display_grid.html#a7527ebd4f6b4014c1e9a2e639408932a" target="_top" xlink:title="viewPackage.DisplayGrid.initial\lEmptyGrid">
<polygon fill="white" stroke="black" points="224.5,-49 224.5,-79 385.5,-79 385.5,-49 224.5,-49"/>
<text text-anchor="start" x="232.5" y="-67" font-family="Helvetica,sans-Serif" font-size="10.00">viewPackage.DisplayGrid.initial</text>
<text text-anchor="middle" x="305" y="-56" font-family="Helvetica,sans-Serif" font-size="10.00">EmptyGrid</text>
</a>
</g>
</g>
<!-- Node1&#45;&gt;Node6 -->
<g id="edge5" class="edge"><title>Node1&#45;&gt;Node6</title>
<path fill="none" stroke="midnightblue" d="M154.968,-97.9654C178.185,-92.6741 204.456,-86.6867 228.404,-81.2288"/>
<polygon fill="midnightblue" stroke="midnightblue" points="229.184,-84.6409 238.157,-79.0062 227.629,-77.8159 229.184,-84.6409"/>
</g>
<!-- Node7 -->
<g id="node7" class="node"><title>Node7</title>
<g id="a_node7"><a xlink:href="../../df/dcf/classview_package_1_1_display_grid.html#ac52b80af539639c59883fcf7130b6219" target="_top" xlink:title="viewPackage.DisplayGrid.set\lGridSize">
<polygon fill="white" stroke="black" points="229,-0 229,-30 381,-30 381,-0 229,-0"/>
<text text-anchor="start" x="237" y="-18" font-family="Helvetica,sans-Serif" font-size="10.00">viewPackage.DisplayGrid.set</text>
<text text-anchor="middle" x="305" y="-7" font-family="Helvetica,sans-Serif" font-size="10.00">GridSize</text>
</a>
</g>
</g>
<!-- Node1&#45;&gt;Node7 -->
<g id="edge6" class="edge"><title>Node1&#45;&gt;Node7</title>
<path fill="none" stroke="midnightblue" d="M110.274,-97.9405C134.079,-81.6819 174.269,-55.9735 212,-40 217.801,-37.5439 223.911,-35.2656 230.11,-33.1663"/>
<polygon fill="midnightblue" stroke="midnightblue" points="231.447,-36.4128 239.892,-30.0152 229.301,-29.75 231.447,-36.4128"/>
</g>
<!-- Node3 -->
<g id="node3" class="node"><title>Node3</title>
<g id="a_node3"><a xlink:href="../../d1/d10/classview_package_1_1_population_graph.html#a500944259dd2ce92ad9d0131f6f333a8" target="_top" xlink:title="viewPackage.PopulationGraph.make\lGraph">
<polygon fill="white" stroke="black" points="434.5,-196 434.5,-226 623.5,-226 623.5,-196 434.5,-196"/>
<text text-anchor="start" x="442.5" y="-214" font-family="Helvetica,sans-Serif" font-size="10.00">viewPackage.PopulationGraph.make</text>
<text text-anchor="middle" x="529" y="-203" font-family="Helvetica,sans-Serif" font-size="10.00">Graph</text>
</a>
</g>
</g>
<!-- Node2&#45;&gt;Node3 -->
<g id="edge2" class="edge"><title>Node2&#45;&gt;Node3</title>
<path fill="none" stroke="midnightblue" d="M387.089,-211C399.089,-211 411.592,-211 423.978,-211"/>
<polygon fill="midnightblue" stroke="midnightblue" points="424.342,-214.5 434.342,-211 424.342,-207.5 424.342,-214.5"/>
</g>
</g>
</svg>
