<?xml version="1.0" encoding="UTF-8" standalone="no"?>
<!DOCTYPE svg PUBLIC "-//W3C//DTD SVG 1.1//EN"
 "http://www.w3.org/Graphics/SVG/1.1/DTD/svg11.dtd">
<!-- Generated by graphviz version 2.36.0 (20140111.2315)
 -->
<!-- Title: viewPackage.DisplayGrid.setShape Pages: 1 -->
<svg width="352pt" height="87pt"
 viewBox="0.00 0.00 352.00 87.00" xmlns="http://www.w3.org/2000/svg" xmlns:xlink="http://www.w3.org/1999/xlink">
<g id="graph0" class="graph" transform="scale(1 1) rotate(0) translate(4 83)">
<title>viewPackage.DisplayGrid.setShape</title>
<polygon fill="white" stroke="none" points="-4,4 -4,-83 348,-83 348,4 -4,4"/>
<!-- Node1 -->
<g id="node1" class="node"><title>Node1</title>
<polygon fill="#bfbfbf" stroke="black" points="0,-24 0,-54 152,-54 152,-24 0,-24"/>
<text text-anchor="start" x="8" y="-42" font-family="Helvetica,sans-Serif" font-size="10.00">viewPackage.DisplayGrid.set</text>
<text text-anchor="middle" x="76" y="-31" font-family="Helvetica,sans-Serif" font-size="10.00">Shape</text>
</g>
<!-- Node2 -->
<g id="node2" class="node"><title>Node2</title>
<g id="a_node2"><a xlink:href="../../db/d94/classview_package_1_1_rectangular_grid_view.html#a615bcd662022790b32b7c88abe3784c9" target="_top" xlink:title="viewPackage.RectangularGrid\lView.initialEmptyGrid">
<polygon fill="white" stroke="black" points="188.5,-49 188.5,-79 343.5,-79 343.5,-49 188.5,-49"/>
<text text-anchor="start" x="196.5" y="-67" font-family="Helvetica,sans-Serif" font-size="10.00">viewPackage.RectangularGrid</text>
<text text-anchor="middle" x="266" y="-56" font-family="Helvetica,sans-Serif" font-size="10.00">View.initialEmptyGrid</text>
</a>
</g>
</g>
<!-- Node1&#45;&gt;Node2 -->
<g id="edge1" class="edge"><title>Node1&#45;&gt;Node2</title>
<path fill="none" stroke="midnightblue" d="M162.292,-50.3421C171.019,-51.5025 179.846,-52.6764 188.47,-53.8232"/>
<polygon fill="midnightblue" stroke="midnightblue" points="162.487,-46.8373 152.113,-48.9884 161.564,-53.7762 162.487,-46.8373"/>
</g>
<!-- Node3 -->
<g id="node3" class="node"><title>Node3</title>
<g id="a_node3"><a xlink:href="../../d6/dde/classview_package_1_1_triangular_grid_view.html#a671be1e0a8e883b9a472961be025ca43" target="_top" xlink:title="viewPackage.TriangularGrid\lView.initialEmptyGrid">
<polygon fill="white" stroke="black" points="193.5,-0 193.5,-30 338.5,-30 338.5,-0 193.5,-0"/>
<text text-anchor="start" x="201.5" y="-18" font-family="Helvetica,sans-Serif" font-size="10.00">viewPackage.TriangularGrid</text>
<text text-anchor="middle" x="266" y="-7" font-family="Helvetica,sans-Serif" font-size="10.00">View.initialEmptyGrid</text>
</a>
</g>
</g>
<!-- Node1&#45;&gt;Node3 -->
<g id="edge2" class="edge"><title>Node1&#45;&gt;Node3</title>
<path fill="none" stroke="midnightblue" d="M162.076,-28.1392C172.533,-26.8043 183.138,-25.4504 193.369,-24.1444"/>
<polygon fill="midnightblue" stroke="midnightblue" points="161.589,-24.6729 152.113,-29.4111 162.476,-31.6165 161.589,-24.6729"/>
</g>
</g>
</svg>
