<?xml version="1.0" encoding="UTF-8" standalone="no"?>
<!DOCTYPE svg PUBLIC "-//W3C//DTD SVG 1.1//EN"
 "http://www.w3.org/Graphics/SVG/1.1/DTD/svg11.dtd">
<!-- Generated by graphviz version 2.36.0 (20140111.2315)
 -->
<!-- Title: viewPackage.DisplayGrid.getView Pages: 1 -->
<svg width="374pt" height="87pt"
 viewBox="0.00 0.00 374.00 87.00" xmlns="http://www.w3.org/2000/svg" xmlns:xlink="http://www.w3.org/1999/xlink">
<g id="graph0" class="graph" transform="scale(1 1) rotate(0) translate(4 83)">
<title>viewPackage.DisplayGrid.getView</title>
<polygon fill="white" stroke="none" points="-4,4 -4,-83 370,-83 370,4 -4,4"/>
<!-- Node1 -->
<g id="node1" class="node"><title>Node1</title>
<polygon fill="#bfbfbf" stroke="black" points="0,-29.5 0,-48.5 174,-48.5 174,-29.5 0,-29.5"/>
<text text-anchor="middle" x="87" y="-36.5" font-family="Helvetica,sans-Serif" font-size="10.00">viewPackage.DisplayGrid.getView</text>
</g>
<!-- Node2 -->
<g id="node2" class="node"><title>Node2</title>
<g id="a_node2"><a xlink:href="../../db/d94/classview_package_1_1_rectangular_grid_view.html#a615bcd662022790b32b7c88abe3784c9" target="_top" xlink:title="viewPackage.RectangularGrid\lView.initialEmptyGrid">
<polygon fill="white" stroke="black" points="210.5,-49 210.5,-79 365.5,-79 365.5,-49 210.5,-49"/>
<text text-anchor="start" x="218.5" y="-67" font-family="Helvetica,sans-Serif" font-size="10.00">viewPackage.RectangularGrid</text>
<text text-anchor="middle" x="288" y="-56" font-family="Helvetica,sans-Serif" font-size="10.00">View.initialEmptyGrid</text>
</a>
</g>
</g>
<!-- Node1&#45;&gt;Node2 -->
<g id="edge1" class="edge"><title>Node1&#45;&gt;Node2</title>
<path fill="none" stroke="midnightblue" d="M173.918,-49.7937C186.057,-51.3188 198.472,-52.8784 210.421,-54.3795"/>
<polygon fill="midnightblue" stroke="midnightblue" points="174.159,-46.2966 163.801,-48.5227 173.287,-53.242 174.159,-46.2966"/>
</g>
<!-- Node3 -->
<g id="node3" class="node"><title>Node3</title>
<g id="a_node3"><a xlink:href="../../d6/dde/classview_package_1_1_triangular_grid_view.html#a671be1e0a8e883b9a472961be025ca43" target="_top" xlink:title="viewPackage.TriangularGrid\lView.initialEmptyGrid">
<polygon fill="white" stroke="black" points="215.5,-0 215.5,-30 360.5,-30 360.5,-0 215.5,-0"/>
<text text-anchor="start" x="223.5" y="-18" font-family="Helvetica,sans-Serif" font-size="10.00">viewPackage.TriangularGrid</text>
<text text-anchor="middle" x="288" y="-7" font-family="Helvetica,sans-Serif" font-size="10.00">View.initialEmptyGrid</text>
</a>
</g>
</g>
<!-- Node1&#45;&gt;Node3 -->
<g id="edge2" class="edge"><title>Node1&#45;&gt;Node3</title>
<path fill="none" stroke="midnightblue" d="M177.112,-28.2528C189.884,-26.7125 202.886,-25.1444 215.265,-23.6515"/>
<polygon fill="midnightblue" stroke="midnightblue" points="176.445,-24.8078 166.936,-29.4801 177.283,-31.7575 176.445,-24.8078"/>
</g>
</g>
</svg>
