<?xml version="1.0" encoding="UTF-8" standalone="no"?>
<!DOCTYPE svg PUBLIC "-//W3C//DTD SVG 1.1//EN"
 "http://www.w3.org/Graphics/SVG/1.1/DTD/svg11.dtd">
<!-- Generated by graphviz version 2.36.0 (20140111.2315)
 -->
<!-- Title: viewPackage.DisplayGrid.outline Pages: 1 -->
<svg width="550pt" height="38pt"
 viewBox="0.00 0.00 550.00 38.00" xmlns="http://www.w3.org/2000/svg" xmlns:xlink="http://www.w3.org/1999/xlink">
<g id="graph0" class="graph" transform="scale(1 1) rotate(0) translate(4 34)">
<title>viewPackage.DisplayGrid.outline</title>
<polygon fill="white" stroke="none" points="-4,4 -4,-34 546,-34 546,4 -4,4"/>
<!-- Node1 -->
<g id="node1" class="node"><title>Node1</title>
<polygon fill="#bfbfbf" stroke="black" points="0.5,-5.5 0.5,-24.5 169.5,-24.5 169.5,-5.5 0.5,-5.5"/>
<text text-anchor="middle" x="85" y="-12.5" font-family="Helvetica,sans-Serif" font-size="10.00">viewPackage.DisplayGrid.outline</text>
</g>
<!-- Node2 -->
<g id="node2" class="node"><title>Node2</title>
<g id="a_node2"><a xlink:href="../../d1/dbf/classview_package_1_1_view.html#a10e18f0846c22fe65db040a126a9db2d" target="_top" xlink:title="viewPackage.View.getOutline">
<polygon fill="white" stroke="black" points="206.5,-5.5 206.5,-24.5 359.5,-24.5 359.5,-5.5 206.5,-5.5"/>
<text text-anchor="middle" x="283" y="-12.5" font-family="Helvetica,sans-Serif" font-size="10.00">viewPackage.View.getOutline</text>
</a>
</g>
</g>
<!-- Node1&#45;&gt;Node2 -->
<g id="edge1" class="edge"><title>Node1&#45;&gt;Node2</title>
<path fill="none" stroke="midnightblue" d="M169.69,-15C178.44,-15 187.345,-15 196.119,-15"/>
<polygon fill="midnightblue" stroke="midnightblue" points="196.341,-18.5001 206.341,-15 196.341,-11.5001 196.341,-18.5001"/>
</g>
<!-- Node3 -->
<g id="node3" class="node"><title>Node3</title>
<g id="a_node3"><a xlink:href="../../df/d81/classview_package_1_1_toggle_box.html#a12ca6a0d56a612b5a7b936a59205b915" target="_top" xlink:title="viewPackage.ToggleBox.get\lOutline">
<polygon fill="white" stroke="black" points="396,-0 396,-30 542,-30 542,-0 396,-0"/>
<text text-anchor="start" x="404" y="-18" font-family="Helvetica,sans-Serif" font-size="10.00">viewPackage.ToggleBox.get</text>
<text text-anchor="middle" x="469" y="-7" font-family="Helvetica,sans-Serif" font-size="10.00">Outline</text>
</a>
</g>
</g>
<!-- Node2&#45;&gt;Node3 -->
<g id="edge2" class="edge"><title>Node2&#45;&gt;Node3</title>
<path fill="none" stroke="midnightblue" d="M359.636,-15C368.257,-15 377.075,-15 385.776,-15"/>
<polygon fill="midnightblue" stroke="midnightblue" points="385.916,-18.5001 395.916,-15 385.916,-11.5001 385.916,-18.5001"/>
</g>
</g>
</svg>
