<?xml version="1.0" encoding="UTF-8" standalone="no"?>
<!DOCTYPE svg PUBLIC "-//W3C//DTD SVG 1.1//EN"
 "http://www.w3.org/Graphics/SVG/1.1/DTD/svg11.dtd">
<!-- Generated by graphviz version 2.36.0 (20140111.2315)
 -->
<!-- Title: viewPackage.DisplayGrid.updateGrid Pages: 1 -->
<svg width="1712pt" height="167pt"
 viewBox="0.00 0.00 1712.00 167.00" xmlns="http://www.w3.org/2000/svg" xmlns:xlink="http://www.w3.org/1999/xlink">
<g id="graph0" class="graph" transform="scale(1 1) rotate(0) translate(4 163)">
<title>viewPackage.DisplayGrid.updateGrid</title>
<polygon fill="white" stroke="none" points="-4,4 -4,-163 1708,-163 1708,4 -4,4"/>
<!-- Node1 -->
<g id="node1" class="node"><title>Node1</title>
<polygon fill="#bfbfbf" stroke="black" points="0,-27.5 0,-46.5 190,-46.5 190,-27.5 0,-27.5"/>
<text text-anchor="middle" x="95" y="-34.5" font-family="Helvetica,sans-Serif" font-size="10.00">viewPackage.DisplayGrid.updateGrid</text>
</g>
<!-- Node2 -->
<g id="node2" class="node"><title>Node2</title>
<g id="a_node2"><a xlink:href="../../d1/dbf/classview_package_1_1_view.html#a7793d78c89cc38648fc57d4ee46a0837" target="_top" xlink:title="viewPackage.View.updateGridView">
<polygon fill="white" stroke="black" points="226.5,-27.5 226.5,-46.5 405.5,-46.5 405.5,-27.5 226.5,-27.5"/>
<text text-anchor="middle" x="316" y="-34.5" font-family="Helvetica,sans-Serif" font-size="10.00">viewPackage.View.updateGridView</text>
</a>
</g>
</g>
<!-- Node1&#45;&gt;Node2 -->
<g id="edge1" class="edge"><title>Node1&#45;&gt;Node2</title>
<path fill="none" stroke="midnightblue" d="M200.366,-37C209.1,-37 217.878,-37 226.477,-37"/>
<polygon fill="midnightblue" stroke="midnightblue" points="200.147,-33.5001 190.147,-37 200.147,-40.5001 200.147,-33.5001"/>
</g>
<!-- Node3 -->
<g id="node3" class="node"><title>Node3</title>
<g id="a_node3"><a xlink:href="../../d9/df7/classcontroller_1_1_controller.html#aa8fee9e96592dabbb151850b562d9ec0" target="_top" xlink:title="controller.Controller.step\lSimulation">
<polygon fill="white" stroke="black" points="449,-44 449,-74 583,-74 583,-44 449,-44"/>
<text text-anchor="start" x="457" y="-62" font-family="Helvetica,sans-Serif" font-size="10.00">controller.Controller.step</text>
<text text-anchor="middle" x="516" y="-51" font-family="Helvetica,sans-Serif" font-size="10.00">Simulation</text>
</a>
</g>
</g>
<!-- Node2&#45;&gt;Node3 -->
<g id="edge2" class="edge"><title>Node2&#45;&gt;Node3</title>
<path fill="none" stroke="midnightblue" d="M412.892,-47.6547C425.07,-49.0078 437.31,-50.3678 448.875,-51.6528"/>
<polygon fill="midnightblue" stroke="midnightblue" points="413.019,-44.1474 402.694,-46.5216 412.246,-51.1046 413.019,-44.1474"/>
</g>
<!-- Node11 -->
<g id="node11" class="node"><title>Node11</title>
<g id="a_node11"><a xlink:href="../../d9/df7/classcontroller_1_1_controller.html#af7cc9ab6dfe60da36d3159eea48882db" target="_top" xlink:title="controller.Controller.loadFile">
<polygon fill="white" stroke="black" points="442,-5.5 442,-24.5 590,-24.5 590,-5.5 442,-5.5"/>
<text text-anchor="middle" x="516" y="-12.5" font-family="Helvetica,sans-Serif" font-size="10.00">controller.Controller.loadFile</text>
</a>
</g>
</g>
<!-- Node2&#45;&gt;Node11 -->
<g id="edge12" class="edge"><title>Node2&#45;&gt;Node11</title>
<path fill="none" stroke="midnightblue" d="M412.845,-26.3505C422.616,-25.2649 432.428,-24.1747 441.899,-23.1223"/>
<polygon fill="midnightblue" stroke="midnightblue" points="412.246,-22.8954 402.694,-27.4784 413.019,-29.8526 412.246,-22.8954"/>
</g>
<!-- Node4 -->
<g id="node4" class="node"><title>Node4</title>
<g id="a_node4"><a xlink:href="../../d9/df7/classcontroller_1_1_controller.html#ae859ed2fba4e22871428ec51f7d4c07d" target="_top" xlink:title="controller.Controller.play\lSimulation">
<polygon fill="white" stroke="black" points="630,-88 630,-118 762,-118 762,-88 630,-88"/>
<text text-anchor="start" x="638" y="-106" font-family="Helvetica,sans-Serif" font-size="10.00">controller.Controller.play</text>
<text text-anchor="middle" x="696" y="-95" font-family="Helvetica,sans-Serif" font-size="10.00">Simulation</text>
</a>
</g>
</g>
<!-- Node3&#45;&gt;Node4 -->
<g id="edge3" class="edge"><title>Node3&#45;&gt;Node4</title>
<path fill="none" stroke="midnightblue" d="M587.737,-76.4855C603.117,-80.2873 619.257,-84.277 634.212,-87.9738"/>
<polygon fill="midnightblue" stroke="midnightblue" points="588.307,-73.0213 577.76,-74.0192 586.628,-79.8167 588.307,-73.0213"/>
</g>
<!-- Node10 -->
<g id="node10" class="node"><title>Node10</title>
<g id="a_node10"><a xlink:href="../../d1/dbf/classview_package_1_1_view.html#acec783d5c91d6cb27da271e46588e79f" target="_top" xlink:title="viewPackage.View.setStep\lSimulation">
<polygon fill="white" stroke="black" points="992.5,-44 992.5,-74 1133.5,-74 1133.5,-44 992.5,-44"/>
<text text-anchor="start" x="1000.5" y="-62" font-family="Helvetica,sans-Serif" font-size="10.00">viewPackage.View.setStep</text>
<text text-anchor="middle" x="1063" y="-51" font-family="Helvetica,sans-Serif" font-size="10.00">Simulation</text>
</a>
</g>
</g>
<!-- Node3&#45;&gt;Node10 -->
<g id="edge10" class="edge"><title>Node3&#45;&gt;Node10</title>
<path fill="none" stroke="midnightblue" d="M593.319,-59C699.372,-59 889.794,-59 992.236,-59"/>
<polygon fill="midnightblue" stroke="midnightblue" points="593.011,-55.5001 583.011,-59 593.011,-62.5001 593.011,-55.5001"/>
</g>
<!-- Node5 -->
<g id="node5" class="node"><title>Node5</title>
<g id="a_node5"><a xlink:href="../../d9/df7/classcontroller_1_1_controller.html#a37d9d1d84d304a9d94d7666322b7c6ab" target="_top" xlink:title="controller.Controller.change\lSpeed">
<polygon fill="white" stroke="black" points="805,-129 805,-159 953,-159 953,-129 805,-129"/>
<text text-anchor="start" x="813" y="-147" font-family="Helvetica,sans-Serif" font-size="10.00">controller.Controller.change</text>
<text text-anchor="middle" x="879" y="-136" font-family="Helvetica,sans-Serif" font-size="10.00">Speed</text>
</a>
</g>
</g>
<!-- Node4&#45;&gt;Node5 -->
<g id="edge4" class="edge"><title>Node4&#45;&gt;Node5</title>
<path fill="none" stroke="midnightblue" d="M772.035,-119.997C785.18,-122.974 798.773,-126.054 811.662,-128.973"/>
<polygon fill="midnightblue" stroke="midnightblue" points="772.616,-116.54 762.089,-117.744 771.069,-123.367 772.616,-116.54"/>
</g>
<!-- Node6 -->
<g id="node6" class="node"><title>Node6</title>
<g id="a_node6"><a xlink:href="../../d1/dbf/classview_package_1_1_view.html#a1d1a8e16ae622c0d6a66cd9c516672a6" target="_top" xlink:title="viewPackage.View.setPlay\lAction">
<polygon fill="white" stroke="black" points="994,-93 994,-123 1132,-123 1132,-93 994,-93"/>
<text text-anchor="start" x="1002" y="-111" font-family="Helvetica,sans-Serif" font-size="10.00">viewPackage.View.setPlay</text>
<text text-anchor="middle" x="1063" y="-100" font-family="Helvetica,sans-Serif" font-size="10.00">Action</text>
</a>
</g>
</g>
<!-- Node4&#45;&gt;Node6 -->
<g id="edge9" class="edge"><title>Node4&#45;&gt;Node6</title>
<path fill="none" stroke="midnightblue" d="M772.464,-104.034C837.638,-104.927 930.979,-106.205 993.906,-107.067"/>
<polygon fill="midnightblue" stroke="midnightblue" points="772.302,-100.531 762.255,-103.894 772.206,-107.531 772.302,-100.531"/>
</g>
<!-- Node5&#45;&gt;Node6 -->
<g id="edge5" class="edge"><title>Node5&#45;&gt;Node6</title>
<path fill="none" stroke="midnightblue" d="M963.077,-127.567C973.399,-125.525 983.859,-123.457 993.919,-121.467"/>
<polygon fill="midnightblue" stroke="midnightblue" points="962.37,-124.139 953.24,-129.513 963.729,-131.006 962.37,-124.139"/>
</g>
<!-- Node7 -->
<g id="node7" class="node"><title>Node7</title>
<g id="a_node7"><a xlink:href="../../dc/d2c/classview_package_1_1_button_box.html#a9756fc46a96c169ce48a1867bd2c82f5" target="_top" xlink:title="viewPackage.ButtonBox.make\lButtonBox">
<polygon fill="white" stroke="black" points="1170,-44 1170,-74 1330,-74 1330,-44 1170,-44"/>
<text text-anchor="start" x="1178" y="-62" font-family="Helvetica,sans-Serif" font-size="10.00">viewPackage.ButtonBox.make</text>
<text text-anchor="middle" x="1250" y="-51" font-family="Helvetica,sans-Serif" font-size="10.00">ButtonBox</text>
</a>
</g>
</g>
<!-- Node6&#45;&gt;Node7 -->
<g id="edge6" class="edge"><title>Node6&#45;&gt;Node7</title>
<path fill="none" stroke="midnightblue" d="M1130.54,-90.3771C1150.78,-85.0163 1172.82,-79.1775 1192.34,-74.0062"/>
<polygon fill="midnightblue" stroke="midnightblue" points="1129.53,-87.0216 1120.76,-92.9654 1131.33,-93.7883 1129.53,-87.0216"/>
</g>
<!-- Node8 -->
<g id="node8" class="node"><title>Node8</title>
<g id="a_node8"><a xlink:href="../../d1/dbf/classview_package_1_1_view.html#af6f6887ef253ae0fba2634e367b95312" target="_top" xlink:title="viewPackage.View.initialize">
<polygon fill="white" stroke="black" points="1366,-49.5 1366,-68.5 1508,-68.5 1508,-49.5 1366,-49.5"/>
<text text-anchor="middle" x="1437" y="-56.5" font-family="Helvetica,sans-Serif" font-size="10.00">viewPackage.View.initialize</text>
</a>
</g>
</g>
<!-- Node7&#45;&gt;Node8 -->
<g id="edge7" class="edge"><title>Node7&#45;&gt;Node8</title>
<path fill="none" stroke="midnightblue" d="M1340.33,-59C1348.93,-59 1357.57,-59 1365.95,-59"/>
<polygon fill="midnightblue" stroke="midnightblue" points="1340.26,-55.5001 1330.26,-59 1340.26,-62.5001 1340.26,-55.5001"/>
</g>
<!-- Node9 -->
<g id="node9" class="node"><title>Node9</title>
<g id="a_node9"><a xlink:href="../../d9/df7/classcontroller_1_1_controller.html#a4dbfef3e3e30bd1bb84df7a6b24ad1e7" target="_top" xlink:title="controller.Controller.Controller">
<polygon fill="white" stroke="black" points="1544.5,-49.5 1544.5,-68.5 1703.5,-68.5 1703.5,-49.5 1544.5,-49.5"/>
<text text-anchor="middle" x="1624" y="-56.5" font-family="Helvetica,sans-Serif" font-size="10.00">controller.Controller.Controller</text>
</a>
</g>
</g>
<!-- Node8&#45;&gt;Node9 -->
<g id="edge8" class="edge"><title>Node8&#45;&gt;Node9</title>
<path fill="none" stroke="midnightblue" d="M1518.31,-59C1527,-59 1535.83,-59 1544.49,-59"/>
<polygon fill="midnightblue" stroke="midnightblue" points="1518.2,-55.5001 1508.2,-59 1518.2,-62.5001 1518.2,-55.5001"/>
</g>
<!-- Node10&#45;&gt;Node7 -->
<g id="edge11" class="edge"><title>Node10&#45;&gt;Node7</title>
<path fill="none" stroke="midnightblue" d="M1143.72,-59C1152.35,-59 1161.14,-59 1169.76,-59"/>
<polygon fill="midnightblue" stroke="midnightblue" points="1143.68,-55.5001 1133.68,-59 1143.68,-62.5001 1143.68,-55.5001"/>
</g>
<!-- Node12 -->
<g id="node12" class="node"><title>Node12</title>
<g id="a_node12"><a xlink:href="../../d1/dbf/classview_package_1_1_view.html#a718e5f42ae85512916198548e28477c7" target="_top" xlink:title="viewPackage.View.tryLoad">
<polygon fill="white" stroke="black" points="626,-5.5 626,-24.5 766,-24.5 766,-5.5 626,-5.5"/>
<text text-anchor="middle" x="696" y="-12.5" font-family="Helvetica,sans-Serif" font-size="10.00">viewPackage.View.tryLoad</text>
</a>
</g>
</g>
<!-- Node11&#45;&gt;Node12 -->
<g id="edge13" class="edge"><title>Node11&#45;&gt;Node12</title>
<path fill="none" stroke="midnightblue" d="M600.193,-15C608.776,-15 617.431,-15 625.838,-15"/>
<polygon fill="midnightblue" stroke="midnightblue" points="600.17,-11.5001 590.17,-15 600.17,-18.5001 600.17,-11.5001"/>
</g>
<!-- Node13 -->
<g id="node13" class="node"><title>Node13</title>
<g id="a_node13"><a xlink:href="../../dc/d2c/classview_package_1_1_button_box.html#aef53bd97c4407ecd3fb5dfbf42850a46" target="_top" xlink:title="viewPackage.ButtonBox.load\lFileBox">
<polygon fill="white" stroke="black" points="802.5,-0 802.5,-30 955.5,-30 955.5,-0 802.5,-0"/>
<text text-anchor="start" x="810.5" y="-18" font-family="Helvetica,sans-Serif" font-size="10.00">viewPackage.ButtonBox.load</text>
<text text-anchor="middle" x="879" y="-7" font-family="Helvetica,sans-Serif" font-size="10.00">FileBox</text>
</a>
</g>
</g>
<!-- Node12&#45;&gt;Node13 -->
<g id="edge14" class="edge"><title>Node12&#45;&gt;Node13</title>
<path fill="none" stroke="midnightblue" d="M776.241,-15C784.863,-15 793.623,-15 802.201,-15"/>
<polygon fill="midnightblue" stroke="midnightblue" points="776.203,-11.5001 766.203,-15 776.203,-18.5001 776.203,-11.5001"/>
</g>
<!-- Node13&#45;&gt;Node7 -->
<g id="edge15" class="edge"><title>Node13&#45;&gt;Node7</title>
<path fill="none" stroke="midnightblue" d="M965.608,-18.4268C1015.01,-21.1467 1078.22,-25.891 1134,-34 1151.49,-36.5425 1170.29,-40.2211 1187.52,-43.9777"/>
<polygon fill="midnightblue" stroke="midnightblue" points="965.772,-14.9307 955.6,-17.893 965.399,-21.9207 965.772,-14.9307"/>
</g>
</g>
</svg>
