<?xml version="1.0" encoding="UTF-8" standalone="no"?>
<!DOCTYPE svg PUBLIC "-//W3C//DTD SVG 1.1//EN"
 "http://www.w3.org/Graphics/SVG/1.1/DTD/svg11.dtd">
<!-- Generated by graphviz version 2.36.0 (20140111.2315)
 -->
<!-- Title: viewPackage.DisplayGrid.updateGrid Pages: 1 -->
<svg width="398pt" height="77pt"
 viewBox="0.00 0.00 398.00 77.00" xmlns="http://www.w3.org/2000/svg" xmlns:xlink="http://www.w3.org/1999/xlink">
<g id="graph0" class="graph" transform="scale(1 1) rotate(0) translate(4 73)">
<title>viewPackage.DisplayGrid.updateGrid</title>
<polygon fill="white" stroke="none" points="-4,4 -4,-73 394,-73 394,4 -4,4"/>
<!-- Node1 -->
<g id="node1" class="node"><title>Node1</title>
<polygon fill="#bfbfbf" stroke="black" points="0,-22.5 0,-41.5 190,-41.5 190,-22.5 0,-22.5"/>
<text text-anchor="middle" x="95" y="-29.5" font-family="Helvetica,sans-Serif" font-size="10.00">viewPackage.DisplayGrid.updateGrid</text>
</g>
<!-- Node2 -->
<g id="node2" class="node"><title>Node2</title>
<g id="a_node2"><a xlink:href="../../d2/d2c/classcontroller_1_1_view_packager.html#a1e8974daf2095f568a390c63173683c7" target="_top" xlink:title="controller.ViewPackager.get\lColorGrid">
<polygon fill="white" stroke="black" points="234.5,-39 234.5,-69 381.5,-69 381.5,-39 234.5,-39"/>
<text text-anchor="start" x="242.5" y="-57" font-family="Helvetica,sans-Serif" font-size="10.00">controller.ViewPackager.get</text>
<text text-anchor="middle" x="308" y="-46" font-family="Helvetica,sans-Serif" font-size="10.00">ColorGrid</text>
</a>
</g>
</g>
<!-- Node1&#45;&gt;Node2 -->
<g id="edge1" class="edge"><title>Node1&#45;&gt;Node2</title>
<path fill="none" stroke="midnightblue" d="M187.32,-41.5216C199.589,-42.8008 212.119,-44.1072 224.229,-45.3698"/>
<polygon fill="midnightblue" stroke="midnightblue" points="223.979,-48.8626 234.288,-46.4186 224.705,-41.9004 223.979,-48.8626"/>
</g>
<!-- Node3 -->
<g id="node3" class="node"><title>Node3</title>
<g id="a_node3"><a xlink:href="../../df/dcf/classview_package_1_1_display_grid.html#abcfcacf1767533f216fca38abf791804" target="_top" xlink:title="viewPackage.DisplayGrid.setFill">
<polygon fill="white" stroke="black" points="226.5,-0.5 226.5,-19.5 389.5,-19.5 389.5,-0.5 226.5,-0.5"/>
<text text-anchor="middle" x="308" y="-7.5" font-family="Helvetica,sans-Serif" font-size="10.00">viewPackage.DisplayGrid.setFill</text>
</a>
</g>
</g>
<!-- Node1&#45;&gt;Node3 -->
<g id="edge2" class="edge"><title>Node1&#45;&gt;Node3</title>
<path fill="none" stroke="midnightblue" d="M187.32,-22.4784C196.992,-21.47 206.826,-20.4447 216.488,-19.4373"/>
<polygon fill="midnightblue" stroke="midnightblue" points="216.898,-22.9136 226.481,-18.3954 216.172,-15.9513 216.898,-22.9136"/>
</g>
</g>
</svg>
