<?xml version="1.0" encoding="UTF-8" standalone="no"?>
<!DOCTYPE svg PUBLIC "-//W3C//DTD SVG 1.1//EN"
 "http://www.w3.org/Graphics/SVG/1.1/DTD/svg11.dtd">
<!-- Generated by graphviz version 2.36.0 (20140111.2315)
 -->
<!-- Title: viewPackage.DisplayGrid.determineYlength Pages: 1 -->
<svg width="1754pt" height="38pt"
 viewBox="0.00 0.00 1754.00 38.00" xmlns="http://www.w3.org/2000/svg" xmlns:xlink="http://www.w3.org/1999/xlink">
<g id="graph0" class="graph" transform="scale(1 1) rotate(0) translate(4 34)">
<title>viewPackage.DisplayGrid.determineYlength</title>
<polygon fill="white" stroke="none" points="-4,4 -4,-34 1750,-34 1750,4 -4,4"/>
<!-- Node1 -->
<g id="node1" class="node"><title>Node1</title>
<polygon fill="#bfbfbf" stroke="black" points="0,-0 0,-30 186,-30 186,-0 0,-0"/>
<text text-anchor="start" x="8" y="-18" font-family="Helvetica,sans-Serif" font-size="10.00">viewPackage.DisplayGrid.determine</text>
<text text-anchor="middle" x="93" y="-7" font-family="Helvetica,sans-Serif" font-size="10.00">Ylength</text>
</g>
<!-- Node2 -->
<g id="node2" class="node"><title>Node2</title>
<g id="a_node2"><a xlink:href="../../df/dcf/classview_package_1_1_display_grid.html#a5ec8bada84cea7265f0a46ccc1c45686" target="_top" xlink:title="viewPackage.DisplayGrid.initialize\lGridView">
<polygon fill="white" stroke="black" points="222.5,-0 222.5,-30 397.5,-30 397.5,-0 222.5,-0"/>
<text text-anchor="start" x="230.5" y="-18" font-family="Helvetica,sans-Serif" font-size="10.00">viewPackage.DisplayGrid.initialize</text>
<text text-anchor="middle" x="310" y="-7" font-family="Helvetica,sans-Serif" font-size="10.00">GridView</text>
</a>
</g>
</g>
<!-- Node1&#45;&gt;Node2 -->
<g id="edge1" class="edge"><title>Node1&#45;&gt;Node2</title>
<path fill="none" stroke="midnightblue" d="M196.26,-15C204.932,-15 213.65,-15 222.186,-15"/>
<polygon fill="midnightblue" stroke="midnightblue" points="196.115,-11.5001 186.115,-15 196.115,-18.5001 196.115,-11.5001"/>
</g>
<!-- Node3 -->
<g id="node3" class="node"><title>Node3</title>
<g id="a_node3"><a xlink:href="../../d1/dbf/classview_package_1_1_view.html#a463e5a91c22eba013dfe816c7c318e37" target="_top" xlink:title="viewPackage.View.createDisplayView">
<polygon fill="white" stroke="black" points="434.5,-5.5 434.5,-24.5 625.5,-24.5 625.5,-5.5 434.5,-5.5"/>
<text text-anchor="middle" x="530" y="-12.5" font-family="Helvetica,sans-Serif" font-size="10.00">viewPackage.View.createDisplayView</text>
</a>
</g>
</g>
<!-- Node2&#45;&gt;Node3 -->
<g id="edge2" class="edge"><title>Node2&#45;&gt;Node3</title>
<path fill="none" stroke="midnightblue" d="M407.98,-15C416.716,-15 425.556,-15 434.272,-15"/>
<polygon fill="midnightblue" stroke="midnightblue" points="407.786,-11.5001 397.786,-15 407.786,-18.5001 407.786,-11.5001"/>
</g>
<!-- Node4 -->
<g id="node4" class="node"><title>Node4</title>
<g id="a_node4"><a xlink:href="../../d9/df7/classcontroller_1_1_controller.html#af7cc9ab6dfe60da36d3159eea48882db" target="_top" xlink:title="controller.Controller.loadFile">
<polygon fill="white" stroke="black" points="662,-5.5 662,-24.5 810,-24.5 810,-5.5 662,-5.5"/>
<text text-anchor="middle" x="736" y="-12.5" font-family="Helvetica,sans-Serif" font-size="10.00">controller.Controller.loadFile</text>
</a>
</g>
</g>
<!-- Node3&#45;&gt;Node4 -->
<g id="edge3" class="edge"><title>Node3&#45;&gt;Node4</title>
<path fill="none" stroke="midnightblue" d="M635.556,-15C644.435,-15 653.287,-15 661.845,-15"/>
<polygon fill="midnightblue" stroke="midnightblue" points="635.535,-11.5001 625.535,-15 635.535,-18.5001 635.535,-11.5001"/>
</g>
<!-- Node5 -->
<g id="node5" class="node"><title>Node5</title>
<g id="a_node5"><a xlink:href="../../d1/dbf/classview_package_1_1_view.html#a718e5f42ae85512916198548e28477c7" target="_top" xlink:title="viewPackage.View.tryLoad">
<polygon fill="white" stroke="black" points="846,-5.5 846,-24.5 986,-24.5 986,-5.5 846,-5.5"/>
<text text-anchor="middle" x="916" y="-12.5" font-family="Helvetica,sans-Serif" font-size="10.00">viewPackage.View.tryLoad</text>
</a>
</g>
</g>
<!-- Node4&#45;&gt;Node5 -->
<g id="edge4" class="edge"><title>Node4&#45;&gt;Node5</title>
<path fill="none" stroke="midnightblue" d="M820.193,-15C828.776,-15 837.431,-15 845.838,-15"/>
<polygon fill="midnightblue" stroke="midnightblue" points="820.17,-11.5001 810.17,-15 820.17,-18.5001 820.17,-11.5001"/>
</g>
<!-- Node6 -->
<g id="node6" class="node"><title>Node6</title>
<g id="a_node6"><a xlink:href="../../dc/d2c/classview_package_1_1_button_box.html#aef53bd97c4407ecd3fb5dfbf42850a46" target="_top" xlink:title="viewPackage.ButtonBox.load\lFileBox">
<polygon fill="white" stroke="black" points="1022.5,-0 1022.5,-30 1175.5,-30 1175.5,-0 1022.5,-0"/>
<text text-anchor="start" x="1030.5" y="-18" font-family="Helvetica,sans-Serif" font-size="10.00">viewPackage.ButtonBox.load</text>
<text text-anchor="middle" x="1099" y="-7" font-family="Helvetica,sans-Serif" font-size="10.00">FileBox</text>
</a>
</g>
</g>
<!-- Node5&#45;&gt;Node6 -->
<g id="edge5" class="edge"><title>Node5&#45;&gt;Node6</title>
<path fill="none" stroke="midnightblue" d="M996.241,-15C1004.86,-15 1013.62,-15 1022.2,-15"/>
<polygon fill="midnightblue" stroke="midnightblue" points="996.203,-11.5001 986.203,-15 996.203,-18.5001 996.203,-11.5001"/>
</g>
<!-- Node7 -->
<g id="node7" class="node"><title>Node7</title>
<g id="a_node7"><a xlink:href="../../dc/d2c/classview_package_1_1_button_box.html#a9756fc46a96c169ce48a1867bd2c82f5" target="_top" xlink:title="viewPackage.ButtonBox.make\lButtonBox">
<polygon fill="white" stroke="black" points="1212,-0 1212,-30 1372,-30 1372,-0 1212,-0"/>
<text text-anchor="start" x="1220" y="-18" font-family="Helvetica,sans-Serif" font-size="10.00">viewPackage.ButtonBox.make</text>
<text text-anchor="middle" x="1292" y="-7" font-family="Helvetica,sans-Serif" font-size="10.00">ButtonBox</text>
</a>
</g>
</g>
<!-- Node6&#45;&gt;Node7 -->
<g id="edge6" class="edge"><title>Node6&#45;&gt;Node7</title>
<path fill="none" stroke="midnightblue" d="M1185.86,-15C1194.53,-15 1203.29,-15 1211.88,-15"/>
<polygon fill="midnightblue" stroke="midnightblue" points="1185.76,-11.5001 1175.76,-15 1185.76,-18.5001 1185.76,-11.5001"/>
</g>
<!-- Node8 -->
<g id="node8" class="node"><title>Node8</title>
<g id="a_node8"><a xlink:href="../../d1/dbf/classview_package_1_1_view.html#af6f6887ef253ae0fba2634e367b95312" target="_top" xlink:title="viewPackage.View.initialize">
<polygon fill="white" stroke="black" points="1408,-5.5 1408,-24.5 1550,-24.5 1550,-5.5 1408,-5.5"/>
<text text-anchor="middle" x="1479" y="-12.5" font-family="Helvetica,sans-Serif" font-size="10.00">viewPackage.View.initialize</text>
</a>
</g>
</g>
<!-- Node7&#45;&gt;Node8 -->
<g id="edge7" class="edge"><title>Node7&#45;&gt;Node8</title>
<path fill="none" stroke="midnightblue" d="M1382.33,-15C1390.93,-15 1399.57,-15 1407.95,-15"/>
<polygon fill="midnightblue" stroke="midnightblue" points="1382.26,-11.5001 1372.26,-15 1382.26,-18.5001 1382.26,-11.5001"/>
</g>
<!-- Node9 -->
<g id="node9" class="node"><title>Node9</title>
<g id="a_node9"><a xlink:href="../../d9/df7/classcontroller_1_1_controller.html#a4dbfef3e3e30bd1bb84df7a6b24ad1e7" target="_top" xlink:title="controller.Controller.Controller">
<polygon fill="white" stroke="black" points="1586.5,-5.5 1586.5,-24.5 1745.5,-24.5 1745.5,-5.5 1586.5,-5.5"/>
<text text-anchor="middle" x="1666" y="-12.5" font-family="Helvetica,sans-Serif" font-size="10.00">controller.Controller.Controller</text>
</a>
</g>
</g>
<!-- Node8&#45;&gt;Node9 -->
<g id="edge8" class="edge"><title>Node8&#45;&gt;Node9</title>
<path fill="none" stroke="midnightblue" d="M1560.31,-15C1569,-15 1577.83,-15 1586.49,-15"/>
<polygon fill="midnightblue" stroke="midnightblue" points="1560.2,-11.5001 1550.2,-15 1560.2,-18.5001 1560.2,-11.5001"/>
</g>
</g>
</svg>
