<?xml version="1.0" encoding="UTF-8" standalone="no"?>
<!DOCTYPE svg PUBLIC "-//W3C//DTD SVG 1.1//EN"
 "http://www.w3.org/Graphics/SVG/1.1/DTD/svg11.dtd">
<!-- Generated by graphviz version 2.36.0 (20140111.2315)
 -->
<!-- Title: model.SegregationSimulation Pages: 1 -->
<svg width="498pt" height="310pt"
 viewBox="0.00 0.00 498.00 310.00" xmlns="http://www.w3.org/2000/svg" xmlns:xlink="http://www.w3.org/1999/xlink">
<g id="graph0" class="graph" transform="scale(1 1) rotate(0) translate(4 306)">
<title>model.SegregationSimulation</title>
<polygon fill="white" stroke="none" points="-4,4 -4,-306 494,-306 494,4 -4,4"/>
<!-- Node1 -->
<g id="node1" class="node"><title>Node1</title>
<polygon fill="#bfbfbf" stroke="black" points="222.5,-0.5 222.5,-19.5 381.5,-19.5 381.5,-0.5 222.5,-0.5"/>
<text text-anchor="middle" x="302" y="-7.5" font-family="Helvetica,sans-Serif" font-size="10.00">model.SegregationSimulation</text>
</g>
<!-- Node2 -->
<g id="node2" class="node"><title>Node2</title>
<g id="a_node2"><a xlink:href="../../d2/d17/classmodel_1_1_simulation.html" target="_top" xlink:title="model.Simulation">
<polygon fill="white" stroke="black" points="117.5,-68.5 117.5,-87.5 218.5,-87.5 218.5,-68.5 117.5,-68.5"/>
<text text-anchor="middle" x="168" y="-75.5" font-family="Helvetica,sans-Serif" font-size="10.00">model.Simulation</text>
</a>
</g>
</g>
<!-- Node2&#45;&gt;Node1 -->
<g id="edge1" class="edge"><title>Node2&#45;&gt;Node1</title>
<path fill="none" stroke="midnightblue" d="M194.674,-63.8621C221.348,-50.7239 261.603,-30.8969 284.478,-19.6305"/>
<polygon fill="midnightblue" stroke="midnightblue" points="192.943,-60.8133 185.518,-68.3717 196.036,-67.0929 192.943,-60.8133"/>
</g>
<!-- Node3 -->
<g id="node3" class="node"><title>Node3</title>
<g id="a_node3"><a xlink:href="../../dc/d8f/classmodel_1_1_grid.html" target="_top" xlink:title="model.Grid">
<polygon fill="white" stroke="black" points="93.5,-146.5 93.5,-165.5 162.5,-165.5 162.5,-146.5 93.5,-146.5"/>
<text text-anchor="middle" x="128" y="-153.5" font-family="Helvetica,sans-Serif" font-size="10.00">model.Grid</text>
</a>
</g>
</g>
<!-- Node3&#45;&gt;Node2 -->
<g id="edge2" class="edge"><title>Node3&#45;&gt;Node2</title>
<path fill="none" stroke="#9a32cd" stroke-dasharray="5,2" d="M124.502,-136.34C123.63,-126.738 124.081,-115.159 129,-106 133.286,-98.0194 141.089,-91.9121 148.596,-87.5416"/>
<polygon fill="#9a32cd" stroke="#9a32cd" points="121.066,-137.036 125.946,-146.44 127.996,-136.046 121.066,-137.036"/>
<text text-anchor="middle" x="158" y="-120" font-family="Helvetica,sans-Serif" font-size="10.00"> currentGrid</text>
<text text-anchor="middle" x="158" y="-109" font-family="Helvetica,sans-Serif" font-size="10.00">nextGrid</text>
</g>
<!-- Node4 -->
<g id="node4" class="node"><title>Node4</title>
<g id="a_node4"><a xlink:href="../../d3/d57/classmodel_1_1_cell.html" target="_top" xlink:title="model.Cell">
<polygon fill="white" stroke="black" points="94.5,-214.5 94.5,-233.5 161.5,-233.5 161.5,-214.5 94.5,-214.5"/>
<text text-anchor="middle" x="128" y="-221.5" font-family="Helvetica,sans-Serif" font-size="10.00">model.Cell</text>
</a>
</g>
</g>
<!-- Node4&#45;&gt;Node3 -->
<g id="edge3" class="edge"><title>Node4&#45;&gt;Node3</title>
<path fill="none" stroke="#9a32cd" stroke-dasharray="5,2" d="M128,-204.041C128,-191.472 128,-175.563 128,-165.841"/>
<polygon fill="#9a32cd" stroke="#9a32cd" points="124.5,-204.372 128,-214.372 131.5,-204.372 124.5,-204.372"/>
<text text-anchor="middle" x="148.5" y="-187.5" font-family="Helvetica,sans-Serif" font-size="10.00"> myCells</text>
</g>
<!-- Node5 -->
<g id="node5" class="node"><title>Node5</title>
<polygon fill="white" stroke="#bfbfbf" points="0,-282.5 0,-301.5 128,-301.5 128,-282.5 0,-282.5"/>
<text text-anchor="middle" x="64" y="-289.5" font-family="Helvetica,sans-Serif" font-size="10.00">Map&lt; String, Integer &gt;</text>
</g>
<!-- Node5&#45;&gt;Node4 -->
<g id="edge4" class="edge"><title>Node5&#45;&gt;Node4</title>
<path fill="none" stroke="#9a32cd" stroke-dasharray="5,2" d="M79.4692,-275.047C92.0135,-262.111 109.23,-244.357 119.427,-233.841"/>
<polygon fill="#9a32cd" stroke="#9a32cd" points="76.8157,-272.756 72.3669,-282.372 81.841,-277.629 76.8157,-272.756"/>
<text text-anchor="middle" x="128" y="-255.5" font-family="Helvetica,sans-Serif" font-size="10.00"> properties</text>
</g>
<!-- Node6 -->
<g id="node6" class="node"><title>Node6</title>
<g id="a_node6"><a xlink:href="../../d0/d76/enummodel_1_1_cell_state.html" target="_top" xlink:title="model.CellState">
<polygon fill="white" stroke="black" points="146.5,-282.5 146.5,-301.5 239.5,-301.5 239.5,-282.5 146.5,-282.5"/>
<text text-anchor="middle" x="193" y="-289.5" font-family="Helvetica,sans-Serif" font-size="10.00">model.CellState</text>
</a>
</g>
</g>
<!-- Node6&#45;&gt;Node4 -->
<g id="edge5" class="edge"><title>Node6&#45;&gt;Node4</title>
<path fill="none" stroke="#9a32cd" stroke-dasharray="5,2" d="M179.091,-274.731C172.816,-267.595 165.208,-259.218 158,-252 151.662,-245.653 144.162,-238.903 138.247,-233.74"/>
<polygon fill="#9a32cd" stroke="#9a32cd" points="176.543,-277.135 185.741,-282.394 181.83,-272.547 176.543,-277.135"/>
<text text-anchor="middle" x="183" y="-255.5" font-family="Helvetica,sans-Serif" font-size="10.00"> state</text>
</g>
<!-- Node7 -->
<g id="node7" class="node"><title>Node7</title>
<polygon fill="white" stroke="#bfbfbf" points="181,-146.5 181,-165.5 237,-165.5 237,-146.5 181,-146.5"/>
<text text-anchor="middle" x="209" y="-153.5" font-family="Helvetica,sans-Serif" font-size="10.00">Random</text>
</g>
<!-- Node7&#45;&gt;Node2 -->
<g id="edge6" class="edge"><title>Node7&#45;&gt;Node2</title>
<path fill="none" stroke="#9a32cd" stroke-dasharray="5,2" d="M201.86,-136.919C197.895,-127.49 192.632,-115.891 187,-106 183.37,-99.6244 178.62,-92.8744 174.777,-87.7183"/>
<polygon fill="#9a32cd" stroke="#9a32cd" points="198.723,-138.495 205.736,-146.437 205.206,-135.855 198.723,-138.495"/>
<text text-anchor="middle" x="231.5" y="-114.5" font-family="Helvetica,sans-Serif" font-size="10.00"> myGenerator</text>
</g>
<!-- Node8 -->
<g id="node8" class="node"><title>Node8</title>
<polygon fill="white" stroke="#bfbfbf" points="236.5,-68.5 236.5,-87.5 367.5,-87.5 367.5,-68.5 236.5,-68.5"/>
<text text-anchor="middle" x="302" y="-75.5" font-family="Helvetica,sans-Serif" font-size="10.00">ArrayList&lt; model.Cell &gt;</text>
</g>
<!-- Node8&#45;&gt;Node1 -->
<g id="edge7" class="edge"><title>Node8&#45;&gt;Node1</title>
<path fill="none" stroke="#9a32cd" stroke-dasharray="5,2" d="M302,-58.0413C302,-45.4724 302,-29.5631 302,-19.8411"/>
<polygon fill="#9a32cd" stroke="#9a32cd" points="298.5,-58.3716 302,-68.3717 305.5,-58.3717 298.5,-58.3716"/>
<text text-anchor="middle" x="332" y="-41.5" font-family="Helvetica,sans-Serif" font-size="10.00"> cellsToMove</text>
</g>
<!-- Node9 -->
<g id="node9" class="node"><title>Node9</title>
<polygon fill="white" stroke="#bfbfbf" points="385.5,-68.5 385.5,-87.5 490.5,-87.5 490.5,-68.5 385.5,-68.5"/>
<text text-anchor="middle" x="438" y="-75.5" font-family="Helvetica,sans-Serif" font-size="10.00">ArrayList&lt; Point &gt;</text>
</g>
<!-- Node9&#45;&gt;Node1 -->
<g id="edge8" class="edge"><title>Node9&#45;&gt;Node1</title>
<path fill="none" stroke="#9a32cd" stroke-dasharray="5,2" d="M414.159,-63.3295C400.279,-55.5625 382.346,-45.8522 366,-38 352.195,-31.3684 336.336,-24.6716 323.859,-19.6065"/>
<polygon fill="#9a32cd" stroke="#9a32cd" points="412.622,-66.4812 423.051,-68.3495 416.064,-60.3855 412.622,-66.4812"/>
<text text-anchor="middle" x="421.5" y="-41.5" font-family="Helvetica,sans-Serif" font-size="10.00"> emptyPlaces</text>
</g>
</g>
</svg>
