<?xml version="1.0" encoding="UTF-8" standalone="no"?>
<!DOCTYPE svg PUBLIC "-//W3C//DTD SVG 1.1//EN"
 "http://www.w3.org/Graphics/SVG/1.1/DTD/svg11.dtd">
<!-- Generated by graphviz version 2.36.0 (20140111.2315)
 -->
<!-- Title: controller.ViewPackager Pages: 1 -->
<svg width="266pt" height="108pt"
 viewBox="0.00 0.00 266.00 108.00" xmlns="http://www.w3.org/2000/svg" xmlns:xlink="http://www.w3.org/1999/xlink">
<g id="graph0" class="graph" transform="scale(1 1) rotate(0) translate(4 104)">
<title>controller.ViewPackager</title>
<polygon fill="white" stroke="none" points="-4,4 -4,-104 262,-104 262,4 -4,4"/>
<!-- Node1 -->
<g id="node1" class="node"><title>Node1</title>
<polygon fill="#bfbfbf" stroke="black" points="60.5,-0.5 60.5,-19.5 189.5,-19.5 189.5,-0.5 60.5,-0.5"/>
<text text-anchor="middle" x="125" y="-7.5" font-family="Helvetica,sans-Serif" font-size="10.00">controller.ViewPackager</text>
</g>
<!-- Node2 -->
<g id="node2" class="node"><title>Node2</title>
<polygon fill="white" stroke="#bfbfbf" points="0,-69 0,-99 112,-99 112,-69 0,-69"/>
<text text-anchor="start" x="8" y="-87" font-family="Helvetica,sans-Serif" font-size="10.00">ArrayList&lt; ArrayList</text>
<text text-anchor="middle" x="56" y="-76" font-family="Helvetica,sans-Serif" font-size="10.00">&lt; String &gt; &gt;</text>
</g>
<!-- Node2&#45;&gt;Node1 -->
<g id="edge1" class="edge"><title>Node2&#45;&gt;Node1</title>
<path fill="none" stroke="#9a32cd" stroke-dasharray="5,2" d="M76.658,-61.4438C90.0374,-47.4827 106.746,-30.0473 116.606,-19.7589"/>
<polygon fill="#9a32cd" stroke="#9a32cd" points="74.0243,-59.1335 69.6322,-68.7751 79.0782,-63.9769 74.0243,-59.1335"/>
<text text-anchor="middle" x="122" y="-41.5" font-family="Helvetica,sans-Serif" font-size="10.00"> colorGrid</text>
</g>
<!-- Node3 -->
<g id="node3" class="node"><title>Node3</title>
<polygon fill="white" stroke="#bfbfbf" points="130,-74.5 130,-93.5 258,-93.5 258,-74.5 130,-74.5"/>
<text text-anchor="middle" x="194" y="-81.5" font-family="Helvetica,sans-Serif" font-size="10.00">Map&lt; String, Integer &gt;</text>
</g>
<!-- Node3&#45;&gt;Node1 -->
<g id="edge2" class="edge"><title>Node3&#45;&gt;Node1</title>
<path fill="none" stroke="#9a32cd" stroke-dasharray="5,2" d="M178.749,-67.0857C164.695,-52.421 144.374,-31.2168 133.176,-19.531"/>
<polygon fill="#9a32cd" stroke="#9a32cd" points="176.368,-69.6597 185.814,-74.4579 181.422,-64.8163 176.368,-69.6597"/>
<text text-anchor="middle" x="188.5" y="-41.5" font-family="Helvetica,sans-Serif" font-size="10.00"> stateTotals</text>
</g>
</g>
</svg>
