<?xml version="1.0" encoding="UTF-8" standalone="no"?>
<!DOCTYPE svg PUBLIC "-//W3C//DTD SVG 1.1//EN"
 "http://www.w3.org/Graphics/SVG/1.1/DTD/svg11.dtd">
<!-- Generated by graphviz version 2.36.0 (20140111.2315)
 -->
<!-- Title: /tmp/git/duke&#45;compsci308&#45;spring2015/cellsociety_team10/repository/src Pages: 1 -->
<svg width="358pt" height="111pt"
 viewBox="0.00 0.00 358.00 111.00" xmlns="http://www.w3.org/2000/svg" xmlns:xlink="http://www.w3.org/1999/xlink">
<g id="graph0" class="graph" transform="scale(1 1) rotate(0) translate(4 107)">
<title>/tmp/git/duke&#45;compsci308&#45;spring2015/cellsociety_team10/repository/src</title>
<polygon fill="white" stroke="none" points="-4,4 -4,-107 354,-107 354,4 -4,4"/>
<g id="clust1" class="cluster"><title>clusterdir_b22b4e8ee40adbe2194c1a3c2ebd8084</title>
<g id="a_clust1"><a xlink:href="dir_b22b4e8ee40adbe2194c1a3c2ebd8084.html" target="_top" xlink:title="repository">
<polygon fill="#ddddee" stroke="black" points="8,-8 8,-95 342,-95 342,-8 8,-8"/>
<text text-anchor="middle" x="175" y="-83" font-family="Helvetica,sans-Serif" font-size="10.00">repository</text>
</a>
</g>
</g>
<g id="clust2" class="cluster"><title>clusterdir_4d638bc8e918d84081f0da7191dace8f</title>
<g id="a_clust2"><a xlink:href="dir_4d638bc8e918d84081f0da7191dace8f.html" target="_top">
<polygon fill="#eeeeff" stroke="black" points="16,-16 16,-68 334,-68 334,-16 16,-16"/>
</a>
</g>
</g>
<!-- dir_4d638bc8e918d84081f0da7191dace8f -->
<g id="node1" class="node"><title>dir_4d638bc8e918d84081f0da7191dace8f</title>
<text text-anchor="middle" x="299" y="-39.5" font-family="Helvetica,sans-Serif" font-size="10.00">src</text>
</g>
<!-- dir_41d18efdadff54ccf5009c0154232860 -->
<g id="node2" class="node"><title>dir_41d18efdadff54ccf5009c0154232860</title>
<g id="a_node2"><a xlink:href="dir_41d18efdadff54ccf5009c0154232860.html" target="_top" xlink:title="controller">
<polygon fill="white" stroke="black" points="253.5,-60 192.5,-60 192.5,-24 253.5,-24 253.5,-60"/>
<text text-anchor="middle" x="223" y="-39.5" font-family="Helvetica,sans-Serif" font-size="10.00">controller</text>
</a>
</g>
</g>
<!-- dir_6960f02ba874352f45c93d2304a3739f -->
<g id="node3" class="node"><title>dir_6960f02ba874352f45c93d2304a3739f</title>
<g id="a_node3"><a xlink:href="dir_6960f02ba874352f45c93d2304a3739f.html" target="_top" xlink:title="model">
<polygon fill="white" stroke="black" points="174,-60 120,-60 120,-24 174,-24 174,-60"/>
<text text-anchor="middle" x="147" y="-39.5" font-family="Helvetica,sans-Serif" font-size="10.00">model</text>
</a>
</g>
</g>
<!-- dir_9ec52aeb3829b6cde19caf0ab474e391 -->
<g id="node4" class="node"><title>dir_9ec52aeb3829b6cde19caf0ab474e391</title>
<g id="a_node4"><a xlink:href="dir_9ec52aeb3829b6cde19caf0ab474e391.html" target="_top" xlink:title="viewPackage">
<polygon fill="white" stroke="black" points="101.25,-60 24.75,-60 24.75,-24 101.25,-24 101.25,-60"/>
<text text-anchor="middle" x="63" y="-39.5" font-family="Helvetica,sans-Serif" font-size="10.00">viewPackage</text>
</a>
</g>
</g>
</g>
</svg>
