<?xml version="1.0" encoding="UTF-8" standalone="no"?>
<!DOCTYPE svg PUBLIC "-//W3C//DTD SVG 1.1//EN"
 "http://www.w3.org/Graphics/SVG/1.1/DTD/svg11.dtd">
<!-- Generated by graphviz version 2.36.0 (20140111.2315)
 -->
<!-- Title: Graphical Class Hierarchy Pages: 1 -->
<svg width="306pt" height="180pt"
 viewBox="0.00 0.00 306.00 180.00" xmlns="http://www.w3.org/2000/svg" xmlns:xlink="http://www.w3.org/1999/xlink">
<g id="graph0" class="graph" transform="scale(1 1) rotate(0) translate(4 176)">
<title>Graphical Class Hierarchy</title>
<polygon fill="white" stroke="none" points="-4,4 -4,-176 302,-176 302,4 -4,4"/>
<!-- Node1 -->
<g id="node1" class="node"><title>Node1</title>
<g id="a_node1"><a xlink:href="d2/d17/classmodel_1_1_simulation.html" target="_top" xlink:title="model.Simulation">
<polygon fill="white" stroke="black" points="0.5,-76.5 0.5,-95.5 101.5,-95.5 101.5,-76.5 0.5,-76.5"/>
<text text-anchor="middle" x="51" y="-83.5" font-family="Helvetica,sans-Serif" font-size="10.00">model.Simulation</text>
</a>
</g>
</g>
<!-- Node2 -->
<g id="node2" class="node"><title>Node2</title>
<g id="a_node2"><a xlink:href="d0/dea/classmodel_1_1_fire_simulation.html" target="_top" xlink:title="model.FireSimulation">
<polygon fill="white" stroke="black" points="159.5,-152.5 159.5,-171.5 276.5,-171.5 276.5,-152.5 159.5,-152.5"/>
<text text-anchor="middle" x="218" y="-159.5" font-family="Helvetica,sans-Serif" font-size="10.00">model.FireSimulation</text>
</a>
</g>
</g>
<!-- Node1&#45;&gt;Node2 -->
<g id="edge1" class="edge"><title>Node1&#45;&gt;Node2</title>
<path fill="none" stroke="midnightblue" d="M71.3945,-101.74C88.116,-114.577 113.386,-132.282 138,-143 146.665,-146.773 156.206,-149.873 165.571,-152.393"/>
<polygon fill="midnightblue" stroke="midnightblue" points="73.5073,-98.9488 63.4782,-95.533 69.1883,-104.457 73.5073,-98.9488"/>
</g>
<!-- Node3 -->
<g id="node3" class="node"><title>Node3</title>
<g id="a_node3"><a xlink:href="da/df2/classmodel_1_1_game_life_simulation.html" target="_top" xlink:title="model.GameLifeSimulation">
<polygon fill="white" stroke="black" points="145,-114.5 145,-133.5 291,-133.5 291,-114.5 145,-114.5"/>
<text text-anchor="middle" x="218" y="-121.5" font-family="Helvetica,sans-Serif" font-size="10.00">model.GameLifeSimulation</text>
</a>
</g>
</g>
<!-- Node1&#45;&gt;Node3 -->
<g id="edge2" class="edge"><title>Node1&#45;&gt;Node3</title>
<path fill="none" stroke="midnightblue" d="M103.654,-97.8961C126.846,-103.237 153.838,-109.454 175.663,-114.48"/>
<polygon fill="midnightblue" stroke="midnightblue" points="104.167,-94.4226 93.6365,-95.589 102.596,-101.244 104.167,-94.4226"/>
</g>
<!-- Node4 -->
<g id="node4" class="node"><title>Node4</title>
<g id="a_node4"><a xlink:href="dc/d98/classmodel_1_1_segregation_simulation.html" target="_top" xlink:title="model.SegregationSimulation">
<polygon fill="white" stroke="black" points="138.5,-76.5 138.5,-95.5 297.5,-95.5 297.5,-76.5 138.5,-76.5"/>
<text text-anchor="middle" x="218" y="-83.5" font-family="Helvetica,sans-Serif" font-size="10.00">model.SegregationSimulation</text>
</a>
</g>
</g>
<!-- Node1&#45;&gt;Node4 -->
<g id="edge3" class="edge"><title>Node1&#45;&gt;Node4</title>
<path fill="none" stroke="midnightblue" d="M111.781,-86C120.372,-86 129.321,-86 138.211,-86"/>
<polygon fill="midnightblue" stroke="midnightblue" points="111.505,-82.5001 101.505,-86 111.505,-89.5001 111.505,-82.5001"/>
</g>
<!-- Node5 -->
<g id="node5" class="node"><title>Node5</title>
<g id="a_node5"><a xlink:href="df/d0b/classmodel_1_1_sugarscape_simulation.html" target="_top" xlink:title="model.SugarscapeSimulation">
<polygon fill="white" stroke="black" points="139,-38.5 139,-57.5 297,-57.5 297,-38.5 139,-38.5"/>
<text text-anchor="middle" x="218" y="-45.5" font-family="Helvetica,sans-Serif" font-size="10.00">model.SugarscapeSimulation</text>
</a>
</g>
</g>
<!-- Node1&#45;&gt;Node5 -->
<g id="edge4" class="edge"><title>Node1&#45;&gt;Node5</title>
<path fill="none" stroke="midnightblue" d="M103.654,-74.1039C126.846,-68.7626 153.838,-62.5463 175.663,-57.5201"/>
<polygon fill="midnightblue" stroke="midnightblue" points="102.596,-70.7559 93.6365,-76.411 104.167,-77.5774 102.596,-70.7559"/>
</g>
<!-- Node6 -->
<g id="node6" class="node"><title>Node6</title>
<g id="a_node6"><a xlink:href="db/ddc/classmodel_1_1_wator_simulation.html" target="_top" xlink:title="model.WatorSimulation">
<polygon fill="white" stroke="black" points="154,-0.5 154,-19.5 282,-19.5 282,-0.5 154,-0.5"/>
<text text-anchor="middle" x="218" y="-7.5" font-family="Helvetica,sans-Serif" font-size="10.00">model.WatorSimulation</text>
</a>
</g>
</g>
<!-- Node1&#45;&gt;Node6 -->
<g id="edge5" class="edge"><title>Node1&#45;&gt;Node6</title>
<path fill="none" stroke="midnightblue" d="M71.3945,-70.2603C88.116,-57.4227 113.386,-39.7175 138,-29 146.665,-25.2268 156.206,-22.1273 165.571,-19.6071"/>
<polygon fill="midnightblue" stroke="midnightblue" points="69.1883,-67.5425 63.4782,-76.467 73.5073,-73.0512 69.1883,-67.5425"/>
</g>
</g>
</svg>
