<?xml version="1.0" encoding="UTF-8" standalone="no"?>
<!DOCTYPE svg PUBLIC "-//W3C//DTD SVG 1.1//EN"
 "http://www.w3.org/Graphics/SVG/1.1/DTD/svg11.dtd">
<!-- Generated by graphviz version 2.36.0 (20140111.2315)
 -->
<!-- Title: controller.XMLParser.clean Pages: 1 -->
<svg width="1450pt" height="38pt"
 viewBox="0.00 0.00 1450.00 38.00" xmlns="http://www.w3.org/2000/svg" xmlns:xlink="http://www.w3.org/1999/xlink">
<g id="graph0" class="graph" transform="scale(1 1) rotate(0) translate(4 34)">
<title>controller.XMLParser.clean</title>
<polygon fill="white" stroke="none" points="-4,4 -4,-34 1446,-34 1446,4 -4,4"/>
<!-- Node1 -->
<g id="node1" class="node"><title>Node1</title>
<polygon fill="#bfbfbf" stroke="black" points="0.5,-5.5 0.5,-24.5 141.5,-24.5 141.5,-5.5 0.5,-5.5"/>
<text text-anchor="middle" x="71" y="-12.5" font-family="Helvetica,sans-Serif" font-size="10.00">controller.XMLParser.clean</text>
</g>
<!-- Node2 -->
<g id="node2" class="node"><title>Node2</title>
<g id="a_node2"><a xlink:href="../../dc/d47/classcontroller_1_1_x_m_l_parser.html#ad4004ec23d6fa09729485ae7387a93c9" target="_top" xlink:title="controller.XMLParser.parse\lXMLFile">
<polygon fill="white" stroke="black" points="178.5,-0 178.5,-30 321.5,-30 321.5,-0 178.5,-0"/>
<text text-anchor="start" x="186.5" y="-18" font-family="Helvetica,sans-Serif" font-size="10.00">controller.XMLParser.parse</text>
<text text-anchor="middle" x="250" y="-7" font-family="Helvetica,sans-Serif" font-size="10.00">XMLFile</text>
</a>
</g>
</g>
<!-- Node1&#45;&gt;Node2 -->
<g id="edge1" class="edge"><title>Node1&#45;&gt;Node2</title>
<path fill="none" stroke="midnightblue" d="M151.711,-15C160.64,-15 169.69,-15 178.491,-15"/>
<polygon fill="midnightblue" stroke="midnightblue" points="151.701,-11.5001 141.701,-15 151.701,-18.5001 151.701,-11.5001"/>
</g>
<!-- Node3 -->
<g id="node3" class="node"><title>Node3</title>
<g id="a_node3"><a xlink:href="../../d9/df7/classcontroller_1_1_controller.html#af7cc9ab6dfe60da36d3159eea48882db" target="_top" xlink:title="controller.Controller.loadFile">
<polygon fill="white" stroke="black" points="358,-5.5 358,-24.5 506,-24.5 506,-5.5 358,-5.5"/>
<text text-anchor="middle" x="432" y="-12.5" font-family="Helvetica,sans-Serif" font-size="10.00">controller.Controller.loadFile</text>
</a>
</g>
</g>
<!-- Node2&#45;&gt;Node3 -->
<g id="edge2" class="edge"><title>Node2&#45;&gt;Node3</title>
<path fill="none" stroke="midnightblue" d="M331.773,-15C340.48,-15 349.304,-15 357.914,-15"/>
<polygon fill="midnightblue" stroke="midnightblue" points="331.624,-11.5001 321.624,-15 331.624,-18.5001 331.624,-11.5001"/>
</g>
<!-- Node4 -->
<g id="node4" class="node"><title>Node4</title>
<g id="a_node4"><a xlink:href="../../d1/dbf/classview_package_1_1_view.html#a718e5f42ae85512916198548e28477c7" target="_top" xlink:title="viewPackage.View.tryLoad">
<polygon fill="white" stroke="black" points="542,-5.5 542,-24.5 682,-24.5 682,-5.5 542,-5.5"/>
<text text-anchor="middle" x="612" y="-12.5" font-family="Helvetica,sans-Serif" font-size="10.00">viewPackage.View.tryLoad</text>
</a>
</g>
</g>
<!-- Node3&#45;&gt;Node4 -->
<g id="edge3" class="edge"><title>Node3&#45;&gt;Node4</title>
<path fill="none" stroke="midnightblue" d="M516.193,-15C524.776,-15 533.431,-15 541.838,-15"/>
<polygon fill="midnightblue" stroke="midnightblue" points="516.17,-11.5001 506.17,-15 516.17,-18.5001 516.17,-11.5001"/>
</g>
<!-- Node5 -->
<g id="node5" class="node"><title>Node5</title>
<g id="a_node5"><a xlink:href="../../dc/d2c/classview_package_1_1_button_box.html#aef53bd97c4407ecd3fb5dfbf42850a46" target="_top" xlink:title="viewPackage.ButtonBox.load\lFileBox">
<polygon fill="white" stroke="black" points="718.5,-0 718.5,-30 871.5,-30 871.5,-0 718.5,-0"/>
<text text-anchor="start" x="726.5" y="-18" font-family="Helvetica,sans-Serif" font-size="10.00">viewPackage.ButtonBox.load</text>
<text text-anchor="middle" x="795" y="-7" font-family="Helvetica,sans-Serif" font-size="10.00">FileBox</text>
</a>
</g>
</g>
<!-- Node4&#45;&gt;Node5 -->
<g id="edge4" class="edge"><title>Node4&#45;&gt;Node5</title>
<path fill="none" stroke="midnightblue" d="M692.241,-15C700.863,-15 709.623,-15 718.201,-15"/>
<polygon fill="midnightblue" stroke="midnightblue" points="692.203,-11.5001 682.203,-15 692.203,-18.5001 692.203,-11.5001"/>
</g>
<!-- Node6 -->
<g id="node6" class="node"><title>Node6</title>
<g id="a_node6"><a xlink:href="../../dc/d2c/classview_package_1_1_button_box.html#a9756fc46a96c169ce48a1867bd2c82f5" target="_top" xlink:title="viewPackage.ButtonBox.make\lButtonBox">
<polygon fill="white" stroke="black" points="908,-0 908,-30 1068,-30 1068,-0 908,-0"/>
<text text-anchor="start" x="916" y="-18" font-family="Helvetica,sans-Serif" font-size="10.00">viewPackage.ButtonBox.make</text>
<text text-anchor="middle" x="988" y="-7" font-family="Helvetica,sans-Serif" font-size="10.00">ButtonBox</text>
</a>
</g>
</g>
<!-- Node5&#45;&gt;Node6 -->
<g id="edge5" class="edge"><title>Node5&#45;&gt;Node6</title>
<path fill="none" stroke="midnightblue" d="M881.864,-15C890.526,-15 899.295,-15 907.881,-15"/>
<polygon fill="midnightblue" stroke="midnightblue" points="881.763,-11.5001 871.763,-15 881.763,-18.5001 881.763,-11.5001"/>
</g>
<!-- Node7 -->
<g id="node7" class="node"><title>Node7</title>
<g id="a_node7"><a xlink:href="../../d1/dbf/classview_package_1_1_view.html#af6f6887ef253ae0fba2634e367b95312" target="_top" xlink:title="viewPackage.View.initialize">
<polygon fill="white" stroke="black" points="1104,-5.5 1104,-24.5 1246,-24.5 1246,-5.5 1104,-5.5"/>
<text text-anchor="middle" x="1175" y="-12.5" font-family="Helvetica,sans-Serif" font-size="10.00">viewPackage.View.initialize</text>
</a>
</g>
</g>
<!-- Node6&#45;&gt;Node7 -->
<g id="edge6" class="edge"><title>Node6&#45;&gt;Node7</title>
<path fill="none" stroke="midnightblue" d="M1078.33,-15C1086.93,-15 1095.57,-15 1103.95,-15"/>
<polygon fill="midnightblue" stroke="midnightblue" points="1078.26,-11.5001 1068.26,-15 1078.26,-18.5001 1078.26,-11.5001"/>
</g>
<!-- Node8 -->
<g id="node8" class="node"><title>Node8</title>
<g id="a_node8"><a xlink:href="../../d9/df7/classcontroller_1_1_controller.html#a4dbfef3e3e30bd1bb84df7a6b24ad1e7" target="_top" xlink:title="controller.Controller.Controller">
<polygon fill="white" stroke="black" points="1282.5,-5.5 1282.5,-24.5 1441.5,-24.5 1441.5,-5.5 1282.5,-5.5"/>
<text text-anchor="middle" x="1362" y="-12.5" font-family="Helvetica,sans-Serif" font-size="10.00">controller.Controller.Controller</text>
</a>
</g>
</g>
<!-- Node7&#45;&gt;Node8 -->
<g id="edge7" class="edge"><title>Node7&#45;&gt;Node8</title>
<path fill="none" stroke="midnightblue" d="M1256.31,-15C1265,-15 1273.83,-15 1282.49,-15"/>
<polygon fill="midnightblue" stroke="midnightblue" points="1256.2,-11.5001 1246.2,-15 1256.2,-18.5001 1256.2,-11.5001"/>
</g>
</g>
</svg>
