<?xml version="1.0" encoding="UTF-8" standalone="no"?>
<!DOCTYPE svg PUBLIC "-//W3C//DTD SVG 1.1//EN"
 "http://www.w3.org/Graphics/SVG/1.1/DTD/svg11.dtd">
<!-- Generated by graphviz version 2.36.0 (20140111.2315)
 -->
<!-- Title: viewPackage.ButtonBox.addText Pages: 1 -->
<svg width="748pt" height="87pt"
 viewBox="0.00 0.00 748.00 87.00" xmlns="http://www.w3.org/2000/svg" xmlns:xlink="http://www.w3.org/1999/xlink">
<g id="graph0" class="graph" transform="scale(1 1) rotate(0) translate(4 83)">
<title>viewPackage.ButtonBox.addText</title>
<polygon fill="white" stroke="none" points="-4,4 -4,-83 744,-83 744,4 -4,4"/>
<!-- Node1 -->
<g id="node1" class="node"><title>Node1</title>
<polygon fill="#bfbfbf" stroke="black" points="0,-29.5 0,-48.5 170,-48.5 170,-29.5 0,-29.5"/>
<text text-anchor="middle" x="85" y="-36.5" font-family="Helvetica,sans-Serif" font-size="10.00">viewPackage.ButtonBox.addText</text>
</g>
<!-- Node2 -->
<g id="node2" class="node"><title>Node2</title>
<g id="a_node2"><a xlink:href="../../dc/d2c/classview_package_1_1_button_box.html#a9756fc46a96c169ce48a1867bd2c82f5" target="_top" xlink:title="viewPackage.ButtonBox.make\lButtonBox">
<polygon fill="white" stroke="black" points="206,-49 206,-79 366,-79 366,-49 206,-49"/>
<text text-anchor="start" x="214" y="-67" font-family="Helvetica,sans-Serif" font-size="10.00">viewPackage.ButtonBox.make</text>
<text text-anchor="middle" x="286" y="-56" font-family="Helvetica,sans-Serif" font-size="10.00">ButtonBox</text>
</a>
</g>
</g>
<!-- Node1&#45;&gt;Node2 -->
<g id="edge1" class="edge"><title>Node1&#45;&gt;Node2</title>
<path fill="none" stroke="midnightblue" d="M172.017,-49.8062C183.231,-51.2149 194.677,-52.6529 205.773,-54.0468"/>
<polygon fill="midnightblue" stroke="midnightblue" points="172.159,-46.2966 161.801,-48.5227 171.287,-53.242 172.159,-46.2966"/>
</g>
<!-- Node5 -->
<g id="node5" class="node"><title>Node5</title>
<g id="a_node5"><a xlink:href="../../dc/d2c/classview_package_1_1_button_box.html#a6bf9f301b61c832c249686871cb810b8" target="_top" xlink:title="viewPackage.ButtonBox.make\lSlider">
<polygon fill="white" stroke="black" points="206,-0 206,-30 366,-30 366,-0 206,-0"/>
<text text-anchor="start" x="214" y="-18" font-family="Helvetica,sans-Serif" font-size="10.00">viewPackage.ButtonBox.make</text>
<text text-anchor="middle" x="286" y="-7" font-family="Helvetica,sans-Serif" font-size="10.00">Slider</text>
</a>
</g>
</g>
<!-- Node1&#45;&gt;Node5 -->
<g id="edge4" class="edge"><title>Node1&#45;&gt;Node5</title>
<path fill="none" stroke="midnightblue" d="M175.11,-28.2531C185.35,-27.0181 195.738,-25.7653 205.834,-24.5477"/>
<polygon fill="midnightblue" stroke="midnightblue" points="174.445,-24.8078 164.936,-29.4801 175.283,-31.7575 174.445,-24.8078"/>
</g>
<!-- Node3 -->
<g id="node3" class="node"><title>Node3</title>
<g id="a_node3"><a xlink:href="../../d1/dbf/classview_package_1_1_view.html#af6f6887ef253ae0fba2634e367b95312" target="_top" xlink:title="viewPackage.View.initialize">
<polygon fill="white" stroke="black" points="402,-29.5 402,-48.5 544,-48.5 544,-29.5 402,-29.5"/>
<text text-anchor="middle" x="473" y="-36.5" font-family="Helvetica,sans-Serif" font-size="10.00">viewPackage.View.initialize</text>
</a>
</g>
</g>
<!-- Node2&#45;&gt;Node3 -->
<g id="edge2" class="edge"><title>Node2&#45;&gt;Node3</title>
<path fill="none" stroke="midnightblue" d="M376.327,-51.9288C384.93,-50.7662 393.57,-49.5986 401.949,-48.4664"/>
<polygon fill="midnightblue" stroke="midnightblue" points="375.703,-48.4812 366.262,-53.289 376.64,-55.4182 375.703,-48.4812"/>
</g>
<!-- Node4 -->
<g id="node4" class="node"><title>Node4</title>
<g id="a_node4"><a xlink:href="../../d9/df7/classcontroller_1_1_controller.html#a4dbfef3e3e30bd1bb84df7a6b24ad1e7" target="_top" xlink:title="controller.Controller.Controller">
<polygon fill="white" stroke="black" points="580.5,-29.5 580.5,-48.5 739.5,-48.5 739.5,-29.5 580.5,-29.5"/>
<text text-anchor="middle" x="660" y="-36.5" font-family="Helvetica,sans-Serif" font-size="10.00">controller.Controller.Controller</text>
</a>
</g>
</g>
<!-- Node3&#45;&gt;Node4 -->
<g id="edge3" class="edge"><title>Node3&#45;&gt;Node4</title>
<path fill="none" stroke="midnightblue" d="M554.313,-39C562.998,-39 571.828,-39 580.491,-39"/>
<polygon fill="midnightblue" stroke="midnightblue" points="554.204,-35.5001 544.204,-39 554.204,-42.5001 554.204,-35.5001"/>
</g>
<!-- Node5&#45;&gt;Node3 -->
<g id="edge5" class="edge"><title>Node5&#45;&gt;Node3</title>
<path fill="none" stroke="midnightblue" d="M376.327,-26.5883C384.93,-27.7044 393.57,-28.8253 401.949,-29.9123"/>
<polygon fill="midnightblue" stroke="midnightblue" points="376.629,-23.0983 366.262,-25.2826 375.728,-30.0401 376.629,-23.0983"/>
</g>
</g>
</svg>
