<?xml version="1.0" encoding="UTF-8" standalone="no"?>
<!DOCTYPE svg PUBLIC "-//W3C//DTD SVG 1.1//EN"
 "http://www.w3.org/Graphics/SVG/1.1/DTD/svg11.dtd">
<!-- Generated by graphviz version 2.36.0 (20140111.2315)
 -->
<!-- Title: viewPackage.ButtonBox.makeSlider Pages: 1 -->
<svg width="582pt" height="126pt"
 viewBox="0.00 0.00 582.00 126.00" xmlns="http://www.w3.org/2000/svg" xmlns:xlink="http://www.w3.org/1999/xlink">
<g id="graph0" class="graph" transform="scale(1 1) rotate(0) translate(4 122)">
<title>viewPackage.ButtonBox.makeSlider</title>
<polygon fill="white" stroke="none" points="-4,4 -4,-122 578,-122 578,4 -4,4"/>
<!-- Node1 -->
<g id="node1" class="node"><title>Node1</title>
<polygon fill="#bfbfbf" stroke="black" points="0,-49 0,-79 160,-79 160,-49 0,-49"/>
<text text-anchor="start" x="8" y="-67" font-family="Helvetica,sans-Serif" font-size="10.00">viewPackage.ButtonBox.make</text>
<text text-anchor="middle" x="80" y="-56" font-family="Helvetica,sans-Serif" font-size="10.00">Slider</text>
</g>
<!-- Node2 -->
<g id="node2" class="node"><title>Node2</title>
<g id="a_node2"><a xlink:href="../../dc/d2c/classview_package_1_1_button_box.html#a9820084a7bb0f1fafecfc34405c34e60" target="_top" xlink:title="viewPackage.ButtonBox.addText">
<polygon fill="white" stroke="black" points="196,-98.5 196,-117.5 366,-117.5 366,-98.5 196,-98.5"/>
<text text-anchor="middle" x="281" y="-105.5" font-family="Helvetica,sans-Serif" font-size="10.00">viewPackage.ButtonBox.addText</text>
</a>
</g>
</g>
<!-- Node1&#45;&gt;Node2 -->
<g id="edge1" class="edge"><title>Node1&#45;&gt;Node2</title>
<path fill="none" stroke="midnightblue" d="M148.928,-79.0192C174.445,-84.6612 203.052,-90.9864 227.015,-96.2847"/>
<polygon fill="midnightblue" stroke="midnightblue" points="226.458,-99.7461 236.978,-98.4876 227.969,-92.9111 226.458,-99.7461"/>
</g>
<!-- Node3 -->
<g id="node3" class="node"><title>Node3</title>
<g id="a_node3"><a xlink:href="../../d1/dbf/classview_package_1_1_view.html#a03c6d8048559bfb48f6b81662fd54057" target="_top" xlink:title="viewPackage.View.createError\lWindow">
<polygon fill="white" stroke="black" points="202,-49 202,-79 360,-79 360,-49 202,-49"/>
<text text-anchor="start" x="210" y="-67" font-family="Helvetica,sans-Serif" font-size="10.00">viewPackage.View.createError</text>
<text text-anchor="middle" x="281" y="-56" font-family="Helvetica,sans-Serif" font-size="10.00">Window</text>
</a>
</g>
</g>
<!-- Node1&#45;&gt;Node3 -->
<g id="edge2" class="edge"><title>Node1&#45;&gt;Node3</title>
<path fill="none" stroke="midnightblue" d="M160.222,-64C170.465,-64 181.007,-64 191.389,-64"/>
<polygon fill="midnightblue" stroke="midnightblue" points="191.7,-67.5001 201.7,-64 191.7,-60.5001 191.7,-67.5001"/>
</g>
<!-- Node5 -->
<g id="node5" class="node"><title>Node5</title>
<g id="a_node5"><a xlink:href="../../dc/d2c/classview_package_1_1_button_box.html#ac8720303eb84f99b9ff919bdbc3320c1" target="_top" xlink:title="viewPackage.ButtonBox.update\lSpeed">
<polygon fill="white" stroke="black" points="197.5,-0 197.5,-30 364.5,-30 364.5,-0 197.5,-0"/>
<text text-anchor="start" x="205.5" y="-18" font-family="Helvetica,sans-Serif" font-size="10.00">viewPackage.ButtonBox.update</text>
<text text-anchor="middle" x="281" y="-7" font-family="Helvetica,sans-Serif" font-size="10.00">Speed</text>
</a>
</g>
</g>
<!-- Node1&#45;&gt;Node5 -->
<g id="edge4" class="edge"><title>Node1&#45;&gt;Node5</title>
<path fill="none" stroke="midnightblue" d="M142.059,-48.9654C163.262,-43.7446 187.216,-37.8463 209.142,-32.4474"/>
<polygon fill="midnightblue" stroke="midnightblue" points="210.183,-35.7957 219.057,-30.0062 208.51,-28.9987 210.183,-35.7957"/>
</g>
<!-- Node4 -->
<g id="node4" class="node"><title>Node4</title>
<g id="a_node4"><a xlink:href="../../d6/d9a/classview_package_1_1_error_display.html#a6cc5c905e98933315e31fadeaa85dfda" target="_top" xlink:title="viewPackage.ErrorDisplay.display">
<polygon fill="white" stroke="black" points="402,-54.5 402,-73.5 574,-73.5 574,-54.5 402,-54.5"/>
<text text-anchor="middle" x="488" y="-61.5" font-family="Helvetica,sans-Serif" font-size="10.00">viewPackage.ErrorDisplay.display</text>
</a>
</g>
</g>
<!-- Node3&#45;&gt;Node4 -->
<g id="edge3" class="edge"><title>Node3&#45;&gt;Node4</title>
<path fill="none" stroke="midnightblue" d="M360.087,-64C370.462,-64 381.192,-64 391.816,-64"/>
<polygon fill="midnightblue" stroke="midnightblue" points="391.955,-67.5001 401.955,-64 391.955,-60.5001 391.955,-67.5001"/>
</g>
</g>
</svg>
