<?xml version="1.0" encoding="UTF-8" standalone="no"?>
<!DOCTYPE svg PUBLIC "-//W3C//DTD SVG 1.1//EN"
 "http://www.w3.org/Graphics/SVG/1.1/DTD/svg11.dtd">
<!-- Generated by graphviz version 2.36.0 (20140111.2315)
 -->
<!-- Title: viewPackage.ButtonBox.getSpeed Pages: 1 -->
<svg width="914pt" height="77pt"
 viewBox="0.00 0.00 914.00 77.00" xmlns="http://www.w3.org/2000/svg" xmlns:xlink="http://www.w3.org/1999/xlink">
<g id="graph0" class="graph" transform="scale(1 1) rotate(0) translate(4 73)">
<title>viewPackage.ButtonBox.getSpeed</title>
<polygon fill="white" stroke="none" points="-4,4 -4,-73 910,-73 910,4 -4,4"/>
<!-- Node1 -->
<g id="node1" class="node"><title>Node1</title>
<polygon fill="#bfbfbf" stroke="black" points="0.5,-22 0.5,-52 149.5,-52 149.5,-22 0.5,-22"/>
<text text-anchor="start" x="8.5" y="-40" font-family="Helvetica,sans-Serif" font-size="10.00">viewPackage.ButtonBox.get</text>
<text text-anchor="middle" x="75" y="-29" font-family="Helvetica,sans-Serif" font-size="10.00">Speed</text>
</g>
<!-- Node2 -->
<g id="node2" class="node"><title>Node2</title>
<g id="a_node2"><a xlink:href="../../d1/dbf/classview_package_1_1_view.html#ad3cef566754149bb322512af9967bc1b" target="_top" xlink:title="viewPackage.View.getSpeed">
<polygon fill="white" stroke="black" points="186,-49.5 186,-68.5 336,-68.5 336,-49.5 186,-49.5"/>
<text text-anchor="middle" x="261" y="-56.5" font-family="Helvetica,sans-Serif" font-size="10.00">viewPackage.View.getSpeed</text>
</a>
</g>
</g>
<!-- Node1&#45;&gt;Node2 -->
<g id="edge1" class="edge"><title>Node1&#45;&gt;Node2</title>
<path fill="none" stroke="midnightblue" d="M159.649,-47.0015C168.337,-48.0403 177.125,-49.0911 185.7,-50.1163"/>
<polygon fill="midnightblue" stroke="midnightblue" points="159.86,-43.5019 149.515,-45.7898 159.029,-50.4524 159.86,-43.5019"/>
</g>
<!-- Node3 -->
<g id="node3" class="node"><title>Node3</title>
<g id="a_node3"><a xlink:href="../../d1/dbf/classview_package_1_1_view.html#a1d1a8e16ae622c0d6a66cd9c516672a6" target="_top" xlink:title="viewPackage.View.setPlay\lAction">
<polygon fill="white" stroke="black" points="192,-0 192,-30 330,-30 330,-0 192,-0"/>
<text text-anchor="start" x="200" y="-18" font-family="Helvetica,sans-Serif" font-size="10.00">viewPackage.View.setPlay</text>
<text text-anchor="middle" x="261" y="-7" font-family="Helvetica,sans-Serif" font-size="10.00">Action</text>
</a>
</g>
</g>
<!-- Node1&#45;&gt;Node3 -->
<g id="edge2" class="edge"><title>Node1&#45;&gt;Node3</title>
<path fill="none" stroke="midnightblue" d="M159.449,-27.0224C170.335,-25.7208 181.382,-24.4 191.973,-23.1336"/>
<polygon fill="midnightblue" stroke="midnightblue" points="159.029,-23.5476 149.515,-28.2102 159.86,-30.4981 159.029,-23.5476"/>
</g>
<!-- Node4 -->
<g id="node4" class="node"><title>Node4</title>
<g id="a_node4"><a xlink:href="../../dc/d2c/classview_package_1_1_button_box.html#a9756fc46a96c169ce48a1867bd2c82f5" target="_top" xlink:title="viewPackage.ButtonBox.make\lButtonBox">
<polygon fill="white" stroke="black" points="372,-0 372,-30 532,-30 532,-0 372,-0"/>
<text text-anchor="start" x="380" y="-18" font-family="Helvetica,sans-Serif" font-size="10.00">viewPackage.ButtonBox.make</text>
<text text-anchor="middle" x="452" y="-7" font-family="Helvetica,sans-Serif" font-size="10.00">ButtonBox</text>
</a>
</g>
</g>
<!-- Node3&#45;&gt;Node4 -->
<g id="edge3" class="edge"><title>Node3&#45;&gt;Node4</title>
<path fill="none" stroke="midnightblue" d="M340.511,-15C350.897,-15 361.547,-15 371.942,-15"/>
<polygon fill="midnightblue" stroke="midnightblue" points="340.233,-11.5001 330.233,-15 340.233,-18.5001 340.233,-11.5001"/>
</g>
<!-- Node5 -->
<g id="node5" class="node"><title>Node5</title>
<g id="a_node5"><a xlink:href="../../d1/dbf/classview_package_1_1_view.html#af6f6887ef253ae0fba2634e367b95312" target="_top" xlink:title="viewPackage.View.initialize">
<polygon fill="white" stroke="black" points="568,-5.5 568,-24.5 710,-24.5 710,-5.5 568,-5.5"/>
<text text-anchor="middle" x="639" y="-12.5" font-family="Helvetica,sans-Serif" font-size="10.00">viewPackage.View.initialize</text>
</a>
</g>
</g>
<!-- Node4&#45;&gt;Node5 -->
<g id="edge4" class="edge"><title>Node4&#45;&gt;Node5</title>
<path fill="none" stroke="midnightblue" d="M542.327,-15C550.93,-15 559.57,-15 567.949,-15"/>
<polygon fill="midnightblue" stroke="midnightblue" points="542.262,-11.5001 532.262,-15 542.262,-18.5001 542.262,-11.5001"/>
</g>
<!-- Node6 -->
<g id="node6" class="node"><title>Node6</title>
<g id="a_node6"><a xlink:href="../../d9/df7/classcontroller_1_1_controller.html#a4dbfef3e3e30bd1bb84df7a6b24ad1e7" target="_top" xlink:title="controller.Controller.Controller">
<polygon fill="white" stroke="black" points="746.5,-5.5 746.5,-24.5 905.5,-24.5 905.5,-5.5 746.5,-5.5"/>
<text text-anchor="middle" x="826" y="-12.5" font-family="Helvetica,sans-Serif" font-size="10.00">controller.Controller.Controller</text>
</a>
</g>
</g>
<!-- Node5&#45;&gt;Node6 -->
<g id="edge5" class="edge"><title>Node5&#45;&gt;Node6</title>
<path fill="none" stroke="midnightblue" d="M720.313,-15C728.998,-15 737.828,-15 746.491,-15"/>
<polygon fill="midnightblue" stroke="midnightblue" points="720.204,-11.5001 710.204,-15 720.204,-18.5001 720.204,-11.5001"/>
</g>
</g>
</svg>
