<?xml version="1.0" encoding="UTF-8" standalone="no"?>
<!DOCTYPE svg PUBLIC "-//W3C//DTD SVG 1.1//EN"
 "http://www.w3.org/Graphics/SVG/1.1/DTD/svg11.dtd">
<!-- Generated by graphviz version 2.36.0 (20140111.2315)
 -->
<!-- Title: controller.Controller.bundleViewPackager Pages: 1 -->
<svg width="518pt" height="212pt"
 viewBox="0.00 0.00 518.00 212.00" xmlns="http://www.w3.org/2000/svg" xmlns:xlink="http://www.w3.org/1999/xlink">
<g id="graph0" class="graph" transform="scale(1 1) rotate(0) translate(4 208)">
<title>controller.Controller.bundleViewPackager</title>
<polygon fill="white" stroke="none" points="-4,4 -4,-208 514,-208 514,4 -4,4"/>
<!-- Node1 -->
<g id="node1" class="node"><title>Node1</title>
<polygon fill="#bfbfbf" stroke="black" points="0.5,-73 0.5,-103 145.5,-103 145.5,-73 0.5,-73"/>
<text text-anchor="start" x="8.5" y="-91" font-family="Helvetica,sans-Serif" font-size="10.00">controller.Controller.bundle</text>
<text text-anchor="middle" x="73" y="-80" font-family="Helvetica,sans-Serif" font-size="10.00">ViewPackager</text>
</g>
<!-- Node2 -->
<g id="node2" class="node"><title>Node2</title>
<g id="a_node2"><a xlink:href="../../d9/df7/classcontroller_1_1_controller.html#ae43191a1fc7db5c1cb03da2a8a580541" target="_top" xlink:title="controller.Controller.create\lColorGrid">
<polygon fill="white" stroke="black" points="183.5,-147 183.5,-177 326.5,-177 326.5,-147 183.5,-147"/>
<text text-anchor="start" x="191.5" y="-165" font-family="Helvetica,sans-Serif" font-size="10.00">controller.Controller.create</text>
<text text-anchor="middle" x="255" y="-154" font-family="Helvetica,sans-Serif" font-size="10.00">ColorGrid</text>
</a>
</g>
</g>
<!-- Node1&#45;&gt;Node2 -->
<g id="edge1" class="edge"><title>Node1&#45;&gt;Node2</title>
<path fill="none" stroke="midnightblue" d="M105.334,-103.137C126.717,-113.238 155.805,-126.536 182,-137 187.432,-139.17 193.134,-141.336 198.852,-143.434"/>
<polygon fill="midnightblue" stroke="midnightblue" points="197.85,-146.793 208.444,-146.891 200.223,-140.208 197.85,-146.793"/>
</g>
<!-- Node7 -->
<g id="node7" class="node"><title>Node7</title>
<g id="a_node7"><a xlink:href="../../d2/d2c/classcontroller_1_1_view_packager.html#a637ec76985be3af6c2b14a527e1c1bac" target="_top" xlink:title="controller.ViewPackager.set\lColorGrid">
<polygon fill="white" stroke="black" points="182,-49 182,-79 328,-79 328,-49 182,-49"/>
<text text-anchor="start" x="190" y="-67" font-family="Helvetica,sans-Serif" font-size="10.00">controller.ViewPackager.set</text>
<text text-anchor="middle" x="255" y="-56" font-family="Helvetica,sans-Serif" font-size="10.00">ColorGrid</text>
</a>
</g>
</g>
<!-- Node1&#45;&gt;Node7 -->
<g id="edge6" class="edge"><title>Node1&#45;&gt;Node7</title>
<path fill="none" stroke="midnightblue" d="M145.658,-78.4456C154.184,-77.3088 162.94,-76.1413 171.601,-74.9865"/>
<polygon fill="midnightblue" stroke="midnightblue" points="172.256,-78.4302 181.706,-73.6392 171.331,-71.4916 172.256,-78.4302"/>
</g>
<!-- Node8 -->
<g id="node8" class="node"><title>Node8</title>
<g id="a_node8"><a xlink:href="../../d2/d2c/classcontroller_1_1_view_packager.html#a8a82603c0efc9d0197a0c027030f4993" target="_top" xlink:title="controller.ViewPackager.set\lStateTotalMap">
<polygon fill="white" stroke="black" points="182,-0 182,-30 328,-30 328,-0 182,-0"/>
<text text-anchor="start" x="190" y="-18" font-family="Helvetica,sans-Serif" font-size="10.00">controller.ViewPackager.set</text>
<text text-anchor="middle" x="255" y="-7" font-family="Helvetica,sans-Serif" font-size="10.00">StateTotalMap</text>
</a>
</g>
</g>
<!-- Node1&#45;&gt;Node8 -->
<g id="edge7" class="edge"><title>Node1&#45;&gt;Node8</title>
<path fill="none" stroke="midnightblue" d="M106.308,-72.7875C127.612,-62.9688 156.237,-50.1769 182,-40 187.519,-37.8199 193.313,-35.6365 199.118,-33.5178"/>
<polygon fill="midnightblue" stroke="midnightblue" points="200.619,-36.6977 208.849,-30.0253 198.254,-30.1092 200.619,-36.6977"/>
</g>
<!-- Node9 -->
<g id="node9" class="node"><title>Node9</title>
<g id="a_node9"><a xlink:href="../../d9/df7/classcontroller_1_1_controller.html#aca48bc84d82655ce699963fd859afebd" target="_top" xlink:title="controller.Controller.update\lStateTotals">
<polygon fill="white" stroke="black" points="182,-98 182,-128 328,-128 328,-98 182,-98"/>
<text text-anchor="start" x="190" y="-116" font-family="Helvetica,sans-Serif" font-size="10.00">controller.Controller.update</text>
<text text-anchor="middle" x="255" y="-105" font-family="Helvetica,sans-Serif" font-size="10.00">StateTotals</text>
</a>
</g>
</g>
<!-- Node1&#45;&gt;Node9 -->
<g id="edge8" class="edge"><title>Node1&#45;&gt;Node9</title>
<path fill="none" stroke="midnightblue" d="M145.658,-97.9525C154.184,-99.1367 162.94,-100.353 171.601,-101.556"/>
<polygon fill="midnightblue" stroke="midnightblue" points="171.319,-105.05 181.706,-102.959 172.282,-98.1167 171.319,-105.05"/>
</g>
<!-- Node3 -->
<g id="node3" class="node"><title>Node3</title>
<g id="a_node3"><a xlink:href="../../dc/d8f/classmodel_1_1_grid.html#a40adce87c26a3a6830125324ae576c34" target="_top" xlink:title="model.Grid.getGridRowSize">
<polygon fill="white" stroke="black" points="364,-108.5 364,-127.5 510,-127.5 510,-108.5 364,-108.5"/>
<text text-anchor="middle" x="437" y="-115.5" font-family="Helvetica,sans-Serif" font-size="10.00">model.Grid.getGridRowSize</text>
</a>
</g>
</g>
<!-- Node2&#45;&gt;Node3 -->
<g id="edge2" class="edge"><title>Node2&#45;&gt;Node3</title>
<path fill="none" stroke="midnightblue" d="M317.442,-146.981C340.214,-141.414 365.706,-135.183 387.201,-129.929"/>
<polygon fill="midnightblue" stroke="midnightblue" points="388.203,-133.287 397.086,-127.512 386.54,-126.487 388.203,-133.287"/>
</g>
<!-- Node4 -->
<g id="node4" class="node"><title>Node4</title>
<g id="a_node4"><a xlink:href="../../dc/d8f/classmodel_1_1_grid.html#a01924b6019a14826898f281a3064b3b5" target="_top" xlink:title="model.Grid.getGridColSize">
<polygon fill="white" stroke="black" points="365.5,-70.5 365.5,-89.5 508.5,-89.5 508.5,-70.5 365.5,-70.5"/>
<text text-anchor="middle" x="437" y="-77.5" font-family="Helvetica,sans-Serif" font-size="10.00">model.Grid.getGridColSize</text>
</a>
</g>
</g>
<!-- Node2&#45;&gt;Node4 -->
<g id="edge3" class="edge"><title>Node2&#45;&gt;Node4</title>
<path fill="none" stroke="midnightblue" d="M308.906,-146.947C315.57,-144.104 322.108,-140.804 328,-137 347.545,-124.381 343.989,-110.865 364,-99 367.69,-96.8118 371.634,-94.8716 375.703,-93.1519"/>
<polygon fill="midnightblue" stroke="midnightblue" points="377.233,-96.3164 385.366,-89.5265 374.774,-89.7625 377.233,-96.3164"/>
</g>
<!-- Node5 -->
<g id="node5" class="node"><title>Node5</title>
<g id="a_node5"><a xlink:href="../../dc/d8f/classmodel_1_1_grid.html#a7308e05b94f35a2f8198f314eb384267" target="_top" xlink:title="model.Grid.getCell">
<polygon fill="white" stroke="black" points="384.5,-184.5 384.5,-203.5 489.5,-203.5 489.5,-184.5 384.5,-184.5"/>
<text text-anchor="middle" x="437" y="-191.5" font-family="Helvetica,sans-Serif" font-size="10.00">model.Grid.getCell</text>
</a>
</g>
</g>
<!-- Node2&#45;&gt;Node5 -->
<g id="edge4" class="edge"><title>Node2&#45;&gt;Node5</title>
<path fill="none" stroke="midnightblue" d="M326.624,-174.555C342.46,-177.371 359.136,-180.335 374.562,-183.078"/>
<polygon fill="midnightblue" stroke="midnightblue" points="374.04,-186.54 384.498,-184.844 375.265,-179.648 374.04,-186.54"/>
</g>
<!-- Node6 -->
<g id="node6" class="node"><title>Node6</title>
<g id="a_node6"><a xlink:href="../../d3/d57/classmodel_1_1_cell.html#a527cb796745a34155e9b2a82b2a8812a" target="_top" xlink:title="model.Cell.toString">
<polygon fill="white" stroke="black" points="383,-146.5 383,-165.5 491,-165.5 491,-146.5 383,-146.5"/>
<text text-anchor="middle" x="437" y="-153.5" font-family="Helvetica,sans-Serif" font-size="10.00">model.Cell.toString</text>
</a>
</g>
</g>
<!-- Node2&#45;&gt;Node6 -->
<g id="edge5" class="edge"><title>Node2&#45;&gt;Node6</title>
<path fill="none" stroke="midnightblue" d="M326.624,-159.646C341.829,-159.139 357.808,-158.606 372.713,-158.11"/>
<polygon fill="midnightblue" stroke="midnightblue" points="372.959,-161.603 382.837,-157.772 372.726,-154.607 372.959,-161.603"/>
</g>
<!-- Node9&#45;&gt;Node3 -->
<g id="edge9" class="edge"><title>Node9&#45;&gt;Node3</title>
<path fill="none" stroke="midnightblue" d="M328.176,-115.005C336.52,-115.237 345.077,-115.474 353.544,-115.71"/>
<polygon fill="midnightblue" stroke="midnightblue" points="353.715,-119.216 363.808,-115.995 353.909,-112.218 353.715,-119.216"/>
</g>
<!-- Node9&#45;&gt;Node4 -->
<g id="edge10" class="edge"><title>Node9&#45;&gt;Node4</title>
<path fill="none" stroke="midnightblue" d="M328.176,-99.7678C343.354,-96.9851 359.237,-94.0732 374.003,-91.366"/>
<polygon fill="midnightblue" stroke="midnightblue" points="374.82,-94.7747 384.025,-89.5287 373.558,-87.8894 374.82,-94.7747"/>
</g>
<!-- Node9&#45;&gt;Node5 -->
<g id="edge11" class="edge"><title>Node9&#45;&gt;Node5</title>
<path fill="none" stroke="midnightblue" d="M308.858,-128.127C315.53,-130.958 322.083,-134.235 328,-138 347.358,-150.316 344.187,-163.43 364,-175 367.705,-177.164 371.659,-179.086 375.736,-180.792"/>
<polygon fill="midnightblue" stroke="midnightblue" points="374.819,-184.185 385.412,-184.396 377.262,-177.625 374.819,-184.185"/>
</g>
<!-- Node9&#45;&gt;Node6 -->
<g id="edge12" class="edge"><title>Node9&#45;&gt;Node6</title>
<path fill="none" stroke="midnightblue" d="M318.955,-128.039C340.998,-133.305 365.426,-139.141 386.239,-144.113"/>
<polygon fill="midnightblue" stroke="midnightblue" points="385.6,-147.558 396.139,-146.478 387.226,-140.75 385.6,-147.558"/>
</g>
</g>
</svg>
