<?xml version="1.0" encoding="UTF-8" standalone="no"?>
<!DOCTYPE svg PUBLIC "-//W3C//DTD SVG 1.1//EN"
 "http://www.w3.org/Graphics/SVG/1.1/DTD/svg11.dtd">
<!-- Generated by graphviz version 2.36.0 (20140111.2315)
 -->
<!-- Title: controller.Controller.playSimulation Pages: 1 -->
<!--zoomable 61 -->
<svg id="main" version="1.1" xmlns="http://www.w3.org/2000/svg" xmlns:xlink="http://www.w3.org/1999/xlink" xml:space="preserve" onload="init(evt)">
<style type="text/css"><![CDATA[
.edge:hover path { stroke: red; }
.edge:hover polygon { stroke: red; fill: red; }
]]></style>
<script type="text/javascript"><![CDATA[
var edges = document.getElementsByTagName('g');
if (edges && edges.length) {
  for (var i=0;i<edges.length;i++) {
    if (edges[i].id.substr(0,4)=='edge') {
      edges[i].setAttribute('class','edge');
    }
  }
}
]]></script>
        <defs>
                <circle id="rim" cx="0" cy="0" r="7"/>
                <circle id="rim2" cx="0" cy="0" r="3.5"/>
                <g id="zoomPlus">
                        <use xlink:href="#rim" fill="#404040">
                                <set attributeName="fill" to="#808080" begin="zoomplus.mouseover" end="zoomplus.mouseout"/>
                        </use>
                        <path d="M-4,0h8M0,-4v8" fill="none" stroke="white" stroke-width="1.5" pointer-events="none"/>
                </g>
                <g id="zoomMin">
                        <use xlink:href="#rim" fill="#404040">
                                <set attributeName="fill" to="#808080" begin="zoomminus.mouseover" end="zoomminus.mouseout"/>
                        </use>
                        <path d="M-4,0h8" fill="none" stroke="white" stroke-width="1.5" pointer-events="none"/>
                </g>
                <g id="dirArrow">
                        <path fill="none" stroke="white" stroke-width="1.5" d="M0,-3.0v7 M-2.5,-0.5L0,-3.0L2.5,-0.5"/>
                </g>
               <g id="resetDef">
                       <use xlink:href="#rim2" fill="#404040">
                               <set attributeName="fill" to="#808080" begin="reset.mouseover" end="reset.mouseout"/>
                       </use>
               </g>
        </defs>

<script type="text/javascript">
var viewWidth = 1068;
var viewHeight = 61;
var sectionId = 'dynsection-14';
</script>
<script xlink:href="../../svgpan.js"/>
<svg id="graph" class="graph">
<g id="viewport">
<title>controller.Controller.playSimulation</title>
<polygon fill="white" stroke="none" points="-4,4 -4,-57 1064,-57 1064,4 -4,4"/>
<!-- Node1 -->
<g id="node1" class="node"><title>Node1</title>
<polygon fill="#bfbfbf" stroke="black" points="0,-1 0,-31 132,-31 132,-1 0,-1"/>
<text text-anchor="start" x="8" y="-19" font-family="Helvetica,sans-Serif" font-size="10.00">controller.Controller.play</text>
<text text-anchor="middle" x="66" y="-8" font-family="Helvetica,sans-Serif" font-size="10.00">Simulation</text>
</g>
<!-- Node2 -->
<g id="node2" class="node"><title>Node2</title>
<g id="a_node2"><a xlink:href="../../d9/df7/classcontroller_1_1_controller.html#a37d9d1d84d304a9d94d7666322b7c6ab" target="_top" xlink:title="controller.Controller.change\lSpeed">
<polygon fill="white" stroke="black" points="168,-23 168,-53 316,-53 316,-23 168,-23"/>
<text text-anchor="start" x="176" y="-41" font-family="Helvetica,sans-Serif" font-size="10.00">controller.Controller.change</text>
<text text-anchor="middle" x="242" y="-30" font-family="Helvetica,sans-Serif" font-size="10.00">Speed</text>
</a>
</g>
</g>
<!-- Node1&#45;&gt;Node2 -->
<g id="edge1" class="edge"><title>Node1&#45;&gt;Node2</title>
<path fill="none" stroke="midnightblue" d="M142.437,-25.538C150.836,-26.5999 159.381,-27.6804 167.752,-28.7388"/>
<polygon fill="midnightblue" stroke="midnightblue" points="142.646,-22.0367 132.286,-24.2546 141.768,-28.9814 142.646,-22.0367"/>
</g>
<!-- Node3 -->
<g id="node3" class="node"><title>Node3</title>
<g id="a_node3"><a xlink:href="../../d1/dbf/classview_package_1_1_view.html#a1d1a8e16ae622c0d6a66cd9c516672a6" target="_top" xlink:title="viewPackage.View.setPlay\lAction">
<polygon fill="white" stroke="black" points="352,-1 352,-31 490,-31 490,-1 352,-1"/>
<text text-anchor="start" x="360" y="-19" font-family="Helvetica,sans-Serif" font-size="10.00">viewPackage.View.setPlay</text>
<text text-anchor="middle" x="421" y="-8" font-family="Helvetica,sans-Serif" font-size="10.00">Action</text>
</a>
</g>
</g>
<!-- Node1&#45;&gt;Node3 -->
<g id="edge6" class="edge"><title>Node1&#45;&gt;Node3</title>
<path fill="none" stroke="midnightblue" d="M142.316,-14.3446C150.977,-14.2029 159.681,-14.0824 168,-14 233.775,-13.3488 250.225,-13.3676 316,-14 327.557,-14.1111 339.836,-14.2917 351.753,-14.5"/>
<polygon fill="midnightblue" stroke="midnightblue" points="142.132,-10.8471 132.195,-14.5196 142.254,-17.8461 142.132,-10.8471"/>
</g>
<!-- Node2&#45;&gt;Node3 -->
<g id="edge2" class="edge"><title>Node2&#45;&gt;Node3</title>
<path fill="none" stroke="midnightblue" d="M326.13,-27.6675C334.79,-26.591 343.52,-25.506 351.984,-24.4539"/>
<polygon fill="midnightblue" stroke="midnightblue" points="325.506,-24.2179 316.015,-28.9247 326.37,-31.1645 325.506,-24.2179"/>
</g>
<!-- Node4 -->
<g id="node4" class="node"><title>Node4</title>
<g id="a_node4"><a xlink:href="../../dc/d2c/classview_package_1_1_button_box.html#a9756fc46a96c169ce48a1867bd2c82f5" target="_top" xlink:title="viewPackage.ButtonBox.make\lButtonBox">
<polygon fill="white" stroke="black" points="526,-1 526,-31 686,-31 686,-1 526,-1"/>
<text text-anchor="start" x="534" y="-19" font-family="Helvetica,sans-Serif" font-size="10.00">viewPackage.ButtonBox.make</text>
<text text-anchor="middle" x="606" y="-8" font-family="Helvetica,sans-Serif" font-size="10.00">ButtonBox</text>
</a>
</g>
</g>
<!-- Node3&#45;&gt;Node4 -->
<g id="edge3" class="edge"><title>Node3&#45;&gt;Node4</title>
<path fill="none" stroke="midnightblue" d="M500.303,-16C508.711,-16 517.27,-16 525.69,-16"/>
<polygon fill="midnightblue" stroke="midnightblue" points="500.142,-12.5001 490.142,-16 500.142,-19.5001 500.142,-12.5001"/>
</g>
<!-- Node5 -->
<g id="node5" class="node"><title>Node5</title>
<g id="a_node5"><a xlink:href="../../d1/dbf/classview_package_1_1_view.html#af6f6887ef253ae0fba2634e367b95312" target="_top" xlink:title="viewPackage.View.initialize">
<polygon fill="white" stroke="black" points="722,-6.5 722,-25.5 864,-25.5 864,-6.5 722,-6.5"/>
<text text-anchor="middle" x="793" y="-13.5" font-family="Helvetica,sans-Serif" font-size="10.00">viewPackage.View.initialize</text>
</a>
</g>
</g>
<!-- Node4&#45;&gt;Node5 -->
<g id="edge4" class="edge"><title>Node4&#45;&gt;Node5</title>
<path fill="none" stroke="midnightblue" d="M696.327,-16C704.93,-16 713.57,-16 721.949,-16"/>
<polygon fill="midnightblue" stroke="midnightblue" points="696.262,-12.5001 686.262,-16 696.262,-19.5001 696.262,-12.5001"/>
</g>
<!-- Node6 -->
<g id="node6" class="node"><title>Node6</title>
<g id="a_node6"><a xlink:href="../../d9/df7/classcontroller_1_1_controller.html#a4dbfef3e3e30bd1bb84df7a6b24ad1e7" target="_top" xlink:title="controller.Controller.Controller">
<polygon fill="white" stroke="black" points="900.5,-6.5 900.5,-25.5 1059.5,-25.5 1059.5,-6.5 900.5,-6.5"/>
<text text-anchor="middle" x="980" y="-13.5" font-family="Helvetica,sans-Serif" font-size="10.00">controller.Controller.Controller</text>
</a>
</g>
</g>
<!-- Node5&#45;&gt;Node6 -->
<g id="edge5" class="edge"><title>Node5&#45;&gt;Node6</title>
<path fill="none" stroke="midnightblue" d="M874.313,-16C882.998,-16 891.828,-16 900.491,-16"/>
<polygon fill="midnightblue" stroke="midnightblue" points="874.204,-12.5001 864.204,-16 874.204,-19.5001 874.204,-12.5001"/>
</g>
</g>
</svg>
        <g id="navigator" transform="translate(0 0)" fill="#404254">
                <rect fill="#f2f5e9" fill-opacity="0.5" stroke="#606060" stroke-width=".5" x="0" y="0" width="60" height="60"/>
                <use id="zoomplus" xlink:href="#zoomPlus" x="17" y="9" onmousedown="handleZoom(evt,'in')"/>
                <use id="zoomminus" xlink:href="#zoomMin" x="42" y="9" onmousedown="handleZoom(evt,'out')"/>
                <use id="reset" xlink:href="#resetDef" x="30" y="36" onmousedown="handleReset()"/>
                <g id="arrowUp" xlink:href="#dirArrow" transform="translate(30 24)" onmousedown="handlePan(0,-1)">
                  <use xlink:href="#rim" fill="#404040">
                        <set attributeName="fill" to="#808080" begin="arrowUp.mouseover" end="arrowUp.mouseout"/>
                  </use>
                  <path fill="none" stroke="white" stroke-width="1.5" d="M0,-3.0v7 M-2.5,-0.5L0,-3.0L2.5,-0.5"/>
                </g>
                <g id="arrowRight" xlink:href="#dirArrow" transform="rotate(90) translate(36 -43)" onmousedown="handlePan(1,0)">
                  <use xlink:href="#rim" fill="#404040">
                        <set attributeName="fill" to="#808080" begin="arrowRight.mouseover" end="arrowRight.mouseout"/>
                  </use>
                  <path fill="none" stroke="white" stroke-width="1.5" d="M0,-3.0v7 M-2.5,-0.5L0,-3.0L2.5,-0.5"/>
                </g>
                <g id="arrowDown" xlink:href="#dirArrow" transform="rotate(180) translate(-30 -48)" onmousedown="handlePan(0,1)">
                  <use xlink:href="#rim" fill="#404040">
                        <set attributeName="fill" to="#808080" begin="arrowDown.mouseover" end="arrowDown.mouseout"/>
                  </use>
                  <path fill="none" stroke="white" stroke-width="1.5" d="M0,-3.0v7 M-2.5,-0.5L0,-3.0L2.5,-0.5"/>
                </g>
                <g id="arrowLeft" xlink:href="#dirArrow" transform="rotate(270) translate(-36 17)" onmousedown="handlePan(-1,0)">
                  <use xlink:href="#rim" fill="#404040">
                        <set attributeName="fill" to="#808080" begin="arrowLeft.mouseover" end="arrowLeft.mouseout"/>
                  </use>
                  <path fill="none" stroke="white" stroke-width="1.5" d="M0,-3.0v7 M-2.5,-0.5L0,-3.0L2.5,-0.5"/>
                </g>
        </g>
        <svg viewBox="0 0 15 15" width="100%" height="30px" preserveAspectRatio="xMaxYMin meet">
         <g id="arrow_out" transform="scale(0.3 0.3)">
          <a xlink:href="classcontroller_1_1_controller_ae859ed2fba4e22871428ec51f7d4c07d_icgraph_org.svg" target="_base">
           <rect id="button" ry="5" rx="5" y="6" x="6" height="38" width="38"
                fill="#f2f5e9" fill-opacity="0.5" stroke="#606060" stroke-width="1.0"/>
           <path id="arrow"
             d="M 11.500037,31.436501 C 11.940474,20.09759 22.043105,11.32322 32.158766,21.979434 L 37.068811,17.246167 C 37.068811,17.246167 37.088388,32 37.088388,32 L 22.160133,31.978069 C 22.160133,31.978069 26.997745,27.140456 26.997745,27.140456 C 18.528582,18.264221 13.291696,25.230495 11.500037,31.436501 z"
             style="fill:#404040;"/>
          </a>
         </g>
        </svg>
</svg>
