<?xml version="1.0" encoding="UTF-8" standalone="no"?>
<!DOCTYPE svg PUBLIC "-//W3C//DTD SVG 1.1//EN"
 "http://www.w3.org/Graphics/SVG/1.1/DTD/svg11.dtd">
<!-- Generated by graphviz version 2.36.0 (20140111.2315)
 -->
<!-- Title: controller.Controller.playSimulation Pages: 1 -->
<svg width="974pt" height="493pt"
 viewBox="0.00 0.00 974.00 493.00" xmlns="http://www.w3.org/2000/svg" xmlns:xlink="http://www.w3.org/1999/xlink">
<g id="graph0" class="graph" transform="scale(1 1) rotate(0) translate(4 489)">
<title>controller.Controller.playSimulation</title>
<polygon fill="white" stroke="none" points="-4,4 -4,-489 970,-489 970,4 -4,4"/>
<!-- Node1 -->
<g id="node1" class="node"><title>Node1</title>
<polygon fill="#bfbfbf" stroke="black" points="0,-235 0,-265 132,-265 132,-235 0,-235"/>
<text text-anchor="start" x="8" y="-253" font-family="Helvetica,sans-Serif" font-size="10.00">controller.Controller.play</text>
<text text-anchor="middle" x="66" y="-242" font-family="Helvetica,sans-Serif" font-size="10.00">Simulation</text>
</g>
<!-- Node2 -->
<g id="node2" class="node"><title>Node2</title>
<g id="a_node2"><a xlink:href="../../d9/df7/classcontroller_1_1_controller.html#aa8fee9e96592dabbb151850b562d9ec0" target="_top" xlink:title="controller.Controller.step\lSimulation">
<polygon fill="white" stroke="black" points="168,-235 168,-265 302,-265 302,-235 168,-235"/>
<text text-anchor="start" x="176" y="-253" font-family="Helvetica,sans-Serif" font-size="10.00">controller.Controller.step</text>
<text text-anchor="middle" x="235" y="-242" font-family="Helvetica,sans-Serif" font-size="10.00">Simulation</text>
</a>
</g>
</g>
<!-- Node1&#45;&gt;Node2 -->
<g id="edge1" class="edge"><title>Node1&#45;&gt;Node2</title>
<path fill="none" stroke="midnightblue" d="M132.045,-250C140.47,-250 149.16,-250 157.747,-250"/>
<polygon fill="midnightblue" stroke="midnightblue" points="157.757,-253.5 167.757,-250 157.757,-246.5 157.757,-253.5"/>
</g>
<!-- Node3 -->
<g id="node3" class="node"><title>Node3</title>
<g id="a_node3"><a xlink:href="../../d2/d17/classmodel_1_1_simulation.html#a4fc716803ab2e78743a529a24a8c601f" target="_top" xlink:title="model.Simulation.makeNextGrid">
<polygon fill="white" stroke="black" points="565.5,-380.5 565.5,-399.5 738.5,-399.5 738.5,-380.5 565.5,-380.5"/>
<text text-anchor="middle" x="652" y="-387.5" font-family="Helvetica,sans-Serif" font-size="10.00">model.Simulation.makeNextGrid</text>
</a>
</g>
</g>
<!-- Node2&#45;&gt;Node3 -->
<g id="edge2" class="edge"><title>Node2&#45;&gt;Node3</title>
<path fill="none" stroke="midnightblue" d="M267.376,-265.068C287.384,-274.447 313.977,-286.492 338,-296 432.356,-333.344 456.11,-343.256 554,-370 565.097,-373.032 577.018,-375.845 588.576,-378.346"/>
<polygon fill="midnightblue" stroke="midnightblue" points="588.102,-381.823 598.609,-380.462 589.546,-374.974 588.102,-381.823"/>
</g>
<!-- Node10 -->
<g id="node10" class="node"><title>Node10</title>
<g id="a_node10"><a xlink:href="../../d2/d17/classmodel_1_1_simulation.html#abed35864045d807fe4a577bbe02b996e" target="_top" xlink:title="model.Simulation.updateGrid">
<polygon fill="white" stroke="black" points="349.5,-218.5 349.5,-237.5 506.5,-237.5 506.5,-218.5 349.5,-218.5"/>
<text text-anchor="middle" x="428" y="-225.5" font-family="Helvetica,sans-Serif" font-size="10.00">model.Simulation.updateGrid</text>
</a>
</g>
</g>
<!-- Node2&#45;&gt;Node10 -->
<g id="edge9" class="edge"><title>Node2&#45;&gt;Node10</title>
<path fill="none" stroke="midnightblue" d="M302.266,-242.367C314.254,-240.986 326.921,-239.527 339.408,-238.089"/>
<polygon fill="midnightblue" stroke="midnightblue" points="339.832,-241.564 349.366,-236.942 339.031,-234.61 339.832,-241.564"/>
</g>
<!-- Node11 -->
<g id="node11" class="node"><title>Node11</title>
<g id="a_node11"><a xlink:href="../../d1/dbf/classview_package_1_1_view.html#a7793d78c89cc38648fc57d4ee46a0837" target="_top" xlink:title="viewPackage.View.updateGridView">
<polygon fill="white" stroke="black" points="338.5,-140.5 338.5,-159.5 517.5,-159.5 517.5,-140.5 338.5,-140.5"/>
<text text-anchor="middle" x="428" y="-147.5" font-family="Helvetica,sans-Serif" font-size="10.00">viewPackage.View.updateGridView</text>
</a>
</g>
</g>
<!-- Node2&#45;&gt;Node11 -->
<g id="edge10" class="edge"><title>Node2&#45;&gt;Node11</title>
<path fill="none" stroke="midnightblue" d="M265.009,-234.812C301.604,-215.653 364.058,-182.954 399.784,-164.249"/>
<polygon fill="midnightblue" stroke="midnightblue" points="401.448,-167.329 408.683,-159.59 398.201,-161.127 401.448,-167.329"/>
</g>
<!-- Node19 -->
<g id="node19" class="node"><title>Node19</title>
<g id="a_node19"><a xlink:href="../../d9/df7/classcontroller_1_1_controller.html#af87c08769a85e54ca1d5c688b82b11f6" target="_top" xlink:title="controller.Controller.bundle\lViewPackager">
<polygon fill="white" stroke="black" points="355.5,-257 355.5,-287 500.5,-287 500.5,-257 355.5,-257"/>
<text text-anchor="start" x="363.5" y="-275" font-family="Helvetica,sans-Serif" font-size="10.00">controller.Controller.bundle</text>
<text text-anchor="middle" x="428" y="-264" font-family="Helvetica,sans-Serif" font-size="10.00">ViewPackager</text>
</a>
</g>
</g>
<!-- Node2&#45;&gt;Node19 -->
<g id="edge18" class="edge"><title>Node2&#45;&gt;Node19</title>
<path fill="none" stroke="midnightblue" d="M302.266,-257.633C316.052,-259.221 330.737,-260.912 345.011,-262.556"/>
<polygon fill="midnightblue" stroke="midnightblue" points="344.978,-266.076 355.313,-263.743 345.779,-259.121 344.978,-266.076"/>
</g>
<!-- Node4 -->
<g id="node4" class="node"><title>Node4</title>
<g id="a_node4"><a xlink:href="../../dc/d8f/classmodel_1_1_grid.html#a994d6c682166c2599924fba6a64db842" target="_top" xlink:title="model.Grid.copyGrid">
<polygon fill="white" stroke="black" points="819,-465.5 819,-484.5 933,-484.5 933,-465.5 819,-465.5"/>
<text text-anchor="middle" x="876" y="-472.5" font-family="Helvetica,sans-Serif" font-size="10.00">model.Grid.copyGrid</text>
</a>
</g>
</g>
<!-- Node3&#45;&gt;Node4 -->
<g id="edge3" class="edge"><title>Node3&#45;&gt;Node4</title>
<path fill="none" stroke="midnightblue" d="M669.666,-399.731C694.332,-413.762 742.354,-439.668 786,-455 794.668,-458.045 803.979,-460.737 813.195,-463.08"/>
<polygon fill="midnightblue" stroke="midnightblue" points="812.581,-466.532 823.124,-465.485 814.229,-459.729 812.581,-466.532"/>
</g>
<!-- Node5 -->
<g id="node5" class="node"><title>Node5</title>
<g id="a_node5"><a xlink:href="../../dc/d8f/classmodel_1_1_grid.html#a40adce87c26a3a6830125324ae576c34" target="_top" xlink:title="model.Grid.getGridRowSize">
<polygon fill="white" stroke="black" points="803,-339.5 803,-358.5 949,-358.5 949,-339.5 803,-339.5"/>
<text text-anchor="middle" x="876" y="-346.5" font-family="Helvetica,sans-Serif" font-size="10.00">model.Grid.getGridRowSize</text>
</a>
</g>
</g>
<!-- Node3&#45;&gt;Node5 -->
<g id="edge4" class="edge"><title>Node3&#45;&gt;Node5</title>
<path fill="none" stroke="midnightblue" d="M704.489,-380.491C737.015,-374.484 779.22,-366.689 813.502,-360.358"/>
<polygon fill="midnightblue" stroke="midnightblue" points="814.208,-363.787 823.406,-358.529 812.937,-356.903 814.208,-363.787"/>
</g>
<!-- Node6 -->
<g id="node6" class="node"><title>Node6</title>
<g id="a_node6"><a xlink:href="../../dc/d8f/classmodel_1_1_grid.html#a01924b6019a14826898f281a3064b3b5" target="_top" xlink:title="model.Grid.getGridColSize">
<polygon fill="white" stroke="black" points="804.5,-301.5 804.5,-320.5 947.5,-320.5 947.5,-301.5 804.5,-301.5"/>
<text text-anchor="middle" x="876" y="-308.5" font-family="Helvetica,sans-Serif" font-size="10.00">model.Grid.getGridColSize</text>
</a>
</g>
</g>
<!-- Node3&#45;&gt;Node6 -->
<g id="edge5" class="edge"><title>Node3&#45;&gt;Node6</title>
<path fill="none" stroke="midnightblue" d="M725.35,-380.457C733.967,-377.78 742.393,-374.362 750,-370 770.748,-358.102 765.293,-341.97 786,-330 789.875,-327.76 793.982,-325.783 798.222,-324.038"/>
<polygon fill="midnightblue" stroke="midnightblue" points="799.492,-327.301 807.68,-320.578 797.087,-320.727 799.492,-327.301"/>
</g>
<!-- Node7 -->
<g id="node7" class="node"><title>Node7</title>
<g id="a_node7"><a xlink:href="../../d2/d17/classmodel_1_1_simulation.html#ab1da5698abc45e35e163f783fa393f8d" target="_top" xlink:title="model.Simulation.calculate\lNewCellState">
<polygon fill="white" stroke="black" points="803,-416 803,-446 949,-446 949,-416 803,-416"/>
<text text-anchor="start" x="811" y="-434" font-family="Helvetica,sans-Serif" font-size="10.00">model.Simulation.calculate</text>
<text text-anchor="middle" x="876" y="-423" font-family="Helvetica,sans-Serif" font-size="10.00">NewCellState</text>
</a>
</g>
</g>
<!-- Node3&#45;&gt;Node7 -->
<g id="edge6" class="edge"><title>Node3&#45;&gt;Node7</title>
<path fill="none" stroke="midnightblue" d="M704.489,-399.509C730.727,-404.355 763.264,-410.364 792.859,-415.83"/>
<polygon fill="midnightblue" stroke="midnightblue" points="792.3,-419.286 802.77,-417.66 793.572,-412.402 792.3,-419.286"/>
</g>
<!-- Node8 -->
<g id="node8" class="node"><title>Node8</title>
<g id="a_node8"><a xlink:href="../../dc/d8f/classmodel_1_1_grid.html#a7308e05b94f35a2f8198f314eb384267" target="_top" xlink:title="model.Grid.getCell">
<polygon fill="white" stroke="black" points="823.5,-263.5 823.5,-282.5 928.5,-282.5 928.5,-263.5 823.5,-263.5"/>
<text text-anchor="middle" x="876" y="-270.5" font-family="Helvetica,sans-Serif" font-size="10.00">model.Grid.getCell</text>
</a>
</g>
</g>
<!-- Node3&#45;&gt;Node8 -->
<g id="edge7" class="edge"><title>Node3&#45;&gt;Node8</title>
<path fill="none" stroke="midnightblue" d="M732.13,-380.444C738.541,-377.703 744.613,-374.276 750,-370 779.907,-346.264 756.177,-315.84 786,-292 793.96,-285.637 803.559,-281.274 813.465,-278.308"/>
<polygon fill="midnightblue" stroke="midnightblue" points="814.591,-281.633 823.425,-275.784 812.871,-274.848 814.591,-281.633"/>
</g>
<!-- Node9 -->
<g id="node9" class="node"><title>Node9</title>
<g id="a_node9"><a xlink:href="../../d3/d57/classmodel_1_1_cell.html#afba3057d5fff58793cb8118915f47e2a" target="_top" xlink:title="model.Cell.setState">
<polygon fill="white" stroke="black" points="820.5,-377.5 820.5,-396.5 931.5,-396.5 931.5,-377.5 820.5,-377.5"/>
<text text-anchor="middle" x="876" y="-384.5" font-family="Helvetica,sans-Serif" font-size="10.00">model.Cell.setState</text>
</a>
</g>
</g>
<!-- Node3&#45;&gt;Node9 -->
<g id="edge8" class="edge"><title>Node3&#45;&gt;Node9</title>
<path fill="none" stroke="midnightblue" d="M738.513,-388.844C762.346,-388.522 787.836,-388.178 810.258,-387.875"/>
<polygon fill="midnightblue" stroke="midnightblue" points="810.376,-391.374 820.328,-387.739 810.281,-384.374 810.376,-391.374"/>
</g>
<!-- Node12 -->
<g id="node12" class="node"><title>Node12</title>
<g id="a_node12"><a xlink:href="../../df/dcf/classview_package_1_1_display_grid.html#a1a0aa454acaa29992ff9c716d38ec396" target="_top" xlink:title="viewPackage.DisplayGrid.updateGrid">
<polygon fill="white" stroke="black" points="557,-44.5 557,-63.5 747,-63.5 747,-44.5 557,-44.5"/>
<text text-anchor="middle" x="652" y="-51.5" font-family="Helvetica,sans-Serif" font-size="10.00">viewPackage.DisplayGrid.updateGrid</text>
</a>
</g>
</g>
<!-- Node11&#45;&gt;Node12 -->
<g id="edge11" class="edge"><title>Node11&#45;&gt;Node12</title>
<path fill="none" stroke="midnightblue" d="M451.098,-140.444C490.742,-123.301 574.049,-87.2762 619.605,-67.5761"/>
<polygon fill="midnightblue" stroke="midnightblue" points="621.202,-70.6988 628.992,-63.5172 618.424,-64.2738 621.202,-70.6988"/>
</g>
<!-- Node15 -->
<g id="node15" class="node"><title>Node15</title>
<g id="a_node15"><a xlink:href="../../d1/d10/classview_package_1_1_population_graph.html#a821b7af856b69286ee399d9db8c65a71" target="_top" xlink:title="viewPackage.PopulationGraph.update\lGraph">
<polygon fill="white" stroke="black" points="554,-135 554,-165 750,-165 750,-135 554,-135"/>
<text text-anchor="start" x="562" y="-153" font-family="Helvetica,sans-Serif" font-size="10.00">viewPackage.PopulationGraph.update</text>
<text text-anchor="middle" x="652" y="-142" font-family="Helvetica,sans-Serif" font-size="10.00">Graph</text>
</a>
</g>
</g>
<!-- Node11&#45;&gt;Node15 -->
<g id="edge14" class="edge"><title>Node11&#45;&gt;Node15</title>
<path fill="none" stroke="midnightblue" d="M517.697,-150C526.204,-150 534.894,-150 543.554,-150"/>
<polygon fill="midnightblue" stroke="midnightblue" points="543.694,-153.5 553.694,-150 543.694,-146.5 543.694,-153.5"/>
</g>
<!-- Node13 -->
<g id="node13" class="node"><title>Node13</title>
<g id="a_node13"><a xlink:href="../../d2/d2c/classcontroller_1_1_view_packager.html#a1e8974daf2095f568a390c63173683c7" target="_top" xlink:title="controller.ViewPackager.get\lColorGrid">
<polygon fill="white" stroke="black" points="802.5,-39 802.5,-69 949.5,-69 949.5,-39 802.5,-39"/>
<text text-anchor="start" x="810.5" y="-57" font-family="Helvetica,sans-Serif" font-size="10.00">controller.ViewPackager.get</text>
<text text-anchor="middle" x="876" y="-46" font-family="Helvetica,sans-Serif" font-size="10.00">ColorGrid</text>
</a>
</g>
</g>
<!-- Node12&#45;&gt;Node13 -->
<g id="edge12" class="edge"><title>Node12&#45;&gt;Node13</title>
<path fill="none" stroke="midnightblue" d="M747.148,-54C762.127,-54 777.525,-54 792.216,-54"/>
<polygon fill="midnightblue" stroke="midnightblue" points="792.261,-57.5001 802.261,-54 792.261,-50.5001 792.261,-57.5001"/>
</g>
<!-- Node14 -->
<g id="node14" class="node"><title>Node14</title>
<g id="a_node14"><a xlink:href="../../df/dcf/classview_package_1_1_display_grid.html#abcfcacf1767533f216fca38abf791804" target="_top" xlink:title="viewPackage.DisplayGrid.setFill">
<polygon fill="white" stroke="black" points="794.5,-0.5 794.5,-19.5 957.5,-19.5 957.5,-0.5 794.5,-0.5"/>
<text text-anchor="middle" x="876" y="-7.5" font-family="Helvetica,sans-Serif" font-size="10.00">viewPackage.DisplayGrid.setFill</text>
</a>
</g>
</g>
<!-- Node12&#45;&gt;Node14 -->
<g id="edge13" class="edge"><title>Node12&#45;&gt;Node14</title>
<path fill="none" stroke="midnightblue" d="M701.171,-44.4527C735.207,-37.7066 780.996,-28.6313 817.035,-21.4886"/>
<polygon fill="midnightblue" stroke="midnightblue" points="817.795,-24.9062 826.923,-19.5287 816.434,-18.0397 817.795,-24.9062"/>
</g>
<!-- Node16 -->
<g id="node16" class="node"><title>Node16</title>
<g id="a_node16"><a xlink:href="../../d2/d2c/classcontroller_1_1_view_packager.html#a111fe52ef72753012062470020a0e152" target="_top" xlink:title="controller.ViewPackager.get\lStateTotals">
<polygon fill="white" stroke="black" points="802.5,-137 802.5,-167 949.5,-167 949.5,-137 802.5,-137"/>
<text text-anchor="start" x="810.5" y="-155" font-family="Helvetica,sans-Serif" font-size="10.00">controller.ViewPackager.get</text>
<text text-anchor="middle" x="876" y="-144" font-family="Helvetica,sans-Serif" font-size="10.00">StateTotals</text>
</a>
</g>
</g>
<!-- Node15&#45;&gt;Node16 -->
<g id="edge15" class="edge"><title>Node15&#45;&gt;Node16</title>
<path fill="none" stroke="midnightblue" d="M750.049,-150.874C763.996,-151 778.24,-151.128 791.884,-151.251"/>
<polygon fill="midnightblue" stroke="midnightblue" points="792.154,-154.754 802.185,-151.344 792.217,-147.754 792.154,-154.754"/>
</g>
<!-- Node17 -->
<g id="node17" class="node"><title>Node17</title>
<g id="a_node17"><a xlink:href="../../d1/d10/classview_package_1_1_population_graph.html#a3cb5ab88b681f1415029a3ef5b675588" target="_top" xlink:title="viewPackage.PopulationGraph.add\lToList">
<polygon fill="white" stroke="black" points="786,-88 786,-118 966,-118 966,-88 786,-88"/>
<text text-anchor="start" x="794" y="-106" font-family="Helvetica,sans-Serif" font-size="10.00">viewPackage.PopulationGraph.add</text>
<text text-anchor="middle" x="876" y="-95" font-family="Helvetica,sans-Serif" font-size="10.00">ToList</text>
</a>
</g>
</g>
<!-- Node15&#45;&gt;Node17 -->
<g id="edge16" class="edge"><title>Node15&#45;&gt;Node17</title>
<path fill="none" stroke="midnightblue" d="M723.853,-135C746.181,-130.272 771.014,-125.015 793.994,-120.15"/>
<polygon fill="midnightblue" stroke="midnightblue" points="795.001,-123.514 804.059,-118.019 793.551,-116.666 795.001,-123.514"/>
</g>
<!-- Node18 -->
<g id="node18" class="node"><title>Node18</title>
<g id="a_node18"><a xlink:href="../../d1/dbf/classview_package_1_1_view.html#aea085ebbf6e586d637710ff0d8ba71bf" target="_top" xlink:title="viewPackage.View.getGeneration">
<polygon fill="white" stroke="black" points="789.5,-186.5 789.5,-205.5 962.5,-205.5 962.5,-186.5 789.5,-186.5"/>
<text text-anchor="middle" x="876" y="-193.5" font-family="Helvetica,sans-Serif" font-size="10.00">viewPackage.View.getGeneration</text>
</a>
</g>
</g>
<!-- Node15&#45;&gt;Node18 -->
<g id="edge17" class="edge"><title>Node15&#45;&gt;Node18</title>
<path fill="none" stroke="midnightblue" d="M725.691,-165.062C755.987,-171.34 790.622,-178.516 818.902,-184.376"/>
<polygon fill="midnightblue" stroke="midnightblue" points="818.512,-187.87 829.014,-186.471 819.932,-181.015 818.512,-187.87"/>
</g>
<!-- Node20 -->
<g id="node20" class="node"><title>Node20</title>
<g id="a_node20"><a xlink:href="../../d9/df7/classcontroller_1_1_controller.html#ae43191a1fc7db5c1cb03da2a8a580541" target="_top" xlink:title="controller.Controller.create\lColorGrid">
<polygon fill="white" stroke="black" points="580.5,-233 580.5,-263 723.5,-263 723.5,-233 580.5,-233"/>
<text text-anchor="start" x="588.5" y="-251" font-family="Helvetica,sans-Serif" font-size="10.00">controller.Controller.create</text>
<text text-anchor="middle" x="652" y="-240" font-family="Helvetica,sans-Serif" font-size="10.00">ColorGrid</text>
</a>
</g>
</g>
<!-- Node19&#45;&gt;Node20 -->
<g id="edge19" class="edge"><title>Node19&#45;&gt;Node20</title>
<path fill="none" stroke="midnightblue" d="M500.77,-264.241C522.951,-261.843 547.53,-259.186 570.273,-256.727"/>
<polygon fill="midnightblue" stroke="midnightblue" points="570.669,-260.205 580.235,-255.65 569.917,-253.245 570.669,-260.205"/>
</g>
<!-- Node22 -->
<g id="node22" class="node"><title>Node22</title>
<g id="a_node22"><a xlink:href="../../d2/d2c/classcontroller_1_1_view_packager.html#a637ec76985be3af6c2b14a527e1c1bac" target="_top" xlink:title="controller.ViewPackager.set\lColorGrid">
<polygon fill="white" stroke="black" points="579,-184 579,-214 725,-214 725,-184 579,-184"/>
<text text-anchor="start" x="587" y="-202" font-family="Helvetica,sans-Serif" font-size="10.00">controller.ViewPackager.set</text>
<text text-anchor="middle" x="652" y="-191" font-family="Helvetica,sans-Serif" font-size="10.00">ColorGrid</text>
</a>
</g>
</g>
<!-- Node19&#45;&gt;Node22 -->
<g id="edge24" class="edge"><title>Node19&#45;&gt;Node22</title>
<path fill="none" stroke="midnightblue" d="M492.134,-256.94C500.982,-254.062 509.834,-250.754 518,-247 535.472,-238.968 536.405,-230.758 554,-223 558.911,-220.835 564.051,-218.842 569.294,-217.012"/>
<polygon fill="midnightblue" stroke="midnightblue" points="570.402,-220.333 578.815,-213.892 568.222,-213.681 570.402,-220.333"/>
</g>
<!-- Node23 -->
<g id="node23" class="node"><title>Node23</title>
<g id="a_node23"><a xlink:href="../../d2/d2c/classcontroller_1_1_view_packager.html#a8a82603c0efc9d0197a0c027030f4993" target="_top" xlink:title="controller.ViewPackager.set\lStateTotalMap">
<polygon fill="white" stroke="black" points="579,-331 579,-361 725,-361 725,-331 579,-331"/>
<text text-anchor="start" x="587" y="-349" font-family="Helvetica,sans-Serif" font-size="10.00">controller.ViewPackager.set</text>
<text text-anchor="middle" x="652" y="-338" font-family="Helvetica,sans-Serif" font-size="10.00">StateTotalMap</text>
</a>
</g>
</g>
<!-- Node19&#45;&gt;Node23 -->
<g id="edge25" class="edge"><title>Node19&#45;&gt;Node23</title>
<path fill="none" stroke="midnightblue" d="M464.146,-287.1C488.971,-297.437 523.174,-311.026 554,-321 561.849,-323.54 570.12,-325.996 578.387,-328.314"/>
<polygon fill="midnightblue" stroke="midnightblue" points="577.494,-331.698 588.064,-330.967 579.345,-324.947 577.494,-331.698"/>
</g>
<!-- Node24 -->
<g id="node24" class="node"><title>Node24</title>
<g id="a_node24"><a xlink:href="../../d9/df7/classcontroller_1_1_controller.html#aca48bc84d82655ce699963fd859afebd" target="_top" xlink:title="controller.Controller.update\lStateTotals">
<polygon fill="white" stroke="black" points="579,-282 579,-312 725,-312 725,-282 579,-282"/>
<text text-anchor="start" x="587" y="-300" font-family="Helvetica,sans-Serif" font-size="10.00">controller.Controller.update</text>
<text text-anchor="middle" x="652" y="-289" font-family="Helvetica,sans-Serif" font-size="10.00">StateTotals</text>
</a>
</g>
</g>
<!-- Node19&#45;&gt;Node24 -->
<g id="edge26" class="edge"><title>Node19&#45;&gt;Node24</title>
<path fill="none" stroke="midnightblue" d="M500.77,-280.082C522.412,-282.519 546.337,-285.214 568.612,-287.722"/>
<polygon fill="midnightblue" stroke="midnightblue" points="568.387,-291.219 578.716,-288.86 569.171,-284.263 568.387,-291.219"/>
</g>
<!-- Node20&#45;&gt;Node5 -->
<g id="edge22" class="edge"><title>Node20&#45;&gt;Node5</title>
<path fill="none" stroke="midnightblue" d="M723.721,-258.593C733.083,-261.922 742.144,-266.285 750,-272 774.534,-289.848 761.181,-312.549 786,-330 788.714,-331.908 791.582,-333.631 794.56,-335.187"/>
<polygon fill="midnightblue" stroke="midnightblue" points="793.228,-338.426 803.78,-339.368 796.118,-332.051 793.228,-338.426"/>
</g>
<!-- Node20&#45;&gt;Node6 -->
<g id="edge21" class="edge"><title>Node20&#45;&gt;Node6</title>
<path fill="none" stroke="midnightblue" d="M723.368,-263.065C732.446,-265.689 741.525,-268.666 750,-272 767.033,-278.701 768.862,-285.574 786,-292 792.995,-294.623 800.442,-296.925 807.935,-298.935"/>
<polygon fill="midnightblue" stroke="midnightblue" points="807.227,-302.366 817.779,-301.412 808.935,-295.577 807.227,-302.366"/>
</g>
<!-- Node20&#45;&gt;Node8 -->
<g id="edge20" class="edge"><title>Node20&#45;&gt;Node8</title>
<path fill="none" stroke="midnightblue" d="M723.547,-255.945C752.382,-259.192 785.435,-262.914 813.291,-266.051"/>
<polygon fill="midnightblue" stroke="midnightblue" points="812.973,-269.537 823.302,-267.178 813.756,-262.581 812.973,-269.537"/>
</g>
<!-- Node21 -->
<g id="node21" class="node"><title>Node21</title>
<g id="a_node21"><a xlink:href="../../d3/d57/classmodel_1_1_cell.html#a527cb796745a34155e9b2a82b2a8812a" target="_top" xlink:title="model.Cell.toString">
<polygon fill="white" stroke="black" points="822,-225.5 822,-244.5 930,-244.5 930,-225.5 822,-225.5"/>
<text text-anchor="middle" x="876" y="-232.5" font-family="Helvetica,sans-Serif" font-size="10.00">model.Cell.toString</text>
</a>
</g>
</g>
<!-- Node20&#45;&gt;Node21 -->
<g id="edge23" class="edge"><title>Node20&#45;&gt;Node21</title>
<path fill="none" stroke="midnightblue" d="M723.547,-243.869C751.805,-242.214 784.114,-240.322 811.613,-238.712"/>
<polygon fill="midnightblue" stroke="midnightblue" points="812.121,-242.188 821.899,-238.11 811.711,-235.2 812.121,-242.188"/>
</g>
<!-- Node24&#45;&gt;Node5 -->
<g id="edge27" class="edge"><title>Node24&#45;&gt;Node5</title>
<path fill="none" stroke="midnightblue" d="M713.804,-312.02C725.803,-314.991 738.3,-318.09 750,-321 766.005,-324.981 769.933,-326.278 786,-330 796.606,-332.457 807.95,-334.968 818.868,-337.326"/>
<polygon fill="midnightblue" stroke="midnightblue" points="818.228,-340.768 828.74,-339.442 819.696,-333.924 818.228,-340.768"/>
</g>
<!-- Node24&#45;&gt;Node6 -->
<g id="edge28" class="edge"><title>Node24&#45;&gt;Node6</title>
<path fill="none" stroke="midnightblue" d="M725.077,-301.545C747.145,-302.937 771.563,-304.477 794.174,-305.903"/>
<polygon fill="midnightblue" stroke="midnightblue" points="794.22,-309.413 804.421,-306.549 794.661,-302.427 794.22,-309.413"/>
</g>
<!-- Node24&#45;&gt;Node8 -->
<g id="edge29" class="edge"><title>Node24&#45;&gt;Node8</title>
<path fill="none" stroke="midnightblue" d="M725.077,-289.208C753.48,-286.137 785.776,-282.646 813.1,-279.692"/>
<polygon fill="midnightblue" stroke="midnightblue" points="813.745,-283.143 823.311,-278.588 812.993,-276.183 813.745,-283.143"/>
</g>
<!-- Node24&#45;&gt;Node21 -->
<g id="edge30" class="edge"><title>Node24&#45;&gt;Node21</title>
<path fill="none" stroke="midnightblue" d="M719.067,-281.978C729.531,-279.026 740.146,-275.686 750,-272 766.755,-265.733 769.118,-259.915 786,-254 794.234,-251.115 803.056,-248.591 811.83,-246.406"/>
<polygon fill="midnightblue" stroke="midnightblue" points="812.753,-249.785 821.682,-244.082 811.146,-242.972 812.753,-249.785"/>
</g>
</g>
</svg>
