<?xml version="1.0" encoding="UTF-8" standalone="no"?>
<!DOCTYPE svg PUBLIC "-//W3C//DTD SVG 1.1//EN"
 "http://www.w3.org/Graphics/SVG/1.1/DTD/svg11.dtd">
<!-- Generated by graphviz version 2.36.0 (20140111.2315)
 -->
<!-- Title: controller.Controller.playSimulation Pages: 1 -->
<svg width="1068pt" height="61pt"
 viewBox="0.00 0.00 1068.00 61.00" xmlns="http://www.w3.org/2000/svg" xmlns:xlink="http://www.w3.org/1999/xlink">
<g id="graph0" class="graph" transform="scale(1 1) rotate(0) translate(4 57)">
<title>controller.Controller.playSimulation</title>
<polygon fill="white" stroke="none" points="-4,4 -4,-57 1064,-57 1064,4 -4,4"/>
<!-- Node1 -->
<g id="node1" class="node"><title>Node1</title>
<polygon fill="#bfbfbf" stroke="black" points="0,-1 0,-31 132,-31 132,-1 0,-1"/>
<text text-anchor="start" x="8" y="-19" font-family="Helvetica,sans-Serif" font-size="10.00">controller.Controller.play</text>
<text text-anchor="middle" x="66" y="-8" font-family="Helvetica,sans-Serif" font-size="10.00">Simulation</text>
</g>
<!-- Node2 -->
<g id="node2" class="node"><title>Node2</title>
<g id="a_node2"><a xlink:href="../../d9/df7/classcontroller_1_1_controller.html#a37d9d1d84d304a9d94d7666322b7c6ab" target="_top" xlink:title="controller.Controller.change\lSpeed">
<polygon fill="white" stroke="black" points="168,-23 168,-53 316,-53 316,-23 168,-23"/>
<text text-anchor="start" x="176" y="-41" font-family="Helvetica,sans-Serif" font-size="10.00">controller.Controller.change</text>
<text text-anchor="middle" x="242" y="-30" font-family="Helvetica,sans-Serif" font-size="10.00">Speed</text>
</a>
</g>
</g>
<!-- Node1&#45;&gt;Node2 -->
<g id="edge1" class="edge"><title>Node1&#45;&gt;Node2</title>
<path fill="none" stroke="midnightblue" d="M142.437,-25.538C150.836,-26.5999 159.381,-27.6804 167.752,-28.7388"/>
<polygon fill="midnightblue" stroke="midnightblue" points="142.646,-22.0367 132.286,-24.2546 141.768,-28.9814 142.646,-22.0367"/>
</g>
<!-- Node3 -->
<g id="node3" class="node"><title>Node3</title>
<g id="a_node3"><a xlink:href="../../d1/dbf/classview_package_1_1_view.html#a1d1a8e16ae622c0d6a66cd9c516672a6" target="_top" xlink:title="viewPackage.View.setPlay\lAction">
<polygon fill="white" stroke="black" points="352,-1 352,-31 490,-31 490,-1 352,-1"/>
<text text-anchor="start" x="360" y="-19" font-family="Helvetica,sans-Serif" font-size="10.00">viewPackage.View.setPlay</text>
<text text-anchor="middle" x="421" y="-8" font-family="Helvetica,sans-Serif" font-size="10.00">Action</text>
</a>
</g>
</g>
<!-- Node1&#45;&gt;Node3 -->
<g id="edge6" class="edge"><title>Node1&#45;&gt;Node3</title>
<path fill="none" stroke="midnightblue" d="M142.316,-14.3446C150.977,-14.2029 159.681,-14.0824 168,-14 233.775,-13.3488 250.225,-13.3676 316,-14 327.557,-14.1111 339.836,-14.2917 351.753,-14.5"/>
<polygon fill="midnightblue" stroke="midnightblue" points="142.132,-10.8471 132.195,-14.5196 142.254,-17.8461 142.132,-10.8471"/>
</g>
<!-- Node2&#45;&gt;Node3 -->
<g id="edge2" class="edge"><title>Node2&#45;&gt;Node3</title>
<path fill="none" stroke="midnightblue" d="M326.13,-27.6675C334.79,-26.591 343.52,-25.506 351.984,-24.4539"/>
<polygon fill="midnightblue" stroke="midnightblue" points="325.506,-24.2179 316.015,-28.9247 326.37,-31.1645 325.506,-24.2179"/>
</g>
<!-- Node4 -->
<g id="node4" class="node"><title>Node4</title>
<g id="a_node4"><a xlink:href="../../dc/d2c/classview_package_1_1_button_box.html#a9756fc46a96c169ce48a1867bd2c82f5" target="_top" xlink:title="viewPackage.ButtonBox.make\lButtonBox">
<polygon fill="white" stroke="black" points="526,-1 526,-31 686,-31 686,-1 526,-1"/>
<text text-anchor="start" x="534" y="-19" font-family="Helvetica,sans-Serif" font-size="10.00">viewPackage.ButtonBox.make</text>
<text text-anchor="middle" x="606" y="-8" font-family="Helvetica,sans-Serif" font-size="10.00">ButtonBox</text>
</a>
</g>
</g>
<!-- Node3&#45;&gt;Node4 -->
<g id="edge3" class="edge"><title>Node3&#45;&gt;Node4</title>
<path fill="none" stroke="midnightblue" d="M500.303,-16C508.711,-16 517.27,-16 525.69,-16"/>
<polygon fill="midnightblue" stroke="midnightblue" points="500.142,-12.5001 490.142,-16 500.142,-19.5001 500.142,-12.5001"/>
</g>
<!-- Node5 -->
<g id="node5" class="node"><title>Node5</title>
<g id="a_node5"><a xlink:href="../../d1/dbf/classview_package_1_1_view.html#af6f6887ef253ae0fba2634e367b95312" target="_top" xlink:title="viewPackage.View.initialize">
<polygon fill="white" stroke="black" points="722,-6.5 722,-25.5 864,-25.5 864,-6.5 722,-6.5"/>
<text text-anchor="middle" x="793" y="-13.5" font-family="Helvetica,sans-Serif" font-size="10.00">viewPackage.View.initialize</text>
</a>
</g>
</g>
<!-- Node4&#45;&gt;Node5 -->
<g id="edge4" class="edge"><title>Node4&#45;&gt;Node5</title>
<path fill="none" stroke="midnightblue" d="M696.327,-16C704.93,-16 713.57,-16 721.949,-16"/>
<polygon fill="midnightblue" stroke="midnightblue" points="696.262,-12.5001 686.262,-16 696.262,-19.5001 696.262,-12.5001"/>
</g>
<!-- Node6 -->
<g id="node6" class="node"><title>Node6</title>
<g id="a_node6"><a xlink:href="../../d9/df7/classcontroller_1_1_controller.html#a4dbfef3e3e30bd1bb84df7a6b24ad1e7" target="_top" xlink:title="controller.Controller.Controller">
<polygon fill="white" stroke="black" points="900.5,-6.5 900.5,-25.5 1059.5,-25.5 1059.5,-6.5 900.5,-6.5"/>
<text text-anchor="middle" x="980" y="-13.5" font-family="Helvetica,sans-Serif" font-size="10.00">controller.Controller.Controller</text>
</a>
</g>
</g>
<!-- Node5&#45;&gt;Node6 -->
<g id="edge5" class="edge"><title>Node5&#45;&gt;Node6</title>
<path fill="none" stroke="midnightblue" d="M874.313,-16C882.998,-16 891.828,-16 900.491,-16"/>
<polygon fill="midnightblue" stroke="midnightblue" points="874.204,-12.5001 864.204,-16 874.204,-19.5001 874.204,-12.5001"/>
</g>
</g>
</svg>
