<?xml version="1.0" encoding="UTF-8" standalone="no"?>
<!DOCTYPE svg PUBLIC "-//W3C//DTD SVG 1.1//EN"
 "http://www.w3.org/Graphics/SVG/1.1/DTD/svg11.dtd">
<!-- Generated by graphviz version 2.36.0 (20140111.2315)
 -->
<!-- Title: controller.Controller.createColorGrid Pages: 1 -->
<svg width="334pt" height="142pt"
 viewBox="0.00 0.00 334.00 142.00" xmlns="http://www.w3.org/2000/svg" xmlns:xlink="http://www.w3.org/1999/xlink">
<g id="graph0" class="graph" transform="scale(1 1) rotate(0) translate(4 138)">
<title>controller.Controller.createColorGrid</title>
<polygon fill="white" stroke="none" points="-4,4 -4,-138 330,-138 330,4 -4,4"/>
<!-- Node1 -->
<g id="node1" class="node"><title>Node1</title>
<polygon fill="#bfbfbf" stroke="black" points="0.5,-52 0.5,-82 143.5,-82 143.5,-52 0.5,-52"/>
<text text-anchor="start" x="8.5" y="-70" font-family="Helvetica,sans-Serif" font-size="10.00">controller.Controller.create</text>
<text text-anchor="middle" x="72" y="-59" font-family="Helvetica,sans-Serif" font-size="10.00">ColorGrid</text>
</g>
<!-- Node2 -->
<g id="node2" class="node"><title>Node2</title>
<g id="a_node2"><a xlink:href="../../dc/d8f/classmodel_1_1_grid.html#a7308e05b94f35a2f8198f314eb384267" target="_top" xlink:title="model.Grid.getCell">
<polygon fill="white" stroke="black" points="200.5,-114.5 200.5,-133.5 305.5,-133.5 305.5,-114.5 200.5,-114.5"/>
<text text-anchor="middle" x="253" y="-121.5" font-family="Helvetica,sans-Serif" font-size="10.00">model.Grid.getCell</text>
</a>
</g>
</g>
<!-- Node1&#45;&gt;Node2 -->
<g id="edge1" class="edge"><title>Node1&#45;&gt;Node2</title>
<path fill="none" stroke="midnightblue" d="M112.876,-82.0516C132.89,-89.378 157.587,-98.0759 180,-105 187.556,-107.334 195.612,-109.638 203.498,-111.792"/>
<polygon fill="midnightblue" stroke="midnightblue" points="202.779,-115.223 213.344,-114.432 204.592,-108.462 202.779,-115.223"/>
</g>
<!-- Node3 -->
<g id="node3" class="node"><title>Node3</title>
<g id="a_node3"><a xlink:href="../../dc/d8f/classmodel_1_1_grid.html#a01924b6019a14826898f281a3064b3b5" target="_top" xlink:title="model.Grid.getGridColSize">
<polygon fill="white" stroke="black" points="181.5,-76.5 181.5,-95.5 324.5,-95.5 324.5,-76.5 181.5,-76.5"/>
<text text-anchor="middle" x="253" y="-83.5" font-family="Helvetica,sans-Serif" font-size="10.00">model.Grid.getGridColSize</text>
</a>
</g>
</g>
<!-- Node1&#45;&gt;Node3 -->
<g id="edge2" class="edge"><title>Node1&#45;&gt;Node3</title>
<path fill="none" stroke="midnightblue" d="M143.746,-74.5093C152.86,-75.4767 162.245,-76.473 171.501,-77.4555"/>
<polygon fill="midnightblue" stroke="midnightblue" points="171.162,-80.939 181.475,-78.5141 171.901,-73.9781 171.162,-80.939"/>
</g>
<!-- Node4 -->
<g id="node4" class="node"><title>Node4</title>
<g id="a_node4"><a xlink:href="../../dc/d8f/classmodel_1_1_grid.html#a40adce87c26a3a6830125324ae576c34" target="_top" xlink:title="model.Grid.getGridRowSize">
<polygon fill="white" stroke="black" points="180,-38.5 180,-57.5 326,-57.5 326,-38.5 180,-38.5"/>
<text text-anchor="middle" x="253" y="-45.5" font-family="Helvetica,sans-Serif" font-size="10.00">model.Grid.getGridRowSize</text>
</a>
</g>
</g>
<!-- Node1&#45;&gt;Node4 -->
<g id="edge3" class="edge"><title>Node1&#45;&gt;Node4</title>
<path fill="none" stroke="midnightblue" d="M143.746,-59.4907C152.244,-58.5886 160.979,-57.6614 169.625,-56.7437"/>
<polygon fill="midnightblue" stroke="midnightblue" points="170.139,-60.2089 179.714,-55.6728 169.4,-53.248 170.139,-60.2089"/>
</g>
<!-- Node5 -->
<g id="node5" class="node"><title>Node5</title>
<g id="a_node5"><a xlink:href="../../d3/d57/classmodel_1_1_cell.html#a527cb796745a34155e9b2a82b2a8812a" target="_top" xlink:title="model.Cell.toString">
<polygon fill="white" stroke="black" points="199,-0.5 199,-19.5 307,-19.5 307,-0.5 199,-0.5"/>
<text text-anchor="middle" x="253" y="-7.5" font-family="Helvetica,sans-Serif" font-size="10.00">model.Cell.toString</text>
</a>
</g>
</g>
<!-- Node1&#45;&gt;Node5 -->
<g id="edge4" class="edge"><title>Node1&#45;&gt;Node5</title>
<path fill="none" stroke="midnightblue" d="M112.876,-51.9484C132.89,-44.622 157.587,-35.9241 180,-29 187.556,-26.6658 195.612,-24.3622 203.498,-22.208"/>
<polygon fill="midnightblue" stroke="midnightblue" points="204.592,-25.5382 213.344,-19.568 202.779,-18.777 204.592,-25.5382"/>
</g>
</g>
</svg>
