<?xml version="1.0" encoding="UTF-8" standalone="no"?>
<!DOCTYPE svg PUBLIC "-//W3C//DTD SVG 1.1//EN"
 "http://www.w3.org/Graphics/SVG/1.1/DTD/svg11.dtd">
<!-- Generated by graphviz version 2.36.0 (20140111.2315)
 -->
<!-- Title: controller.Controller.createColorGrid Pages: 1 -->
<svg width="1638pt" height="160pt"
 viewBox="0.00 0.00 1638.00 160.00" xmlns="http://www.w3.org/2000/svg" xmlns:xlink="http://www.w3.org/1999/xlink">
<g id="graph0" class="graph" transform="scale(1 1) rotate(0) translate(4 156)">
<title>controller.Controller.createColorGrid</title>
<polygon fill="white" stroke="none" points="-4,4 -4,-156 1634,-156 1634,4 -4,4"/>
<!-- Node1 -->
<g id="node1" class="node"><title>Node1</title>
<polygon fill="#bfbfbf" stroke="black" points="0.5,-90 0.5,-120 143.5,-120 143.5,-90 0.5,-90"/>
<text text-anchor="start" x="8.5" y="-108" font-family="Helvetica,sans-Serif" font-size="10.00">controller.Controller.create</text>
<text text-anchor="middle" x="72" y="-97" font-family="Helvetica,sans-Serif" font-size="10.00">ColorGrid</text>
</g>
<!-- Node2 -->
<g id="node2" class="node"><title>Node2</title>
<g id="a_node2"><a xlink:href="../../d9/df7/classcontroller_1_1_controller.html#af87c08769a85e54ca1d5c688b82b11f6" target="_top" xlink:title="controller.Controller.bundle\lViewPackager">
<polygon fill="white" stroke="black" points="180.5,-90 180.5,-120 325.5,-120 325.5,-90 180.5,-90"/>
<text text-anchor="start" x="188.5" y="-108" font-family="Helvetica,sans-Serif" font-size="10.00">controller.Controller.bundle</text>
<text text-anchor="middle" x="253" y="-97" font-family="Helvetica,sans-Serif" font-size="10.00">ViewPackager</text>
</a>
</g>
</g>
<!-- Node1&#45;&gt;Node2 -->
<g id="edge1" class="edge"><title>Node1&#45;&gt;Node2</title>
<path fill="none" stroke="midnightblue" d="M153.979,-105C162.757,-105 171.645,-105 180.302,-105"/>
<polygon fill="midnightblue" stroke="midnightblue" points="153.746,-101.5 143.746,-105 153.746,-108.5 153.746,-101.5"/>
</g>
<!-- Node3 -->
<g id="node3" class="node"><title>Node3</title>
<g id="a_node3"><a xlink:href="../../d9/df7/classcontroller_1_1_controller.html#af7cc9ab6dfe60da36d3159eea48882db" target="_top" xlink:title="controller.Controller.loadFile">
<polygon fill="white" stroke="black" points="362,-120.5 362,-139.5 510,-139.5 510,-120.5 362,-120.5"/>
<text text-anchor="middle" x="436" y="-127.5" font-family="Helvetica,sans-Serif" font-size="10.00">controller.Controller.loadFile</text>
</a>
</g>
</g>
<!-- Node2&#45;&gt;Node3 -->
<g id="edge2" class="edge"><title>Node2&#45;&gt;Node3</title>
<path fill="none" stroke="midnightblue" d="M335.63,-116.275C345.793,-117.679 356.106,-119.103 366.051,-120.477"/>
<polygon fill="midnightblue" stroke="midnightblue" points="335.921,-112.782 325.536,-114.881 334.963,-119.716 335.921,-112.782"/>
</g>
<!-- Node9 -->
<g id="node9" class="node"><title>Node9</title>
<g id="a_node9"><a xlink:href="../../d9/df7/classcontroller_1_1_controller.html#aa8fee9e96592dabbb151850b562d9ec0" target="_top" xlink:title="controller.Controller.step\lSimulation">
<polygon fill="white" stroke="black" points="369,-66 369,-96 503,-96 503,-66 369,-66"/>
<text text-anchor="start" x="377" y="-84" font-family="Helvetica,sans-Serif" font-size="10.00">controller.Controller.step</text>
<text text-anchor="middle" x="436" y="-73" font-family="Helvetica,sans-Serif" font-size="10.00">Simulation</text>
</a>
</g>
</g>
<!-- Node2&#45;&gt;Node9 -->
<g id="edge8" class="edge"><title>Node2&#45;&gt;Node9</title>
<path fill="none" stroke="midnightblue" d="M335.7,-94.1668C346.844,-92.6892 358.168,-91.1877 368.987,-89.7531"/>
<polygon fill="midnightblue" stroke="midnightblue" points="334.989,-90.7304 325.536,-95.5146 335.909,-97.6696 334.989,-90.7304"/>
</g>
<!-- Node4 -->
<g id="node4" class="node"><title>Node4</title>
<g id="a_node4"><a xlink:href="../../d1/dbf/classview_package_1_1_view.html#a718e5f42ae85512916198548e28477c7" target="_top" xlink:title="viewPackage.View.tryLoad">
<polygon fill="white" stroke="black" points="546,-131.5 546,-150.5 686,-150.5 686,-131.5 546,-131.5"/>
<text text-anchor="middle" x="616" y="-138.5" font-family="Helvetica,sans-Serif" font-size="10.00">viewPackage.View.tryLoad</text>
</a>
</g>
</g>
<!-- Node3&#45;&gt;Node4 -->
<g id="edge3" class="edge"><title>Node3&#45;&gt;Node4</title>
<path fill="none" stroke="midnightblue" d="M520.193,-135.141C528.776,-135.672 537.431,-136.206 545.838,-136.726"/>
<polygon fill="midnightblue" stroke="midnightblue" points="520.367,-131.645 510.17,-134.522 519.935,-138.632 520.367,-131.645"/>
</g>
<!-- Node5 -->
<g id="node5" class="node"><title>Node5</title>
<g id="a_node5"><a xlink:href="../../dc/d2c/classview_package_1_1_button_box.html#aef53bd97c4407ecd3fb5dfbf42850a46" target="_top" xlink:title="viewPackage.ButtonBox.load\lFileBox">
<polygon fill="white" stroke="black" points="906.5,-122 906.5,-152 1059.5,-152 1059.5,-122 906.5,-122"/>
<text text-anchor="start" x="914.5" y="-140" font-family="Helvetica,sans-Serif" font-size="10.00">viewPackage.ButtonBox.load</text>
<text text-anchor="middle" x="983" y="-129" font-family="Helvetica,sans-Serif" font-size="10.00">FileBox</text>
</a>
</g>
</g>
<!-- Node4&#45;&gt;Node5 -->
<g id="edge4" class="edge"><title>Node4&#45;&gt;Node5</title>
<path fill="none" stroke="midnightblue" d="M696.262,-140.131C758.595,-139.448 844.872,-138.503 906.275,-137.83"/>
<polygon fill="midnightblue" stroke="midnightblue" points="696.044,-136.633 686.083,-140.243 696.121,-143.633 696.044,-136.633"/>
</g>
<!-- Node6 -->
<g id="node6" class="node"><title>Node6</title>
<g id="a_node6"><a xlink:href="../../dc/d2c/classview_package_1_1_button_box.html#a9756fc46a96c169ce48a1867bd2c82f5" target="_top" xlink:title="viewPackage.ButtonBox.make\lButtonBox">
<polygon fill="white" stroke="black" points="1096,-54 1096,-84 1256,-84 1256,-54 1096,-54"/>
<text text-anchor="start" x="1104" y="-72" font-family="Helvetica,sans-Serif" font-size="10.00">viewPackage.ButtonBox.make</text>
<text text-anchor="middle" x="1176" y="-61" font-family="Helvetica,sans-Serif" font-size="10.00">ButtonBox</text>
</a>
</g>
</g>
<!-- Node5&#45;&gt;Node6 -->
<g id="edge5" class="edge"><title>Node5&#45;&gt;Node6</title>
<path fill="none" stroke="midnightblue" d="M1035.97,-118.499C1066.34,-107.684 1104.19,-94.2083 1132.73,-84.0492"/>
<polygon fill="midnightblue" stroke="midnightblue" points="1034.64,-115.257 1026.39,-121.909 1036.98,-121.852 1034.64,-115.257"/>
</g>
<!-- Node7 -->
<g id="node7" class="node"><title>Node7</title>
<g id="a_node7"><a xlink:href="../../d1/dbf/classview_package_1_1_view.html#af6f6887ef253ae0fba2634e367b95312" target="_top" xlink:title="viewPackage.View.initialize">
<polygon fill="white" stroke="black" points="1292,-59.5 1292,-78.5 1434,-78.5 1434,-59.5 1292,-59.5"/>
<text text-anchor="middle" x="1363" y="-66.5" font-family="Helvetica,sans-Serif" font-size="10.00">viewPackage.View.initialize</text>
</a>
</g>
</g>
<!-- Node6&#45;&gt;Node7 -->
<g id="edge6" class="edge"><title>Node6&#45;&gt;Node7</title>
<path fill="none" stroke="midnightblue" d="M1266.33,-69C1274.93,-69 1283.57,-69 1291.95,-69"/>
<polygon fill="midnightblue" stroke="midnightblue" points="1266.26,-65.5001 1256.26,-69 1266.26,-72.5001 1266.26,-65.5001"/>
</g>
<!-- Node8 -->
<g id="node8" class="node"><title>Node8</title>
<g id="a_node8"><a xlink:href="../../d9/df7/classcontroller_1_1_controller.html#a4dbfef3e3e30bd1bb84df7a6b24ad1e7" target="_top" xlink:title="controller.Controller.Controller">
<polygon fill="white" stroke="black" points="1470.5,-59.5 1470.5,-78.5 1629.5,-78.5 1629.5,-59.5 1470.5,-59.5"/>
<text text-anchor="middle" x="1550" y="-66.5" font-family="Helvetica,sans-Serif" font-size="10.00">controller.Controller.Controller</text>
</a>
</g>
</g>
<!-- Node7&#45;&gt;Node8 -->
<g id="edge7" class="edge"><title>Node7&#45;&gt;Node8</title>
<path fill="none" stroke="midnightblue" d="M1444.31,-69C1453,-69 1461.83,-69 1470.49,-69"/>
<polygon fill="midnightblue" stroke="midnightblue" points="1444.2,-65.5001 1434.2,-69 1444.2,-72.5001 1444.2,-65.5001"/>
</g>
<!-- Node10 -->
<g id="node10" class="node"><title>Node10</title>
<g id="a_node10"><a xlink:href="../../d9/df7/classcontroller_1_1_controller.html#ae859ed2fba4e22871428ec51f7d4c07d" target="_top" xlink:title="controller.Controller.play\lSimulation">
<polygon fill="white" stroke="black" points="550,-66 550,-96 682,-96 682,-66 550,-66"/>
<text text-anchor="start" x="558" y="-84" font-family="Helvetica,sans-Serif" font-size="10.00">controller.Controller.play</text>
<text text-anchor="middle" x="616" y="-73" font-family="Helvetica,sans-Serif" font-size="10.00">Simulation</text>
</a>
</g>
</g>
<!-- Node9&#45;&gt;Node10 -->
<g id="edge9" class="edge"><title>Node9&#45;&gt;Node10</title>
<path fill="none" stroke="midnightblue" d="M513.211,-81C525.451,-81 538.021,-81 549.968,-81"/>
<polygon fill="midnightblue" stroke="midnightblue" points="513.028,-77.5001 503.028,-81 513.028,-84.5001 513.028,-77.5001"/>
</g>
<!-- Node13 -->
<g id="node13" class="node"><title>Node13</title>
<g id="a_node13"><a xlink:href="../../d1/dbf/classview_package_1_1_view.html#acec783d5c91d6cb27da271e46588e79f" target="_top" xlink:title="viewPackage.View.setStep\lSimulation">
<polygon fill="white" stroke="black" points="725.5,-0 725.5,-30 866.5,-30 866.5,-0 725.5,-0"/>
<text text-anchor="start" x="733.5" y="-18" font-family="Helvetica,sans-Serif" font-size="10.00">viewPackage.View.setStep</text>
<text text-anchor="middle" x="796" y="-7" font-family="Helvetica,sans-Serif" font-size="10.00">Simulation</text>
</a>
</g>
</g>
<!-- Node9&#45;&gt;Node13 -->
<g id="edge14" class="edge"><title>Node9&#45;&gt;Node13</title>
<path fill="none" stroke="midnightblue" d="M509.504,-63.7078C521.662,-60.9988 534.168,-58.3286 546,-56 606.289,-44.1346 675.254,-32.9643 725.294,-25.2889"/>
<polygon fill="midnightblue" stroke="midnightblue" points="508.383,-60.3728 499.397,-65.9859 509.922,-67.2015 508.383,-60.3728"/>
</g>
<!-- Node11 -->
<g id="node11" class="node"><title>Node11</title>
<g id="a_node11"><a xlink:href="../../d9/df7/classcontroller_1_1_controller.html#a37d9d1d84d304a9d94d7666322b7c6ab" target="_top" xlink:title="controller.Controller.change\lSpeed">
<polygon fill="white" stroke="black" points="722,-88 722,-118 870,-118 870,-88 722,-88"/>
<text text-anchor="start" x="730" y="-106" font-family="Helvetica,sans-Serif" font-size="10.00">controller.Controller.change</text>
<text text-anchor="middle" x="796" y="-95" font-family="Helvetica,sans-Serif" font-size="10.00">Speed</text>
</a>
</g>
</g>
<!-- Node10&#45;&gt;Node11 -->
<g id="edge10" class="edge"><title>Node10&#45;&gt;Node11</title>
<path fill="none" stroke="midnightblue" d="M692.128,-90.2855C701.929,-91.4968 711.96,-92.7367 721.731,-93.9442"/>
<polygon fill="midnightblue" stroke="midnightblue" points="692.371,-86.789 682.018,-89.0359 691.513,-93.7362 692.371,-86.789"/>
</g>
<!-- Node12 -->
<g id="node12" class="node"><title>Node12</title>
<g id="a_node12"><a xlink:href="../../d1/dbf/classview_package_1_1_view.html#a1d1a8e16ae622c0d6a66cd9c516672a6" target="_top" xlink:title="viewPackage.View.setPlay\lAction">
<polygon fill="white" stroke="black" points="914,-54 914,-84 1052,-84 1052,-54 914,-54"/>
<text text-anchor="start" x="922" y="-72" font-family="Helvetica,sans-Serif" font-size="10.00">viewPackage.View.setPlay</text>
<text text-anchor="middle" x="983" y="-61" font-family="Helvetica,sans-Serif" font-size="10.00">Action</text>
</a>
</g>
</g>
<!-- Node10&#45;&gt;Node12 -->
<g id="edge13" class="edge"><title>Node10&#45;&gt;Node12</title>
<path fill="none" stroke="midnightblue" d="M692.464,-78.519C757.638,-76.3763 850.979,-73.3075 913.906,-71.2387"/>
<polygon fill="midnightblue" stroke="midnightblue" points="692.134,-75.0278 682.255,-78.8546 692.364,-82.0241 692.134,-75.0278"/>
</g>
<!-- Node11&#45;&gt;Node12 -->
<g id="edge11" class="edge"><title>Node11&#45;&gt;Node12</title>
<path fill="none" stroke="midnightblue" d="M880.018,-87.7427C891.36,-85.6581 902.895,-83.5383 913.93,-81.5102"/>
<polygon fill="midnightblue" stroke="midnightblue" points="879.32,-84.3123 870.117,-89.5623 880.585,-91.197 879.32,-84.3123"/>
</g>
<!-- Node12&#45;&gt;Node6 -->
<g id="edge12" class="edge"><title>Node12&#45;&gt;Node6</title>
<path fill="none" stroke="midnightblue" d="M1062.22,-69C1073.3,-69 1084.7,-69 1095.8,-69"/>
<polygon fill="midnightblue" stroke="midnightblue" points="1062.15,-65.5001 1052.15,-69 1062.15,-72.5001 1062.15,-65.5001"/>
</g>
<!-- Node13&#45;&gt;Node6 -->
<g id="edge15" class="edge"><title>Node13&#45;&gt;Node6</title>
<path fill="none" stroke="midnightblue" d="M876.977,-21.6358C929.248,-26.5094 998.903,-34.0185 1060,-44 1076.84,-46.7507 1094.93,-50.3667 1111.66,-53.9909"/>
<polygon fill="midnightblue" stroke="midnightblue" points="877.041,-18.127 866.763,-20.6963 876.4,-25.0976 877.041,-18.127"/>
</g>
</g>
</svg>
