<?xml version="1.0" encoding="UTF-8" standalone="no"?>
<!DOCTYPE svg PUBLIC "-//W3C//DTD SVG 1.1//EN"
 "http://www.w3.org/Graphics/SVG/1.1/DTD/svg11.dtd">
<!-- Generated by graphviz version 2.36.0 (20140111.2315)
 -->
<!-- Title: controller.Controller.loadFile Pages: 1 -->
<svg width="1072pt" height="1025pt"
 viewBox="0.00 0.00 1072.00 1025.00" xmlns="http://www.w3.org/2000/svg" xmlns:xlink="http://www.w3.org/1999/xlink">
<g id="graph0" class="graph" transform="scale(1 1) rotate(0) translate(4 1021)">
<title>controller.Controller.loadFile</title>
<polygon fill="white" stroke="none" points="-4,4 -4,-1021 1068,-1021 1068,4 -4,4"/>
<!-- Node1 -->
<g id="node1" class="node"><title>Node1</title>
<polygon fill="#bfbfbf" stroke="black" points="0,-441.5 0,-460.5 148,-460.5 148,-441.5 0,-441.5"/>
<text text-anchor="middle" x="74" y="-448.5" font-family="Helvetica,sans-Serif" font-size="10.00">controller.Controller.loadFile</text>
</g>
<!-- Node2 -->
<g id="node2" class="node"><title>Node2</title>
<g id="a_node2"><a xlink:href="../../d9/df7/classcontroller_1_1_controller.html#af87c08769a85e54ca1d5c688b82b11f6" target="_top" xlink:title="controller.Controller.bundle\lViewPackager">
<polygon fill="white" stroke="black" points="207.5,-862 207.5,-892 352.5,-892 352.5,-862 207.5,-862"/>
<text text-anchor="start" x="215.5" y="-880" font-family="Helvetica,sans-Serif" font-size="10.00">controller.Controller.bundle</text>
<text text-anchor="middle" x="280" y="-869" font-family="Helvetica,sans-Serif" font-size="10.00">ViewPackager</text>
</a>
</g>
</g>
<!-- Node1&#45;&gt;Node2 -->
<g id="edge1" class="edge"><title>Node1&#45;&gt;Node2</title>
<path fill="none" stroke="midnightblue" d="M77.4476,-460.693C87.3218,-498.918 126.475,-642.328 184,-749 205.361,-788.61 237.917,-829.547 258.826,-854.142"/>
<polygon fill="midnightblue" stroke="midnightblue" points="256.264,-856.53 265.438,-861.831 261.572,-851.966 256.264,-856.53"/>
</g>
<!-- Node11 -->
<g id="node11" class="node"><title>Node11</title>
<g id="a_node11"><a xlink:href="../../d1/dbf/classview_package_1_1_view.html#a463e5a91c22eba013dfe816c7c318e37" target="_top" xlink:title="viewPackage.View.createDisplayView">
<polygon fill="white" stroke="black" points="184.5,-720.5 184.5,-739.5 375.5,-739.5 375.5,-720.5 184.5,-720.5"/>
<text text-anchor="middle" x="280" y="-727.5" font-family="Helvetica,sans-Serif" font-size="10.00">viewPackage.View.createDisplayView</text>
</a>
</g>
</g>
<!-- Node1&#45;&gt;Node11 -->
<g id="edge14" class="edge"><title>Node1&#45;&gt;Node11</title>
<path fill="none" stroke="midnightblue" d="M75.9206,-460.61C80.1244,-498.862 101.034,-641.529 184,-710 186.6,-712.146 189.373,-714.078 192.277,-715.818"/>
<polygon fill="midnightblue" stroke="midnightblue" points="190.845,-719.017 201.339,-720.477 194.046,-712.791 190.845,-719.017"/>
</g>
<!-- Node20 -->
<g id="node20" class="node"><title>Node20</title>
<g id="a_node20"><a xlink:href="../../d1/dbf/classview_package_1_1_view.html#a03c6d8048559bfb48f6b81662fd54057" target="_top" xlink:title="viewPackage.View.createError\lWindow">
<polygon fill="white" stroke="black" points="201,-671 201,-701 359,-701 359,-671 201,-671"/>
<text text-anchor="start" x="209" y="-689" font-family="Helvetica,sans-Serif" font-size="10.00">viewPackage.View.createError</text>
<text text-anchor="middle" x="280" y="-678" font-family="Helvetica,sans-Serif" font-size="10.00">Window</text>
</a>
</g>
</g>
<!-- Node1&#45;&gt;Node20 -->
<g id="edge23" class="edge"><title>Node1&#45;&gt;Node20</title>
<path fill="none" stroke="midnightblue" d="M77.0771,-460.719C84.7491,-494.179 114.713,-605.578 184,-661 186.451,-662.961 189.041,-664.769 191.737,-666.436"/>
<polygon fill="midnightblue" stroke="midnightblue" points="190.211,-669.59 200.668,-671.296 193.557,-663.442 190.211,-669.59"/>
</g>
<!-- Node22 -->
<g id="node22" class="node"><title>Node22</title>
<g id="a_node22"><a xlink:href="../../d9/dca/classcontroller_1_1_packager.html#a025cd82077b973894000eb2c5dddc4fa" target="_top" xlink:title="controller.Packager.getColorMap">
<polygon fill="white" stroke="black" points="195,-632.5 195,-651.5 365,-651.5 365,-632.5 195,-632.5"/>
<text text-anchor="middle" x="280" y="-639.5" font-family="Helvetica,sans-Serif" font-size="10.00">controller.Packager.getColorMap</text>
</a>
</g>
</g>
<!-- Node1&#45;&gt;Node22 -->
<g id="edge25" class="edge"><title>Node1&#45;&gt;Node22</title>
<path fill="none" stroke="midnightblue" d="M78.1141,-460.654C88.1523,-490.129 122.629,-579.525 184,-622 187.508,-624.428 191.251,-626.571 195.149,-628.463"/>
<polygon fill="midnightblue" stroke="midnightblue" points="193.912,-631.74 204.484,-632.433 196.652,-625.299 193.912,-631.74"/>
</g>
<!-- Node23 -->
<g id="node23" class="node"><title>Node23</title>
<g id="a_node23"><a xlink:href="../../d9/df7/classcontroller_1_1_controller.html#a10a5ebd0f50b360715ef70e410d6a86c" target="_top" xlink:title="controller.Controller.list\lToGrid">
<polygon fill="white" stroke="black" points="217,-583 217,-613 343,-613 343,-583 217,-583"/>
<text text-anchor="start" x="225" y="-601" font-family="Helvetica,sans-Serif" font-size="10.00">controller.Controller.list</text>
<text text-anchor="middle" x="280" y="-590" font-family="Helvetica,sans-Serif" font-size="10.00">ToGrid</text>
</a>
</g>
</g>
<!-- Node1&#45;&gt;Node23 -->
<g id="edge26" class="edge"><title>Node1&#45;&gt;Node23</title>
<path fill="none" stroke="midnightblue" d="M80.7587,-460.65C95.1012,-483.819 134.829,-542.889 184,-573 191.108,-577.353 198.965,-580.955 207.026,-583.934"/>
<polygon fill="midnightblue" stroke="midnightblue" points="205.955,-587.267 216.549,-587.153 208.196,-580.636 205.955,-587.267"/>
</g>
<!-- Node28 -->
<g id="node28" class="node"><title>Node28</title>
<g id="a_node28"><a xlink:href="../../dc/d47/classcontroller_1_1_x_m_l_parser.html#ae3e87263c03a3b182809ba7917c894e3" target="_top" xlink:title="controller.XMLParser.parse\lColorMap">
<polygon fill="white" stroke="black" points="208.5,-485 208.5,-515 351.5,-515 351.5,-485 208.5,-485"/>
<text text-anchor="start" x="216.5" y="-503" font-family="Helvetica,sans-Serif" font-size="10.00">controller.XMLParser.parse</text>
<text text-anchor="middle" x="280" y="-492" font-family="Helvetica,sans-Serif" font-size="10.00">ColorMap</text>
</a>
</g>
</g>
<!-- Node1&#45;&gt;Node28 -->
<g id="edge31" class="edge"><title>Node1&#45;&gt;Node28</title>
<path fill="none" stroke="midnightblue" d="M114.818,-460.564C140.87,-466.822 175.675,-475.182 206.533,-482.594"/>
<polygon fill="midnightblue" stroke="midnightblue" points="205.856,-486.031 216.397,-484.963 207.491,-479.224 205.856,-486.031"/>
</g>
<!-- Node30 -->
<g id="node30" class="node"><title>Node30</title>
<g id="a_node30"><a xlink:href="../../dc/d47/classcontroller_1_1_x_m_l_parser.html#ac6b94868c5449c64389bdad22a7f2dcf" target="_top" xlink:title="controller.XMLParser.parse\lGlobalParameters">
<polygon fill="white" stroke="black" points="208.5,-436 208.5,-466 351.5,-466 351.5,-436 208.5,-436"/>
<text text-anchor="start" x="216.5" y="-454" font-family="Helvetica,sans-Serif" font-size="10.00">controller.XMLParser.parse</text>
<text text-anchor="middle" x="280" y="-443" font-family="Helvetica,sans-Serif" font-size="10.00">GlobalParameters</text>
</a>
</g>
</g>
<!-- Node1&#45;&gt;Node30 -->
<g id="edge33" class="edge"><title>Node1&#45;&gt;Node30</title>
<path fill="none" stroke="midnightblue" d="M148.072,-451C164.357,-451 181.714,-451 198.286,-451"/>
<polygon fill="midnightblue" stroke="midnightblue" points="198.487,-454.5 208.487,-451 198.487,-447.5 198.487,-454.5"/>
</g>
<!-- Node32 -->
<g id="node32" class="node"><title>Node32</title>
<g id="a_node32"><a xlink:href="../../dc/d47/classcontroller_1_1_x_m_l_parser.html#aa99242ed454c9a9b81de63947356bc41" target="_top" xlink:title="controller.XMLParser.parseGrid">
<polygon fill="white" stroke="black" points="199,-397.5 199,-416.5 361,-416.5 361,-397.5 199,-397.5"/>
<text text-anchor="middle" x="280" y="-404.5" font-family="Helvetica,sans-Serif" font-size="10.00">controller.XMLParser.parseGrid</text>
</a>
</g>
</g>
<!-- Node1&#45;&gt;Node32 -->
<g id="edge35" class="edge"><title>Node1&#45;&gt;Node32</title>
<path fill="none" stroke="midnightblue" d="M115.316,-441.469C135.847,-436.688 161.221,-430.889 184,-426 195.691,-423.491 208.216,-420.91 220.209,-418.49"/>
<polygon fill="midnightblue" stroke="midnightblue" points="221.012,-421.899 230.128,-416.501 219.635,-415.036 221.012,-421.899"/>
</g>
<!-- Node33 -->
<g id="node33" class="node"><title>Node33</title>
<g id="a_node33"><a xlink:href="../../dc/d47/classcontroller_1_1_x_m_l_parser.html#a388fd482241a007931fd69a5b160e192" target="_top" xlink:title="controller.XMLParser.parse\lGridSize">
<polygon fill="white" stroke="black" points="208.5,-348 208.5,-378 351.5,-378 351.5,-348 208.5,-348"/>
<text text-anchor="start" x="216.5" y="-366" font-family="Helvetica,sans-Serif" font-size="10.00">controller.XMLParser.parse</text>
<text text-anchor="middle" x="280" y="-355" font-family="Helvetica,sans-Serif" font-size="10.00">GridSize</text>
</a>
</g>
</g>
<!-- Node1&#45;&gt;Node33 -->
<g id="edge36" class="edge"><title>Node1&#45;&gt;Node33</title>
<path fill="none" stroke="midnightblue" d="M88.8329,-441.374C108.947,-427.764 147.824,-402.9 184,-388 190.092,-385.491 196.509,-383.17 203.014,-381.037"/>
<polygon fill="midnightblue" stroke="midnightblue" points="204.079,-384.371 212.58,-378.047 201.991,-377.69 204.079,-384.371"/>
</g>
<!-- Node34 -->
<g id="node34" class="node"><title>Node34</title>
<g id="a_node34"><a xlink:href="../../dc/d47/classcontroller_1_1_x_m_l_parser.html#acbaf977e27a0bc39f1726e60015a6dd6" target="_top" xlink:title="controller.XMLParser.parse\lSimulationName">
<polygon fill="white" stroke="black" points="208.5,-299 208.5,-329 351.5,-329 351.5,-299 208.5,-299"/>
<text text-anchor="start" x="216.5" y="-317" font-family="Helvetica,sans-Serif" font-size="10.00">controller.XMLParser.parse</text>
<text text-anchor="middle" x="280" y="-306" font-family="Helvetica,sans-Serif" font-size="10.00">SimulationName</text>
</a>
</g>
</g>
<!-- Node1&#45;&gt;Node34 -->
<g id="edge37" class="edge"><title>Node1&#45;&gt;Node34</title>
<path fill="none" stroke="midnightblue" d="M81.3685,-441.399C96.4388,-419.469 136.603,-365.481 184,-338 188.691,-335.28 193.686,-332.866 198.838,-330.722"/>
<polygon fill="midnightblue" stroke="midnightblue" points="200.141,-333.972 208.247,-327.15 197.656,-327.427 200.141,-333.972"/>
</g>
<!-- Node35 -->
<g id="node35" class="node"><title>Node35</title>
<g id="a_node35"><a xlink:href="../../dc/d47/classcontroller_1_1_x_m_l_parser.html#ad4004ec23d6fa09729485ae7387a93c9" target="_top" xlink:title="controller.XMLParser.parse\lXMLFile">
<polygon fill="white" stroke="black" points="208.5,-250 208.5,-280 351.5,-280 351.5,-250 208.5,-250"/>
<text text-anchor="start" x="216.5" y="-268" font-family="Helvetica,sans-Serif" font-size="10.00">controller.XMLParser.parse</text>
<text text-anchor="middle" x="280" y="-257" font-family="Helvetica,sans-Serif" font-size="10.00">XMLFile</text>
</a>
</g>
</g>
<!-- Node1&#45;&gt;Node35 -->
<g id="edge38" class="edge"><title>Node1&#45;&gt;Node35</title>
<path fill="none" stroke="midnightblue" d="M78.6533,-441.155C89.7275,-412.73 125.774,-329.955 184,-289 188.609,-285.758 193.616,-282.953 198.84,-280.527"/>
<polygon fill="midnightblue" stroke="midnightblue" points="200.538,-283.612 208.441,-276.555 197.862,-277.144 200.538,-283.612"/>
</g>
<!-- Node37 -->
<g id="node37" class="node"><title>Node37</title>
<g id="a_node37"><a xlink:href="../../d9/df7/classcontroller_1_1_controller.html#a0043e8c6fffd8edc81161f164d9d3912" target="_top" xlink:title="controller.Controller.set\lSimulationType">
<polygon fill="white" stroke="black" points="216,-201 216,-231 344,-231 344,-201 216,-201"/>
<text text-anchor="start" x="224" y="-219" font-family="Helvetica,sans-Serif" font-size="10.00">controller.Controller.set</text>
<text text-anchor="middle" x="280" y="-208" font-family="Helvetica,sans-Serif" font-size="10.00">SimulationType</text>
</a>
</g>
</g>
<!-- Node1&#45;&gt;Node37 -->
<g id="edge40" class="edge"><title>Node1&#45;&gt;Node37</title>
<path fill="none" stroke="midnightblue" d="M77.0419,-441.21C84.5991,-407.512 114.233,-295.354 184,-240 190.609,-234.756 198.223,-230.644 206.204,-227.421"/>
<polygon fill="midnightblue" stroke="midnightblue" points="207.461,-230.688 215.703,-224.031 205.109,-224.095 207.461,-230.688"/>
</g>
<!-- Node38 -->
<g id="node38" class="node"><title>Node38</title>
<g id="a_node38"><a xlink:href="../../d9/df7/classcontroller_1_1_controller.html#a432a9bbb6f92e2609985fc4aac1aa075" target="_top" xlink:title="controller.Controller.stop\lSimulation">
<polygon fill="white" stroke="black" points="213,-152 213,-182 347,-182 347,-152 213,-152"/>
<text text-anchor="start" x="221" y="-170" font-family="Helvetica,sans-Serif" font-size="10.00">controller.Controller.stop</text>
<text text-anchor="middle" x="280" y="-159" font-family="Helvetica,sans-Serif" font-size="10.00">Simulation</text>
</a>
</g>
</g>
<!-- Node1&#45;&gt;Node38 -->
<g id="edge41" class="edge"><title>Node1&#45;&gt;Node38</title>
<path fill="none" stroke="midnightblue" d="M75.9878,-441.449C80.4476,-403.416 102.2,-261.401 184,-191 189.673,-186.117 196.203,-182.204 203.126,-179.072"/>
<polygon fill="midnightblue" stroke="midnightblue" points="204.752,-182.193 212.769,-175.266 202.182,-175.681 204.752,-182.193"/>
</g>
<!-- Node39 -->
<g id="node39" class="node"><title>Node39</title>
<g id="a_node39"><a xlink:href="../../d1/dbf/classview_package_1_1_view.html#a7793d78c89cc38648fc57d4ee46a0837" target="_top" xlink:title="viewPackage.View.updateGridView">
<polygon fill="white" stroke="black" points="190.5,-113.5 190.5,-132.5 369.5,-132.5 369.5,-113.5 190.5,-113.5"/>
<text text-anchor="middle" x="280" y="-120.5" font-family="Helvetica,sans-Serif" font-size="10.00">viewPackage.View.updateGridView</text>
</a>
</g>
</g>
<!-- Node1&#45;&gt;Node39 -->
<g id="edge42" class="edge"><title>Node1&#45;&gt;Node39</title>
<path fill="none" stroke="midnightblue" d="M75.1805,-441.352C76.5336,-398.676 87.959,-225.31 184,-142 185.755,-140.478 187.597,-139.064 189.512,-137.753"/>
<polygon fill="midnightblue" stroke="midnightblue" points="191.44,-140.68 198.328,-132.63 187.923,-134.628 191.44,-140.68"/>
</g>
<!-- Node47 -->
<g id="node47" class="node"><title>Node47</title>
<g id="a_node47"><a xlink:href="../../d9/df7/classcontroller_1_1_controller.html#a5dbaa96de02c3987db4a64fb6793897a" target="_top" xlink:title="controller.Controller.validate\lParameters">
<polygon fill="white" stroke="black" points="205,-534 205,-564 355,-564 355,-534 205,-534"/>
<text text-anchor="start" x="213" y="-552" font-family="Helvetica,sans-Serif" font-size="10.00">controller.Controller.validate</text>
<text text-anchor="middle" x="280" y="-541" font-family="Helvetica,sans-Serif" font-size="10.00">Parameters</text>
</a>
</g>
</g>
<!-- Node1&#45;&gt;Node47 -->
<g id="edge50" class="edge"><title>Node1&#45;&gt;Node47</title>
<path fill="none" stroke="midnightblue" d="M86.639,-460.733C105.772,-476.268 145.591,-506.676 184,-524 189.378,-526.426 195.037,-528.652 200.804,-530.69"/>
<polygon fill="midnightblue" stroke="midnightblue" points="199.985,-534.106 210.578,-533.94 202.194,-527.463 199.985,-534.106"/>
</g>
<!-- Node3 -->
<g id="node3" class="node"><title>Node3</title>
<g id="a_node3"><a xlink:href="../../d9/df7/classcontroller_1_1_controller.html#ae43191a1fc7db5c1cb03da2a8a580541" target="_top" xlink:title="controller.Controller.create\lColorGrid">
<polygon fill="white" stroke="black" points="438.5,-960 438.5,-990 581.5,-990 581.5,-960 438.5,-960"/>
<text text-anchor="start" x="446.5" y="-978" font-family="Helvetica,sans-Serif" font-size="10.00">controller.Controller.create</text>
<text text-anchor="middle" x="510" y="-967" font-family="Helvetica,sans-Serif" font-size="10.00">ColorGrid</text>
</a>
</g>
</g>
<!-- Node2&#45;&gt;Node3 -->
<g id="edge2" class="edge"><title>Node2&#45;&gt;Node3</title>
<path fill="none" stroke="midnightblue" d="M303.77,-892.069C329.221,-908.337 372.11,-934.053 412,-950 418.293,-952.516 424.917,-954.845 431.627,-956.986"/>
<polygon fill="midnightblue" stroke="midnightblue" points="430.903,-960.424 441.489,-959.988 432.942,-953.727 430.903,-960.424"/>
</g>
<!-- Node8 -->
<g id="node8" class="node"><title>Node8</title>
<g id="a_node8"><a xlink:href="../../d2/d2c/classcontroller_1_1_view_packager.html#a637ec76985be3af6c2b14a527e1c1bac" target="_top" xlink:title="controller.ViewPackager.set\lColorGrid">
<polygon fill="white" stroke="black" points="437,-862 437,-892 583,-892 583,-862 437,-862"/>
<text text-anchor="start" x="445" y="-880" font-family="Helvetica,sans-Serif" font-size="10.00">controller.ViewPackager.set</text>
<text text-anchor="middle" x="510" y="-869" font-family="Helvetica,sans-Serif" font-size="10.00">ColorGrid</text>
</a>
</g>
</g>
<!-- Node2&#45;&gt;Node8 -->
<g id="edge7" class="edge"><title>Node2&#45;&gt;Node8</title>
<path fill="none" stroke="midnightblue" d="M352.515,-877C376.055,-877 402.415,-877 426.692,-877"/>
<polygon fill="midnightblue" stroke="midnightblue" points="426.955,-880.5 436.955,-877 426.955,-873.5 426.955,-880.5"/>
</g>
<!-- Node9 -->
<g id="node9" class="node"><title>Node9</title>
<g id="a_node9"><a xlink:href="../../d2/d2c/classcontroller_1_1_view_packager.html#a8a82603c0efc9d0197a0c027030f4993" target="_top" xlink:title="controller.ViewPackager.set\lStateTotalMap">
<polygon fill="white" stroke="black" points="437,-813 437,-843 583,-843 583,-813 437,-813"/>
<text text-anchor="start" x="445" y="-831" font-family="Helvetica,sans-Serif" font-size="10.00">controller.ViewPackager.set</text>
<text text-anchor="middle" x="510" y="-820" font-family="Helvetica,sans-Serif" font-size="10.00">StateTotalMap</text>
</a>
</g>
</g>
<!-- Node2&#45;&gt;Node9 -->
<g id="edge8" class="edge"><title>Node2&#45;&gt;Node9</title>
<path fill="none" stroke="midnightblue" d="M350.957,-861.965C375.687,-856.651 403.685,-850.633 429.172,-845.156"/>
<polygon fill="midnightblue" stroke="midnightblue" points="430.134,-848.529 439.175,-843.006 428.663,-841.686 430.134,-848.529"/>
</g>
<!-- Node10 -->
<g id="node10" class="node"><title>Node10</title>
<g id="a_node10"><a xlink:href="../../d9/df7/classcontroller_1_1_controller.html#aca48bc84d82655ce699963fd859afebd" target="_top" xlink:title="controller.Controller.update\lStateTotals">
<polygon fill="white" stroke="black" points="437,-911 437,-941 583,-941 583,-911 437,-911"/>
<text text-anchor="start" x="445" y="-929" font-family="Helvetica,sans-Serif" font-size="10.00">controller.Controller.update</text>
<text text-anchor="middle" x="510" y="-918" font-family="Helvetica,sans-Serif" font-size="10.00">StateTotals</text>
</a>
</g>
</g>
<!-- Node2&#45;&gt;Node10 -->
<g id="edge9" class="edge"><title>Node2&#45;&gt;Node10</title>
<path fill="none" stroke="midnightblue" d="M350.957,-892.035C375.687,-897.349 403.685,-903.367 429.172,-908.844"/>
<polygon fill="midnightblue" stroke="midnightblue" points="428.663,-912.314 439.175,-910.994 430.134,-905.471 428.663,-912.314"/>
</g>
<!-- Node4 -->
<g id="node4" class="node"><title>Node4</title>
<g id="a_node4"><a xlink:href="../../dc/d8f/classmodel_1_1_grid.html#a7308e05b94f35a2f8198f314eb384267" target="_top" xlink:title="model.Grid.getCell">
<polygon fill="white" stroke="black" points="688.5,-921.5 688.5,-940.5 793.5,-940.5 793.5,-921.5 688.5,-921.5"/>
<text text-anchor="middle" x="741" y="-928.5" font-family="Helvetica,sans-Serif" font-size="10.00">model.Grid.getCell</text>
</a>
</g>
</g>
<!-- Node3&#45;&gt;Node4 -->
<g id="edge3" class="edge"><title>Node3&#45;&gt;Node4</title>
<path fill="none" stroke="midnightblue" d="M581.576,-961.44C613.219,-955.36 650.137,-948.266 680.371,-942.457"/>
<polygon fill="midnightblue" stroke="midnightblue" points="681.19,-945.864 690.35,-940.54 679.869,-938.99 681.19,-945.864"/>
</g>
<!-- Node5 -->
<g id="node5" class="node"><title>Node5</title>
<g id="a_node5"><a xlink:href="../../dc/d8f/classmodel_1_1_grid.html#a01924b6019a14826898f281a3064b3b5" target="_top" xlink:title="model.Grid.getGridColSize">
<polygon fill="white" stroke="black" points="669.5,-883.5 669.5,-902.5 812.5,-902.5 812.5,-883.5 669.5,-883.5"/>
<text text-anchor="middle" x="741" y="-890.5" font-family="Helvetica,sans-Serif" font-size="10.00">model.Grid.getGridColSize</text>
</a>
</g>
</g>
<!-- Node3&#45;&gt;Node5 -->
<g id="edge4" class="edge"><title>Node3&#45;&gt;Node5</title>
<path fill="none" stroke="midnightblue" d="M581.505,-961.858C590.748,-958.706 599.834,-954.81 608,-950 628.045,-938.192 623.627,-923.233 644,-912 648.882,-909.308 654.089,-906.994 659.459,-905.006"/>
<polygon fill="midnightblue" stroke="midnightblue" points="660.867,-908.227 669.264,-901.766 658.671,-901.58 660.867,-908.227"/>
</g>
<!-- Node6 -->
<g id="node6" class="node"><title>Node6</title>
<g id="a_node6"><a xlink:href="../../dc/d8f/classmodel_1_1_grid.html#a40adce87c26a3a6830125324ae576c34" target="_top" xlink:title="model.Grid.getGridRowSize">
<polygon fill="white" stroke="black" points="668,-997.5 668,-1016.5 814,-1016.5 814,-997.5 668,-997.5"/>
<text text-anchor="middle" x="741" y="-1004.5" font-family="Helvetica,sans-Serif" font-size="10.00">model.Grid.getGridRowSize</text>
</a>
</g>
</g>
<!-- Node3&#45;&gt;Node6 -->
<g id="edge5" class="edge"><title>Node3&#45;&gt;Node6</title>
<path fill="none" stroke="midnightblue" d="M581.576,-984.862C606.984,-988.413 635.793,-992.438 661.811,-996.074"/>
<polygon fill="midnightblue" stroke="midnightblue" points="661.622,-999.582 672.01,-997.499 662.591,-992.649 661.622,-999.582"/>
</g>
<!-- Node7 -->
<g id="node7" class="node"><title>Node7</title>
<g id="a_node7"><a xlink:href="../../d3/d57/classmodel_1_1_cell.html#a527cb796745a34155e9b2a82b2a8812a" target="_top" xlink:title="model.Cell.toString">
<polygon fill="white" stroke="black" points="687,-959.5 687,-978.5 795,-978.5 795,-959.5 687,-959.5"/>
<text text-anchor="middle" x="741" y="-966.5" font-family="Helvetica,sans-Serif" font-size="10.00">model.Cell.toString</text>
</a>
</g>
</g>
<!-- Node3&#45;&gt;Node7 -->
<g id="edge6" class="edge"><title>Node3&#45;&gt;Node7</title>
<path fill="none" stroke="midnightblue" d="M581.576,-973.151C611.906,-972.356 647.082,-971.435 676.573,-970.662"/>
<polygon fill="midnightblue" stroke="midnightblue" points="676.845,-974.156 686.75,-970.395 676.661,-967.158 676.845,-974.156"/>
</g>
<!-- Node10&#45;&gt;Node4 -->
<g id="edge12" class="edge"><title>Node10&#45;&gt;Node4</title>
<path fill="none" stroke="midnightblue" d="M583.143,-927.575C613.634,-928.241 648.791,-929.009 678.083,-929.648"/>
<polygon fill="midnightblue" stroke="midnightblue" points="678.108,-933.149 688.182,-929.869 678.26,-926.151 678.108,-933.149"/>
</g>
<!-- Node10&#45;&gt;Node5 -->
<g id="edge11" class="edge"><title>Node10&#45;&gt;Node5</title>
<path fill="none" stroke="midnightblue" d="M583.143,-915.604C608.837,-911.901 637.843,-907.721 663.862,-903.972"/>
<polygon fill="midnightblue" stroke="midnightblue" points="664.652,-907.394 674.051,-902.504 663.654,-900.466 664.652,-907.394"/>
</g>
<!-- Node10&#45;&gt;Node6 -->
<g id="edge10" class="edge"><title>Node10&#45;&gt;Node6</title>
<path fill="none" stroke="midnightblue" d="M583.226,-939.857C591.863,-942.88 600.328,-946.55 608,-951 627.846,-962.513 623.835,-977.056 644,-988 648.504,-990.445 653.28,-992.577 658.2,-994.437"/>
<polygon fill="midnightblue" stroke="midnightblue" points="657.214,-997.798 667.808,-997.687 659.457,-991.167 657.214,-997.798"/>
</g>
<!-- Node10&#45;&gt;Node7 -->
<g id="edge13" class="edge"><title>Node10&#45;&gt;Node7</title>
<path fill="none" stroke="midnightblue" d="M583.143,-939.546C613.986,-945.338 649.603,-952.026 679.094,-957.564"/>
<polygon fill="midnightblue" stroke="midnightblue" points="678.778,-961.065 689.252,-959.471 680.07,-954.186 678.778,-961.065"/>
</g>
<!-- Node12 -->
<g id="node12" class="node"><title>Node12</title>
<g id="a_node12"><a xlink:href="../../df/d81/classview_package_1_1_toggle_box.html#a03d2482d851b85f92b092115d94bcaa9" target="_top" xlink:title="viewPackage.ToggleBox.get\lShape">
<polygon fill="white" stroke="black" points="437,-764 437,-794 583,-794 583,-764 437,-764"/>
<text text-anchor="start" x="445" y="-782" font-family="Helvetica,sans-Serif" font-size="10.00">viewPackage.ToggleBox.get</text>
<text text-anchor="middle" x="510" y="-771" font-family="Helvetica,sans-Serif" font-size="10.00">Shape</text>
</a>
</g>
</g>
<!-- Node11&#45;&gt;Node12 -->
<g id="edge15" class="edge"><title>Node11&#45;&gt;Node12</title>
<path fill="none" stroke="midnightblue" d="M325.231,-739.506C354.579,-745.813 393.951,-754.275 428.724,-761.748"/>
<polygon fill="midnightblue" stroke="midnightblue" points="428.36,-765.249 438.872,-763.929 429.831,-758.406 428.36,-765.249"/>
</g>
<!-- Node13 -->
<g id="node13" class="node"><title>Node13</title>
<g id="a_node13"><a xlink:href="../../df/dcf/classview_package_1_1_display_grid.html#a5ec8bada84cea7265f0a46ccc1c45686" target="_top" xlink:title="viewPackage.DisplayGrid.initialize\lGridView">
<polygon fill="white" stroke="black" points="422.5,-715 422.5,-745 597.5,-745 597.5,-715 422.5,-715"/>
<text text-anchor="start" x="430.5" y="-733" font-family="Helvetica,sans-Serif" font-size="10.00">viewPackage.DisplayGrid.initialize</text>
<text text-anchor="middle" x="510" y="-722" font-family="Helvetica,sans-Serif" font-size="10.00">GridView</text>
</a>
</g>
</g>
<!-- Node11&#45;&gt;Node13 -->
<g id="edge16" class="edge"><title>Node11&#45;&gt;Node13</title>
<path fill="none" stroke="midnightblue" d="M375.712,-730C387.756,-730 400.095,-730 412.171,-730"/>
<polygon fill="midnightblue" stroke="midnightblue" points="412.242,-733.5 422.242,-730 412.242,-726.5 412.242,-733.5"/>
</g>
<!-- Node14 -->
<g id="node14" class="node"><title>Node14</title>
<g id="a_node14"><a xlink:href="../../df/dcf/classview_package_1_1_display_grid.html#ac52b80af539639c59883fcf7130b6219" target="_top" xlink:title="viewPackage.DisplayGrid.set\lGridSize">
<polygon fill="white" stroke="black" points="665,-680 665,-710 817,-710 817,-680 665,-680"/>
<text text-anchor="start" x="673" y="-698" font-family="Helvetica,sans-Serif" font-size="10.00">viewPackage.DisplayGrid.set</text>
<text text-anchor="middle" x="741" y="-687" font-family="Helvetica,sans-Serif" font-size="10.00">GridSize</text>
</a>
</g>
</g>
<!-- Node13&#45;&gt;Node14 -->
<g id="edge17" class="edge"><title>Node13&#45;&gt;Node14</title>
<path fill="none" stroke="midnightblue" d="M597.575,-716.768C616.363,-713.896 636.22,-710.862 654.949,-707.999"/>
<polygon fill="midnightblue" stroke="midnightblue" points="655.569,-711.445 664.925,-706.474 654.511,-704.525 655.569,-711.445"/>
</g>
<!-- Node15 -->
<g id="node15" class="node"><title>Node15</title>
<g id="a_node15"><a xlink:href="../../df/dcf/classview_package_1_1_display_grid.html#a0cb104739fb841a9c4529aec67880178" target="_top" xlink:title="viewPackage.DisplayGrid.determine\lXlength">
<polygon fill="white" stroke="black" points="648,-631 648,-661 834,-661 834,-631 648,-631"/>
<text text-anchor="start" x="656" y="-649" font-family="Helvetica,sans-Serif" font-size="10.00">viewPackage.DisplayGrid.determine</text>
<text text-anchor="middle" x="741" y="-638" font-family="Helvetica,sans-Serif" font-size="10.00">Xlength</text>
</a>
</g>
</g>
<!-- Node13&#45;&gt;Node15 -->
<g id="edge18" class="edge"><title>Node13&#45;&gt;Node15</title>
<path fill="none" stroke="midnightblue" d="M585.593,-714.938C593.379,-712.152 600.997,-708.867 608,-705 627.266,-694.361 624.748,-681.663 644,-671 648.16,-668.696 652.539,-666.598 657.041,-664.689"/>
<polygon fill="midnightblue" stroke="midnightblue" points="658.382,-667.923 666.427,-661.029 655.839,-661.402 658.382,-667.923"/>
</g>
<!-- Node16 -->
<g id="node16" class="node"><title>Node16</title>
<g id="a_node16"><a xlink:href="../../df/dcf/classview_package_1_1_display_grid.html#a442cb3efa56bac1965b30cdfcfe8f023" target="_top" xlink:title="viewPackage.DisplayGrid.determine\lYlength">
<polygon fill="white" stroke="black" points="648,-827 648,-857 834,-857 834,-827 648,-827"/>
<text text-anchor="start" x="656" y="-845" font-family="Helvetica,sans-Serif" font-size="10.00">viewPackage.DisplayGrid.determine</text>
<text text-anchor="middle" x="741" y="-834" font-family="Helvetica,sans-Serif" font-size="10.00">Ylength</text>
</a>
</g>
</g>
<!-- Node13&#45;&gt;Node16 -->
<g id="edge19" class="edge"><title>Node13&#45;&gt;Node16</title>
<path fill="none" stroke="midnightblue" d="M591.248,-745.052C597.2,-747.829 602.872,-751.114 608,-755 633.396,-774.245 618.629,-797.723 644,-817 646.458,-818.867 649.042,-820.596 651.722,-822.196"/>
<polygon fill="midnightblue" stroke="midnightblue" points="650.1,-825.297 660.576,-826.88 653.374,-819.109 650.1,-825.297"/>
</g>
<!-- Node17 -->
<g id="node17" class="node"><title>Node17</title>
<g id="a_node17"><a xlink:href="../../df/dcf/classview_package_1_1_display_grid.html#a7527ebd4f6b4014c1e9a2e639408932a" target="_top" xlink:title="viewPackage.DisplayGrid.initial\lEmptyGrid">
<polygon fill="white" stroke="black" points="660.5,-778 660.5,-808 821.5,-808 821.5,-778 660.5,-778"/>
<text text-anchor="start" x="668.5" y="-796" font-family="Helvetica,sans-Serif" font-size="10.00">viewPackage.DisplayGrid.initial</text>
<text text-anchor="middle" x="741" y="-785" font-family="Helvetica,sans-Serif" font-size="10.00">EmptyGrid</text>
</a>
</g>
</g>
<!-- Node13&#45;&gt;Node17 -->
<g id="edge20" class="edge"><title>Node13&#45;&gt;Node17</title>
<path fill="none" stroke="midnightblue" d="M572.822,-745.002C584.56,-748.113 596.7,-751.512 608,-755 624.255,-760.017 627.752,-762.962 644,-768 652.04,-770.493 660.509,-772.945 668.951,-775.281"/>
<polygon fill="midnightblue" stroke="midnightblue" points="668.252,-778.718 678.82,-777.966 670.089,-771.964 668.252,-778.718"/>
</g>
<!-- Node18 -->
<g id="node18" class="node"><title>Node18</title>
<g id="a_node18"><a xlink:href="../../d1/dbf/classview_package_1_1_view.html#a4c4b23ee9b019dcad37467a24571d496" target="_top" xlink:title="viewPackage.View.createGraph\lWindow">
<polygon fill="white" stroke="black" points="659,-729 659,-759 823,-759 823,-729 659,-729"/>
<text text-anchor="start" x="667" y="-747" font-family="Helvetica,sans-Serif" font-size="10.00">viewPackage.View.createGraph</text>
<text text-anchor="middle" x="741" y="-736" font-family="Helvetica,sans-Serif" font-size="10.00">Window</text>
</a>
</g>
</g>
<!-- Node13&#45;&gt;Node18 -->
<g id="edge21" class="edge"><title>Node13&#45;&gt;Node18</title>
<path fill="none" stroke="midnightblue" d="M597.575,-735.293C614.252,-736.312 631.771,-737.383 648.596,-738.412"/>
<polygon fill="midnightblue" stroke="midnightblue" points="648.774,-741.929 658.969,-739.046 649.201,-734.942 648.774,-741.929"/>
</g>
<!-- Node19 -->
<g id="node19" class="node"><title>Node19</title>
<g id="a_node19"><a xlink:href="../../d1/d10/classview_package_1_1_population_graph.html#a500944259dd2ce92ad9d0131f6f333a8" target="_top" xlink:title="viewPackage.PopulationGraph.make\lGraph">
<polygon fill="white" stroke="black" points="874.5,-729 874.5,-759 1063.5,-759 1063.5,-729 874.5,-729"/>
<text text-anchor="start" x="882.5" y="-747" font-family="Helvetica,sans-Serif" font-size="10.00">viewPackage.PopulationGraph.make</text>
<text text-anchor="middle" x="969" y="-736" font-family="Helvetica,sans-Serif" font-size="10.00">Graph</text>
</a>
</g>
</g>
<!-- Node18&#45;&gt;Node19 -->
<g id="edge22" class="edge"><title>Node18&#45;&gt;Node19</title>
<path fill="none" stroke="midnightblue" d="M823.272,-744C836.482,-744 850.322,-744 863.986,-744"/>
<polygon fill="midnightblue" stroke="midnightblue" points="864.386,-747.5 874.386,-744 864.386,-740.5 864.386,-747.5"/>
</g>
<!-- Node21 -->
<g id="node21" class="node"><title>Node21</title>
<g id="a_node21"><a xlink:href="../../d6/d9a/classview_package_1_1_error_display.html#a6cc5c905e98933315e31fadeaa85dfda" target="_top" xlink:title="viewPackage.ErrorDisplay.display">
<polygon fill="white" stroke="black" points="424,-676.5 424,-695.5 596,-695.5 596,-676.5 424,-676.5"/>
<text text-anchor="middle" x="510" y="-683.5" font-family="Helvetica,sans-Serif" font-size="10.00">viewPackage.ErrorDisplay.display</text>
</a>
</g>
</g>
<!-- Node20&#45;&gt;Node21 -->
<g id="edge24" class="edge"><title>Node20&#45;&gt;Node21</title>
<path fill="none" stroke="midnightblue" d="M359.146,-686C376.766,-686 395.658,-686 413.888,-686"/>
<polygon fill="midnightblue" stroke="midnightblue" points="413.935,-689.5 423.935,-686 413.935,-682.5 413.935,-689.5"/>
</g>
<!-- Node24 -->
<g id="node24" class="node"><title>Node24</title>
<g id="a_node24"><a xlink:href="../../d1/dbf/classview_package_1_1_view.html#a435f11370f53ac1c632490e16db58a71" target="_top" xlink:title="viewPackage.View.getEdgeType">
<polygon fill="white" stroke="black" points="428,-638.5 428,-657.5 592,-657.5 592,-638.5 428,-638.5"/>
<text text-anchor="middle" x="510" y="-645.5" font-family="Helvetica,sans-Serif" font-size="10.00">viewPackage.View.getEdgeType</text>
</a>
</g>
</g>
<!-- Node23&#45;&gt;Node24 -->
<g id="edge27" class="edge"><title>Node23&#45;&gt;Node24</title>
<path fill="none" stroke="midnightblue" d="M343.001,-611.597C378.135,-619.301 421.655,-628.845 455.319,-636.228"/>
<polygon fill="midnightblue" stroke="midnightblue" points="454.912,-639.722 465.43,-638.445 456.412,-632.884 454.912,-639.722"/>
</g>
<!-- Node26 -->
<g id="node26" class="node"><title>Node26</title>
<g id="a_node26"><a xlink:href="../../d9/dca/classcontroller_1_1_packager.html#a576a18a7961b8653a5679bfa8bdf9a40" target="_top" xlink:title="controller.Packager.getPropertiesMap">
<polygon fill="white" stroke="black" points="644,-530.5 644,-549.5 838,-549.5 838,-530.5 644,-530.5"/>
<text text-anchor="middle" x="741" y="-537.5" font-family="Helvetica,sans-Serif" font-size="10.00">controller.Packager.getPropertiesMap</text>
</a>
</g>
</g>
<!-- Node23&#45;&gt;Node26 -->
<g id="edge29" class="edge"><title>Node23&#45;&gt;Node26</title>
<path fill="none" stroke="midnightblue" d="M343.024,-605.039C409.668,-610.683 518.126,-614.285 608,-591 625.513,-586.462 627.363,-579.107 644,-572 661.152,-564.674 680.588,-557.92 697.464,-552.525"/>
<polygon fill="midnightblue" stroke="midnightblue" points="698.574,-555.845 707.068,-549.511 696.478,-549.166 698.574,-555.845"/>
</g>
<!-- Node27 -->
<g id="node27" class="node"><title>Node27</title>
<g id="a_node27"><a xlink:href="../../dc/d8f/classmodel_1_1_grid.html#a9e11c6171839cc24ba2b1d86b185912f" target="_top" xlink:title="model.Grid.putCell">
<polygon fill="white" stroke="black" points="457.5,-562.5 457.5,-581.5 562.5,-581.5 562.5,-562.5 457.5,-562.5"/>
<text text-anchor="middle" x="510" y="-569.5" font-family="Helvetica,sans-Serif" font-size="10.00">model.Grid.putCell</text>
</a>
</g>
</g>
<!-- Node23&#45;&gt;Node27 -->
<g id="edge30" class="edge"><title>Node23&#45;&gt;Node27</title>
<path fill="none" stroke="midnightblue" d="M343.001,-590.93C375.366,-587.239 414.847,-582.737 447.185,-579.049"/>
<polygon fill="midnightblue" stroke="midnightblue" points="447.876,-582.493 457.415,-577.883 447.082,-575.538 447.876,-582.493"/>
</g>
<!-- Node25 -->
<g id="node25" class="node"><title>Node25</title>
<g id="a_node25"><a xlink:href="../../df/d81/classview_package_1_1_toggle_box.html#a8c12b23dfa223780d246c2d1679dd592" target="_top" xlink:title="viewPackage.ToggleBox.get\lEdgeType">
<polygon fill="white" stroke="black" points="668,-582 668,-612 814,-612 814,-582 668,-582"/>
<text text-anchor="start" x="676" y="-600" font-family="Helvetica,sans-Serif" font-size="10.00">viewPackage.ToggleBox.get</text>
<text text-anchor="middle" x="741" y="-589" font-family="Helvetica,sans-Serif" font-size="10.00">EdgeType</text>
</a>
</g>
</g>
<!-- Node24&#45;&gt;Node25 -->
<g id="edge28" class="edge"><title>Node24&#45;&gt;Node25</title>
<path fill="none" stroke="midnightblue" d="M553.805,-638.467C584.215,-631.694 625.917,-622.407 662.146,-614.339"/>
<polygon fill="midnightblue" stroke="midnightblue" points="663.206,-617.689 672.206,-612.098 661.684,-610.856 663.206,-617.689"/>
</g>
<!-- Node29 -->
<g id="node29" class="node"><title>Node29</title>
<g id="a_node29"><a xlink:href="../../d9/dca/classcontroller_1_1_packager.html#a4f418ce8c4ffc93263a69530ece89d74" target="_top" xlink:title="controller.Packager.setColorMap">
<polygon fill="white" stroke="black" points="425,-474.5 425,-493.5 595,-493.5 595,-474.5 425,-474.5"/>
<text text-anchor="middle" x="510" y="-481.5" font-family="Helvetica,sans-Serif" font-size="10.00">controller.Packager.setColorMap</text>
</a>
</g>
</g>
<!-- Node28&#45;&gt;Node29 -->
<g id="edge32" class="edge"><title>Node28&#45;&gt;Node29</title>
<path fill="none" stroke="midnightblue" d="M351.579,-495.047C371.473,-493.651 393.44,-492.109 414.493,-490.632"/>
<polygon fill="midnightblue" stroke="midnightblue" points="415.012,-494.104 424.742,-489.913 414.522,-487.122 415.012,-494.104"/>
</g>
<!-- Node31 -->
<g id="node31" class="node"><title>Node31</title>
<g id="a_node31"><a xlink:href="../../d9/dca/classcontroller_1_1_packager.html#a018ccb4d84b95972b9ffeb2b1bf0dee7" target="_top" xlink:title="controller.Packager.setPropertiesMap">
<polygon fill="white" stroke="black" points="413,-436.5 413,-455.5 607,-455.5 607,-436.5 413,-436.5"/>
<text text-anchor="middle" x="510" y="-443.5" font-family="Helvetica,sans-Serif" font-size="10.00">controller.Packager.setPropertiesMap</text>
</a>
</g>
</g>
<!-- Node30&#45;&gt;Node31 -->
<g id="edge34" class="edge"><title>Node30&#45;&gt;Node31</title>
<path fill="none" stroke="midnightblue" d="M351.579,-449.452C367.76,-449.097 385.312,-448.712 402.629,-448.333"/>
<polygon fill="midnightblue" stroke="midnightblue" points="402.864,-451.828 412.785,-448.11 402.711,-444.83 402.864,-451.828"/>
</g>
<!-- Node36 -->
<g id="node36" class="node"><title>Node36</title>
<g id="a_node36"><a xlink:href="../../dc/d47/classcontroller_1_1_x_m_l_parser.html#a2adc154bf3c41ee81349de4b958b2e34" target="_top" xlink:title="controller.XMLParser.clean">
<polygon fill="white" stroke="black" points="439.5,-255.5 439.5,-274.5 580.5,-274.5 580.5,-255.5 439.5,-255.5"/>
<text text-anchor="middle" x="510" y="-262.5" font-family="Helvetica,sans-Serif" font-size="10.00">controller.XMLParser.clean</text>
</a>
</g>
</g>
<!-- Node35&#45;&gt;Node36 -->
<g id="edge39" class="edge"><title>Node35&#45;&gt;Node36</title>
<path fill="none" stroke="midnightblue" d="M351.579,-265C376.063,-265 403.688,-265 428.884,-265"/>
<polygon fill="midnightblue" stroke="midnightblue" points="429.146,-268.5 439.146,-265 429.146,-261.5 429.146,-268.5"/>
</g>
<!-- Node40 -->
<g id="node40" class="node"><title>Node40</title>
<g id="a_node40"><a xlink:href="../../df/dcf/classview_package_1_1_display_grid.html#a1a0aa454acaa29992ff9c716d38ec396" target="_top" xlink:title="viewPackage.DisplayGrid.updateGrid">
<polygon fill="white" stroke="black" points="415,-137.5 415,-156.5 605,-156.5 605,-137.5 415,-137.5"/>
<text text-anchor="middle" x="510" y="-144.5" font-family="Helvetica,sans-Serif" font-size="10.00">viewPackage.DisplayGrid.updateGrid</text>
</a>
</g>
</g>
<!-- Node39&#45;&gt;Node40 -->
<g id="edge43" class="edge"><title>Node39&#45;&gt;Node40</title>
<path fill="none" stroke="midnightblue" d="M369.804,-132.348C382.432,-133.677 395.495,-135.052 408.33,-136.403"/>
<polygon fill="midnightblue" stroke="midnightblue" points="408.249,-139.914 418.561,-137.48 408.982,-132.952 408.249,-139.914"/>
</g>
<!-- Node43 -->
<g id="node43" class="node"><title>Node43</title>
<g id="a_node43"><a xlink:href="../../d1/d10/classview_package_1_1_population_graph.html#a821b7af856b69286ee399d9db8c65a71" target="_top" xlink:title="viewPackage.PopulationGraph.update\lGraph">
<polygon fill="white" stroke="black" points="412,-62 412,-92 608,-92 608,-62 412,-62"/>
<text text-anchor="start" x="420" y="-80" font-family="Helvetica,sans-Serif" font-size="10.00">viewPackage.PopulationGraph.update</text>
<text text-anchor="middle" x="510" y="-69" font-family="Helvetica,sans-Serif" font-size="10.00">Graph</text>
</a>
</g>
</g>
<!-- Node39&#45;&gt;Node43 -->
<g id="edge46" class="edge"><title>Node39&#45;&gt;Node43</title>
<path fill="none" stroke="midnightblue" d="M328.242,-113.469C356.02,-107.864 391.964,-100.613 424.474,-94.0535"/>
<polygon fill="midnightblue" stroke="midnightblue" points="425.33,-97.4514 434.44,-92.0427 423.946,-90.5896 425.33,-97.4514"/>
</g>
<!-- Node41 -->
<g id="node41" class="node"><title>Node41</title>
<g id="a_node41"><a xlink:href="../../d2/d2c/classcontroller_1_1_view_packager.html#a1e8974daf2095f568a390c63173683c7" target="_top" xlink:title="controller.ViewPackager.get\lColorGrid">
<polygon fill="white" stroke="black" points="667.5,-176 667.5,-206 814.5,-206 814.5,-176 667.5,-176"/>
<text text-anchor="start" x="675.5" y="-194" font-family="Helvetica,sans-Serif" font-size="10.00">controller.ViewPackager.get</text>
<text text-anchor="middle" x="741" y="-183" font-family="Helvetica,sans-Serif" font-size="10.00">ColorGrid</text>
</a>
</g>
</g>
<!-- Node40&#45;&gt;Node41 -->
<g id="edge44" class="edge"><title>Node40&#45;&gt;Node41</title>
<path fill="none" stroke="midnightblue" d="M560.69,-156.547C588.943,-161.976 625.046,-168.913 657.442,-175.137"/>
<polygon fill="midnightblue" stroke="midnightblue" points="656.883,-178.594 667.364,-177.044 658.204,-171.72 656.883,-178.594"/>
</g>
<!-- Node42 -->
<g id="node42" class="node"><title>Node42</title>
<g id="a_node42"><a xlink:href="../../df/dcf/classview_package_1_1_display_grid.html#abcfcacf1767533f216fca38abf791804" target="_top" xlink:title="viewPackage.DisplayGrid.setFill">
<polygon fill="white" stroke="black" points="659.5,-137.5 659.5,-156.5 822.5,-156.5 822.5,-137.5 659.5,-137.5"/>
<text text-anchor="middle" x="741" y="-144.5" font-family="Helvetica,sans-Serif" font-size="10.00">viewPackage.DisplayGrid.setFill</text>
</a>
</g>
</g>
<!-- Node40&#45;&gt;Node42 -->
<g id="edge45" class="edge"><title>Node40&#45;&gt;Node42</title>
<path fill="none" stroke="midnightblue" d="M605.134,-147C619.628,-147 634.57,-147 648.994,-147"/>
<polygon fill="midnightblue" stroke="midnightblue" points="649.39,-150.5 659.39,-147 649.39,-143.5 649.39,-150.5"/>
</g>
<!-- Node44 -->
<g id="node44" class="node"><title>Node44</title>
<g id="a_node44"><a xlink:href="../../d2/d2c/classcontroller_1_1_view_packager.html#a111fe52ef72753012062470020a0e152" target="_top" xlink:title="controller.ViewPackager.get\lStateTotals">
<polygon fill="white" stroke="black" points="667.5,-88 667.5,-118 814.5,-118 814.5,-88 667.5,-88"/>
<text text-anchor="start" x="675.5" y="-106" font-family="Helvetica,sans-Serif" font-size="10.00">controller.ViewPackager.get</text>
<text text-anchor="middle" x="741" y="-95" font-family="Helvetica,sans-Serif" font-size="10.00">StateTotals</text>
</a>
</g>
</g>
<!-- Node43&#45;&gt;Node44 -->
<g id="edge47" class="edge"><title>Node43&#45;&gt;Node44</title>
<path fill="none" stroke="midnightblue" d="M608.117,-88.0263C624.416,-89.877 641.197,-91.7822 657.096,-93.5873"/>
<polygon fill="midnightblue" stroke="midnightblue" points="657.072,-97.107 667.403,-94.7575 657.862,-90.1517 657.072,-97.107"/>
</g>
<!-- Node45 -->
<g id="node45" class="node"><title>Node45</title>
<g id="a_node45"><a xlink:href="../../d1/d10/classview_package_1_1_population_graph.html#a3cb5ab88b681f1415029a3ef5b675588" target="_top" xlink:title="viewPackage.PopulationGraph.add\lToList">
<polygon fill="white" stroke="black" points="651,-39 651,-69 831,-69 831,-39 651,-39"/>
<text text-anchor="start" x="659" y="-57" font-family="Helvetica,sans-Serif" font-size="10.00">viewPackage.PopulationGraph.add</text>
<text text-anchor="middle" x="741" y="-46" font-family="Helvetica,sans-Serif" font-size="10.00">ToList</text>
</a>
</g>
</g>
<!-- Node43&#45;&gt;Node45 -->
<g id="edge48" class="edge"><title>Node43&#45;&gt;Node45</title>
<path fill="none" stroke="midnightblue" d="M608.117,-67.2459C618.833,-66.1697 629.757,-65.0725 640.501,-63.9933"/>
<polygon fill="midnightblue" stroke="midnightblue" points="641.135,-67.4474 650.735,-62.9655 640.435,-60.4824 641.135,-67.4474"/>
</g>
<!-- Node46 -->
<g id="node46" class="node"><title>Node46</title>
<g id="a_node46"><a xlink:href="../../d1/dbf/classview_package_1_1_view.html#aea085ebbf6e586d637710ff0d8ba71bf" target="_top" xlink:title="viewPackage.View.getGeneration">
<polygon fill="white" stroke="black" points="654.5,-0.5 654.5,-19.5 827.5,-19.5 827.5,-0.5 654.5,-0.5"/>
<text text-anchor="middle" x="741" y="-7.5" font-family="Helvetica,sans-Serif" font-size="10.00">viewPackage.View.getGeneration</text>
</a>
</g>
</g>
<!-- Node43&#45;&gt;Node46 -->
<g id="edge49" class="edge"><title>Node43&#45;&gt;Node46</title>
<path fill="none" stroke="midnightblue" d="M548.062,-61.9185C574.476,-51.5928 611.004,-38.1629 644,-29 653.699,-26.3065 664.052,-23.842 674.235,-21.6448"/>
<polygon fill="midnightblue" stroke="midnightblue" points="675.257,-25.007 684.331,-19.5381 673.827,-18.1546 675.257,-25.007"/>
</g>
<!-- Node48 -->
<g id="node48" class="node"><title>Node48</title>
<g id="a_node48"><a xlink:href="../../d9/df7/classcontroller_1_1_controller.html#a30880f3ff62c3e343da7b3c35126a2c2" target="_top" xlink:title="controller.Controller.set\lDefaultParameters">
<polygon fill="white" stroke="black" points="446,-513 446,-543 574,-543 574,-513 446,-513"/>
<text text-anchor="start" x="454" y="-531" font-family="Helvetica,sans-Serif" font-size="10.00">controller.Controller.set</text>
<text text-anchor="middle" x="510" y="-520" font-family="Helvetica,sans-Serif" font-size="10.00">DefaultParameters</text>
</a>
</g>
</g>
<!-- Node47&#45;&gt;Node48 -->
<g id="edge51" class="edge"><title>Node47&#45;&gt;Node48</title>
<path fill="none" stroke="midnightblue" d="M355.025,-542.182C380.853,-539.803 409.815,-537.135 435.593,-534.761"/>
<polygon fill="midnightblue" stroke="midnightblue" points="436.038,-538.235 445.675,-533.833 435.396,-531.265 436.038,-538.235"/>
</g>
<!-- Node48&#45;&gt;Node26 -->
<g id="edge52" class="edge"><title>Node48&#45;&gt;Node26</title>
<path fill="none" stroke="midnightblue" d="M574.181,-531.311C592.726,-532.283 613.535,-533.373 633.982,-534.444"/>
<polygon fill="midnightblue" stroke="midnightblue" points="633.809,-537.94 643.978,-534.968 634.175,-530.95 633.809,-537.94"/>
</g>
</g>
</svg>
