<?xml version="1.0" encoding="UTF-8" standalone="no"?>
<!DOCTYPE svg PUBLIC "-//W3C//DTD SVG 1.1//EN"
 "http://www.w3.org/Graphics/SVG/1.1/DTD/svg11.dtd">
<!-- Generated by graphviz version 2.36.0 (20140111.2315)
 -->
<!-- Title: controller.Controller.stopSimulation Pages: 1 -->
<svg width="1270pt" height="77pt"
 viewBox="0.00 0.00 1270.00 77.00" xmlns="http://www.w3.org/2000/svg" xmlns:xlink="http://www.w3.org/1999/xlink">
<g id="graph0" class="graph" transform="scale(1 1) rotate(0) translate(4 73)">
<title>controller.Controller.stopSimulation</title>
<polygon fill="white" stroke="none" points="-4,4 -4,-73 1266,-73 1266,4 -4,4"/>
<!-- Node1 -->
<g id="node1" class="node"><title>Node1</title>
<polygon fill="#bfbfbf" stroke="black" points="0,-17 0,-47 134,-47 134,-17 0,-17"/>
<text text-anchor="start" x="8" y="-35" font-family="Helvetica,sans-Serif" font-size="10.00">controller.Controller.stop</text>
<text text-anchor="middle" x="67" y="-24" font-family="Helvetica,sans-Serif" font-size="10.00">Simulation</text>
</g>
<!-- Node2 -->
<g id="node2" class="node"><title>Node2</title>
<g id="a_node2"><a xlink:href="../../d9/df7/classcontroller_1_1_controller.html#af7cc9ab6dfe60da36d3159eea48882db" target="_top" xlink:title="controller.Controller.loadFile">
<polygon fill="white" stroke="black" points="170,-42.5 170,-61.5 318,-61.5 318,-42.5 170,-42.5"/>
<text text-anchor="middle" x="244" y="-49.5" font-family="Helvetica,sans-Serif" font-size="10.00">controller.Controller.loadFile</text>
</a>
</g>
</g>
<!-- Node1&#45;&gt;Node2 -->
<g id="edge1" class="edge"><title>Node1&#45;&gt;Node2</title>
<path fill="none" stroke="midnightblue" d="M144.345,-40.7251C152.769,-41.6879 161.334,-42.6667 169.719,-43.625"/>
<polygon fill="midnightblue" stroke="midnightblue" points="144.493,-37.2193 134.16,-39.5611 143.698,-44.1741 144.493,-37.2193"/>
</g>
<!-- Node8 -->
<g id="node8" class="node"><title>Node8</title>
<g id="a_node8"><a xlink:href="../../d1/dbf/classview_package_1_1_view.html#a354522de3d58253a4528eb669d109234" target="_top" xlink:title="viewPackage.View.setPause">
<polygon fill="white" stroke="black" points="354.5,-0.5 354.5,-19.5 501.5,-19.5 501.5,-0.5 354.5,-0.5"/>
<text text-anchor="middle" x="428" y="-7.5" font-family="Helvetica,sans-Serif" font-size="10.00">viewPackage.View.setPause</text>
</a>
</g>
</g>
<!-- Node1&#45;&gt;Node8 -->
<g id="edge7" class="edge"><title>Node1&#45;&gt;Node8</title>
<path fill="none" stroke="midnightblue" d="M144.385,-27.319C206.421,-23.5174 293.321,-18.192 354.334,-14.4531"/>
<polygon fill="midnightblue" stroke="midnightblue" points="144.032,-23.834 134.265,-27.9392 144.46,-30.8209 144.032,-23.834"/>
</g>
<!-- Node3 -->
<g id="node3" class="node"><title>Node3</title>
<g id="a_node3"><a xlink:href="../../d1/dbf/classview_package_1_1_view.html#a718e5f42ae85512916198548e28477c7" target="_top" xlink:title="viewPackage.View.tryLoad">
<polygon fill="white" stroke="black" points="358,-43.5 358,-62.5 498,-62.5 498,-43.5 358,-43.5"/>
<text text-anchor="middle" x="428" y="-50.5" font-family="Helvetica,sans-Serif" font-size="10.00">viewPackage.View.tryLoad</text>
</a>
</g>
</g>
<!-- Node2&#45;&gt;Node3 -->
<g id="edge2" class="edge"><title>Node2&#45;&gt;Node3</title>
<path fill="none" stroke="midnightblue" d="M328.406,-52.4583C338.221,-52.5122 348.154,-52.5668 357.745,-52.6195"/>
<polygon fill="midnightblue" stroke="midnightblue" points="328.259,-48.9575 318.24,-52.4024 328.22,-55.9574 328.259,-48.9575"/>
</g>
<!-- Node4 -->
<g id="node4" class="node"><title>Node4</title>
<g id="a_node4"><a xlink:href="../../dc/d2c/classview_package_1_1_button_box.html#aef53bd97c4407ecd3fb5dfbf42850a46" target="_top" xlink:title="viewPackage.ButtonBox.load\lFileBox">
<polygon fill="white" stroke="black" points="538.5,-39 538.5,-69 691.5,-69 691.5,-39 538.5,-39"/>
<text text-anchor="start" x="546.5" y="-57" font-family="Helvetica,sans-Serif" font-size="10.00">viewPackage.ButtonBox.load</text>
<text text-anchor="middle" x="615" y="-46" font-family="Helvetica,sans-Serif" font-size="10.00">FileBox</text>
</a>
</g>
</g>
<!-- Node3&#45;&gt;Node4 -->
<g id="edge3" class="edge"><title>Node3&#45;&gt;Node4</title>
<path fill="none" stroke="midnightblue" d="M508.425,-53.4293C518.375,-53.4831 528.531,-53.538 538.42,-53.5915"/>
<polygon fill="midnightblue" stroke="midnightblue" points="508.169,-49.928 498.15,-53.3738 508.131,-56.9279 508.169,-49.928"/>
</g>
<!-- Node5 -->
<g id="node5" class="node"><title>Node5</title>
<g id="a_node5"><a xlink:href="../../dc/d2c/classview_package_1_1_button_box.html#a9756fc46a96c169ce48a1867bd2c82f5" target="_top" xlink:title="viewPackage.ButtonBox.make\lButtonBox">
<polygon fill="white" stroke="black" points="728,-17 728,-47 888,-47 888,-17 728,-17"/>
<text text-anchor="start" x="736" y="-35" font-family="Helvetica,sans-Serif" font-size="10.00">viewPackage.ButtonBox.make</text>
<text text-anchor="middle" x="808" y="-24" font-family="Helvetica,sans-Serif" font-size="10.00">ButtonBox</text>
</a>
</g>
</g>
<!-- Node4&#45;&gt;Node5 -->
<g id="edge4" class="edge"><title>Node4&#45;&gt;Node5</title>
<path fill="none" stroke="midnightblue" d="M701.864,-44.1099C710.526,-43.1122 719.295,-42.1022 727.881,-41.1131"/>
<polygon fill="midnightblue" stroke="midnightblue" points="701.296,-40.6521 691.763,-45.2734 702.097,-47.6061 701.296,-40.6521"/>
</g>
<!-- Node6 -->
<g id="node6" class="node"><title>Node6</title>
<g id="a_node6"><a xlink:href="../../d1/dbf/classview_package_1_1_view.html#af6f6887ef253ae0fba2634e367b95312" target="_top" xlink:title="viewPackage.View.initialize">
<polygon fill="white" stroke="black" points="924,-22.5 924,-41.5 1066,-41.5 1066,-22.5 924,-22.5"/>
<text text-anchor="middle" x="995" y="-29.5" font-family="Helvetica,sans-Serif" font-size="10.00">viewPackage.View.initialize</text>
</a>
</g>
</g>
<!-- Node5&#45;&gt;Node6 -->
<g id="edge5" class="edge"><title>Node5&#45;&gt;Node6</title>
<path fill="none" stroke="midnightblue" d="M898.327,-32C906.93,-32 915.57,-32 923.949,-32"/>
<polygon fill="midnightblue" stroke="midnightblue" points="898.262,-28.5001 888.262,-32 898.262,-35.5001 898.262,-28.5001"/>
</g>
<!-- Node7 -->
<g id="node7" class="node"><title>Node7</title>
<g id="a_node7"><a xlink:href="../../d9/df7/classcontroller_1_1_controller.html#a4dbfef3e3e30bd1bb84df7a6b24ad1e7" target="_top" xlink:title="controller.Controller.Controller">
<polygon fill="white" stroke="black" points="1102.5,-22.5 1102.5,-41.5 1261.5,-41.5 1261.5,-22.5 1102.5,-22.5"/>
<text text-anchor="middle" x="1182" y="-29.5" font-family="Helvetica,sans-Serif" font-size="10.00">controller.Controller.Controller</text>
</a>
</g>
</g>
<!-- Node6&#45;&gt;Node7 -->
<g id="edge6" class="edge"><title>Node6&#45;&gt;Node7</title>
<path fill="none" stroke="midnightblue" d="M1076.31,-32C1085,-32 1093.83,-32 1102.49,-32"/>
<polygon fill="midnightblue" stroke="midnightblue" points="1076.2,-28.5001 1066.2,-32 1076.2,-35.5001 1076.2,-28.5001"/>
</g>
<!-- Node8&#45;&gt;Node5 -->
<g id="edge8" class="edge"><title>Node8&#45;&gt;Node5</title>
<path fill="none" stroke="midnightblue" d="M511.975,-14.8292C576.199,-18.5671 664.569,-23.7104 727.816,-27.3914"/>
<polygon fill="midnightblue" stroke="midnightblue" points="512.069,-11.3289 501.882,-14.2418 511.662,-18.317 512.069,-11.3289"/>
</g>
</g>
</svg>
