<?xml version="1.0" encoding="UTF-8" standalone="no"?>
<!DOCTYPE svg PUBLIC "-//W3C//DTD SVG 1.1//EN"
 "http://www.w3.org/Graphics/SVG/1.1/DTD/svg11.dtd">
<!-- Generated by graphviz version 2.36.0 (20140111.2315)
 -->
<!-- Title: controller.Controller.stepSimulation Pages: 1 -->
<svg width="1238pt" height="126pt"
 viewBox="0.00 0.00 1238.00 126.00" xmlns="http://www.w3.org/2000/svg" xmlns:xlink="http://www.w3.org/1999/xlink">
<g id="graph0" class="graph" transform="scale(1 1) rotate(0) translate(4 122)">
<title>controller.Controller.stepSimulation</title>
<polygon fill="white" stroke="none" points="-4,4 -4,-122 1234,-122 1234,4 -4,4"/>
<!-- Node1 -->
<g id="node1" class="node"><title>Node1</title>
<polygon fill="#bfbfbf" stroke="black" points="0,-22 0,-52 134,-52 134,-22 0,-22"/>
<text text-anchor="start" x="8" y="-40" font-family="Helvetica,sans-Serif" font-size="10.00">controller.Controller.step</text>
<text text-anchor="middle" x="67" y="-29" font-family="Helvetica,sans-Serif" font-size="10.00">Simulation</text>
</g>
<!-- Node2 -->
<g id="node2" class="node"><title>Node2</title>
<g id="a_node2"><a xlink:href="../../d9/df7/classcontroller_1_1_controller.html#ae859ed2fba4e22871428ec51f7d4c07d" target="_top" xlink:title="controller.Controller.play\lSimulation">
<polygon fill="white" stroke="black" points="170,-44 170,-74 302,-74 302,-44 170,-44"/>
<text text-anchor="start" x="178" y="-62" font-family="Helvetica,sans-Serif" font-size="10.00">controller.Controller.play</text>
<text text-anchor="middle" x="236" y="-51" font-family="Helvetica,sans-Serif" font-size="10.00">Simulation</text>
</a>
</g>
</g>
<!-- Node1&#45;&gt;Node2 -->
<g id="edge1" class="edge"><title>Node1&#45;&gt;Node2</title>
<path fill="none" stroke="midnightblue" d="M144.019,-47.0145C152.612,-48.1465 161.312,-49.2925 169.75,-50.4041"/>
<polygon fill="midnightblue" stroke="midnightblue" points="144.374,-43.5311 134.003,-45.695 143.46,-50.4712 144.374,-43.5311"/>
</g>
<!-- Node8 -->
<g id="node8" class="node"><title>Node8</title>
<g id="a_node8"><a xlink:href="../../d1/dbf/classview_package_1_1_view.html#acec783d5c91d6cb27da271e46588e79f" target="_top" xlink:title="viewPackage.View.setStep\lSimulation">
<polygon fill="white" stroke="black" points="341.5,-0 341.5,-30 482.5,-30 482.5,-0 341.5,-0"/>
<text text-anchor="start" x="349.5" y="-18" font-family="Helvetica,sans-Serif" font-size="10.00">viewPackage.View.setStep</text>
<text text-anchor="middle" x="412" y="-7" font-family="Helvetica,sans-Serif" font-size="10.00">Simulation</text>
</a>
</g>
</g>
<!-- Node1&#45;&gt;Node8 -->
<g id="edge8" class="edge"><title>Node1&#45;&gt;Node8</title>
<path fill="none" stroke="midnightblue" d="M144.13,-32.117C203.05,-28.3379 283.99,-23.1464 341.24,-19.4744"/>
<polygon fill="midnightblue" stroke="midnightblue" points="143.889,-28.6252 134.134,-32.7582 144.337,-35.6108 143.889,-28.6252"/>
</g>
<!-- Node3 -->
<g id="node3" class="node"><title>Node3</title>
<g id="a_node3"><a xlink:href="../../d9/df7/classcontroller_1_1_controller.html#a37d9d1d84d304a9d94d7666322b7c6ab" target="_top" xlink:title="controller.Controller.change\lSpeed">
<polygon fill="white" stroke="black" points="338,-88 338,-118 486,-118 486,-88 338,-88"/>
<text text-anchor="start" x="346" y="-106" font-family="Helvetica,sans-Serif" font-size="10.00">controller.Controller.change</text>
<text text-anchor="middle" x="412" y="-95" font-family="Helvetica,sans-Serif" font-size="10.00">Speed</text>
</a>
</g>
</g>
<!-- Node2&#45;&gt;Node3 -->
<g id="edge2" class="edge"><title>Node2&#45;&gt;Node3</title>
<path fill="none" stroke="midnightblue" d="M306.147,-76.4855C321.181,-80.2873 336.959,-84.277 351.578,-87.9738"/>
<polygon fill="midnightblue" stroke="midnightblue" points="306.947,-73.0777 296.394,-74.0192 305.231,-79.8641 306.947,-73.0777"/>
</g>
<!-- Node4 -->
<g id="node4" class="node"><title>Node4</title>
<g id="a_node4"><a xlink:href="../../d1/dbf/classview_package_1_1_view.html#a1d1a8e16ae622c0d6a66cd9c516672a6" target="_top" xlink:title="viewPackage.View.setPlay\lAction">
<polygon fill="white" stroke="black" points="522,-44 522,-74 660,-74 660,-44 522,-44"/>
<text text-anchor="start" x="530" y="-62" font-family="Helvetica,sans-Serif" font-size="10.00">viewPackage.View.setPlay</text>
<text text-anchor="middle" x="591" y="-51" font-family="Helvetica,sans-Serif" font-size="10.00">Action</text>
</a>
</g>
</g>
<!-- Node2&#45;&gt;Node4 -->
<g id="edge7" class="edge"><title>Node2&#45;&gt;Node4</title>
<path fill="none" stroke="midnightblue" d="M312.291,-59C374.428,-59 461.844,-59 521.914,-59"/>
<polygon fill="midnightblue" stroke="midnightblue" points="312.157,-55.5001 302.157,-59 312.157,-62.5001 312.157,-55.5001"/>
</g>
<!-- Node3&#45;&gt;Node4 -->
<g id="edge3" class="edge"><title>Node3&#45;&gt;Node4</title>
<path fill="none" stroke="midnightblue" d="M483.339,-85.5145C498.633,-81.7127 514.683,-77.723 529.554,-74.0262"/>
<polygon fill="midnightblue" stroke="midnightblue" points="482.279,-82.1716 473.418,-87.9808 483.967,-88.9649 482.279,-82.1716"/>
</g>
<!-- Node5 -->
<g id="node5" class="node"><title>Node5</title>
<g id="a_node5"><a xlink:href="../../dc/d2c/classview_package_1_1_button_box.html#a9756fc46a96c169ce48a1867bd2c82f5" target="_top" xlink:title="viewPackage.ButtonBox.make\lButtonBox">
<polygon fill="white" stroke="black" points="696,-22 696,-52 856,-52 856,-22 696,-22"/>
<text text-anchor="start" x="704" y="-40" font-family="Helvetica,sans-Serif" font-size="10.00">viewPackage.ButtonBox.make</text>
<text text-anchor="middle" x="776" y="-29" font-family="Helvetica,sans-Serif" font-size="10.00">ButtonBox</text>
</a>
</g>
</g>
<!-- Node4&#45;&gt;Node5 -->
<g id="edge4" class="edge"><title>Node4&#45;&gt;Node5</title>
<path fill="none" stroke="midnightblue" d="M670.303,-49.5865C678.711,-48.5757 687.27,-47.5467 695.69,-46.5346"/>
<polygon fill="midnightblue" stroke="midnightblue" points="669.653,-46.1394 660.142,-50.808 670.489,-53.0893 669.653,-46.1394"/>
</g>
<!-- Node6 -->
<g id="node6" class="node"><title>Node6</title>
<g id="a_node6"><a xlink:href="../../d1/dbf/classview_package_1_1_view.html#af6f6887ef253ae0fba2634e367b95312" target="_top" xlink:title="viewPackage.View.initialize">
<polygon fill="white" stroke="black" points="892,-27.5 892,-46.5 1034,-46.5 1034,-27.5 892,-27.5"/>
<text text-anchor="middle" x="963" y="-34.5" font-family="Helvetica,sans-Serif" font-size="10.00">viewPackage.View.initialize</text>
</a>
</g>
</g>
<!-- Node5&#45;&gt;Node6 -->
<g id="edge5" class="edge"><title>Node5&#45;&gt;Node6</title>
<path fill="none" stroke="midnightblue" d="M866.327,-37C874.93,-37 883.57,-37 891.949,-37"/>
<polygon fill="midnightblue" stroke="midnightblue" points="866.262,-33.5001 856.262,-37 866.262,-40.5001 866.262,-33.5001"/>
</g>
<!-- Node7 -->
<g id="node7" class="node"><title>Node7</title>
<g id="a_node7"><a xlink:href="../../d9/df7/classcontroller_1_1_controller.html#a4dbfef3e3e30bd1bb84df7a6b24ad1e7" target="_top" xlink:title="controller.Controller.Controller">
<polygon fill="white" stroke="black" points="1070.5,-27.5 1070.5,-46.5 1229.5,-46.5 1229.5,-27.5 1070.5,-27.5"/>
<text text-anchor="middle" x="1150" y="-34.5" font-family="Helvetica,sans-Serif" font-size="10.00">controller.Controller.Controller</text>
</a>
</g>
</g>
<!-- Node6&#45;&gt;Node7 -->
<g id="edge6" class="edge"><title>Node6&#45;&gt;Node7</title>
<path fill="none" stroke="midnightblue" d="M1044.31,-37C1053,-37 1061.83,-37 1070.49,-37"/>
<polygon fill="midnightblue" stroke="midnightblue" points="1044.2,-33.5001 1034.2,-37 1044.2,-40.5001 1044.2,-33.5001"/>
</g>
<!-- Node8&#45;&gt;Node5 -->
<g id="edge9" class="edge"><title>Node8&#45;&gt;Node5</title>
<path fill="none" stroke="midnightblue" d="M493.047,-19.8647C553.428,-23.5343 635.847,-28.5432 695.977,-32.1975"/>
<polygon fill="midnightblue" stroke="midnightblue" points="492.991,-16.355 482.797,-19.2418 492.566,-23.3421 492.991,-16.355"/>
</g>
</g>
</svg>
