<?xml version="1.0" encoding="UTF-8" standalone="no"?>
<!DOCTYPE svg PUBLIC "-//W3C//DTD SVG 1.1//EN"
 "http://www.w3.org/Graphics/SVG/1.1/DTD/svg11.dtd">
<!-- Generated by graphviz version 2.36.0 (20140111.2315)
 -->
<!-- Title: controller.Controller.stepSimulation Pages: 1 -->
<!--zoomable 519 -->
<svg id="main" version="1.1" xmlns="http://www.w3.org/2000/svg" xmlns:xlink="http://www.w3.org/1999/xlink" xml:space="preserve" onload="init(evt)">
<style type="text/css"><![CDATA[
.edge:hover path { stroke: red; }
.edge:hover polygon { stroke: red; fill: red; }
]]></style>
<script type="text/javascript"><![CDATA[
var edges = document.getElementsByTagName('g');
if (edges && edges.length) {
  for (var i=0;i<edges.length;i++) {
    if (edges[i].id.substr(0,4)=='edge') {
      edges[i].setAttribute('class','edge');
    }
  }
}
]]></script>
        <defs>
                <circle id="rim" cx="0" cy="0" r="7"/>
                <circle id="rim2" cx="0" cy="0" r="3.5"/>
                <g id="zoomPlus">
                        <use xlink:href="#rim" fill="#404040">
                                <set attributeName="fill" to="#808080" begin="zoomplus.mouseover" end="zoomplus.mouseout"/>
                        </use>
                        <path d="M-4,0h8M0,-4v8" fill="none" stroke="white" stroke-width="1.5" pointer-events="none"/>
                </g>
                <g id="zoomMin">
                        <use xlink:href="#rim" fill="#404040">
                                <set attributeName="fill" to="#808080" begin="zoomminus.mouseover" end="zoomminus.mouseout"/>
                        </use>
                        <path d="M-4,0h8" fill="none" stroke="white" stroke-width="1.5" pointer-events="none"/>
                </g>
                <g id="dirArrow">
                        <path fill="none" stroke="white" stroke-width="1.5" d="M0,-3.0v7 M-2.5,-0.5L0,-3.0L2.5,-0.5"/>
                </g>
               <g id="resetDef">
                       <use xlink:href="#rim2" fill="#404040">
                               <set attributeName="fill" to="#808080" begin="reset.mouseover" end="reset.mouseout"/>
                       </use>
               </g>
        </defs>

<script type="text/javascript">
var viewWidth = 806;
var viewHeight = 519;
var sectionId = 'dynsection-18';
</script>
<script xlink:href="../../svgpan.js"/>
<svg id="graph" class="graph">
<g id="viewport">
<title>controller.Controller.stepSimulation</title>
<polygon fill="white" stroke="none" points="-4,4 -4,-515 802,-515 802,4 -4,4"/>
<!-- Node1 -->
<g id="node1" class="node"><title>Node1</title>
<polygon fill="#bfbfbf" stroke="black" points="0,-271 0,-301 134,-301 134,-271 0,-271"/>
<text text-anchor="start" x="8" y="-289" font-family="Helvetica,sans-Serif" font-size="10.00">controller.Controller.step</text>
<text text-anchor="middle" x="67" y="-278" font-family="Helvetica,sans-Serif" font-size="10.00">Simulation</text>
</g>
<!-- Node2 -->
<g id="node2" class="node"><title>Node2</title>
<g id="a_node2"><a xlink:href="../../d9/df7/classcontroller_1_1_controller.html#af87c08769a85e54ca1d5c688b82b11f6" target="_top" xlink:title="controller.Controller.bundle\lViewPackager">
<polygon fill="white" stroke="black" points="187.5,-383 187.5,-413 332.5,-413 332.5,-383 187.5,-383"/>
<text text-anchor="start" x="195.5" y="-401" font-family="Helvetica,sans-Serif" font-size="10.00">controller.Controller.bundle</text>
<text text-anchor="middle" x="260" y="-390" font-family="Helvetica,sans-Serif" font-size="10.00">ViewPackager</text>
</a>
</g>
</g>
<!-- Node1&#45;&gt;Node2 -->
<g id="edge1" class="edge"><title>Node1&#45;&gt;Node2</title>
<path fill="none" stroke="midnightblue" d="M93.7591,-301.105C127.459,-320.866 186.633,-355.565 224.269,-377.634"/>
<polygon fill="midnightblue" stroke="midnightblue" points="222.948,-380.917 233.345,-382.956 226.489,-374.878 222.948,-380.917"/>
</g>
<!-- Node11 -->
<g id="node11" class="node"><title>Node11</title>
<g id="a_node11"><a xlink:href="../../d2/d17/classmodel_1_1_simulation.html#a4fc716803ab2e78743a529a24a8c601f" target="_top" xlink:title="model.Simulation.makeNextGrid">
<polygon fill="white" stroke="black" points="397.5,-295.5 397.5,-314.5 570.5,-314.5 570.5,-295.5 397.5,-295.5"/>
<text text-anchor="middle" x="484" y="-302.5" font-family="Helvetica,sans-Serif" font-size="10.00">model.Simulation.makeNextGrid</text>
</a>
</g>
</g>
<!-- Node1&#45;&gt;Node11 -->
<g id="edge14" class="edge"><title>Node1&#45;&gt;Node11</title>
<path fill="none" stroke="midnightblue" d="M134.217,-289.032C202.437,-292.155 309.46,-297.055 386.97,-300.603"/>
<polygon fill="midnightblue" stroke="midnightblue" points="387.076,-304.112 397.226,-301.073 387.396,-297.119 387.076,-304.112"/>
</g>
<!-- Node15 -->
<g id="node15" class="node"><title>Node15</title>
<g id="a_node15"><a xlink:href="../../d2/d17/classmodel_1_1_simulation.html#abed35864045d807fe4a577bbe02b996e" target="_top" xlink:title="model.Simulation.updateGrid">
<polygon fill="white" stroke="black" points="181.5,-257.5 181.5,-276.5 338.5,-276.5 338.5,-257.5 181.5,-257.5"/>
<text text-anchor="middle" x="260" y="-264.5" font-family="Helvetica,sans-Serif" font-size="10.00">model.Simulation.updateGrid</text>
</a>
</g>
</g>
<!-- Node1&#45;&gt;Node15 -->
<g id="edge21" class="edge"><title>Node1&#45;&gt;Node15</title>
<path fill="none" stroke="midnightblue" d="M134.266,-279.408C146.254,-278.216 158.921,-276.955 171.408,-275.713"/>
<polygon fill="midnightblue" stroke="midnightblue" points="171.761,-279.196 181.366,-274.723 171.068,-272.23 171.761,-279.196"/>
</g>
<!-- Node16 -->
<g id="node16" class="node"><title>Node16</title>
<g id="a_node16"><a xlink:href="../../d1/dbf/classview_package_1_1_view.html#a7793d78c89cc38648fc57d4ee46a0837" target="_top" xlink:title="viewPackage.View.updateGridView">
<polygon fill="white" stroke="black" points="170.5,-142.5 170.5,-161.5 349.5,-161.5 349.5,-142.5 170.5,-142.5"/>
<text text-anchor="middle" x="260" y="-149.5" font-family="Helvetica,sans-Serif" font-size="10.00">viewPackage.View.updateGridView</text>
</a>
</g>
</g>
<!-- Node1&#45;&gt;Node16 -->
<g id="edge22" class="edge"><title>Node1&#45;&gt;Node16</title>
<path fill="none" stroke="midnightblue" d="M89.5388,-270.889C126.054,-245.271 199.741,-193.575 236.739,-167.617"/>
<polygon fill="midnightblue" stroke="midnightblue" points="239.134,-170.213 245.31,-161.604 235.114,-164.482 239.134,-170.213"/>
</g>
<!-- Node3 -->
<g id="node3" class="node"><title>Node3</title>
<g id="a_node3"><a xlink:href="../../d9/df7/classcontroller_1_1_controller.html#ae43191a1fc7db5c1cb03da2a8a580541" target="_top" xlink:title="controller.Controller.create\lColorGrid">
<polygon fill="white" stroke="black" points="412.5,-383 412.5,-413 555.5,-413 555.5,-383 412.5,-383"/>
<text text-anchor="start" x="420.5" y="-401" font-family="Helvetica,sans-Serif" font-size="10.00">controller.Controller.create</text>
<text text-anchor="middle" x="484" y="-390" font-family="Helvetica,sans-Serif" font-size="10.00">ColorGrid</text>
</a>
</g>
</g>
<!-- Node2&#45;&gt;Node3 -->
<g id="edge2" class="edge"><title>Node2&#45;&gt;Node3</title>
<path fill="none" stroke="midnightblue" d="M332.77,-398C354.851,-398 379.309,-398 401.967,-398"/>
<polygon fill="midnightblue" stroke="midnightblue" points="402.235,-401.5 412.235,-398 402.235,-394.5 402.235,-401.5"/>
</g>
<!-- Node8 -->
<g id="node8" class="node"><title>Node8</title>
<g id="a_node8"><a xlink:href="../../d2/d2c/classcontroller_1_1_view_packager.html#a637ec76985be3af6c2b14a527e1c1bac" target="_top" xlink:title="controller.ViewPackager.set\lColorGrid">
<polygon fill="white" stroke="black" points="411,-334 411,-364 557,-364 557,-334 411,-334"/>
<text text-anchor="start" x="419" y="-352" font-family="Helvetica,sans-Serif" font-size="10.00">controller.ViewPackager.set</text>
<text text-anchor="middle" x="484" y="-341" font-family="Helvetica,sans-Serif" font-size="10.00">ColorGrid</text>
</a>
</g>
</g>
<!-- Node2&#45;&gt;Node8 -->
<g id="edge7" class="edge"><title>Node2&#45;&gt;Node8</title>
<path fill="none" stroke="midnightblue" d="M329.116,-382.965C353.089,-377.674 380.215,-371.687 404.943,-366.229"/>
<polygon fill="midnightblue" stroke="midnightblue" points="406.002,-369.579 415.013,-364.006 404.493,-362.744 406.002,-369.579"/>
</g>
<!-- Node9 -->
<g id="node9" class="node"><title>Node9</title>
<g id="a_node9"><a xlink:href="../../d2/d2c/classcontroller_1_1_view_packager.html#a8a82603c0efc9d0197a0c027030f4993" target="_top" xlink:title="controller.ViewPackager.set\lStateTotalMap">
<polygon fill="white" stroke="black" points="411,-481 411,-511 557,-511 557,-481 411,-481"/>
<text text-anchor="start" x="419" y="-499" font-family="Helvetica,sans-Serif" font-size="10.00">controller.ViewPackager.set</text>
<text text-anchor="middle" x="484" y="-488" font-family="Helvetica,sans-Serif" font-size="10.00">StateTotalMap</text>
</a>
</g>
</g>
<!-- Node2&#45;&gt;Node9 -->
<g id="edge8" class="edge"><title>Node2&#45;&gt;Node9</title>
<path fill="none" stroke="midnightblue" d="M282.619,-413.133C306.811,-429.455 347.654,-455.219 386,-471 392.105,-473.512 398.532,-475.829 405.052,-477.954"/>
<polygon fill="midnightblue" stroke="midnightblue" points="404.056,-481.309 414.644,-480.928 406.129,-474.623 404.056,-481.309"/>
</g>
<!-- Node10 -->
<g id="node10" class="node"><title>Node10</title>
<g id="a_node10"><a xlink:href="../../d9/df7/classcontroller_1_1_controller.html#aca48bc84d82655ce699963fd859afebd" target="_top" xlink:title="controller.Controller.update\lStateTotals">
<polygon fill="white" stroke="black" points="411,-432 411,-462 557,-462 557,-432 411,-432"/>
<text text-anchor="start" x="419" y="-450" font-family="Helvetica,sans-Serif" font-size="10.00">controller.Controller.update</text>
<text text-anchor="middle" x="484" y="-439" font-family="Helvetica,sans-Serif" font-size="10.00">StateTotals</text>
</a>
</g>
</g>
<!-- Node2&#45;&gt;Node10 -->
<g id="edge9" class="edge"><title>Node2&#45;&gt;Node10</title>
<path fill="none" stroke="midnightblue" d="M329.116,-413.035C353.089,-418.326 380.215,-424.313 404.943,-429.771"/>
<polygon fill="midnightblue" stroke="midnightblue" points="404.493,-433.256 415.013,-431.994 406.002,-426.421 404.493,-433.256"/>
</g>
<!-- Node4 -->
<g id="node4" class="node"><title>Node4</title>
<g id="a_node4"><a xlink:href="../../dc/d8f/classmodel_1_1_grid.html#a7308e05b94f35a2f8198f314eb384267" target="_top" xlink:title="model.Grid.getCell">
<polygon fill="white" stroke="black" points="655.5,-426.5 655.5,-445.5 760.5,-445.5 760.5,-426.5 655.5,-426.5"/>
<text text-anchor="middle" x="708" y="-433.5" font-family="Helvetica,sans-Serif" font-size="10.00">model.Grid.getCell</text>
</a>
</g>
</g>
<!-- Node3&#45;&gt;Node4 -->
<g id="edge3" class="edge"><title>Node3&#45;&gt;Node4</title>
<path fill="none" stroke="midnightblue" d="M555.547,-410.076C584.382,-415.011 617.435,-420.669 645.291,-425.437"/>
<polygon fill="midnightblue" stroke="midnightblue" points="644.854,-428.913 655.302,-427.151 646.035,-422.014 644.854,-428.913"/>
</g>
<!-- Node5 -->
<g id="node5" class="node"><title>Node5</title>
<g id="a_node5"><a xlink:href="../../dc/d8f/classmodel_1_1_grid.html#a01924b6019a14826898f281a3064b3b5" target="_top" xlink:title="model.Grid.getGridColSize">
<polygon fill="white" stroke="black" points="636.5,-388.5 636.5,-407.5 779.5,-407.5 779.5,-388.5 636.5,-388.5"/>
<text text-anchor="middle" x="708" y="-395.5" font-family="Helvetica,sans-Serif" font-size="10.00">model.Grid.getGridColSize</text>
</a>
</g>
</g>
<!-- Node3&#45;&gt;Node5 -->
<g id="edge4" class="edge"><title>Node3&#45;&gt;Node5</title>
<path fill="none" stroke="midnightblue" d="M555.547,-398C577.998,-398 603.007,-398 626.129,-398"/>
<polygon fill="midnightblue" stroke="midnightblue" points="626.255,-401.5 636.255,-398 626.255,-394.5 626.255,-401.5"/>
</g>
<!-- Node6 -->
<g id="node6" class="node"><title>Node6</title>
<g id="a_node6"><a xlink:href="../../dc/d8f/classmodel_1_1_grid.html#a40adce87c26a3a6830125324ae576c34" target="_top" xlink:title="model.Grid.getGridRowSize">
<polygon fill="white" stroke="black" points="635,-350.5 635,-369.5 781,-369.5 781,-350.5 635,-350.5"/>
<text text-anchor="middle" x="708" y="-357.5" font-family="Helvetica,sans-Serif" font-size="10.00">model.Grid.getGridRowSize</text>
</a>
</g>
</g>
<!-- Node3&#45;&gt;Node6 -->
<g id="edge5" class="edge"><title>Node3&#45;&gt;Node6</title>
<path fill="none" stroke="midnightblue" d="M555.547,-385.924C583.017,-381.222 614.315,-375.865 641.302,-371.246"/>
<polygon fill="midnightblue" stroke="midnightblue" points="642.15,-374.651 651.416,-369.514 640.969,-367.752 642.15,-374.651"/>
</g>
<!-- Node7 -->
<g id="node7" class="node"><title>Node7</title>
<g id="a_node7"><a xlink:href="../../d3/d57/classmodel_1_1_cell.html#a527cb796745a34155e9b2a82b2a8812a" target="_top" xlink:title="model.Cell.toString">
<polygon fill="white" stroke="black" points="654,-464.5 654,-483.5 762,-483.5 762,-464.5 654,-464.5"/>
<text text-anchor="middle" x="708" y="-471.5" font-family="Helvetica,sans-Serif" font-size="10.00">model.Cell.toString</text>
</a>
</g>
</g>
<!-- Node3&#45;&gt;Node7 -->
<g id="edge6" class="edge"><title>Node3&#45;&gt;Node7</title>
<path fill="none" stroke="midnightblue" d="M555.647,-411.97C564.773,-414.988 573.788,-418.626 582,-423 600.894,-433.064 598.899,-445.334 618,-455 626.075,-459.086 634.992,-462.295 643.971,-464.815"/>
<polygon fill="midnightblue" stroke="midnightblue" points="643.146,-468.217 653.7,-467.287 644.87,-461.432 643.146,-468.217"/>
</g>
<!-- Node10&#45;&gt;Node4 -->
<g id="edge12" class="edge"><title>Node10&#45;&gt;Node4</title>
<path fill="none" stroke="midnightblue" d="M557.077,-443.429C585.48,-442.021 617.776,-440.421 645.1,-439.067"/>
<polygon fill="midnightblue" stroke="midnightblue" points="645.496,-442.552 655.311,-438.561 645.15,-435.56 645.496,-442.552"/>
</g>
<!-- Node10&#45;&gt;Node5 -->
<g id="edge11" class="edge"><title>Node10&#45;&gt;Node5</title>
<path fill="none" stroke="midnightblue" d="M550.925,-431.972C572.31,-427.139 596.152,-421.796 618,-417 628.87,-414.614 640.496,-412.102 651.639,-409.715"/>
<polygon fill="midnightblue" stroke="midnightblue" points="652.654,-413.078 661.702,-407.565 651.191,-406.232 652.654,-413.078"/>
</g>
<!-- Node10&#45;&gt;Node6 -->
<g id="edge10" class="edge"><title>Node10&#45;&gt;Node6</title>
<path fill="none" stroke="midnightblue" d="M557.051,-433.87C565.81,-430.724 574.353,-426.827 582,-422 603.078,-408.697 596.648,-391.858 618,-379 621.479,-376.905 625.156,-375.039 628.957,-373.377"/>
<polygon fill="midnightblue" stroke="midnightblue" points="630.546,-376.516 638.618,-369.654 628.028,-369.985 630.546,-376.516"/>
</g>
<!-- Node10&#45;&gt;Node7 -->
<g id="edge13" class="edge"><title>Node10&#45;&gt;Node7</title>
<path fill="none" stroke="midnightblue" d="M557.077,-455.766C585.031,-459.166 616.756,-463.024 643.801,-466.314"/>
<polygon fill="midnightblue" stroke="midnightblue" points="643.57,-469.811 653.919,-467.544 644.415,-462.862 643.57,-469.811"/>
</g>
<!-- Node11&#45;&gt;Node4 -->
<g id="edge19" class="edge"><title>Node11&#45;&gt;Node4</title>
<path fill="none" stroke="midnightblue" d="M565.356,-314.645C571.356,-317.386 577.005,-320.788 582,-325 615.566,-353.305 584.533,-388.577 618,-417 625.768,-423.597 635.271,-428.075 645.142,-431.085"/>
<polygon fill="midnightblue" stroke="midnightblue" points="644.53,-434.541 655.085,-433.628 646.264,-427.759 644.53,-434.541"/>
</g>
<!-- Node11&#45;&gt;Node5 -->
<g id="edge17" class="edge"><title>Node11&#45;&gt;Node5</title>
<path fill="none" stroke="midnightblue" d="M560.986,-314.55C568.426,-317.253 575.584,-320.675 582,-325 605.919,-341.121 594.138,-362.795 618,-379 620.898,-380.968 623.962,-382.738 627.14,-384.329"/>
<polygon fill="midnightblue" stroke="midnightblue" points="625.797,-387.561 636.362,-388.355 628.598,-381.146 625.797,-387.561"/>
</g>
<!-- Node11&#45;&gt;Node6 -->
<g id="edge16" class="edge"><title>Node11&#45;&gt;Node6</title>
<path fill="none" stroke="midnightblue" d="M541.442,-314.504C554.879,-317.351 569.067,-320.846 582,-325 598.67,-330.354 601.349,-335.587 618,-341 626.188,-343.661 634.922,-346.051 643.6,-348.163"/>
<polygon fill="midnightblue" stroke="midnightblue" points="642.808,-351.572 653.341,-350.43 644.395,-344.754 642.808,-351.572"/>
</g>
<!-- Node12 -->
<g id="node12" class="node"><title>Node12</title>
<g id="a_node12"><a xlink:href="../../dc/d8f/classmodel_1_1_grid.html#a994d6c682166c2599924fba6a64db842" target="_top" xlink:title="model.Grid.copyGrid">
<polygon fill="white" stroke="black" points="651,-312.5 651,-331.5 765,-331.5 765,-312.5 651,-312.5"/>
<text text-anchor="middle" x="708" y="-319.5" font-family="Helvetica,sans-Serif" font-size="10.00">model.Grid.copyGrid</text>
</a>
</g>
</g>
<!-- Node11&#45;&gt;Node12 -->
<g id="edge15" class="edge"><title>Node11&#45;&gt;Node12</title>
<path fill="none" stroke="midnightblue" d="M570.513,-311.548C593.711,-313.325 618.479,-315.221 640.461,-316.905"/>
<polygon fill="midnightblue" stroke="midnightblue" points="640.439,-320.413 650.677,-317.687 640.974,-313.434 640.439,-320.413"/>
</g>
<!-- Node13 -->
<g id="node13" class="node"><title>Node13</title>
<g id="a_node13"><a xlink:href="../../d2/d17/classmodel_1_1_simulation.html#ab1da5698abc45e35e163f783fa393f8d" target="_top" xlink:title="model.Simulation.calculate\lNewCellState">
<polygon fill="white" stroke="black" points="635,-263 635,-293 781,-293 781,-263 635,-263"/>
<text text-anchor="start" x="643" y="-281" font-family="Helvetica,sans-Serif" font-size="10.00">model.Simulation.calculate</text>
<text text-anchor="middle" x="708" y="-270" font-family="Helvetica,sans-Serif" font-size="10.00">NewCellState</text>
</a>
</g>
</g>
<!-- Node11&#45;&gt;Node13 -->
<g id="edge18" class="edge"><title>Node11&#45;&gt;Node13</title>
<path fill="none" stroke="midnightblue" d="M563.269,-295.481C583.132,-293.065 604.531,-290.462 624.593,-288.022"/>
<polygon fill="midnightblue" stroke="midnightblue" points="625.129,-291.483 634.633,-286.801 624.283,-284.534 625.129,-291.483"/>
</g>
<!-- Node14 -->
<g id="node14" class="node"><title>Node14</title>
<g id="a_node14"><a xlink:href="../../d3/d57/classmodel_1_1_cell.html#afba3057d5fff58793cb8118915f47e2a" target="_top" xlink:title="model.Cell.setState">
<polygon fill="white" stroke="black" points="652.5,-224.5 652.5,-243.5 763.5,-243.5 763.5,-224.5 652.5,-224.5"/>
<text text-anchor="middle" x="708" y="-231.5" font-family="Helvetica,sans-Serif" font-size="10.00">model.Cell.setState</text>
</a>
</g>
</g>
<!-- Node11&#45;&gt;Node14 -->
<g id="edge20" class="edge"><title>Node11&#45;&gt;Node14</title>
<path fill="none" stroke="midnightblue" d="M506.277,-295.439C532.227,-284.069 577.631,-265.113 618,-253 626.779,-250.366 636.151,-247.949 645.394,-245.788"/>
<polygon fill="midnightblue" stroke="midnightblue" points="646.356,-249.159 655.341,-243.544 644.815,-242.331 646.356,-249.159"/>
</g>
<!-- Node17 -->
<g id="node17" class="node"><title>Node17</title>
<g id="a_node17"><a xlink:href="../../df/dcf/classview_package_1_1_display_grid.html#a1a0aa454acaa29992ff9c716d38ec396" target="_top" xlink:title="viewPackage.DisplayGrid.updateGrid">
<polygon fill="white" stroke="black" points="389,-44.5 389,-63.5 579,-63.5 579,-44.5 389,-44.5"/>
<text text-anchor="middle" x="484" y="-51.5" font-family="Helvetica,sans-Serif" font-size="10.00">viewPackage.DisplayGrid.updateGrid</text>
</a>
</g>
</g>
<!-- Node16&#45;&gt;Node17 -->
<g id="edge23" class="edge"><title>Node16&#45;&gt;Node17</title>
<path fill="none" stroke="midnightblue" d="M282.691,-142.425C322.23,-124.97 406.155,-87.9227 451.82,-67.7642"/>
<polygon fill="midnightblue" stroke="midnightblue" points="453.487,-70.8543 461.221,-63.614 450.66,-64.4505 453.487,-70.8543"/>
</g>
<!-- Node20 -->
<g id="node20" class="node"><title>Node20</title>
<g id="a_node20"><a xlink:href="../../d1/d10/classview_package_1_1_population_graph.html#a821b7af856b69286ee399d9db8c65a71" target="_top" xlink:title="viewPackage.PopulationGraph.update\lGraph">
<polygon fill="white" stroke="black" points="386,-137 386,-167 582,-167 582,-137 386,-137"/>
<text text-anchor="start" x="394" y="-155" font-family="Helvetica,sans-Serif" font-size="10.00">viewPackage.PopulationGraph.update</text>
<text text-anchor="middle" x="484" y="-144" font-family="Helvetica,sans-Serif" font-size="10.00">Graph</text>
</a>
</g>
</g>
<!-- Node16&#45;&gt;Node20 -->
<g id="edge26" class="edge"><title>Node16&#45;&gt;Node20</title>
<path fill="none" stroke="midnightblue" d="M349.697,-152C358.204,-152 366.894,-152 375.554,-152"/>
<polygon fill="midnightblue" stroke="midnightblue" points="375.694,-155.5 385.694,-152 375.694,-148.5 375.694,-155.5"/>
</g>
<!-- Node18 -->
<g id="node18" class="node"><title>Node18</title>
<g id="a_node18"><a xlink:href="../../d2/d2c/classcontroller_1_1_view_packager.html#a1e8974daf2095f568a390c63173683c7" target="_top" xlink:title="controller.ViewPackager.get\lColorGrid">
<polygon fill="white" stroke="black" points="634.5,-39 634.5,-69 781.5,-69 781.5,-39 634.5,-39"/>
<text text-anchor="start" x="642.5" y="-57" font-family="Helvetica,sans-Serif" font-size="10.00">controller.ViewPackager.get</text>
<text text-anchor="middle" x="708" y="-46" font-family="Helvetica,sans-Serif" font-size="10.00">ColorGrid</text>
</a>
</g>
</g>
<!-- Node17&#45;&gt;Node18 -->
<g id="edge24" class="edge"><title>Node17&#45;&gt;Node18</title>
<path fill="none" stroke="midnightblue" d="M579.148,-54C594.127,-54 609.525,-54 624.216,-54"/>
<polygon fill="midnightblue" stroke="midnightblue" points="624.261,-57.5001 634.261,-54 624.261,-50.5001 624.261,-57.5001"/>
</g>
<!-- Node19 -->
<g id="node19" class="node"><title>Node19</title>
<g id="a_node19"><a xlink:href="../../df/dcf/classview_package_1_1_display_grid.html#abcfcacf1767533f216fca38abf791804" target="_top" xlink:title="viewPackage.DisplayGrid.setFill">
<polygon fill="white" stroke="black" points="626.5,-0.5 626.5,-19.5 789.5,-19.5 789.5,-0.5 626.5,-0.5"/>
<text text-anchor="middle" x="708" y="-7.5" font-family="Helvetica,sans-Serif" font-size="10.00">viewPackage.DisplayGrid.setFill</text>
</a>
</g>
</g>
<!-- Node17&#45;&gt;Node19 -->
<g id="edge25" class="edge"><title>Node17&#45;&gt;Node19</title>
<path fill="none" stroke="midnightblue" d="M533.171,-44.4527C567.207,-37.7066 612.996,-28.6313 649.035,-21.4886"/>
<polygon fill="midnightblue" stroke="midnightblue" points="649.795,-24.9062 658.923,-19.5287 648.434,-18.0397 649.795,-24.9062"/>
</g>
<!-- Node21 -->
<g id="node21" class="node"><title>Node21</title>
<g id="a_node21"><a xlink:href="../../d2/d2c/classcontroller_1_1_view_packager.html#a111fe52ef72753012062470020a0e152" target="_top" xlink:title="controller.ViewPackager.get\lStateTotals">
<polygon fill="white" stroke="black" points="634.5,-137 634.5,-167 781.5,-167 781.5,-137 634.5,-137"/>
<text text-anchor="start" x="642.5" y="-155" font-family="Helvetica,sans-Serif" font-size="10.00">controller.ViewPackager.get</text>
<text text-anchor="middle" x="708" y="-144" font-family="Helvetica,sans-Serif" font-size="10.00">StateTotals</text>
</a>
</g>
</g>
<!-- Node20&#45;&gt;Node21 -->
<g id="edge27" class="edge"><title>Node20&#45;&gt;Node21</title>
<path fill="none" stroke="midnightblue" d="M582.049,-152C595.996,-152 610.24,-152 623.884,-152"/>
<polygon fill="midnightblue" stroke="midnightblue" points="624.185,-155.5 634.185,-152 624.185,-148.5 624.185,-155.5"/>
</g>
<!-- Node22 -->
<g id="node22" class="node"><title>Node22</title>
<g id="a_node22"><a xlink:href="../../d1/d10/classview_package_1_1_population_graph.html#a3cb5ab88b681f1415029a3ef5b675588" target="_top" xlink:title="viewPackage.PopulationGraph.add\lToList">
<polygon fill="white" stroke="black" points="618,-88 618,-118 798,-118 798,-88 618,-88"/>
<text text-anchor="start" x="626" y="-106" font-family="Helvetica,sans-Serif" font-size="10.00">viewPackage.PopulationGraph.add</text>
<text text-anchor="middle" x="708" y="-95" font-family="Helvetica,sans-Serif" font-size="10.00">ToList</text>
</a>
</g>
</g>
<!-- Node20&#45;&gt;Node22 -->
<g id="edge28" class="edge"><title>Node20&#45;&gt;Node22</title>
<path fill="none" stroke="midnightblue" d="M553.116,-136.965C577.089,-131.674 604.215,-125.687 628.943,-120.229"/>
<polygon fill="midnightblue" stroke="midnightblue" points="630.002,-123.579 639.013,-118.006 628.493,-116.744 630.002,-123.579"/>
</g>
<!-- Node23 -->
<g id="node23" class="node"><title>Node23</title>
<g id="a_node23"><a xlink:href="../../d1/dbf/classview_package_1_1_view.html#aea085ebbf6e586d637710ff0d8ba71bf" target="_top" xlink:title="viewPackage.View.getGeneration">
<polygon fill="white" stroke="black" points="621.5,-186.5 621.5,-205.5 794.5,-205.5 794.5,-186.5 621.5,-186.5"/>
<text text-anchor="middle" x="708" y="-193.5" font-family="Helvetica,sans-Serif" font-size="10.00">viewPackage.View.getGeneration</text>
</a>
</g>
</g>
<!-- Node20&#45;&gt;Node23 -->
<g id="edge29" class="edge"><title>Node20&#45;&gt;Node23</title>
<path fill="none" stroke="midnightblue" d="M560.779,-167.019C589.626,-172.737 622.014,-179.156 648.962,-184.497"/>
<polygon fill="midnightblue" stroke="midnightblue" points="648.516,-187.977 659.006,-186.488 649.877,-181.11 648.516,-187.977"/>
</g>
</g>
</svg>
        <g id="navigator" transform="translate(0 0)" fill="#404254">
                <rect fill="#f2f5e9" fill-opacity="0.5" stroke="#606060" stroke-width=".5" x="0" y="0" width="60" height="60"/>
                <use id="zoomplus" xlink:href="#zoomPlus" x="17" y="9" onmousedown="handleZoom(evt,'in')"/>
                <use id="zoomminus" xlink:href="#zoomMin" x="42" y="9" onmousedown="handleZoom(evt,'out')"/>
                <use id="reset" xlink:href="#resetDef" x="30" y="36" onmousedown="handleReset()"/>
                <g id="arrowUp" xlink:href="#dirArrow" transform="translate(30 24)" onmousedown="handlePan(0,-1)">
                  <use xlink:href="#rim" fill="#404040">
                        <set attributeName="fill" to="#808080" begin="arrowUp.mouseover" end="arrowUp.mouseout"/>
                  </use>
                  <path fill="none" stroke="white" stroke-width="1.5" d="M0,-3.0v7 M-2.5,-0.5L0,-3.0L2.5,-0.5"/>
                </g>
                <g id="arrowRight" xlink:href="#dirArrow" transform="rotate(90) translate(36 -43)" onmousedown="handlePan(1,0)">
                  <use xlink:href="#rim" fill="#404040">
                        <set attributeName="fill" to="#808080" begin="arrowRight.mouseover" end="arrowRight.mouseout"/>
                  </use>
                  <path fill="none" stroke="white" stroke-width="1.5" d="M0,-3.0v7 M-2.5,-0.5L0,-3.0L2.5,-0.5"/>
                </g>
                <g id="arrowDown" xlink:href="#dirArrow" transform="rotate(180) translate(-30 -48)" onmousedown="handlePan(0,1)">
                  <use xlink:href="#rim" fill="#404040">
                        <set attributeName="fill" to="#808080" begin="arrowDown.mouseover" end="arrowDown.mouseout"/>
                  </use>
                  <path fill="none" stroke="white" stroke-width="1.5" d="M0,-3.0v7 M-2.5,-0.5L0,-3.0L2.5,-0.5"/>
                </g>
                <g id="arrowLeft" xlink:href="#dirArrow" transform="rotate(270) translate(-36 17)" onmousedown="handlePan(-1,0)">
                  <use xlink:href="#rim" fill="#404040">
                        <set attributeName="fill" to="#808080" begin="arrowLeft.mouseover" end="arrowLeft.mouseout"/>
                  </use>
                  <path fill="none" stroke="white" stroke-width="1.5" d="M0,-3.0v7 M-2.5,-0.5L0,-3.0L2.5,-0.5"/>
                </g>
        </g>
        <svg viewBox="0 0 15 15" width="100%" height="30px" preserveAspectRatio="xMaxYMin meet">
         <g id="arrow_out" transform="scale(0.3 0.3)">
          <a xlink:href="classcontroller_1_1_controller_aa8fee9e96592dabbb151850b562d9ec0_cgraph_org.svg" target="_base">
           <rect id="button" ry="5" rx="5" y="6" x="6" height="38" width="38"
                fill="#f2f5e9" fill-opacity="0.5" stroke="#606060" stroke-width="1.0"/>
           <path id="arrow"
             d="M 11.500037,31.436501 C 11.940474,20.09759 22.043105,11.32322 32.158766,21.979434 L 37.068811,17.246167 C 37.068811,17.246167 37.088388,32 37.088388,32 L 22.160133,31.978069 C 22.160133,31.978069 26.997745,27.140456 26.997745,27.140456 C 18.528582,18.264221 13.291696,25.230495 11.500037,31.436501 z"
             style="fill:#404040;"/>
          </a>
         </g>
        </svg>
</svg>
