<?xml version="1.0" encoding="UTF-8" standalone="no"?>
<!DOCTYPE svg PUBLIC "-//W3C//DTD SVG 1.1//EN"
 "http://www.w3.org/Graphics/SVG/1.1/DTD/svg11.dtd">
<!-- Generated by graphviz version 2.36.0 (20140111.2315)
 -->
<!-- Title: controller.Controller.changeSpeed Pages: 1 -->
<svg width="1158pt" height="493pt"
 viewBox="0.00 0.00 1158.00 493.00" xmlns="http://www.w3.org/2000/svg" xmlns:xlink="http://www.w3.org/1999/xlink">
<g id="graph0" class="graph" transform="scale(1 1) rotate(0) translate(4 489)">
<title>controller.Controller.changeSpeed</title>
<polygon fill="white" stroke="none" points="-4,4 -4,-489 1154,-489 1154,4 -4,4"/>
<!-- Node1 -->
<g id="node1" class="node"><title>Node1</title>
<polygon fill="#bfbfbf" stroke="black" points="0,-235 0,-265 148,-265 148,-235 0,-235"/>
<text text-anchor="start" x="8" y="-253" font-family="Helvetica,sans-Serif" font-size="10.00">controller.Controller.change</text>
<text text-anchor="middle" x="74" y="-242" font-family="Helvetica,sans-Serif" font-size="10.00">Speed</text>
</g>
<!-- Node2 -->
<g id="node2" class="node"><title>Node2</title>
<g id="a_node2"><a xlink:href="../../d9/df7/classcontroller_1_1_controller.html#ae859ed2fba4e22871428ec51f7d4c07d" target="_top" xlink:title="controller.Controller.play\lSimulation">
<polygon fill="white" stroke="black" points="184,-235 184,-265 316,-265 316,-235 184,-235"/>
<text text-anchor="start" x="192" y="-253" font-family="Helvetica,sans-Serif" font-size="10.00">controller.Controller.play</text>
<text text-anchor="middle" x="250" y="-242" font-family="Helvetica,sans-Serif" font-size="10.00">Simulation</text>
</a>
</g>
</g>
<!-- Node1&#45;&gt;Node2 -->
<g id="edge1" class="edge"><title>Node1&#45;&gt;Node2</title>
<path fill="none" stroke="midnightblue" d="M148.035,-250C156.499,-250 165.143,-250 173.636,-250"/>
<polygon fill="midnightblue" stroke="midnightblue" points="173.9,-253.5 183.899,-250 173.899,-246.5 173.9,-253.5"/>
</g>
<!-- Node3 -->
<g id="node3" class="node"><title>Node3</title>
<g id="a_node3"><a xlink:href="../../d9/df7/classcontroller_1_1_controller.html#aa8fee9e96592dabbb151850b562d9ec0" target="_top" xlink:title="controller.Controller.step\lSimulation">
<polygon fill="white" stroke="black" points="352,-235 352,-265 486,-265 486,-235 352,-235"/>
<text text-anchor="start" x="360" y="-253" font-family="Helvetica,sans-Serif" font-size="10.00">controller.Controller.step</text>
<text text-anchor="middle" x="419" y="-242" font-family="Helvetica,sans-Serif" font-size="10.00">Simulation</text>
</a>
</g>
</g>
<!-- Node2&#45;&gt;Node3 -->
<g id="edge2" class="edge"><title>Node2&#45;&gt;Node3</title>
<path fill="none" stroke="midnightblue" d="M316.045,-250C324.47,-250 333.16,-250 341.747,-250"/>
<polygon fill="midnightblue" stroke="midnightblue" points="341.757,-253.5 351.757,-250 341.757,-246.5 341.757,-253.5"/>
</g>
<!-- Node4 -->
<g id="node4" class="node"><title>Node4</title>
<g id="a_node4"><a xlink:href="../../d2/d17/classmodel_1_1_simulation.html#a4fc716803ab2e78743a529a24a8c601f" target="_top" xlink:title="model.Simulation.makeNextGrid">
<polygon fill="white" stroke="black" points="749.5,-380.5 749.5,-399.5 922.5,-399.5 922.5,-380.5 749.5,-380.5"/>
<text text-anchor="middle" x="836" y="-387.5" font-family="Helvetica,sans-Serif" font-size="10.00">model.Simulation.makeNextGrid</text>
</a>
</g>
</g>
<!-- Node3&#45;&gt;Node4 -->
<g id="edge3" class="edge"><title>Node3&#45;&gt;Node4</title>
<path fill="none" stroke="midnightblue" d="M451.376,-265.068C471.384,-274.447 497.977,-286.492 522,-296 616.356,-333.344 640.11,-343.256 738,-370 749.097,-373.032 761.018,-375.845 772.576,-378.346"/>
<polygon fill="midnightblue" stroke="midnightblue" points="772.102,-381.823 782.609,-380.462 773.546,-374.974 772.102,-381.823"/>
</g>
<!-- Node11 -->
<g id="node11" class="node"><title>Node11</title>
<g id="a_node11"><a xlink:href="../../d2/d17/classmodel_1_1_simulation.html#abed35864045d807fe4a577bbe02b996e" target="_top" xlink:title="model.Simulation.updateGrid">
<polygon fill="white" stroke="black" points="533.5,-218.5 533.5,-237.5 690.5,-237.5 690.5,-218.5 533.5,-218.5"/>
<text text-anchor="middle" x="612" y="-225.5" font-family="Helvetica,sans-Serif" font-size="10.00">model.Simulation.updateGrid</text>
</a>
</g>
</g>
<!-- Node3&#45;&gt;Node11 -->
<g id="edge10" class="edge"><title>Node3&#45;&gt;Node11</title>
<path fill="none" stroke="midnightblue" d="M486.266,-242.367C498.254,-240.986 510.921,-239.527 523.408,-238.089"/>
<polygon fill="midnightblue" stroke="midnightblue" points="523.832,-241.564 533.366,-236.942 523.031,-234.61 523.832,-241.564"/>
</g>
<!-- Node12 -->
<g id="node12" class="node"><title>Node12</title>
<g id="a_node12"><a xlink:href="../../d1/dbf/classview_package_1_1_view.html#a7793d78c89cc38648fc57d4ee46a0837" target="_top" xlink:title="viewPackage.View.updateGridView">
<polygon fill="white" stroke="black" points="522.5,-140.5 522.5,-159.5 701.5,-159.5 701.5,-140.5 522.5,-140.5"/>
<text text-anchor="middle" x="612" y="-147.5" font-family="Helvetica,sans-Serif" font-size="10.00">viewPackage.View.updateGridView</text>
</a>
</g>
</g>
<!-- Node3&#45;&gt;Node12 -->
<g id="edge11" class="edge"><title>Node3&#45;&gt;Node12</title>
<path fill="none" stroke="midnightblue" d="M449.009,-234.812C485.604,-215.653 548.058,-182.954 583.784,-164.249"/>
<polygon fill="midnightblue" stroke="midnightblue" points="585.448,-167.329 592.683,-159.59 582.201,-161.127 585.448,-167.329"/>
</g>
<!-- Node20 -->
<g id="node20" class="node"><title>Node20</title>
<g id="a_node20"><a xlink:href="../../d9/df7/classcontroller_1_1_controller.html#af87c08769a85e54ca1d5c688b82b11f6" target="_top" xlink:title="controller.Controller.bundle\lViewPackager">
<polygon fill="white" stroke="black" points="539.5,-257 539.5,-287 684.5,-287 684.5,-257 539.5,-257"/>
<text text-anchor="start" x="547.5" y="-275" font-family="Helvetica,sans-Serif" font-size="10.00">controller.Controller.bundle</text>
<text text-anchor="middle" x="612" y="-264" font-family="Helvetica,sans-Serif" font-size="10.00">ViewPackager</text>
</a>
</g>
</g>
<!-- Node3&#45;&gt;Node20 -->
<g id="edge19" class="edge"><title>Node3&#45;&gt;Node20</title>
<path fill="none" stroke="midnightblue" d="M486.266,-257.633C500.052,-259.221 514.737,-260.912 529.011,-262.556"/>
<polygon fill="midnightblue" stroke="midnightblue" points="528.978,-266.076 539.313,-263.743 529.779,-259.121 528.978,-266.076"/>
</g>
<!-- Node5 -->
<g id="node5" class="node"><title>Node5</title>
<g id="a_node5"><a xlink:href="../../dc/d8f/classmodel_1_1_grid.html#a994d6c682166c2599924fba6a64db842" target="_top" xlink:title="model.Grid.copyGrid">
<polygon fill="white" stroke="black" points="1003,-465.5 1003,-484.5 1117,-484.5 1117,-465.5 1003,-465.5"/>
<text text-anchor="middle" x="1060" y="-472.5" font-family="Helvetica,sans-Serif" font-size="10.00">model.Grid.copyGrid</text>
</a>
</g>
</g>
<!-- Node4&#45;&gt;Node5 -->
<g id="edge4" class="edge"><title>Node4&#45;&gt;Node5</title>
<path fill="none" stroke="midnightblue" d="M853.666,-399.731C878.332,-413.762 926.354,-439.668 970,-455 978.668,-458.045 987.979,-460.737 997.195,-463.08"/>
<polygon fill="midnightblue" stroke="midnightblue" points="996.581,-466.532 1007.12,-465.485 998.229,-459.729 996.581,-466.532"/>
</g>
<!-- Node6 -->
<g id="node6" class="node"><title>Node6</title>
<g id="a_node6"><a xlink:href="../../dc/d8f/classmodel_1_1_grid.html#a40adce87c26a3a6830125324ae576c34" target="_top" xlink:title="model.Grid.getGridRowSize">
<polygon fill="white" stroke="black" points="987,-339.5 987,-358.5 1133,-358.5 1133,-339.5 987,-339.5"/>
<text text-anchor="middle" x="1060" y="-346.5" font-family="Helvetica,sans-Serif" font-size="10.00">model.Grid.getGridRowSize</text>
</a>
</g>
</g>
<!-- Node4&#45;&gt;Node6 -->
<g id="edge5" class="edge"><title>Node4&#45;&gt;Node6</title>
<path fill="none" stroke="midnightblue" d="M888.489,-380.491C921.015,-374.484 963.22,-366.689 997.502,-360.358"/>
<polygon fill="midnightblue" stroke="midnightblue" points="998.208,-363.787 1007.41,-358.529 996.937,-356.903 998.208,-363.787"/>
</g>
<!-- Node7 -->
<g id="node7" class="node"><title>Node7</title>
<g id="a_node7"><a xlink:href="../../dc/d8f/classmodel_1_1_grid.html#a01924b6019a14826898f281a3064b3b5" target="_top" xlink:title="model.Grid.getGridColSize">
<polygon fill="white" stroke="black" points="988.5,-301.5 988.5,-320.5 1131.5,-320.5 1131.5,-301.5 988.5,-301.5"/>
<text text-anchor="middle" x="1060" y="-308.5" font-family="Helvetica,sans-Serif" font-size="10.00">model.Grid.getGridColSize</text>
</a>
</g>
</g>
<!-- Node4&#45;&gt;Node7 -->
<g id="edge6" class="edge"><title>Node4&#45;&gt;Node7</title>
<path fill="none" stroke="midnightblue" d="M909.35,-380.457C917.967,-377.78 926.393,-374.362 934,-370 954.748,-358.102 949.293,-341.97 970,-330 973.875,-327.76 977.982,-325.783 982.222,-324.038"/>
<polygon fill="midnightblue" stroke="midnightblue" points="983.492,-327.301 991.68,-320.578 981.087,-320.727 983.492,-327.301"/>
</g>
<!-- Node8 -->
<g id="node8" class="node"><title>Node8</title>
<g id="a_node8"><a xlink:href="../../d2/d17/classmodel_1_1_simulation.html#ab1da5698abc45e35e163f783fa393f8d" target="_top" xlink:title="model.Simulation.calculate\lNewCellState">
<polygon fill="white" stroke="black" points="987,-416 987,-446 1133,-446 1133,-416 987,-416"/>
<text text-anchor="start" x="995" y="-434" font-family="Helvetica,sans-Serif" font-size="10.00">model.Simulation.calculate</text>
<text text-anchor="middle" x="1060" y="-423" font-family="Helvetica,sans-Serif" font-size="10.00">NewCellState</text>
</a>
</g>
</g>
<!-- Node4&#45;&gt;Node8 -->
<g id="edge7" class="edge"><title>Node4&#45;&gt;Node8</title>
<path fill="none" stroke="midnightblue" d="M888.489,-399.509C914.727,-404.355 947.264,-410.364 976.859,-415.83"/>
<polygon fill="midnightblue" stroke="midnightblue" points="976.3,-419.286 986.77,-417.66 977.572,-412.402 976.3,-419.286"/>
</g>
<!-- Node9 -->
<g id="node9" class="node"><title>Node9</title>
<g id="a_node9"><a xlink:href="../../dc/d8f/classmodel_1_1_grid.html#a7308e05b94f35a2f8198f314eb384267" target="_top" xlink:title="model.Grid.getCell">
<polygon fill="white" stroke="black" points="1007.5,-263.5 1007.5,-282.5 1112.5,-282.5 1112.5,-263.5 1007.5,-263.5"/>
<text text-anchor="middle" x="1060" y="-270.5" font-family="Helvetica,sans-Serif" font-size="10.00">model.Grid.getCell</text>
</a>
</g>
</g>
<!-- Node4&#45;&gt;Node9 -->
<g id="edge8" class="edge"><title>Node4&#45;&gt;Node9</title>
<path fill="none" stroke="midnightblue" d="M916.13,-380.444C922.541,-377.703 928.613,-374.276 934,-370 963.907,-346.264 940.177,-315.84 970,-292 977.96,-285.637 987.559,-281.274 997.465,-278.308"/>
<polygon fill="midnightblue" stroke="midnightblue" points="998.591,-281.633 1007.42,-275.784 996.871,-274.848 998.591,-281.633"/>
</g>
<!-- Node10 -->
<g id="node10" class="node"><title>Node10</title>
<g id="a_node10"><a xlink:href="../../d3/d57/classmodel_1_1_cell.html#afba3057d5fff58793cb8118915f47e2a" target="_top" xlink:title="model.Cell.setState">
<polygon fill="white" stroke="black" points="1004.5,-377.5 1004.5,-396.5 1115.5,-396.5 1115.5,-377.5 1004.5,-377.5"/>
<text text-anchor="middle" x="1060" y="-384.5" font-family="Helvetica,sans-Serif" font-size="10.00">model.Cell.setState</text>
</a>
</g>
</g>
<!-- Node4&#45;&gt;Node10 -->
<g id="edge9" class="edge"><title>Node4&#45;&gt;Node10</title>
<path fill="none" stroke="midnightblue" d="M922.513,-388.844C946.346,-388.522 971.836,-388.178 994.258,-387.875"/>
<polygon fill="midnightblue" stroke="midnightblue" points="994.376,-391.374 1004.33,-387.739 994.281,-384.374 994.376,-391.374"/>
</g>
<!-- Node13 -->
<g id="node13" class="node"><title>Node13</title>
<g id="a_node13"><a xlink:href="../../df/dcf/classview_package_1_1_display_grid.html#a1a0aa454acaa29992ff9c716d38ec396" target="_top" xlink:title="viewPackage.DisplayGrid.updateGrid">
<polygon fill="white" stroke="black" points="741,-44.5 741,-63.5 931,-63.5 931,-44.5 741,-44.5"/>
<text text-anchor="middle" x="836" y="-51.5" font-family="Helvetica,sans-Serif" font-size="10.00">viewPackage.DisplayGrid.updateGrid</text>
</a>
</g>
</g>
<!-- Node12&#45;&gt;Node13 -->
<g id="edge12" class="edge"><title>Node12&#45;&gt;Node13</title>
<path fill="none" stroke="midnightblue" d="M635.098,-140.444C674.742,-123.301 758.049,-87.2762 803.605,-67.5761"/>
<polygon fill="midnightblue" stroke="midnightblue" points="805.202,-70.6988 812.992,-63.5172 802.424,-64.2738 805.202,-70.6988"/>
</g>
<!-- Node16 -->
<g id="node16" class="node"><title>Node16</title>
<g id="a_node16"><a xlink:href="../../d1/d10/classview_package_1_1_population_graph.html#a821b7af856b69286ee399d9db8c65a71" target="_top" xlink:title="viewPackage.PopulationGraph.update\lGraph">
<polygon fill="white" stroke="black" points="738,-135 738,-165 934,-165 934,-135 738,-135"/>
<text text-anchor="start" x="746" y="-153" font-family="Helvetica,sans-Serif" font-size="10.00">viewPackage.PopulationGraph.update</text>
<text text-anchor="middle" x="836" y="-142" font-family="Helvetica,sans-Serif" font-size="10.00">Graph</text>
</a>
</g>
</g>
<!-- Node12&#45;&gt;Node16 -->
<g id="edge15" class="edge"><title>Node12&#45;&gt;Node16</title>
<path fill="none" stroke="midnightblue" d="M701.697,-150C710.204,-150 718.894,-150 727.554,-150"/>
<polygon fill="midnightblue" stroke="midnightblue" points="727.694,-153.5 737.694,-150 727.694,-146.5 727.694,-153.5"/>
</g>
<!-- Node14 -->
<g id="node14" class="node"><title>Node14</title>
<g id="a_node14"><a xlink:href="../../d2/d2c/classcontroller_1_1_view_packager.html#a1e8974daf2095f568a390c63173683c7" target="_top" xlink:title="controller.ViewPackager.get\lColorGrid">
<polygon fill="white" stroke="black" points="986.5,-39 986.5,-69 1133.5,-69 1133.5,-39 986.5,-39"/>
<text text-anchor="start" x="994.5" y="-57" font-family="Helvetica,sans-Serif" font-size="10.00">controller.ViewPackager.get</text>
<text text-anchor="middle" x="1060" y="-46" font-family="Helvetica,sans-Serif" font-size="10.00">ColorGrid</text>
</a>
</g>
</g>
<!-- Node13&#45;&gt;Node14 -->
<g id="edge13" class="edge"><title>Node13&#45;&gt;Node14</title>
<path fill="none" stroke="midnightblue" d="M931.148,-54C946.127,-54 961.525,-54 976.216,-54"/>
<polygon fill="midnightblue" stroke="midnightblue" points="976.261,-57.5001 986.261,-54 976.261,-50.5001 976.261,-57.5001"/>
</g>
<!-- Node15 -->
<g id="node15" class="node"><title>Node15</title>
<g id="a_node15"><a xlink:href="../../df/dcf/classview_package_1_1_display_grid.html#abcfcacf1767533f216fca38abf791804" target="_top" xlink:title="viewPackage.DisplayGrid.setFill">
<polygon fill="white" stroke="black" points="978.5,-0.5 978.5,-19.5 1141.5,-19.5 1141.5,-0.5 978.5,-0.5"/>
<text text-anchor="middle" x="1060" y="-7.5" font-family="Helvetica,sans-Serif" font-size="10.00">viewPackage.DisplayGrid.setFill</text>
</a>
</g>
</g>
<!-- Node13&#45;&gt;Node15 -->
<g id="edge14" class="edge"><title>Node13&#45;&gt;Node15</title>
<path fill="none" stroke="midnightblue" d="M885.171,-44.4527C919.207,-37.7066 964.996,-28.6313 1001.04,-21.4886"/>
<polygon fill="midnightblue" stroke="midnightblue" points="1001.79,-24.9062 1010.92,-19.5287 1000.43,-18.0397 1001.79,-24.9062"/>
</g>
<!-- Node17 -->
<g id="node17" class="node"><title>Node17</title>
<g id="a_node17"><a xlink:href="../../d2/d2c/classcontroller_1_1_view_packager.html#a111fe52ef72753012062470020a0e152" target="_top" xlink:title="controller.ViewPackager.get\lStateTotals">
<polygon fill="white" stroke="black" points="986.5,-137 986.5,-167 1133.5,-167 1133.5,-137 986.5,-137"/>
<text text-anchor="start" x="994.5" y="-155" font-family="Helvetica,sans-Serif" font-size="10.00">controller.ViewPackager.get</text>
<text text-anchor="middle" x="1060" y="-144" font-family="Helvetica,sans-Serif" font-size="10.00">StateTotals</text>
</a>
</g>
</g>
<!-- Node16&#45;&gt;Node17 -->
<g id="edge16" class="edge"><title>Node16&#45;&gt;Node17</title>
<path fill="none" stroke="midnightblue" d="M934.049,-150.874C947.996,-151 962.24,-151.128 975.884,-151.251"/>
<polygon fill="midnightblue" stroke="midnightblue" points="976.154,-154.754 986.185,-151.344 976.217,-147.754 976.154,-154.754"/>
</g>
<!-- Node18 -->
<g id="node18" class="node"><title>Node18</title>
<g id="a_node18"><a xlink:href="../../d1/d10/classview_package_1_1_population_graph.html#a3cb5ab88b681f1415029a3ef5b675588" target="_top" xlink:title="viewPackage.PopulationGraph.add\lToList">
<polygon fill="white" stroke="black" points="970,-88 970,-118 1150,-118 1150,-88 970,-88"/>
<text text-anchor="start" x="978" y="-106" font-family="Helvetica,sans-Serif" font-size="10.00">viewPackage.PopulationGraph.add</text>
<text text-anchor="middle" x="1060" y="-95" font-family="Helvetica,sans-Serif" font-size="10.00">ToList</text>
</a>
</g>
</g>
<!-- Node16&#45;&gt;Node18 -->
<g id="edge17" class="edge"><title>Node16&#45;&gt;Node18</title>
<path fill="none" stroke="midnightblue" d="M907.853,-135C930.181,-130.272 955.014,-125.015 977.994,-120.15"/>
<polygon fill="midnightblue" stroke="midnightblue" points="979.001,-123.514 988.059,-118.019 977.551,-116.666 979.001,-123.514"/>
</g>
<!-- Node19 -->
<g id="node19" class="node"><title>Node19</title>
<g id="a_node19"><a xlink:href="../../d1/dbf/classview_package_1_1_view.html#aea085ebbf6e586d637710ff0d8ba71bf" target="_top" xlink:title="viewPackage.View.getGeneration">
<polygon fill="white" stroke="black" points="973.5,-186.5 973.5,-205.5 1146.5,-205.5 1146.5,-186.5 973.5,-186.5"/>
<text text-anchor="middle" x="1060" y="-193.5" font-family="Helvetica,sans-Serif" font-size="10.00">viewPackage.View.getGeneration</text>
</a>
</g>
</g>
<!-- Node16&#45;&gt;Node19 -->
<g id="edge18" class="edge"><title>Node16&#45;&gt;Node19</title>
<path fill="none" stroke="midnightblue" d="M909.691,-165.062C939.987,-171.34 974.622,-178.516 1002.9,-184.376"/>
<polygon fill="midnightblue" stroke="midnightblue" points="1002.51,-187.87 1013.01,-186.471 1003.93,-181.015 1002.51,-187.87"/>
</g>
<!-- Node21 -->
<g id="node21" class="node"><title>Node21</title>
<g id="a_node21"><a xlink:href="../../d9/df7/classcontroller_1_1_controller.html#ae43191a1fc7db5c1cb03da2a8a580541" target="_top" xlink:title="controller.Controller.create\lColorGrid">
<polygon fill="white" stroke="black" points="764.5,-233 764.5,-263 907.5,-263 907.5,-233 764.5,-233"/>
<text text-anchor="start" x="772.5" y="-251" font-family="Helvetica,sans-Serif" font-size="10.00">controller.Controller.create</text>
<text text-anchor="middle" x="836" y="-240" font-family="Helvetica,sans-Serif" font-size="10.00">ColorGrid</text>
</a>
</g>
</g>
<!-- Node20&#45;&gt;Node21 -->
<g id="edge20" class="edge"><title>Node20&#45;&gt;Node21</title>
<path fill="none" stroke="midnightblue" d="M684.77,-264.241C706.951,-261.843 731.53,-259.186 754.273,-256.727"/>
<polygon fill="midnightblue" stroke="midnightblue" points="754.669,-260.205 764.235,-255.65 753.917,-253.245 754.669,-260.205"/>
</g>
<!-- Node23 -->
<g id="node23" class="node"><title>Node23</title>
<g id="a_node23"><a xlink:href="../../d2/d2c/classcontroller_1_1_view_packager.html#a637ec76985be3af6c2b14a527e1c1bac" target="_top" xlink:title="controller.ViewPackager.set\lColorGrid">
<polygon fill="white" stroke="black" points="763,-184 763,-214 909,-214 909,-184 763,-184"/>
<text text-anchor="start" x="771" y="-202" font-family="Helvetica,sans-Serif" font-size="10.00">controller.ViewPackager.set</text>
<text text-anchor="middle" x="836" y="-191" font-family="Helvetica,sans-Serif" font-size="10.00">ColorGrid</text>
</a>
</g>
</g>
<!-- Node20&#45;&gt;Node23 -->
<g id="edge25" class="edge"><title>Node20&#45;&gt;Node23</title>
<path fill="none" stroke="midnightblue" d="M676.134,-256.94C684.982,-254.062 693.834,-250.754 702,-247 719.472,-238.968 720.405,-230.758 738,-223 742.911,-220.835 748.051,-218.842 753.294,-217.012"/>
<polygon fill="midnightblue" stroke="midnightblue" points="754.402,-220.333 762.815,-213.892 752.222,-213.681 754.402,-220.333"/>
</g>
<!-- Node24 -->
<g id="node24" class="node"><title>Node24</title>
<g id="a_node24"><a xlink:href="../../d2/d2c/classcontroller_1_1_view_packager.html#a8a82603c0efc9d0197a0c027030f4993" target="_top" xlink:title="controller.ViewPackager.set\lStateTotalMap">
<polygon fill="white" stroke="black" points="763,-331 763,-361 909,-361 909,-331 763,-331"/>
<text text-anchor="start" x="771" y="-349" font-family="Helvetica,sans-Serif" font-size="10.00">controller.ViewPackager.set</text>
<text text-anchor="middle" x="836" y="-338" font-family="Helvetica,sans-Serif" font-size="10.00">StateTotalMap</text>
</a>
</g>
</g>
<!-- Node20&#45;&gt;Node24 -->
<g id="edge26" class="edge"><title>Node20&#45;&gt;Node24</title>
<path fill="none" stroke="midnightblue" d="M648.146,-287.1C672.971,-297.437 707.174,-311.026 738,-321 745.849,-323.54 754.12,-325.996 762.387,-328.314"/>
<polygon fill="midnightblue" stroke="midnightblue" points="761.494,-331.698 772.064,-330.967 763.345,-324.947 761.494,-331.698"/>
</g>
<!-- Node25 -->
<g id="node25" class="node"><title>Node25</title>
<g id="a_node25"><a xlink:href="../../d9/df7/classcontroller_1_1_controller.html#aca48bc84d82655ce699963fd859afebd" target="_top" xlink:title="controller.Controller.update\lStateTotals">
<polygon fill="white" stroke="black" points="763,-282 763,-312 909,-312 909,-282 763,-282"/>
<text text-anchor="start" x="771" y="-300" font-family="Helvetica,sans-Serif" font-size="10.00">controller.Controller.update</text>
<text text-anchor="middle" x="836" y="-289" font-family="Helvetica,sans-Serif" font-size="10.00">StateTotals</text>
</a>
</g>
</g>
<!-- Node20&#45;&gt;Node25 -->
<g id="edge27" class="edge"><title>Node20&#45;&gt;Node25</title>
<path fill="none" stroke="midnightblue" d="M684.77,-280.082C706.412,-282.519 730.337,-285.214 752.612,-287.722"/>
<polygon fill="midnightblue" stroke="midnightblue" points="752.387,-291.219 762.716,-288.86 753.171,-284.263 752.387,-291.219"/>
</g>
<!-- Node21&#45;&gt;Node6 -->
<g id="edge21" class="edge"><title>Node21&#45;&gt;Node6</title>
<path fill="none" stroke="midnightblue" d="M907.721,-258.593C917.083,-261.922 926.144,-266.285 934,-272 958.534,-289.848 945.181,-312.549 970,-330 972.714,-331.908 975.582,-333.631 978.56,-335.187"/>
<polygon fill="midnightblue" stroke="midnightblue" points="977.228,-338.426 987.78,-339.368 980.118,-332.051 977.228,-338.426"/>
</g>
<!-- Node21&#45;&gt;Node7 -->
<g id="edge22" class="edge"><title>Node21&#45;&gt;Node7</title>
<path fill="none" stroke="midnightblue" d="M907.368,-263.065C916.446,-265.689 925.525,-268.666 934,-272 951.033,-278.701 952.862,-285.574 970,-292 976.995,-294.623 984.442,-296.925 991.935,-298.935"/>
<polygon fill="midnightblue" stroke="midnightblue" points="991.227,-302.366 1001.78,-301.412 992.935,-295.577 991.227,-302.366"/>
</g>
<!-- Node21&#45;&gt;Node9 -->
<g id="edge23" class="edge"><title>Node21&#45;&gt;Node9</title>
<path fill="none" stroke="midnightblue" d="M907.547,-255.945C936.382,-259.192 969.435,-262.914 997.291,-266.051"/>
<polygon fill="midnightblue" stroke="midnightblue" points="996.973,-269.537 1007.3,-267.178 997.756,-262.581 996.973,-269.537"/>
</g>
<!-- Node22 -->
<g id="node22" class="node"><title>Node22</title>
<g id="a_node22"><a xlink:href="../../d3/d57/classmodel_1_1_cell.html#a527cb796745a34155e9b2a82b2a8812a" target="_top" xlink:title="model.Cell.toString">
<polygon fill="white" stroke="black" points="1006,-225.5 1006,-244.5 1114,-244.5 1114,-225.5 1006,-225.5"/>
<text text-anchor="middle" x="1060" y="-232.5" font-family="Helvetica,sans-Serif" font-size="10.00">model.Cell.toString</text>
</a>
</g>
</g>
<!-- Node21&#45;&gt;Node22 -->
<g id="edge24" class="edge"><title>Node21&#45;&gt;Node22</title>
<path fill="none" stroke="midnightblue" d="M907.547,-243.869C935.805,-242.214 968.114,-240.322 995.613,-238.712"/>
<polygon fill="midnightblue" stroke="midnightblue" points="996.121,-242.188 1005.9,-238.11 995.711,-235.2 996.121,-242.188"/>
</g>
<!-- Node25&#45;&gt;Node6 -->
<g id="edge28" class="edge"><title>Node25&#45;&gt;Node6</title>
<path fill="none" stroke="midnightblue" d="M897.804,-312.02C909.803,-314.991 922.3,-318.09 934,-321 950.005,-324.981 953.933,-326.278 970,-330 980.606,-332.457 991.95,-334.968 1002.87,-337.326"/>
<polygon fill="midnightblue" stroke="midnightblue" points="1002.23,-340.768 1012.74,-339.442 1003.7,-333.924 1002.23,-340.768"/>
</g>
<!-- Node25&#45;&gt;Node7 -->
<g id="edge29" class="edge"><title>Node25&#45;&gt;Node7</title>
<path fill="none" stroke="midnightblue" d="M909.077,-301.545C931.145,-302.937 955.563,-304.477 978.174,-305.903"/>
<polygon fill="midnightblue" stroke="midnightblue" points="978.22,-309.413 988.421,-306.549 978.661,-302.427 978.22,-309.413"/>
</g>
<!-- Node25&#45;&gt;Node9 -->
<g id="edge30" class="edge"><title>Node25&#45;&gt;Node9</title>
<path fill="none" stroke="midnightblue" d="M909.077,-289.208C937.48,-286.137 969.776,-282.646 997.1,-279.692"/>
<polygon fill="midnightblue" stroke="midnightblue" points="997.745,-283.143 1007.31,-278.588 996.993,-276.183 997.745,-283.143"/>
</g>
<!-- Node25&#45;&gt;Node22 -->
<g id="edge31" class="edge"><title>Node25&#45;&gt;Node22</title>
<path fill="none" stroke="midnightblue" d="M903.067,-281.978C913.531,-279.026 924.146,-275.686 934,-272 950.755,-265.733 953.118,-259.915 970,-254 978.234,-251.115 987.056,-248.591 995.83,-246.406"/>
<polygon fill="midnightblue" stroke="midnightblue" points="996.753,-249.785 1005.68,-244.082 995.146,-242.972 996.753,-249.785"/>
</g>
</g>
</svg>
