<?xml version="1.0" encoding="UTF-8" standalone="no"?>
<!DOCTYPE svg PUBLIC "-//W3C//DTD SVG 1.1//EN"
 "http://www.w3.org/Graphics/SVG/1.1/DTD/svg11.dtd">
<!-- Generated by graphviz version 2.36.0 (20140111.2315)
 -->
<!-- Title: controller.Controller.listToGrid Pages: 1 -->
<svg width="546pt" height="109pt"
 viewBox="0.00 0.00 546.00 109.00" xmlns="http://www.w3.org/2000/svg" xmlns:xlink="http://www.w3.org/1999/xlink">
<g id="graph0" class="graph" transform="scale(1 1) rotate(0) translate(4 105)">
<title>controller.Controller.listToGrid</title>
<polygon fill="white" stroke="none" points="-4,4 -4,-105 542,-105 542,4 -4,4"/>
<!-- Node1 -->
<g id="node1" class="node"><title>Node1</title>
<polygon fill="#bfbfbf" stroke="black" points="0,-33 0,-63 126,-63 126,-33 0,-33"/>
<text text-anchor="start" x="8" y="-51" font-family="Helvetica,sans-Serif" font-size="10.00">controller.Controller.list</text>
<text text-anchor="middle" x="63" y="-40" font-family="Helvetica,sans-Serif" font-size="10.00">ToGrid</text>
</g>
<!-- Node2 -->
<g id="node2" class="node"><title>Node2</title>
<g id="a_node2"><a xlink:href="../../d1/dbf/classview_package_1_1_view.html#a435f11370f53ac1c632490e16db58a71" target="_top" xlink:title="viewPackage.View.getEdgeType">
<polygon fill="white" stroke="black" points="177,-76.5 177,-95.5 341,-95.5 341,-76.5 177,-76.5"/>
<text text-anchor="middle" x="259" y="-83.5" font-family="Helvetica,sans-Serif" font-size="10.00">viewPackage.View.getEdgeType</text>
</a>
</g>
</g>
<!-- Node1&#45;&gt;Node2 -->
<g id="edge1" class="edge"><title>Node1&#45;&gt;Node2</title>
<path fill="none" stroke="midnightblue" d="M126.183,-60.1802C149.643,-64.7754 176.235,-69.9843 199.361,-74.5139"/>
<polygon fill="midnightblue" stroke="midnightblue" points="198.891,-77.9884 209.378,-76.476 200.237,-71.119 198.891,-77.9884"/>
</g>
<!-- Node4 -->
<g id="node4" class="node"><title>Node4</title>
<g id="a_node4"><a xlink:href="../../d9/dca/classcontroller_1_1_packager.html#a576a18a7961b8653a5679bfa8bdf9a40" target="_top" xlink:title="controller.Packager.getPropertiesMap">
<polygon fill="white" stroke="black" points="162,-38.5 162,-57.5 356,-57.5 356,-38.5 162,-38.5"/>
<text text-anchor="middle" x="259" y="-45.5" font-family="Helvetica,sans-Serif" font-size="10.00">controller.Packager.getPropertiesMap</text>
</a>
</g>
</g>
<!-- Node1&#45;&gt;Node4 -->
<g id="edge3" class="edge"><title>Node1&#45;&gt;Node4</title>
<path fill="none" stroke="midnightblue" d="M126.183,-48C134.388,-48 142.976,-48 151.665,-48"/>
<polygon fill="midnightblue" stroke="midnightblue" points="151.894,-51.5001 161.894,-48 151.894,-44.5001 151.894,-51.5001"/>
</g>
<!-- Node5 -->
<g id="node5" class="node"><title>Node5</title>
<g id="a_node5"><a xlink:href="../../dc/d8f/classmodel_1_1_grid.html#a9e11c6171839cc24ba2b1d86b185912f" target="_top" xlink:title="model.Grid.putCell">
<polygon fill="white" stroke="black" points="206.5,-0.5 206.5,-19.5 311.5,-19.5 311.5,-0.5 206.5,-0.5"/>
<text text-anchor="middle" x="259" y="-7.5" font-family="Helvetica,sans-Serif" font-size="10.00">model.Grid.putCell</text>
</a>
</g>
</g>
<!-- Node1&#45;&gt;Node5 -->
<g id="edge4" class="edge"><title>Node1&#45;&gt;Node5</title>
<path fill="none" stroke="midnightblue" d="M126.183,-35.8198C149.643,-31.2246 176.235,-26.0157 199.361,-21.4861"/>
<polygon fill="midnightblue" stroke="midnightblue" points="200.237,-24.881 209.378,-19.524 198.891,-18.0116 200.237,-24.881"/>
</g>
<!-- Node3 -->
<g id="node3" class="node"><title>Node3</title>
<g id="a_node3"><a xlink:href="../../df/d81/classview_package_1_1_toggle_box.html#a8c12b23dfa223780d246c2d1679dd592" target="_top" xlink:title="viewPackage.ToggleBox.get\lEdgeType">
<polygon fill="white" stroke="black" points="392,-71 392,-101 538,-101 538,-71 392,-71"/>
<text text-anchor="start" x="400" y="-89" font-family="Helvetica,sans-Serif" font-size="10.00">viewPackage.ToggleBox.get</text>
<text text-anchor="middle" x="465" y="-78" font-family="Helvetica,sans-Serif" font-size="10.00">EdgeType</text>
</a>
</g>
</g>
<!-- Node2&#45;&gt;Node3 -->
<g id="edge2" class="edge"><title>Node2&#45;&gt;Node3</title>
<path fill="none" stroke="midnightblue" d="M341.212,-86C354.582,-86 368.45,-86 381.842,-86"/>
<polygon fill="midnightblue" stroke="midnightblue" points="381.975,-89.5001 391.975,-86 381.975,-82.5001 381.975,-89.5001"/>
</g>
</g>
</svg>
