<?xml version="1.0" encoding="UTF-8" standalone="no"?>
<!DOCTYPE svg PUBLIC "-//W3C//DTD SVG 1.1//EN"
 "http://www.w3.org/Graphics/SVG/1.1/DTD/svg11.dtd">
<!-- Generated by graphviz version 2.36.0 (20140111.2315)
 -->
<!-- Title: viewPackage.DisplayGrid Pages: 1 -->
<svg width="1044pt" height="558pt"
 viewBox="0.00 0.00 1044.00 558.00" xmlns="http://www.w3.org/2000/svg" xmlns:xlink="http://www.w3.org/1999/xlink">
<g id="graph0" class="graph" transform="scale(1 1) rotate(0) translate(4 554)">
<title>viewPackage.DisplayGrid</title>
<polygon fill="white" stroke="none" points="-4,4 -4,-554 1040,-554 1040,4 -4,4"/>
<!-- Node1 -->
<g id="node1" class="node"><title>Node1</title>
<polygon fill="#bfbfbf" stroke="black" points="376,-275.5 376,-294.5 510,-294.5 510,-275.5 376,-275.5"/>
<text text-anchor="middle" x="443" y="-282.5" font-family="Helvetica,sans-Serif" font-size="10.00">viewPackage.DisplayGrid</text>
</g>
<!-- Node3 -->
<g id="node3" class="node"><title>Node3</title>
<g id="a_node3"><a xlink:href="../../d1/dbf/classview_package_1_1_view.html" target="_top" xlink:title="viewPackage.View">
<polygon fill="white" stroke="black" points="648.5,-311.5 648.5,-330.5 749.5,-330.5 749.5,-311.5 648.5,-311.5"/>
<text text-anchor="middle" x="699" y="-318.5" font-family="Helvetica,sans-Serif" font-size="10.00">viewPackage.View</text>
</a>
</g>
</g>
<!-- Node1&#45;&gt;Node3 -->
<g id="edge4" class="edge"><title>Node1&#45;&gt;Node3</title>
<path fill="none" stroke="#9a32cd" stroke-dasharray="5,2" d="M520.15,-295.793C561.657,-301.676 611.844,-308.789 648.308,-313.957"/>
<polygon fill="#9a32cd" stroke="#9a32cd" points="520.465,-292.303 510.072,-294.365 519.482,-299.233 520.465,-292.303"/>
<text text-anchor="middle" x="571" y="-312" font-family="Helvetica,sans-Serif" font-size="10.00"> myGridDisplayed</text>
</g>
<!-- Node2 -->
<g id="node2" class="node"><title>Node2</title>
<polygon fill="white" stroke="#bfbfbf" points="230.5,-275.5 230.5,-294.5 277.5,-294.5 277.5,-275.5 230.5,-275.5"/>
<text text-anchor="middle" x="254" y="-282.5" font-family="Helvetica,sans-Serif" font-size="10.00">Shape</text>
</g>
<!-- Node2&#45;&gt;Node1 -->
<g id="edge1" class="edge"><title>Node2&#45;&gt;Node1</title>
<path fill="none" stroke="#9a32cd" stroke-dasharray="5,2" d="M287.676,-285C312.006,-285 346.045,-285 375.966,-285"/>
<polygon fill="#9a32cd" stroke="#9a32cd" points="287.557,-281.5 277.557,-285 287.557,-288.5 287.557,-281.5"/>
<text text-anchor="middle" x="334" y="-288" font-family="Helvetica,sans-Serif" font-size="10.00"> myGrid</text>
</g>
<!-- Node3&#45;&gt;Node1 -->
<g id="edge2" class="edge"><title>Node3&#45;&gt;Node1</title>
<path fill="none" stroke="#9a32cd" stroke-dasharray="5,2" d="M678.303,-305.078C662.119,-293.082 638.024,-277.609 614,-271 567.887,-258.314 512.298,-267.206 477.542,-275.5"/>
<polygon fill="#9a32cd" stroke="#9a32cd" points="676.364,-308.002 686.43,-311.307 680.622,-302.446 676.364,-308.002"/>
<text text-anchor="middle" x="571" y="-274" font-family="Helvetica,sans-Serif" font-size="10.00"> view</text>
</g>
<!-- Node8 -->
<g id="node8" class="node"><title>Node8</title>
<g id="a_node8"><a xlink:href="../../d1/d10/classview_package_1_1_population_graph.html" target="_top" xlink:title="viewPackage.PopulationGraph">
<polygon fill="white" stroke="black" points="876.5,-430.5 876.5,-449.5 1035.5,-449.5 1035.5,-430.5 876.5,-430.5"/>
<text text-anchor="middle" x="956" y="-437.5" font-family="Helvetica,sans-Serif" font-size="10.00">viewPackage.PopulationGraph</text>
</a>
</g>
</g>
<!-- Node3&#45;&gt;Node8 -->
<g id="edge11" class="edge"><title>Node3&#45;&gt;Node8</title>
<path fill="none" stroke="#9a32cd" stroke-dasharray="5,2" d="M718.02,-337.291C734.276,-351.282 759.353,-371.169 784,-384 825.84,-405.782 877.816,-421.351 913.413,-430.459"/>
<polygon fill="#9a32cd" stroke="#9a32cd" points="720.197,-334.545 710.371,-330.581 715.58,-339.807 720.197,-334.545"/>
<text text-anchor="middle" x="821" y="-417" font-family="Helvetica,sans-Serif" font-size="10.00"> view</text>
</g>
<!-- Node12 -->
<g id="node12" class="node"><title>Node12</title>
<g id="a_node12"><a xlink:href="../../d9/df7/classcontroller_1_1_controller.html" target="_top" xlink:title="controller.Controller">
<polygon fill="white" stroke="black" points="901,-116.5 901,-135.5 1011,-135.5 1011,-116.5 901,-116.5"/>
<text text-anchor="middle" x="956" y="-123.5" font-family="Helvetica,sans-Serif" font-size="10.00">controller.Controller</text>
</a>
</g>
</g>
<!-- Node3&#45;&gt;Node12 -->
<g id="edge16" class="edge"><title>Node3&#45;&gt;Node12</title>
<path fill="none" stroke="#9a32cd" stroke-dasharray="5,2" d="M721.962,-305.104C736.035,-294.02 753.871,-278.181 766,-261 777.949,-244.075 770.079,-233.344 784,-218 822.735,-175.307 886.02,-148.6 923.774,-135.572"/>
<polygon fill="#9a32cd" stroke="#9a32cd" points="719.593,-302.51 713.77,-311.361 723.842,-308.073 719.593,-302.51"/>
<text text-anchor="middle" x="821" y="-221" font-family="Helvetica,sans-Serif" font-size="10.00"> myView</text>
</g>
<!-- Node21 -->
<g id="node21" class="node"><title>Node21</title>
<g id="a_node21"><a xlink:href="../../dc/d2c/classview_package_1_1_button_box.html" target="_top" xlink:title="viewPackage.ButtonBox">
<polygon fill="white" stroke="black" points="891,-260.5 891,-279.5 1021,-279.5 1021,-260.5 891,-260.5"/>
<text text-anchor="middle" x="956" y="-267.5" font-family="Helvetica,sans-Serif" font-size="10.00">viewPackage.ButtonBox</text>
</a>
</g>
</g>
<!-- Node3&#45;&gt;Node21 -->
<g id="edge26" class="edge"><title>Node3&#45;&gt;Node21</title>
<path fill="none" stroke="#9a32cd" stroke-dasharray="5,2" d="M760.065,-324.831C789.9,-325.294 826.263,-323.673 858,-316 888.797,-308.554 921.467,-290.712 939.941,-279.565"/>
<polygon fill="#9a32cd" stroke="#9a32cd" points="759.883,-321.326 749.803,-324.587 759.717,-328.324 759.883,-321.326"/>
<text text-anchor="middle" x="821" y="-328" font-family="Helvetica,sans-Serif" font-size="10.00"> view</text>
</g>
<!-- Node4 -->
<g id="node4" class="node"><title>Node4</title>
<polygon fill="white" stroke="#bfbfbf" points="420.5,-403.5 420.5,-422.5 465.5,-422.5 465.5,-403.5 420.5,-403.5"/>
<text text-anchor="middle" x="443" y="-410.5" font-family="Helvetica,sans-Serif" font-size="10.00">Stage</text>
</g>
<!-- Node4&#45;&gt;Node3 -->
<g id="edge3" class="edge"><title>Node4&#45;&gt;Node3</title>
<path fill="none" stroke="#9a32cd" stroke-dasharray="5,2" d="M475.877,-410.508C510.914,-406.895 568.292,-398.371 614,-379 642.881,-366.76 671.981,-343.719 687.19,-330.664"/>
<polygon fill="#9a32cd" stroke="#9a32cd" points="475.379,-407.039 465.759,-411.478 476.047,-414.007 475.379,-407.039"/>
<text text-anchor="middle" x="571" y="-406" font-family="Helvetica,sans-Serif" font-size="10.00"> additionalStage</text>
</g>
<!-- Node5 -->
<g id="node5" class="node"><title>Node5</title>
<g id="a_node5"><a xlink:href="../../df/d81/classview_package_1_1_toggle_box.html" target="_top" xlink:title="viewPackage.ToggleBox">
<polygon fill="white" stroke="black" points="379,-365.5 379,-384.5 507,-384.5 507,-365.5 379,-365.5"/>
<text text-anchor="middle" x="443" y="-372.5" font-family="Helvetica,sans-Serif" font-size="10.00">viewPackage.ToggleBox</text>
</a>
</g>
</g>
<!-- Node5&#45;&gt;Node3 -->
<g id="edge5" class="edge"><title>Node5&#45;&gt;Node3</title>
<path fill="none" stroke="#9a32cd" stroke-dasharray="5,2" d="M517.391,-365.16C547.512,-360.54 582.613,-354.405 614,-347 633.167,-342.478 654.346,-335.911 670.644,-330.509"/>
<polygon fill="#9a32cd" stroke="#9a32cd" points="516.747,-361.717 507.38,-366.668 517.79,-368.639 516.747,-361.717"/>
<text text-anchor="middle" x="571" y="-367" font-family="Helvetica,sans-Serif" font-size="10.00"> toggles</text>
</g>
<!-- Node6 -->
<g id="node6" class="node"><title>Node6</title>
<polygon fill="white" stroke="#bfbfbf" points="216,-365.5 216,-384.5 292,-384.5 292,-365.5 216,-365.5"/>
<text text-anchor="middle" x="254" y="-372.5" font-family="Helvetica,sans-Serif" font-size="10.00">ToggleGroup</text>
</g>
<!-- Node6&#45;&gt;Node5 -->
<g id="edge6" class="edge"><title>Node6&#45;&gt;Node5</title>
<path fill="none" stroke="#9a32cd" stroke-dasharray="5,2" d="M302.655,-375C325.82,-375 353.973,-375 378.894,-375"/>
<polygon fill="#9a32cd" stroke="#9a32cd" points="302.393,-371.5 292.393,-375 302.393,-378.5 302.393,-371.5"/>
<text text-anchor="middle" x="334" y="-400" font-family="Helvetica,sans-Serif" font-size="10.00"> outline</text>
<text text-anchor="middle" x="334" y="-389" font-family="Helvetica,sans-Serif" font-size="10.00">edgeType</text>
<text text-anchor="middle" x="334" y="-378" font-family="Helvetica,sans-Serif" font-size="10.00">cellShape</text>
</g>
<!-- Node7 -->
<g id="node7" class="node"><title>Node7</title>
<polygon fill="white" stroke="#bfbfbf" points="396.5,-193.5 396.5,-212.5 489.5,-212.5 489.5,-193.5 396.5,-193.5"/>
<text text-anchor="middle" x="443" y="-200.5" font-family="Helvetica,sans-Serif" font-size="10.00">ResourceBundle</text>
</g>
<!-- Node7&#45;&gt;Node3 -->
<g id="edge7" class="edge"><title>Node7&#45;&gt;Node3</title>
<path fill="none" stroke="#9a32cd" stroke-dasharray="5,2" d="M499.524,-212.048C533.889,-219.147 578.139,-231.069 614,-250 630.126,-258.513 668.948,-293.846 687.623,-311.239"/>
<polygon fill="#9a32cd" stroke="#9a32cd" points="500.145,-208.603 489.654,-210.085 498.779,-215.468 500.145,-208.603"/>
<text text-anchor="middle" x="571" y="-253" font-family="Helvetica,sans-Serif" font-size="10.00"> myResources</text>
</g>
<!-- Node7&#45;&gt;Node12 -->
<g id="edge15" class="edge"><title>Node7&#45;&gt;Node12</title>
<path fill="none" stroke="#9a32cd" stroke-dasharray="5,2" d="M468.249,-188.137C503.005,-167.794 569.682,-132.289 632,-119 724.844,-99.2014 836.106,-108.642 900.85,-117.313"/>
<polygon fill="#9a32cd" stroke="#9a32cd" points="466.132,-185.324 459.323,-193.441 469.708,-191.341 466.132,-185.324"/>
<text text-anchor="middle" x="699" y="-122" font-family="Helvetica,sans-Serif" font-size="10.00"> myResources</text>
</g>
<!-- Node7&#45;&gt;Node21 -->
<g id="edge25" class="edge"><title>Node7&#45;&gt;Node21</title>
<path fill="none" stroke="#9a32cd" stroke-dasharray="5,2" d="M500.042,-198.609C580.963,-194.021 734.381,-191.934 858,-229 885.845,-237.349 916.52,-251.143 935.768,-260.398"/>
<polygon fill="#9a32cd" stroke="#9a32cd" points="499.361,-195.143 489.59,-199.238 499.783,-202.131 499.361,-195.143"/>
<text text-anchor="middle" x="699" y="-211" font-family="Helvetica,sans-Serif" font-size="10.00"> myResources</text>
</g>
<!-- Node8&#45;&gt;Node3 -->
<g id="edge8" class="edge"><title>Node8&#45;&gt;Node3</title>
<path fill="none" stroke="#9a32cd" stroke-dasharray="5,2" d="M935.597,-424.095C916.724,-409.249 886.769,-387.297 858,-373 819.338,-353.787 771.948,-339.28 739.209,-330.535"/>
<polygon fill="#9a32cd" stroke="#9a32cd" points="933.446,-426.856 943.444,-430.363 937.815,-421.387 933.446,-426.856"/>
<text text-anchor="middle" x="821" y="-376" font-family="Helvetica,sans-Serif" font-size="10.00"> myGraph</text>
</g>
<!-- Node9 -->
<g id="node9" class="node"><title>Node9</title>
<polygon fill="white" stroke="#bfbfbf" points="632,-519 632,-549 766,-549 766,-519 632,-519"/>
<text text-anchor="start" x="640" y="-537" font-family="Helvetica,sans-Serif" font-size="10.00">List&lt; XYChart.Series</text>
<text text-anchor="middle" x="699" y="-526" font-family="Helvetica,sans-Serif" font-size="10.00">&lt; Number, Number &gt; &gt;</text>
</g>
<!-- Node9&#45;&gt;Node8 -->
<g id="edge9" class="edge"><title>Node9&#45;&gt;Node8</title>
<path fill="none" stroke="#9a32cd" stroke-dasharray="5,2" d="M775.527,-516.332C801.995,-509.261 831.674,-500.325 858,-490 887.632,-478.378 920.146,-460.477 938.998,-449.543"/>
<polygon fill="#9a32cd" stroke="#9a32cd" points="774.337,-513.026 765.554,-518.95 776.115,-519.796 774.337,-513.026"/>
<text text-anchor="middle" x="821" y="-517" font-family="Helvetica,sans-Serif" font-size="10.00"> listOfSpecies</text>
</g>
<!-- Node10 -->
<g id="node10" class="node"><title>Node10</title>
<polygon fill="white" stroke="#bfbfbf" points="641,-470 641,-500 757,-500 757,-470 641,-470"/>
<text text-anchor="start" x="649" y="-488" font-family="Helvetica,sans-Serif" font-size="10.00">LineChart&lt; Number,</text>
<text text-anchor="middle" x="699" y="-477" font-family="Helvetica,sans-Serif" font-size="10.00"> Number &gt;</text>
</g>
<!-- Node10&#45;&gt;Node8 -->
<g id="edge10" class="edge"><title>Node10&#45;&gt;Node8</title>
<path fill="none" stroke="#9a32cd" stroke-dasharray="5,2" d="M767.379,-477.044C795.491,-473.355 828.424,-468.553 858,-463 878.072,-459.232 900.249,-454.051 918.326,-449.56"/>
<polygon fill="#9a32cd" stroke="#9a32cd" points="766.724,-473.599 757.255,-478.352 767.621,-480.541 766.724,-473.599"/>
<text text-anchor="middle" x="821" y="-478" font-family="Helvetica,sans-Serif" font-size="10.00"> lineChart</text>
</g>
<!-- Node11 -->
<g id="node11" class="node"><title>Node11</title>
<polygon fill="white" stroke="#bfbfbf" points="661.5,-430.5 661.5,-449.5 736.5,-449.5 736.5,-430.5 661.5,-430.5"/>
<text text-anchor="middle" x="699" y="-437.5" font-family="Helvetica,sans-Serif" font-size="10.00">NumberAxis</text>
</g>
<!-- Node11&#45;&gt;Node8 -->
<g id="edge12" class="edge"><title>Node11&#45;&gt;Node8</title>
<path fill="none" stroke="#9a32cd" stroke-dasharray="5,2" d="M746.811,-440C783.041,-440 834.029,-440 876.476,-440"/>
<polygon fill="#9a32cd" stroke="#9a32cd" points="746.535,-436.5 736.535,-440 746.535,-443.5 746.535,-436.5"/>
<text text-anchor="middle" x="821" y="-454" font-family="Helvetica,sans-Serif" font-size="10.00"> xAxis</text>
<text text-anchor="middle" x="821" y="-443" font-family="Helvetica,sans-Serif" font-size="10.00">yAxis</text>
</g>
<!-- Node12&#45;&gt;Node3 -->
<g id="edge13" class="edge"><title>Node12&#45;&gt;Node3</title>
<path fill="none" stroke="#9a32cd" stroke-dasharray="5,2" d="M944.648,-144.734C929.104,-171.255 897.321,-219.663 858,-248 829.597,-268.469 815.889,-260.551 784,-275 759.466,-286.117 732.345,-301.585 715.736,-311.445"/>
<polygon fill="#9a32cd" stroke="#9a32cd" points="947.871,-146.148 949.792,-135.729 941.793,-142.676 947.871,-146.148"/>
<text text-anchor="middle" x="821" y="-278" font-family="Helvetica,sans-Serif" font-size="10.00"> control</text>
</g>
<!-- Node13 -->
<g id="node13" class="node"><title>Node13</title>
<polygon fill="white" stroke="#bfbfbf" points="671,-139.5 671,-158.5 727,-158.5 727,-139.5 671,-139.5"/>
<text text-anchor="middle" x="699" y="-146.5" font-family="Helvetica,sans-Serif" font-size="10.00">Timeline</text>
</g>
<!-- Node13&#45;&gt;Node12 -->
<g id="edge14" class="edge"><title>Node13&#45;&gt;Node12</title>
<path fill="none" stroke="#9a32cd" stroke-dasharray="5,2" d="M737.344,-145.632C780.423,-141.746 851.621,-135.324 900.794,-130.889"/>
<polygon fill="#9a32cd" stroke="#9a32cd" points="736.935,-142.154 727.289,-146.539 737.563,-149.126 736.935,-142.154"/>
<text text-anchor="middle" x="821" y="-144" font-family="Helvetica,sans-Serif" font-size="10.00"> myTimeline</text>
</g>
<!-- Node14 -->
<g id="node14" class="node"><title>Node14</title>
<g id="a_node14"><a xlink:href="../../d2/d17/classmodel_1_1_simulation.html" target="_top" xlink:title="model.Simulation">
<polygon fill="white" stroke="black" points="648.5,-54.5 648.5,-73.5 749.5,-73.5 749.5,-54.5 648.5,-54.5"/>
<text text-anchor="middle" x="699" y="-61.5" font-family="Helvetica,sans-Serif" font-size="10.00">model.Simulation</text>
</a>
</g>
</g>
<!-- Node14&#45;&gt;Node12 -->
<g id="edge17" class="edge"><title>Node14&#45;&gt;Node12</title>
<path fill="none" stroke="#9a32cd" stroke-dasharray="5,2" d="M760.042,-68.1698C789.871,-71.199 826.236,-76.345 858,-85 886.4,-92.7384 917.444,-106.96 936.573,-116.449"/>
<polygon fill="#9a32cd" stroke="#9a32cd" points="760.071,-64.6566 749.782,-67.1844 759.401,-71.6245 760.071,-64.6566"/>
<text text-anchor="middle" x="821" y="-88" font-family="Helvetica,sans-Serif" font-size="10.00"> rules</text>
</g>
<!-- Node15 -->
<g id="node15" class="node"><title>Node15</title>
<g id="a_node15"><a xlink:href="../../dc/d8f/classmodel_1_1_grid.html" target="_top" xlink:title="model.Grid">
<polygon fill="white" stroke="black" points="408.5,-19.5 408.5,-38.5 477.5,-38.5 477.5,-19.5 408.5,-19.5"/>
<text text-anchor="middle" x="443" y="-26.5" font-family="Helvetica,sans-Serif" font-size="10.00">model.Grid</text>
</a>
</g>
</g>
<!-- Node15&#45;&gt;Node14 -->
<g id="edge18" class="edge"><title>Node15&#45;&gt;Node14</title>
<path fill="none" stroke="#9a32cd" stroke-dasharray="5,2" d="M487.97,-30.1934C522.449,-31.6504 571.539,-34.8757 614,-42 631.692,-44.9685 651.087,-49.931 666.778,-54.3922"/>
<polygon fill="#9a32cd" stroke="#9a32cd" points="487.891,-26.6877 477.762,-29.7956 487.618,-33.6824 487.891,-26.6877"/>
<text text-anchor="middle" x="571" y="-56" font-family="Helvetica,sans-Serif" font-size="10.00"> currentGrid</text>
<text text-anchor="middle" x="571" y="-45" font-family="Helvetica,sans-Serif" font-size="10.00">nextGrid</text>
</g>
<!-- Node16 -->
<g id="node16" class="node"><title>Node16</title>
<g id="a_node16"><a xlink:href="../../d3/d57/classmodel_1_1_cell.html" target="_top" xlink:title="model.Cell">
<polygon fill="white" stroke="black" points="220.5,-19.5 220.5,-38.5 287.5,-38.5 287.5,-19.5 220.5,-19.5"/>
<text text-anchor="middle" x="254" y="-26.5" font-family="Helvetica,sans-Serif" font-size="10.00">model.Cell</text>
</a>
</g>
</g>
<!-- Node16&#45;&gt;Node15 -->
<g id="edge19" class="edge"><title>Node16&#45;&gt;Node15</title>
<path fill="none" stroke="#9a32cd" stroke-dasharray="5,2" d="M297.979,-29C331.473,-29 377.329,-29 408.224,-29"/>
<polygon fill="#9a32cd" stroke="#9a32cd" points="297.573,-25.5001 287.573,-29 297.573,-32.5001 297.573,-25.5001"/>
<text text-anchor="middle" x="334" y="-32" font-family="Helvetica,sans-Serif" font-size="10.00"> myCells</text>
</g>
<!-- Node17 -->
<g id="node17" class="node"><title>Node17</title>
<polygon fill="white" stroke="#bfbfbf" points="0,-38.5 0,-57.5 128,-57.5 128,-38.5 0,-38.5"/>
<text text-anchor="middle" x="64" y="-45.5" font-family="Helvetica,sans-Serif" font-size="10.00">Map&lt; String, Integer &gt;</text>
</g>
<!-- Node17&#45;&gt;Node16 -->
<g id="edge20" class="edge"><title>Node17&#45;&gt;Node16</title>
<path fill="none" stroke="#9a32cd" stroke-dasharray="5,2" d="M138.434,-40.5784C166.797,-37.712 197.787,-34.5801 220.375,-32.2972"/>
<polygon fill="#9a32cd" stroke="#9a32cd" points="137.722,-37.1326 128.124,-41.6204 138.426,-44.0971 137.722,-37.1326"/>
<text text-anchor="middle" x="172" y="-43" font-family="Helvetica,sans-Serif" font-size="10.00"> properties</text>
</g>
<!-- Node18 -->
<g id="node18" class="node"><title>Node18</title>
<g id="a_node18"><a xlink:href="../../d0/d76/enummodel_1_1_cell_state.html" target="_top" xlink:title="model.CellState">
<polygon fill="white" stroke="black" points="17.5,-0.5 17.5,-19.5 110.5,-19.5 110.5,-0.5 17.5,-0.5"/>
<text text-anchor="middle" x="64" y="-7.5" font-family="Helvetica,sans-Serif" font-size="10.00">model.CellState</text>
</a>
</g>
</g>
<!-- Node18&#45;&gt;Node16 -->
<g id="edge21" class="edge"><title>Node18&#45;&gt;Node16</title>
<path fill="none" stroke="#9a32cd" stroke-dasharray="5,2" d="M120.913,-13.1171C144.719,-14.7254 172.764,-16.9923 198,-20 205.302,-20.8702 213.116,-22.017 220.494,-23.1994"/>
<polygon fill="#9a32cd" stroke="#9a32cd" points="120.853,-9.60574 110.646,-12.446 120.396,-16.5908 120.853,-9.60574"/>
<text text-anchor="middle" x="172" y="-23" font-family="Helvetica,sans-Serif" font-size="10.00"> state</text>
</g>
<!-- Node19 -->
<g id="node19" class="node"><title>Node19</title>
<polygon fill="white" stroke="#bfbfbf" points="415,-64.5 415,-83.5 471,-83.5 471,-64.5 415,-64.5"/>
<text text-anchor="middle" x="443" y="-71.5" font-family="Helvetica,sans-Serif" font-size="10.00">Random</text>
</g>
<!-- Node19&#45;&gt;Node14 -->
<g id="edge22" class="edge"><title>Node19&#45;&gt;Node14</title>
<path fill="none" stroke="#9a32cd" stroke-dasharray="5,2" d="M481.215,-72.5348C525.43,-70.7941 599.364,-67.8833 648.404,-65.9526"/>
<polygon fill="#9a32cd" stroke="#9a32cd" points="481.037,-69.039 471.182,-72.9298 481.312,-76.0336 481.037,-69.039"/>
<text text-anchor="middle" x="571" y="-74" font-family="Helvetica,sans-Serif" font-size="10.00"> myGenerator</text>
</g>
<!-- Node20 -->
<g id="node20" class="node"><title>Node20</title>
<polygon fill="white" stroke="#bfbfbf" points="638,-16.5 638,-35.5 760,-35.5 760,-16.5 638,-16.5"/>
<text text-anchor="middle" x="699" y="-23.5" font-family="Helvetica,sans-Serif" font-size="10.00">Map&lt; String, String &gt;</text>
</g>
<!-- Node20&#45;&gt;Node12 -->
<g id="edge23" class="edge"><title>Node20&#45;&gt;Node12</title>
<path fill="none" stroke="#9a32cd" stroke-dasharray="5,2" d="M770.439,-33.2907C798.486,-37.8502 830.554,-45.2006 858,-57 892.934,-72.0185 927.761,-101.093 944.588,-116.26"/>
<polygon fill="#9a32cd" stroke="#9a32cd" points="770.72,-29.7928 760.304,-31.734 769.657,-36.7116 770.72,-29.7928"/>
<text text-anchor="middle" x="821" y="-60" font-family="Helvetica,sans-Serif" font-size="10.00"> stateColorMap</text>
</g>
<!-- Node21&#45;&gt;Node3 -->
<g id="edge24" class="edge"><title>Node21&#45;&gt;Node3</title>
<path fill="none" stroke="#9a32cd" stroke-dasharray="5,2" d="M897.194,-281.561C852.026,-290.595 790.014,-302.997 747.664,-311.467"/>
<polygon fill="#9a32cd" stroke="#9a32cd" points="898.018,-284.966 907.137,-279.573 896.645,-278.102 898.018,-284.966"/>
<text text-anchor="middle" x="821" y="-307" font-family="Helvetica,sans-Serif" font-size="10.00"> buttons</text>
</g>
<!-- Node22 -->
<g id="node22" class="node"><title>Node22</title>
<polygon fill="white" stroke="#bfbfbf" points="681.5,-232.5 681.5,-251.5 716.5,-251.5 716.5,-232.5 681.5,-232.5"/>
<text text-anchor="middle" x="699" y="-239.5" font-family="Helvetica,sans-Serif" font-size="10.00">Text</text>
</g>
<!-- Node22&#45;&gt;Node21 -->
<g id="edge27" class="edge"><title>Node22&#45;&gt;Node21</title>
<path fill="none" stroke="#9a32cd" stroke-dasharray="5,2" d="M726.952,-237.978C758.572,-233.989 812.465,-229.466 858,-237 884.851,-241.442 914.254,-252.362 933.568,-260.43"/>
<polygon fill="#9a32cd" stroke="#9a32cd" points="726.193,-234.548 716.747,-239.346 727.123,-241.486 726.193,-234.548"/>
<text text-anchor="middle" x="821" y="-240" font-family="Helvetica,sans-Serif" font-size="10.00"> speedText</text>
</g>
<!-- Node23 -->
<g id="node23" class="node"><title>Node23</title>
<polygon fill="white" stroke="#bfbfbf" points="420,-327.5 420,-346.5 466,-346.5 466,-327.5 420,-327.5"/>
<text text-anchor="middle" x="443" y="-334.5" font-family="Helvetica,sans-Serif" font-size="10.00">Group</text>
</g>
<!-- Node23&#45;&gt;Node3 -->
<g id="edge28" class="edge"><title>Node23&#45;&gt;Node3</title>
<path fill="none" stroke="#9a32cd" stroke-dasharray="5,2" d="M476.352,-334.962C519.719,-332.23 597.126,-327.354 648.019,-324.148"/>
<polygon fill="#9a32cd" stroke="#9a32cd" points="475.857,-331.486 466.097,-335.608 476.297,-338.472 475.857,-331.486"/>
<text text-anchor="middle" x="571" y="-335" font-family="Helvetica,sans-Serif" font-size="10.00"> root</text>
</g>
</g>
</svg>
