<?xml version="1.0" encoding="UTF-8" standalone="no"?>
<!DOCTYPE svg PUBLIC "-//W3C//DTD SVG 1.1//EN"
 "http://www.w3.org/Graphics/SVG/1.1/DTD/svg11.dtd">
<!-- Generated by graphviz version 2.36.0 (20140111.2315)
 -->
<!-- Title: controller.Packager Pages: 1 -->
<svg width="276pt" height="96pt"
 viewBox="0.00 0.00 276.00 96.00" xmlns="http://www.w3.org/2000/svg" xmlns:xlink="http://www.w3.org/1999/xlink">
<g id="graph0" class="graph" transform="scale(1 1) rotate(0) translate(4 92)">
<title>controller.Packager</title>
<polygon fill="white" stroke="none" points="-4,4 -4,-92 272,-92 272,4 -4,4"/>
<!-- Node1 -->
<g id="node1" class="node"><title>Node1</title>
<polygon fill="#bfbfbf" stroke="black" points="81.5,-0.5 81.5,-19.5 188.5,-19.5 188.5,-0.5 81.5,-0.5"/>
<text text-anchor="middle" x="135" y="-7.5" font-family="Helvetica,sans-Serif" font-size="10.00">controller.Packager</text>
</g>
<!-- Node2 -->
<g id="node2" class="node"><title>Node2</title>
<polygon fill="white" stroke="#bfbfbf" points="0,-68.5 0,-87.5 128,-87.5 128,-68.5 0,-68.5"/>
<text text-anchor="middle" x="64" y="-75.5" font-family="Helvetica,sans-Serif" font-size="10.00">Map&lt; String, Integer &gt;</text>
</g>
<!-- Node2&#45;&gt;Node1 -->
<g id="edge1" class="edge"><title>Node2&#45;&gt;Node1</title>
<path fill="none" stroke="#9a32cd" stroke-dasharray="5,2" d="M80.7687,-61.4122C94.7164,-48.4468 114.07,-30.4559 125.489,-19.8411"/>
<polygon fill="#9a32cd" stroke="#9a32cd" points="78.2233,-58.9997 73.282,-68.3717 82.9893,-64.1267 78.2233,-58.9997"/>
<text text-anchor="middle" x="138.5" y="-41.5" font-family="Helvetica,sans-Serif" font-size="10.00"> attributeMap</text>
</g>
<!-- Node3 -->
<g id="node3" class="node"><title>Node3</title>
<polygon fill="white" stroke="#bfbfbf" points="146,-68.5 146,-87.5 268,-87.5 268,-68.5 146,-68.5"/>
<text text-anchor="middle" x="207" y="-75.5" font-family="Helvetica,sans-Serif" font-size="10.00">Map&lt; String, String &gt;</text>
</g>
<!-- Node3&#45;&gt;Node1 -->
<g id="edge2" class="edge"><title>Node3&#45;&gt;Node1</title>
<path fill="none" stroke="#9a32cd" stroke-dasharray="5,2" d="M194.763,-59.9565C189.17,-52.7614 182.194,-44.5515 175,-38 167.319,-31.0046 157.694,-24.4512 149.811,-19.553"/>
<polygon fill="#9a32cd" stroke="#9a32cd" points="192.229,-62.4125 201.02,-68.3264 197.836,-58.2213 192.229,-62.4125"/>
<text text-anchor="middle" x="212" y="-41.5" font-family="Helvetica,sans-Serif" font-size="10.00"> colorsMap</text>
</g>
</g>
</svg>
