<?xml version="1.0" encoding="UTF-8" standalone="no"?>
<!DOCTYPE svg PUBLIC "-//W3C//DTD SVG 1.1//EN"
 "http://www.w3.org/Graphics/SVG/1.1/DTD/svg11.dtd">
<!-- Generated by graphviz version 2.36.0 (20140111.2315)
 -->
<!-- Title: viewPackage.PopulationGraph.updateGraph Pages: 1 -->
<svg width="1718pt" height="167pt"
 viewBox="0.00 0.00 1718.00 167.00" xmlns="http://www.w3.org/2000/svg" xmlns:xlink="http://www.w3.org/1999/xlink">
<g id="graph0" class="graph" transform="scale(1 1) rotate(0) translate(4 163)">
<title>viewPackage.PopulationGraph.updateGraph</title>
<polygon fill="white" stroke="none" points="-4,4 -4,-163 1714,-163 1714,4 -4,4"/>
<!-- Node1 -->
<g id="node1" class="node"><title>Node1</title>
<polygon fill="#bfbfbf" stroke="black" points="0,-22 0,-52 196,-52 196,-22 0,-22"/>
<text text-anchor="start" x="8" y="-40" font-family="Helvetica,sans-Serif" font-size="10.00">viewPackage.PopulationGraph.update</text>
<text text-anchor="middle" x="98" y="-29" font-family="Helvetica,sans-Serif" font-size="10.00">Graph</text>
</g>
<!-- Node2 -->
<g id="node2" class="node"><title>Node2</title>
<g id="a_node2"><a xlink:href="../../d1/dbf/classview_package_1_1_view.html#a7793d78c89cc38648fc57d4ee46a0837" target="_top" xlink:title="viewPackage.View.updateGridView">
<polygon fill="white" stroke="black" points="232.5,-27.5 232.5,-46.5 411.5,-46.5 411.5,-27.5 232.5,-27.5"/>
<text text-anchor="middle" x="322" y="-34.5" font-family="Helvetica,sans-Serif" font-size="10.00">viewPackage.View.updateGridView</text>
</a>
</g>
</g>
<!-- Node1&#45;&gt;Node2 -->
<g id="edge1" class="edge"><title>Node1&#45;&gt;Node2</title>
<path fill="none" stroke="midnightblue" d="M206.229,-37C214.923,-37 223.649,-37 232.191,-37"/>
<polygon fill="midnightblue" stroke="midnightblue" points="206.05,-33.5001 196.049,-37 206.049,-40.5001 206.05,-33.5001"/>
</g>
<!-- Node3 -->
<g id="node3" class="node"><title>Node3</title>
<g id="a_node3"><a xlink:href="../../d9/df7/classcontroller_1_1_controller.html#aa8fee9e96592dabbb151850b562d9ec0" target="_top" xlink:title="controller.Controller.step\lSimulation">
<polygon fill="white" stroke="black" points="455,-44 455,-74 589,-74 589,-44 455,-44"/>
<text text-anchor="start" x="463" y="-62" font-family="Helvetica,sans-Serif" font-size="10.00">controller.Controller.step</text>
<text text-anchor="middle" x="522" y="-51" font-family="Helvetica,sans-Serif" font-size="10.00">Simulation</text>
</a>
</g>
</g>
<!-- Node2&#45;&gt;Node3 -->
<g id="edge2" class="edge"><title>Node2&#45;&gt;Node3</title>
<path fill="none" stroke="midnightblue" d="M418.892,-47.6547C431.07,-49.0078 443.31,-50.3678 454.875,-51.6528"/>
<polygon fill="midnightblue" stroke="midnightblue" points="419.019,-44.1474 408.694,-46.5216 418.246,-51.1046 419.019,-44.1474"/>
</g>
<!-- Node11 -->
<g id="node11" class="node"><title>Node11</title>
<g id="a_node11"><a xlink:href="../../d9/df7/classcontroller_1_1_controller.html#af7cc9ab6dfe60da36d3159eea48882db" target="_top" xlink:title="controller.Controller.loadFile">
<polygon fill="white" stroke="black" points="448,-5.5 448,-24.5 596,-24.5 596,-5.5 448,-5.5"/>
<text text-anchor="middle" x="522" y="-12.5" font-family="Helvetica,sans-Serif" font-size="10.00">controller.Controller.loadFile</text>
</a>
</g>
</g>
<!-- Node2&#45;&gt;Node11 -->
<g id="edge12" class="edge"><title>Node2&#45;&gt;Node11</title>
<path fill="none" stroke="midnightblue" d="M418.845,-26.3505C428.616,-25.2649 438.428,-24.1747 447.899,-23.1223"/>
<polygon fill="midnightblue" stroke="midnightblue" points="418.246,-22.8954 408.694,-27.4784 419.019,-29.8526 418.246,-22.8954"/>
</g>
<!-- Node4 -->
<g id="node4" class="node"><title>Node4</title>
<g id="a_node4"><a xlink:href="../../d9/df7/classcontroller_1_1_controller.html#ae859ed2fba4e22871428ec51f7d4c07d" target="_top" xlink:title="controller.Controller.play\lSimulation">
<polygon fill="white" stroke="black" points="636,-88 636,-118 768,-118 768,-88 636,-88"/>
<text text-anchor="start" x="644" y="-106" font-family="Helvetica,sans-Serif" font-size="10.00">controller.Controller.play</text>
<text text-anchor="middle" x="702" y="-95" font-family="Helvetica,sans-Serif" font-size="10.00">Simulation</text>
</a>
</g>
</g>
<!-- Node3&#45;&gt;Node4 -->
<g id="edge3" class="edge"><title>Node3&#45;&gt;Node4</title>
<path fill="none" stroke="midnightblue" d="M593.737,-76.4855C609.117,-80.2873 625.257,-84.277 640.212,-87.9738"/>
<polygon fill="midnightblue" stroke="midnightblue" points="594.307,-73.0213 583.76,-74.0192 592.628,-79.8167 594.307,-73.0213"/>
</g>
<!-- Node10 -->
<g id="node10" class="node"><title>Node10</title>
<g id="a_node10"><a xlink:href="../../d1/dbf/classview_package_1_1_view.html#acec783d5c91d6cb27da271e46588e79f" target="_top" xlink:title="viewPackage.View.setStep\lSimulation">
<polygon fill="white" stroke="black" points="998.5,-44 998.5,-74 1139.5,-74 1139.5,-44 998.5,-44"/>
<text text-anchor="start" x="1006.5" y="-62" font-family="Helvetica,sans-Serif" font-size="10.00">viewPackage.View.setStep</text>
<text text-anchor="middle" x="1069" y="-51" font-family="Helvetica,sans-Serif" font-size="10.00">Simulation</text>
</a>
</g>
</g>
<!-- Node3&#45;&gt;Node10 -->
<g id="edge10" class="edge"><title>Node3&#45;&gt;Node10</title>
<path fill="none" stroke="midnightblue" d="M599.319,-59C705.372,-59 895.794,-59 998.236,-59"/>
<polygon fill="midnightblue" stroke="midnightblue" points="599.011,-55.5001 589.011,-59 599.011,-62.5001 599.011,-55.5001"/>
</g>
<!-- Node5 -->
<g id="node5" class="node"><title>Node5</title>
<g id="a_node5"><a xlink:href="../../d9/df7/classcontroller_1_1_controller.html#a37d9d1d84d304a9d94d7666322b7c6ab" target="_top" xlink:title="controller.Controller.change\lSpeed">
<polygon fill="white" stroke="black" points="811,-129 811,-159 959,-159 959,-129 811,-129"/>
<text text-anchor="start" x="819" y="-147" font-family="Helvetica,sans-Serif" font-size="10.00">controller.Controller.change</text>
<text text-anchor="middle" x="885" y="-136" font-family="Helvetica,sans-Serif" font-size="10.00">Speed</text>
</a>
</g>
</g>
<!-- Node4&#45;&gt;Node5 -->
<g id="edge4" class="edge"><title>Node4&#45;&gt;Node5</title>
<path fill="none" stroke="midnightblue" d="M778.035,-119.997C791.18,-122.974 804.773,-126.054 817.662,-128.973"/>
<polygon fill="midnightblue" stroke="midnightblue" points="778.616,-116.54 768.089,-117.744 777.069,-123.367 778.616,-116.54"/>
</g>
<!-- Node6 -->
<g id="node6" class="node"><title>Node6</title>
<g id="a_node6"><a xlink:href="../../d1/dbf/classview_package_1_1_view.html#a1d1a8e16ae622c0d6a66cd9c516672a6" target="_top" xlink:title="viewPackage.View.setPlay\lAction">
<polygon fill="white" stroke="black" points="1000,-93 1000,-123 1138,-123 1138,-93 1000,-93"/>
<text text-anchor="start" x="1008" y="-111" font-family="Helvetica,sans-Serif" font-size="10.00">viewPackage.View.setPlay</text>
<text text-anchor="middle" x="1069" y="-100" font-family="Helvetica,sans-Serif" font-size="10.00">Action</text>
</a>
</g>
</g>
<!-- Node4&#45;&gt;Node6 -->
<g id="edge9" class="edge"><title>Node4&#45;&gt;Node6</title>
<path fill="none" stroke="midnightblue" d="M778.464,-104.034C843.638,-104.927 936.979,-106.205 999.906,-107.067"/>
<polygon fill="midnightblue" stroke="midnightblue" points="778.302,-100.531 768.255,-103.894 778.206,-107.531 778.302,-100.531"/>
</g>
<!-- Node5&#45;&gt;Node6 -->
<g id="edge5" class="edge"><title>Node5&#45;&gt;Node6</title>
<path fill="none" stroke="midnightblue" d="M969.077,-127.567C979.399,-125.525 989.859,-123.457 999.919,-121.467"/>
<polygon fill="midnightblue" stroke="midnightblue" points="968.37,-124.139 959.24,-129.513 969.729,-131.006 968.37,-124.139"/>
</g>
<!-- Node7 -->
<g id="node7" class="node"><title>Node7</title>
<g id="a_node7"><a xlink:href="../../dc/d2c/classview_package_1_1_button_box.html#a9756fc46a96c169ce48a1867bd2c82f5" target="_top" xlink:title="viewPackage.ButtonBox.make\lButtonBox">
<polygon fill="white" stroke="black" points="1176,-44 1176,-74 1336,-74 1336,-44 1176,-44"/>
<text text-anchor="start" x="1184" y="-62" font-family="Helvetica,sans-Serif" font-size="10.00">viewPackage.ButtonBox.make</text>
<text text-anchor="middle" x="1256" y="-51" font-family="Helvetica,sans-Serif" font-size="10.00">ButtonBox</text>
</a>
</g>
</g>
<!-- Node6&#45;&gt;Node7 -->
<g id="edge6" class="edge"><title>Node6&#45;&gt;Node7</title>
<path fill="none" stroke="midnightblue" d="M1136.54,-90.3771C1156.78,-85.0163 1178.82,-79.1775 1198.34,-74.0062"/>
<polygon fill="midnightblue" stroke="midnightblue" points="1135.53,-87.0216 1126.76,-92.9654 1137.33,-93.7883 1135.53,-87.0216"/>
</g>
<!-- Node8 -->
<g id="node8" class="node"><title>Node8</title>
<g id="a_node8"><a xlink:href="../../d1/dbf/classview_package_1_1_view.html#af6f6887ef253ae0fba2634e367b95312" target="_top" xlink:title="viewPackage.View.initialize">
<polygon fill="white" stroke="black" points="1372,-49.5 1372,-68.5 1514,-68.5 1514,-49.5 1372,-49.5"/>
<text text-anchor="middle" x="1443" y="-56.5" font-family="Helvetica,sans-Serif" font-size="10.00">viewPackage.View.initialize</text>
</a>
</g>
</g>
<!-- Node7&#45;&gt;Node8 -->
<g id="edge7" class="edge"><title>Node7&#45;&gt;Node8</title>
<path fill="none" stroke="midnightblue" d="M1346.33,-59C1354.93,-59 1363.57,-59 1371.95,-59"/>
<polygon fill="midnightblue" stroke="midnightblue" points="1346.26,-55.5001 1336.26,-59 1346.26,-62.5001 1346.26,-55.5001"/>
</g>
<!-- Node9 -->
<g id="node9" class="node"><title>Node9</title>
<g id="a_node9"><a xlink:href="../../d9/df7/classcontroller_1_1_controller.html#a4dbfef3e3e30bd1bb84df7a6b24ad1e7" target="_top" xlink:title="controller.Controller.Controller">
<polygon fill="white" stroke="black" points="1550.5,-49.5 1550.5,-68.5 1709.5,-68.5 1709.5,-49.5 1550.5,-49.5"/>
<text text-anchor="middle" x="1630" y="-56.5" font-family="Helvetica,sans-Serif" font-size="10.00">controller.Controller.Controller</text>
</a>
</g>
</g>
<!-- Node8&#45;&gt;Node9 -->
<g id="edge8" class="edge"><title>Node8&#45;&gt;Node9</title>
<path fill="none" stroke="midnightblue" d="M1524.31,-59C1533,-59 1541.83,-59 1550.49,-59"/>
<polygon fill="midnightblue" stroke="midnightblue" points="1524.2,-55.5001 1514.2,-59 1524.2,-62.5001 1524.2,-55.5001"/>
</g>
<!-- Node10&#45;&gt;Node7 -->
<g id="edge11" class="edge"><title>Node10&#45;&gt;Node7</title>
<path fill="none" stroke="midnightblue" d="M1149.72,-59C1158.35,-59 1167.14,-59 1175.76,-59"/>
<polygon fill="midnightblue" stroke="midnightblue" points="1149.68,-55.5001 1139.68,-59 1149.68,-62.5001 1149.68,-55.5001"/>
</g>
<!-- Node12 -->
<g id="node12" class="node"><title>Node12</title>
<g id="a_node12"><a xlink:href="../../d1/dbf/classview_package_1_1_view.html#a718e5f42ae85512916198548e28477c7" target="_top" xlink:title="viewPackage.View.tryLoad">
<polygon fill="white" stroke="black" points="632,-5.5 632,-24.5 772,-24.5 772,-5.5 632,-5.5"/>
<text text-anchor="middle" x="702" y="-12.5" font-family="Helvetica,sans-Serif" font-size="10.00">viewPackage.View.tryLoad</text>
</a>
</g>
</g>
<!-- Node11&#45;&gt;Node12 -->
<g id="edge13" class="edge"><title>Node11&#45;&gt;Node12</title>
<path fill="none" stroke="midnightblue" d="M606.193,-15C614.776,-15 623.431,-15 631.838,-15"/>
<polygon fill="midnightblue" stroke="midnightblue" points="606.17,-11.5001 596.17,-15 606.17,-18.5001 606.17,-11.5001"/>
</g>
<!-- Node13 -->
<g id="node13" class="node"><title>Node13</title>
<g id="a_node13"><a xlink:href="../../dc/d2c/classview_package_1_1_button_box.html#aef53bd97c4407ecd3fb5dfbf42850a46" target="_top" xlink:title="viewPackage.ButtonBox.load\lFileBox">
<polygon fill="white" stroke="black" points="808.5,-0 808.5,-30 961.5,-30 961.5,-0 808.5,-0"/>
<text text-anchor="start" x="816.5" y="-18" font-family="Helvetica,sans-Serif" font-size="10.00">viewPackage.ButtonBox.load</text>
<text text-anchor="middle" x="885" y="-7" font-family="Helvetica,sans-Serif" font-size="10.00">FileBox</text>
</a>
</g>
</g>
<!-- Node12&#45;&gt;Node13 -->
<g id="edge14" class="edge"><title>Node12&#45;&gt;Node13</title>
<path fill="none" stroke="midnightblue" d="M782.241,-15C790.863,-15 799.623,-15 808.201,-15"/>
<polygon fill="midnightblue" stroke="midnightblue" points="782.203,-11.5001 772.203,-15 782.203,-18.5001 782.203,-11.5001"/>
</g>
<!-- Node13&#45;&gt;Node7 -->
<g id="edge15" class="edge"><title>Node13&#45;&gt;Node7</title>
<path fill="none" stroke="midnightblue" d="M971.608,-18.4268C1021.01,-21.1467 1084.22,-25.891 1140,-34 1157.49,-36.5425 1176.29,-40.2211 1193.52,-43.9777"/>
<polygon fill="midnightblue" stroke="midnightblue" points="971.772,-14.9307 961.6,-17.893 971.399,-21.9207 971.772,-14.9307"/>
</g>
</g>
</svg>
