<?xml version="1.0" encoding="UTF-8" standalone="no"?>
<!DOCTYPE svg PUBLIC "-//W3C//DTD SVG 1.1//EN"
 "http://www.w3.org/Graphics/SVG/1.1/DTD/svg11.dtd">
<!-- Generated by graphviz version 2.36.0 (20140111.2315)
 -->
<!-- Title: viewPackage.PopulationGraph.makeGraph Pages: 1 -->
<svg width="1958pt" height="38pt"
 viewBox="0.00 0.00 1958.00 38.00" xmlns="http://www.w3.org/2000/svg" xmlns:xlink="http://www.w3.org/1999/xlink">
<g id="graph0" class="graph" transform="scale(1 1) rotate(0) translate(4 34)">
<title>viewPackage.PopulationGraph.makeGraph</title>
<polygon fill="white" stroke="none" points="-4,4 -4,-34 1954,-34 1954,4 -4,4"/>
<!-- Node1 -->
<g id="node1" class="node"><title>Node1</title>
<polygon fill="#bfbfbf" stroke="black" points="0.5,-0 0.5,-30 189.5,-30 189.5,-0 0.5,-0"/>
<text text-anchor="start" x="8.5" y="-18" font-family="Helvetica,sans-Serif" font-size="10.00">viewPackage.PopulationGraph.make</text>
<text text-anchor="middle" x="95" y="-7" font-family="Helvetica,sans-Serif" font-size="10.00">Graph</text>
</g>
<!-- Node2 -->
<g id="node2" class="node"><title>Node2</title>
<g id="a_node2"><a xlink:href="../../d1/dbf/classview_package_1_1_view.html#a4c4b23ee9b019dcad37467a24571d496" target="_top" xlink:title="viewPackage.View.createGraph\lWindow">
<polygon fill="white" stroke="black" points="226,-0 226,-30 390,-30 390,-0 226,-0"/>
<text text-anchor="start" x="234" y="-18" font-family="Helvetica,sans-Serif" font-size="10.00">viewPackage.View.createGraph</text>
<text text-anchor="middle" x="308" y="-7" font-family="Helvetica,sans-Serif" font-size="10.00">Window</text>
</a>
</g>
</g>
<!-- Node1&#45;&gt;Node2 -->
<g id="edge1" class="edge"><title>Node1&#45;&gt;Node2</title>
<path fill="none" stroke="midnightblue" d="M199.933,-15C208.603,-15 217.287,-15 225.751,-15"/>
<polygon fill="midnightblue" stroke="midnightblue" points="199.776,-11.5001 189.776,-15 199.776,-18.5001 199.776,-11.5001"/>
</g>
<!-- Node3 -->
<g id="node3" class="node"><title>Node3</title>
<g id="a_node3"><a xlink:href="../../df/dcf/classview_package_1_1_display_grid.html#a5ec8bada84cea7265f0a46ccc1c45686" target="_top" xlink:title="viewPackage.DisplayGrid.initialize\lGridView">
<polygon fill="white" stroke="black" points="426.5,-0 426.5,-30 601.5,-30 601.5,-0 426.5,-0"/>
<text text-anchor="start" x="434.5" y="-18" font-family="Helvetica,sans-Serif" font-size="10.00">viewPackage.DisplayGrid.initialize</text>
<text text-anchor="middle" x="514" y="-7" font-family="Helvetica,sans-Serif" font-size="10.00">GridView</text>
</a>
</g>
</g>
<!-- Node2&#45;&gt;Node3 -->
<g id="edge2" class="edge"><title>Node2&#45;&gt;Node3</title>
<path fill="none" stroke="midnightblue" d="M400.322,-15C408.987,-15 417.756,-15 426.376,-15"/>
<polygon fill="midnightblue" stroke="midnightblue" points="400.212,-11.5001 390.212,-15 400.212,-18.5001 400.212,-11.5001"/>
</g>
<!-- Node4 -->
<g id="node4" class="node"><title>Node4</title>
<g id="a_node4"><a xlink:href="../../d1/dbf/classview_package_1_1_view.html#a463e5a91c22eba013dfe816c7c318e37" target="_top" xlink:title="viewPackage.View.createDisplayView">
<polygon fill="white" stroke="black" points="638.5,-5.5 638.5,-24.5 829.5,-24.5 829.5,-5.5 638.5,-5.5"/>
<text text-anchor="middle" x="734" y="-12.5" font-family="Helvetica,sans-Serif" font-size="10.00">viewPackage.View.createDisplayView</text>
</a>
</g>
</g>
<!-- Node3&#45;&gt;Node4 -->
<g id="edge3" class="edge"><title>Node3&#45;&gt;Node4</title>
<path fill="none" stroke="midnightblue" d="M611.98,-15C620.716,-15 629.556,-15 638.272,-15"/>
<polygon fill="midnightblue" stroke="midnightblue" points="611.786,-11.5001 601.786,-15 611.786,-18.5001 611.786,-11.5001"/>
</g>
<!-- Node5 -->
<g id="node5" class="node"><title>Node5</title>
<g id="a_node5"><a xlink:href="../../d9/df7/classcontroller_1_1_controller.html#af7cc9ab6dfe60da36d3159eea48882db" target="_top" xlink:title="controller.Controller.loadFile">
<polygon fill="white" stroke="black" points="866,-5.5 866,-24.5 1014,-24.5 1014,-5.5 866,-5.5"/>
<text text-anchor="middle" x="940" y="-12.5" font-family="Helvetica,sans-Serif" font-size="10.00">controller.Controller.loadFile</text>
</a>
</g>
</g>
<!-- Node4&#45;&gt;Node5 -->
<g id="edge4" class="edge"><title>Node4&#45;&gt;Node5</title>
<path fill="none" stroke="midnightblue" d="M839.556,-15C848.435,-15 857.287,-15 865.845,-15"/>
<polygon fill="midnightblue" stroke="midnightblue" points="839.535,-11.5001 829.535,-15 839.535,-18.5001 839.535,-11.5001"/>
</g>
<!-- Node6 -->
<g id="node6" class="node"><title>Node6</title>
<g id="a_node6"><a xlink:href="../../d1/dbf/classview_package_1_1_view.html#a718e5f42ae85512916198548e28477c7" target="_top" xlink:title="viewPackage.View.tryLoad">
<polygon fill="white" stroke="black" points="1050,-5.5 1050,-24.5 1190,-24.5 1190,-5.5 1050,-5.5"/>
<text text-anchor="middle" x="1120" y="-12.5" font-family="Helvetica,sans-Serif" font-size="10.00">viewPackage.View.tryLoad</text>
</a>
</g>
</g>
<!-- Node5&#45;&gt;Node6 -->
<g id="edge5" class="edge"><title>Node5&#45;&gt;Node6</title>
<path fill="none" stroke="midnightblue" d="M1024.19,-15C1032.78,-15 1041.43,-15 1049.84,-15"/>
<polygon fill="midnightblue" stroke="midnightblue" points="1024.17,-11.5001 1014.17,-15 1024.17,-18.5001 1024.17,-11.5001"/>
</g>
<!-- Node7 -->
<g id="node7" class="node"><title>Node7</title>
<g id="a_node7"><a xlink:href="../../dc/d2c/classview_package_1_1_button_box.html#aef53bd97c4407ecd3fb5dfbf42850a46" target="_top" xlink:title="viewPackage.ButtonBox.load\lFileBox">
<polygon fill="white" stroke="black" points="1226.5,-0 1226.5,-30 1379.5,-30 1379.5,-0 1226.5,-0"/>
<text text-anchor="start" x="1234.5" y="-18" font-family="Helvetica,sans-Serif" font-size="10.00">viewPackage.ButtonBox.load</text>
<text text-anchor="middle" x="1303" y="-7" font-family="Helvetica,sans-Serif" font-size="10.00">FileBox</text>
</a>
</g>
</g>
<!-- Node6&#45;&gt;Node7 -->
<g id="edge6" class="edge"><title>Node6&#45;&gt;Node7</title>
<path fill="none" stroke="midnightblue" d="M1200.24,-15C1208.86,-15 1217.62,-15 1226.2,-15"/>
<polygon fill="midnightblue" stroke="midnightblue" points="1200.2,-11.5001 1190.2,-15 1200.2,-18.5001 1200.2,-11.5001"/>
</g>
<!-- Node8 -->
<g id="node8" class="node"><title>Node8</title>
<g id="a_node8"><a xlink:href="../../dc/d2c/classview_package_1_1_button_box.html#a9756fc46a96c169ce48a1867bd2c82f5" target="_top" xlink:title="viewPackage.ButtonBox.make\lButtonBox">
<polygon fill="white" stroke="black" points="1416,-0 1416,-30 1576,-30 1576,-0 1416,-0"/>
<text text-anchor="start" x="1424" y="-18" font-family="Helvetica,sans-Serif" font-size="10.00">viewPackage.ButtonBox.make</text>
<text text-anchor="middle" x="1496" y="-7" font-family="Helvetica,sans-Serif" font-size="10.00">ButtonBox</text>
</a>
</g>
</g>
<!-- Node7&#45;&gt;Node8 -->
<g id="edge7" class="edge"><title>Node7&#45;&gt;Node8</title>
<path fill="none" stroke="midnightblue" d="M1389.86,-15C1398.53,-15 1407.29,-15 1415.88,-15"/>
<polygon fill="midnightblue" stroke="midnightblue" points="1389.76,-11.5001 1379.76,-15 1389.76,-18.5001 1389.76,-11.5001"/>
</g>
<!-- Node9 -->
<g id="node9" class="node"><title>Node9</title>
<g id="a_node9"><a xlink:href="../../d1/dbf/classview_package_1_1_view.html#af6f6887ef253ae0fba2634e367b95312" target="_top" xlink:title="viewPackage.View.initialize">
<polygon fill="white" stroke="black" points="1612,-5.5 1612,-24.5 1754,-24.5 1754,-5.5 1612,-5.5"/>
<text text-anchor="middle" x="1683" y="-12.5" font-family="Helvetica,sans-Serif" font-size="10.00">viewPackage.View.initialize</text>
</a>
</g>
</g>
<!-- Node8&#45;&gt;Node9 -->
<g id="edge8" class="edge"><title>Node8&#45;&gt;Node9</title>
<path fill="none" stroke="midnightblue" d="M1586.33,-15C1594.93,-15 1603.57,-15 1611.95,-15"/>
<polygon fill="midnightblue" stroke="midnightblue" points="1586.26,-11.5001 1576.26,-15 1586.26,-18.5001 1586.26,-11.5001"/>
</g>
<!-- Node10 -->
<g id="node10" class="node"><title>Node10</title>
<g id="a_node10"><a xlink:href="../../d9/df7/classcontroller_1_1_controller.html#a4dbfef3e3e30bd1bb84df7a6b24ad1e7" target="_top" xlink:title="controller.Controller.Controller">
<polygon fill="white" stroke="black" points="1790.5,-5.5 1790.5,-24.5 1949.5,-24.5 1949.5,-5.5 1790.5,-5.5"/>
<text text-anchor="middle" x="1870" y="-12.5" font-family="Helvetica,sans-Serif" font-size="10.00">controller.Controller.Controller</text>
</a>
</g>
</g>
<!-- Node9&#45;&gt;Node10 -->
<g id="edge9" class="edge"><title>Node9&#45;&gt;Node10</title>
<path fill="none" stroke="midnightblue" d="M1764.31,-15C1773,-15 1781.83,-15 1790.49,-15"/>
<polygon fill="midnightblue" stroke="midnightblue" points="1764.2,-11.5001 1754.2,-15 1764.2,-18.5001 1764.2,-11.5001"/>
</g>
</g>
</svg>
