<?xml version="1.0" encoding="UTF-8" standalone="no"?>
<!DOCTYPE svg PUBLIC "-//W3C//DTD SVG 1.1//EN"
 "http://www.w3.org/Graphics/SVG/1.1/DTD/svg11.dtd">
<!-- Generated by graphviz version 2.36.0 (20140111.2315)
 -->
<!-- Title: model.SegregationSimulation.makeNextGrid Pages: 1 -->
<svg width="580pt" height="104pt"
 viewBox="0.00 0.00 580.00 104.00" xmlns="http://www.w3.org/2000/svg" xmlns:xlink="http://www.w3.org/1999/xlink">
<g id="graph0" class="graph" transform="scale(1 1) rotate(0) translate(4 100)">
<title>model.SegregationSimulation.makeNextGrid</title>
<polygon fill="white" stroke="none" points="-4,4 -4,-100 576,-100 576,4 -4,4"/>
<!-- Node1 -->
<g id="node1" class="node"><title>Node1</title>
<polygon fill="#bfbfbf" stroke="black" points="0.5,-33 0.5,-63 189.5,-63 189.5,-33 0.5,-33"/>
<text text-anchor="start" x="8.5" y="-51" font-family="Helvetica,sans-Serif" font-size="10.00">model.SegregationSimulation.make</text>
<text text-anchor="middle" x="95" y="-40" font-family="Helvetica,sans-Serif" font-size="10.00">NextGrid</text>
</g>
<!-- Node2 -->
<g id="node2" class="node"><title>Node2</title>
<g id="a_node2"><a xlink:href="../../d2/d17/classmodel_1_1_simulation.html#a8e66f9dff5f29f97efb58d49193e0e1f" target="_top" xlink:title="model.Simulation.getCurrentGrid">
<polygon fill="white" stroke="black" points="226.5,-76.5 226.5,-95.5 401.5,-95.5 401.5,-76.5 226.5,-76.5"/>
<text text-anchor="middle" x="314" y="-83.5" font-family="Helvetica,sans-Serif" font-size="10.00">model.Simulation.getCurrentGrid</text>
</a>
</g>
</g>
<!-- Node1&#45;&gt;Node2 -->
<g id="edge1" class="edge"><title>Node1&#45;&gt;Node2</title>
<path fill="none" stroke="midnightblue" d="M181.764,-63.0186C204.06,-66.923 227.697,-71.0622 248.677,-74.736"/>
<polygon fill="midnightblue" stroke="midnightblue" points="248.291,-78.2216 258.745,-76.4991 249.498,-71.3266 248.291,-78.2216"/>
</g>
<!-- Node3 -->
<g id="node3" class="node"><title>Node3</title>
<g id="a_node3"><a xlink:href="../../dc/d8f/classmodel_1_1_grid.html#a2a1dabe5f40f45e1018d5fce56ae29bc" target="_top" xlink:title="model.Grid.print">
<polygon fill="white" stroke="black" points="267,-38.5 267,-57.5 361,-57.5 361,-38.5 267,-38.5"/>
<text text-anchor="middle" x="314" y="-45.5" font-family="Helvetica,sans-Serif" font-size="10.00">model.Grid.print</text>
</a>
</g>
</g>
<!-- Node1&#45;&gt;Node3 -->
<g id="edge2" class="edge"><title>Node1&#45;&gt;Node3</title>
<path fill="none" stroke="midnightblue" d="M189.602,-48C212.466,-48 236.23,-48 256.728,-48"/>
<polygon fill="midnightblue" stroke="midnightblue" points="256.818,-51.5001 266.818,-48 256.817,-44.5001 256.818,-51.5001"/>
</g>
<!-- Node6 -->
<g id="node6" class="node"><title>Node6</title>
<g id="a_node6"><a xlink:href="../../dc/d8f/classmodel_1_1_grid.html#a9e11c6171839cc24ba2b1d86b185912f" target="_top" xlink:title="model.Grid.putCell">
<polygon fill="white" stroke="black" points="261.5,-0.5 261.5,-19.5 366.5,-19.5 366.5,-0.5 261.5,-0.5"/>
<text text-anchor="middle" x="314" y="-7.5" font-family="Helvetica,sans-Serif" font-size="10.00">model.Grid.putCell</text>
</a>
</g>
</g>
<!-- Node1&#45;&gt;Node6 -->
<g id="edge5" class="edge"><title>Node1&#45;&gt;Node6</title>
<path fill="none" stroke="midnightblue" d="M181.764,-32.9814C204.98,-28.916 229.649,-24.596 251.258,-20.8119"/>
<polygon fill="midnightblue" stroke="midnightblue" points="252.031,-24.23 261.277,-19.0574 250.823,-17.3349 252.031,-24.23"/>
</g>
<!-- Node4 -->
<g id="node4" class="node"><title>Node4</title>
<g id="a_node4"><a xlink:href="../../d3/d57/classmodel_1_1_cell.html#a21f51d50e471c093ccba82f974f30032" target="_top" xlink:title="model.Cell.getProperties">
<polygon fill="white" stroke="black" points="438,-57.5 438,-76.5 572,-76.5 572,-57.5 438,-57.5"/>
<text text-anchor="middle" x="505" y="-64.5" font-family="Helvetica,sans-Serif" font-size="10.00">model.Cell.getProperties</text>
</a>
</g>
</g>
<!-- Node3&#45;&gt;Node4 -->
<g id="edge3" class="edge"><title>Node3&#45;&gt;Node4</title>
<path fill="none" stroke="midnightblue" d="M361.235,-52.6479C381.231,-54.6581 405.169,-57.0646 427.676,-59.3273"/>
<polygon fill="midnightblue" stroke="midnightblue" points="427.598,-62.8369 437.898,-60.3548 428.298,-55.872 427.598,-62.8369"/>
</g>
<!-- Node5 -->
<g id="node5" class="node"><title>Node5</title>
<g id="a_node5"><a xlink:href="../../d3/d57/classmodel_1_1_cell.html#a527cb796745a34155e9b2a82b2a8812a" target="_top" xlink:title="model.Cell.toString">
<polygon fill="white" stroke="black" points="451,-19.5 451,-38.5 559,-38.5 559,-19.5 451,-19.5"/>
<text text-anchor="middle" x="505" y="-26.5" font-family="Helvetica,sans-Serif" font-size="10.00">model.Cell.toString</text>
</a>
</g>
</g>
<!-- Node3&#45;&gt;Node5 -->
<g id="edge4" class="edge"><title>Node3&#45;&gt;Node5</title>
<path fill="none" stroke="midnightblue" d="M361.235,-43.3521C385.161,-40.9468 414.73,-37.9743 440.741,-35.3594"/>
<polygon fill="midnightblue" stroke="midnightblue" points="441.29,-38.822 450.889,-34.3392 440.589,-31.8571 441.29,-38.822"/>
</g>
</g>
</svg>
