<?xml version="1.0" encoding="UTF-8" standalone="no"?>
<!DOCTYPE svg PUBLIC "-//W3C//DTD SVG 1.1//EN"
 "http://www.w3.org/Graphics/SVG/1.1/DTD/svg11.dtd">
<!-- Generated by graphviz version 2.36.0 (20140111.2315)
 -->
<!-- Title: model.SegregationSimulation.calculateNewCellState Pages: 1 -->
<svg width="578pt" height="154pt"
 viewBox="0.00 0.00 578.00 154.00" xmlns="http://www.w3.org/2000/svg" xmlns:xlink="http://www.w3.org/1999/xlink">
<g id="graph0" class="graph" transform="scale(1 1) rotate(0) translate(4 150)">
<title>model.SegregationSimulation.calculateNewCellState</title>
<polygon fill="white" stroke="none" points="-4,4 -4,-150 574,-150 574,4 -4,4"/>
<!-- Node1 -->
<g id="node1" class="node"><title>Node1</title>
<polygon fill="#bfbfbf" stroke="black" points="0.5,-55 0.5,-85 205.5,-85 205.5,-55 0.5,-55"/>
<text text-anchor="start" x="8.5" y="-73" font-family="Helvetica,sans-Serif" font-size="10.00">model.SegregationSimulation.calculate</text>
<text text-anchor="middle" x="103" y="-62" font-family="Helvetica,sans-Serif" font-size="10.00">NewCellState</text>
</g>
<!-- Node2 -->
<g id="node2" class="node"><title>Node2</title>
<g id="a_node2"><a xlink:href="../../d2/d17/classmodel_1_1_simulation.html#a8e66f9dff5f29f97efb58d49193e0e1f" target="_top" xlink:title="model.Simulation.getCurrentGrid">
<polygon fill="white" stroke="black" points="242.5,-126.5 242.5,-145.5 417.5,-145.5 417.5,-126.5 242.5,-126.5"/>
<text text-anchor="middle" x="330" y="-133.5" font-family="Helvetica,sans-Serif" font-size="10.00">model.Simulation.getCurrentGrid</text>
</a>
</g>
</g>
<!-- Node1&#45;&gt;Node2 -->
<g id="edge1" class="edge"><title>Node1&#45;&gt;Node2</title>
<path fill="none" stroke="midnightblue" d="M145.65,-85.0419C172.866,-94.5827 209.299,-106.814 242,-116 252.176,-118.859 263.105,-121.614 273.664,-124.117"/>
<polygon fill="midnightblue" stroke="midnightblue" points="273.104,-127.581 283.637,-126.436 274.689,-120.762 273.104,-127.581"/>
</g>
<!-- Node3 -->
<g id="node3" class="node"><title>Node3</title>
<g id="a_node3"><a xlink:href="../../dc/d8f/classmodel_1_1_grid.html#ad735ff84934075c0000347c1685cc9d2" target="_top" xlink:title="model.Grid.getDirectNeighbors\lWithType">
<polygon fill="white" stroke="black" points="247.5,-77 247.5,-107 412.5,-107 412.5,-77 247.5,-77"/>
<text text-anchor="start" x="255.5" y="-95" font-family="Helvetica,sans-Serif" font-size="10.00">model.Grid.getDirectNeighbors</text>
<text text-anchor="middle" x="330" y="-84" font-family="Helvetica,sans-Serif" font-size="10.00">WithType</text>
</a>
</g>
</g>
<!-- Node1&#45;&gt;Node3 -->
<g id="edge2" class="edge"><title>Node1&#45;&gt;Node3</title>
<path fill="none" stroke="midnightblue" d="M205.639,-79.938C216.12,-80.9628 226.728,-82.0001 237.095,-83.0137"/>
<polygon fill="midnightblue" stroke="midnightblue" points="237.074,-86.5283 247.367,-84.0181 237.755,-79.5615 237.074,-86.5283"/>
</g>
<!-- Node5 -->
<g id="node5" class="node"><title>Node5</title>
<g id="a_node5"><a xlink:href="../../d3/d57/classmodel_1_1_cell.html#ae3edf2d4d7cc0314b5813d12dc8034f5" target="_top" xlink:title="model.Cell.getKey">
<polygon fill="white" stroke="black" points="279,-38.5 279,-57.5 381,-57.5 381,-38.5 279,-38.5"/>
<text text-anchor="middle" x="330" y="-45.5" font-family="Helvetica,sans-Serif" font-size="10.00">model.Cell.getKey</text>
</a>
</g>
</g>
<!-- Node1&#45;&gt;Node5 -->
<g id="edge4" class="edge"><title>Node1&#45;&gt;Node5</title>
<path fill="none" stroke="midnightblue" d="M205.639,-60.062C227.159,-57.9578 249.214,-55.8013 268.615,-53.9043"/>
<polygon fill="midnightblue" stroke="midnightblue" points="269.188,-57.3651 278.8,-52.9085 268.507,-50.3983 269.188,-57.3651"/>
</g>
<!-- Node6 -->
<g id="node6" class="node"><title>Node6</title>
<g id="a_node6"><a xlink:href="../../d3/d57/classmodel_1_1_cell.html#af3d3f6f007030f25fb677f0f2f01510b" target="_top" xlink:title="model.Cell.getState">
<polygon fill="white" stroke="black" points="274,-0.5 274,-19.5 386,-19.5 386,-0.5 274,-0.5"/>
<text text-anchor="middle" x="330" y="-7.5" font-family="Helvetica,sans-Serif" font-size="10.00">model.Cell.getState</text>
</a>
</g>
</g>
<!-- Node1&#45;&gt;Node6 -->
<g id="edge5" class="edge"><title>Node1&#45;&gt;Node6</title>
<path fill="none" stroke="midnightblue" d="M151.34,-54.9944C177.864,-46.8243 211.623,-36.8181 242,-29 251.769,-26.4856 262.211,-24.0187 272.347,-21.7383"/>
<polygon fill="midnightblue" stroke="midnightblue" points="273.337,-25.1038 282.345,-19.5252 271.825,-18.2692 273.337,-25.1038"/>
</g>
<!-- Node4 -->
<g id="node4" class="node"><title>Node4</title>
<g id="a_node4"><a xlink:href="../../dc/d8f/classmodel_1_1_grid.html#a7fd07edd38cb4fbc123431255df70a84" target="_top" xlink:title="model.Grid.inBounds">
<polygon fill="white" stroke="black" points="454,-82.5 454,-101.5 570,-101.5 570,-82.5 454,-82.5"/>
<text text-anchor="middle" x="512" y="-89.5" font-family="Helvetica,sans-Serif" font-size="10.00">model.Grid.inBounds</text>
</a>
</g>
</g>
<!-- Node3&#45;&gt;Node4 -->
<g id="edge3" class="edge"><title>Node3&#45;&gt;Node4</title>
<path fill="none" stroke="midnightblue" d="M412.573,-92C423.038,-92 433.656,-92 443.855,-92"/>
<polygon fill="midnightblue" stroke="midnightblue" points="443.892,-95.5001 453.892,-92 443.892,-88.5001 443.892,-95.5001"/>
</g>
</g>
</svg>
