<?xml version="1.0" encoding="UTF-8" standalone="no"?>
<!DOCTYPE svg PUBLIC "-//W3C//DTD SVG 1.1//EN"
 "http://www.w3.org/Graphics/SVG/1.1/DTD/svg11.dtd">
<!-- Generated by graphviz version 2.36.0 (20140111.2315)
 -->
<!-- Title: viewPackage.View Pages: 1 -->
<svg width="1044pt" height="643pt"
 viewBox="0.00 0.00 1044.00 643.00" xmlns="http://www.w3.org/2000/svg" xmlns:xlink="http://www.w3.org/1999/xlink">
<g id="graph0" class="graph" transform="scale(1 1) rotate(0) translate(4 639)">
<title>viewPackage.View</title>
<polygon fill="white" stroke="none" points="-4,4 -4,-639 1040,-639 1040,4 -4,4"/>
<!-- Node1 -->
<g id="node1" class="node"><title>Node1</title>
<polygon fill="#bfbfbf" stroke="black" points="636.5,-287.5 636.5,-306.5 737.5,-306.5 737.5,-287.5 636.5,-287.5"/>
<text text-anchor="middle" x="687" y="-294.5" font-family="Helvetica,sans-Serif" font-size="10.00">viewPackage.View</text>
</g>
<!-- Node3 -->
<g id="node3" class="node"><title>Node3</title>
<g id="a_node3"><a xlink:href="../../df/dcf/classview_package_1_1_display_grid.html" target="_top" xlink:title="viewPackage.DisplayGrid">
<polygon fill="white" stroke="black" points="889,-253.5 889,-272.5 1023,-272.5 1023,-253.5 889,-253.5"/>
<text text-anchor="middle" x="956" y="-260.5" font-family="Helvetica,sans-Serif" font-size="10.00">viewPackage.DisplayGrid</text>
</a>
</g>
</g>
<!-- Node1&#45;&gt;Node3 -->
<g id="edge4" class="edge"><title>Node1&#45;&gt;Node3</title>
<path fill="none" stroke="#9a32cd" stroke-dasharray="5,2" d="M747.631,-289.407C789.426,-284.084 845.32,-276.967 888.547,-271.462"/>
<polygon fill="#9a32cd" stroke="#9a32cd" points="747.073,-285.949 737.595,-290.685 747.957,-292.893 747.073,-285.949"/>
<text text-anchor="middle" x="815" y="-290" font-family="Helvetica,sans-Serif" font-size="10.00"> view</text>
</g>
<!-- Node8 -->
<g id="node8" class="node"><title>Node8</title>
<g id="a_node8"><a xlink:href="../../d1/d10/classview_package_1_1_population_graph.html" target="_top" xlink:title="viewPackage.PopulationGraph">
<polygon fill="white" stroke="black" points="876.5,-516.5 876.5,-535.5 1035.5,-535.5 1035.5,-516.5 876.5,-516.5"/>
<text text-anchor="middle" x="956" y="-523.5" font-family="Helvetica,sans-Serif" font-size="10.00">viewPackage.PopulationGraph</text>
</a>
</g>
</g>
<!-- Node1&#45;&gt;Node8 -->
<g id="edge11" class="edge"><title>Node1&#45;&gt;Node8</title>
<path fill="none" stroke="#9a32cd" stroke-dasharray="5,2" d="M703.28,-314.22C719.246,-331.534 745.603,-358.276 772,-377 807.019,-401.84 823.793,-395.053 858,-421 896.754,-450.396 933.026,-496.329 947.899,-516.245"/>
<polygon fill="#9a32cd" stroke="#9a32cd" points="705.635,-311.607 696.323,-306.554 700.452,-316.311 705.635,-311.607"/>
<text text-anchor="middle" x="815" y="-424" font-family="Helvetica,sans-Serif" font-size="10.00"> view</text>
</g>
<!-- Node12 -->
<g id="node12" class="node"><title>Node12</title>
<g id="a_node12"><a xlink:href="../../d9/df7/classcontroller_1_1_controller.html" target="_top" xlink:title="controller.Controller">
<polygon fill="white" stroke="black" points="901,-105.5 901,-124.5 1011,-124.5 1011,-105.5 901,-105.5"/>
<text text-anchor="middle" x="956" y="-112.5" font-family="Helvetica,sans-Serif" font-size="10.00">controller.Controller</text>
</a>
</g>
</g>
<!-- Node1&#45;&gt;Node12 -->
<g id="edge16" class="edge"><title>Node1&#45;&gt;Node12</title>
<path fill="none" stroke="#9a32cd" stroke-dasharray="5,2" d="M709.305,-281.394C725.879,-269.667 749.728,-253.683 772,-242 808.544,-222.83 823.319,-229.363 858,-207 895.647,-182.724 931.662,-142.761 947.108,-124.562"/>
<polygon fill="#9a32cd" stroke="#9a32cd" points="706.991,-278.746 700.902,-287.416 711.069,-284.435 706.991,-278.746"/>
<text text-anchor="middle" x="815" y="-245" font-family="Helvetica,sans-Serif" font-size="10.00"> myView</text>
</g>
<!-- Node21 -->
<g id="node21" class="node"><title>Node21</title>
<g id="a_node21"><a xlink:href="../../dc/d2c/classview_package_1_1_button_box.html" target="_top" xlink:title="viewPackage.ButtonBox">
<polygon fill="white" stroke="black" points="891,-385.5 891,-404.5 1021,-404.5 1021,-385.5 891,-385.5"/>
<text text-anchor="middle" x="956" y="-392.5" font-family="Helvetica,sans-Serif" font-size="10.00">viewPackage.ButtonBox</text>
</a>
</g>
</g>
<!-- Node1&#45;&gt;Node21 -->
<g id="edge26" class="edge"><title>Node1&#45;&gt;Node21</title>
<path fill="none" stroke="#9a32cd" stroke-dasharray="5,2" d="M711.838,-312.065C728.255,-321.931 750.842,-334.52 772,-343 808.726,-357.719 819.931,-355.221 858,-366 880.155,-372.273 905.035,-379.72 924.051,-385.496"/>
<polygon fill="#9a32cd" stroke="#9a32cd" points="713.298,-308.856 702.942,-306.622 709.645,-314.827 713.298,-308.856"/>
<text text-anchor="middle" x="815" y="-369" font-family="Helvetica,sans-Serif" font-size="10.00"> view</text>
</g>
<!-- Node2 -->
<g id="node2" class="node"><title>Node2</title>
<polygon fill="white" stroke="#bfbfbf" points="417.5,-287.5 417.5,-306.5 462.5,-306.5 462.5,-287.5 417.5,-287.5"/>
<text text-anchor="middle" x="440" y="-294.5" font-family="Helvetica,sans-Serif" font-size="10.00">Stage</text>
</g>
<!-- Node2&#45;&gt;Node1 -->
<g id="edge1" class="edge"><title>Node2&#45;&gt;Node1</title>
<path fill="none" stroke="#9a32cd" stroke-dasharray="5,2" d="M472.816,-297C514.271,-297 587.216,-297 636.074,-297"/>
<polygon fill="#9a32cd" stroke="#9a32cd" points="472.742,-293.5 462.742,-297 472.742,-300.5 472.742,-293.5"/>
<text text-anchor="middle" x="562" y="-300" font-family="Helvetica,sans-Serif" font-size="10.00"> additionalStage</text>
</g>
<!-- Node3&#45;&gt;Node1 -->
<g id="edge2" class="edge"><title>Node3&#45;&gt;Node1</title>
<path fill="none" stroke="#9a32cd" stroke-dasharray="5,2" d="M878.724,-257.193C845.647,-256.271 806.637,-257.342 772,-264 748.458,-268.525 723.052,-279.429 706.419,-287.47"/>
<polygon fill="#9a32cd" stroke="#9a32cd" points="878.673,-260.693 888.788,-257.539 878.914,-253.697 878.673,-260.693"/>
<text text-anchor="middle" x="815" y="-267" font-family="Helvetica,sans-Serif" font-size="10.00"> myGridDisplayed</text>
</g>
<!-- Node4 -->
<g id="node4" class="node"><title>Node4</title>
<polygon fill="white" stroke="#bfbfbf" points="663.5,-185.5 663.5,-204.5 710.5,-204.5 710.5,-185.5 663.5,-185.5"/>
<text text-anchor="middle" x="687" y="-192.5" font-family="Helvetica,sans-Serif" font-size="10.00">Shape</text>
</g>
<!-- Node4&#45;&gt;Node3 -->
<g id="edge3" class="edge"><title>Node4&#45;&gt;Node3</title>
<path fill="none" stroke="#9a32cd" stroke-dasharray="5,2" d="M720.758,-189.587C755.655,-185.098 812.079,-181.534 858,-196 894.31,-207.438 929.062,-237.624 945.353,-253.277"/>
<polygon fill="#9a32cd" stroke="#9a32cd" points="720.078,-186.148 710.655,-190.992 721.042,-193.082 720.078,-186.148"/>
<text text-anchor="middle" x="815" y="-199" font-family="Helvetica,sans-Serif" font-size="10.00"> myGrid</text>
</g>
<!-- Node5 -->
<g id="node5" class="node"><title>Node5</title>
<g id="a_node5"><a xlink:href="../../df/d81/classview_package_1_1_toggle_box.html" target="_top" xlink:title="viewPackage.ToggleBox">
<polygon fill="white" stroke="black" points="376,-249.5 376,-268.5 504,-268.5 504,-249.5 376,-249.5"/>
<text text-anchor="middle" x="440" y="-256.5" font-family="Helvetica,sans-Serif" font-size="10.00">viewPackage.ToggleBox</text>
</a>
</g>
</g>
<!-- Node5&#45;&gt;Node1 -->
<g id="edge5" class="edge"><title>Node5&#45;&gt;Node1</title>
<path fill="none" stroke="#9a32cd" stroke-dasharray="5,2" d="M514.122,-268.898C541.697,-272.774 573.323,-277.393 602,-282 613.116,-283.786 625.035,-285.834 636.301,-287.83"/>
<polygon fill="#9a32cd" stroke="#9a32cd" points="514.547,-265.423 504.159,-267.505 513.577,-272.356 514.547,-265.423"/>
<text text-anchor="middle" x="562" y="-285" font-family="Helvetica,sans-Serif" font-size="10.00"> toggles</text>
</g>
<!-- Node6 -->
<g id="node6" class="node"><title>Node6</title>
<polygon fill="white" stroke="#bfbfbf" points="216,-249.5 216,-268.5 292,-268.5 292,-249.5 216,-249.5"/>
<text text-anchor="middle" x="254" y="-256.5" font-family="Helvetica,sans-Serif" font-size="10.00">ToggleGroup</text>
</g>
<!-- Node6&#45;&gt;Node5 -->
<g id="edge6" class="edge"><title>Node6&#45;&gt;Node5</title>
<path fill="none" stroke="#9a32cd" stroke-dasharray="5,2" d="M302.462,-259C324.779,-259 351.704,-259 375.726,-259"/>
<polygon fill="#9a32cd" stroke="#9a32cd" points="302.235,-255.5 292.235,-259 302.235,-262.5 302.235,-255.5"/>
<text text-anchor="middle" x="334" y="-284" font-family="Helvetica,sans-Serif" font-size="10.00"> outline</text>
<text text-anchor="middle" x="334" y="-273" font-family="Helvetica,sans-Serif" font-size="10.00">edgeType</text>
<text text-anchor="middle" x="334" y="-262" font-family="Helvetica,sans-Serif" font-size="10.00">cellShape</text>
</g>
<!-- Node7 -->
<g id="node7" class="node"><title>Node7</title>
<polygon fill="white" stroke="#bfbfbf" points="393.5,-325.5 393.5,-344.5 486.5,-344.5 486.5,-325.5 393.5,-325.5"/>
<text text-anchor="middle" x="440" y="-332.5" font-family="Helvetica,sans-Serif" font-size="10.00">ResourceBundle</text>
</g>
<!-- Node7&#45;&gt;Node1 -->
<g id="edge7" class="edge"><title>Node7&#45;&gt;Node1</title>
<path fill="none" stroke="#9a32cd" stroke-dasharray="5,2" d="M497.006,-326.892C527.977,-322.348 567.139,-316.503 602,-311 613.099,-309.248 625.011,-307.302 636.275,-305.432"/>
<polygon fill="#9a32cd" stroke="#9a32cd" points="496.222,-323.47 486.834,-328.381 497.236,-330.396 496.222,-323.47"/>
<text text-anchor="middle" x="562" y="-327" font-family="Helvetica,sans-Serif" font-size="10.00"> myResources</text>
</g>
<!-- Node7&#45;&gt;Node12 -->
<g id="edge15" class="edge"><title>Node7&#45;&gt;Node12</title>
<path fill="none" stroke="#9a32cd" stroke-dasharray="5,2" d="M495.924,-322.127C498.824,-320.343 501.548,-318.312 504,-316 520.883,-300.087 509.701,-286.673 522,-267 555.326,-213.693 564.174,-193.907 620,-165 667.845,-140.226 818.847,-125.299 900.806,-118.817"/>
<polygon fill="#9a32cd" stroke="#9a32cd" points="494.115,-319.121 486.79,-326.775 497.29,-325.359 494.115,-319.121"/>
<text text-anchor="middle" x="687" y="-168" font-family="Helvetica,sans-Serif" font-size="10.00"> myResources</text>
</g>
<!-- Node7&#45;&gt;Node21 -->
<g id="edge25" class="edge"><title>Node7&#45;&gt;Node21</title>
<path fill="none" stroke="#9a32cd" stroke-dasharray="5,2" d="M476.566,-347.947C548.174,-372.572 715.102,-422.706 858,-411 873.99,-409.69 891.316,-407.185 906.84,-404.539"/>
<polygon fill="#9a32cd" stroke="#9a32cd" points="477.701,-344.636 467.107,-344.65 475.398,-351.246 477.701,-344.636"/>
<text text-anchor="middle" x="687" y="-413" font-family="Helvetica,sans-Serif" font-size="10.00"> myResources</text>
</g>
<!-- Node8&#45;&gt;Node1 -->
<g id="edge8" class="edge"><title>Node8&#45;&gt;Node1</title>
<path fill="none" stroke="#9a32cd" stroke-dasharray="5,2" d="M898.229,-514.227C851.315,-503.409 789.653,-486.314 772,-468 751.197,-446.418 766.046,-430.449 754,-403 737.361,-365.084 708.811,-324.74 695.386,-306.698"/>
<polygon fill="#9a32cd" stroke="#9a32cd" points="897.469,-517.643 907.995,-516.438 899.015,-510.816 897.469,-517.643"/>
<text text-anchor="middle" x="815" y="-506" font-family="Helvetica,sans-Serif" font-size="10.00"> myGraph</text>
</g>
<!-- Node9 -->
<g id="node9" class="node"><title>Node9</title>
<polygon fill="white" stroke="#bfbfbf" points="620,-605 620,-635 754,-635 754,-605 620,-605"/>
<text text-anchor="start" x="628" y="-623" font-family="Helvetica,sans-Serif" font-size="10.00">List&lt; XYChart.Series</text>
<text text-anchor="middle" x="687" y="-612" font-family="Helvetica,sans-Serif" font-size="10.00">&lt; Number, Number &gt; &gt;</text>
</g>
<!-- Node9&#45;&gt;Node8 -->
<g id="edge9" class="edge"><title>Node9&#45;&gt;Node8</title>
<path fill="none" stroke="#9a32cd" stroke-dasharray="5,2" d="M763.969,-604.164C793.754,-596.969 827.932,-587.476 858,-576 887.737,-564.65 920.218,-546.664 939.036,-535.639"/>
<polygon fill="#9a32cd" stroke="#9a32cd" points="762.972,-600.803 754.049,-606.515 764.586,-607.614 762.972,-600.803"/>
<text text-anchor="middle" x="815" y="-604" font-family="Helvetica,sans-Serif" font-size="10.00"> listOfSpecies</text>
</g>
<!-- Node10 -->
<g id="node10" class="node"><title>Node10</title>
<polygon fill="white" stroke="#bfbfbf" points="629,-556 629,-586 745,-586 745,-556 629,-556"/>
<text text-anchor="start" x="637" y="-574" font-family="Helvetica,sans-Serif" font-size="10.00">LineChart&lt; Number,</text>
<text text-anchor="middle" x="687" y="-563" font-family="Helvetica,sans-Serif" font-size="10.00"> Number &gt;</text>
</g>
<!-- Node10&#45;&gt;Node8 -->
<g id="edge10" class="edge"><title>Node10&#45;&gt;Node8</title>
<path fill="none" stroke="#9a32cd" stroke-dasharray="5,2" d="M755.226,-563.934C786.577,-560.221 824.319,-555.155 858,-549 878.26,-545.297 900.644,-540.067 918.8,-535.53"/>
<polygon fill="#9a32cd" stroke="#9a32cd" points="754.813,-560.458 745.285,-565.092 755.622,-567.411 754.813,-560.458"/>
<text text-anchor="middle" x="815" y="-564" font-family="Helvetica,sans-Serif" font-size="10.00"> lineChart</text>
</g>
<!-- Node11 -->
<g id="node11" class="node"><title>Node11</title>
<polygon fill="white" stroke="#bfbfbf" points="649.5,-516.5 649.5,-535.5 724.5,-535.5 724.5,-516.5 649.5,-516.5"/>
<text text-anchor="middle" x="687" y="-523.5" font-family="Helvetica,sans-Serif" font-size="10.00">NumberAxis</text>
</g>
<!-- Node11&#45;&gt;Node8 -->
<g id="edge12" class="edge"><title>Node11&#45;&gt;Node8</title>
<path fill="none" stroke="#9a32cd" stroke-dasharray="5,2" d="M734.604,-526C773.697,-526 830.368,-526 876.454,-526"/>
<polygon fill="#9a32cd" stroke="#9a32cd" points="734.565,-522.5 724.565,-526 734.565,-529.5 734.565,-522.5"/>
<text text-anchor="middle" x="815" y="-540" font-family="Helvetica,sans-Serif" font-size="10.00"> xAxis</text>
<text text-anchor="middle" x="815" y="-529" font-family="Helvetica,sans-Serif" font-size="10.00">yAxis</text>
</g>
<!-- Node12&#45;&gt;Node1 -->
<g id="edge13" class="edge"><title>Node12&#45;&gt;Node1</title>
<path fill="none" stroke="#9a32cd" stroke-dasharray="5,2" d="M908.066,-127.141C857.335,-140.61 782.305,-161.672 772,-171 756.64,-184.903 764.547,-196.168 754,-214 736.942,-242.84 710.78,-272.624 697.08,-287.433"/>
<polygon fill="#9a32cd" stroke="#9a32cd" points="909.087,-130.491 917.862,-124.554 907.3,-123.723 909.087,-130.491"/>
<text text-anchor="middle" x="815" y="-174" font-family="Helvetica,sans-Serif" font-size="10.00"> control</text>
</g>
<!-- Node13 -->
<g id="node13" class="node"><title>Node13</title>
<polygon fill="white" stroke="#bfbfbf" points="659,-16.5 659,-35.5 715,-35.5 715,-16.5 659,-16.5"/>
<text text-anchor="middle" x="687" y="-23.5" font-family="Helvetica,sans-Serif" font-size="10.00">Timeline</text>
</g>
<!-- Node13&#45;&gt;Node12 -->
<g id="edge14" class="edge"><title>Node13&#45;&gt;Node12</title>
<path fill="none" stroke="#9a32cd" stroke-dasharray="5,2" d="M725.557,-29.3151C760.686,-33.2823 814.166,-41.5676 858,-58 890.19,-70.0673 923.966,-92.4835 941.933,-105.315"/>
<polygon fill="#9a32cd" stroke="#9a32cd" points="725.59,-25.7988 715.275,-28.2182 724.848,-32.7593 725.59,-25.7988"/>
<text text-anchor="middle" x="815" y="-61" font-family="Helvetica,sans-Serif" font-size="10.00"> myTimeline</text>
</g>
<!-- Node14 -->
<g id="node14" class="node"><title>Node14</title>
<g id="a_node14"><a xlink:href="../../d2/d17/classmodel_1_1_simulation.html" target="_top" xlink:title="model.Simulation">
<polygon fill="white" stroke="black" points="636.5,-54.5 636.5,-73.5 737.5,-73.5 737.5,-54.5 636.5,-54.5"/>
<text text-anchor="middle" x="687" y="-61.5" font-family="Helvetica,sans-Serif" font-size="10.00">model.Simulation</text>
</a>
</g>
</g>
<!-- Node14&#45;&gt;Node12 -->
<g id="edge17" class="edge"><title>Node14&#45;&gt;Node12</title>
<path fill="none" stroke="#9a32cd" stroke-dasharray="5,2" d="M748.136,-69.385C780.844,-72.9138 821.884,-78.3172 858,-86 881.725,-91.047 908.059,-99.0798 927.294,-105.413"/>
<polygon fill="#9a32cd" stroke="#9a32cd" points="748.137,-65.8659 737.827,-68.3046 747.407,-72.8278 748.137,-65.8659"/>
<text text-anchor="middle" x="815" y="-89" font-family="Helvetica,sans-Serif" font-size="10.00"> rules</text>
</g>
<!-- Node15 -->
<g id="node15" class="node"><title>Node15</title>
<g id="a_node15"><a xlink:href="../../dc/d8f/classmodel_1_1_grid.html" target="_top" xlink:title="model.Grid">
<polygon fill="white" stroke="black" points="405.5,-19.5 405.5,-38.5 474.5,-38.5 474.5,-19.5 405.5,-19.5"/>
<text text-anchor="middle" x="440" y="-26.5" font-family="Helvetica,sans-Serif" font-size="10.00">model.Grid</text>
</a>
</g>
</g>
<!-- Node15&#45;&gt;Node14 -->
<g id="edge18" class="edge"><title>Node15&#45;&gt;Node14</title>
<path fill="none" stroke="#9a32cd" stroke-dasharray="5,2" d="M484.6,-30.4492C517.137,-32.0312 562.585,-35.3007 602,-42 619.686,-45.0061 639.08,-49.9712 654.773,-54.4245"/>
<polygon fill="#9a32cd" stroke="#9a32cd" points="484.662,-26.9485 474.514,-29.9927 484.345,-33.9414 484.662,-26.9485"/>
<text text-anchor="middle" x="562" y="-56" font-family="Helvetica,sans-Serif" font-size="10.00"> currentGrid</text>
<text text-anchor="middle" x="562" y="-45" font-family="Helvetica,sans-Serif" font-size="10.00">nextGrid</text>
</g>
<!-- Node16 -->
<g id="node16" class="node"><title>Node16</title>
<g id="a_node16"><a xlink:href="../../d3/d57/classmodel_1_1_cell.html" target="_top" xlink:title="model.Cell">
<polygon fill="white" stroke="black" points="220.5,-19.5 220.5,-38.5 287.5,-38.5 287.5,-19.5 220.5,-19.5"/>
<text text-anchor="middle" x="254" y="-26.5" font-family="Helvetica,sans-Serif" font-size="10.00">model.Cell</text>
</a>
</g>
</g>
<!-- Node16&#45;&gt;Node15 -->
<g id="edge19" class="edge"><title>Node16&#45;&gt;Node15</title>
<path fill="none" stroke="#9a32cd" stroke-dasharray="5,2" d="M298.093,-29C330.865,-29 375.309,-29 405.457,-29"/>
<polygon fill="#9a32cd" stroke="#9a32cd" points="297.896,-25.5001 287.896,-29 297.895,-32.5001 297.896,-25.5001"/>
<text text-anchor="middle" x="334" y="-32" font-family="Helvetica,sans-Serif" font-size="10.00"> myCells</text>
</g>
<!-- Node17 -->
<g id="node17" class="node"><title>Node17</title>
<polygon fill="white" stroke="#bfbfbf" points="0,-38.5 0,-57.5 128,-57.5 128,-38.5 0,-38.5"/>
<text text-anchor="middle" x="64" y="-45.5" font-family="Helvetica,sans-Serif" font-size="10.00">Map&lt; String, Integer &gt;</text>
</g>
<!-- Node17&#45;&gt;Node16 -->
<g id="edge20" class="edge"><title>Node17&#45;&gt;Node16</title>
<path fill="none" stroke="#9a32cd" stroke-dasharray="5,2" d="M138.434,-40.5784C166.797,-37.712 197.787,-34.5801 220.375,-32.2972"/>
<polygon fill="#9a32cd" stroke="#9a32cd" points="137.722,-37.1326 128.124,-41.6204 138.426,-44.0971 137.722,-37.1326"/>
<text text-anchor="middle" x="172" y="-43" font-family="Helvetica,sans-Serif" font-size="10.00"> properties</text>
</g>
<!-- Node18 -->
<g id="node18" class="node"><title>Node18</title>
<g id="a_node18"><a xlink:href="../../d0/d76/enummodel_1_1_cell_state.html" target="_top" xlink:title="model.CellState">
<polygon fill="white" stroke="black" points="17.5,-0.5 17.5,-19.5 110.5,-19.5 110.5,-0.5 17.5,-0.5"/>
<text text-anchor="middle" x="64" y="-7.5" font-family="Helvetica,sans-Serif" font-size="10.00">model.CellState</text>
</a>
</g>
</g>
<!-- Node18&#45;&gt;Node16 -->
<g id="edge21" class="edge"><title>Node18&#45;&gt;Node16</title>
<path fill="none" stroke="#9a32cd" stroke-dasharray="5,2" d="M120.913,-13.1171C144.719,-14.7254 172.764,-16.9923 198,-20 205.302,-20.8702 213.116,-22.017 220.494,-23.1994"/>
<polygon fill="#9a32cd" stroke="#9a32cd" points="120.853,-9.60574 110.646,-12.446 120.396,-16.5908 120.853,-9.60574"/>
<text text-anchor="middle" x="172" y="-23" font-family="Helvetica,sans-Serif" font-size="10.00"> state</text>
</g>
<!-- Node19 -->
<g id="node19" class="node"><title>Node19</title>
<polygon fill="white" stroke="#bfbfbf" points="412,-64.5 412,-83.5 468,-83.5 468,-64.5 412,-64.5"/>
<text text-anchor="middle" x="440" y="-71.5" font-family="Helvetica,sans-Serif" font-size="10.00">Random</text>
</g>
<!-- Node19&#45;&gt;Node14 -->
<g id="edge22" class="edge"><title>Node19&#45;&gt;Node14</title>
<path fill="none" stroke="#9a32cd" stroke-dasharray="5,2" d="M478.282,-72.4783C520.497,-70.7552 589.473,-67.9399 636.252,-66.0305"/>
<polygon fill="#9a32cd" stroke="#9a32cd" points="478.004,-68.9866 468.155,-72.8916 478.29,-75.9808 478.004,-68.9866"/>
<text text-anchor="middle" x="562" y="-74" font-family="Helvetica,sans-Serif" font-size="10.00"> myGenerator</text>
</g>
<!-- Node20 -->
<g id="node20" class="node"><title>Node20</title>
<polygon fill="white" stroke="#bfbfbf" points="626,-92.5 626,-111.5 748,-111.5 748,-92.5 626,-92.5"/>
<text text-anchor="middle" x="687" y="-99.5" font-family="Helvetica,sans-Serif" font-size="10.00">Map&lt; String, String &gt;</text>
</g>
<!-- Node20&#45;&gt;Node12 -->
<g id="edge23" class="edge"><title>Node20&#45;&gt;Node12</title>
<path fill="none" stroke="#9a32cd" stroke-dasharray="5,2" d="M758.404,-100.567C789.033,-100.421 825.32,-100.89 858,-103 871.97,-103.902 887.01,-105.469 900.979,-107.179"/>
<polygon fill="#9a32cd" stroke="#9a32cd" points="758.223,-97.0681 748.248,-100.639 758.272,-104.068 758.223,-97.0681"/>
<text text-anchor="middle" x="815" y="-106" font-family="Helvetica,sans-Serif" font-size="10.00"> stateColorMap</text>
</g>
<!-- Node21&#45;&gt;Node1 -->
<g id="edge24" class="edge"><title>Node21&#45;&gt;Node1</title>
<path fill="none" stroke="#9a32cd" stroke-dasharray="5,2" d="M935.205,-378.947C916.428,-364.526 886.866,-343.849 858,-332 819.253,-316.094 772.464,-307.143 737.79,-302.283"/>
<polygon fill="#9a32cd" stroke="#9a32cd" points="933.24,-381.854 943.27,-385.269 937.559,-376.345 933.24,-381.854"/>
<text text-anchor="middle" x="815" y="-335" font-family="Helvetica,sans-Serif" font-size="10.00"> buttons</text>
</g>
<!-- Node22 -->
<g id="node22" class="node"><title>Node22</title>
<polygon fill="white" stroke="#bfbfbf" points="669.5,-454.5 669.5,-473.5 704.5,-473.5 704.5,-454.5 669.5,-454.5"/>
<text text-anchor="middle" x="687" y="-461.5" font-family="Helvetica,sans-Serif" font-size="10.00">Text</text>
</g>
<!-- Node22&#45;&gt;Node21 -->
<g id="edge27" class="edge"><title>Node22&#45;&gt;Node21</title>
<path fill="none" stroke="#9a32cd" stroke-dasharray="5,2" d="M714.73,-461.573C748.585,-458.052 808.478,-450.325 858,-436 886.101,-427.872 916.966,-413.888 936.164,-404.544"/>
<polygon fill="#9a32cd" stroke="#9a32cd" points="714.303,-458.098 704.699,-462.572 714.997,-465.064 714.303,-458.098"/>
<text text-anchor="middle" x="815" y="-456" font-family="Helvetica,sans-Serif" font-size="10.00"> speedText</text>
</g>
<!-- Node23 -->
<g id="node23" class="node"><title>Node23</title>
<polygon fill="white" stroke="#bfbfbf" points="417,-112.5 417,-131.5 463,-131.5 463,-112.5 417,-112.5"/>
<text text-anchor="middle" x="440" y="-119.5" font-family="Helvetica,sans-Serif" font-size="10.00">Group</text>
</g>
<!-- Node23&#45;&gt;Node1 -->
<g id="edge28" class="edge"><title>Node23&#45;&gt;Node1</title>
<path fill="none" stroke="#9a32cd" stroke-dasharray="5,2" d="M462.937,-137.669C512.563,-173.116 632.251,-258.608 672.521,-287.372"/>
<polygon fill="#9a32cd" stroke="#9a32cd" points="464.693,-134.622 454.521,-131.658 460.624,-140.319 464.693,-134.622"/>
<text text-anchor="middle" x="562" y="-239" font-family="Helvetica,sans-Serif" font-size="10.00"> root</text>
</g>
</g>
</svg>
