<?xml version="1.0" encoding="UTF-8" standalone="no"?>
<!DOCTYPE svg PUBLIC "-//W3C//DTD SVG 1.1//EN"
 "http://www.w3.org/Graphics/SVG/1.1/DTD/svg11.dtd">
<!-- Generated by graphviz version 2.36.0 (20140111.2315)
 -->
<!-- Title: viewPackage.RectangularGridView.initialEmptyGrid Pages: 1 -->
<svg width="374pt" height="115pt"
 viewBox="0.00 0.00 374.00 115.00" xmlns="http://www.w3.org/2000/svg" xmlns:xlink="http://www.w3.org/1999/xlink">
<g id="graph0" class="graph" transform="scale(1 1) rotate(0) translate(4 111)">
<title>viewPackage.RectangularGridView.initialEmptyGrid</title>
<polygon fill="white" stroke="none" points="-4,4 -4,-111 370,-111 370,4 -4,4"/>
<!-- Node1 -->
<g id="node1" class="node"><title>Node1</title>
<polygon fill="#bfbfbf" stroke="black" points="0.5,-44 0.5,-74 155.5,-74 155.5,-44 0.5,-44"/>
<text text-anchor="start" x="8.5" y="-62" font-family="Helvetica,sans-Serif" font-size="10.00">viewPackage.RectangularGrid</text>
<text text-anchor="middle" x="78" y="-51" font-family="Helvetica,sans-Serif" font-size="10.00">View.initialEmptyGrid</text>
</g>
<!-- Node2 -->
<g id="node2" class="node"><title>Node2</title>
<g id="a_node2"><a xlink:href="../../d1/dbf/classview_package_1_1_view.html#aec9d25091987c1259ada51e121b5680a" target="_top" xlink:title="viewPackage.View.addToRoot">
<polygon fill="white" stroke="black" points="203,-87.5 203,-106.5 355,-106.5 355,-87.5 203,-87.5"/>
<text text-anchor="middle" x="279" y="-94.5" font-family="Helvetica,sans-Serif" font-size="10.00">viewPackage.View.addToRoot</text>
</a>
</g>
</g>
<!-- Node1&#45;&gt;Node2 -->
<g id="edge1" class="edge"><title>Node1&#45;&gt;Node2</title>
<path fill="none" stroke="midnightblue" d="M155.654,-73.6374C176.353,-77.59 198.446,-81.8088 218.082,-85.5584"/>
<polygon fill="midnightblue" stroke="midnightblue" points="217.627,-89.0346 228.106,-87.4725 218.94,-82.1589 217.627,-89.0346"/>
</g>
<!-- Node3 -->
<g id="node3" class="node"><title>Node3</title>
<g id="a_node3"><a xlink:href="../../df/dcf/classview_package_1_1_display_grid.html#a097c515d1afff2b98764e2dfa1b4562a" target="_top" xlink:title="viewPackage.DisplayGrid.getView">
<polygon fill="white" stroke="black" points="192,-49.5 192,-68.5 366,-68.5 366,-49.5 192,-49.5"/>
<text text-anchor="middle" x="279" y="-56.5" font-family="Helvetica,sans-Serif" font-size="10.00">viewPackage.DisplayGrid.getView</text>
</a>
</g>
</g>
<!-- Node1&#45;&gt;Node3 -->
<g id="edge2" class="edge"><title>Node1&#45;&gt;Node3</title>
<path fill="none" stroke="midnightblue" d="M155.654,-59C164.153,-59 172.887,-59 181.59,-59"/>
<polygon fill="midnightblue" stroke="midnightblue" points="181.776,-62.5001 191.776,-59 181.776,-55.5001 181.776,-62.5001"/>
</g>
<!-- Node4 -->
<g id="node4" class="node"><title>Node4</title>
<g id="a_node4"><a xlink:href="../../df/dcf/classview_package_1_1_display_grid.html#aa1467f245293c26d8dd0132f03e1b414" target="_top" xlink:title="viewPackage.DisplayGrid.set\lShape">
<polygon fill="white" stroke="black" points="203,-0 203,-30 355,-30 355,-0 203,-0"/>
<text text-anchor="start" x="211" y="-18" font-family="Helvetica,sans-Serif" font-size="10.00">viewPackage.DisplayGrid.set</text>
<text text-anchor="middle" x="279" y="-7" font-family="Helvetica,sans-Serif" font-size="10.00">Shape</text>
</a>
</g>
</g>
<!-- Node1&#45;&gt;Node4 -->
<g id="edge3" class="edge"><title>Node1&#45;&gt;Node4</title>
<path fill="none" stroke="midnightblue" d="M146.928,-43.9808C163.964,-40.214 182.378,-36.1426 199.867,-32.2756"/>
<polygon fill="midnightblue" stroke="midnightblue" points="201.032,-35.6027 210.041,-30.0262 199.521,-28.7677 201.032,-35.6027"/>
</g>
</g>
</svg>
