<?xml version="1.0" encoding="UTF-8" standalone="no"?>
<!DOCTYPE svg PUBLIC "-//W3C//DTD SVG 1.1//EN"
 "http://www.w3.org/Graphics/SVG/1.1/DTD/svg11.dtd">
<!-- Generated by graphviz version 2.36.0 (20140111.2315)
 -->
<!-- Title: model.FiniteGrid Pages: 1 -->
<svg width="247pt" height="222pt"
 viewBox="0.00 0.00 247.00 222.00" xmlns="http://www.w3.org/2000/svg" xmlns:xlink="http://www.w3.org/1999/xlink">
<g id="graph0" class="graph" transform="scale(1 1) rotate(0) translate(4 218)">
<title>model.FiniteGrid</title>
<polygon fill="white" stroke="none" points="-4,4 -4,-218 243,-218 243,4 -4,4"/>
<!-- Node1 -->
<g id="node1" class="node"><title>Node1</title>
<polygon fill="#bfbfbf" stroke="black" points="81,-0.5 81,-19.5 175,-19.5 175,-0.5 81,-0.5"/>
<text text-anchor="middle" x="128" y="-7.5" font-family="Helvetica,sans-Serif" font-size="10.00">model.FiniteGrid</text>
</g>
<!-- Node2 -->
<g id="node2" class="node"><title>Node2</title>
<g id="a_node2"><a xlink:href="../../dc/d8f/classmodel_1_1_grid.html" target="_top" xlink:title="model.Grid">
<polygon fill="white" stroke="black" points="93.5,-58.5 93.5,-77.5 162.5,-77.5 162.5,-58.5 93.5,-58.5"/>
<text text-anchor="middle" x="128" y="-65.5" font-family="Helvetica,sans-Serif" font-size="10.00">model.Grid</text>
</a>
</g>
</g>
<!-- Node2&#45;&gt;Node1 -->
<g id="edge1" class="edge"><title>Node2&#45;&gt;Node1</title>
<path fill="none" stroke="midnightblue" d="M128,-47.953C128,-38.2875 128,-27.0312 128,-19.5052"/>
<polygon fill="midnightblue" stroke="midnightblue" points="124.5,-48.25 128,-58.25 131.5,-48.25 124.5,-48.25"/>
</g>
<!-- Node3 -->
<g id="node3" class="node"><title>Node3</title>
<g id="a_node3"><a xlink:href="../../d3/d57/classmodel_1_1_cell.html" target="_top" xlink:title="model.Cell">
<polygon fill="white" stroke="black" points="94.5,-126.5 94.5,-145.5 161.5,-145.5 161.5,-126.5 94.5,-126.5"/>
<text text-anchor="middle" x="128" y="-133.5" font-family="Helvetica,sans-Serif" font-size="10.00">model.Cell</text>
</a>
</g>
</g>
<!-- Node3&#45;&gt;Node2 -->
<g id="edge2" class="edge"><title>Node3&#45;&gt;Node2</title>
<path fill="none" stroke="#9a32cd" stroke-dasharray="5,2" d="M128,-116.041C128,-103.472 128,-87.5631 128,-77.8411"/>
<polygon fill="#9a32cd" stroke="#9a32cd" points="124.5,-116.372 128,-126.372 131.5,-116.372 124.5,-116.372"/>
<text text-anchor="middle" x="148.5" y="-99.5" font-family="Helvetica,sans-Serif" font-size="10.00"> myCells</text>
</g>
<!-- Node4 -->
<g id="node4" class="node"><title>Node4</title>
<polygon fill="white" stroke="#bfbfbf" points="0,-194.5 0,-213.5 128,-213.5 128,-194.5 0,-194.5"/>
<text text-anchor="middle" x="64" y="-201.5" font-family="Helvetica,sans-Serif" font-size="10.00">Map&lt; String, Integer &gt;</text>
</g>
<!-- Node4&#45;&gt;Node3 -->
<g id="edge3" class="edge"><title>Node4&#45;&gt;Node3</title>
<path fill="none" stroke="#9a32cd" stroke-dasharray="5,2" d="M79.4692,-187.047C92.0135,-174.111 109.23,-156.357 119.427,-145.841"/>
<polygon fill="#9a32cd" stroke="#9a32cd" points="76.8157,-184.756 72.3669,-194.372 81.841,-189.629 76.8157,-184.756"/>
<text text-anchor="middle" x="128" y="-167.5" font-family="Helvetica,sans-Serif" font-size="10.00"> properties</text>
</g>
<!-- Node5 -->
<g id="node5" class="node"><title>Node5</title>
<g id="a_node5"><a xlink:href="../../d0/d76/enummodel_1_1_cell_state.html" target="_top" xlink:title="model.CellState">
<polygon fill="white" stroke="black" points="146.5,-194.5 146.5,-213.5 239.5,-213.5 239.5,-194.5 146.5,-194.5"/>
<text text-anchor="middle" x="193" y="-201.5" font-family="Helvetica,sans-Serif" font-size="10.00">model.CellState</text>
</a>
</g>
</g>
<!-- Node5&#45;&gt;Node3 -->
<g id="edge4" class="edge"><title>Node5&#45;&gt;Node3</title>
<path fill="none" stroke="#9a32cd" stroke-dasharray="5,2" d="M179.091,-186.731C172.816,-179.595 165.208,-171.218 158,-164 151.662,-157.653 144.162,-150.903 138.247,-145.74"/>
<polygon fill="#9a32cd" stroke="#9a32cd" points="176.543,-189.135 185.741,-194.394 181.83,-184.547 176.543,-189.135"/>
<text text-anchor="middle" x="183" y="-167.5" font-family="Helvetica,sans-Serif" font-size="10.00"> state</text>
</g>
</g>
</svg>
