<?xml version="1.0" encoding="UTF-8" standalone="no"?>
<!DOCTYPE svg PUBLIC "-//W3C//DTD SVG 1.1//EN"
 "http://www.w3.org/Graphics/SVG/1.1/DTD/svg11.dtd">
<!-- Generated by graphviz version 2.36.0 (20140111.2315)
 -->
<!-- Title: model.Cell Pages: 1 -->
<svg width="247pt" height="96pt"
 viewBox="0.00 0.00 247.00 96.00" xmlns="http://www.w3.org/2000/svg" xmlns:xlink="http://www.w3.org/1999/xlink">
<g id="graph0" class="graph" transform="scale(1 1) rotate(0) translate(4 92)">
<title>model.Cell</title>
<polygon fill="white" stroke="none" points="-4,4 -4,-92 243,-92 243,4 -4,4"/>
<!-- Node1 -->
<g id="node1" class="node"><title>Node1</title>
<polygon fill="#bfbfbf" stroke="black" points="94.5,-0.5 94.5,-19.5 161.5,-19.5 161.5,-0.5 94.5,-0.5"/>
<text text-anchor="middle" x="128" y="-7.5" font-family="Helvetica,sans-Serif" font-size="10.00">model.Cell</text>
</g>
<!-- Node2 -->
<g id="node2" class="node"><title>Node2</title>
<polygon fill="white" stroke="#bfbfbf" points="0,-68.5 0,-87.5 128,-87.5 128,-68.5 0,-68.5"/>
<text text-anchor="middle" x="64" y="-75.5" font-family="Helvetica,sans-Serif" font-size="10.00">Map&lt; String, Integer &gt;</text>
</g>
<!-- Node2&#45;&gt;Node1 -->
<g id="edge1" class="edge"><title>Node2&#45;&gt;Node1</title>
<path fill="none" stroke="#9a32cd" stroke-dasharray="5,2" d="M79.4692,-61.0474C92.0135,-48.1111 109.23,-30.3567 119.427,-19.8411"/>
<polygon fill="#9a32cd" stroke="#9a32cd" points="76.8157,-58.7561 72.3669,-68.3717 81.841,-63.6291 76.8157,-58.7561"/>
<text text-anchor="middle" x="128" y="-41.5" font-family="Helvetica,sans-Serif" font-size="10.00"> properties</text>
</g>
<!-- Node3 -->
<g id="node3" class="node"><title>Node3</title>
<g id="a_node3"><a xlink:href="../../d0/d76/enummodel_1_1_cell_state.html" target="_top" xlink:title="model.CellState">
<polygon fill="white" stroke="black" points="146.5,-68.5 146.5,-87.5 239.5,-87.5 239.5,-68.5 146.5,-68.5"/>
<text text-anchor="middle" x="193" y="-75.5" font-family="Helvetica,sans-Serif" font-size="10.00">model.CellState</text>
</a>
</g>
</g>
<!-- Node3&#45;&gt;Node1 -->
<g id="edge2" class="edge"><title>Node3&#45;&gt;Node1</title>
<path fill="none" stroke="#9a32cd" stroke-dasharray="5,2" d="M179.091,-60.7306C172.816,-53.5948 165.208,-45.2181 158,-38 151.662,-31.6534 144.162,-24.9034 138.247,-19.7401"/>
<polygon fill="#9a32cd" stroke="#9a32cd" points="176.543,-63.135 185.741,-68.3935 181.83,-58.5469 176.543,-63.135"/>
<text text-anchor="middle" x="183" y="-41.5" font-family="Helvetica,sans-Serif" font-size="10.00"> state</text>
</g>
</g>
</svg>
